G75*
%MOIN*%
%OFA0B0*%
%FSLAX25Y25*%
%IPPOS*%
%LPD*%
%AMOC8*
5,1,8,0,0,1.08239X$1,22.5*
%
%ADD10C,0.06000*%
%ADD11C,0.17000*%
%ADD12C,0.04756*%
%ADD13C,0.11220*%
%ADD14C,0.06600*%
%ADD15C,0.07400*%
%ADD16C,0.13000*%
%ADD17C,0.06496*%
%ADD18C,0.05937*%
%ADD19C,0.06300*%
%ADD20C,0.25400*%
%ADD21C,0.03969*%
%ADD22C,0.03962*%
%ADD23C,0.03200*%
%ADD24C,0.02400*%
%ADD25C,0.01000*%
%ADD26C,0.01600*%
%ADD27C,0.03569*%
D10*
X0644000Y0506000D03*
X0654000Y0506000D03*
X0664000Y0506000D03*
X0674000Y0506000D03*
X0684000Y0506000D03*
X0694000Y0506000D03*
X0704000Y0506000D03*
X0714000Y0506000D03*
X0724000Y0506000D03*
X0734000Y0506000D03*
X0734000Y0516000D03*
X0724000Y0516000D03*
X0714000Y0516000D03*
X0704000Y0516000D03*
X0694000Y0516000D03*
X0684000Y0516000D03*
X0674000Y0516000D03*
X0664000Y0516000D03*
X0654000Y0516000D03*
X0644000Y0516000D03*
X0593000Y0522500D03*
X0583000Y0522500D03*
X0573000Y0522500D03*
X0573000Y0532500D03*
X0583000Y0532500D03*
X0593000Y0532500D03*
X0548000Y0532500D03*
X0538000Y0532500D03*
X0538000Y0522500D03*
X0548000Y0522500D03*
X0702000Y0632000D03*
X0712000Y0632000D03*
X0742500Y0702000D03*
X0752500Y0702000D03*
X0752500Y0712000D03*
X0742500Y0712000D03*
X0837500Y0695500D03*
X0837500Y0685500D03*
X0847500Y0685500D03*
X0847500Y0695500D03*
X0857500Y0695500D03*
X0857500Y0685500D03*
X0867500Y0685500D03*
X0867500Y0695500D03*
X0877500Y0695500D03*
X0877500Y0685500D03*
X0887500Y0685500D03*
X0887500Y0695500D03*
X0897500Y0695500D03*
X0907500Y0695500D03*
X0907500Y0685500D03*
X0897500Y0685500D03*
X0917500Y0685500D03*
X0917500Y0695500D03*
X0927500Y0695500D03*
X0927500Y0685500D03*
X0937500Y0685500D03*
X0937500Y0695500D03*
X0947500Y0695500D03*
X0947500Y0685500D03*
X0957500Y0685500D03*
X0957500Y0695500D03*
X0967500Y0695500D03*
X0967500Y0685500D03*
X0977500Y0685500D03*
X0977500Y0695500D03*
X0987500Y0695500D03*
X0987500Y0685500D03*
X0997500Y0685500D03*
X1007500Y0685500D03*
X1007500Y0695500D03*
X0997500Y0695500D03*
X1017500Y0695500D03*
X1017500Y0685500D03*
X1027500Y0685500D03*
X1027500Y0695500D03*
X1037500Y0695500D03*
X1037500Y0685500D03*
X1047500Y0685500D03*
X1047500Y0695500D03*
X1057500Y0695500D03*
X1057500Y0685500D03*
X0977500Y0675500D03*
X0967500Y0675500D03*
X0957500Y0675500D03*
X0947500Y0675500D03*
X0937500Y0675500D03*
X0927500Y0675500D03*
X0922500Y0779500D03*
X0912500Y0779500D03*
X0902500Y0779500D03*
X0892500Y0779500D03*
X0882500Y0779500D03*
X0882500Y0789500D03*
X0892500Y0789500D03*
X0902500Y0789500D03*
X0912500Y0789500D03*
X0922500Y0789500D03*
X0932500Y0789500D03*
X0942500Y0789500D03*
X0952500Y0789500D03*
X0962500Y0789500D03*
X0972500Y0789500D03*
X0982500Y0789500D03*
X0992500Y0789500D03*
X1002500Y0789500D03*
X1002500Y0779500D03*
X0992500Y0779500D03*
X0982500Y0779500D03*
X0972500Y0779500D03*
X0962500Y0779500D03*
X0952500Y0779500D03*
X0942500Y0779500D03*
X0932500Y0779500D03*
X0618500Y0651000D03*
X0618500Y0641000D03*
X0608500Y0641000D03*
X0598500Y0641000D03*
X0598500Y0651000D03*
X0608500Y0651000D03*
X0588500Y0651000D03*
X0588500Y0641000D03*
X0578500Y0641000D03*
X0578500Y0651000D03*
X0568500Y0651000D03*
X0568500Y0641000D03*
X0558500Y0641000D03*
X0558500Y0651000D03*
X0503500Y0655000D03*
X0503500Y0665000D03*
X0493500Y0665000D03*
X0493500Y0655000D03*
X0483500Y0655000D03*
X0483500Y0665000D03*
X0304307Y0698874D03*
X0304307Y0706748D03*
X0304307Y0714622D03*
X0304307Y0722496D03*
X0304307Y0730370D03*
X0304307Y0738244D03*
X0304307Y0746118D03*
X0304307Y0753992D03*
X0304307Y0761866D03*
X0304307Y0769740D03*
X0217693Y0769740D03*
X0217693Y0761866D03*
X0217693Y0753992D03*
X0217693Y0746118D03*
X0217693Y0738244D03*
X0217693Y0730370D03*
X0217693Y0722496D03*
X0217693Y0714622D03*
X0217693Y0706748D03*
X0217693Y0698874D03*
X0837500Y0505500D03*
X0837500Y0495500D03*
X0847500Y0495500D03*
X0847500Y0505500D03*
X0857500Y0505500D03*
X0857500Y0495500D03*
X0867500Y0495500D03*
X0867500Y0505500D03*
X0877500Y0505500D03*
X0877500Y0495500D03*
X0887500Y0495500D03*
X0887500Y0505500D03*
X0897500Y0505500D03*
X0907500Y0505500D03*
X0907500Y0495500D03*
X0897500Y0495500D03*
X0917500Y0495500D03*
X0917500Y0505500D03*
X0927500Y0505500D03*
X0927500Y0495500D03*
X0937500Y0495500D03*
X0937500Y0505500D03*
X0947500Y0505500D03*
X0947500Y0495500D03*
X0957500Y0495500D03*
X0957500Y0505500D03*
X0967500Y0505500D03*
X0967500Y0495500D03*
X0977500Y0495500D03*
X0977500Y0505500D03*
X0987500Y0505500D03*
X0987500Y0495500D03*
X0997500Y0495500D03*
X1007500Y0495500D03*
X1007500Y0505500D03*
X0997500Y0505500D03*
X1017500Y0505500D03*
X1017500Y0495500D03*
X1027500Y0495500D03*
X1027500Y0505500D03*
X1037500Y0505500D03*
X1037500Y0495500D03*
X1047500Y0495500D03*
X1047500Y0505500D03*
X1057500Y0505500D03*
X1057500Y0495500D03*
X1040500Y0179500D03*
X1030500Y0179500D03*
X1030500Y0169500D03*
X1040500Y0169500D03*
X1020500Y0169500D03*
X1020500Y0179500D03*
X1010500Y0179500D03*
X1010500Y0169500D03*
X1000500Y0169500D03*
X1000500Y0179500D03*
X0990500Y0179500D03*
X0990500Y0169500D03*
X0980500Y0169500D03*
X0980500Y0179500D03*
X0970500Y0179500D03*
X0970500Y0169500D03*
X0960500Y0169500D03*
X0960500Y0179500D03*
X0950500Y0179500D03*
X0950500Y0169500D03*
X0940500Y0169500D03*
X0930500Y0169500D03*
X0930500Y0179500D03*
X0940500Y0179500D03*
D11*
X1034000Y0746063D03*
X1015496Y0757874D03*
X1034000Y0769685D03*
D12*
X0600799Y0760957D03*
X0597650Y0765681D03*
X0594500Y0760957D03*
X0591350Y0765681D03*
X0588201Y0760957D03*
D13*
X0579933Y0764500D03*
X0579933Y0783201D03*
X0609067Y0783201D03*
X0609461Y0764500D03*
D14*
X0194800Y0296800D03*
X0194800Y0286800D03*
X0194800Y0276800D03*
X0021400Y0276800D03*
X0021400Y0266800D03*
X0021400Y0256800D03*
X0021400Y0246800D03*
X0021400Y0236800D03*
X0021400Y0226800D03*
D15*
X0102500Y0232700D03*
X0112500Y0232700D03*
X0112500Y0243500D03*
X0102500Y0243500D03*
X0072500Y0133500D03*
X0062500Y0133500D03*
X0052500Y0133500D03*
X0042500Y0133500D03*
X0032500Y0133500D03*
X0022500Y0133500D03*
X0434500Y0650000D03*
X0444500Y0650000D03*
X0445000Y0672000D03*
X0435000Y0672000D03*
X0365500Y0698000D03*
X0365500Y0708000D03*
X0355500Y0708000D03*
X0355500Y0698000D03*
X0355500Y0718000D03*
X0365500Y0718000D03*
X0368500Y0751000D03*
X0358500Y0751000D03*
X0348500Y0751000D03*
X0378500Y0751000D03*
X0388500Y0751000D03*
D16*
X0106900Y0573600D03*
X0044300Y0433800D03*
D17*
X0061500Y0436500D03*
X0061500Y0446500D03*
X0061500Y0456500D03*
X0061500Y0466500D03*
X0051500Y0466500D03*
X0051500Y0456500D03*
X0041500Y0456500D03*
X0041500Y0466500D03*
X0031500Y0466500D03*
X0031500Y0456500D03*
X0031500Y0476500D03*
X0031500Y0486500D03*
X0031500Y0496500D03*
X0031500Y0506500D03*
X0041500Y0506500D03*
X0041500Y0496500D03*
X0041500Y0486500D03*
X0041500Y0476500D03*
X0051500Y0476500D03*
X0051500Y0486500D03*
X0051500Y0496500D03*
X0051500Y0506500D03*
X0061500Y0506500D03*
X0061500Y0496500D03*
X0061500Y0486500D03*
X0061500Y0476500D03*
X0071500Y0476500D03*
X0071500Y0486500D03*
X0071500Y0496500D03*
X0071500Y0506500D03*
X0086500Y0506500D03*
X0086500Y0496500D03*
X0086500Y0486500D03*
X0086500Y0476500D03*
X0096500Y0476500D03*
X0096500Y0486500D03*
X0096500Y0496500D03*
X0096500Y0506500D03*
X0106500Y0506500D03*
X0106500Y0496500D03*
X0106500Y0486500D03*
X0106500Y0476500D03*
X0116500Y0476500D03*
X0116500Y0486500D03*
X0116500Y0496500D03*
X0116500Y0506500D03*
X0126500Y0506500D03*
X0126500Y0496500D03*
X0126500Y0486500D03*
X0126500Y0476500D03*
X0136500Y0476500D03*
X0136500Y0486500D03*
X0136500Y0496500D03*
X0136500Y0506500D03*
X0136500Y0516500D03*
X0136500Y0526500D03*
X0136500Y0536500D03*
X0136500Y0546500D03*
X0126500Y0546500D03*
X0126500Y0536500D03*
X0126500Y0526500D03*
X0126500Y0516500D03*
X0116500Y0516500D03*
X0116500Y0526500D03*
X0116500Y0536500D03*
X0116500Y0546500D03*
X0106500Y0546500D03*
X0106500Y0536500D03*
X0106500Y0526500D03*
X0106500Y0516500D03*
X0096500Y0516500D03*
X0096500Y0526500D03*
X0096500Y0536500D03*
X0096500Y0546500D03*
X0086500Y0546500D03*
X0086500Y0536500D03*
X0086500Y0526500D03*
X0086500Y0516500D03*
X0071500Y0516500D03*
X0071500Y0526500D03*
X0071500Y0536500D03*
X0071500Y0546500D03*
X0061500Y0546500D03*
X0061500Y0536500D03*
X0061500Y0526500D03*
X0061500Y0516500D03*
X0051500Y0516500D03*
X0051500Y0526500D03*
X0051500Y0536500D03*
X0051500Y0546500D03*
X0041500Y0546500D03*
X0041500Y0536500D03*
X0041500Y0526500D03*
X0041500Y0516500D03*
X0031500Y0516500D03*
X0031500Y0526500D03*
X0031500Y0536500D03*
X0031500Y0546500D03*
X0031500Y0556500D03*
X0031500Y0566500D03*
X0041500Y0566500D03*
X0041500Y0556500D03*
X0051500Y0556500D03*
X0051500Y0566500D03*
X0061500Y0566500D03*
X0061500Y0556500D03*
X0071500Y0556500D03*
X0071500Y0566500D03*
X0086500Y0566500D03*
X0086500Y0556500D03*
X0096500Y0556500D03*
X0106500Y0556500D03*
X0116500Y0556500D03*
X0126500Y0556500D03*
X0126500Y0566500D03*
X0136500Y0566500D03*
X0136500Y0556500D03*
X0136500Y0466500D03*
X0136500Y0456500D03*
X0136500Y0446500D03*
X0136500Y0436500D03*
X0126500Y0436500D03*
X0126500Y0446500D03*
X0126500Y0456500D03*
X0126500Y0466500D03*
X0116500Y0466500D03*
X0116500Y0456500D03*
X0116500Y0446500D03*
X0116500Y0436500D03*
X0106500Y0436500D03*
X0106500Y0446500D03*
X0106500Y0456500D03*
X0106500Y0466500D03*
X0096500Y0466500D03*
X0096500Y0456500D03*
X0096500Y0446500D03*
X0096500Y0436500D03*
X0086500Y0436500D03*
X0086500Y0446500D03*
X0086500Y0456500D03*
X0086500Y0466500D03*
X0071500Y0466500D03*
X0071500Y0456500D03*
X0071500Y0446500D03*
X0071500Y0436500D03*
X0071500Y0426500D03*
X0071500Y0416500D03*
X0071500Y0406500D03*
X0071500Y0396500D03*
X0071500Y0386500D03*
X0061500Y0386500D03*
X0061500Y0396500D03*
X0061500Y0406500D03*
X0061500Y0416500D03*
X0061500Y0426500D03*
X0051500Y0416500D03*
X0051500Y0406500D03*
X0051500Y0396500D03*
X0051500Y0386500D03*
X0041500Y0386500D03*
X0041500Y0396500D03*
X0041500Y0406500D03*
X0041500Y0416500D03*
X0031500Y0416500D03*
X0031500Y0406500D03*
X0031500Y0396500D03*
X0031500Y0386500D03*
X0031500Y0376500D03*
X0031500Y0366500D03*
X0031500Y0356500D03*
X0031500Y0346500D03*
X0041500Y0346500D03*
X0041500Y0356500D03*
X0041500Y0366500D03*
X0041500Y0376500D03*
X0051500Y0376500D03*
X0051500Y0366500D03*
X0051500Y0356500D03*
X0051500Y0346500D03*
X0061500Y0346500D03*
X0061500Y0356500D03*
X0061500Y0366500D03*
X0061500Y0376500D03*
X0071500Y0376500D03*
X0071500Y0366500D03*
X0071500Y0356500D03*
X0071500Y0346500D03*
X0086500Y0346500D03*
X0086500Y0356500D03*
X0086500Y0366500D03*
X0086500Y0376500D03*
X0096500Y0376500D03*
X0096500Y0366500D03*
X0096500Y0356500D03*
X0096500Y0346500D03*
X0106500Y0346500D03*
X0106500Y0356500D03*
X0106500Y0366500D03*
X0106500Y0376500D03*
X0116500Y0376500D03*
X0116500Y0366500D03*
X0116500Y0356500D03*
X0116500Y0346500D03*
X0126500Y0346500D03*
X0126500Y0356500D03*
X0126500Y0366500D03*
X0126500Y0376500D03*
X0136500Y0376500D03*
X0136500Y0366500D03*
X0136500Y0356500D03*
X0136500Y0346500D03*
X0136500Y0336500D03*
X0136500Y0326500D03*
X0136500Y0316500D03*
X0136500Y0306500D03*
X0126500Y0306500D03*
X0126500Y0316500D03*
X0126500Y0326500D03*
X0126500Y0336500D03*
X0116500Y0336500D03*
X0116500Y0326500D03*
X0116500Y0316500D03*
X0116500Y0306500D03*
X0106500Y0306500D03*
X0106500Y0316500D03*
X0106500Y0326500D03*
X0106500Y0336500D03*
X0096500Y0336500D03*
X0096500Y0326500D03*
X0096500Y0316500D03*
X0096500Y0306500D03*
X0086500Y0306500D03*
X0086500Y0316500D03*
X0086500Y0326500D03*
X0086500Y0336500D03*
X0071500Y0336500D03*
X0071500Y0326500D03*
X0071500Y0316500D03*
X0071500Y0306500D03*
X0061500Y0306500D03*
X0061500Y0316500D03*
X0061500Y0326500D03*
X0061500Y0336500D03*
X0051500Y0336500D03*
X0051500Y0326500D03*
X0051500Y0316500D03*
X0051500Y0306500D03*
X0041500Y0306500D03*
X0041500Y0316500D03*
X0041500Y0326500D03*
X0041500Y0336500D03*
X0031500Y0336500D03*
X0031500Y0326500D03*
X0031500Y0316500D03*
X0031500Y0306500D03*
X0086500Y0386500D03*
X0086500Y0396500D03*
X0086500Y0406500D03*
X0086500Y0416500D03*
X0086500Y0426500D03*
X0096500Y0426500D03*
X0096500Y0416500D03*
X0096500Y0406500D03*
X0096500Y0396500D03*
X0096500Y0386500D03*
X0106500Y0386500D03*
X0106500Y0396500D03*
X0106500Y0406500D03*
X0106500Y0416500D03*
X0106500Y0426500D03*
X0116500Y0426500D03*
X0116500Y0416500D03*
X0116500Y0406500D03*
X0116500Y0396500D03*
X0116500Y0386500D03*
X0126500Y0386500D03*
X0126500Y0396500D03*
X0126500Y0406500D03*
X0126500Y0416500D03*
X0126500Y0426500D03*
X0136500Y0426500D03*
X0136500Y0416500D03*
X0136500Y0406500D03*
X0136500Y0396500D03*
X0136500Y0386500D03*
X0349000Y0785500D03*
X0359000Y0785500D03*
X0369000Y0785500D03*
X0379000Y0785500D03*
X0389000Y0785500D03*
X0443500Y0783500D03*
X0453500Y0783500D03*
X0463500Y0783500D03*
X0473500Y0783500D03*
X0483500Y0783500D03*
X0493500Y0783500D03*
X0503500Y0783500D03*
X0681500Y0783000D03*
X0691500Y0783000D03*
X0701500Y0783000D03*
D18*
X0701500Y0756500D03*
X0691500Y0756500D03*
X0681500Y0756500D03*
X0768500Y0783500D03*
X0778500Y0783500D03*
X0788500Y0783500D03*
X0798500Y0783500D03*
X0808500Y0783500D03*
X0818500Y0783500D03*
X0828500Y0783500D03*
X0838500Y0783500D03*
X0848500Y0783500D03*
X0716000Y0541000D03*
X0706000Y0541000D03*
X0696000Y0541000D03*
X0686000Y0541000D03*
X0676000Y0541000D03*
X0666000Y0541000D03*
X0656000Y0541000D03*
X0455000Y0691500D03*
X0445000Y0691500D03*
X0435000Y0691500D03*
X0443500Y0751000D03*
X0453500Y0751000D03*
X0463500Y0751000D03*
X0473500Y0751000D03*
X0483500Y0751000D03*
X0493500Y0751000D03*
X0503500Y0751000D03*
X0287500Y0678500D03*
X0277500Y0678500D03*
X0267500Y0678500D03*
X0257500Y0678500D03*
X0247500Y0678500D03*
X0237500Y0678500D03*
X0227500Y0678500D03*
X0266500Y0488500D03*
X0276500Y0488500D03*
X0286500Y0488500D03*
X0932500Y0092000D03*
X0932500Y0082000D03*
X0942500Y0082000D03*
X0942500Y0092000D03*
X0952500Y0092000D03*
X0952500Y0082000D03*
X0952500Y0072000D03*
X0942500Y0072000D03*
X0932500Y0072000D03*
X1061000Y0086000D03*
X1061000Y0096000D03*
X1061000Y0106000D03*
X1061000Y0116000D03*
X1061000Y0126000D03*
X1061000Y0136000D03*
X1061000Y0146000D03*
X1061000Y0156000D03*
X1061000Y0166000D03*
D19*
X0836500Y0029900D03*
X0836500Y0012100D03*
X0806500Y0012100D03*
X0806500Y0029900D03*
X0528500Y0029900D03*
X0528500Y0012100D03*
X0498500Y0012100D03*
X0498500Y0029900D03*
X0456000Y0029900D03*
X0456000Y0012100D03*
X0426000Y0012100D03*
X0426000Y0029900D03*
X0386000Y0029900D03*
X0386000Y0012100D03*
X0356000Y0012100D03*
X0356000Y0029900D03*
X0316000Y0029900D03*
X0316000Y0012100D03*
X0286000Y0012100D03*
X0286000Y0029900D03*
X0251000Y0029900D03*
X0251000Y0012100D03*
X0221000Y0012100D03*
X0221000Y0029900D03*
X1043500Y0432100D03*
X1043500Y0449900D03*
X1073500Y0449900D03*
X1073500Y0432100D03*
D20*
X0021000Y0021000D03*
X0571000Y0021000D03*
X1081000Y0021000D03*
X0510500Y0493000D03*
X0091000Y0781000D03*
X1081000Y0781000D03*
D21*
X0050500Y0172000D03*
D22*
X0050500Y0181000D03*
X0035000Y0185622D03*
X0030500Y0176000D03*
X0030500Y0170000D03*
X0031000Y0154000D03*
X0051000Y0162500D03*
X0084500Y0141500D03*
X0085500Y0117000D03*
X0132000Y0117000D03*
X0155500Y0135000D03*
X0160500Y0144500D03*
X0169500Y0157500D03*
X0188000Y0170500D03*
X0202000Y0170500D03*
X0209500Y0158500D03*
X0198000Y0152500D03*
X0198000Y0138500D03*
X0174000Y0125000D03*
X0186000Y0119500D03*
X0211000Y0093500D03*
X0237500Y0039500D03*
X0264500Y0038000D03*
X0303500Y0039500D03*
X0372000Y0039500D03*
X0442500Y0039500D03*
X0515000Y0039500D03*
X0547500Y0282500D03*
X0534500Y0306500D03*
X0520000Y0286000D03*
X0588500Y0287000D03*
X0592500Y0297500D03*
X0377500Y0318000D03*
X0364000Y0318000D03*
X0352000Y0318000D03*
X0334000Y0318000D03*
X0312500Y0318000D03*
X0314500Y0337500D03*
X0277000Y0333500D03*
X0171500Y0210000D03*
X0156500Y0196500D03*
X0078000Y0216500D03*
X0066000Y0231000D03*
X0070000Y0198000D03*
X0021500Y0076500D03*
X0071500Y0021500D03*
X0146500Y0021500D03*
X0779000Y0482000D03*
X0810000Y0483000D03*
X0814500Y0491000D03*
X0754000Y0521000D03*
X0746000Y0526500D03*
X0745000Y0541000D03*
X0769500Y0544500D03*
X0743500Y0570000D03*
X0746500Y0576000D03*
X0740500Y0577500D03*
X0751000Y0582000D03*
X0757000Y0582000D03*
X0702000Y0601700D03*
X0694500Y0586500D03*
X0671000Y0621000D03*
X0670000Y0630500D03*
X0671500Y0638500D03*
X0687500Y0643500D03*
X0703000Y0655500D03*
X0713000Y0647000D03*
X0719000Y0642500D03*
X0721500Y0661500D03*
X0728500Y0665000D03*
X0740000Y0670000D03*
X0717000Y0683500D03*
X0699000Y0682500D03*
X0685500Y0686500D03*
X0702500Y0707500D03*
X0713043Y0706000D03*
X0702500Y0725500D03*
X0666500Y0734500D03*
X0663000Y0746000D03*
X0661500Y0762500D03*
X0656500Y0767000D03*
X0661500Y0772000D03*
X0650500Y0777500D03*
X0674500Y0781500D03*
X0636500Y0756000D03*
X0641500Y0733500D03*
X0629500Y0728500D03*
X0631000Y0721000D03*
X0632000Y0713500D03*
X0628500Y0709000D03*
X0623000Y0705000D03*
X0618500Y0701500D03*
X0613000Y0699500D03*
X0613000Y0685000D03*
X0614000Y0679000D03*
X0621500Y0678500D03*
X0628000Y0678500D03*
X0630000Y0686500D03*
X0600500Y0689000D03*
X0591500Y0696000D03*
X0584000Y0687000D03*
X0584000Y0678000D03*
X0594000Y0679000D03*
X0568500Y0661000D03*
X0556500Y0660000D03*
X0544500Y0660000D03*
X0535500Y0647500D03*
X0525000Y0648500D03*
X0514500Y0644000D03*
X0511500Y0652000D03*
X0515500Y0665000D03*
X0519500Y0672500D03*
X0542500Y0679500D03*
X0556000Y0693000D03*
X0584000Y0718500D03*
X0584000Y0724500D03*
X0605000Y0713500D03*
X0610000Y0721000D03*
X0602500Y0745000D03*
X0609500Y0751500D03*
X0665000Y0711000D03*
X0664500Y0661500D03*
X0637500Y0648500D03*
X0632000Y0652000D03*
X0631000Y0639000D03*
X0631000Y0622500D03*
X0629500Y0613500D03*
X0649000Y0628500D03*
X0632500Y0662500D03*
X0621500Y0662000D03*
X0593500Y0659500D03*
X0529500Y0631000D03*
X0490500Y0634000D03*
X0480000Y0639000D03*
X0474500Y0629500D03*
X0475000Y0620000D03*
X0485500Y0614000D03*
X0480000Y0607000D03*
X0465000Y0602500D03*
X0464500Y0586000D03*
X0456500Y0574000D03*
X0456500Y0566000D03*
X0472000Y0557500D03*
X0468500Y0541500D03*
X0493000Y0525500D03*
X0467000Y0523000D03*
X0441000Y0557500D03*
X0426500Y0566000D03*
X0426500Y0576000D03*
X0433500Y0586000D03*
X0403500Y0586000D03*
X0410500Y0557500D03*
X0348000Y0588000D03*
X0339000Y0617000D03*
X0339000Y0624000D03*
X0331500Y0633500D03*
X0321000Y0625500D03*
X0316000Y0612000D03*
X0304500Y0641000D03*
X0304500Y0661000D03*
X0286000Y0666500D03*
X0276000Y0648500D03*
X0214000Y0686500D03*
X0185000Y0646500D03*
X0161500Y0686500D03*
X0090500Y0698000D03*
X0016500Y0691500D03*
X0016500Y0676500D03*
X0016500Y0631500D03*
X0202500Y0750500D03*
X0277500Y0699996D03*
X0375500Y0665500D03*
X0394000Y0669500D03*
X0393500Y0659000D03*
X0393500Y0640500D03*
X0408000Y0629500D03*
X0416000Y0620000D03*
X0426500Y0612500D03*
X0443500Y0629500D03*
X0452500Y0620000D03*
X0465500Y0648500D03*
X0453000Y0666000D03*
X0462500Y0672000D03*
X0470000Y0682500D03*
X0480000Y0678500D03*
X0484000Y0693000D03*
X0497000Y0705000D03*
X0498500Y0697000D03*
X0474465Y0713500D03*
X0464500Y0715500D03*
X0461000Y0719000D03*
X0451500Y0721500D03*
X0469500Y0733500D03*
X0478000Y0759500D03*
X0509500Y0729000D03*
X0518500Y0719000D03*
X0542500Y0764000D03*
X0462500Y0700000D03*
X0425000Y0708000D03*
X0388000Y0689000D03*
X0417500Y0644000D03*
X0373000Y0638500D03*
X0289000Y0587000D03*
X0243000Y0592500D03*
X0336500Y0531500D03*
X0323500Y0515000D03*
X0297500Y0511000D03*
X0278000Y0503500D03*
X0483500Y0589500D03*
X0494500Y0586000D03*
X0498000Y0591500D03*
X0508500Y0591500D03*
X0523500Y0586000D03*
X0531220Y0595500D03*
X0536000Y0592500D03*
X0553500Y0593500D03*
X0556500Y0599000D03*
X0553000Y0586000D03*
X0547500Y0576000D03*
X0547500Y0566000D03*
X0560500Y0557500D03*
X0578000Y0566000D03*
X0577500Y0576000D03*
X0578000Y0585500D03*
X0589500Y0602500D03*
X0531000Y0557500D03*
X0519000Y0566000D03*
X0519000Y0572500D03*
X0502000Y0557500D03*
X0487500Y0566000D03*
X0487500Y0572500D03*
X0617000Y0535000D03*
X0690000Y0490500D03*
X0696500Y0490500D03*
X0715000Y0494500D03*
X0848500Y0561500D03*
X0881000Y0561500D03*
X0886000Y0558500D03*
X0891000Y0565500D03*
X0901500Y0556500D03*
X0922000Y0556500D03*
X0905000Y0525000D03*
X0940000Y0477500D03*
X0957500Y0472500D03*
X0967500Y0472500D03*
X0977500Y0472500D03*
X0987500Y0472500D03*
X0997500Y0472500D03*
X1007000Y0472500D03*
X1017500Y0472500D03*
X1027500Y0472500D03*
X1037500Y0472500D03*
X1047500Y0472500D03*
X1057500Y0472500D03*
X1054500Y0459000D03*
X1076500Y0466500D03*
X1087000Y0425000D03*
X1076500Y0371500D03*
X0955500Y0431000D03*
X0883000Y0440000D03*
X0884000Y0360500D03*
X1076500Y0246500D03*
X1043000Y0147000D03*
X1036000Y0131500D03*
X1022500Y0132500D03*
X1007000Y0132500D03*
X0999500Y0133500D03*
X1003000Y0143000D03*
X0985500Y0151000D03*
X0967500Y0137500D03*
X0943000Y0151000D03*
X0930500Y0135000D03*
X0914500Y0148000D03*
X0982000Y0114000D03*
X0999500Y0114500D03*
X1013000Y0101500D03*
X1033500Y0101000D03*
X1051500Y0094000D03*
X1051500Y0076000D03*
X1032500Y0079000D03*
X0985000Y0095500D03*
X0991500Y0021500D03*
X0987500Y0530000D03*
X0978000Y0530000D03*
X0967500Y0530000D03*
X0997500Y0530000D03*
X1007500Y0530000D03*
X1017500Y0530000D03*
X1027500Y0530000D03*
X1037500Y0530000D03*
X1047500Y0530000D03*
X1057500Y0530000D03*
X1076500Y0561500D03*
X1064500Y0630000D03*
X1078000Y0649000D03*
X1078000Y0666000D03*
X1061000Y0663500D03*
X1061500Y0657500D03*
X1052500Y0659500D03*
X1052000Y0654000D03*
X1039000Y0664000D03*
X1030500Y0666000D03*
X1044000Y0673000D03*
X1066500Y0681500D03*
X1071500Y0696000D03*
X1066500Y0707500D03*
X1051000Y0726000D03*
X1036000Y0726000D03*
X1021000Y0726000D03*
X1006000Y0726000D03*
X0991000Y0726000D03*
X0994500Y0740500D03*
X0967000Y0739500D03*
X0957500Y0733500D03*
X0971000Y0725500D03*
X0992500Y0713500D03*
X0992500Y0706000D03*
X1002000Y0713500D03*
X0977000Y0707500D03*
X0996000Y0673000D03*
X1004500Y0659500D03*
X1014000Y0657000D03*
X1014000Y0663000D03*
X1030500Y0649000D03*
X0978000Y0659500D03*
X0952500Y0662500D03*
X0934500Y0664500D03*
X0892500Y0659500D03*
X0882500Y0664000D03*
X0872500Y0664000D03*
X0863000Y0655500D03*
X0849000Y0643000D03*
X0840500Y0636500D03*
X0832500Y0641500D03*
X0849500Y0612000D03*
X0863500Y0609000D03*
X0863000Y0599000D03*
X0858000Y0595500D03*
X0845500Y0598500D03*
X0879000Y0613000D03*
X0883500Y0609000D03*
X0883000Y0603000D03*
X0892500Y0595000D03*
X0883000Y0589500D03*
X0888500Y0613500D03*
X0879000Y0643500D03*
X0853500Y0672500D03*
X0787500Y0649000D03*
X0787500Y0641000D03*
X0776500Y0685000D03*
X0797500Y0732500D03*
X0808500Y0732500D03*
X0819000Y0732500D03*
X0834000Y0751500D03*
X0833500Y0769500D03*
X0852000Y0770500D03*
X0817500Y0767500D03*
X0808500Y0771500D03*
X0779500Y0738000D03*
X0759500Y0752500D03*
X0754500Y0756500D03*
X0749500Y0760500D03*
X0744500Y0764500D03*
X0740000Y0768500D03*
X0734500Y0772000D03*
X0730000Y0776500D03*
X0725500Y0780500D03*
X0897000Y0758000D03*
X0902000Y0727500D03*
X0917500Y0730000D03*
X0917500Y0720000D03*
X0930000Y0729300D03*
X0936500Y0718500D03*
X0941500Y0733500D03*
X0945500Y0758500D03*
X0958000Y0619000D03*
X0433500Y0759000D03*
X0371000Y0759500D03*
D23*
X0287500Y0685000D02*
X0221500Y0685000D01*
X0221500Y0700000D01*
X0217693Y0700000D01*
X0287500Y0685000D02*
X0287500Y0678500D01*
D24*
X0217693Y0698874D02*
X0217693Y0700000D01*
D25*
X0217693Y0706748D02*
X0217945Y0708000D01*
X0221500Y0708000D01*
X0241500Y0688000D01*
X0313000Y0688000D01*
X0343000Y0718000D01*
X0355500Y0718000D01*
X0365500Y0718000D02*
X0388000Y0718000D01*
X0388000Y0689000D01*
X0397000Y0644000D02*
X0393500Y0640500D01*
X0397000Y0644000D02*
X0417500Y0644000D01*
X0434000Y0625000D02*
X0434000Y0611500D01*
X0426500Y0611500D01*
X0426500Y0612500D01*
X0434000Y0625000D02*
X0459000Y0625000D01*
X0459000Y0634000D01*
X0490500Y0634000D01*
X0485500Y0629500D02*
X0485500Y0614000D01*
X0485500Y0629500D02*
X0474500Y0629500D01*
X0493500Y0660000D02*
X0510000Y0660000D01*
X0510000Y0652500D01*
X0511500Y0652000D01*
X0529500Y0652500D01*
X0529500Y0647500D01*
X0535500Y0647500D01*
X0531500Y0660000D02*
X0544500Y0660000D01*
X0531500Y0660000D02*
X0531000Y0688000D01*
X0484000Y0688000D01*
X0484000Y0693000D01*
X0484000Y0707000D01*
X0456500Y0707000D01*
X0456500Y0734500D01*
X0407500Y0734500D01*
X0407500Y0759500D01*
X0371000Y0759500D01*
X0433500Y0759000D02*
X0473500Y0759000D01*
X0473500Y0751000D01*
X0469500Y0738500D02*
X0469500Y0733500D01*
X0469500Y0738500D02*
X0646500Y0738500D01*
X0646500Y0734500D01*
X0666500Y0734500D01*
X0713043Y0748000D02*
X0713043Y0706000D01*
X0718000Y0693500D02*
X0718000Y0745500D01*
X0776000Y0745500D01*
X0776000Y0772500D01*
X0793500Y0772500D01*
X0793500Y0794500D01*
X0917500Y0794500D01*
X0917500Y0773500D01*
X0977500Y0773500D01*
X0977500Y0784500D01*
X0992500Y0784500D01*
X0992500Y0779500D01*
X0992500Y0773500D01*
X1013500Y0773500D01*
X1013500Y0784000D01*
X1058500Y0784000D01*
X1058500Y0709000D01*
X1037500Y0709000D01*
X1037500Y0695500D01*
X1037500Y0690000D02*
X1037500Y0685500D01*
X1037500Y0690000D02*
X1032500Y0690000D01*
X1032500Y0712000D01*
X1055000Y0712000D01*
X1055000Y0781500D01*
X1016500Y0781500D01*
X1016500Y0770500D01*
X0983000Y0770500D01*
X0852000Y0770500D01*
X0847000Y0774500D02*
X0847000Y0765500D01*
X0945500Y0765500D01*
X0945500Y0758500D01*
X0934000Y0763500D02*
X0934000Y0722000D01*
X0942500Y0722000D01*
X0942500Y0690500D01*
X0937500Y0685500D01*
X0927500Y0695500D02*
X0922500Y0695500D01*
X0922500Y0709500D01*
X0906000Y0709500D01*
X0906000Y0753500D01*
X0893000Y0753500D01*
X0893000Y0761000D01*
X0798500Y0761000D01*
X0798500Y0783500D01*
X0812500Y0774500D02*
X0847000Y0774500D01*
X0845000Y0766000D02*
X0845000Y0763500D01*
X0934000Y0763500D01*
X0927500Y0784500D02*
X0927500Y0797000D01*
X0783500Y0797000D01*
X0783500Y0775000D01*
X0773500Y0775000D01*
X0773500Y0748000D01*
X0713043Y0748000D01*
X0721000Y0727500D02*
X0721000Y0670500D01*
X0568500Y0670500D01*
X0568500Y0661000D01*
X0562500Y0655000D02*
X0558500Y0651000D01*
X0562500Y0655000D02*
X0562500Y0673000D01*
X0717000Y0673000D01*
X0717000Y0683500D01*
X0718000Y0693500D02*
X0598000Y0693500D01*
X0596500Y0692000D01*
X0587000Y0692000D01*
X0587000Y0697500D01*
X0556500Y0697500D01*
X0556500Y0693000D01*
X0556000Y0693000D01*
X0573500Y0668500D02*
X0573500Y0651000D01*
X0568500Y0651000D01*
X0558500Y0644000D02*
X0558500Y0641000D01*
X0558500Y0644000D02*
X0514500Y0644000D01*
X0493500Y0660000D02*
X0493500Y0665000D01*
X0518500Y0674500D02*
X0465000Y0674500D01*
X0465000Y0672000D01*
X0462500Y0672000D01*
X0498500Y0697000D02*
X0503500Y0697000D01*
X0503500Y0714500D01*
X0518500Y0714500D01*
X0518500Y0719000D01*
X0518500Y0674500D02*
X0519500Y0672500D01*
X0573500Y0668500D02*
X0740000Y0668500D01*
X0740000Y0670000D01*
X0721500Y0666500D02*
X0721500Y0661500D01*
X0721500Y0666500D02*
X0588500Y0666500D01*
X0588500Y0651000D01*
X0598500Y0651000D02*
X0598500Y0646000D01*
X0603500Y0646000D01*
X0603500Y0633500D01*
X0604500Y0476500D01*
X0618000Y0476500D01*
X0618000Y0480000D01*
X0627000Y0480000D01*
X0613000Y0480500D02*
X0613500Y0633500D01*
X0613500Y0646000D01*
X0608500Y0646000D01*
X0608500Y0651000D01*
X0621500Y0662000D02*
X0624500Y0662000D01*
X0624500Y0613500D01*
X0629500Y0613500D01*
X0631000Y0622500D02*
X0627000Y0622500D01*
X0627000Y0662500D01*
X0632500Y0662500D01*
X0664500Y0661500D02*
X0665000Y0661500D01*
X0713000Y0647000D02*
X0774500Y0647000D01*
X0774500Y0636500D01*
X0791000Y0636500D01*
X0791000Y0628500D01*
X0934500Y0628500D01*
X0934500Y0664500D01*
X0952500Y0662500D02*
X0952500Y0625500D01*
X0788000Y0625500D01*
X0788000Y0632000D01*
X0770500Y0632000D01*
X0770500Y0643000D01*
X0719000Y0642500D01*
X0740500Y0582000D02*
X0740500Y0577500D01*
X0740500Y0582000D02*
X0751000Y0582000D01*
X0706000Y0548500D02*
X0889000Y0548000D01*
X0889000Y0513500D01*
X0892500Y0513500D01*
X0892500Y0501000D01*
X0897500Y0501000D01*
X0897500Y0495500D01*
X0887500Y0495500D02*
X0887500Y0501000D01*
X0882500Y0501000D01*
X0882500Y0521000D01*
X0754000Y0521000D01*
X0746000Y0526500D02*
X0746000Y0490000D01*
X0709000Y0490000D01*
X0709000Y0496000D01*
X0714000Y0506000D01*
X0720000Y0500500D02*
X0715000Y0494500D01*
X0720000Y0500500D02*
X0724000Y0506000D01*
X0704000Y0506000D02*
X0704000Y0497000D01*
X0702000Y0497000D01*
X0702000Y0490500D01*
X0696500Y0490500D01*
X0690000Y0490500D02*
X0690000Y0497500D01*
X0694000Y0497500D01*
X0694000Y0506000D01*
X0674500Y0506000D02*
X0674500Y0484000D01*
X0752000Y0484000D01*
X0752000Y0503000D01*
X0828500Y0503000D01*
X0828500Y0512500D01*
X0857500Y0512500D01*
X0857500Y0505500D01*
X0847500Y0505500D02*
X0847500Y0500500D01*
X0830500Y0500500D01*
X0830500Y0498500D01*
X0755500Y0498500D01*
X0755500Y0481000D01*
X0654500Y0481000D01*
X0654500Y0506000D01*
X0654000Y0506000D01*
X0674000Y0506000D02*
X0674500Y0506000D01*
X0674000Y0516000D02*
X0674000Y0532500D01*
X0745000Y0532500D01*
X0745000Y0541000D01*
X0706000Y0541000D02*
X0706000Y0548500D01*
X0695500Y0550500D02*
X0696000Y0541000D01*
X0695500Y0550500D02*
X0896000Y0550000D01*
X0905000Y0549000D01*
X0905000Y0525000D01*
X0905000Y0514000D01*
X0937500Y0495500D02*
X0937500Y0482500D01*
X0815000Y0482500D01*
X0814500Y0491000D01*
X0779000Y0482000D02*
X0778500Y0440000D01*
X0883000Y0440000D01*
X0811000Y0425000D02*
X0811000Y0415000D01*
X0696000Y0415000D01*
X0438500Y0334000D01*
X0440000Y0282500D01*
X0223000Y0282500D01*
X0223000Y0270500D01*
X0171500Y0270500D01*
X0171500Y0210000D01*
X0548000Y0522500D02*
X0553500Y0522500D01*
X0553500Y0542000D01*
X0549000Y0542000D01*
X0549000Y0561000D01*
X0538500Y0561000D01*
X0538500Y0592500D01*
X0536000Y0592500D01*
X0531220Y0595500D02*
X0531220Y0576000D01*
X0536500Y0576000D01*
X0536500Y0556500D01*
X0547000Y0556500D01*
X0547000Y0532500D01*
X0548000Y0532500D01*
X0656000Y0541000D02*
X0656000Y0558500D01*
X0848500Y0558500D01*
X0848500Y0561500D01*
X0886000Y0558500D02*
X0886000Y0556000D01*
X0666000Y0556500D01*
X0666000Y0541000D01*
X0676000Y0541000D02*
X0676000Y0554500D01*
X0897000Y0554000D01*
X0901500Y0554000D01*
X0901500Y0556500D01*
X0897000Y0552000D02*
X0922000Y0552000D01*
X0922000Y0556500D01*
X0897000Y0552000D02*
X0686000Y0552500D01*
X0686000Y0541000D01*
X0613500Y0633000D02*
X0613500Y0633500D01*
X0618500Y0701500D02*
X0611500Y0708500D01*
X0611500Y0718500D01*
X0611750Y0718750D01*
X0610000Y0720500D01*
X0610000Y0721000D01*
X0721000Y0727500D02*
X0902000Y0727500D01*
X0903000Y0723500D02*
X0742500Y0723500D01*
X0742500Y0712000D01*
X0752500Y0712000D02*
X0752500Y0720000D01*
X0892500Y0720000D01*
X0892500Y0690500D01*
X0917500Y0690500D01*
X0917500Y0685500D01*
X0917500Y0695500D02*
X0913000Y0695500D01*
X0913000Y0696000D01*
X0912500Y0696000D01*
X0912500Y0704500D01*
X0903000Y0704500D01*
X0903000Y0723500D01*
X0941500Y0733500D02*
X0957500Y0733500D01*
X0967000Y0739500D02*
X0974500Y0739500D01*
X0974500Y0723000D01*
X0972500Y0719000D01*
X0972500Y0689500D01*
X0971500Y0689500D01*
X0967500Y0685500D01*
X0977500Y0695500D02*
X0977500Y0702500D01*
X0982500Y0702500D01*
X0982500Y0721500D01*
X0995500Y0721500D01*
X0995500Y0740500D01*
X0994500Y0740500D01*
X0992500Y0713500D02*
X0992500Y0706000D01*
X0957500Y0675500D02*
X0957500Y0669000D01*
X0958000Y0669000D01*
X0958000Y0619000D01*
X1013500Y0637500D02*
X1014000Y0657000D01*
X1013500Y0637500D02*
X1093000Y0637500D01*
X1093000Y0214000D01*
X0914500Y0214000D01*
X0914500Y0148000D01*
X0965500Y0143000D02*
X0965500Y0175000D01*
X0970500Y0175000D01*
X0970500Y0179500D01*
X0970500Y0169500D02*
X0970500Y0164000D01*
X0975000Y0164000D01*
X0975000Y0147000D01*
X1043000Y0147000D01*
X1052500Y0136000D02*
X1052500Y0158500D01*
X0990500Y0158500D01*
X0990500Y0169500D01*
X0993500Y0143000D02*
X0965500Y0143000D01*
X0993500Y0143000D02*
X0993500Y0139000D01*
X1013500Y0139000D01*
X1013500Y0143000D01*
X1028500Y0143000D01*
X1028500Y0079000D01*
X1032500Y0079000D01*
X1022500Y0108000D02*
X0994500Y0108000D01*
X0994500Y0096000D01*
X0985000Y0095500D01*
X1022500Y0108000D02*
X1022500Y0132500D01*
X1052500Y0136000D02*
X1061000Y0136000D01*
X1087000Y0425000D02*
X0811000Y0425000D01*
X0883000Y0589500D02*
X0879000Y0592500D01*
X0879000Y0613000D01*
X0879000Y0643500D02*
X0879000Y0664000D01*
X0882500Y0664000D01*
X0779500Y0738000D02*
X0779500Y0751500D01*
X0834000Y0751500D01*
X0830000Y0766000D02*
X0845000Y0766000D01*
X0830000Y0766000D02*
X0830000Y0767500D01*
X0817500Y0767500D01*
X0812500Y0771500D02*
X0812500Y0774500D01*
X0812500Y0771500D02*
X0808500Y0771500D01*
X0927500Y0784500D02*
X0942500Y0784500D01*
X0942500Y0789500D01*
X0982500Y0779500D02*
X0983000Y0770500D01*
D26*
X0665000Y0661500D02*
X0665000Y0640000D01*
X0644500Y0640000D01*
X0644500Y0530000D01*
X0664000Y0530000D01*
X0664000Y0516000D01*
D27*
X0619000Y0492000D03*
X0608500Y0492000D03*
X0613000Y0480500D03*
X0627000Y0480000D03*
X0551500Y0569500D03*
X0524000Y0569000D03*
X0494000Y0569000D03*
X0465000Y0569000D03*
X0433500Y0568500D03*
X0404500Y0568500D03*
X0491500Y0693500D03*
X0631500Y0633000D03*
X0674500Y0650000D03*
X0695000Y0682500D03*
X0593500Y0585000D03*
X0367500Y0395500D03*
X0361500Y0395000D03*
X0355500Y0394500D03*
X0356500Y0384500D03*
X0351000Y0384500D03*
X0337000Y0380500D03*
X0338000Y0375000D03*
X0339000Y0369500D03*
X0337000Y0364000D03*
X0341000Y0355500D03*
X0352500Y0363500D03*
X0356500Y0367000D03*
X0365000Y0356000D03*
X0357000Y0353000D03*
X0334500Y0342500D03*
X0321500Y0340000D03*
X0372000Y0376500D03*
X0377000Y0380000D03*
X0381500Y0384500D03*
X0390500Y0387000D03*
X0392500Y0377000D03*
X0036000Y0172000D03*
M02*
