G75*
%MOIN*%
%OFA0B0*%
%FSLAX25Y25*%
%IPPOS*%
%LPD*%
%AMOC8*
5,1,8,0,0,1.08239X$1,22.5*
%
%ADD10R,0.07200X0.07200*%
%ADD11OC8,0.07200*%
%ADD12C,0.18200*%
%ADD13C,0.05956*%
%ADD14C,0.12420*%
%ADD15R,0.05924X0.03365*%
%ADD16R,0.03800X0.09200*%
%ADD17R,0.02381X0.09074*%
%ADD18R,0.07800X0.07800*%
%ADD19OC8,0.07800*%
%ADD20R,0.08600X0.08600*%
%ADD21OC8,0.08600*%
%ADD22C,0.14200*%
%ADD23C,0.13700*%
%ADD24C,0.08011*%
%ADD25R,0.10452X0.08680*%
%ADD26R,0.07106X0.14586*%
%ADD27R,0.07200X0.21200*%
%ADD28R,0.15950X0.21200*%
%ADD29R,0.09861X0.02578*%
%ADD30C,0.03697*%
%ADD31R,0.05137X0.05531*%
%ADD32C,0.05036*%
%ADD33R,0.07893X0.09861*%
%ADD34R,0.10649X0.10649*%
%ADD35R,0.02775X0.07499*%
%ADD36C,0.08600*%
%ADD37R,0.03600X0.09900*%
%ADD38R,0.07696X0.07696*%
%ADD39OC8,0.07696*%
%ADD40R,0.09074X0.02381*%
%ADD41R,0.07499X0.02775*%
%ADD42R,0.07137X0.07137*%
%ADD43OC8,0.07137*%
%ADD44C,0.07200*%
%ADD45R,0.05531X0.02775*%
%ADD46R,0.02775X0.05531*%
%ADD47R,0.31554X0.18917*%
%ADD48R,0.07814X0.18917*%
%ADD49R,0.18917X0.31554*%
%ADD50R,0.18917X0.07814*%
%ADD51R,0.07500X0.07500*%
%ADD52C,0.05531*%
%ADD53R,0.16200X0.20885*%
%ADD54C,0.05705*%
%ADD55C,0.05203*%
%ADD56C,0.26600*%
%ADD57R,0.02000X0.03700*%
%ADD58C,0.04534*%
%ADD59R,0.07381X0.08641*%
%ADD60R,0.05169X0.05169*%
%ADD61R,0.05162X0.05162*%
%ADD62C,0.05162*%
%ADD63OC8,0.05162*%
%ADD64C,0.04769*%
D10*
X0644000Y0506000D03*
X0573000Y0522500D03*
X0538000Y0522500D03*
X0558500Y0641000D03*
X0483500Y0655000D03*
X0702000Y0632000D03*
X0742500Y0702000D03*
X0837500Y0695500D03*
X0927500Y0675500D03*
X0882500Y0779500D03*
X0837500Y0505500D03*
X1040500Y0169500D03*
D11*
X1030500Y0169500D03*
X1030500Y0179500D03*
X1040500Y0179500D03*
X1020500Y0179500D03*
X1020500Y0169500D03*
X1010500Y0169500D03*
X1010500Y0179500D03*
X1000500Y0179500D03*
X1000500Y0169500D03*
X0990500Y0169500D03*
X0990500Y0179500D03*
X0980500Y0179500D03*
X0980500Y0169500D03*
X0970500Y0169500D03*
X0970500Y0179500D03*
X0960500Y0179500D03*
X0960500Y0169500D03*
X0950500Y0169500D03*
X0950500Y0179500D03*
X0940500Y0179500D03*
X0930500Y0179500D03*
X0930500Y0169500D03*
X0940500Y0169500D03*
X0937500Y0495500D03*
X0937500Y0505500D03*
X0927500Y0505500D03*
X0927500Y0495500D03*
X0917500Y0495500D03*
X0917500Y0505500D03*
X0907500Y0505500D03*
X0897500Y0505500D03*
X0897500Y0495500D03*
X0907500Y0495500D03*
X0887500Y0495500D03*
X0887500Y0505500D03*
X0877500Y0505500D03*
X0877500Y0495500D03*
X0867500Y0495500D03*
X0867500Y0505500D03*
X0857500Y0505500D03*
X0857500Y0495500D03*
X0847500Y0495500D03*
X0847500Y0505500D03*
X0837500Y0495500D03*
X0734000Y0506000D03*
X0724000Y0506000D03*
X0714000Y0506000D03*
X0704000Y0506000D03*
X0694000Y0506000D03*
X0684000Y0506000D03*
X0674000Y0506000D03*
X0664000Y0506000D03*
X0654000Y0506000D03*
X0654000Y0516000D03*
X0664000Y0516000D03*
X0674000Y0516000D03*
X0684000Y0516000D03*
X0694000Y0516000D03*
X0704000Y0516000D03*
X0714000Y0516000D03*
X0724000Y0516000D03*
X0734000Y0516000D03*
X0644000Y0516000D03*
X0593000Y0522500D03*
X0583000Y0522500D03*
X0583000Y0532500D03*
X0573000Y0532500D03*
X0593000Y0532500D03*
X0548000Y0532500D03*
X0538000Y0532500D03*
X0548000Y0522500D03*
X0568500Y0641000D03*
X0568500Y0651000D03*
X0558500Y0651000D03*
X0578500Y0651000D03*
X0578500Y0641000D03*
X0588500Y0641000D03*
X0588500Y0651000D03*
X0598500Y0651000D03*
X0608500Y0651000D03*
X0608500Y0641000D03*
X0598500Y0641000D03*
X0618500Y0641000D03*
X0618500Y0651000D03*
X0503500Y0655000D03*
X0503500Y0665000D03*
X0493500Y0665000D03*
X0493500Y0655000D03*
X0483500Y0665000D03*
X0742500Y0712000D03*
X0752500Y0712000D03*
X0752500Y0702000D03*
X0837500Y0685500D03*
X0847500Y0685500D03*
X0847500Y0695500D03*
X0857500Y0695500D03*
X0857500Y0685500D03*
X0867500Y0685500D03*
X0867500Y0695500D03*
X0877500Y0695500D03*
X0877500Y0685500D03*
X0887500Y0685500D03*
X0887500Y0695500D03*
X0897500Y0695500D03*
X0907500Y0695500D03*
X0907500Y0685500D03*
X0897500Y0685500D03*
X0917500Y0685500D03*
X0917500Y0695500D03*
X0927500Y0695500D03*
X0927500Y0685500D03*
X0937500Y0685500D03*
X0937500Y0695500D03*
X0947500Y0695500D03*
X0947500Y0685500D03*
X0957500Y0685500D03*
X0957500Y0695500D03*
X0967500Y0695500D03*
X0967500Y0685500D03*
X0977500Y0685500D03*
X0977500Y0695500D03*
X0987500Y0695500D03*
X0987500Y0685500D03*
X0997500Y0685500D03*
X1007500Y0685500D03*
X1007500Y0695500D03*
X0997500Y0695500D03*
X1017500Y0695500D03*
X1017500Y0685500D03*
X1027500Y0685500D03*
X1027500Y0695500D03*
X1037500Y0695500D03*
X1037500Y0685500D03*
X1047500Y0685500D03*
X1047500Y0695500D03*
X1057500Y0695500D03*
X1057500Y0685500D03*
X0977500Y0675500D03*
X0967500Y0675500D03*
X0957500Y0675500D03*
X0947500Y0675500D03*
X0937500Y0675500D03*
X0932500Y0779500D03*
X0922500Y0779500D03*
X0912500Y0779500D03*
X0902500Y0779500D03*
X0892500Y0779500D03*
X0892500Y0789500D03*
X0882500Y0789500D03*
X0902500Y0789500D03*
X0912500Y0789500D03*
X0922500Y0789500D03*
X0932500Y0789500D03*
X0942500Y0789500D03*
X0952500Y0789500D03*
X0962500Y0789500D03*
X0972500Y0789500D03*
X0982500Y0789500D03*
X0992500Y0789500D03*
X1002500Y0789500D03*
X1002500Y0779500D03*
X0992500Y0779500D03*
X0982500Y0779500D03*
X0972500Y0779500D03*
X0962500Y0779500D03*
X0952500Y0779500D03*
X0942500Y0779500D03*
X0947500Y0505500D03*
X0947500Y0495500D03*
X0957500Y0495500D03*
X0957500Y0505500D03*
X0967500Y0505500D03*
X0967500Y0495500D03*
X0977500Y0495500D03*
X0977500Y0505500D03*
X0987500Y0505500D03*
X0987500Y0495500D03*
X0997500Y0495500D03*
X1007500Y0495500D03*
X1007500Y0505500D03*
X0997500Y0505500D03*
X1017500Y0505500D03*
X1017500Y0495500D03*
X1027500Y0495500D03*
X1027500Y0505500D03*
X1037500Y0505500D03*
X1037500Y0495500D03*
X1047500Y0495500D03*
X1047500Y0505500D03*
X1057500Y0505500D03*
X1057500Y0495500D03*
D12*
X1034000Y0746063D03*
X1015496Y0757874D03*
X1034000Y0769685D03*
D13*
X0600799Y0760957D03*
X0597650Y0765681D03*
X0594500Y0760957D03*
X0591350Y0765681D03*
X0588201Y0760957D03*
D14*
X0579933Y0764500D03*
X0579933Y0783201D03*
X0609067Y0783201D03*
X0609461Y0764500D03*
D15*
X0316119Y0514740D03*
X0316119Y0507260D03*
X0305881Y0507260D03*
X0305881Y0511000D03*
X0305881Y0514740D03*
D16*
X0680500Y0695900D03*
X0685500Y0695900D03*
X0690500Y0695900D03*
X0695500Y0695900D03*
X0695500Y0720100D03*
X0690500Y0720100D03*
X0685500Y0720100D03*
X0680500Y0720100D03*
X0203000Y0186600D03*
X0198000Y0186600D03*
X0193000Y0186600D03*
X0188000Y0186600D03*
X0188000Y0162400D03*
X0193000Y0162400D03*
X0198000Y0162400D03*
X0203000Y0162400D03*
D17*
X0167839Y0134480D03*
X0165280Y0134480D03*
X0162720Y0134480D03*
X0160161Y0134480D03*
X0160161Y0119520D03*
X0162720Y0119520D03*
X0165280Y0119520D03*
X0167839Y0119520D03*
X0408161Y0568520D03*
X0410720Y0568520D03*
X0413280Y0568520D03*
X0415839Y0568520D03*
X0415839Y0583480D03*
X0413280Y0583480D03*
X0410720Y0583480D03*
X0408161Y0583480D03*
X0438161Y0583480D03*
X0440720Y0583480D03*
X0443280Y0583480D03*
X0445839Y0583480D03*
X0445839Y0568520D03*
X0443280Y0568520D03*
X0440720Y0568520D03*
X0438161Y0568520D03*
X0469161Y0569020D03*
X0471720Y0569020D03*
X0474280Y0569020D03*
X0476839Y0569020D03*
X0476839Y0583980D03*
X0474280Y0583980D03*
X0471720Y0583980D03*
X0469161Y0583980D03*
X0499161Y0583980D03*
X0501720Y0583980D03*
X0504280Y0583980D03*
X0506839Y0583980D03*
X0506839Y0569020D03*
X0504280Y0569020D03*
X0501720Y0569020D03*
X0499161Y0569020D03*
X0528661Y0569020D03*
X0531220Y0569020D03*
X0533780Y0569020D03*
X0536339Y0569020D03*
X0536339Y0583980D03*
X0533780Y0583980D03*
X0531220Y0583980D03*
X0528661Y0583980D03*
X0558161Y0583480D03*
X0560720Y0583480D03*
X0563280Y0583480D03*
X0565839Y0583480D03*
X0565839Y0568520D03*
X0563280Y0568520D03*
X0560720Y0568520D03*
X0558161Y0568520D03*
X0387339Y0647020D03*
X0384780Y0647020D03*
X0382220Y0647020D03*
X0379661Y0647020D03*
X0379661Y0661980D03*
X0382220Y0661980D03*
X0384780Y0661980D03*
X0387339Y0661980D03*
X0332839Y0620480D03*
X0330280Y0620480D03*
X0327720Y0620480D03*
X0325161Y0620480D03*
X0325161Y0605520D03*
X0327720Y0605520D03*
X0330280Y0605520D03*
X0332839Y0605520D03*
X0298339Y0648520D03*
X0295780Y0648520D03*
X0293220Y0648520D03*
X0290661Y0648520D03*
X0290661Y0663480D03*
X0293220Y0663480D03*
X0295780Y0663480D03*
X0298339Y0663480D03*
X1038161Y0097480D03*
X1040720Y0097480D03*
X1043280Y0097480D03*
X1045839Y0097480D03*
X1045839Y0082520D03*
X1043280Y0082520D03*
X1040720Y0082520D03*
X1038161Y0082520D03*
D18*
X0194800Y0296800D03*
X0021400Y0226800D03*
D19*
X0021400Y0236800D03*
X0021400Y0246800D03*
X0021400Y0256800D03*
X0021400Y0266800D03*
X0021400Y0276800D03*
X0194800Y0276800D03*
X0194800Y0286800D03*
D20*
X0112500Y0243500D03*
X0112500Y0232700D03*
X0022500Y0133500D03*
X0434500Y0650000D03*
X0435000Y0672000D03*
X0365500Y0698000D03*
X0348500Y0751000D03*
D21*
X0358500Y0751000D03*
X0368500Y0751000D03*
X0378500Y0751000D03*
X0388500Y0751000D03*
X0365500Y0718000D03*
X0355500Y0718000D03*
X0355500Y0708000D03*
X0355500Y0698000D03*
X0365500Y0708000D03*
X0102500Y0243500D03*
X0102500Y0232700D03*
X0072500Y0133500D03*
X0062500Y0133500D03*
X0052500Y0133500D03*
X0042500Y0133500D03*
X0032500Y0133500D03*
D22*
X0044300Y0433800D03*
X0106900Y0573600D03*
D23*
X0910500Y0410500D03*
D24*
X0148500Y0742000D03*
X0036500Y0742000D03*
D25*
X0027150Y0752236D03*
X0045850Y0752236D03*
X0045850Y0731764D03*
X0027150Y0731764D03*
X0139150Y0731764D03*
X0157850Y0731764D03*
X0157850Y0752236D03*
X0139150Y0752236D03*
D26*
X0137476Y0742000D03*
X0159524Y0742000D03*
X0047524Y0742000D03*
X0025476Y0742000D03*
D27*
X0036500Y0790000D03*
X0148500Y0790000D03*
D28*
X0137125Y0790000D03*
X0159875Y0790000D03*
X0047875Y0790000D03*
X0025125Y0790000D03*
D29*
X0594402Y0731250D03*
X0594402Y0728750D03*
X0594402Y0726250D03*
X0594402Y0723750D03*
X0594402Y0721250D03*
X0594402Y0718750D03*
X0594402Y0716250D03*
X0594402Y0713750D03*
X0594402Y0711250D03*
X0594402Y0708750D03*
X0619598Y0708750D03*
X0619598Y0711250D03*
X0619598Y0713750D03*
X0619598Y0716250D03*
X0619598Y0718750D03*
X0619598Y0721250D03*
X0619598Y0723750D03*
X0619598Y0726250D03*
X0619598Y0728750D03*
X0619598Y0731250D03*
D30*
X0626827Y0740934D02*
X0626827Y0741980D01*
X0626827Y0740934D02*
X0626173Y0740934D01*
X0626173Y0741980D01*
X0626827Y0741980D01*
X0626827Y0748020D02*
X0626827Y0749066D01*
X0626827Y0748020D02*
X0626173Y0748020D01*
X0626173Y0749066D01*
X0626827Y0749066D01*
X0626520Y0755673D02*
X0627566Y0755673D01*
X0626520Y0755673D02*
X0626520Y0756327D01*
X0627566Y0756327D01*
X0627566Y0755673D01*
X0620480Y0755673D02*
X0619434Y0755673D01*
X0619434Y0756327D01*
X0620480Y0756327D01*
X0620480Y0755673D01*
X0636327Y0749066D02*
X0636327Y0748020D01*
X0635673Y0748020D01*
X0635673Y0749066D01*
X0636327Y0749066D01*
X0636327Y0741980D02*
X0636327Y0740934D01*
X0635673Y0740934D01*
X0635673Y0741980D01*
X0636327Y0741980D01*
X0639327Y0721566D02*
X0639327Y0720520D01*
X0638673Y0720520D01*
X0638673Y0721566D01*
X0639327Y0721566D01*
X0639327Y0714480D02*
X0639327Y0713434D01*
X0638673Y0713434D01*
X0638673Y0714480D01*
X0639327Y0714480D01*
X0624173Y0696566D02*
X0624173Y0695520D01*
X0624173Y0696566D02*
X0624827Y0696566D01*
X0624827Y0695520D01*
X0624173Y0695520D01*
X0618673Y0695520D02*
X0618673Y0696566D01*
X0619327Y0696566D01*
X0619327Y0695520D01*
X0618673Y0695520D01*
X0618673Y0689480D02*
X0618673Y0688434D01*
X0618673Y0689480D02*
X0619327Y0689480D01*
X0619327Y0688434D01*
X0618673Y0688434D01*
X0624173Y0688434D02*
X0624173Y0689480D01*
X0624827Y0689480D01*
X0624827Y0688434D01*
X0624173Y0688434D01*
X0609066Y0679327D02*
X0608020Y0679327D01*
X0609066Y0679327D02*
X0609066Y0678673D01*
X0608020Y0678673D01*
X0608020Y0679327D01*
X0601980Y0679327D02*
X0600934Y0679327D01*
X0601980Y0679327D02*
X0601980Y0678673D01*
X0600934Y0678673D01*
X0600934Y0679327D01*
X0600434Y0697173D02*
X0601480Y0697173D01*
X0600434Y0697173D02*
X0600434Y0697827D01*
X0601480Y0697827D01*
X0601480Y0697173D01*
X0607520Y0697173D02*
X0608566Y0697173D01*
X0607520Y0697173D02*
X0607520Y0697827D01*
X0608566Y0697827D01*
X0608566Y0697173D01*
X0575566Y0695827D02*
X0574520Y0695827D01*
X0575566Y0695827D02*
X0575566Y0695173D01*
X0574520Y0695173D01*
X0574520Y0695827D01*
X0568480Y0695827D02*
X0567434Y0695827D01*
X0568480Y0695827D02*
X0568480Y0695173D01*
X0567434Y0695173D01*
X0567434Y0695827D01*
X0563566Y0688827D02*
X0562520Y0688827D01*
X0563566Y0688827D02*
X0563566Y0688173D01*
X0562520Y0688173D01*
X0562520Y0688827D01*
X0556480Y0688827D02*
X0555434Y0688827D01*
X0556480Y0688827D02*
X0556480Y0688173D01*
X0555434Y0688173D01*
X0555434Y0688827D01*
X0567434Y0704673D02*
X0568480Y0704673D01*
X0567434Y0704673D02*
X0567434Y0705327D01*
X0568480Y0705327D01*
X0568480Y0704673D01*
X0574520Y0704673D02*
X0575566Y0704673D01*
X0574520Y0704673D02*
X0574520Y0705327D01*
X0575566Y0705327D01*
X0575566Y0704673D01*
X0575566Y0715173D02*
X0574520Y0715173D01*
X0574520Y0715827D01*
X0575566Y0715827D01*
X0575566Y0715173D01*
X0568480Y0715173D02*
X0567434Y0715173D01*
X0567434Y0715827D01*
X0568480Y0715827D01*
X0568480Y0715173D01*
X0583673Y0737434D02*
X0583673Y0738480D01*
X0584327Y0738480D01*
X0584327Y0737434D01*
X0583673Y0737434D01*
X0583673Y0744520D02*
X0583673Y0745566D01*
X0584327Y0745566D01*
X0584327Y0744520D01*
X0583673Y0744520D01*
X0583934Y0751827D02*
X0584980Y0751827D01*
X0584980Y0751173D01*
X0583934Y0751173D01*
X0583934Y0751827D01*
X0591020Y0751827D02*
X0592066Y0751827D01*
X0592066Y0751173D01*
X0591020Y0751173D01*
X0591020Y0751827D01*
X0596934Y0751173D02*
X0597980Y0751173D01*
X0596934Y0751173D02*
X0596934Y0751827D01*
X0597980Y0751827D01*
X0597980Y0751173D01*
X0604020Y0751173D02*
X0605066Y0751173D01*
X0604020Y0751173D02*
X0604020Y0751827D01*
X0605066Y0751827D01*
X0605066Y0751173D01*
X0592673Y0745566D02*
X0592673Y0744520D01*
X0592673Y0745566D02*
X0593327Y0745566D01*
X0593327Y0744520D01*
X0592673Y0744520D01*
X0592673Y0738480D02*
X0592673Y0737434D01*
X0592673Y0738480D02*
X0593327Y0738480D01*
X0593327Y0737434D01*
X0592673Y0737434D01*
X0665434Y0725673D02*
X0666480Y0725673D01*
X0665434Y0725673D02*
X0665434Y0726327D01*
X0666480Y0726327D01*
X0666480Y0725673D01*
X0672520Y0725673D02*
X0673566Y0725673D01*
X0672520Y0725673D02*
X0672520Y0726327D01*
X0673566Y0726327D01*
X0673566Y0725673D01*
X0673066Y0716673D02*
X0672020Y0716673D01*
X0672020Y0717327D01*
X0673066Y0717327D01*
X0673066Y0716673D01*
X0665980Y0716673D02*
X0664934Y0716673D01*
X0664934Y0717327D01*
X0665980Y0717327D01*
X0665980Y0716673D01*
X0684173Y0731934D02*
X0684173Y0732980D01*
X0684827Y0732980D01*
X0684827Y0731934D01*
X0684173Y0731934D01*
X0684173Y0739020D02*
X0684173Y0740066D01*
X0684827Y0740066D01*
X0684827Y0739020D01*
X0684173Y0739020D01*
X0692673Y0739020D02*
X0692673Y0740066D01*
X0693327Y0740066D01*
X0693327Y0739020D01*
X0692673Y0739020D01*
X0692673Y0732980D02*
X0692673Y0731934D01*
X0692673Y0732980D02*
X0693327Y0732980D01*
X0693327Y0731934D01*
X0692673Y0731934D01*
X0699434Y0739673D02*
X0700480Y0739673D01*
X0699434Y0739673D02*
X0699434Y0740327D01*
X0700480Y0740327D01*
X0700480Y0739673D01*
X0706520Y0739673D02*
X0707566Y0739673D01*
X0706520Y0739673D02*
X0706520Y0740327D01*
X0707566Y0740327D01*
X0707566Y0739673D01*
X0702173Y0720566D02*
X0702173Y0719520D01*
X0702173Y0720566D02*
X0702827Y0720566D01*
X0702827Y0719520D01*
X0702173Y0719520D01*
X0702173Y0713480D02*
X0702173Y0712434D01*
X0702173Y0713480D02*
X0702827Y0713480D01*
X0702827Y0712434D01*
X0702173Y0712434D01*
X0705434Y0695327D02*
X0706480Y0695327D01*
X0706480Y0694673D01*
X0705434Y0694673D01*
X0705434Y0695327D01*
X0712520Y0695327D02*
X0713566Y0695327D01*
X0713566Y0694673D01*
X0712520Y0694673D01*
X0712520Y0695327D01*
X0690173Y0688566D02*
X0690173Y0687520D01*
X0690173Y0688566D02*
X0690827Y0688566D01*
X0690827Y0687520D01*
X0690173Y0687520D01*
X0690173Y0681480D02*
X0690173Y0680434D01*
X0690173Y0681480D02*
X0690827Y0681480D01*
X0690827Y0680434D01*
X0690173Y0680434D01*
X0682173Y0638566D02*
X0682173Y0637520D01*
X0682173Y0638566D02*
X0682827Y0638566D01*
X0682827Y0637520D01*
X0682173Y0637520D01*
X0677827Y0637520D02*
X0677827Y0638566D01*
X0677827Y0637520D02*
X0677173Y0637520D01*
X0677173Y0638566D01*
X0677827Y0638566D01*
X0677827Y0631480D02*
X0677827Y0630434D01*
X0677173Y0630434D01*
X0677173Y0631480D01*
X0677827Y0631480D01*
X0682173Y0631480D02*
X0682173Y0630434D01*
X0682173Y0631480D02*
X0682827Y0631480D01*
X0682827Y0630434D01*
X0682173Y0630434D01*
X0679327Y0593566D02*
X0679327Y0592520D01*
X0678673Y0592520D01*
X0678673Y0593566D01*
X0679327Y0593566D01*
X0679327Y0586480D02*
X0679327Y0585434D01*
X0678673Y0585434D01*
X0678673Y0586480D01*
X0679327Y0586480D01*
X0687827Y0586480D02*
X0687827Y0585434D01*
X0687173Y0585434D01*
X0687173Y0586480D01*
X0687827Y0586480D01*
X0687827Y0592520D02*
X0687827Y0593566D01*
X0687827Y0592520D02*
X0687173Y0592520D01*
X0687173Y0593566D01*
X0687827Y0593566D01*
X0671327Y0593566D02*
X0671327Y0592520D01*
X0670673Y0592520D01*
X0670673Y0593566D01*
X0671327Y0593566D01*
X0671327Y0586480D02*
X0671327Y0585434D01*
X0670673Y0585434D01*
X0670673Y0586480D01*
X0671327Y0586480D01*
X0571673Y0575566D02*
X0571673Y0574520D01*
X0571673Y0575566D02*
X0572327Y0575566D01*
X0572327Y0574520D01*
X0571673Y0574520D01*
X0571673Y0568480D02*
X0571673Y0567434D01*
X0571673Y0568480D02*
X0572327Y0568480D01*
X0572327Y0567434D01*
X0571673Y0567434D01*
X0563890Y0591434D02*
X0563890Y0592480D01*
X0563890Y0591434D02*
X0563236Y0591434D01*
X0563236Y0592480D01*
X0563890Y0592480D01*
X0563890Y0598520D02*
X0563890Y0599566D01*
X0563890Y0598520D02*
X0563236Y0598520D01*
X0563236Y0599566D01*
X0563890Y0599566D01*
X0542173Y0575566D02*
X0542173Y0574520D01*
X0542173Y0575566D02*
X0542827Y0575566D01*
X0542827Y0574520D01*
X0542173Y0574520D01*
X0542173Y0568480D02*
X0542173Y0567434D01*
X0542173Y0568480D02*
X0542827Y0568480D01*
X0542827Y0567434D01*
X0542173Y0567434D01*
X0512673Y0566934D02*
X0512673Y0567980D01*
X0513327Y0567980D01*
X0513327Y0566934D01*
X0512673Y0566934D01*
X0512673Y0574020D02*
X0512673Y0575066D01*
X0513327Y0575066D01*
X0513327Y0574020D01*
X0512673Y0574020D01*
X0481673Y0573520D02*
X0481673Y0574566D01*
X0482327Y0574566D01*
X0482327Y0573520D01*
X0481673Y0573520D01*
X0481673Y0567480D02*
X0481673Y0566434D01*
X0481673Y0567480D02*
X0482327Y0567480D01*
X0482327Y0566434D01*
X0481673Y0566434D01*
X0451173Y0566434D02*
X0451173Y0567480D01*
X0451827Y0567480D01*
X0451827Y0566434D01*
X0451173Y0566434D01*
X0451173Y0573520D02*
X0451173Y0574566D01*
X0451827Y0574566D01*
X0451827Y0573520D01*
X0451173Y0573520D01*
X0443173Y0594934D02*
X0443173Y0595980D01*
X0443827Y0595980D01*
X0443827Y0594934D01*
X0443173Y0594934D01*
X0443173Y0602020D02*
X0443173Y0603066D01*
X0443827Y0603066D01*
X0443827Y0602020D01*
X0443173Y0602020D01*
X0471173Y0601520D02*
X0471173Y0602566D01*
X0471827Y0602566D01*
X0471827Y0601520D01*
X0471173Y0601520D01*
X0471173Y0595480D02*
X0471173Y0594434D01*
X0471173Y0595480D02*
X0471827Y0595480D01*
X0471827Y0594434D01*
X0471173Y0594434D01*
X0421173Y0575066D02*
X0421173Y0574020D01*
X0421173Y0575066D02*
X0421827Y0575066D01*
X0421827Y0574020D01*
X0421173Y0574020D01*
X0421173Y0567980D02*
X0421173Y0566934D01*
X0421173Y0567980D02*
X0421827Y0567980D01*
X0421827Y0566934D01*
X0421173Y0566934D01*
X0466673Y0535566D02*
X0466673Y0534520D01*
X0466673Y0535566D02*
X0467327Y0535566D01*
X0467327Y0534520D01*
X0466673Y0534520D01*
X0466673Y0528480D02*
X0466673Y0527434D01*
X0466673Y0528480D02*
X0467327Y0528480D01*
X0467327Y0527434D01*
X0466673Y0527434D01*
X0338673Y0603934D02*
X0338673Y0604980D01*
X0339327Y0604980D01*
X0339327Y0603934D01*
X0338673Y0603934D01*
X0338673Y0611020D02*
X0338673Y0612066D01*
X0339327Y0612066D01*
X0339327Y0611020D01*
X0338673Y0611020D01*
X0323827Y0596066D02*
X0323827Y0595020D01*
X0323173Y0595020D01*
X0323173Y0596066D01*
X0323827Y0596066D01*
X0323827Y0588980D02*
X0323827Y0587934D01*
X0323173Y0587934D01*
X0323173Y0588980D01*
X0323827Y0588980D01*
X0292827Y0598434D02*
X0292827Y0599480D01*
X0292827Y0598434D02*
X0292173Y0598434D01*
X0292173Y0599480D01*
X0292827Y0599480D01*
X0292827Y0605520D02*
X0292827Y0606566D01*
X0292827Y0605520D02*
X0292173Y0605520D01*
X0292173Y0606566D01*
X0292827Y0606566D01*
X0266327Y0607066D02*
X0266327Y0606020D01*
X0265673Y0606020D01*
X0265673Y0607066D01*
X0266327Y0607066D01*
X0266327Y0599980D02*
X0266327Y0598934D01*
X0265673Y0598934D01*
X0265673Y0599980D01*
X0266327Y0599980D01*
X0242673Y0617934D02*
X0242673Y0618980D01*
X0243327Y0618980D01*
X0243327Y0617934D01*
X0242673Y0617934D01*
X0242673Y0625020D02*
X0242673Y0626066D01*
X0243327Y0626066D01*
X0243327Y0625020D01*
X0242673Y0625020D01*
X0239673Y0660934D02*
X0239673Y0661980D01*
X0240327Y0661980D01*
X0240327Y0660934D01*
X0239673Y0660934D01*
X0239673Y0668020D02*
X0239673Y0669066D01*
X0240327Y0669066D01*
X0240327Y0668020D01*
X0239673Y0668020D01*
X0256173Y0668020D02*
X0256173Y0669066D01*
X0256827Y0669066D01*
X0256827Y0668020D01*
X0256173Y0668020D01*
X0256173Y0661980D02*
X0256173Y0660934D01*
X0256173Y0661980D02*
X0256827Y0661980D01*
X0256827Y0660934D01*
X0256173Y0660934D01*
X0304173Y0655066D02*
X0304173Y0654020D01*
X0304173Y0655066D02*
X0304827Y0655066D01*
X0304827Y0654020D01*
X0304173Y0654020D01*
X0304173Y0647980D02*
X0304173Y0646934D01*
X0304173Y0647980D02*
X0304827Y0647980D01*
X0304827Y0646934D01*
X0304173Y0646934D01*
X0343173Y0657434D02*
X0343173Y0658480D01*
X0343827Y0658480D01*
X0343827Y0657434D01*
X0343173Y0657434D01*
X0343173Y0664520D02*
X0343173Y0665566D01*
X0343827Y0665566D01*
X0343827Y0664520D01*
X0343173Y0664520D01*
X0358673Y0664520D02*
X0358673Y0665566D01*
X0359327Y0665566D01*
X0359327Y0664520D01*
X0358673Y0664520D01*
X0358673Y0658480D02*
X0358673Y0657434D01*
X0358673Y0658480D02*
X0359327Y0658480D01*
X0359327Y0657434D01*
X0358673Y0657434D01*
X0393173Y0654066D02*
X0393173Y0653020D01*
X0393173Y0654066D02*
X0393827Y0654066D01*
X0393827Y0653020D01*
X0393173Y0653020D01*
X0393173Y0646980D02*
X0393173Y0645934D01*
X0393173Y0646980D02*
X0393827Y0646980D01*
X0393827Y0645934D01*
X0393173Y0645934D01*
X0417434Y0682327D02*
X0418480Y0682327D01*
X0418480Y0681673D01*
X0417434Y0681673D01*
X0417434Y0682327D01*
X0424520Y0682327D02*
X0425566Y0682327D01*
X0425566Y0681673D01*
X0424520Y0681673D01*
X0424520Y0682327D01*
X0435327Y0700434D02*
X0435327Y0701480D01*
X0435327Y0700434D02*
X0434673Y0700434D01*
X0434673Y0701480D01*
X0435327Y0701480D01*
X0435327Y0707520D02*
X0435327Y0708566D01*
X0435327Y0707520D02*
X0434673Y0707520D01*
X0434673Y0708566D01*
X0435327Y0708566D01*
X0443934Y0714327D02*
X0444980Y0714327D01*
X0444980Y0713673D01*
X0443934Y0713673D01*
X0443934Y0714327D01*
X0451020Y0714327D02*
X0452066Y0714327D01*
X0452066Y0713673D01*
X0451020Y0713673D01*
X0451020Y0714327D01*
X0463827Y0723934D02*
X0463827Y0724980D01*
X0463827Y0723934D02*
X0463173Y0723934D01*
X0463173Y0724980D01*
X0463827Y0724980D01*
X0463827Y0731020D02*
X0463827Y0732066D01*
X0463827Y0731020D02*
X0463173Y0731020D01*
X0463173Y0732066D01*
X0463827Y0732066D01*
X0504327Y0729480D02*
X0504327Y0728434D01*
X0503673Y0728434D01*
X0503673Y0729480D01*
X0504327Y0729480D01*
X0504327Y0735520D02*
X0504327Y0736566D01*
X0504327Y0735520D02*
X0503673Y0735520D01*
X0503673Y0736566D01*
X0504327Y0736566D01*
X0426066Y0758673D02*
X0425020Y0758673D01*
X0425020Y0759327D01*
X0426066Y0759327D01*
X0426066Y0758673D01*
X0418980Y0758673D02*
X0417934Y0758673D01*
X0417934Y0759327D01*
X0418980Y0759327D01*
X0418980Y0758673D01*
X0464434Y0657173D02*
X0465480Y0657173D01*
X0464434Y0657173D02*
X0464434Y0657827D01*
X0465480Y0657827D01*
X0465480Y0657173D01*
X0471520Y0657173D02*
X0472566Y0657173D01*
X0471520Y0657173D02*
X0471520Y0657827D01*
X0472566Y0657827D01*
X0472566Y0657173D01*
X0515434Y0658327D02*
X0516480Y0658327D01*
X0516480Y0657673D01*
X0515434Y0657673D01*
X0515434Y0658327D01*
X0522520Y0658327D02*
X0523566Y0658327D01*
X0523566Y0657673D01*
X0522520Y0657673D01*
X0522520Y0658327D01*
X0330673Y0527566D02*
X0330673Y0526520D01*
X0330673Y0527566D02*
X0331327Y0527566D01*
X0331327Y0526520D01*
X0330673Y0526520D01*
X0330673Y0520480D02*
X0330673Y0519434D01*
X0330673Y0520480D02*
X0331327Y0520480D01*
X0331327Y0519434D01*
X0330673Y0519434D01*
X0305066Y0502827D02*
X0304020Y0502827D01*
X0305066Y0502827D02*
X0305066Y0502173D01*
X0304020Y0502173D01*
X0304020Y0502827D01*
X0297980Y0502827D02*
X0296934Y0502827D01*
X0297980Y0502827D02*
X0297980Y0502173D01*
X0296934Y0502173D01*
X0296934Y0502827D01*
X0290673Y0500480D02*
X0290673Y0499434D01*
X0290673Y0500480D02*
X0291327Y0500480D01*
X0291327Y0499434D01*
X0290673Y0499434D01*
X0283173Y0499434D02*
X0283173Y0500480D01*
X0283827Y0500480D01*
X0283827Y0499434D01*
X0283173Y0499434D01*
X0283173Y0506520D02*
X0283173Y0507566D01*
X0283827Y0507566D01*
X0283827Y0506520D01*
X0283173Y0506520D01*
X0290673Y0506520D02*
X0290673Y0507566D01*
X0291327Y0507566D01*
X0291327Y0506520D01*
X0290673Y0506520D01*
X0272673Y0503980D02*
X0272673Y0502934D01*
X0272673Y0503980D02*
X0273327Y0503980D01*
X0273327Y0502934D01*
X0272673Y0502934D01*
X0272673Y0510020D02*
X0272673Y0511066D01*
X0273327Y0511066D01*
X0273327Y0510020D01*
X0272673Y0510020D01*
X0193673Y0714434D02*
X0193673Y0715480D01*
X0194327Y0715480D01*
X0194327Y0714434D01*
X0193673Y0714434D01*
X0193673Y0721520D02*
X0193673Y0722566D01*
X0194327Y0722566D01*
X0194327Y0721520D01*
X0193673Y0721520D01*
X0201934Y0758827D02*
X0202980Y0758827D01*
X0202980Y0758173D01*
X0201934Y0758173D01*
X0201934Y0758827D01*
X0209020Y0758827D02*
X0210066Y0758827D01*
X0210066Y0758173D01*
X0209020Y0758173D01*
X0209020Y0758827D01*
X0209020Y0767327D02*
X0210066Y0767327D01*
X0210066Y0766673D01*
X0209020Y0766673D01*
X0209020Y0767327D01*
X0202980Y0767327D02*
X0201934Y0767327D01*
X0202980Y0767327D02*
X0202980Y0766673D01*
X0201934Y0766673D01*
X0201934Y0767327D01*
X0792673Y0649566D02*
X0792673Y0648520D01*
X0792673Y0649566D02*
X0793327Y0649566D01*
X0793327Y0648520D01*
X0792673Y0648520D01*
X0792673Y0642480D02*
X0792673Y0641434D01*
X0792673Y0642480D02*
X0793327Y0642480D01*
X0793327Y0641434D01*
X0792673Y0641434D01*
X0813434Y0633673D02*
X0814480Y0633673D01*
X0813434Y0633673D02*
X0813434Y0634327D01*
X0814480Y0634327D01*
X0814480Y0633673D01*
X0820520Y0633673D02*
X0821566Y0633673D01*
X0820520Y0633673D02*
X0820520Y0634327D01*
X0821566Y0634327D01*
X0821566Y0633673D01*
X0827327Y0633434D02*
X0827327Y0634480D01*
X0827327Y0633434D02*
X0826673Y0633434D01*
X0826673Y0634480D01*
X0827327Y0634480D01*
X0827327Y0640520D02*
X0827327Y0641566D01*
X0827327Y0640520D02*
X0826673Y0640520D01*
X0826673Y0641566D01*
X0827327Y0641566D01*
X0840934Y0672173D02*
X0841980Y0672173D01*
X0840934Y0672173D02*
X0840934Y0672827D01*
X0841980Y0672827D01*
X0841980Y0672173D01*
X0848020Y0672173D02*
X0849066Y0672173D01*
X0848020Y0672173D02*
X0848020Y0672827D01*
X0849066Y0672827D01*
X0849066Y0672173D01*
X0858434Y0673327D02*
X0859480Y0673327D01*
X0859480Y0672673D01*
X0858434Y0672673D01*
X0858434Y0673327D01*
X0865520Y0673327D02*
X0866566Y0673327D01*
X0866566Y0672673D01*
X0865520Y0672673D01*
X0865520Y0673327D01*
X0847566Y0707327D02*
X0846520Y0707327D01*
X0847566Y0707327D02*
X0847566Y0706673D01*
X0846520Y0706673D01*
X0846520Y0707327D01*
X0840480Y0707327D02*
X0839434Y0707327D01*
X0840480Y0707327D02*
X0840480Y0706673D01*
X0839434Y0706673D01*
X0839434Y0707327D01*
X0910173Y0722934D02*
X0910173Y0723980D01*
X0910827Y0723980D01*
X0910827Y0722934D01*
X0910173Y0722934D01*
X0910173Y0730020D02*
X0910173Y0731066D01*
X0910827Y0731066D01*
X0910827Y0730020D01*
X0910173Y0730020D01*
X0917173Y0713566D02*
X0917173Y0712520D01*
X0917173Y0713566D02*
X0917827Y0713566D01*
X0917827Y0712520D01*
X0917173Y0712520D01*
X0917173Y0706480D02*
X0917173Y0705434D01*
X0917173Y0706480D02*
X0917827Y0706480D01*
X0917827Y0705434D01*
X0917173Y0705434D01*
X0927173Y0705434D02*
X0927173Y0706480D01*
X0927827Y0706480D01*
X0927827Y0705434D01*
X0927173Y0705434D01*
X0927173Y0712520D02*
X0927173Y0713566D01*
X0927827Y0713566D01*
X0927827Y0712520D01*
X0927173Y0712520D01*
X0936173Y0713020D02*
X0936173Y0714066D01*
X0936827Y0714066D01*
X0936827Y0713020D01*
X0936173Y0713020D01*
X0936173Y0706980D02*
X0936173Y0705934D01*
X0936173Y0706980D02*
X0936827Y0706980D01*
X0936827Y0705934D01*
X0936173Y0705934D01*
X0957827Y0705434D02*
X0957827Y0706480D01*
X0957827Y0705434D02*
X0957173Y0705434D01*
X0957173Y0706480D01*
X0957827Y0706480D01*
X0957827Y0712520D02*
X0957827Y0713566D01*
X0957827Y0712520D02*
X0957173Y0712520D01*
X0957173Y0713566D01*
X0957827Y0713566D01*
X0963934Y0707173D02*
X0964980Y0707173D01*
X0963934Y0707173D02*
X0963934Y0707827D01*
X0964980Y0707827D01*
X0964980Y0707173D01*
X0971020Y0707173D02*
X0972066Y0707173D01*
X0971020Y0707173D02*
X0971020Y0707827D01*
X0972066Y0707827D01*
X0972066Y0707173D01*
X1016327Y0729434D02*
X1016327Y0730480D01*
X1016327Y0729434D02*
X1015673Y0729434D01*
X1015673Y0730480D01*
X1016327Y0730480D01*
X1016327Y0736520D02*
X1016327Y0737566D01*
X1016327Y0736520D02*
X1015673Y0736520D01*
X1015673Y0737566D01*
X1016327Y0737566D01*
X1030173Y0661566D02*
X1030173Y0660520D01*
X1030173Y0661566D02*
X1030827Y0661566D01*
X1030827Y0660520D01*
X1030173Y0660520D01*
X1030173Y0654480D02*
X1030173Y0653434D01*
X1030173Y0654480D02*
X1030827Y0654480D01*
X1030827Y0653434D01*
X1030173Y0653434D01*
X1077673Y0653434D02*
X1077673Y0654480D01*
X1078327Y0654480D01*
X1078327Y0653434D01*
X1077673Y0653434D01*
X1077673Y0660520D02*
X1077673Y0661566D01*
X1078327Y0661566D01*
X1078327Y0660520D01*
X1077673Y0660520D01*
X0897827Y0524566D02*
X0897827Y0523520D01*
X0897173Y0523520D01*
X0897173Y0524566D01*
X0897827Y0524566D01*
X0897827Y0517480D02*
X0897827Y0516434D01*
X0897173Y0516434D01*
X0897173Y0517480D01*
X0897827Y0517480D01*
X1060934Y0459327D02*
X1061980Y0459327D01*
X1061980Y0458673D01*
X1060934Y0458673D01*
X1060934Y0459327D01*
X1068020Y0459327D02*
X1069066Y0459327D01*
X1069066Y0458673D01*
X1068020Y0458673D01*
X1068020Y0459327D01*
X1020827Y0159566D02*
X1020827Y0158520D01*
X1020173Y0158520D01*
X1020173Y0159566D01*
X1020827Y0159566D01*
X1020827Y0152480D02*
X1020827Y0151434D01*
X1020173Y0151434D01*
X1020173Y0152480D01*
X1020827Y0152480D01*
X1020827Y0146566D02*
X1020827Y0145520D01*
X1020173Y0145520D01*
X1020173Y0146566D01*
X1020827Y0146566D01*
X1026173Y0146566D02*
X1026173Y0145520D01*
X1026173Y0146566D02*
X1026827Y0146566D01*
X1026827Y0145520D01*
X1026173Y0145520D01*
X1026173Y0139480D02*
X1026173Y0138434D01*
X1026173Y0139480D02*
X1026827Y0139480D01*
X1026827Y0138434D01*
X1026173Y0138434D01*
X1020827Y0138434D02*
X1020827Y0139480D01*
X1020827Y0138434D02*
X1020173Y0138434D01*
X1020173Y0139480D01*
X1020827Y0139480D01*
X1019066Y0125173D02*
X1018020Y0125173D01*
X1018020Y0125827D01*
X1019066Y0125827D01*
X1019066Y0125173D01*
X1011980Y0125173D02*
X1010934Y0125173D01*
X1010934Y0125827D01*
X1011980Y0125827D01*
X1011980Y0125173D01*
X0995066Y0114173D02*
X0994020Y0114173D01*
X0994020Y0114827D01*
X0995066Y0114827D01*
X0995066Y0114173D01*
X0987980Y0114173D02*
X0986934Y0114173D01*
X0986934Y0114827D01*
X0987980Y0114827D01*
X0987980Y0114173D01*
X0976066Y0125827D02*
X0975020Y0125827D01*
X0976066Y0125827D02*
X0976066Y0125173D01*
X0975020Y0125173D01*
X0975020Y0125827D01*
X0968980Y0125827D02*
X0967934Y0125827D01*
X0968980Y0125827D02*
X0968980Y0125173D01*
X0967934Y0125173D01*
X0967934Y0125827D01*
X0935673Y0139934D02*
X0935673Y0140980D01*
X0936327Y0140980D01*
X0936327Y0139934D01*
X0935673Y0139934D01*
X0930827Y0139934D02*
X0930827Y0140980D01*
X0930827Y0139934D02*
X0930173Y0139934D01*
X0930173Y0140980D01*
X0930827Y0140980D01*
X0930827Y0147020D02*
X0930827Y0148066D01*
X0930827Y0147020D02*
X0930173Y0147020D01*
X0930173Y0148066D01*
X0930827Y0148066D01*
X0930827Y0152434D02*
X0930827Y0153480D01*
X0930827Y0152434D02*
X0930173Y0152434D01*
X0930173Y0153480D01*
X0930827Y0153480D01*
X0930827Y0159520D02*
X0930827Y0160566D01*
X0930827Y0159520D02*
X0930173Y0159520D01*
X0930173Y0160566D01*
X0930827Y0160566D01*
X0935673Y0148066D02*
X0935673Y0147020D01*
X0935673Y0148066D02*
X0936327Y0148066D01*
X0936327Y0147020D01*
X0935673Y0147020D01*
X0970827Y0152434D02*
X0970827Y0153480D01*
X0970827Y0152434D02*
X0970173Y0152434D01*
X0970173Y0153480D01*
X0970827Y0153480D01*
X0970827Y0159520D02*
X0970827Y0160566D01*
X0970827Y0159520D02*
X0970173Y0159520D01*
X0970173Y0160566D01*
X0970827Y0160566D01*
X1004173Y0105566D02*
X1004173Y0104520D01*
X1004173Y0105566D02*
X1004827Y0105566D01*
X1004827Y0104520D01*
X1004173Y0104520D01*
X1004173Y0098480D02*
X1004173Y0097434D01*
X1004173Y0098480D02*
X1004827Y0098480D01*
X1004827Y0097434D01*
X1004173Y0097434D01*
X1020673Y0097434D02*
X1020673Y0098480D01*
X1021327Y0098480D01*
X1021327Y0097434D01*
X1020673Y0097434D01*
X1020673Y0104520D02*
X1020673Y0105566D01*
X1021327Y0105566D01*
X1021327Y0104520D01*
X1020673Y0104520D01*
X1051173Y0089066D02*
X1051173Y0088020D01*
X1051173Y0089066D02*
X1051827Y0089066D01*
X1051827Y0088020D01*
X1051173Y0088020D01*
X1051173Y0081980D02*
X1051173Y0080934D01*
X1051173Y0081980D02*
X1051827Y0081980D01*
X1051827Y0080934D01*
X1051173Y0080934D01*
X0529066Y0039827D02*
X0528020Y0039827D01*
X0529066Y0039827D02*
X0529066Y0039173D01*
X0528020Y0039173D01*
X0528020Y0039827D01*
X0521980Y0039827D02*
X0520934Y0039827D01*
X0521980Y0039827D02*
X0521980Y0039173D01*
X0520934Y0039173D01*
X0520934Y0039827D01*
X0456566Y0039827D02*
X0455520Y0039827D01*
X0456566Y0039827D02*
X0456566Y0039173D01*
X0455520Y0039173D01*
X0455520Y0039827D01*
X0449480Y0039827D02*
X0448434Y0039827D01*
X0449480Y0039827D02*
X0449480Y0039173D01*
X0448434Y0039173D01*
X0448434Y0039827D01*
X0386566Y0039827D02*
X0385520Y0039827D01*
X0386566Y0039827D02*
X0386566Y0039173D01*
X0385520Y0039173D01*
X0385520Y0039827D01*
X0379480Y0039827D02*
X0378434Y0039827D01*
X0379480Y0039827D02*
X0379480Y0039173D01*
X0378434Y0039173D01*
X0378434Y0039827D01*
X0317066Y0039827D02*
X0316020Y0039827D01*
X0317066Y0039827D02*
X0317066Y0039173D01*
X0316020Y0039173D01*
X0316020Y0039827D01*
X0309980Y0039827D02*
X0308934Y0039827D01*
X0309980Y0039827D02*
X0309980Y0039173D01*
X0308934Y0039173D01*
X0308934Y0039827D01*
X0251566Y0039827D02*
X0250520Y0039827D01*
X0251566Y0039827D02*
X0251566Y0039173D01*
X0250520Y0039173D01*
X0250520Y0039827D01*
X0244480Y0039827D02*
X0243434Y0039827D01*
X0244480Y0039827D02*
X0244480Y0039173D01*
X0243434Y0039173D01*
X0243434Y0039827D01*
X0179566Y0119827D02*
X0178520Y0119827D01*
X0179566Y0119827D02*
X0179566Y0119173D01*
X0178520Y0119173D01*
X0178520Y0119827D01*
X0172480Y0119827D02*
X0171434Y0119827D01*
X0172480Y0119827D02*
X0172480Y0119173D01*
X0171434Y0119173D01*
X0171434Y0119827D01*
X0168066Y0150673D02*
X0167020Y0150673D01*
X0167020Y0151327D01*
X0168066Y0151327D01*
X0168066Y0150673D01*
X0160980Y0150673D02*
X0159934Y0150673D01*
X0159934Y0151327D01*
X0160980Y0151327D01*
X0160980Y0150673D01*
X0132566Y0123327D02*
X0131520Y0123327D01*
X0132566Y0123327D02*
X0132566Y0122673D01*
X0131520Y0122673D01*
X0131520Y0123327D01*
X0125480Y0123327D02*
X0124434Y0123327D01*
X0125480Y0123327D02*
X0125480Y0122673D01*
X0124434Y0122673D01*
X0124434Y0123327D01*
X0093066Y0122673D02*
X0092020Y0122673D01*
X0092020Y0123327D01*
X0093066Y0123327D01*
X0093066Y0122673D01*
X0085980Y0122673D02*
X0084934Y0122673D01*
X0084934Y0123327D01*
X0085980Y0123327D01*
X0085980Y0122673D01*
X0065673Y0155934D02*
X0065673Y0156980D01*
X0066327Y0156980D01*
X0066327Y0155934D01*
X0065673Y0155934D01*
X0065673Y0163020D02*
X0065673Y0164066D01*
X0066327Y0164066D01*
X0066327Y0163020D01*
X0065673Y0163020D01*
X0065480Y0172173D02*
X0064434Y0172173D01*
X0064434Y0172827D01*
X0065480Y0172827D01*
X0065480Y0172173D01*
X0071520Y0172173D02*
X0072566Y0172173D01*
X0071520Y0172173D02*
X0071520Y0172827D01*
X0072566Y0172827D01*
X0072566Y0172173D01*
X0039673Y0164066D02*
X0039673Y0163020D01*
X0039673Y0164066D02*
X0040327Y0164066D01*
X0040327Y0163020D01*
X0039673Y0163020D01*
X0039673Y0156980D02*
X0039673Y0155934D01*
X0039673Y0156980D02*
X0040327Y0156980D01*
X0040327Y0155934D01*
X0039673Y0155934D01*
X0026566Y0153673D02*
X0025520Y0153673D01*
X0025520Y0154327D01*
X0026566Y0154327D01*
X0026566Y0153673D01*
X0019480Y0153673D02*
X0018434Y0153673D01*
X0018434Y0154327D01*
X0019480Y0154327D01*
X0019480Y0153673D01*
X0028673Y0189934D02*
X0028673Y0190980D01*
X0029327Y0190980D01*
X0029327Y0189934D01*
X0028673Y0189934D01*
X0035327Y0189934D02*
X0035327Y0190980D01*
X0035327Y0189934D02*
X0034673Y0189934D01*
X0034673Y0190980D01*
X0035327Y0190980D01*
X0035327Y0197020D02*
X0035327Y0198066D01*
X0035327Y0197020D02*
X0034673Y0197020D01*
X0034673Y0198066D01*
X0035327Y0198066D01*
X0028673Y0198066D02*
X0028673Y0197020D01*
X0028673Y0198066D02*
X0029327Y0198066D01*
X0029327Y0197020D01*
X0028673Y0197020D01*
X0155934Y0191327D02*
X0156980Y0191327D01*
X0156980Y0190673D01*
X0155934Y0190673D01*
X0155934Y0191327D01*
X0163020Y0191327D02*
X0164066Y0191327D01*
X0164066Y0190673D01*
X0163020Y0190673D01*
X0163020Y0191327D01*
X0171327Y0191066D02*
X0171327Y0190020D01*
X0170673Y0190020D01*
X0170673Y0191066D01*
X0171327Y0191066D01*
X0171327Y0183980D02*
X0171327Y0182934D01*
X0170673Y0182934D01*
X0170673Y0183980D01*
X0171327Y0183980D01*
X0209173Y0184520D02*
X0209173Y0185566D01*
X0209827Y0185566D01*
X0209827Y0184520D01*
X0209173Y0184520D01*
X0209173Y0178480D02*
X0209173Y0177434D01*
X0209173Y0178480D02*
X0209827Y0178480D01*
X0209827Y0177434D01*
X0209173Y0177434D01*
X0209827Y0171566D02*
X0209827Y0170520D01*
X0209173Y0170520D01*
X0209173Y0171566D01*
X0209827Y0171566D01*
X0209827Y0164480D02*
X0209827Y0163434D01*
X0209173Y0163434D01*
X0209173Y0164480D01*
X0209827Y0164480D01*
D31*
X0614500Y0741654D03*
X0614500Y0748346D03*
D32*
X0559850Y0720162D02*
X0558962Y0720162D01*
X0558962Y0721838D01*
X0559850Y0721838D01*
X0559850Y0720162D01*
X0548038Y0720162D02*
X0547150Y0720162D01*
X0547150Y0721838D01*
X0548038Y0721838D01*
X0548038Y0720162D01*
X0547650Y0704162D02*
X0548538Y0704162D01*
X0547650Y0704162D02*
X0547650Y0705838D01*
X0548538Y0705838D01*
X0548538Y0704162D01*
X0559462Y0704162D02*
X0560350Y0704162D01*
X0559462Y0704162D02*
X0559462Y0705838D01*
X0560350Y0705838D01*
X0560350Y0704162D01*
X0358662Y0650850D02*
X0358662Y0649962D01*
X0358662Y0650850D02*
X0360338Y0650850D01*
X0360338Y0649962D01*
X0358662Y0649962D01*
X0358662Y0639038D02*
X0358662Y0638150D01*
X0358662Y0639038D02*
X0360338Y0639038D01*
X0360338Y0638150D01*
X0358662Y0638150D01*
X0342662Y0638650D02*
X0342662Y0639538D01*
X0344338Y0639538D01*
X0344338Y0638650D01*
X0342662Y0638650D01*
X0342662Y0650462D02*
X0342662Y0651350D01*
X0344338Y0651350D01*
X0344338Y0650462D01*
X0342662Y0650462D01*
X0300162Y0611850D02*
X0300162Y0610962D01*
X0300162Y0611850D02*
X0301838Y0611850D01*
X0301838Y0610962D01*
X0300162Y0610962D01*
X0300162Y0600038D02*
X0300162Y0599150D01*
X0300162Y0600038D02*
X0301838Y0600038D01*
X0301838Y0599150D01*
X0300162Y0599150D01*
X0274162Y0599150D02*
X0274162Y0600038D01*
X0275838Y0600038D01*
X0275838Y0599150D01*
X0274162Y0599150D01*
X0274162Y0610962D02*
X0274162Y0611850D01*
X0275838Y0611850D01*
X0275838Y0610962D01*
X0274162Y0610962D01*
X0242162Y0610962D02*
X0242162Y0611850D01*
X0243838Y0611850D01*
X0243838Y0610962D01*
X0242162Y0610962D01*
X0242162Y0600038D02*
X0242162Y0599150D01*
X0242162Y0600038D02*
X0243838Y0600038D01*
X0243838Y0599150D01*
X0242162Y0599150D01*
X0238662Y0642150D02*
X0238662Y0643038D01*
X0240338Y0643038D01*
X0240338Y0642150D01*
X0238662Y0642150D01*
X0238662Y0653962D02*
X0238662Y0654850D01*
X0240338Y0654850D01*
X0240338Y0653962D01*
X0238662Y0653962D01*
X0255162Y0653962D02*
X0255162Y0654850D01*
X0256838Y0654850D01*
X0256838Y0653962D01*
X0255162Y0653962D01*
X0255162Y0643038D02*
X0255162Y0642150D01*
X0255162Y0643038D02*
X0256838Y0643038D01*
X0256838Y0642150D01*
X0255162Y0642150D01*
X0206350Y0732338D02*
X0205462Y0732338D01*
X0206350Y0732338D02*
X0206350Y0730662D01*
X0205462Y0730662D01*
X0205462Y0732338D01*
X0194538Y0732338D02*
X0193650Y0732338D01*
X0194538Y0732338D02*
X0194538Y0730662D01*
X0193650Y0730662D01*
X0193650Y0732338D01*
X0117838Y0135350D02*
X0117838Y0134462D01*
X0116162Y0134462D01*
X0116162Y0135350D01*
X0117838Y0135350D01*
X0117838Y0123538D02*
X0117838Y0122650D01*
X0116162Y0122650D01*
X0116162Y0123538D01*
X0117838Y0123538D01*
X0101338Y0123538D02*
X0101338Y0122650D01*
X0099662Y0122650D01*
X0099662Y0123538D01*
X0101338Y0123538D01*
X0101338Y0134462D02*
X0101338Y0135350D01*
X0101338Y0134462D02*
X0099662Y0134462D01*
X0099662Y0135350D01*
X0101338Y0135350D01*
X1003662Y0090850D02*
X1003662Y0089962D01*
X1003662Y0090850D02*
X1005338Y0090850D01*
X1005338Y0089962D01*
X1003662Y0089962D01*
X1003662Y0079038D02*
X1003662Y0078150D01*
X1003662Y0079038D02*
X1005338Y0079038D01*
X1005338Y0078150D01*
X1003662Y0078150D01*
X1020162Y0078150D02*
X1020162Y0079038D01*
X1021838Y0079038D01*
X1021838Y0078150D01*
X1020162Y0078150D01*
X1020162Y0089962D02*
X1020162Y0090850D01*
X1021838Y0090850D01*
X1021838Y0089962D01*
X1020162Y0089962D01*
D33*
X0321433Y0531000D03*
X0300567Y0531000D03*
D34*
X0289661Y0521000D03*
X0272339Y0521000D03*
X0983500Y0732339D03*
X0983500Y0749661D03*
D35*
X0488760Y0724220D03*
X0486201Y0724220D03*
X0483642Y0724220D03*
X0481083Y0724220D03*
X0478524Y0724220D03*
X0475965Y0724220D03*
X0473406Y0724220D03*
X0470846Y0724220D03*
X0470846Y0700992D03*
X0473406Y0700992D03*
X0475965Y0700992D03*
X0478524Y0700992D03*
X0481083Y0700992D03*
X0483642Y0700992D03*
X0486201Y0700992D03*
X0488760Y0700992D03*
X0488035Y0541508D03*
X0485476Y0541508D03*
X0482917Y0541508D03*
X0480358Y0541508D03*
X0477799Y0541508D03*
X0475240Y0541508D03*
X0490594Y0541508D03*
X0493154Y0541508D03*
X0493154Y0518280D03*
X0490594Y0518280D03*
X0488035Y0518280D03*
X0485476Y0518280D03*
X0482917Y0518280D03*
X0480358Y0518280D03*
X0477799Y0518280D03*
X0475240Y0518280D03*
D36*
X0444500Y0650000D03*
X0445000Y0672000D03*
D37*
X0677500Y0622300D03*
X0682500Y0622300D03*
X0687500Y0622300D03*
X0692500Y0622300D03*
X0692500Y0601700D03*
X0687500Y0601700D03*
X0682500Y0601700D03*
X0677500Y0601700D03*
D38*
X0681500Y0783000D03*
X0443500Y0783500D03*
X0349000Y0785500D03*
X0136500Y0566500D03*
X0136500Y0556500D03*
X0126500Y0556500D03*
X0126500Y0566500D03*
X0116500Y0556500D03*
X0106500Y0556500D03*
X0096500Y0556500D03*
X0086500Y0556500D03*
X0086500Y0566500D03*
X0071500Y0566500D03*
X0071500Y0556500D03*
X0061500Y0556500D03*
X0061500Y0566500D03*
X0051500Y0566500D03*
X0051500Y0556500D03*
X0041500Y0556500D03*
X0041500Y0566500D03*
X0031500Y0566500D03*
X0031500Y0556500D03*
X0031500Y0546500D03*
X0031500Y0536500D03*
X0031500Y0526500D03*
X0031500Y0516500D03*
X0041500Y0516500D03*
X0041500Y0526500D03*
X0041500Y0536500D03*
X0041500Y0546500D03*
X0051500Y0546500D03*
X0051500Y0536500D03*
X0051500Y0526500D03*
X0051500Y0516500D03*
X0061500Y0516500D03*
X0061500Y0526500D03*
X0061500Y0536500D03*
X0061500Y0546500D03*
X0071500Y0546500D03*
X0071500Y0536500D03*
X0071500Y0526500D03*
X0071500Y0516500D03*
X0086500Y0516500D03*
X0086500Y0526500D03*
X0086500Y0536500D03*
X0086500Y0546500D03*
X0096500Y0546500D03*
X0096500Y0536500D03*
X0096500Y0526500D03*
X0096500Y0516500D03*
X0106500Y0516500D03*
X0106500Y0526500D03*
X0106500Y0536500D03*
X0106500Y0546500D03*
X0116500Y0546500D03*
X0116500Y0536500D03*
X0116500Y0526500D03*
X0116500Y0516500D03*
X0126500Y0516500D03*
X0126500Y0526500D03*
X0126500Y0536500D03*
X0126500Y0546500D03*
X0136500Y0546500D03*
X0136500Y0536500D03*
X0136500Y0526500D03*
X0136500Y0516500D03*
X0136500Y0506500D03*
X0136500Y0496500D03*
X0136500Y0486500D03*
X0136500Y0476500D03*
X0126500Y0476500D03*
X0126500Y0486500D03*
X0126500Y0496500D03*
X0126500Y0506500D03*
X0116500Y0506500D03*
X0116500Y0496500D03*
X0116500Y0486500D03*
X0116500Y0476500D03*
X0106500Y0476500D03*
X0106500Y0486500D03*
X0106500Y0496500D03*
X0106500Y0506500D03*
X0096500Y0506500D03*
X0096500Y0496500D03*
X0096500Y0486500D03*
X0096500Y0476500D03*
X0086500Y0476500D03*
X0086500Y0486500D03*
X0086500Y0496500D03*
X0086500Y0506500D03*
X0071500Y0506500D03*
X0071500Y0496500D03*
X0071500Y0486500D03*
X0071500Y0476500D03*
X0061500Y0476500D03*
X0061500Y0486500D03*
X0061500Y0496500D03*
X0061500Y0506500D03*
X0051500Y0506500D03*
X0051500Y0496500D03*
X0051500Y0486500D03*
X0051500Y0476500D03*
X0041500Y0476500D03*
X0041500Y0486500D03*
X0041500Y0496500D03*
X0041500Y0506500D03*
X0031500Y0506500D03*
X0031500Y0496500D03*
X0031500Y0486500D03*
X0031500Y0476500D03*
X0031500Y0466500D03*
X0031500Y0456500D03*
X0041500Y0456500D03*
X0041500Y0466500D03*
X0051500Y0466500D03*
X0051500Y0456500D03*
X0061500Y0456500D03*
X0061500Y0446500D03*
X0061500Y0436500D03*
X0071500Y0436500D03*
X0071500Y0446500D03*
X0071500Y0456500D03*
X0071500Y0466500D03*
X0061500Y0466500D03*
X0086500Y0466500D03*
X0086500Y0456500D03*
X0086500Y0446500D03*
X0086500Y0436500D03*
X0096500Y0436500D03*
X0096500Y0446500D03*
X0096500Y0456500D03*
X0096500Y0466500D03*
X0106500Y0466500D03*
X0106500Y0456500D03*
X0106500Y0446500D03*
X0106500Y0436500D03*
X0116500Y0436500D03*
X0116500Y0446500D03*
X0116500Y0456500D03*
X0116500Y0466500D03*
X0126500Y0466500D03*
X0126500Y0456500D03*
X0126500Y0446500D03*
X0126500Y0436500D03*
X0136500Y0436500D03*
X0136500Y0446500D03*
X0136500Y0456500D03*
X0136500Y0466500D03*
X0136500Y0426500D03*
X0136500Y0416500D03*
X0136500Y0406500D03*
X0136500Y0396500D03*
X0136500Y0386500D03*
X0126500Y0386500D03*
X0126500Y0396500D03*
X0126500Y0406500D03*
X0126500Y0416500D03*
X0126500Y0426500D03*
X0116500Y0426500D03*
X0116500Y0416500D03*
X0116500Y0406500D03*
X0116500Y0396500D03*
X0116500Y0386500D03*
X0106500Y0386500D03*
X0106500Y0396500D03*
X0106500Y0406500D03*
X0106500Y0416500D03*
X0106500Y0426500D03*
X0096500Y0426500D03*
X0096500Y0416500D03*
X0096500Y0406500D03*
X0096500Y0396500D03*
X0096500Y0386500D03*
X0086500Y0386500D03*
X0086500Y0396500D03*
X0086500Y0406500D03*
X0086500Y0416500D03*
X0086500Y0426500D03*
X0071500Y0426500D03*
X0071500Y0416500D03*
X0071500Y0406500D03*
X0071500Y0396500D03*
X0071500Y0386500D03*
X0061500Y0386500D03*
X0061500Y0396500D03*
X0061500Y0406500D03*
X0061500Y0416500D03*
X0061500Y0426500D03*
X0051500Y0416500D03*
X0051500Y0406500D03*
X0051500Y0396500D03*
X0051500Y0386500D03*
X0041500Y0386500D03*
X0041500Y0396500D03*
X0041500Y0406500D03*
X0041500Y0416500D03*
X0031500Y0416500D03*
X0031500Y0406500D03*
X0031500Y0396500D03*
X0031500Y0386500D03*
X0031500Y0376500D03*
X0031500Y0366500D03*
X0031500Y0356500D03*
X0031500Y0346500D03*
X0041500Y0346500D03*
X0041500Y0356500D03*
X0041500Y0366500D03*
X0041500Y0376500D03*
X0051500Y0376500D03*
X0051500Y0366500D03*
X0051500Y0356500D03*
X0051500Y0346500D03*
X0061500Y0346500D03*
X0061500Y0356500D03*
X0061500Y0366500D03*
X0061500Y0376500D03*
X0071500Y0376500D03*
X0071500Y0366500D03*
X0071500Y0356500D03*
X0071500Y0346500D03*
X0086500Y0346500D03*
X0086500Y0356500D03*
X0086500Y0366500D03*
X0086500Y0376500D03*
X0096500Y0376500D03*
X0096500Y0366500D03*
X0096500Y0356500D03*
X0096500Y0346500D03*
X0106500Y0346500D03*
X0106500Y0356500D03*
X0106500Y0366500D03*
X0106500Y0376500D03*
X0116500Y0376500D03*
X0116500Y0366500D03*
X0116500Y0356500D03*
X0116500Y0346500D03*
X0126500Y0346500D03*
X0126500Y0356500D03*
X0126500Y0366500D03*
X0126500Y0376500D03*
X0136500Y0376500D03*
X0136500Y0366500D03*
X0136500Y0356500D03*
X0136500Y0346500D03*
X0136500Y0336500D03*
X0136500Y0326500D03*
X0136500Y0316500D03*
X0136500Y0306500D03*
X0126500Y0306500D03*
X0126500Y0316500D03*
X0126500Y0326500D03*
X0126500Y0336500D03*
X0116500Y0336500D03*
X0116500Y0326500D03*
X0116500Y0316500D03*
X0116500Y0306500D03*
X0106500Y0306500D03*
X0106500Y0316500D03*
X0106500Y0326500D03*
X0106500Y0336500D03*
X0096500Y0336500D03*
X0096500Y0326500D03*
X0096500Y0316500D03*
X0096500Y0306500D03*
X0086500Y0306500D03*
X0086500Y0316500D03*
X0086500Y0326500D03*
X0086500Y0336500D03*
X0071500Y0336500D03*
X0071500Y0326500D03*
X0071500Y0316500D03*
X0071500Y0306500D03*
X0061500Y0306500D03*
X0061500Y0316500D03*
X0061500Y0326500D03*
X0061500Y0336500D03*
X0051500Y0336500D03*
X0051500Y0326500D03*
X0051500Y0316500D03*
X0051500Y0306500D03*
X0041500Y0306500D03*
X0041500Y0316500D03*
X0041500Y0326500D03*
X0041500Y0336500D03*
X0031500Y0336500D03*
X0031500Y0326500D03*
X0031500Y0316500D03*
X0031500Y0306500D03*
D39*
X0359000Y0785500D03*
X0369000Y0785500D03*
X0379000Y0785500D03*
X0389000Y0785500D03*
X0453500Y0783500D03*
X0463500Y0783500D03*
X0473500Y0783500D03*
X0483500Y0783500D03*
X0493500Y0783500D03*
X0503500Y0783500D03*
X0691500Y0783000D03*
X0701500Y0783000D03*
D40*
X0591480Y0690839D03*
X0591480Y0688280D03*
X0591480Y0685720D03*
X0591480Y0683161D03*
X0576520Y0683161D03*
X0576520Y0685720D03*
X0576520Y0688280D03*
X0576520Y0690839D03*
X0985520Y0128339D03*
X0985520Y0125780D03*
X0985520Y0123220D03*
X0985520Y0120661D03*
X1000480Y0120661D03*
X1000480Y0123220D03*
X1000480Y0125780D03*
X1000480Y0128339D03*
D41*
X0997780Y0650846D03*
X0997780Y0653406D03*
X0997780Y0655965D03*
X0997780Y0658524D03*
X0997780Y0661083D03*
X0997780Y0663642D03*
X0997780Y0666201D03*
X0997780Y0668760D03*
X1021008Y0668760D03*
X1021008Y0666201D03*
X1021008Y0663642D03*
X1021008Y0661083D03*
X1021008Y0658524D03*
X1021008Y0655965D03*
X1021008Y0653406D03*
X1021008Y0650846D03*
X1045780Y0650846D03*
X1045780Y0653406D03*
X1045780Y0655965D03*
X1045780Y0658524D03*
X1045780Y0661083D03*
X1045780Y0663642D03*
X1045780Y0666201D03*
X1045780Y0668760D03*
X1069008Y0668760D03*
X1069008Y0666201D03*
X1069008Y0663642D03*
X1069008Y0661083D03*
X1069008Y0658524D03*
X1069008Y0655965D03*
X1069008Y0653406D03*
X1069008Y0650846D03*
D42*
X0768500Y0783500D03*
X0681500Y0756500D03*
X0443500Y0751000D03*
X0435000Y0691500D03*
X0227500Y0678500D03*
X0266500Y0488500D03*
X0656000Y0541000D03*
X0932500Y0092000D03*
X0932500Y0082000D03*
X0932500Y0072000D03*
X1061000Y0086000D03*
D43*
X1061000Y0096000D03*
X1061000Y0106000D03*
X1061000Y0116000D03*
X1061000Y0126000D03*
X1061000Y0136000D03*
X1061000Y0146000D03*
X1061000Y0156000D03*
X1061000Y0166000D03*
X0952500Y0092000D03*
X0952500Y0082000D03*
X0942500Y0082000D03*
X0942500Y0092000D03*
X0942500Y0072000D03*
X0952500Y0072000D03*
X0716000Y0541000D03*
X0706000Y0541000D03*
X0696000Y0541000D03*
X0686000Y0541000D03*
X0676000Y0541000D03*
X0666000Y0541000D03*
X0455000Y0691500D03*
X0445000Y0691500D03*
X0453500Y0751000D03*
X0463500Y0751000D03*
X0473500Y0751000D03*
X0483500Y0751000D03*
X0493500Y0751000D03*
X0503500Y0751000D03*
X0691500Y0756500D03*
X0701500Y0756500D03*
X0778500Y0783500D03*
X0788500Y0783500D03*
X0798500Y0783500D03*
X0808500Y0783500D03*
X0818500Y0783500D03*
X0828500Y0783500D03*
X0838500Y0783500D03*
X0848500Y0783500D03*
X0287500Y0678500D03*
X0277500Y0678500D03*
X0267500Y0678500D03*
X0257500Y0678500D03*
X0247500Y0678500D03*
X0237500Y0678500D03*
X0276500Y0488500D03*
X0286500Y0488500D03*
D44*
X0304307Y0698874D03*
X0304307Y0706748D03*
X0304307Y0714622D03*
X0304307Y0722496D03*
X0304307Y0730370D03*
X0304307Y0738244D03*
X0304307Y0746118D03*
X0304307Y0753992D03*
X0304307Y0761866D03*
X0304307Y0769740D03*
X0217693Y0769740D03*
X0217693Y0761866D03*
X0217693Y0753992D03*
X0217693Y0746118D03*
X0217693Y0738244D03*
X0217693Y0730370D03*
X0217693Y0722496D03*
X0217693Y0714622D03*
X0217693Y0706748D03*
X0217693Y0698874D03*
X0712000Y0632000D03*
D45*
X0801142Y0644161D03*
X0801142Y0646720D03*
X0801142Y0649280D03*
X0801142Y0651839D03*
X0818858Y0651839D03*
X0818858Y0649280D03*
X0818858Y0646720D03*
X0818858Y0644161D03*
X0059358Y0175839D03*
X0059358Y0173280D03*
X0059358Y0170720D03*
X0059358Y0168161D03*
X0041642Y0168161D03*
X0041642Y0170720D03*
X0041642Y0173280D03*
X0041642Y0175839D03*
D46*
X0156661Y0179358D03*
X0159220Y0179358D03*
X0161780Y0179358D03*
X0164339Y0179358D03*
X0164339Y0161642D03*
X0161780Y0161642D03*
X0159220Y0161642D03*
X0156661Y0161642D03*
D47*
X0808500Y0680744D03*
X0808500Y0716256D03*
D48*
X0787614Y0716256D03*
X0787614Y0680744D03*
D49*
X0120256Y0176000D03*
X0084744Y0176000D03*
D50*
X0084744Y0155114D03*
X0120256Y0155114D03*
D51*
X0221000Y0029900D03*
X0221000Y0012100D03*
X0251000Y0012100D03*
X0251000Y0029900D03*
X0286000Y0029900D03*
X0286000Y0012100D03*
X0316000Y0012100D03*
X0316000Y0029900D03*
X0356000Y0029900D03*
X0356000Y0012100D03*
X0386000Y0012100D03*
X0386000Y0029900D03*
X0426000Y0029900D03*
X0426000Y0012100D03*
X0456000Y0012100D03*
X0456000Y0029900D03*
X0498500Y0029900D03*
X0498500Y0012100D03*
X0528500Y0012100D03*
X0528500Y0029900D03*
X0806500Y0029900D03*
X0806500Y0012100D03*
X0836500Y0012100D03*
X0836500Y0029900D03*
X1043500Y0432100D03*
X1043500Y0449900D03*
X1073500Y0449900D03*
X1073500Y0432100D03*
D52*
X0701500Y0793000D03*
X0691500Y0793000D03*
X0681500Y0793000D03*
D53*
X1085000Y0752535D03*
X1085000Y0724465D03*
D54*
X1004397Y0732984D02*
X1002603Y0732984D01*
X1002603Y0733992D01*
X1004397Y0733992D01*
X1004397Y0732984D01*
X1004397Y0744008D02*
X1002603Y0744008D01*
X1002603Y0745016D01*
X1004397Y0745016D01*
X1004397Y0744008D01*
D55*
X1065155Y0746029D02*
X1065155Y0746947D01*
X1067845Y0746947D01*
X1067845Y0746029D01*
X1065155Y0746029D01*
X1065155Y0732971D02*
X1065155Y0732053D01*
X1065155Y0732971D02*
X1067845Y0732971D01*
X1067845Y0732053D01*
X1065155Y0732053D01*
D56*
X0021000Y0021000D03*
X0571000Y0021000D03*
X1081000Y0021000D03*
X0510500Y0493000D03*
X0091000Y0781000D03*
X1081000Y0781000D03*
D57*
X0550500Y0687000D03*
X0550500Y0686000D03*
D58*
X0878108Y0084526D02*
X0878108Y0083726D01*
X0878108Y0084526D02*
X0879892Y0084526D01*
X0879892Y0083726D01*
X0878108Y0083726D01*
X0878108Y0075274D02*
X0878108Y0074474D01*
X0878108Y0075274D02*
X0879892Y0075274D01*
X0879892Y0074474D01*
X0878108Y0074474D01*
X0873026Y0061392D02*
X0872226Y0061392D01*
X0873026Y0061392D02*
X0873026Y0059608D01*
X0872226Y0059608D01*
X0872226Y0061392D01*
X0863774Y0061392D02*
X0862974Y0061392D01*
X0863774Y0061392D02*
X0863774Y0059608D01*
X0862974Y0059608D01*
X0862974Y0061392D01*
X0240526Y0061392D02*
X0239726Y0061392D01*
X0240526Y0061392D02*
X0240526Y0059608D01*
X0239726Y0059608D01*
X0239726Y0061392D01*
X0231274Y0061392D02*
X0230474Y0061392D01*
X0231274Y0061392D02*
X0231274Y0059608D01*
X0230474Y0059608D01*
X0230474Y0061392D01*
X0221892Y0074474D02*
X0221892Y0075274D01*
X0221892Y0074474D02*
X0220108Y0074474D01*
X0220108Y0075274D01*
X0221892Y0075274D01*
X0221892Y0083726D02*
X0221892Y0084526D01*
X0221892Y0083726D02*
X0220108Y0083726D01*
X0220108Y0084526D01*
X0221892Y0084526D01*
D59*
X0050500Y0172000D03*
D60*
X0050500Y0172000D03*
D61*
X0050500Y0181000D03*
X0051000Y0162500D03*
X0155500Y0135000D03*
X0160500Y0144500D03*
X0186000Y0119500D03*
X0188000Y0170500D03*
X0202000Y0170500D03*
X0156500Y0196500D03*
X0021500Y0076500D03*
X0071500Y0021500D03*
X0146500Y0021500D03*
X0520000Y0286000D03*
X0547500Y0282500D03*
X0588500Y0287000D03*
X0377500Y0318000D03*
X0364000Y0318000D03*
X0352000Y0318000D03*
X0334000Y0318000D03*
X0312500Y0318000D03*
X0314500Y0337500D03*
X0278000Y0503500D03*
X0297500Y0511000D03*
X0323500Y0515000D03*
X0403500Y0586000D03*
X0426500Y0576000D03*
X0433500Y0586000D03*
X0456500Y0574000D03*
X0464500Y0586000D03*
X0487500Y0572500D03*
X0494500Y0586000D03*
X0519000Y0572500D03*
X0523500Y0586000D03*
X0547500Y0576000D03*
X0553000Y0586000D03*
X0577500Y0576000D03*
X0493000Y0525500D03*
X0467000Y0523000D03*
X0339000Y0617000D03*
X0321000Y0625500D03*
X0304500Y0661000D03*
X0286000Y0666500D03*
X0375500Y0665500D03*
X0393500Y0659000D03*
X0243000Y0592500D03*
X0185000Y0646500D03*
X0161500Y0686500D03*
X0090500Y0698000D03*
X0016500Y0691500D03*
X0016500Y0676500D03*
X0016500Y0631500D03*
X0202500Y0750500D03*
X0584000Y0718500D03*
X0591500Y0696000D03*
X0614000Y0679000D03*
X0631000Y0721000D03*
X0636500Y0756000D03*
X0609500Y0751500D03*
X0665000Y0711000D03*
X0685500Y0686500D03*
X0702500Y0707500D03*
X0671500Y0638500D03*
X0787500Y0649000D03*
X0832500Y0641500D03*
X0853500Y0672500D03*
X0977000Y0707500D03*
X1004500Y0659500D03*
X1030500Y0649000D03*
X1052500Y0659500D03*
X1078000Y0649000D03*
X1076500Y0561500D03*
X1076500Y0466500D03*
X1076500Y0371500D03*
X1076500Y0246500D03*
X1007000Y0132500D03*
X0999500Y0114500D03*
X1033500Y0101000D03*
X1051500Y0094000D03*
X0991500Y0021500D03*
X0930500Y0135000D03*
D62*
X0943000Y0151000D03*
X0967500Y0137500D03*
X0985500Y0151000D03*
X1003000Y0143000D03*
X1022500Y0132500D03*
X1036000Y0131500D03*
X0985000Y0095500D03*
X0914500Y0148000D03*
X0884000Y0360500D03*
X0955500Y0431000D03*
X0957500Y0472500D03*
X0967500Y0472500D03*
X0977500Y0472500D03*
X0987500Y0472500D03*
X0997500Y0472500D03*
X1007000Y0472500D03*
X1017500Y0472500D03*
X1027500Y0472500D03*
X1037500Y0472500D03*
X1047500Y0472500D03*
X1057500Y0472500D03*
X1087000Y0425000D03*
X1057500Y0530000D03*
X1047500Y0530000D03*
X1037500Y0530000D03*
X1027500Y0530000D03*
X1017500Y0530000D03*
X1007500Y0530000D03*
X0997500Y0530000D03*
X0987500Y0530000D03*
X0978000Y0530000D03*
X0967500Y0530000D03*
X0922000Y0556500D03*
X0901500Y0556500D03*
X0891000Y0565500D03*
X0886000Y0558500D03*
X0881000Y0561500D03*
X0848500Y0561500D03*
X0858000Y0595500D03*
X0863000Y0599000D03*
X0863500Y0609000D03*
X0849500Y0612000D03*
X0845500Y0598500D03*
X0879000Y0613000D03*
X0883500Y0609000D03*
X0883000Y0603000D03*
X0892500Y0595000D03*
X0883000Y0589500D03*
X0888500Y0613500D03*
X0879000Y0643500D03*
X0863000Y0655500D03*
X0849000Y0643000D03*
X0840500Y0636500D03*
X0882500Y0664000D03*
X0892500Y0659500D03*
X0934500Y0664500D03*
X0952500Y0662500D03*
X0978000Y0659500D03*
X1014000Y0657000D03*
X1014000Y0663000D03*
X1039000Y0664000D03*
X1052000Y0654000D03*
X1061500Y0657500D03*
X1061000Y0663500D03*
X1066500Y0681500D03*
X1071500Y0696000D03*
X1066500Y0707500D03*
X1002000Y0713500D03*
X0992500Y0713500D03*
X0992500Y0706000D03*
X0994500Y0740500D03*
X0967000Y0739500D03*
X0957500Y0733500D03*
X0941500Y0733500D03*
X0930000Y0729300D03*
X0917500Y0730000D03*
X0917500Y0720000D03*
X0902000Y0727500D03*
X0936500Y0718500D03*
X0945500Y0758500D03*
X0897000Y0758000D03*
X0852000Y0770500D03*
X0833500Y0769500D03*
X0817500Y0767500D03*
X0808500Y0771500D03*
X0834000Y0751500D03*
X0779500Y0738000D03*
X0759500Y0752500D03*
X0754500Y0756500D03*
X0749500Y0760500D03*
X0744500Y0764500D03*
X0740000Y0768500D03*
X0734500Y0772000D03*
X0730000Y0776500D03*
X0725500Y0780500D03*
X0674500Y0781500D03*
X0661500Y0772000D03*
X0656500Y0767000D03*
X0661500Y0762500D03*
X0663000Y0746000D03*
X0666500Y0734500D03*
X0641500Y0733500D03*
X0629500Y0728500D03*
X0610000Y0721000D03*
X0605000Y0713500D03*
X0613000Y0699500D03*
X0623000Y0705000D03*
X0628500Y0709000D03*
X0632000Y0713500D03*
X0630000Y0686500D03*
X0628000Y0678500D03*
X0621500Y0678500D03*
X0613000Y0685000D03*
X0600500Y0689000D03*
X0584000Y0687000D03*
X0584000Y0678000D03*
X0568500Y0661000D03*
X0556500Y0660000D03*
X0544500Y0660000D03*
X0535500Y0647500D03*
X0525000Y0648500D03*
X0514500Y0644000D03*
X0511500Y0652000D03*
X0515500Y0665000D03*
X0519500Y0672500D03*
X0542500Y0679500D03*
X0556000Y0693000D03*
X0518500Y0719000D03*
X0497000Y0705000D03*
X0498500Y0697000D03*
X0484000Y0693000D03*
X0480000Y0678500D03*
X0470000Y0682500D03*
X0462500Y0672000D03*
X0453000Y0666000D03*
X0465500Y0648500D03*
X0480000Y0639000D03*
X0474500Y0629500D03*
X0475000Y0620000D03*
X0485500Y0614000D03*
X0480000Y0607000D03*
X0483500Y0589500D03*
X0498000Y0591500D03*
X0508500Y0591500D03*
X0531220Y0595500D03*
X0536000Y0592500D03*
X0553500Y0593500D03*
X0578000Y0585500D03*
X0589500Y0602500D03*
X0629500Y0613500D03*
X0631000Y0622500D03*
X0631000Y0639000D03*
X0637500Y0648500D03*
X0632000Y0652000D03*
X0632500Y0662500D03*
X0621500Y0662000D03*
X0593500Y0659500D03*
X0529500Y0631000D03*
X0490500Y0634000D03*
X0452500Y0620000D03*
X0443500Y0629500D03*
X0426500Y0612500D03*
X0416000Y0620000D03*
X0408000Y0629500D03*
X0373000Y0638500D03*
X0339000Y0624000D03*
X0331500Y0633500D03*
X0276000Y0648500D03*
X0214000Y0686500D03*
X0277500Y0699996D03*
X0371000Y0759500D03*
X0433500Y0759000D03*
X0469500Y0733500D03*
X0461000Y0719000D03*
X0464500Y0715500D03*
X0474465Y0713500D03*
X0462500Y0700000D03*
X0451500Y0721500D03*
X0478000Y0759500D03*
X0542500Y0764000D03*
X0602500Y0745000D03*
X0650500Y0777500D03*
X0713043Y0706000D03*
X0717000Y0683500D03*
X0728500Y0665000D03*
X0721500Y0661500D03*
X0740000Y0670000D03*
X0713000Y0647000D03*
X0719000Y0642500D03*
X0687500Y0643500D03*
X0702000Y0601700D03*
X0740500Y0577500D03*
X0746500Y0576000D03*
X0743500Y0570000D03*
X0751000Y0582000D03*
X0757000Y0582000D03*
X0769500Y0544500D03*
X0745000Y0541000D03*
X0746000Y0526500D03*
X0754000Y0521000D03*
X0715000Y0494500D03*
X0696500Y0490500D03*
X0690000Y0490500D03*
X0617000Y0535000D03*
X0560500Y0557500D03*
X0531000Y0557500D03*
X0502000Y0557500D03*
X0472000Y0557500D03*
X0441000Y0557500D03*
X0410500Y0557500D03*
X0289000Y0587000D03*
X0394000Y0669500D03*
X0388000Y0689000D03*
X0776500Y0685000D03*
X0958000Y0619000D03*
X1064500Y0630000D03*
X0905000Y0525000D03*
X0940000Y0477500D03*
X0883000Y0440000D03*
X0810000Y0483000D03*
X0814500Y0491000D03*
X0779000Y0482000D03*
X0211000Y0093500D03*
X0198000Y0138500D03*
X0198000Y0152500D03*
X0171500Y0210000D03*
X0078000Y0216500D03*
X0035000Y0185622D03*
X0031000Y0154000D03*
X0084500Y0141500D03*
X0264500Y0038000D03*
D63*
X0237500Y0039500D03*
X0303500Y0039500D03*
X0372000Y0039500D03*
X0442500Y0039500D03*
X0515000Y0039500D03*
X0209500Y0158500D03*
X0169500Y0157500D03*
X0174000Y0125000D03*
X0132000Y0117000D03*
X0085500Y0117000D03*
X0030500Y0170000D03*
X0030500Y0176000D03*
X0070000Y0198000D03*
X0066000Y0231000D03*
X0277000Y0333500D03*
X0534500Y0306500D03*
X0592500Y0297500D03*
X0336500Y0531500D03*
X0348000Y0588000D03*
X0316000Y0612000D03*
X0304500Y0641000D03*
X0393500Y0640500D03*
X0417500Y0644000D03*
X0465000Y0602500D03*
X0456500Y0566000D03*
X0468500Y0541500D03*
X0487500Y0566000D03*
X0519000Y0566000D03*
X0547500Y0566000D03*
X0578000Y0566000D03*
X0556500Y0599000D03*
X0649000Y0628500D03*
X0670000Y0630500D03*
X0671000Y0621000D03*
X0703000Y0655500D03*
X0699000Y0682500D03*
X0664500Y0661500D03*
X0618500Y0701500D03*
X0594000Y0679000D03*
X0584000Y0724500D03*
X0509500Y0729000D03*
X0425000Y0708000D03*
X0426500Y0566000D03*
X0694500Y0586500D03*
X0787500Y0641000D03*
X0872500Y0664000D03*
X0819000Y0732500D03*
X0808500Y0732500D03*
X0797500Y0732500D03*
X0702500Y0725500D03*
X0971000Y0725500D03*
X0991000Y0726000D03*
X1006000Y0726000D03*
X1021000Y0726000D03*
X1036000Y0726000D03*
X1051000Y0726000D03*
X1044000Y0673000D03*
X1030500Y0666000D03*
X0996000Y0673000D03*
X1078000Y0666000D03*
X1054500Y0459000D03*
X1043000Y0147000D03*
X0999500Y0133500D03*
X0982000Y0114000D03*
X1013000Y0101500D03*
X1032500Y0079000D03*
X1051500Y0076000D03*
D64*
X0627000Y0480000D03*
X0613000Y0480500D03*
X0608500Y0492000D03*
X0619000Y0492000D03*
X0551500Y0569500D03*
X0524000Y0569000D03*
X0494000Y0569000D03*
X0465000Y0569000D03*
X0433500Y0568500D03*
X0404500Y0568500D03*
X0491500Y0693500D03*
X0631500Y0633000D03*
X0674500Y0650000D03*
X0695000Y0682500D03*
X0593500Y0585000D03*
X0367500Y0395500D03*
X0361500Y0395000D03*
X0355500Y0394500D03*
X0356500Y0384500D03*
X0351000Y0384500D03*
X0337000Y0380500D03*
X0338000Y0375000D03*
X0339000Y0369500D03*
X0337000Y0364000D03*
X0341000Y0355500D03*
X0352500Y0363500D03*
X0356500Y0367000D03*
X0365000Y0356000D03*
X0357000Y0353000D03*
X0334500Y0342500D03*
X0321500Y0340000D03*
X0372000Y0376500D03*
X0377000Y0380000D03*
X0381500Y0384500D03*
X0390500Y0387000D03*
X0392500Y0377000D03*
X0036000Y0172000D03*
M02*
