G75*
%MOIN*%
%OFA0B0*%
%FSLAX25Y25*%
%IPPOS*%
%LPD*%
%AMOC8*
5,1,8,0,0,1.08239X$1,22.5*
%
%ADD10R,0.04724X0.02165*%
%ADD11R,0.02600X0.08000*%
%ADD12R,0.01181X0.07874*%
%ADD13C,0.06811*%
%ADD14R,0.09252X0.07480*%
%ADD15R,0.05906X0.13386*%
%ADD16R,0.06000X0.20000*%
%ADD17R,0.14750X0.20000*%
%ADD18R,0.08661X0.01378*%
%ADD19C,0.02677*%
%ADD20R,0.03937X0.04331*%
%ADD21C,0.04016*%
%ADD22R,0.06693X0.08661*%
%ADD23R,0.09449X0.09449*%
%ADD24R,0.01575X0.06299*%
%ADD25R,0.02400X0.08700*%
%ADD26R,0.07874X0.01181*%
%ADD27R,0.06299X0.01575*%
%ADD28R,0.04331X0.01575*%
%ADD29R,0.01575X0.04331*%
%ADD30R,0.30354X0.17717*%
%ADD31R,0.06614X0.17717*%
%ADD32R,0.17717X0.30354*%
%ADD33R,0.17717X0.06614*%
%ADD34R,0.15000X0.19685*%
%ADD35C,0.04685*%
%ADD36C,0.04183*%
%ADD37R,0.00800X0.02500*%
%ADD38C,0.03514*%
%ADD39R,0.06181X0.07441*%
D10*
X0305881Y0507260D03*
X0305881Y0511000D03*
X0305881Y0514740D03*
X0316119Y0514740D03*
X0316119Y0507260D03*
D11*
X0680500Y0695900D03*
X0685500Y0695900D03*
X0690500Y0695900D03*
X0695500Y0695900D03*
X0695500Y0720100D03*
X0690500Y0720100D03*
X0685500Y0720100D03*
X0680500Y0720100D03*
X0203000Y0186600D03*
X0198000Y0186600D03*
X0193000Y0186600D03*
X0188000Y0186600D03*
X0188000Y0162400D03*
X0193000Y0162400D03*
X0198000Y0162400D03*
X0203000Y0162400D03*
D12*
X0160161Y0119520D03*
X0162720Y0119520D03*
X0165280Y0119520D03*
X0167839Y0119520D03*
X0167839Y0134480D03*
X0165280Y0134480D03*
X0162720Y0134480D03*
X0160161Y0134480D03*
X0408161Y0568520D03*
X0410720Y0568520D03*
X0413280Y0568520D03*
X0415839Y0568520D03*
X0415839Y0583480D03*
X0413280Y0583480D03*
X0410720Y0583480D03*
X0408161Y0583480D03*
X0438161Y0583480D03*
X0440720Y0583480D03*
X0443280Y0583480D03*
X0445839Y0583480D03*
X0445839Y0568520D03*
X0443280Y0568520D03*
X0440720Y0568520D03*
X0438161Y0568520D03*
X0469161Y0569020D03*
X0471720Y0569020D03*
X0474280Y0569020D03*
X0476839Y0569020D03*
X0476839Y0583980D03*
X0474280Y0583980D03*
X0471720Y0583980D03*
X0469161Y0583980D03*
X0499161Y0583980D03*
X0501720Y0583980D03*
X0504280Y0583980D03*
X0506839Y0583980D03*
X0506839Y0569020D03*
X0504280Y0569020D03*
X0501720Y0569020D03*
X0499161Y0569020D03*
X0528661Y0569020D03*
X0531220Y0569020D03*
X0533780Y0569020D03*
X0536339Y0569020D03*
X0536339Y0583980D03*
X0533780Y0583980D03*
X0531220Y0583980D03*
X0528661Y0583980D03*
X0558161Y0583480D03*
X0560720Y0583480D03*
X0563280Y0583480D03*
X0565839Y0583480D03*
X0565839Y0568520D03*
X0563280Y0568520D03*
X0560720Y0568520D03*
X0558161Y0568520D03*
X0387339Y0647020D03*
X0384780Y0647020D03*
X0382220Y0647020D03*
X0379661Y0647020D03*
X0379661Y0661980D03*
X0382220Y0661980D03*
X0384780Y0661980D03*
X0387339Y0661980D03*
X0332839Y0620480D03*
X0330280Y0620480D03*
X0327720Y0620480D03*
X0325161Y0620480D03*
X0325161Y0605520D03*
X0327720Y0605520D03*
X0330280Y0605520D03*
X0332839Y0605520D03*
X0298339Y0648520D03*
X0295780Y0648520D03*
X0293220Y0648520D03*
X0290661Y0648520D03*
X0290661Y0663480D03*
X0293220Y0663480D03*
X0295780Y0663480D03*
X0298339Y0663480D03*
X1038161Y0097480D03*
X1040720Y0097480D03*
X1043280Y0097480D03*
X1045839Y0097480D03*
X1045839Y0082520D03*
X1043280Y0082520D03*
X1040720Y0082520D03*
X1038161Y0082520D03*
D13*
X0148500Y0742000D03*
X0036500Y0742000D03*
D14*
X0027150Y0752236D03*
X0045850Y0752236D03*
X0045850Y0731764D03*
X0027150Y0731764D03*
X0139150Y0731764D03*
X0157850Y0731764D03*
X0157850Y0752236D03*
X0139150Y0752236D03*
D15*
X0137476Y0742000D03*
X0159524Y0742000D03*
X0047524Y0742000D03*
X0025476Y0742000D03*
D16*
X0036500Y0790000D03*
X0148500Y0790000D03*
D17*
X0137125Y0790000D03*
X0159875Y0790000D03*
X0047875Y0790000D03*
X0025125Y0790000D03*
D18*
X0594402Y0731250D03*
X0594402Y0728750D03*
X0594402Y0726250D03*
X0594402Y0723750D03*
X0594402Y0721250D03*
X0594402Y0718750D03*
X0594402Y0716250D03*
X0594402Y0713750D03*
X0594402Y0711250D03*
X0594402Y0708750D03*
X0619598Y0708750D03*
X0619598Y0711250D03*
X0619598Y0713750D03*
X0619598Y0716250D03*
X0619598Y0718750D03*
X0619598Y0721250D03*
X0619598Y0723750D03*
X0619598Y0726250D03*
X0619598Y0728750D03*
X0619598Y0731250D03*
D19*
X0626737Y0741024D02*
X0626737Y0741890D01*
X0626737Y0741024D02*
X0626263Y0741024D01*
X0626263Y0741890D01*
X0626737Y0741890D01*
X0626737Y0748110D02*
X0626737Y0748976D01*
X0626737Y0748110D02*
X0626263Y0748110D01*
X0626263Y0748976D01*
X0626737Y0748976D01*
X0626610Y0755763D02*
X0627476Y0755763D01*
X0626610Y0755763D02*
X0626610Y0756237D01*
X0627476Y0756237D01*
X0627476Y0755763D01*
X0620390Y0755763D02*
X0619524Y0755763D01*
X0619524Y0756237D01*
X0620390Y0756237D01*
X0620390Y0755763D01*
X0636237Y0748976D02*
X0636237Y0748110D01*
X0635763Y0748110D01*
X0635763Y0748976D01*
X0636237Y0748976D01*
X0636237Y0741890D02*
X0636237Y0741024D01*
X0635763Y0741024D01*
X0635763Y0741890D01*
X0636237Y0741890D01*
X0639237Y0721476D02*
X0639237Y0720610D01*
X0638763Y0720610D01*
X0638763Y0721476D01*
X0639237Y0721476D01*
X0639237Y0714390D02*
X0639237Y0713524D01*
X0638763Y0713524D01*
X0638763Y0714390D01*
X0639237Y0714390D01*
X0624263Y0696476D02*
X0624263Y0695610D01*
X0624263Y0696476D02*
X0624737Y0696476D01*
X0624737Y0695610D01*
X0624263Y0695610D01*
X0618763Y0695610D02*
X0618763Y0696476D01*
X0619237Y0696476D01*
X0619237Y0695610D01*
X0618763Y0695610D01*
X0618763Y0689390D02*
X0618763Y0688524D01*
X0618763Y0689390D02*
X0619237Y0689390D01*
X0619237Y0688524D01*
X0618763Y0688524D01*
X0624263Y0688524D02*
X0624263Y0689390D01*
X0624737Y0689390D01*
X0624737Y0688524D01*
X0624263Y0688524D01*
X0608976Y0679237D02*
X0608110Y0679237D01*
X0608976Y0679237D02*
X0608976Y0678763D01*
X0608110Y0678763D01*
X0608110Y0679237D01*
X0601890Y0679237D02*
X0601024Y0679237D01*
X0601890Y0679237D02*
X0601890Y0678763D01*
X0601024Y0678763D01*
X0601024Y0679237D01*
X0601390Y0697263D02*
X0600524Y0697263D01*
X0600524Y0697737D01*
X0601390Y0697737D01*
X0601390Y0697263D01*
X0607610Y0697263D02*
X0608476Y0697263D01*
X0607610Y0697263D02*
X0607610Y0697737D01*
X0608476Y0697737D01*
X0608476Y0697263D01*
X0575476Y0695737D02*
X0574610Y0695737D01*
X0575476Y0695737D02*
X0575476Y0695263D01*
X0574610Y0695263D01*
X0574610Y0695737D01*
X0568390Y0695737D02*
X0567524Y0695737D01*
X0568390Y0695737D02*
X0568390Y0695263D01*
X0567524Y0695263D01*
X0567524Y0695737D01*
X0563476Y0688737D02*
X0562610Y0688737D01*
X0563476Y0688737D02*
X0563476Y0688263D01*
X0562610Y0688263D01*
X0562610Y0688737D01*
X0556390Y0688737D02*
X0555524Y0688737D01*
X0556390Y0688737D02*
X0556390Y0688263D01*
X0555524Y0688263D01*
X0555524Y0688737D01*
X0567524Y0704763D02*
X0568390Y0704763D01*
X0567524Y0704763D02*
X0567524Y0705237D01*
X0568390Y0705237D01*
X0568390Y0704763D01*
X0574610Y0704763D02*
X0575476Y0704763D01*
X0574610Y0704763D02*
X0574610Y0705237D01*
X0575476Y0705237D01*
X0575476Y0704763D01*
X0575476Y0715263D02*
X0574610Y0715263D01*
X0574610Y0715737D01*
X0575476Y0715737D01*
X0575476Y0715263D01*
X0568390Y0715263D02*
X0567524Y0715263D01*
X0567524Y0715737D01*
X0568390Y0715737D01*
X0568390Y0715263D01*
X0583763Y0737524D02*
X0583763Y0738390D01*
X0584237Y0738390D01*
X0584237Y0737524D01*
X0583763Y0737524D01*
X0583763Y0744610D02*
X0583763Y0745476D01*
X0584237Y0745476D01*
X0584237Y0744610D01*
X0583763Y0744610D01*
X0584024Y0751737D02*
X0584890Y0751737D01*
X0584890Y0751263D01*
X0584024Y0751263D01*
X0584024Y0751737D01*
X0591110Y0751737D02*
X0591976Y0751737D01*
X0591976Y0751263D01*
X0591110Y0751263D01*
X0591110Y0751737D01*
X0597024Y0751263D02*
X0597890Y0751263D01*
X0597024Y0751263D02*
X0597024Y0751737D01*
X0597890Y0751737D01*
X0597890Y0751263D01*
X0604110Y0751263D02*
X0604976Y0751263D01*
X0604110Y0751263D02*
X0604110Y0751737D01*
X0604976Y0751737D01*
X0604976Y0751263D01*
X0592763Y0745476D02*
X0592763Y0744610D01*
X0592763Y0745476D02*
X0593237Y0745476D01*
X0593237Y0744610D01*
X0592763Y0744610D01*
X0592763Y0738390D02*
X0592763Y0737524D01*
X0592763Y0738390D02*
X0593237Y0738390D01*
X0593237Y0737524D01*
X0592763Y0737524D01*
X0665524Y0725763D02*
X0666390Y0725763D01*
X0665524Y0725763D02*
X0665524Y0726237D01*
X0666390Y0726237D01*
X0666390Y0725763D01*
X0672610Y0725763D02*
X0673476Y0725763D01*
X0672610Y0725763D02*
X0672610Y0726237D01*
X0673476Y0726237D01*
X0673476Y0725763D01*
X0672976Y0716763D02*
X0672110Y0716763D01*
X0672110Y0717237D01*
X0672976Y0717237D01*
X0672976Y0716763D01*
X0665890Y0716763D02*
X0665024Y0716763D01*
X0665024Y0717237D01*
X0665890Y0717237D01*
X0665890Y0716763D01*
X0684263Y0732024D02*
X0684263Y0732890D01*
X0684737Y0732890D01*
X0684737Y0732024D01*
X0684263Y0732024D01*
X0684263Y0739110D02*
X0684263Y0739976D01*
X0684737Y0739976D01*
X0684737Y0739110D01*
X0684263Y0739110D01*
X0692763Y0739110D02*
X0692763Y0739976D01*
X0693237Y0739976D01*
X0693237Y0739110D01*
X0692763Y0739110D01*
X0692763Y0732890D02*
X0692763Y0732024D01*
X0692763Y0732890D02*
X0693237Y0732890D01*
X0693237Y0732024D01*
X0692763Y0732024D01*
X0699524Y0739763D02*
X0700390Y0739763D01*
X0699524Y0739763D02*
X0699524Y0740237D01*
X0700390Y0740237D01*
X0700390Y0739763D01*
X0706610Y0739763D02*
X0707476Y0739763D01*
X0706610Y0739763D02*
X0706610Y0740237D01*
X0707476Y0740237D01*
X0707476Y0739763D01*
X0702263Y0720476D02*
X0702263Y0719610D01*
X0702263Y0720476D02*
X0702737Y0720476D01*
X0702737Y0719610D01*
X0702263Y0719610D01*
X0702263Y0713390D02*
X0702263Y0712524D01*
X0702263Y0713390D02*
X0702737Y0713390D01*
X0702737Y0712524D01*
X0702263Y0712524D01*
X0705524Y0695237D02*
X0706390Y0695237D01*
X0706390Y0694763D01*
X0705524Y0694763D01*
X0705524Y0695237D01*
X0712610Y0695237D02*
X0713476Y0695237D01*
X0713476Y0694763D01*
X0712610Y0694763D01*
X0712610Y0695237D01*
X0690263Y0688476D02*
X0690263Y0687610D01*
X0690263Y0688476D02*
X0690737Y0688476D01*
X0690737Y0687610D01*
X0690263Y0687610D01*
X0690263Y0681390D02*
X0690263Y0680524D01*
X0690263Y0681390D02*
X0690737Y0681390D01*
X0690737Y0680524D01*
X0690263Y0680524D01*
X0682263Y0638476D02*
X0682263Y0637610D01*
X0682263Y0638476D02*
X0682737Y0638476D01*
X0682737Y0637610D01*
X0682263Y0637610D01*
X0677737Y0637610D02*
X0677737Y0638476D01*
X0677737Y0637610D02*
X0677263Y0637610D01*
X0677263Y0638476D01*
X0677737Y0638476D01*
X0677737Y0631390D02*
X0677737Y0630524D01*
X0677263Y0630524D01*
X0677263Y0631390D01*
X0677737Y0631390D01*
X0682263Y0631390D02*
X0682263Y0630524D01*
X0682263Y0631390D02*
X0682737Y0631390D01*
X0682737Y0630524D01*
X0682263Y0630524D01*
X0679237Y0593476D02*
X0679237Y0592610D01*
X0678763Y0592610D01*
X0678763Y0593476D01*
X0679237Y0593476D01*
X0679237Y0586390D02*
X0679237Y0585524D01*
X0678763Y0585524D01*
X0678763Y0586390D01*
X0679237Y0586390D01*
X0671237Y0586390D02*
X0671237Y0585524D01*
X0670763Y0585524D01*
X0670763Y0586390D01*
X0671237Y0586390D01*
X0671237Y0592610D02*
X0671237Y0593476D01*
X0671237Y0592610D02*
X0670763Y0592610D01*
X0670763Y0593476D01*
X0671237Y0593476D01*
X0687737Y0593476D02*
X0687737Y0592610D01*
X0687263Y0592610D01*
X0687263Y0593476D01*
X0687737Y0593476D01*
X0687737Y0586390D02*
X0687737Y0585524D01*
X0687263Y0585524D01*
X0687263Y0586390D01*
X0687737Y0586390D01*
X0792763Y0641524D02*
X0792763Y0642390D01*
X0793237Y0642390D01*
X0793237Y0641524D01*
X0792763Y0641524D01*
X0792763Y0648610D02*
X0792763Y0649476D01*
X0793237Y0649476D01*
X0793237Y0648610D01*
X0792763Y0648610D01*
X0813524Y0633763D02*
X0814390Y0633763D01*
X0813524Y0633763D02*
X0813524Y0634237D01*
X0814390Y0634237D01*
X0814390Y0633763D01*
X0820610Y0633763D02*
X0821476Y0633763D01*
X0820610Y0633763D02*
X0820610Y0634237D01*
X0821476Y0634237D01*
X0821476Y0633763D01*
X0827237Y0633524D02*
X0827237Y0634390D01*
X0827237Y0633524D02*
X0826763Y0633524D01*
X0826763Y0634390D01*
X0827237Y0634390D01*
X0827237Y0640610D02*
X0827237Y0641476D01*
X0827237Y0640610D02*
X0826763Y0640610D01*
X0826763Y0641476D01*
X0827237Y0641476D01*
X0841024Y0672263D02*
X0841890Y0672263D01*
X0841024Y0672263D02*
X0841024Y0672737D01*
X0841890Y0672737D01*
X0841890Y0672263D01*
X0848110Y0672263D02*
X0848976Y0672263D01*
X0848110Y0672263D02*
X0848110Y0672737D01*
X0848976Y0672737D01*
X0848976Y0672263D01*
X0858524Y0673237D02*
X0859390Y0673237D01*
X0859390Y0672763D01*
X0858524Y0672763D01*
X0858524Y0673237D01*
X0865610Y0673237D02*
X0866476Y0673237D01*
X0866476Y0672763D01*
X0865610Y0672763D01*
X0865610Y0673237D01*
X0847476Y0707237D02*
X0846610Y0707237D01*
X0847476Y0707237D02*
X0847476Y0706763D01*
X0846610Y0706763D01*
X0846610Y0707237D01*
X0840390Y0707237D02*
X0839524Y0707237D01*
X0840390Y0707237D02*
X0840390Y0706763D01*
X0839524Y0706763D01*
X0839524Y0707237D01*
X0910263Y0723024D02*
X0910263Y0723890D01*
X0910737Y0723890D01*
X0910737Y0723024D01*
X0910263Y0723024D01*
X0910263Y0730110D02*
X0910263Y0730976D01*
X0910737Y0730976D01*
X0910737Y0730110D01*
X0910263Y0730110D01*
X0917263Y0713476D02*
X0917263Y0712610D01*
X0917263Y0713476D02*
X0917737Y0713476D01*
X0917737Y0712610D01*
X0917263Y0712610D01*
X0917263Y0706390D02*
X0917263Y0705524D01*
X0917263Y0706390D02*
X0917737Y0706390D01*
X0917737Y0705524D01*
X0917263Y0705524D01*
X0927263Y0705524D02*
X0927263Y0706390D01*
X0927737Y0706390D01*
X0927737Y0705524D01*
X0927263Y0705524D01*
X0927263Y0712610D02*
X0927263Y0713476D01*
X0927737Y0713476D01*
X0927737Y0712610D01*
X0927263Y0712610D01*
X0936263Y0713110D02*
X0936263Y0713976D01*
X0936737Y0713976D01*
X0936737Y0713110D01*
X0936263Y0713110D01*
X0936263Y0706890D02*
X0936263Y0706024D01*
X0936263Y0706890D02*
X0936737Y0706890D01*
X0936737Y0706024D01*
X0936263Y0706024D01*
X0957737Y0706390D02*
X0957737Y0705524D01*
X0957263Y0705524D01*
X0957263Y0706390D01*
X0957737Y0706390D01*
X0957737Y0712610D02*
X0957737Y0713476D01*
X0957737Y0712610D02*
X0957263Y0712610D01*
X0957263Y0713476D01*
X0957737Y0713476D01*
X0964024Y0707263D02*
X0964890Y0707263D01*
X0964024Y0707263D02*
X0964024Y0707737D01*
X0964890Y0707737D01*
X0964890Y0707263D01*
X0971110Y0707263D02*
X0971976Y0707263D01*
X0971110Y0707263D02*
X0971110Y0707737D01*
X0971976Y0707737D01*
X0971976Y0707263D01*
X1016237Y0729524D02*
X1016237Y0730390D01*
X1016237Y0729524D02*
X1015763Y0729524D01*
X1015763Y0730390D01*
X1016237Y0730390D01*
X1016237Y0736610D02*
X1016237Y0737476D01*
X1016237Y0736610D02*
X1015763Y0736610D01*
X1015763Y0737476D01*
X1016237Y0737476D01*
X1030263Y0661476D02*
X1030263Y0660610D01*
X1030263Y0661476D02*
X1030737Y0661476D01*
X1030737Y0660610D01*
X1030263Y0660610D01*
X1030263Y0654390D02*
X1030263Y0653524D01*
X1030263Y0654390D02*
X1030737Y0654390D01*
X1030737Y0653524D01*
X1030263Y0653524D01*
X1077763Y0653524D02*
X1077763Y0654390D01*
X1078237Y0654390D01*
X1078237Y0653524D01*
X1077763Y0653524D01*
X1077763Y0660610D02*
X1077763Y0661476D01*
X1078237Y0661476D01*
X1078237Y0660610D01*
X1077763Y0660610D01*
X0897737Y0524476D02*
X0897737Y0523610D01*
X0897263Y0523610D01*
X0897263Y0524476D01*
X0897737Y0524476D01*
X0897737Y0517390D02*
X0897737Y0516524D01*
X0897263Y0516524D01*
X0897263Y0517390D01*
X0897737Y0517390D01*
X1061024Y0459237D02*
X1061890Y0459237D01*
X1061890Y0458763D01*
X1061024Y0458763D01*
X1061024Y0459237D01*
X1068110Y0459237D02*
X1068976Y0459237D01*
X1068976Y0458763D01*
X1068110Y0458763D01*
X1068110Y0459237D01*
X1020737Y0159476D02*
X1020737Y0158610D01*
X1020263Y0158610D01*
X1020263Y0159476D01*
X1020737Y0159476D01*
X1020737Y0152390D02*
X1020737Y0151524D01*
X1020263Y0151524D01*
X1020263Y0152390D01*
X1020737Y0152390D01*
X1020737Y0146476D02*
X1020737Y0145610D01*
X1020263Y0145610D01*
X1020263Y0146476D01*
X1020737Y0146476D01*
X1026263Y0146476D02*
X1026263Y0145610D01*
X1026263Y0146476D02*
X1026737Y0146476D01*
X1026737Y0145610D01*
X1026263Y0145610D01*
X1026263Y0139390D02*
X1026263Y0138524D01*
X1026263Y0139390D02*
X1026737Y0139390D01*
X1026737Y0138524D01*
X1026263Y0138524D01*
X1020737Y0138524D02*
X1020737Y0139390D01*
X1020737Y0138524D02*
X1020263Y0138524D01*
X1020263Y0139390D01*
X1020737Y0139390D01*
X1018976Y0125263D02*
X1018110Y0125263D01*
X1018110Y0125737D01*
X1018976Y0125737D01*
X1018976Y0125263D01*
X1011890Y0125263D02*
X1011024Y0125263D01*
X1011024Y0125737D01*
X1011890Y0125737D01*
X1011890Y0125263D01*
X0994976Y0114263D02*
X0994110Y0114263D01*
X0994110Y0114737D01*
X0994976Y0114737D01*
X0994976Y0114263D01*
X0987890Y0114263D02*
X0987024Y0114263D01*
X0987024Y0114737D01*
X0987890Y0114737D01*
X0987890Y0114263D01*
X0975976Y0125737D02*
X0975110Y0125737D01*
X0975976Y0125737D02*
X0975976Y0125263D01*
X0975110Y0125263D01*
X0975110Y0125737D01*
X0968890Y0125737D02*
X0968024Y0125737D01*
X0968890Y0125737D02*
X0968890Y0125263D01*
X0968024Y0125263D01*
X0968024Y0125737D01*
X0935763Y0140024D02*
X0935763Y0140890D01*
X0936237Y0140890D01*
X0936237Y0140024D01*
X0935763Y0140024D01*
X0930737Y0140024D02*
X0930737Y0140890D01*
X0930737Y0140024D02*
X0930263Y0140024D01*
X0930263Y0140890D01*
X0930737Y0140890D01*
X0930737Y0147110D02*
X0930737Y0147976D01*
X0930737Y0147110D02*
X0930263Y0147110D01*
X0930263Y0147976D01*
X0930737Y0147976D01*
X0930737Y0152524D02*
X0930737Y0153390D01*
X0930737Y0152524D02*
X0930263Y0152524D01*
X0930263Y0153390D01*
X0930737Y0153390D01*
X0930737Y0159610D02*
X0930737Y0160476D01*
X0930737Y0159610D02*
X0930263Y0159610D01*
X0930263Y0160476D01*
X0930737Y0160476D01*
X0935763Y0147976D02*
X0935763Y0147110D01*
X0935763Y0147976D02*
X0936237Y0147976D01*
X0936237Y0147110D01*
X0935763Y0147110D01*
X0970737Y0152524D02*
X0970737Y0153390D01*
X0970737Y0152524D02*
X0970263Y0152524D01*
X0970263Y0153390D01*
X0970737Y0153390D01*
X0970737Y0159610D02*
X0970737Y0160476D01*
X0970737Y0159610D02*
X0970263Y0159610D01*
X0970263Y0160476D01*
X0970737Y0160476D01*
X1004263Y0105476D02*
X1004263Y0104610D01*
X1004263Y0105476D02*
X1004737Y0105476D01*
X1004737Y0104610D01*
X1004263Y0104610D01*
X1004263Y0098390D02*
X1004263Y0097524D01*
X1004263Y0098390D02*
X1004737Y0098390D01*
X1004737Y0097524D01*
X1004263Y0097524D01*
X1020763Y0097524D02*
X1020763Y0098390D01*
X1021237Y0098390D01*
X1021237Y0097524D01*
X1020763Y0097524D01*
X1020763Y0104610D02*
X1020763Y0105476D01*
X1021237Y0105476D01*
X1021237Y0104610D01*
X1020763Y0104610D01*
X1051263Y0088976D02*
X1051263Y0088110D01*
X1051263Y0088976D02*
X1051737Y0088976D01*
X1051737Y0088110D01*
X1051263Y0088110D01*
X1051263Y0081890D02*
X1051263Y0081024D01*
X1051263Y0081890D02*
X1051737Y0081890D01*
X1051737Y0081024D01*
X1051263Y0081024D01*
X0528976Y0039737D02*
X0528110Y0039737D01*
X0528976Y0039737D02*
X0528976Y0039263D01*
X0528110Y0039263D01*
X0528110Y0039737D01*
X0521890Y0039737D02*
X0521024Y0039737D01*
X0521890Y0039737D02*
X0521890Y0039263D01*
X0521024Y0039263D01*
X0521024Y0039737D01*
X0456476Y0039737D02*
X0455610Y0039737D01*
X0456476Y0039737D02*
X0456476Y0039263D01*
X0455610Y0039263D01*
X0455610Y0039737D01*
X0449390Y0039737D02*
X0448524Y0039737D01*
X0449390Y0039737D02*
X0449390Y0039263D01*
X0448524Y0039263D01*
X0448524Y0039737D01*
X0386476Y0039737D02*
X0385610Y0039737D01*
X0386476Y0039737D02*
X0386476Y0039263D01*
X0385610Y0039263D01*
X0385610Y0039737D01*
X0379390Y0039737D02*
X0378524Y0039737D01*
X0379390Y0039737D02*
X0379390Y0039263D01*
X0378524Y0039263D01*
X0378524Y0039737D01*
X0316976Y0039737D02*
X0316110Y0039737D01*
X0316976Y0039737D02*
X0316976Y0039263D01*
X0316110Y0039263D01*
X0316110Y0039737D01*
X0309890Y0039737D02*
X0309024Y0039737D01*
X0309890Y0039737D02*
X0309890Y0039263D01*
X0309024Y0039263D01*
X0309024Y0039737D01*
X0251476Y0039737D02*
X0250610Y0039737D01*
X0251476Y0039737D02*
X0251476Y0039263D01*
X0250610Y0039263D01*
X0250610Y0039737D01*
X0244390Y0039737D02*
X0243524Y0039737D01*
X0244390Y0039737D02*
X0244390Y0039263D01*
X0243524Y0039263D01*
X0243524Y0039737D01*
X0179476Y0119737D02*
X0178610Y0119737D01*
X0179476Y0119737D02*
X0179476Y0119263D01*
X0178610Y0119263D01*
X0178610Y0119737D01*
X0172390Y0119737D02*
X0171524Y0119737D01*
X0172390Y0119737D02*
X0172390Y0119263D01*
X0171524Y0119263D01*
X0171524Y0119737D01*
X0167976Y0150763D02*
X0167110Y0150763D01*
X0167110Y0151237D01*
X0167976Y0151237D01*
X0167976Y0150763D01*
X0160890Y0150763D02*
X0160024Y0150763D01*
X0160024Y0151237D01*
X0160890Y0151237D01*
X0160890Y0150763D01*
X0132476Y0123237D02*
X0131610Y0123237D01*
X0132476Y0123237D02*
X0132476Y0122763D01*
X0131610Y0122763D01*
X0131610Y0123237D01*
X0125390Y0123237D02*
X0124524Y0123237D01*
X0125390Y0123237D02*
X0125390Y0122763D01*
X0124524Y0122763D01*
X0124524Y0123237D01*
X0092976Y0122763D02*
X0092110Y0122763D01*
X0092110Y0123237D01*
X0092976Y0123237D01*
X0092976Y0122763D01*
X0085890Y0122763D02*
X0085024Y0122763D01*
X0085024Y0123237D01*
X0085890Y0123237D01*
X0085890Y0122763D01*
X0065763Y0156024D02*
X0065763Y0156890D01*
X0066237Y0156890D01*
X0066237Y0156024D01*
X0065763Y0156024D01*
X0065763Y0163110D02*
X0065763Y0163976D01*
X0066237Y0163976D01*
X0066237Y0163110D01*
X0065763Y0163110D01*
X0065390Y0172263D02*
X0064524Y0172263D01*
X0064524Y0172737D01*
X0065390Y0172737D01*
X0065390Y0172263D01*
X0071610Y0172263D02*
X0072476Y0172263D01*
X0071610Y0172263D02*
X0071610Y0172737D01*
X0072476Y0172737D01*
X0072476Y0172263D01*
X0039763Y0163976D02*
X0039763Y0163110D01*
X0039763Y0163976D02*
X0040237Y0163976D01*
X0040237Y0163110D01*
X0039763Y0163110D01*
X0039763Y0156890D02*
X0039763Y0156024D01*
X0039763Y0156890D02*
X0040237Y0156890D01*
X0040237Y0156024D01*
X0039763Y0156024D01*
X0026476Y0153763D02*
X0025610Y0153763D01*
X0025610Y0154237D01*
X0026476Y0154237D01*
X0026476Y0153763D01*
X0019390Y0153763D02*
X0018524Y0153763D01*
X0018524Y0154237D01*
X0019390Y0154237D01*
X0019390Y0153763D01*
X0028763Y0190024D02*
X0028763Y0190890D01*
X0029237Y0190890D01*
X0029237Y0190024D01*
X0028763Y0190024D01*
X0035237Y0190024D02*
X0035237Y0190890D01*
X0035237Y0190024D02*
X0034763Y0190024D01*
X0034763Y0190890D01*
X0035237Y0190890D01*
X0035237Y0197110D02*
X0035237Y0197976D01*
X0035237Y0197110D02*
X0034763Y0197110D01*
X0034763Y0197976D01*
X0035237Y0197976D01*
X0028763Y0197976D02*
X0028763Y0197110D01*
X0028763Y0197976D02*
X0029237Y0197976D01*
X0029237Y0197110D01*
X0028763Y0197110D01*
X0156024Y0191237D02*
X0156890Y0191237D01*
X0156890Y0190763D01*
X0156024Y0190763D01*
X0156024Y0191237D01*
X0163110Y0191237D02*
X0163976Y0191237D01*
X0163976Y0190763D01*
X0163110Y0190763D01*
X0163110Y0191237D01*
X0171237Y0190976D02*
X0171237Y0190110D01*
X0170763Y0190110D01*
X0170763Y0190976D01*
X0171237Y0190976D01*
X0171237Y0183890D02*
X0171237Y0183024D01*
X0170763Y0183024D01*
X0170763Y0183890D01*
X0171237Y0183890D01*
X0209263Y0184610D02*
X0209263Y0185476D01*
X0209737Y0185476D01*
X0209737Y0184610D01*
X0209263Y0184610D01*
X0209263Y0178390D02*
X0209263Y0177524D01*
X0209263Y0178390D02*
X0209737Y0178390D01*
X0209737Y0177524D01*
X0209263Y0177524D01*
X0209737Y0171476D02*
X0209737Y0170610D01*
X0209263Y0170610D01*
X0209263Y0171476D01*
X0209737Y0171476D01*
X0209737Y0164390D02*
X0209737Y0163524D01*
X0209263Y0163524D01*
X0209263Y0164390D01*
X0209737Y0164390D01*
X0283263Y0499524D02*
X0283263Y0500390D01*
X0283737Y0500390D01*
X0283737Y0499524D01*
X0283263Y0499524D01*
X0283263Y0506610D02*
X0283263Y0507476D01*
X0283737Y0507476D01*
X0283737Y0506610D01*
X0283263Y0506610D01*
X0290763Y0506610D02*
X0290763Y0507476D01*
X0291237Y0507476D01*
X0291237Y0506610D01*
X0290763Y0506610D01*
X0290763Y0500390D02*
X0290763Y0499524D01*
X0290763Y0500390D02*
X0291237Y0500390D01*
X0291237Y0499524D01*
X0290763Y0499524D01*
X0297024Y0502737D02*
X0297890Y0502737D01*
X0297890Y0502263D01*
X0297024Y0502263D01*
X0297024Y0502737D01*
X0304110Y0502737D02*
X0304976Y0502737D01*
X0304976Y0502263D01*
X0304110Y0502263D01*
X0304110Y0502737D01*
X0330763Y0519524D02*
X0330763Y0520390D01*
X0331237Y0520390D01*
X0331237Y0519524D01*
X0330763Y0519524D01*
X0330763Y0526610D02*
X0330763Y0527476D01*
X0331237Y0527476D01*
X0331237Y0526610D01*
X0330763Y0526610D01*
X0272763Y0510976D02*
X0272763Y0510110D01*
X0272763Y0510976D02*
X0273237Y0510976D01*
X0273237Y0510110D01*
X0272763Y0510110D01*
X0272763Y0503890D02*
X0272763Y0503024D01*
X0272763Y0503890D02*
X0273237Y0503890D01*
X0273237Y0503024D01*
X0272763Y0503024D01*
X0323737Y0588024D02*
X0323737Y0588890D01*
X0323737Y0588024D02*
X0323263Y0588024D01*
X0323263Y0588890D01*
X0323737Y0588890D01*
X0323737Y0595110D02*
X0323737Y0595976D01*
X0323737Y0595110D02*
X0323263Y0595110D01*
X0323263Y0595976D01*
X0323737Y0595976D01*
X0338763Y0604024D02*
X0338763Y0604890D01*
X0339237Y0604890D01*
X0339237Y0604024D01*
X0338763Y0604024D01*
X0338763Y0611110D02*
X0338763Y0611976D01*
X0339237Y0611976D01*
X0339237Y0611110D01*
X0338763Y0611110D01*
X0292737Y0606476D02*
X0292737Y0605610D01*
X0292263Y0605610D01*
X0292263Y0606476D01*
X0292737Y0606476D01*
X0292737Y0599390D02*
X0292737Y0598524D01*
X0292263Y0598524D01*
X0292263Y0599390D01*
X0292737Y0599390D01*
X0266237Y0599024D02*
X0266237Y0599890D01*
X0266237Y0599024D02*
X0265763Y0599024D01*
X0265763Y0599890D01*
X0266237Y0599890D01*
X0266237Y0606110D02*
X0266237Y0606976D01*
X0266237Y0606110D02*
X0265763Y0606110D01*
X0265763Y0606976D01*
X0266237Y0606976D01*
X0242763Y0618024D02*
X0242763Y0618890D01*
X0243237Y0618890D01*
X0243237Y0618024D01*
X0242763Y0618024D01*
X0242763Y0625110D02*
X0242763Y0625976D01*
X0243237Y0625976D01*
X0243237Y0625110D01*
X0242763Y0625110D01*
X0239763Y0661024D02*
X0239763Y0661890D01*
X0240237Y0661890D01*
X0240237Y0661024D01*
X0239763Y0661024D01*
X0239763Y0668110D02*
X0239763Y0668976D01*
X0240237Y0668976D01*
X0240237Y0668110D01*
X0239763Y0668110D01*
X0256263Y0668110D02*
X0256263Y0668976D01*
X0256737Y0668976D01*
X0256737Y0668110D01*
X0256263Y0668110D01*
X0256263Y0661890D02*
X0256263Y0661024D01*
X0256263Y0661890D02*
X0256737Y0661890D01*
X0256737Y0661024D01*
X0256263Y0661024D01*
X0304263Y0654976D02*
X0304263Y0654110D01*
X0304263Y0654976D02*
X0304737Y0654976D01*
X0304737Y0654110D01*
X0304263Y0654110D01*
X0304263Y0647890D02*
X0304263Y0647024D01*
X0304263Y0647890D02*
X0304737Y0647890D01*
X0304737Y0647024D01*
X0304263Y0647024D01*
X0343263Y0657524D02*
X0343263Y0658390D01*
X0343737Y0658390D01*
X0343737Y0657524D01*
X0343263Y0657524D01*
X0343263Y0664610D02*
X0343263Y0665476D01*
X0343737Y0665476D01*
X0343737Y0664610D01*
X0343263Y0664610D01*
X0358763Y0664610D02*
X0358763Y0665476D01*
X0359237Y0665476D01*
X0359237Y0664610D01*
X0358763Y0664610D01*
X0358763Y0658390D02*
X0358763Y0657524D01*
X0358763Y0658390D02*
X0359237Y0658390D01*
X0359237Y0657524D01*
X0358763Y0657524D01*
X0393263Y0653976D02*
X0393263Y0653110D01*
X0393263Y0653976D02*
X0393737Y0653976D01*
X0393737Y0653110D01*
X0393263Y0653110D01*
X0393263Y0646890D02*
X0393263Y0646024D01*
X0393263Y0646890D02*
X0393737Y0646890D01*
X0393737Y0646024D01*
X0393263Y0646024D01*
X0417524Y0682237D02*
X0418390Y0682237D01*
X0418390Y0681763D01*
X0417524Y0681763D01*
X0417524Y0682237D01*
X0424610Y0682237D02*
X0425476Y0682237D01*
X0425476Y0681763D01*
X0424610Y0681763D01*
X0424610Y0682237D01*
X0435237Y0700524D02*
X0435237Y0701390D01*
X0435237Y0700524D02*
X0434763Y0700524D01*
X0434763Y0701390D01*
X0435237Y0701390D01*
X0435237Y0707610D02*
X0435237Y0708476D01*
X0435237Y0707610D02*
X0434763Y0707610D01*
X0434763Y0708476D01*
X0435237Y0708476D01*
X0444024Y0714237D02*
X0444890Y0714237D01*
X0444890Y0713763D01*
X0444024Y0713763D01*
X0444024Y0714237D01*
X0451110Y0714237D02*
X0451976Y0714237D01*
X0451976Y0713763D01*
X0451110Y0713763D01*
X0451110Y0714237D01*
X0463737Y0724024D02*
X0463737Y0724890D01*
X0463737Y0724024D02*
X0463263Y0724024D01*
X0463263Y0724890D01*
X0463737Y0724890D01*
X0463737Y0731110D02*
X0463737Y0731976D01*
X0463737Y0731110D02*
X0463263Y0731110D01*
X0463263Y0731976D01*
X0463737Y0731976D01*
X0504237Y0729390D02*
X0504237Y0728524D01*
X0503763Y0728524D01*
X0503763Y0729390D01*
X0504237Y0729390D01*
X0504237Y0735610D02*
X0504237Y0736476D01*
X0504237Y0735610D02*
X0503763Y0735610D01*
X0503763Y0736476D01*
X0504237Y0736476D01*
X0425976Y0758763D02*
X0425110Y0758763D01*
X0425110Y0759237D01*
X0425976Y0759237D01*
X0425976Y0758763D01*
X0418890Y0758763D02*
X0418024Y0758763D01*
X0418024Y0759237D01*
X0418890Y0759237D01*
X0418890Y0758763D01*
X0464524Y0657263D02*
X0465390Y0657263D01*
X0464524Y0657263D02*
X0464524Y0657737D01*
X0465390Y0657737D01*
X0465390Y0657263D01*
X0471610Y0657263D02*
X0472476Y0657263D01*
X0471610Y0657263D02*
X0471610Y0657737D01*
X0472476Y0657737D01*
X0472476Y0657263D01*
X0515524Y0658237D02*
X0516390Y0658237D01*
X0516390Y0657763D01*
X0515524Y0657763D01*
X0515524Y0658237D01*
X0522610Y0658237D02*
X0523476Y0658237D01*
X0523476Y0657763D01*
X0522610Y0657763D01*
X0522610Y0658237D01*
X0563800Y0599476D02*
X0563800Y0598610D01*
X0563326Y0598610D01*
X0563326Y0599476D01*
X0563800Y0599476D01*
X0563800Y0592390D02*
X0563800Y0591524D01*
X0563326Y0591524D01*
X0563326Y0592390D01*
X0563800Y0592390D01*
X0571763Y0575476D02*
X0571763Y0574610D01*
X0571763Y0575476D02*
X0572237Y0575476D01*
X0572237Y0574610D01*
X0571763Y0574610D01*
X0571763Y0568390D02*
X0571763Y0567524D01*
X0571763Y0568390D02*
X0572237Y0568390D01*
X0572237Y0567524D01*
X0571763Y0567524D01*
X0542263Y0567524D02*
X0542263Y0568390D01*
X0542737Y0568390D01*
X0542737Y0567524D01*
X0542263Y0567524D01*
X0542263Y0574610D02*
X0542263Y0575476D01*
X0542737Y0575476D01*
X0542737Y0574610D01*
X0542263Y0574610D01*
X0512763Y0574976D02*
X0512763Y0574110D01*
X0512763Y0574976D02*
X0513237Y0574976D01*
X0513237Y0574110D01*
X0512763Y0574110D01*
X0512763Y0567890D02*
X0512763Y0567024D01*
X0512763Y0567890D02*
X0513237Y0567890D01*
X0513237Y0567024D01*
X0512763Y0567024D01*
X0481763Y0567390D02*
X0481763Y0566524D01*
X0481763Y0567390D02*
X0482237Y0567390D01*
X0482237Y0566524D01*
X0481763Y0566524D01*
X0481763Y0573610D02*
X0481763Y0574476D01*
X0482237Y0574476D01*
X0482237Y0573610D01*
X0481763Y0573610D01*
X0471263Y0594524D02*
X0471263Y0595390D01*
X0471737Y0595390D01*
X0471737Y0594524D01*
X0471263Y0594524D01*
X0471263Y0601610D02*
X0471263Y0602476D01*
X0471737Y0602476D01*
X0471737Y0601610D01*
X0471263Y0601610D01*
X0443263Y0602110D02*
X0443263Y0602976D01*
X0443737Y0602976D01*
X0443737Y0602110D01*
X0443263Y0602110D01*
X0443263Y0595890D02*
X0443263Y0595024D01*
X0443263Y0595890D02*
X0443737Y0595890D01*
X0443737Y0595024D01*
X0443263Y0595024D01*
X0451263Y0574476D02*
X0451263Y0573610D01*
X0451263Y0574476D02*
X0451737Y0574476D01*
X0451737Y0573610D01*
X0451263Y0573610D01*
X0451263Y0567390D02*
X0451263Y0566524D01*
X0451263Y0567390D02*
X0451737Y0567390D01*
X0451737Y0566524D01*
X0451263Y0566524D01*
X0421263Y0567024D02*
X0421263Y0567890D01*
X0421737Y0567890D01*
X0421737Y0567024D01*
X0421263Y0567024D01*
X0421263Y0574110D02*
X0421263Y0574976D01*
X0421737Y0574976D01*
X0421737Y0574110D01*
X0421263Y0574110D01*
X0466763Y0535476D02*
X0466763Y0534610D01*
X0466763Y0535476D02*
X0467237Y0535476D01*
X0467237Y0534610D01*
X0466763Y0534610D01*
X0466763Y0528390D02*
X0466763Y0527524D01*
X0466763Y0528390D02*
X0467237Y0528390D01*
X0467237Y0527524D01*
X0466763Y0527524D01*
X0193763Y0714524D02*
X0193763Y0715390D01*
X0194237Y0715390D01*
X0194237Y0714524D01*
X0193763Y0714524D01*
X0193763Y0721610D02*
X0193763Y0722476D01*
X0194237Y0722476D01*
X0194237Y0721610D01*
X0193763Y0721610D01*
X0202024Y0758737D02*
X0202890Y0758737D01*
X0202890Y0758263D01*
X0202024Y0758263D01*
X0202024Y0758737D01*
X0209110Y0758737D02*
X0209976Y0758737D01*
X0209976Y0758263D01*
X0209110Y0758263D01*
X0209110Y0758737D01*
X0209110Y0767237D02*
X0209976Y0767237D01*
X0209976Y0766763D01*
X0209110Y0766763D01*
X0209110Y0767237D01*
X0202890Y0767237D02*
X0202024Y0767237D01*
X0202890Y0767237D02*
X0202890Y0766763D01*
X0202024Y0766763D01*
X0202024Y0767237D01*
D20*
X0614500Y0748346D03*
X0614500Y0741654D03*
D21*
X0559760Y0720252D02*
X0559052Y0720252D01*
X0559052Y0721748D01*
X0559760Y0721748D01*
X0559760Y0720252D01*
X0547948Y0720252D02*
X0547240Y0720252D01*
X0547240Y0721748D01*
X0547948Y0721748D01*
X0547948Y0720252D01*
X0547740Y0704252D02*
X0548448Y0704252D01*
X0547740Y0704252D02*
X0547740Y0705748D01*
X0548448Y0705748D01*
X0548448Y0704252D01*
X0559552Y0704252D02*
X0560260Y0704252D01*
X0559552Y0704252D02*
X0559552Y0705748D01*
X0560260Y0705748D01*
X0560260Y0704252D01*
X0358752Y0650760D02*
X0358752Y0650052D01*
X0358752Y0650760D02*
X0360248Y0650760D01*
X0360248Y0650052D01*
X0358752Y0650052D01*
X0358752Y0638948D02*
X0358752Y0638240D01*
X0358752Y0638948D02*
X0360248Y0638948D01*
X0360248Y0638240D01*
X0358752Y0638240D01*
X0342752Y0638740D02*
X0342752Y0639448D01*
X0344248Y0639448D01*
X0344248Y0638740D01*
X0342752Y0638740D01*
X0342752Y0650552D02*
X0342752Y0651260D01*
X0344248Y0651260D01*
X0344248Y0650552D01*
X0342752Y0650552D01*
X0300252Y0611760D02*
X0300252Y0611052D01*
X0300252Y0611760D02*
X0301748Y0611760D01*
X0301748Y0611052D01*
X0300252Y0611052D01*
X0300252Y0599948D02*
X0300252Y0599240D01*
X0300252Y0599948D02*
X0301748Y0599948D01*
X0301748Y0599240D01*
X0300252Y0599240D01*
X0274252Y0599240D02*
X0274252Y0599948D01*
X0275748Y0599948D01*
X0275748Y0599240D01*
X0274252Y0599240D01*
X0274252Y0611052D02*
X0274252Y0611760D01*
X0275748Y0611760D01*
X0275748Y0611052D01*
X0274252Y0611052D01*
X0242252Y0611052D02*
X0242252Y0611760D01*
X0243748Y0611760D01*
X0243748Y0611052D01*
X0242252Y0611052D01*
X0242252Y0599948D02*
X0242252Y0599240D01*
X0242252Y0599948D02*
X0243748Y0599948D01*
X0243748Y0599240D01*
X0242252Y0599240D01*
X0238752Y0642240D02*
X0238752Y0642948D01*
X0240248Y0642948D01*
X0240248Y0642240D01*
X0238752Y0642240D01*
X0238752Y0654052D02*
X0238752Y0654760D01*
X0240248Y0654760D01*
X0240248Y0654052D01*
X0238752Y0654052D01*
X0255252Y0654052D02*
X0255252Y0654760D01*
X0256748Y0654760D01*
X0256748Y0654052D01*
X0255252Y0654052D01*
X0255252Y0642948D02*
X0255252Y0642240D01*
X0255252Y0642948D02*
X0256748Y0642948D01*
X0256748Y0642240D01*
X0255252Y0642240D01*
X0206260Y0732248D02*
X0205552Y0732248D01*
X0206260Y0732248D02*
X0206260Y0730752D01*
X0205552Y0730752D01*
X0205552Y0732248D01*
X0194448Y0732248D02*
X0193740Y0732248D01*
X0194448Y0732248D02*
X0194448Y0730752D01*
X0193740Y0730752D01*
X0193740Y0732248D01*
X0117748Y0135260D02*
X0117748Y0134552D01*
X0116252Y0134552D01*
X0116252Y0135260D01*
X0117748Y0135260D01*
X0117748Y0123448D02*
X0117748Y0122740D01*
X0116252Y0122740D01*
X0116252Y0123448D01*
X0117748Y0123448D01*
X0101248Y0123448D02*
X0101248Y0122740D01*
X0099752Y0122740D01*
X0099752Y0123448D01*
X0101248Y0123448D01*
X0101248Y0134552D02*
X0101248Y0135260D01*
X0101248Y0134552D02*
X0099752Y0134552D01*
X0099752Y0135260D01*
X0101248Y0135260D01*
X1003752Y0090760D02*
X1003752Y0090052D01*
X1003752Y0090760D02*
X1005248Y0090760D01*
X1005248Y0090052D01*
X1003752Y0090052D01*
X1003752Y0078948D02*
X1003752Y0078240D01*
X1003752Y0078948D02*
X1005248Y0078948D01*
X1005248Y0078240D01*
X1003752Y0078240D01*
X1020252Y0078240D02*
X1020252Y0078948D01*
X1021748Y0078948D01*
X1021748Y0078240D01*
X1020252Y0078240D01*
X1020252Y0090052D02*
X1020252Y0090760D01*
X1021748Y0090760D01*
X1021748Y0090052D01*
X1020252Y0090052D01*
D22*
X0321433Y0531000D03*
X0300567Y0531000D03*
D23*
X0289661Y0521000D03*
X0272339Y0521000D03*
X0983500Y0732339D03*
X0983500Y0749661D03*
D24*
X0488760Y0724220D03*
X0486201Y0724220D03*
X0483642Y0724220D03*
X0481083Y0724220D03*
X0478524Y0724220D03*
X0475965Y0724220D03*
X0473406Y0724220D03*
X0470846Y0724220D03*
X0470846Y0700992D03*
X0473406Y0700992D03*
X0475965Y0700992D03*
X0478524Y0700992D03*
X0481083Y0700992D03*
X0483642Y0700992D03*
X0486201Y0700992D03*
X0488760Y0700992D03*
X0488035Y0541508D03*
X0485476Y0541508D03*
X0482917Y0541508D03*
X0480358Y0541508D03*
X0477799Y0541508D03*
X0475240Y0541508D03*
X0490594Y0541508D03*
X0493154Y0541508D03*
X0493154Y0518280D03*
X0490594Y0518280D03*
X0488035Y0518280D03*
X0485476Y0518280D03*
X0482917Y0518280D03*
X0480358Y0518280D03*
X0477799Y0518280D03*
X0475240Y0518280D03*
D25*
X0677500Y0601700D03*
X0682500Y0601700D03*
X0687500Y0601700D03*
X0692500Y0601700D03*
X0692500Y0622300D03*
X0687500Y0622300D03*
X0682500Y0622300D03*
X0677500Y0622300D03*
D26*
X0591480Y0683161D03*
X0591480Y0685720D03*
X0591480Y0688280D03*
X0591480Y0690839D03*
X0576520Y0690839D03*
X0576520Y0688280D03*
X0576520Y0685720D03*
X0576520Y0683161D03*
X0985520Y0128339D03*
X0985520Y0125780D03*
X0985520Y0123220D03*
X0985520Y0120661D03*
X1000480Y0120661D03*
X1000480Y0123220D03*
X1000480Y0125780D03*
X1000480Y0128339D03*
D27*
X0997780Y0650846D03*
X0997780Y0653406D03*
X0997780Y0655965D03*
X0997780Y0658524D03*
X0997780Y0661083D03*
X0997780Y0663642D03*
X0997780Y0666201D03*
X0997780Y0668760D03*
X1021008Y0668760D03*
X1021008Y0666201D03*
X1021008Y0663642D03*
X1021008Y0661083D03*
X1021008Y0658524D03*
X1021008Y0655965D03*
X1021008Y0653406D03*
X1021008Y0650846D03*
X1045780Y0650846D03*
X1045780Y0653406D03*
X1045780Y0655965D03*
X1045780Y0658524D03*
X1045780Y0661083D03*
X1045780Y0663642D03*
X1045780Y0666201D03*
X1045780Y0668760D03*
X1069008Y0668760D03*
X1069008Y0666201D03*
X1069008Y0663642D03*
X1069008Y0661083D03*
X1069008Y0658524D03*
X1069008Y0655965D03*
X1069008Y0653406D03*
X1069008Y0650846D03*
D28*
X0818858Y0651839D03*
X0818858Y0649280D03*
X0818858Y0646720D03*
X0818858Y0644161D03*
X0801142Y0644161D03*
X0801142Y0646720D03*
X0801142Y0649280D03*
X0801142Y0651839D03*
X0059358Y0175839D03*
X0059358Y0173280D03*
X0059358Y0170720D03*
X0059358Y0168161D03*
X0041642Y0168161D03*
X0041642Y0170720D03*
X0041642Y0173280D03*
X0041642Y0175839D03*
D29*
X0156661Y0179358D03*
X0159220Y0179358D03*
X0161780Y0179358D03*
X0164339Y0179358D03*
X0164339Y0161642D03*
X0161780Y0161642D03*
X0159220Y0161642D03*
X0156661Y0161642D03*
D30*
X0808500Y0680744D03*
X0808500Y0716256D03*
D31*
X0787614Y0716256D03*
X0787614Y0680744D03*
D32*
X0120256Y0176000D03*
X0084744Y0176000D03*
D33*
X0084744Y0155114D03*
X0120256Y0155114D03*
D34*
X1085000Y0724465D03*
X1085000Y0752535D03*
D35*
X1004307Y0744098D02*
X1002693Y0744098D01*
X1002693Y0744926D01*
X1004307Y0744926D01*
X1004307Y0744098D01*
X1004307Y0733074D02*
X1002693Y0733074D01*
X1002693Y0733902D01*
X1004307Y0733902D01*
X1004307Y0733074D01*
D36*
X1065245Y0732881D02*
X1065245Y0732143D01*
X1065245Y0732881D02*
X1067755Y0732881D01*
X1067755Y0732143D01*
X1065245Y0732143D01*
X1065245Y0746119D02*
X1065245Y0746857D01*
X1067755Y0746857D01*
X1067755Y0746119D01*
X1065245Y0746119D01*
D37*
X0550500Y0687000D03*
X0550500Y0686000D03*
D38*
X0878198Y0084436D02*
X0878198Y0083816D01*
X0878198Y0084436D02*
X0879802Y0084436D01*
X0879802Y0083816D01*
X0878198Y0083816D01*
X0878198Y0075184D02*
X0878198Y0074564D01*
X0878198Y0075184D02*
X0879802Y0075184D01*
X0879802Y0074564D01*
X0878198Y0074564D01*
X0872936Y0061302D02*
X0872316Y0061302D01*
X0872936Y0061302D02*
X0872936Y0059698D01*
X0872316Y0059698D01*
X0872316Y0061302D01*
X0863684Y0061302D02*
X0863064Y0061302D01*
X0863684Y0061302D02*
X0863684Y0059698D01*
X0863064Y0059698D01*
X0863064Y0061302D01*
X0240436Y0061302D02*
X0239816Y0061302D01*
X0240436Y0061302D02*
X0240436Y0059698D01*
X0239816Y0059698D01*
X0239816Y0061302D01*
X0231184Y0061302D02*
X0230564Y0061302D01*
X0231184Y0061302D02*
X0231184Y0059698D01*
X0230564Y0059698D01*
X0230564Y0061302D01*
X0221802Y0074564D02*
X0221802Y0075184D01*
X0221802Y0074564D02*
X0220198Y0074564D01*
X0220198Y0075184D01*
X0221802Y0075184D01*
X0221802Y0083816D02*
X0221802Y0084436D01*
X0221802Y0083816D02*
X0220198Y0083816D01*
X0220198Y0084436D01*
X0221802Y0084436D01*
D39*
X0050500Y0172000D03*
M02*
