G75*
%MOIN*%
%OFA0B0*%
%FSLAX25Y25*%
%IPPOS*%
%LPD*%
%AMOC8*
5,1,8,0,0,1.08239X$1,22.5*
%
%ADD10R,0.07200X0.07200*%
%ADD11OC8,0.07200*%
%ADD12C,0.18200*%
%ADD13C,0.05956*%
%ADD14C,0.12420*%
%ADD15R,0.05924X0.03365*%
%ADD16R,0.03800X0.09200*%
%ADD17R,0.02381X0.09074*%
%ADD18R,0.07800X0.07800*%
%ADD19OC8,0.07800*%
%ADD20R,0.08600X0.08600*%
%ADD21OC8,0.08600*%
%ADD22C,0.14200*%
%ADD23C,0.13700*%
%ADD24C,0.08011*%
%ADD25R,0.10452X0.08680*%
%ADD26R,0.07106X0.14586*%
%ADD27R,0.07200X0.21200*%
%ADD28R,0.15950X0.21200*%
%ADD29R,0.09861X0.02578*%
%ADD30C,0.03596*%
%ADD31C,0.03458*%
%ADD32R,0.05137X0.05531*%
%ADD33C,0.05036*%
%ADD34R,0.07893X0.09861*%
%ADD35R,0.10649X0.10649*%
%ADD36R,0.02775X0.07499*%
%ADD37C,0.08600*%
%ADD38R,0.03600X0.09900*%
%ADD39R,0.07696X0.07696*%
%ADD40OC8,0.07696*%
%ADD41R,0.09074X0.02381*%
%ADD42R,0.07499X0.02775*%
%ADD43R,0.07137X0.07137*%
%ADD44OC8,0.07137*%
%ADD45C,0.07200*%
%ADD46R,0.05531X0.02775*%
%ADD47R,0.02775X0.05531*%
%ADD48R,0.31554X0.18917*%
%ADD49R,0.07814X0.18917*%
%ADD50R,0.18917X0.31554*%
%ADD51R,0.18917X0.07814*%
%ADD52R,0.07500X0.07500*%
%ADD53C,0.05531*%
%ADD54R,0.16200X0.20885*%
%ADD55C,0.05705*%
%ADD56C,0.26600*%
%ADD57C,0.04534*%
%ADD58R,0.07381X0.08641*%
%ADD59R,0.05169X0.05169*%
%ADD60R,0.05162X0.05162*%
%ADD61OC8,0.05162*%
%ADD62C,0.05162*%
%ADD63C,0.04769*%
D10*
X0499500Y0522500D03*
X0573500Y0522500D03*
X0702000Y0631500D03*
X0736000Y0718000D03*
X0837500Y0695500D03*
X0927500Y0675500D03*
X0882500Y0779500D03*
X0558500Y0641000D03*
X0483500Y0655000D03*
X0837500Y0505500D03*
X1040500Y0169500D03*
D11*
X1030500Y0169500D03*
X1030500Y0179500D03*
X1040500Y0179500D03*
X1020500Y0179500D03*
X1020500Y0169500D03*
X1010500Y0169500D03*
X1010500Y0179500D03*
X1000500Y0179500D03*
X1000500Y0169500D03*
X0990500Y0169500D03*
X0990500Y0179500D03*
X0980500Y0179500D03*
X0980500Y0169500D03*
X0970500Y0169500D03*
X0970500Y0179500D03*
X0960500Y0179500D03*
X0960500Y0169500D03*
X0950500Y0169500D03*
X0950500Y0179500D03*
X0940500Y0179500D03*
X0930500Y0179500D03*
X0930500Y0169500D03*
X0940500Y0169500D03*
X0937500Y0495500D03*
X0937500Y0505500D03*
X0927500Y0505500D03*
X0927500Y0495500D03*
X0917500Y0495500D03*
X0917500Y0505500D03*
X0907500Y0505500D03*
X0897500Y0505500D03*
X0897500Y0495500D03*
X0907500Y0495500D03*
X0887500Y0495500D03*
X0887500Y0505500D03*
X0877500Y0505500D03*
X0877500Y0495500D03*
X0867500Y0495500D03*
X0867500Y0505500D03*
X0857500Y0505500D03*
X0857500Y0495500D03*
X0847500Y0495500D03*
X0847500Y0505500D03*
X0837500Y0495500D03*
X0947500Y0495500D03*
X0947500Y0505500D03*
X0957500Y0505500D03*
X0957500Y0495500D03*
X0967500Y0495500D03*
X0967500Y0505500D03*
X0977500Y0505500D03*
X0977500Y0495500D03*
X0987500Y0495500D03*
X0987500Y0505500D03*
X0997500Y0505500D03*
X1007500Y0505500D03*
X1007500Y0495500D03*
X0997500Y0495500D03*
X1017500Y0495500D03*
X1017500Y0505500D03*
X1027500Y0505500D03*
X1027500Y0495500D03*
X1037500Y0495500D03*
X1037500Y0505500D03*
X1047500Y0505500D03*
X1047500Y0495500D03*
X1057500Y0495500D03*
X1057500Y0505500D03*
X0977500Y0675500D03*
X0967500Y0675500D03*
X0957500Y0675500D03*
X0947500Y0675500D03*
X0937500Y0675500D03*
X0937500Y0685500D03*
X0937500Y0695500D03*
X0927500Y0695500D03*
X0927500Y0685500D03*
X0917500Y0685500D03*
X0917500Y0695500D03*
X0907500Y0695500D03*
X0897500Y0695500D03*
X0897500Y0685500D03*
X0907500Y0685500D03*
X0887500Y0685500D03*
X0887500Y0695500D03*
X0877500Y0695500D03*
X0877500Y0685500D03*
X0867500Y0685500D03*
X0867500Y0695500D03*
X0857500Y0695500D03*
X0857500Y0685500D03*
X0847500Y0685500D03*
X0847500Y0695500D03*
X0837500Y0685500D03*
X0746000Y0718000D03*
X0746000Y0728000D03*
X0736000Y0728000D03*
X0618500Y0651000D03*
X0618500Y0641000D03*
X0608500Y0641000D03*
X0598500Y0641000D03*
X0598500Y0651000D03*
X0608500Y0651000D03*
X0588500Y0651000D03*
X0588500Y0641000D03*
X0578500Y0641000D03*
X0578500Y0651000D03*
X0568500Y0651000D03*
X0568500Y0641000D03*
X0558500Y0651000D03*
X0503500Y0655000D03*
X0503500Y0665000D03*
X0493500Y0665000D03*
X0493500Y0655000D03*
X0483500Y0665000D03*
X0499500Y0532500D03*
X0509500Y0532500D03*
X0509500Y0522500D03*
X0573500Y0532500D03*
X0583500Y0532500D03*
X0593500Y0532500D03*
X0593500Y0522500D03*
X0583500Y0522500D03*
X0892500Y0779500D03*
X0902500Y0779500D03*
X0912500Y0779500D03*
X0922500Y0779500D03*
X0932500Y0779500D03*
X0942500Y0779500D03*
X0952500Y0779500D03*
X0962500Y0779500D03*
X0972500Y0779500D03*
X0982500Y0779500D03*
X0992500Y0779500D03*
X1002500Y0779500D03*
X1002500Y0789500D03*
X0992500Y0789500D03*
X0982500Y0789500D03*
X0972500Y0789500D03*
X0962500Y0789500D03*
X0952500Y0789500D03*
X0942500Y0789500D03*
X0932500Y0789500D03*
X0922500Y0789500D03*
X0912500Y0789500D03*
X0902500Y0789500D03*
X0892500Y0789500D03*
X0882500Y0789500D03*
X0947500Y0695500D03*
X0947500Y0685500D03*
X0957500Y0685500D03*
X0957500Y0695500D03*
X0967500Y0695500D03*
X0967500Y0685500D03*
X0977500Y0685500D03*
X0977500Y0695500D03*
X0987500Y0695500D03*
X0987500Y0685500D03*
X0997500Y0685500D03*
X1007500Y0685500D03*
X1007500Y0695500D03*
X0997500Y0695500D03*
X1017500Y0695500D03*
X1017500Y0685500D03*
X1027500Y0685500D03*
X1027500Y0695500D03*
X1037500Y0695500D03*
X1037500Y0685500D03*
X1047500Y0685500D03*
X1047500Y0695500D03*
X1057500Y0695500D03*
X1057500Y0685500D03*
D12*
X1034000Y0746063D03*
X1015496Y0757874D03*
X1034000Y0769685D03*
D13*
X0600799Y0760957D03*
X0597650Y0765681D03*
X0594500Y0760957D03*
X0591350Y0765681D03*
X0588201Y0760957D03*
D14*
X0579933Y0764500D03*
X0579933Y0783201D03*
X0609067Y0783201D03*
X0609461Y0764500D03*
D15*
X0322119Y0514740D03*
X0322119Y0507260D03*
X0311881Y0507260D03*
X0311881Y0511000D03*
X0311881Y0514740D03*
D16*
X0680500Y0695900D03*
X0685500Y0695900D03*
X0690500Y0695900D03*
X0695500Y0695900D03*
X0695500Y0720100D03*
X0690500Y0720100D03*
X0685500Y0720100D03*
X0680500Y0720100D03*
X0203000Y0186600D03*
X0198000Y0186600D03*
X0193000Y0186600D03*
X0188000Y0186600D03*
X0188000Y0162400D03*
X0193000Y0162400D03*
X0198000Y0162400D03*
X0203000Y0162400D03*
D17*
X0167839Y0126980D03*
X0165280Y0126980D03*
X0162720Y0126980D03*
X0160161Y0126980D03*
X0160161Y0112020D03*
X0162720Y0112020D03*
X0165280Y0112020D03*
X0167839Y0112020D03*
X0369661Y0568520D03*
X0372220Y0568520D03*
X0374780Y0568520D03*
X0377339Y0568520D03*
X0377339Y0583480D03*
X0374780Y0583480D03*
X0372220Y0583480D03*
X0369661Y0583480D03*
X0399661Y0583480D03*
X0402220Y0583480D03*
X0404780Y0583480D03*
X0407339Y0583480D03*
X0407339Y0568520D03*
X0404780Y0568520D03*
X0402220Y0568520D03*
X0399661Y0568520D03*
X0430661Y0569020D03*
X0433220Y0569020D03*
X0435780Y0569020D03*
X0438339Y0569020D03*
X0438339Y0583980D03*
X0435780Y0583980D03*
X0433220Y0583980D03*
X0430661Y0583980D03*
X0460661Y0583980D03*
X0463220Y0583980D03*
X0465780Y0583980D03*
X0468339Y0583980D03*
X0468339Y0569020D03*
X0465780Y0569020D03*
X0463220Y0569020D03*
X0460661Y0569020D03*
X0490161Y0569020D03*
X0492720Y0569020D03*
X0495280Y0569020D03*
X0497839Y0569020D03*
X0497839Y0583980D03*
X0495280Y0583980D03*
X0492720Y0583980D03*
X0490161Y0583980D03*
X0519661Y0583480D03*
X0522220Y0583480D03*
X0524780Y0583480D03*
X0527339Y0583480D03*
X0527339Y0568520D03*
X0524780Y0568520D03*
X0522220Y0568520D03*
X0519661Y0568520D03*
X0387339Y0647020D03*
X0384780Y0647020D03*
X0382220Y0647020D03*
X0379661Y0647020D03*
X0379661Y0661980D03*
X0382220Y0661980D03*
X0384780Y0661980D03*
X0387339Y0661980D03*
X0332839Y0606980D03*
X0330280Y0606980D03*
X0327720Y0606980D03*
X0325161Y0606980D03*
X0325161Y0592020D03*
X0327720Y0592020D03*
X0330280Y0592020D03*
X0332839Y0592020D03*
X0298339Y0644020D03*
X0295780Y0644020D03*
X0293220Y0644020D03*
X0290661Y0644020D03*
X0290661Y0658980D03*
X0293220Y0658980D03*
X0295780Y0658980D03*
X0298339Y0658980D03*
X1028661Y0097480D03*
X1031220Y0097480D03*
X1033780Y0097480D03*
X1036339Y0097480D03*
X1036339Y0082520D03*
X1033780Y0082520D03*
X1031220Y0082520D03*
X1028661Y0082520D03*
D18*
X0194800Y0296800D03*
X0021400Y0226800D03*
D19*
X0021400Y0236800D03*
X0021400Y0246800D03*
X0021400Y0256800D03*
X0021400Y0266800D03*
X0021400Y0276800D03*
X0194800Y0276800D03*
X0194800Y0286800D03*
D20*
X0112500Y0243500D03*
X0112500Y0232700D03*
X0022500Y0133500D03*
X0434500Y0650000D03*
X0435000Y0672000D03*
X0365500Y0698000D03*
X0349000Y0751000D03*
D21*
X0359000Y0751000D03*
X0369000Y0751000D03*
X0379000Y0751000D03*
X0389000Y0751000D03*
X0365500Y0718000D03*
X0355500Y0718000D03*
X0355500Y0708000D03*
X0355500Y0698000D03*
X0365500Y0708000D03*
X0102500Y0243500D03*
X0102500Y0232700D03*
X0072500Y0133500D03*
X0062500Y0133500D03*
X0052500Y0133500D03*
X0042500Y0133500D03*
X0032500Y0133500D03*
D22*
X0044300Y0433800D03*
X0106900Y0573600D03*
D23*
X0910500Y0410500D03*
D24*
X0148500Y0742000D03*
X0036500Y0742000D03*
D25*
X0027150Y0752236D03*
X0045850Y0752236D03*
X0045850Y0731764D03*
X0027150Y0731764D03*
X0139150Y0731764D03*
X0157850Y0731764D03*
X0157850Y0752236D03*
X0139150Y0752236D03*
D26*
X0137476Y0742000D03*
X0159524Y0742000D03*
X0047524Y0742000D03*
X0025476Y0742000D03*
D27*
X0036500Y0790000D03*
X0148500Y0790000D03*
D28*
X0137125Y0790000D03*
X0159875Y0790000D03*
X0047875Y0790000D03*
X0025125Y0790000D03*
D29*
X0594402Y0731250D03*
X0594402Y0728750D03*
X0594402Y0726250D03*
X0594402Y0723750D03*
X0594402Y0721250D03*
X0594402Y0718750D03*
X0594402Y0716250D03*
X0594402Y0713750D03*
X0594402Y0711250D03*
X0594402Y0708750D03*
X0619598Y0708750D03*
X0619598Y0711250D03*
X0619598Y0713750D03*
X0619598Y0716250D03*
X0619598Y0718750D03*
X0619598Y0721250D03*
X0619598Y0723750D03*
X0619598Y0726250D03*
X0619598Y0728750D03*
X0619598Y0731250D03*
D30*
X0592033Y0737384D02*
X0592033Y0738924D01*
X0593967Y0738924D01*
X0593967Y0737384D01*
X0592033Y0737384D01*
X0592033Y0744076D02*
X0592033Y0745616D01*
X0593967Y0745616D01*
X0593967Y0744076D01*
X0592033Y0744076D01*
X0583033Y0744076D02*
X0583033Y0745616D01*
X0584967Y0745616D01*
X0584967Y0744076D01*
X0583033Y0744076D01*
X0583033Y0738924D02*
X0583033Y0737384D01*
X0583033Y0738924D02*
X0584967Y0738924D01*
X0584967Y0737384D01*
X0583033Y0737384D01*
X0575616Y0714533D02*
X0574076Y0714533D01*
X0574076Y0716467D01*
X0575616Y0716467D01*
X0575616Y0714533D01*
X0568924Y0714533D02*
X0567384Y0714533D01*
X0567384Y0716467D01*
X0568924Y0716467D01*
X0568924Y0714533D01*
X0568924Y0704033D02*
X0567384Y0704033D01*
X0567384Y0705967D01*
X0568924Y0705967D01*
X0568924Y0704033D01*
X0574076Y0704033D02*
X0575616Y0704033D01*
X0574076Y0704033D02*
X0574076Y0705967D01*
X0575616Y0705967D01*
X0575616Y0704033D01*
X0599384Y0694533D02*
X0600924Y0694533D01*
X0599384Y0694533D02*
X0599384Y0696467D01*
X0600924Y0696467D01*
X0600924Y0694533D01*
X0606076Y0694533D02*
X0607616Y0694533D01*
X0606076Y0694533D02*
X0606076Y0696467D01*
X0607616Y0696467D01*
X0607616Y0694533D01*
X0619033Y0695076D02*
X0619033Y0696616D01*
X0620967Y0696616D01*
X0620967Y0695076D01*
X0619033Y0695076D01*
X0619033Y0689924D02*
X0619033Y0688384D01*
X0619033Y0689924D02*
X0620967Y0689924D01*
X0620967Y0688384D01*
X0619033Y0688384D01*
X0626033Y0688384D02*
X0626033Y0689924D01*
X0627967Y0689924D01*
X0627967Y0688384D01*
X0626033Y0688384D01*
X0626033Y0695076D02*
X0626033Y0696616D01*
X0627967Y0696616D01*
X0627967Y0695076D01*
X0626033Y0695076D01*
X0664884Y0716033D02*
X0666424Y0716033D01*
X0664884Y0716033D02*
X0664884Y0717967D01*
X0666424Y0717967D01*
X0666424Y0716033D01*
X0671576Y0716033D02*
X0673116Y0716033D01*
X0671576Y0716033D02*
X0671576Y0717967D01*
X0673116Y0717967D01*
X0673116Y0716033D01*
X0673616Y0725033D02*
X0672076Y0725033D01*
X0672076Y0726967D01*
X0673616Y0726967D01*
X0673616Y0725033D01*
X0666924Y0725033D02*
X0665384Y0725033D01*
X0665384Y0726967D01*
X0666924Y0726967D01*
X0666924Y0725033D01*
X0683533Y0733884D02*
X0683533Y0735424D01*
X0685467Y0735424D01*
X0685467Y0733884D01*
X0683533Y0733884D01*
X0683533Y0740576D02*
X0683533Y0742116D01*
X0685467Y0742116D01*
X0685467Y0740576D01*
X0683533Y0740576D01*
X0692033Y0740576D02*
X0692033Y0742116D01*
X0693967Y0742116D01*
X0693967Y0740576D01*
X0692033Y0740576D01*
X0692033Y0735424D02*
X0692033Y0733884D01*
X0692033Y0735424D02*
X0693967Y0735424D01*
X0693967Y0733884D01*
X0692033Y0733884D01*
X0705384Y0695967D02*
X0706924Y0695967D01*
X0706924Y0694033D01*
X0705384Y0694033D01*
X0705384Y0695967D01*
X0712076Y0695967D02*
X0713616Y0695967D01*
X0713616Y0694033D01*
X0712076Y0694033D01*
X0712076Y0695967D01*
X0681533Y0641116D02*
X0681533Y0639576D01*
X0681533Y0641116D02*
X0683467Y0641116D01*
X0683467Y0639576D01*
X0681533Y0639576D01*
X0681533Y0634424D02*
X0681533Y0632884D01*
X0681533Y0634424D02*
X0683467Y0634424D01*
X0683467Y0632884D01*
X0681533Y0632884D01*
X0668116Y0608033D02*
X0666576Y0608033D01*
X0666576Y0609967D01*
X0668116Y0609967D01*
X0668116Y0608033D01*
X0661424Y0608033D02*
X0659884Y0608033D01*
X0659884Y0609967D01*
X0661424Y0609967D01*
X0661424Y0608033D01*
X0661424Y0588033D02*
X0659884Y0588033D01*
X0659884Y0589967D01*
X0661424Y0589967D01*
X0661424Y0588033D01*
X0666576Y0588033D02*
X0668116Y0588033D01*
X0666576Y0588033D02*
X0666576Y0589967D01*
X0668116Y0589967D01*
X0668116Y0588033D01*
X0697884Y0588967D02*
X0699424Y0588967D01*
X0699424Y0587033D01*
X0697884Y0587033D01*
X0697884Y0588967D01*
X0704576Y0588967D02*
X0706116Y0588967D01*
X0706116Y0587033D01*
X0704576Y0587033D01*
X0704576Y0588967D01*
X0813384Y0621533D02*
X0814924Y0621533D01*
X0813384Y0621533D02*
X0813384Y0623467D01*
X0814924Y0623467D01*
X0814924Y0621533D01*
X0820076Y0621533D02*
X0821616Y0621533D01*
X0820076Y0621533D02*
X0820076Y0623467D01*
X0821616Y0623467D01*
X0821616Y0621533D01*
X0918033Y0713384D02*
X0918033Y0714924D01*
X0919967Y0714924D01*
X0919967Y0713384D01*
X0918033Y0713384D01*
X0918033Y0720076D02*
X0918033Y0721616D01*
X0919967Y0721616D01*
X0919967Y0720076D01*
X0918033Y0720076D01*
X0909533Y0722884D02*
X0909533Y0724424D01*
X0911467Y0724424D01*
X0911467Y0722884D01*
X0909533Y0722884D01*
X0909533Y0729576D02*
X0909533Y0731116D01*
X0911467Y0731116D01*
X0911467Y0729576D01*
X0909533Y0729576D01*
X0928033Y0721616D02*
X0928033Y0720076D01*
X0928033Y0721616D02*
X0929967Y0721616D01*
X0929967Y0720076D01*
X0928033Y0720076D01*
X0928033Y0714924D02*
X0928033Y0713384D01*
X0928033Y0714924D02*
X0929967Y0714924D01*
X0929967Y0713384D01*
X0928033Y0713384D01*
X0938033Y0713384D02*
X0938033Y0714924D01*
X0939967Y0714924D01*
X0939967Y0713384D01*
X0938033Y0713384D01*
X0938033Y0720076D02*
X0938033Y0721616D01*
X0939967Y0721616D01*
X0939967Y0720076D01*
X0938033Y0720076D01*
X1060884Y0459967D02*
X1062424Y0459967D01*
X1062424Y0458033D01*
X1060884Y0458033D01*
X1060884Y0459967D01*
X1067576Y0459967D02*
X1069116Y0459967D01*
X1069116Y0458033D01*
X1067576Y0458033D01*
X1067576Y0459967D01*
X1025467Y0153616D02*
X1025467Y0152076D01*
X1023533Y0152076D01*
X1023533Y0153616D01*
X1025467Y0153616D01*
X1025467Y0146924D02*
X1025467Y0145384D01*
X1023533Y0145384D01*
X1023533Y0146924D01*
X1025467Y0146924D01*
X1021467Y0137116D02*
X1021467Y0135576D01*
X1019533Y0135576D01*
X1019533Y0137116D01*
X1021467Y0137116D01*
X1021467Y0130424D02*
X1021467Y0128884D01*
X1019533Y0128884D01*
X1019533Y0130424D01*
X1021467Y0130424D01*
X0999467Y0143384D02*
X0999467Y0144924D01*
X0999467Y0143384D02*
X0997533Y0143384D01*
X0997533Y0144924D01*
X0999467Y0144924D01*
X0999467Y0150076D02*
X0999467Y0151616D01*
X0999467Y0150076D02*
X0997533Y0150076D01*
X0997533Y0151616D01*
X0999467Y0151616D01*
X0976116Y0126467D02*
X0974576Y0126467D01*
X0976116Y0126467D02*
X0976116Y0124533D01*
X0974576Y0124533D01*
X0974576Y0126467D01*
X0969424Y0126467D02*
X0967884Y0126467D01*
X0969424Y0126467D02*
X0969424Y0124533D01*
X0967884Y0124533D01*
X0967884Y0126467D01*
X0955967Y0129384D02*
X0955967Y0130924D01*
X0955967Y0129384D02*
X0954033Y0129384D01*
X0954033Y0130924D01*
X0955967Y0130924D01*
X0955967Y0136076D02*
X0955967Y0137616D01*
X0955967Y0136076D02*
X0954033Y0136076D01*
X0954033Y0137616D01*
X0955967Y0137616D01*
X0927967Y0138884D02*
X0927967Y0140424D01*
X0927967Y0138884D02*
X0926033Y0138884D01*
X0926033Y0140424D01*
X0927967Y0140424D01*
X0927967Y0145576D02*
X0927967Y0147116D01*
X0927967Y0145576D02*
X0926033Y0145576D01*
X0926033Y0147116D01*
X0927967Y0147116D01*
X0927967Y0128616D02*
X0927967Y0127076D01*
X0926033Y0127076D01*
X0926033Y0128616D01*
X0927967Y0128616D01*
X0927967Y0121924D02*
X0927967Y0120384D01*
X0926033Y0120384D01*
X0926033Y0121924D01*
X0927967Y0121924D01*
X0994033Y0099116D02*
X0994033Y0097576D01*
X0994033Y0099116D02*
X0995967Y0099116D01*
X0995967Y0097576D01*
X0994033Y0097576D01*
X0994033Y0092424D02*
X0994033Y0090884D01*
X0994033Y0092424D02*
X0995967Y0092424D01*
X0995967Y0090884D01*
X0994033Y0090884D01*
X1010533Y0090384D02*
X1010533Y0091924D01*
X1012467Y0091924D01*
X1012467Y0090384D01*
X1010533Y0090384D01*
X1010533Y0097076D02*
X1010533Y0098616D01*
X1012467Y0098616D01*
X1012467Y0097076D01*
X1010533Y0097076D01*
X0529116Y0040467D02*
X0527576Y0040467D01*
X0529116Y0040467D02*
X0529116Y0038533D01*
X0527576Y0038533D01*
X0527576Y0040467D01*
X0522424Y0040467D02*
X0520884Y0040467D01*
X0522424Y0040467D02*
X0522424Y0038533D01*
X0520884Y0038533D01*
X0520884Y0040467D01*
X0456616Y0040467D02*
X0455076Y0040467D01*
X0456616Y0040467D02*
X0456616Y0038533D01*
X0455076Y0038533D01*
X0455076Y0040467D01*
X0449924Y0040467D02*
X0448384Y0040467D01*
X0449924Y0040467D02*
X0449924Y0038533D01*
X0448384Y0038533D01*
X0448384Y0040467D01*
X0386616Y0040467D02*
X0385076Y0040467D01*
X0386616Y0040467D02*
X0386616Y0038533D01*
X0385076Y0038533D01*
X0385076Y0040467D01*
X0379924Y0040467D02*
X0378384Y0040467D01*
X0379924Y0040467D02*
X0379924Y0038533D01*
X0378384Y0038533D01*
X0378384Y0040467D01*
X0317116Y0040467D02*
X0315576Y0040467D01*
X0317116Y0040467D02*
X0317116Y0038533D01*
X0315576Y0038533D01*
X0315576Y0040467D01*
X0310424Y0040467D02*
X0308884Y0040467D01*
X0310424Y0040467D02*
X0310424Y0038533D01*
X0308884Y0038533D01*
X0308884Y0040467D01*
X0251616Y0040467D02*
X0250076Y0040467D01*
X0251616Y0040467D02*
X0251616Y0038533D01*
X0250076Y0038533D01*
X0250076Y0040467D01*
X0244924Y0040467D02*
X0243384Y0040467D01*
X0244924Y0040467D02*
X0244924Y0038533D01*
X0243384Y0038533D01*
X0243384Y0040467D01*
X0131616Y0113467D02*
X0130076Y0113467D01*
X0131616Y0113467D02*
X0131616Y0111533D01*
X0130076Y0111533D01*
X0130076Y0113467D01*
X0124924Y0113467D02*
X0123384Y0113467D01*
X0124924Y0113467D02*
X0124924Y0111533D01*
X0123384Y0111533D01*
X0123384Y0113467D01*
X0096616Y0112533D02*
X0095076Y0112533D01*
X0095076Y0114467D01*
X0096616Y0114467D01*
X0096616Y0112533D01*
X0089924Y0112533D02*
X0088384Y0112533D01*
X0088384Y0114467D01*
X0089924Y0114467D01*
X0089924Y0112533D01*
X0023116Y0153033D02*
X0021576Y0153033D01*
X0021576Y0154967D01*
X0023116Y0154967D01*
X0023116Y0153033D01*
X0016424Y0153033D02*
X0014884Y0153033D01*
X0014884Y0154967D01*
X0016424Y0154967D01*
X0016424Y0153033D01*
X0027033Y0191384D02*
X0027033Y0192924D01*
X0028967Y0192924D01*
X0028967Y0191384D01*
X0027033Y0191384D01*
X0027033Y0198076D02*
X0027033Y0199616D01*
X0028967Y0199616D01*
X0028967Y0198076D01*
X0027033Y0198076D01*
X0035967Y0198076D02*
X0035967Y0199616D01*
X0035967Y0198076D02*
X0034033Y0198076D01*
X0034033Y0199616D01*
X0035967Y0199616D01*
X0035967Y0192924D02*
X0035967Y0191384D01*
X0034033Y0191384D01*
X0034033Y0192924D01*
X0035967Y0192924D01*
X0171967Y0190116D02*
X0171967Y0188576D01*
X0170033Y0188576D01*
X0170033Y0190116D01*
X0171967Y0190116D01*
X0171967Y0183424D02*
X0171967Y0181884D01*
X0170033Y0181884D01*
X0170033Y0183424D01*
X0171967Y0183424D01*
X0288533Y0498884D02*
X0288533Y0500424D01*
X0290467Y0500424D01*
X0290467Y0498884D01*
X0288533Y0498884D01*
X0288533Y0505576D02*
X0288533Y0507116D01*
X0290467Y0507116D01*
X0290467Y0505576D01*
X0288533Y0505576D01*
X0295533Y0505576D02*
X0295533Y0507116D01*
X0297467Y0507116D01*
X0297467Y0505576D01*
X0295533Y0505576D01*
X0295533Y0500424D02*
X0295533Y0498884D01*
X0295533Y0500424D02*
X0297467Y0500424D01*
X0297467Y0498884D01*
X0295533Y0498884D01*
X0303384Y0500967D02*
X0304924Y0500967D01*
X0304924Y0499033D01*
X0303384Y0499033D01*
X0303384Y0500967D01*
X0310076Y0500967D02*
X0311616Y0500967D01*
X0311616Y0499033D01*
X0310076Y0499033D01*
X0310076Y0500967D01*
X0319467Y0571884D02*
X0319467Y0573424D01*
X0319467Y0571884D02*
X0317533Y0571884D01*
X0317533Y0573424D01*
X0319467Y0573424D01*
X0319467Y0578576D02*
X0319467Y0580116D01*
X0319467Y0578576D02*
X0317533Y0578576D01*
X0317533Y0580116D01*
X0319467Y0580116D01*
X0291467Y0585884D02*
X0291467Y0587424D01*
X0291467Y0585884D02*
X0289533Y0585884D01*
X0289533Y0587424D01*
X0291467Y0587424D01*
X0291467Y0592576D02*
X0291467Y0594116D01*
X0291467Y0592576D02*
X0289533Y0592576D01*
X0289533Y0594116D01*
X0291467Y0594116D01*
X0264467Y0593616D02*
X0264467Y0592076D01*
X0262533Y0592076D01*
X0262533Y0593616D01*
X0264467Y0593616D01*
X0264467Y0586924D02*
X0264467Y0585384D01*
X0262533Y0585384D01*
X0262533Y0586924D01*
X0264467Y0586924D01*
X0242033Y0610884D02*
X0242033Y0612424D01*
X0243967Y0612424D01*
X0243967Y0610884D01*
X0242033Y0610884D01*
X0242033Y0617576D02*
X0242033Y0619116D01*
X0243967Y0619116D01*
X0243967Y0617576D01*
X0242033Y0617576D01*
X0239033Y0653884D02*
X0239033Y0655424D01*
X0240967Y0655424D01*
X0240967Y0653884D01*
X0239033Y0653884D01*
X0239033Y0660576D02*
X0239033Y0662116D01*
X0240967Y0662116D01*
X0240967Y0660576D01*
X0239033Y0660576D01*
X0255533Y0660076D02*
X0255533Y0661616D01*
X0257467Y0661616D01*
X0257467Y0660076D01*
X0255533Y0660076D01*
X0255533Y0654924D02*
X0255533Y0653384D01*
X0255533Y0654924D02*
X0257467Y0654924D01*
X0257467Y0653384D01*
X0255533Y0653384D01*
X0195533Y0694884D02*
X0195533Y0696424D01*
X0197467Y0696424D01*
X0197467Y0694884D01*
X0195533Y0694884D01*
X0195533Y0701576D02*
X0195533Y0703116D01*
X0197467Y0703116D01*
X0197467Y0701576D01*
X0195533Y0701576D01*
X0342533Y0665616D02*
X0342533Y0664076D01*
X0342533Y0665616D02*
X0344467Y0665616D01*
X0344467Y0664076D01*
X0342533Y0664076D01*
X0342533Y0658924D02*
X0342533Y0657384D01*
X0342533Y0658924D02*
X0344467Y0658924D01*
X0344467Y0657384D01*
X0342533Y0657384D01*
X0358033Y0657384D02*
X0358033Y0658924D01*
X0359967Y0658924D01*
X0359967Y0657384D01*
X0358033Y0657384D01*
X0358033Y0664076D02*
X0358033Y0665616D01*
X0359967Y0665616D01*
X0359967Y0664076D01*
X0358033Y0664076D01*
X0417384Y0682967D02*
X0418924Y0682967D01*
X0418924Y0681033D01*
X0417384Y0681033D01*
X0417384Y0682967D01*
X0424076Y0682967D02*
X0425616Y0682967D01*
X0425616Y0681033D01*
X0424076Y0681033D01*
X0424076Y0682967D01*
X0435967Y0700384D02*
X0435967Y0701924D01*
X0435967Y0700384D02*
X0434033Y0700384D01*
X0434033Y0701924D01*
X0435967Y0701924D01*
X0435967Y0707076D02*
X0435967Y0708616D01*
X0435967Y0707076D02*
X0434033Y0707076D01*
X0434033Y0708616D01*
X0435967Y0708616D01*
X0443033Y0712384D02*
X0443033Y0713924D01*
X0444967Y0713924D01*
X0444967Y0712384D01*
X0443033Y0712384D01*
X0443033Y0719076D02*
X0443033Y0720616D01*
X0444967Y0720616D01*
X0444967Y0719076D01*
X0443033Y0719076D01*
X0459967Y0723384D02*
X0459967Y0724924D01*
X0459967Y0723384D02*
X0458033Y0723384D01*
X0458033Y0724924D01*
X0459967Y0724924D01*
X0459967Y0730076D02*
X0459967Y0731616D01*
X0459967Y0730076D02*
X0458033Y0730076D01*
X0458033Y0731616D01*
X0459967Y0731616D01*
X0433616Y0760033D02*
X0432076Y0760033D01*
X0432076Y0761967D01*
X0433616Y0761967D01*
X0433616Y0760033D01*
X0426924Y0760033D02*
X0425384Y0760033D01*
X0425384Y0761967D01*
X0426924Y0761967D01*
X0426924Y0760033D01*
X0501884Y0690967D02*
X0503424Y0690967D01*
X0503424Y0689033D01*
X0501884Y0689033D01*
X0501884Y0690967D01*
X0508576Y0690967D02*
X0510116Y0690967D01*
X0510116Y0689033D01*
X0508576Y0689033D01*
X0508576Y0690967D01*
X0512384Y0675467D02*
X0513924Y0675467D01*
X0513924Y0673533D01*
X0512384Y0673533D01*
X0512384Y0675467D01*
X0519076Y0675467D02*
X0520616Y0675467D01*
X0520616Y0673533D01*
X0519076Y0673533D01*
X0519076Y0675467D01*
X0466616Y0656533D02*
X0465076Y0656533D01*
X0465076Y0658467D01*
X0466616Y0658467D01*
X0466616Y0656533D01*
X0459924Y0656533D02*
X0458384Y0656533D01*
X0458384Y0658467D01*
X0459924Y0658467D01*
X0459924Y0656533D01*
X0432033Y0607616D02*
X0432033Y0606076D01*
X0432033Y0607616D02*
X0433967Y0607616D01*
X0433967Y0606076D01*
X0432033Y0606076D01*
X0432033Y0600924D02*
X0432033Y0599384D01*
X0432033Y0600924D02*
X0433967Y0600924D01*
X0433967Y0599384D01*
X0432033Y0599384D01*
X0406533Y0597424D02*
X0406533Y0595884D01*
X0406533Y0597424D02*
X0408467Y0597424D01*
X0408467Y0595884D01*
X0406533Y0595884D01*
X0406533Y0602576D02*
X0406533Y0604116D01*
X0408467Y0604116D01*
X0408467Y0602576D01*
X0406533Y0602576D01*
X0526030Y0603076D02*
X0526030Y0604616D01*
X0526030Y0603076D02*
X0524096Y0603076D01*
X0524096Y0604616D01*
X0526030Y0604616D01*
X0526030Y0597924D02*
X0526030Y0596384D01*
X0524096Y0596384D01*
X0524096Y0597924D01*
X0526030Y0597924D01*
D31*
X0534062Y0574186D02*
X0534062Y0572704D01*
X0534062Y0574186D02*
X0535938Y0574186D01*
X0535938Y0572704D01*
X0534062Y0572704D01*
X0534062Y0567296D02*
X0534062Y0565814D01*
X0534062Y0567296D02*
X0535938Y0567296D01*
X0535938Y0565814D01*
X0534062Y0565814D01*
X0504562Y0566814D02*
X0504562Y0568296D01*
X0506438Y0568296D01*
X0506438Y0566814D01*
X0504562Y0566814D01*
X0504562Y0573704D02*
X0504562Y0575186D01*
X0506438Y0575186D01*
X0506438Y0573704D01*
X0504562Y0573704D01*
X0474562Y0573704D02*
X0474562Y0575186D01*
X0476438Y0575186D01*
X0476438Y0573704D01*
X0474562Y0573704D01*
X0474562Y0568296D02*
X0474562Y0566814D01*
X0474562Y0568296D02*
X0476438Y0568296D01*
X0476438Y0566814D01*
X0474562Y0566814D01*
X0445062Y0566314D02*
X0445062Y0567796D01*
X0446938Y0567796D01*
X0446938Y0566314D01*
X0445062Y0566314D01*
X0445062Y0573204D02*
X0445062Y0574686D01*
X0446938Y0574686D01*
X0446938Y0573204D01*
X0445062Y0573204D01*
X0414062Y0573686D02*
X0414062Y0572204D01*
X0414062Y0573686D02*
X0415938Y0573686D01*
X0415938Y0572204D01*
X0414062Y0572204D01*
X0414062Y0566796D02*
X0414062Y0565314D01*
X0414062Y0566796D02*
X0415938Y0566796D01*
X0415938Y0565314D01*
X0414062Y0565314D01*
X0384562Y0564814D02*
X0384562Y0566296D01*
X0386438Y0566296D01*
X0386438Y0564814D01*
X0384562Y0564814D01*
X0384562Y0571704D02*
X0384562Y0573186D01*
X0386438Y0573186D01*
X0386438Y0571704D01*
X0384562Y0571704D01*
X0341562Y0589314D02*
X0341562Y0590796D01*
X0343438Y0590796D01*
X0343438Y0589314D01*
X0341562Y0589314D01*
X0341562Y0596204D02*
X0341562Y0597686D01*
X0343438Y0597686D01*
X0343438Y0596204D01*
X0341562Y0596204D01*
X0306062Y0642314D02*
X0306062Y0643796D01*
X0307938Y0643796D01*
X0307938Y0642314D01*
X0306062Y0642314D01*
X0306062Y0649204D02*
X0306062Y0650686D01*
X0307938Y0650686D01*
X0307938Y0649204D01*
X0306062Y0649204D01*
X0395062Y0651204D02*
X0395062Y0652686D01*
X0396938Y0652686D01*
X0396938Y0651204D01*
X0395062Y0651204D01*
X0395062Y0645796D02*
X0395062Y0644314D01*
X0395062Y0645796D02*
X0396938Y0645796D01*
X0396938Y0644314D01*
X0395062Y0644314D01*
X0501314Y0696062D02*
X0502796Y0696062D01*
X0501314Y0696062D02*
X0501314Y0697938D01*
X0502796Y0697938D01*
X0502796Y0696062D01*
X0508204Y0696062D02*
X0509686Y0696062D01*
X0508204Y0696062D02*
X0508204Y0697938D01*
X0509686Y0697938D01*
X0509686Y0696062D01*
X0507938Y0728814D02*
X0507938Y0730296D01*
X0507938Y0728814D02*
X0506062Y0728814D01*
X0506062Y0730296D01*
X0507938Y0730296D01*
X0507938Y0735704D02*
X0507938Y0737186D01*
X0507938Y0735704D02*
X0506062Y0735704D01*
X0506062Y0737186D01*
X0507938Y0737186D01*
X0579314Y0752938D02*
X0580796Y0752938D01*
X0580796Y0751062D01*
X0579314Y0751062D01*
X0579314Y0752938D01*
X0586204Y0752938D02*
X0587686Y0752938D01*
X0587686Y0751062D01*
X0586204Y0751062D01*
X0586204Y0752938D01*
X0596814Y0750562D02*
X0598296Y0750562D01*
X0596814Y0750562D02*
X0596814Y0752438D01*
X0598296Y0752438D01*
X0598296Y0750562D01*
X0603704Y0750562D02*
X0605186Y0750562D01*
X0603704Y0750562D02*
X0603704Y0752438D01*
X0605186Y0752438D01*
X0605186Y0750562D01*
X0620814Y0755062D02*
X0622296Y0755062D01*
X0620814Y0755062D02*
X0620814Y0756938D01*
X0622296Y0756938D01*
X0622296Y0755062D01*
X0627704Y0755062D02*
X0629186Y0755062D01*
X0627704Y0755062D02*
X0627704Y0756938D01*
X0629186Y0756938D01*
X0629186Y0755062D01*
X0634438Y0751686D02*
X0634438Y0750204D01*
X0632562Y0750204D01*
X0632562Y0751686D01*
X0634438Y0751686D01*
X0640938Y0751686D02*
X0640938Y0750204D01*
X0639062Y0750204D01*
X0639062Y0751686D01*
X0640938Y0751686D01*
X0640938Y0744796D02*
X0640938Y0743314D01*
X0639062Y0743314D01*
X0639062Y0744796D01*
X0640938Y0744796D01*
X0634438Y0744796D02*
X0634438Y0743314D01*
X0632562Y0743314D01*
X0632562Y0744796D01*
X0634438Y0744796D01*
X0645438Y0722186D02*
X0645438Y0720704D01*
X0643562Y0720704D01*
X0643562Y0722186D01*
X0645438Y0722186D01*
X0645438Y0715296D02*
X0645438Y0713814D01*
X0643562Y0713814D01*
X0643562Y0715296D01*
X0645438Y0715296D01*
X0689562Y0682186D02*
X0689562Y0680704D01*
X0689562Y0682186D02*
X0691438Y0682186D01*
X0691438Y0680704D01*
X0689562Y0680704D01*
X0689562Y0675296D02*
X0689562Y0673814D01*
X0689562Y0675296D02*
X0691438Y0675296D01*
X0691438Y0673814D01*
X0689562Y0673814D01*
X0673938Y0641686D02*
X0673938Y0640204D01*
X0672062Y0640204D01*
X0672062Y0641686D01*
X0673938Y0641686D01*
X0673938Y0634796D02*
X0673938Y0633314D01*
X0672062Y0633314D01*
X0672062Y0634796D01*
X0673938Y0634796D01*
X0704062Y0713314D02*
X0704062Y0714796D01*
X0705938Y0714796D01*
X0705938Y0713314D01*
X0704062Y0713314D01*
X0704062Y0720204D02*
X0704062Y0721686D01*
X0705938Y0721686D01*
X0705938Y0720204D01*
X0704062Y0720204D01*
X0706204Y0744562D02*
X0707686Y0744562D01*
X0706204Y0744562D02*
X0706204Y0746438D01*
X0707686Y0746438D01*
X0707686Y0744562D01*
X0700796Y0744562D02*
X0699314Y0744562D01*
X0699314Y0746438D01*
X0700796Y0746438D01*
X0700796Y0744562D01*
X0838814Y0709438D02*
X0840296Y0709438D01*
X0840296Y0707562D01*
X0838814Y0707562D01*
X0838814Y0709438D01*
X0845704Y0709438D02*
X0847186Y0709438D01*
X0847186Y0707562D01*
X0845704Y0707562D01*
X0845704Y0709438D01*
X0844186Y0671062D02*
X0842704Y0671062D01*
X0842704Y0672938D01*
X0844186Y0672938D01*
X0844186Y0671062D01*
X0837296Y0671062D02*
X0835814Y0671062D01*
X0835814Y0672938D01*
X0837296Y0672938D01*
X0837296Y0671062D01*
X0854814Y0672938D02*
X0856296Y0672938D01*
X0856296Y0671062D01*
X0854814Y0671062D01*
X0854814Y0672938D01*
X0861704Y0672938D02*
X0863186Y0672938D01*
X0863186Y0671062D01*
X0861704Y0671062D01*
X0861704Y0672938D01*
X0829438Y0634686D02*
X0829438Y0633204D01*
X0827562Y0633204D01*
X0827562Y0634686D01*
X0829438Y0634686D01*
X0829438Y0627796D02*
X0829438Y0626314D01*
X0827562Y0626314D01*
X0827562Y0627796D01*
X0829438Y0627796D01*
X0790062Y0628314D02*
X0790062Y0629796D01*
X0791938Y0629796D01*
X0791938Y0628314D01*
X0790062Y0628314D01*
X0790062Y0635204D02*
X0790062Y0636686D01*
X0791938Y0636686D01*
X0791938Y0635204D01*
X0790062Y0635204D01*
X1004438Y0638814D02*
X1004438Y0640296D01*
X1004438Y0638814D02*
X1002562Y0638814D01*
X1002562Y0640296D01*
X1004438Y0640296D01*
X1004438Y0645704D02*
X1004438Y0647186D01*
X1004438Y0645704D02*
X1002562Y0645704D01*
X1002562Y0647186D01*
X1004438Y0647186D01*
X1068438Y0648704D02*
X1068438Y0650186D01*
X1068438Y0648704D02*
X1066562Y0648704D01*
X1066562Y0650186D01*
X1068438Y0650186D01*
X1068438Y0643296D02*
X1068438Y0641814D01*
X1066562Y0641814D01*
X1066562Y0643296D01*
X1068438Y0643296D01*
X1008438Y0734814D02*
X1008438Y0736296D01*
X1008438Y0734814D02*
X1006562Y0734814D01*
X1006562Y0736296D01*
X1008438Y0736296D01*
X1008438Y0741704D02*
X1008438Y0743186D01*
X1008438Y0741704D02*
X1006562Y0741704D01*
X1006562Y0743186D01*
X1008438Y0743186D01*
X0425562Y0528686D02*
X0425562Y0527204D01*
X0425562Y0528686D02*
X0427438Y0528686D01*
X0427438Y0527204D01*
X0425562Y0527204D01*
X0425562Y0521796D02*
X0425562Y0520314D01*
X0425562Y0521796D02*
X0427438Y0521796D01*
X0427438Y0520314D01*
X0425562Y0520314D01*
X0333562Y0520186D02*
X0333562Y0518704D01*
X0333562Y0520186D02*
X0335438Y0520186D01*
X0335438Y0518704D01*
X0333562Y0518704D01*
X0333562Y0513296D02*
X0333562Y0511814D01*
X0333562Y0513296D02*
X0335438Y0513296D01*
X0335438Y0511814D01*
X0333562Y0511814D01*
X0278186Y0509562D02*
X0276704Y0509562D01*
X0276704Y0511438D01*
X0278186Y0511438D01*
X0278186Y0509562D01*
X0271296Y0509562D02*
X0269814Y0509562D01*
X0269814Y0511438D01*
X0271296Y0511438D01*
X0271296Y0509562D01*
X0199562Y0756814D02*
X0199562Y0758296D01*
X0201438Y0758296D01*
X0201438Y0756814D01*
X0199562Y0756814D01*
X0192562Y0756814D02*
X0192562Y0758296D01*
X0194438Y0758296D01*
X0194438Y0756814D01*
X0192562Y0756814D01*
X0192562Y0763704D02*
X0192562Y0765186D01*
X0194438Y0765186D01*
X0194438Y0763704D01*
X0192562Y0763704D01*
X0199562Y0763704D02*
X0199562Y0765186D01*
X0201438Y0765186D01*
X0201438Y0763704D01*
X0199562Y0763704D01*
X0164186Y0195938D02*
X0162704Y0195938D01*
X0164186Y0195938D02*
X0164186Y0194062D01*
X0162704Y0194062D01*
X0162704Y0195938D01*
X0157296Y0195938D02*
X0155814Y0195938D01*
X0157296Y0195938D02*
X0157296Y0194062D01*
X0155814Y0194062D01*
X0155814Y0195938D01*
X0212562Y0185686D02*
X0212562Y0184204D01*
X0212562Y0185686D02*
X0214438Y0185686D01*
X0214438Y0184204D01*
X0212562Y0184204D01*
X0212562Y0178796D02*
X0212562Y0177314D01*
X0212562Y0178796D02*
X0214438Y0178796D01*
X0214438Y0177314D01*
X0212562Y0177314D01*
X0214438Y0167686D02*
X0214438Y0166204D01*
X0212562Y0166204D01*
X0212562Y0167686D01*
X0214438Y0167686D01*
X0214438Y0160796D02*
X0214438Y0159314D01*
X0212562Y0159314D01*
X0212562Y0160796D01*
X0214438Y0160796D01*
X0171686Y0149562D02*
X0170204Y0149562D01*
X0170204Y0151438D01*
X0171686Y0151438D01*
X0171686Y0149562D01*
X0164796Y0149562D02*
X0163314Y0149562D01*
X0163314Y0151438D01*
X0164796Y0151438D01*
X0164796Y0149562D01*
X0177814Y0109438D02*
X0179296Y0109438D01*
X0179296Y0107562D01*
X0177814Y0107562D01*
X0177814Y0109438D01*
X0184704Y0109438D02*
X0186186Y0109438D01*
X0186186Y0107562D01*
X0184704Y0107562D01*
X0184704Y0109438D01*
X0073686Y0172062D02*
X0072204Y0172062D01*
X0072204Y0173938D01*
X0073686Y0173938D01*
X0073686Y0172062D01*
X0066796Y0172062D02*
X0065314Y0172062D01*
X0065314Y0173938D01*
X0066796Y0173938D01*
X0066796Y0172062D01*
X0065062Y0162186D02*
X0065062Y0160704D01*
X0065062Y0162186D02*
X0066938Y0162186D01*
X0066938Y0160704D01*
X0065062Y0160704D01*
X0065062Y0155296D02*
X0065062Y0153814D01*
X0065062Y0155296D02*
X0066938Y0155296D01*
X0066938Y0153814D01*
X0065062Y0153814D01*
X0037062Y0154814D02*
X0037062Y0156296D01*
X0038938Y0156296D01*
X0038938Y0154814D01*
X0037062Y0154814D01*
X0037062Y0161704D02*
X0037062Y0163186D01*
X0038938Y0163186D01*
X0038938Y0161704D01*
X0037062Y0161704D01*
X0933062Y0128186D02*
X0933062Y0126704D01*
X0933062Y0128186D02*
X0934938Y0128186D01*
X0934938Y0126704D01*
X0933062Y0126704D01*
X0933062Y0121296D02*
X0933062Y0119814D01*
X0933062Y0121296D02*
X0934938Y0121296D01*
X0934938Y0119814D01*
X0933062Y0119814D01*
X0986814Y0113562D02*
X0988296Y0113562D01*
X0986814Y0113562D02*
X0986814Y0115438D01*
X0988296Y0115438D01*
X0988296Y0113562D01*
X0993704Y0113562D02*
X0995186Y0113562D01*
X0993704Y0113562D02*
X0993704Y0115438D01*
X0995186Y0115438D01*
X0995186Y0113562D01*
X1027562Y0128814D02*
X1027562Y0130296D01*
X1029438Y0130296D01*
X1029438Y0128814D01*
X1027562Y0128814D01*
X1027562Y0135704D02*
X1027562Y0137186D01*
X1029438Y0137186D01*
X1029438Y0135704D01*
X1027562Y0135704D01*
X1043062Y0091186D02*
X1043062Y0089704D01*
X1043062Y0091186D02*
X1044938Y0091186D01*
X1044938Y0089704D01*
X1043062Y0089704D01*
X1043062Y0084296D02*
X1043062Y0082814D01*
X1043062Y0084296D02*
X1044938Y0084296D01*
X1044938Y0082814D01*
X1043062Y0082814D01*
D32*
X0616500Y0745154D03*
X0616500Y0751846D03*
D33*
X0559850Y0720162D02*
X0558962Y0720162D01*
X0558962Y0721838D01*
X0559850Y0721838D01*
X0559850Y0720162D01*
X0548038Y0720162D02*
X0547150Y0720162D01*
X0547150Y0721838D01*
X0548038Y0721838D01*
X0548038Y0720162D01*
X0547650Y0704162D02*
X0548538Y0704162D01*
X0547650Y0704162D02*
X0547650Y0705838D01*
X0548538Y0705838D01*
X0548538Y0704162D01*
X0559462Y0704162D02*
X0560350Y0704162D01*
X0559462Y0704162D02*
X0559462Y0705838D01*
X0560350Y0705838D01*
X0560350Y0704162D01*
X0358662Y0650850D02*
X0358662Y0649962D01*
X0358662Y0650850D02*
X0360338Y0650850D01*
X0360338Y0649962D01*
X0358662Y0649962D01*
X0358662Y0639038D02*
X0358662Y0638150D01*
X0358662Y0639038D02*
X0360338Y0639038D01*
X0360338Y0638150D01*
X0358662Y0638150D01*
X0342662Y0638650D02*
X0342662Y0639538D01*
X0344338Y0639538D01*
X0344338Y0638650D01*
X0342662Y0638650D01*
X0342662Y0650462D02*
X0342662Y0651350D01*
X0344338Y0651350D01*
X0344338Y0650462D01*
X0342662Y0650462D01*
X0300162Y0598350D02*
X0300162Y0597462D01*
X0300162Y0598350D02*
X0301838Y0598350D01*
X0301838Y0597462D01*
X0300162Y0597462D01*
X0300162Y0586538D02*
X0300162Y0585650D01*
X0300162Y0586538D02*
X0301838Y0586538D01*
X0301838Y0585650D01*
X0300162Y0585650D01*
X0272662Y0586150D02*
X0272662Y0587038D01*
X0274338Y0587038D01*
X0274338Y0586150D01*
X0272662Y0586150D01*
X0272662Y0597962D02*
X0272662Y0598850D01*
X0274338Y0598850D01*
X0274338Y0597962D01*
X0272662Y0597962D01*
X0242162Y0598350D02*
X0242162Y0597462D01*
X0242162Y0598350D02*
X0243838Y0598350D01*
X0243838Y0597462D01*
X0242162Y0597462D01*
X0242162Y0586538D02*
X0242162Y0585650D01*
X0242162Y0586538D02*
X0243838Y0586538D01*
X0243838Y0585650D01*
X0242162Y0585650D01*
X0239162Y0632650D02*
X0239162Y0633538D01*
X0240838Y0633538D01*
X0240838Y0632650D01*
X0239162Y0632650D01*
X0239162Y0644462D02*
X0239162Y0645350D01*
X0240838Y0645350D01*
X0240838Y0644462D01*
X0239162Y0644462D01*
X0255662Y0644462D02*
X0255662Y0645350D01*
X0257338Y0645350D01*
X0257338Y0644462D01*
X0255662Y0644462D01*
X0255662Y0633538D02*
X0255662Y0632650D01*
X0255662Y0633538D02*
X0257338Y0633538D01*
X0257338Y0632650D01*
X0255662Y0632650D01*
X0196162Y0710150D02*
X0196162Y0711038D01*
X0197838Y0711038D01*
X0197838Y0710150D01*
X0196162Y0710150D01*
X0196162Y0721962D02*
X0196162Y0722850D01*
X0197838Y0722850D01*
X0197838Y0721962D01*
X0196162Y0721962D01*
X0117838Y0135350D02*
X0117838Y0134462D01*
X0116162Y0134462D01*
X0116162Y0135350D01*
X0117838Y0135350D01*
X0117838Y0123538D02*
X0117838Y0122650D01*
X0116162Y0122650D01*
X0116162Y0123538D01*
X0117838Y0123538D01*
X0101338Y0123538D02*
X0101338Y0122650D01*
X0099662Y0122650D01*
X0099662Y0123538D01*
X0101338Y0123538D01*
X0101338Y0134462D02*
X0101338Y0135350D01*
X0101338Y0134462D02*
X0099662Y0134462D01*
X0099662Y0135350D01*
X0101338Y0135350D01*
X0994162Y0083850D02*
X0994162Y0082962D01*
X0994162Y0083850D02*
X0995838Y0083850D01*
X0995838Y0082962D01*
X0994162Y0082962D01*
X0994162Y0072038D02*
X0994162Y0071150D01*
X0994162Y0072038D02*
X0995838Y0072038D01*
X0995838Y0071150D01*
X0994162Y0071150D01*
X1010662Y0071150D02*
X1010662Y0072038D01*
X1012338Y0072038D01*
X1012338Y0071150D01*
X1010662Y0071150D01*
X1010662Y0082962D02*
X1010662Y0083850D01*
X1012338Y0083850D01*
X1012338Y0082962D01*
X1010662Y0082962D01*
D34*
X0327933Y0531000D03*
X0307067Y0531000D03*
D35*
X0292661Y0521000D03*
X0275339Y0521000D03*
X0977500Y0738839D03*
X0977500Y0756161D03*
D36*
X0488760Y0724220D03*
X0486201Y0724220D03*
X0483642Y0724220D03*
X0481083Y0724220D03*
X0478524Y0724220D03*
X0475965Y0724220D03*
X0473406Y0724220D03*
X0470846Y0724220D03*
X0470846Y0700992D03*
X0473406Y0700992D03*
X0475965Y0700992D03*
X0478524Y0700992D03*
X0481083Y0700992D03*
X0483642Y0700992D03*
X0486201Y0700992D03*
X0488760Y0700992D03*
X0454654Y0534508D03*
X0452094Y0534508D03*
X0449535Y0534508D03*
X0446976Y0534508D03*
X0444417Y0534508D03*
X0441858Y0534508D03*
X0439299Y0534508D03*
X0436740Y0534508D03*
X0436740Y0511280D03*
X0439299Y0511280D03*
X0441858Y0511280D03*
X0444417Y0511280D03*
X0446976Y0511280D03*
X0449535Y0511280D03*
X0452094Y0511280D03*
X0454654Y0511280D03*
D37*
X0444500Y0650000D03*
X0445000Y0672000D03*
D38*
X0677500Y0622300D03*
X0682500Y0622300D03*
X0687500Y0622300D03*
X0692500Y0622300D03*
X0692500Y0601700D03*
X0687500Y0601700D03*
X0682500Y0601700D03*
X0677500Y0601700D03*
D39*
X0681500Y0783000D03*
X0443500Y0781000D03*
X0349000Y0781500D03*
X0136500Y0566500D03*
X0136500Y0556500D03*
X0126500Y0556500D03*
X0126500Y0566500D03*
X0116500Y0556500D03*
X0106500Y0556500D03*
X0096500Y0556500D03*
X0086500Y0556500D03*
X0086500Y0566500D03*
X0071500Y0566500D03*
X0071500Y0556500D03*
X0061500Y0556500D03*
X0061500Y0566500D03*
X0051500Y0566500D03*
X0051500Y0556500D03*
X0041500Y0556500D03*
X0041500Y0566500D03*
X0031500Y0566500D03*
X0031500Y0556500D03*
X0031500Y0546500D03*
X0031500Y0536500D03*
X0031500Y0526500D03*
X0031500Y0516500D03*
X0041500Y0516500D03*
X0041500Y0526500D03*
X0041500Y0536500D03*
X0041500Y0546500D03*
X0051500Y0546500D03*
X0051500Y0536500D03*
X0051500Y0526500D03*
X0051500Y0516500D03*
X0061500Y0516500D03*
X0061500Y0526500D03*
X0061500Y0536500D03*
X0061500Y0546500D03*
X0071500Y0546500D03*
X0071500Y0536500D03*
X0071500Y0526500D03*
X0071500Y0516500D03*
X0086500Y0516500D03*
X0086500Y0526500D03*
X0086500Y0536500D03*
X0086500Y0546500D03*
X0096500Y0546500D03*
X0096500Y0536500D03*
X0096500Y0526500D03*
X0096500Y0516500D03*
X0106500Y0516500D03*
X0106500Y0526500D03*
X0106500Y0536500D03*
X0106500Y0546500D03*
X0116500Y0546500D03*
X0116500Y0536500D03*
X0116500Y0526500D03*
X0116500Y0516500D03*
X0126500Y0516500D03*
X0126500Y0526500D03*
X0126500Y0536500D03*
X0126500Y0546500D03*
X0136500Y0546500D03*
X0136500Y0536500D03*
X0136500Y0526500D03*
X0136500Y0516500D03*
X0136500Y0506500D03*
X0136500Y0496500D03*
X0136500Y0486500D03*
X0136500Y0476500D03*
X0126500Y0476500D03*
X0126500Y0486500D03*
X0126500Y0496500D03*
X0126500Y0506500D03*
X0116500Y0506500D03*
X0116500Y0496500D03*
X0116500Y0486500D03*
X0116500Y0476500D03*
X0106500Y0476500D03*
X0106500Y0486500D03*
X0106500Y0496500D03*
X0106500Y0506500D03*
X0096500Y0506500D03*
X0096500Y0496500D03*
X0096500Y0486500D03*
X0096500Y0476500D03*
X0086500Y0476500D03*
X0086500Y0486500D03*
X0086500Y0496500D03*
X0086500Y0506500D03*
X0071500Y0506500D03*
X0071500Y0496500D03*
X0071500Y0486500D03*
X0071500Y0476500D03*
X0061500Y0476500D03*
X0061500Y0486500D03*
X0061500Y0496500D03*
X0061500Y0506500D03*
X0051500Y0506500D03*
X0051500Y0496500D03*
X0051500Y0486500D03*
X0051500Y0476500D03*
X0041500Y0476500D03*
X0041500Y0486500D03*
X0041500Y0496500D03*
X0041500Y0506500D03*
X0031500Y0506500D03*
X0031500Y0496500D03*
X0031500Y0486500D03*
X0031500Y0476500D03*
X0031500Y0466500D03*
X0031500Y0456500D03*
X0041500Y0456500D03*
X0041500Y0466500D03*
X0051500Y0466500D03*
X0051500Y0456500D03*
X0061500Y0456500D03*
X0061500Y0446500D03*
X0061500Y0436500D03*
X0071500Y0436500D03*
X0071500Y0446500D03*
X0071500Y0456500D03*
X0071500Y0466500D03*
X0061500Y0466500D03*
X0086500Y0466500D03*
X0086500Y0456500D03*
X0086500Y0446500D03*
X0086500Y0436500D03*
X0096500Y0436500D03*
X0096500Y0446500D03*
X0096500Y0456500D03*
X0096500Y0466500D03*
X0106500Y0466500D03*
X0106500Y0456500D03*
X0106500Y0446500D03*
X0106500Y0436500D03*
X0116500Y0436500D03*
X0116500Y0446500D03*
X0116500Y0456500D03*
X0116500Y0466500D03*
X0126500Y0466500D03*
X0126500Y0456500D03*
X0126500Y0446500D03*
X0126500Y0436500D03*
X0136500Y0436500D03*
X0136500Y0446500D03*
X0136500Y0456500D03*
X0136500Y0466500D03*
X0136500Y0426500D03*
X0136500Y0416500D03*
X0136500Y0406500D03*
X0136500Y0396500D03*
X0136500Y0386500D03*
X0126500Y0386500D03*
X0126500Y0396500D03*
X0126500Y0406500D03*
X0126500Y0416500D03*
X0126500Y0426500D03*
X0116500Y0426500D03*
X0116500Y0416500D03*
X0116500Y0406500D03*
X0116500Y0396500D03*
X0116500Y0386500D03*
X0106500Y0386500D03*
X0106500Y0396500D03*
X0106500Y0406500D03*
X0106500Y0416500D03*
X0106500Y0426500D03*
X0096500Y0426500D03*
X0096500Y0416500D03*
X0096500Y0406500D03*
X0096500Y0396500D03*
X0096500Y0386500D03*
X0086500Y0386500D03*
X0086500Y0396500D03*
X0086500Y0406500D03*
X0086500Y0416500D03*
X0086500Y0426500D03*
X0071500Y0426500D03*
X0071500Y0416500D03*
X0071500Y0406500D03*
X0071500Y0396500D03*
X0071500Y0386500D03*
X0061500Y0386500D03*
X0061500Y0396500D03*
X0061500Y0406500D03*
X0061500Y0416500D03*
X0061500Y0426500D03*
X0051500Y0416500D03*
X0051500Y0406500D03*
X0051500Y0396500D03*
X0051500Y0386500D03*
X0041500Y0386500D03*
X0041500Y0396500D03*
X0041500Y0406500D03*
X0041500Y0416500D03*
X0031500Y0416500D03*
X0031500Y0406500D03*
X0031500Y0396500D03*
X0031500Y0386500D03*
X0031500Y0376500D03*
X0031500Y0366500D03*
X0031500Y0356500D03*
X0031500Y0346500D03*
X0041500Y0346500D03*
X0041500Y0356500D03*
X0041500Y0366500D03*
X0041500Y0376500D03*
X0051500Y0376500D03*
X0051500Y0366500D03*
X0051500Y0356500D03*
X0051500Y0346500D03*
X0061500Y0346500D03*
X0061500Y0356500D03*
X0061500Y0366500D03*
X0061500Y0376500D03*
X0071500Y0376500D03*
X0071500Y0366500D03*
X0071500Y0356500D03*
X0071500Y0346500D03*
X0086500Y0346500D03*
X0086500Y0356500D03*
X0086500Y0366500D03*
X0086500Y0376500D03*
X0096500Y0376500D03*
X0096500Y0366500D03*
X0096500Y0356500D03*
X0096500Y0346500D03*
X0106500Y0346500D03*
X0106500Y0356500D03*
X0106500Y0366500D03*
X0106500Y0376500D03*
X0116500Y0376500D03*
X0116500Y0366500D03*
X0116500Y0356500D03*
X0116500Y0346500D03*
X0126500Y0346500D03*
X0126500Y0356500D03*
X0126500Y0366500D03*
X0126500Y0376500D03*
X0136500Y0376500D03*
X0136500Y0366500D03*
X0136500Y0356500D03*
X0136500Y0346500D03*
X0136500Y0336500D03*
X0136500Y0326500D03*
X0136500Y0316500D03*
X0136500Y0306500D03*
X0126500Y0306500D03*
X0126500Y0316500D03*
X0126500Y0326500D03*
X0126500Y0336500D03*
X0116500Y0336500D03*
X0116500Y0326500D03*
X0116500Y0316500D03*
X0116500Y0306500D03*
X0106500Y0306500D03*
X0106500Y0316500D03*
X0106500Y0326500D03*
X0106500Y0336500D03*
X0096500Y0336500D03*
X0096500Y0326500D03*
X0096500Y0316500D03*
X0096500Y0306500D03*
X0086500Y0306500D03*
X0086500Y0316500D03*
X0086500Y0326500D03*
X0086500Y0336500D03*
X0071500Y0336500D03*
X0071500Y0326500D03*
X0071500Y0316500D03*
X0071500Y0306500D03*
X0061500Y0306500D03*
X0061500Y0316500D03*
X0061500Y0326500D03*
X0061500Y0336500D03*
X0051500Y0336500D03*
X0051500Y0326500D03*
X0051500Y0316500D03*
X0051500Y0306500D03*
X0041500Y0306500D03*
X0041500Y0316500D03*
X0041500Y0326500D03*
X0041500Y0336500D03*
X0031500Y0336500D03*
X0031500Y0326500D03*
X0031500Y0316500D03*
X0031500Y0306500D03*
D40*
X0359000Y0781500D03*
X0369000Y0781500D03*
X0379000Y0781500D03*
X0389000Y0781500D03*
X0453500Y0781000D03*
X0463500Y0781000D03*
X0473500Y0781000D03*
X0483500Y0781000D03*
X0493500Y0781000D03*
X0503500Y0781000D03*
X0691500Y0783000D03*
X0701500Y0783000D03*
D41*
X0985520Y0128339D03*
X0985520Y0125780D03*
X0985520Y0123220D03*
X0985520Y0120661D03*
X1000480Y0120661D03*
X1000480Y0123220D03*
X1000480Y0125780D03*
X1000480Y0128339D03*
D42*
X0988508Y0623346D03*
X0988508Y0625906D03*
X0988508Y0628465D03*
X0988508Y0631024D03*
X0988508Y0633583D03*
X0988508Y0636142D03*
X0988508Y0638701D03*
X0988508Y0641260D03*
X0965280Y0641260D03*
X0965280Y0638701D03*
X0965280Y0636142D03*
X0965280Y0633583D03*
X0965280Y0631024D03*
X0965280Y0628465D03*
X0965280Y0625906D03*
X0965280Y0623346D03*
X1024780Y0623346D03*
X1024780Y0625906D03*
X1024780Y0628465D03*
X1024780Y0631024D03*
X1024780Y0633583D03*
X1024780Y0636142D03*
X1024780Y0638701D03*
X1024780Y0641260D03*
X1048008Y0641260D03*
X1048008Y0638701D03*
X1048008Y0636142D03*
X1048008Y0633583D03*
X1048008Y0631024D03*
X1048008Y0628465D03*
X1048008Y0625906D03*
X1048008Y0623346D03*
D43*
X0768500Y0783500D03*
X0681500Y0756500D03*
X0443500Y0751000D03*
X0435000Y0691500D03*
X0227500Y0678500D03*
X0266500Y0488500D03*
X0656000Y0541000D03*
X0932500Y0092000D03*
X0932500Y0082000D03*
X0932500Y0072000D03*
X1061000Y0086000D03*
D44*
X1061000Y0096000D03*
X1061000Y0106000D03*
X1061000Y0116000D03*
X1061000Y0126000D03*
X1061000Y0136000D03*
X1061000Y0146000D03*
X1061000Y0156000D03*
X1061000Y0166000D03*
X0952500Y0092000D03*
X0952500Y0082000D03*
X0942500Y0082000D03*
X0942500Y0092000D03*
X0942500Y0072000D03*
X0952500Y0072000D03*
X0716000Y0541000D03*
X0706000Y0541000D03*
X0696000Y0541000D03*
X0686000Y0541000D03*
X0676000Y0541000D03*
X0666000Y0541000D03*
X0455000Y0691500D03*
X0445000Y0691500D03*
X0453500Y0751000D03*
X0463500Y0751000D03*
X0473500Y0751000D03*
X0483500Y0751000D03*
X0493500Y0751000D03*
X0503500Y0751000D03*
X0691500Y0756500D03*
X0701500Y0756500D03*
X0778500Y0783500D03*
X0788500Y0783500D03*
X0798500Y0783500D03*
X0808500Y0783500D03*
X0818500Y0783500D03*
X0828500Y0783500D03*
X0838500Y0783500D03*
X0848500Y0783500D03*
X0287500Y0678500D03*
X0277500Y0678500D03*
X0267500Y0678500D03*
X0257500Y0678500D03*
X0247500Y0678500D03*
X0237500Y0678500D03*
X0276500Y0488500D03*
X0286500Y0488500D03*
D45*
X0304307Y0698874D03*
X0304307Y0706748D03*
X0304307Y0714622D03*
X0304307Y0722496D03*
X0304307Y0730370D03*
X0304307Y0738244D03*
X0304307Y0746118D03*
X0304307Y0753992D03*
X0304307Y0761866D03*
X0304307Y0769740D03*
X0217693Y0769740D03*
X0217693Y0761866D03*
X0217693Y0753992D03*
X0217693Y0746118D03*
X0217693Y0738244D03*
X0217693Y0730370D03*
X0217693Y0722496D03*
X0217693Y0714622D03*
X0217693Y0706748D03*
X0217693Y0698874D03*
X0712000Y0631500D03*
D46*
X0801142Y0631161D03*
X0801142Y0633720D03*
X0801142Y0636280D03*
X0801142Y0638839D03*
X0818858Y0638839D03*
X0818858Y0636280D03*
X0818858Y0633720D03*
X0818858Y0631161D03*
X0059358Y0175839D03*
X0059358Y0173280D03*
X0059358Y0170720D03*
X0059358Y0168161D03*
X0041642Y0168161D03*
X0041642Y0170720D03*
X0041642Y0173280D03*
X0041642Y0175839D03*
D47*
X0156661Y0179358D03*
X0159220Y0179358D03*
X0161780Y0179358D03*
X0164339Y0179358D03*
X0164339Y0161642D03*
X0161780Y0161642D03*
X0159220Y0161642D03*
X0156661Y0161642D03*
D48*
X0808500Y0680744D03*
X0808500Y0716256D03*
D49*
X0787614Y0716256D03*
X0787614Y0680744D03*
D50*
X0130256Y0176000D03*
X0094744Y0176000D03*
D51*
X0094744Y0155114D03*
X0130256Y0155114D03*
D52*
X0221000Y0029900D03*
X0221000Y0012100D03*
X0251000Y0012100D03*
X0251000Y0029900D03*
X0286000Y0029900D03*
X0286000Y0012100D03*
X0316000Y0012100D03*
X0316000Y0029900D03*
X0356000Y0029900D03*
X0356000Y0012100D03*
X0386000Y0012100D03*
X0386000Y0029900D03*
X0426000Y0029900D03*
X0426000Y0012100D03*
X0456000Y0012100D03*
X0456000Y0029900D03*
X0498500Y0029900D03*
X0498500Y0012100D03*
X0528500Y0012100D03*
X0528500Y0029900D03*
X0806500Y0029900D03*
X0806500Y0012100D03*
X0836500Y0012100D03*
X0836500Y0029900D03*
X1043500Y0432100D03*
X1043500Y0449900D03*
X1073500Y0449900D03*
X1073500Y0432100D03*
D53*
X0701500Y0793000D03*
X0691500Y0793000D03*
X0681500Y0793000D03*
D54*
X1075000Y0752535D03*
X1075000Y0724465D03*
D55*
X0995397Y0737484D02*
X0993603Y0737484D01*
X0993603Y0738492D01*
X0995397Y0738492D01*
X0995397Y0737484D01*
X0995397Y0748508D02*
X0993603Y0748508D01*
X0993603Y0749516D01*
X0995397Y0749516D01*
X0995397Y0748508D01*
D56*
X0021000Y0021000D03*
X0571000Y0021000D03*
X1081000Y0021000D03*
X0510500Y0493000D03*
X0091000Y0781000D03*
X1081000Y0781000D03*
D57*
X0878108Y0084526D02*
X0878108Y0083726D01*
X0878108Y0084526D02*
X0879892Y0084526D01*
X0879892Y0083726D01*
X0878108Y0083726D01*
X0878108Y0075274D02*
X0878108Y0074474D01*
X0878108Y0075274D02*
X0879892Y0075274D01*
X0879892Y0074474D01*
X0878108Y0074474D01*
X0873026Y0061392D02*
X0872226Y0061392D01*
X0873026Y0061392D02*
X0873026Y0059608D01*
X0872226Y0059608D01*
X0872226Y0061392D01*
X0863774Y0061392D02*
X0862974Y0061392D01*
X0863774Y0061392D02*
X0863774Y0059608D01*
X0862974Y0059608D01*
X0862974Y0061392D01*
X0240526Y0061392D02*
X0239726Y0061392D01*
X0240526Y0061392D02*
X0240526Y0059608D01*
X0239726Y0059608D01*
X0239726Y0061392D01*
X0231274Y0061392D02*
X0230474Y0061392D01*
X0231274Y0061392D02*
X0231274Y0059608D01*
X0230474Y0059608D01*
X0230474Y0061392D01*
X0221892Y0074474D02*
X0221892Y0075274D01*
X0221892Y0074474D02*
X0220108Y0074474D01*
X0220108Y0075274D01*
X0221892Y0075274D01*
X0221892Y0083726D02*
X0221892Y0084526D01*
X0221892Y0083726D02*
X0220108Y0083726D01*
X0220108Y0084526D01*
X0221892Y0084526D01*
D58*
X0050500Y0172000D03*
D59*
X0050500Y0172000D03*
D60*
X0050500Y0162500D03*
X0050500Y0150500D03*
X0050500Y0145000D03*
X0050500Y0182000D03*
X0050500Y0190500D03*
X0050500Y0198000D03*
X0011000Y0163500D03*
X0021500Y0076500D03*
X0071500Y0021500D03*
X0146500Y0021500D03*
X0192000Y0108500D03*
X0154500Y0134000D03*
X0159500Y0145000D03*
X0184000Y0152000D03*
X0230000Y0171000D03*
X0149500Y0195000D03*
X0321500Y0318000D03*
X0334000Y0318000D03*
X0352000Y0318000D03*
X0364000Y0318000D03*
X0377500Y0318000D03*
X0314500Y0349500D03*
X0518500Y0286000D03*
X0544000Y0312000D03*
X0598000Y0293000D03*
X0464000Y0505000D03*
X0426500Y0514000D03*
X0385500Y0579500D03*
X0394000Y0590000D03*
X0375000Y0597000D03*
X0342500Y0607000D03*
X0319000Y0616000D03*
X0276500Y0614500D03*
X0281000Y0658500D03*
X0307000Y0658000D03*
X0375000Y0675000D03*
X0396000Y0659500D03*
X0421500Y0591000D03*
X0415000Y0580000D03*
X0446000Y0581000D03*
X0452000Y0590000D03*
X0477500Y0582500D03*
X0480500Y0591500D03*
X0505500Y0582000D03*
X0514000Y0590500D03*
X0535000Y0580500D03*
X0673000Y0661500D03*
X0686000Y0668000D03*
X0705000Y0707000D03*
X0665500Y0706500D03*
X0644500Y0727000D03*
X0609500Y0751500D03*
X0640000Y0757500D03*
X0584000Y0718500D03*
X0516000Y0697000D03*
X0303000Y0511000D03*
X0283500Y0510500D03*
X0334500Y0506500D03*
X0243000Y0577500D03*
X0161500Y0686500D03*
X0090500Y0698000D03*
X0016500Y0691500D03*
X0016500Y0676500D03*
X0016500Y0631500D03*
X0197000Y0746500D03*
X0781500Y0631500D03*
X0840500Y0624500D03*
X0849500Y0672000D03*
X0954500Y0631000D03*
X1003500Y0652000D03*
X1013500Y0632000D03*
X1067500Y0655000D03*
X1076500Y0371500D03*
X1076500Y0246500D03*
X1006000Y0133000D03*
X1002000Y0114500D03*
X1024000Y0107000D03*
X1024500Y0120500D03*
X1044000Y0098000D03*
X0991500Y0021500D03*
X0927000Y0111500D03*
D61*
X1003500Y0106000D03*
X1048500Y0075500D03*
X1045000Y0142000D03*
X1054500Y0459000D03*
X1042500Y0608000D03*
X1067500Y0633500D03*
X1056000Y0649000D03*
X1022000Y0649000D03*
X1003500Y0633500D03*
X0995500Y0617500D03*
X0954500Y0624000D03*
X0994000Y0650000D03*
X0989000Y0722000D03*
X0997000Y0727500D03*
X1006000Y0721500D03*
X1015000Y0728000D03*
X1022500Y0721500D03*
X1030500Y0728000D03*
X1038500Y0721000D03*
X1046000Y0727500D03*
X1053500Y0721000D03*
X1061500Y0727500D03*
X0979000Y0728500D03*
X0971000Y0725500D03*
X0819000Y0732500D03*
X0808500Y0732500D03*
X0797500Y0732500D03*
X0709500Y0756500D03*
X0702000Y0653500D03*
X0670500Y0624500D03*
X0660000Y0599000D03*
X0718000Y0614000D03*
X0782000Y0624000D03*
X0535000Y0558000D03*
X0513000Y0569000D03*
X0482500Y0572000D03*
X0452500Y0572000D03*
X0445500Y0603500D03*
X0418000Y0602000D03*
X0361000Y0576500D03*
X0385500Y0553500D03*
X0415000Y0554000D03*
X0426500Y0537500D03*
X0334500Y0541000D03*
X0525000Y0626000D03*
X0519000Y0751500D03*
X0418000Y0759000D03*
X0300500Y0337500D03*
X0534500Y0306500D03*
X0592000Y0301500D03*
X0515000Y0039500D03*
X0441000Y0039500D03*
X0371000Y0039500D03*
X0302500Y0039500D03*
X0236000Y0039500D03*
X0173000Y0095000D03*
X0138000Y0112500D03*
X0082500Y0113500D03*
X0030000Y0165000D03*
X0026500Y0169500D03*
X0026500Y0176000D03*
X0031000Y0180500D03*
X0033000Y0208500D03*
X0177500Y0158000D03*
X0230500Y0156000D03*
D62*
X0193000Y0140000D03*
X0172850Y0134500D03*
X0160161Y0101000D03*
X0198000Y0101000D03*
X0276000Y0046500D03*
X0276000Y0023000D03*
X0035000Y0185622D03*
X0028500Y0158000D03*
X0082500Y0208500D03*
X0028000Y0217500D03*
X0171500Y0210000D03*
X0188000Y0198500D03*
X0220000Y0198500D03*
X0213500Y0254500D03*
X0188000Y0263500D03*
X0303500Y0342500D03*
X0308500Y0345500D03*
X0424000Y0338000D03*
X0534500Y0316500D03*
X0540000Y0322500D03*
X0549500Y0330209D03*
X0556000Y0330000D03*
X0562500Y0330000D03*
X0570500Y0328500D03*
X0604000Y0308500D03*
X0820000Y0243500D03*
X0826500Y0248500D03*
X0912500Y0228500D03*
X0922000Y0239000D03*
X0942500Y0234500D03*
X0962500Y0223500D03*
X0998500Y0158000D03*
X0990500Y0153500D03*
X0980000Y0146000D03*
X0975500Y0137500D03*
X0970500Y0142000D03*
X0935500Y0146000D03*
X0922000Y0133500D03*
X1013500Y0121000D03*
X1035500Y0131000D03*
X1049500Y0153500D03*
X1089500Y0131000D03*
X1083500Y0193500D03*
X1085500Y0200500D03*
X1082000Y0254000D03*
X1066500Y0259500D03*
X0985500Y0308500D03*
X0971000Y0322500D03*
X0966500Y0316500D03*
X0995500Y0338000D03*
X0982500Y0344000D03*
X0932500Y0328500D03*
X0904000Y0350500D03*
X0907500Y0391000D03*
X0892500Y0400000D03*
X0975500Y0400000D03*
X0995500Y0391000D03*
X1091000Y0400000D03*
X1093000Y0391000D03*
X1057500Y0472500D03*
X1047500Y0472500D03*
X1037500Y0472500D03*
X1027500Y0472500D03*
X1017500Y0472500D03*
X1007000Y0472500D03*
X0997500Y0472500D03*
X0987500Y0472500D03*
X0977500Y0472500D03*
X0967500Y0472500D03*
X0957500Y0472500D03*
X0932500Y0518500D03*
X0967500Y0530000D03*
X0978000Y0530000D03*
X0987500Y0530000D03*
X0997500Y0530000D03*
X1007500Y0530000D03*
X1017500Y0530000D03*
X1027500Y0530000D03*
X1037500Y0530000D03*
X1047500Y0530000D03*
X1057500Y0530000D03*
X1076000Y0591500D03*
X1081500Y0618000D03*
X1085000Y0623000D03*
X1073500Y0628000D03*
X1057500Y0630000D03*
X1037500Y0613000D03*
X1013500Y0623000D03*
X0999500Y0629000D03*
X0982500Y0613000D03*
X0948500Y0613000D03*
X0932500Y0623500D03*
X0907500Y0607000D03*
X0892500Y0602500D03*
X0887500Y0597500D03*
X0877500Y0591500D03*
X0867500Y0588000D03*
X0862500Y0593000D03*
X0852500Y0573500D03*
X0820000Y0602500D03*
X0826500Y0607000D03*
X0773000Y0597500D03*
X0763500Y0593000D03*
X0741000Y0611500D03*
X0719000Y0588500D03*
X0696000Y0573500D03*
X0686000Y0578500D03*
X0676000Y0583500D03*
X0653500Y0569000D03*
X0620000Y0563500D03*
X0603500Y0578500D03*
X0604000Y0553000D03*
X0627500Y0532500D03*
X0611000Y0527000D03*
X0620000Y0505500D03*
X0706000Y0563500D03*
X0719000Y0550000D03*
X0755000Y0568500D03*
X0755000Y0522500D03*
X0852500Y0519500D03*
X0892500Y0485000D03*
X0892500Y0563500D03*
X0917500Y0583500D03*
X0927500Y0578500D03*
X0963500Y0568500D03*
X0887500Y0618000D03*
X0882500Y0623500D03*
X0882500Y0611500D03*
X0907500Y0677500D03*
X0939000Y0706500D03*
X0948000Y0706500D03*
X0957500Y0716000D03*
X0938000Y0733500D03*
X0948000Y0745500D03*
X0938000Y0759500D03*
X0932500Y0766000D03*
X0944000Y0771500D03*
X0927500Y0755000D03*
X0917500Y0745000D03*
X0912500Y0750000D03*
X0907500Y0759500D03*
X0901000Y0749500D03*
X0910500Y0716000D03*
X0967000Y0740500D03*
X0987500Y0713500D03*
X1001500Y0713500D03*
X1012500Y0663000D03*
X1016000Y0657500D03*
X0847500Y0760500D03*
X0828500Y0760000D03*
X0818500Y0766000D03*
X0808500Y0771500D03*
X0773000Y0755000D03*
X0763500Y0745000D03*
X0723000Y0740500D03*
X0703500Y0732957D03*
X0666500Y0738500D03*
X0659000Y0759000D03*
X0655500Y0771500D03*
X0649500Y0777000D03*
X0638000Y0766000D03*
X0598500Y0745500D03*
X0631000Y0728500D03*
X0637000Y0733500D03*
X0636000Y0719500D03*
X0631500Y0715000D03*
X0634500Y0706000D03*
X0628000Y0705500D03*
X0639500Y0700000D03*
X0633500Y0683500D03*
X0641500Y0662500D03*
X0649500Y0657500D03*
X0641500Y0641000D03*
X0627500Y0649500D03*
X0659000Y0631500D03*
X0692500Y0631500D03*
X0727000Y0653500D03*
X0727500Y0660500D03*
X0728000Y0667500D03*
X0736000Y0672500D03*
X0723000Y0677500D03*
X0741000Y0695000D03*
X0765000Y0683500D03*
X0755500Y0665000D03*
X0828500Y0723500D03*
X0838500Y0723500D03*
X0741000Y0795500D03*
X0614000Y0695500D03*
X0603500Y0685000D03*
X0594500Y0695500D03*
X0583500Y0697000D03*
X0573000Y0697000D03*
X0578500Y0677500D03*
X0593500Y0672500D03*
X0568500Y0662500D03*
X0549500Y0667300D03*
X0537000Y0646000D03*
X0556000Y0631500D03*
X0598500Y0613500D03*
X0608500Y0608500D03*
X0562500Y0573500D03*
X0539500Y0586500D03*
X0515000Y0601500D03*
X0500000Y0596000D03*
X0488220Y0597500D03*
X0470700Y0596700D03*
X0459000Y0596000D03*
X0440000Y0596500D03*
X0427000Y0595000D03*
X0412500Y0608500D03*
X0403501Y0613401D03*
X0399500Y0608500D03*
X0374500Y0638500D03*
X0368500Y0654000D03*
X0413000Y0676000D03*
X0427000Y0666000D03*
X0440000Y0637000D03*
X0475500Y0637000D03*
X0488500Y0636000D03*
X0498500Y0641000D03*
X0500000Y0631500D03*
X0464000Y0672500D03*
X0470500Y0680000D03*
X0475500Y0690000D03*
X0484000Y0685000D03*
X0464000Y0698000D03*
X0463965Y0713500D03*
X0469500Y0733500D03*
X0459000Y0738500D03*
X0440000Y0733500D03*
X0439500Y0761000D03*
X0481000Y0742500D03*
X0488500Y0734500D03*
X0498500Y0732000D03*
X0537000Y0742500D03*
X0578000Y0723500D03*
X0379500Y0705500D03*
X0304000Y0669000D03*
X0296000Y0680000D03*
X0287000Y0631500D03*
X0330500Y0618000D03*
X0318500Y0566000D03*
X0301150Y0546600D03*
X0326500Y0501000D03*
X0372000Y0557500D03*
X0402500Y0557500D03*
X0425000Y0572500D03*
X0433500Y0557500D03*
X0453500Y0553000D03*
X0463500Y0557500D03*
X0479500Y0546500D03*
X0492500Y0557500D03*
X0509000Y0557500D03*
X0204800Y0624150D03*
X1011500Y0782500D03*
X1011000Y0790000D03*
X1038000Y0068500D03*
X1023000Y0064500D03*
D63*
X0391500Y0376000D03*
X0381500Y0384500D03*
X0377000Y0380000D03*
X0373000Y0376500D03*
X0354500Y0384500D03*
X0346500Y0385000D03*
X0337000Y0380500D03*
X0338000Y0375000D03*
X0339000Y0369500D03*
X0337000Y0364000D03*
X0341000Y0355500D03*
X0349000Y0362500D03*
X0353500Y0366500D03*
X0356500Y0351500D03*
X0363500Y0354000D03*
X0334500Y0342500D03*
X0318500Y0339500D03*
X0363000Y0394000D03*
X0357000Y0394500D03*
X0350500Y0395000D03*
X0390000Y0388000D03*
X0395000Y0562000D03*
X0365500Y0562000D03*
X0425000Y0562000D03*
X0455000Y0562000D03*
X0484000Y0562000D03*
X0515500Y0562000D03*
X0035000Y0172500D03*
M02*
