%
M48
M72
T01C0.01969
T02C0.02362
T03C0.02756
T04C0.03150
T05C0.03600
T06C0.03937
T07C0.04000
T08C0.04200
T09C0.04331
T10C0.07480
T11C0.09000
T12C0.11800
T13C0.12000
T14C0.12500
%
T01
X35000Y172500
X50500Y172000
X318500Y339500
X334500Y342500
X341000Y355500
X337000Y364000
X339000Y369500
X338000Y375000
X337000Y380500
X346500Y385000
X354500Y384500
X363000Y394000
X357000Y394500
X350500Y395000
X373000Y376500
X377000Y380000
X381500Y384500
X390000Y388000
X391500Y376000
X363500Y354000
X356500Y351500
X349000Y362500
X353500Y366500
X365500Y562000
X395000Y562000
X425000Y562000
X455000Y562000
X484000Y562000
X515500Y562000
T02
X513000Y569000
X509000Y557500
X492500Y557500
X479500Y546500
X463500Y557500
X453500Y553000
X433500Y557500
X425000Y572500
X415000Y580000
X421500Y591000
X427000Y595000
X418000Y602000
X412500Y608500
X403501Y613401
X399500Y608500
X394000Y590000
X385500Y579500
X361000Y576500
X372000Y557500
X385500Y553500
X402500Y557500
X415000Y554000
X426500Y537500
X426500Y514000
X464000Y505000
X535000Y558000
X562500Y573500
X539500Y586500
X535000Y580500
X514000Y590500
X515000Y601500
X500000Y596000
X488220Y597500
X480500Y591500
X477500Y582500
X482500Y572000
X505500Y582000
X470700Y596700
X459000Y596000
X452000Y590000
X446000Y581000
X452500Y572000
X440000Y596500
X445500Y603500
X440000Y637000
X427000Y666000
X413000Y676000
X396000Y659500
X375000Y675000
X368500Y654000
X374500Y638500
X342500Y607000
X330500Y618000
X319000Y616000
X287000Y631500
X276500Y614500
X281000Y658500
X304000Y669000
X296000Y680000
X307000Y658000
X379500Y705500
X440000Y733500
X459000Y738500
X469500Y733500
X481000Y742500
X488500Y734500
X498500Y732000
X519000Y751500
X537000Y742500
X578000Y723500
X584000Y718500
X583500Y697000
X573000Y697000
X578500Y677500
X593500Y672500
X603500Y685000
X594500Y695500
X614000Y695500
X628000Y705500
X634500Y706000
X639500Y700000
X631500Y715000
X636000Y719500
X631000Y728500
X637000Y733500
X644500Y727000
X666500Y738500
X659000Y759000
X655500Y771500
X649500Y777000
X638000Y766000
X640000Y757500
X609500Y751500
X598500Y745500
X665500Y706500
X633500Y683500
X641500Y662500
X649500Y657500
X641500Y641000
X627500Y649500
X659000Y631500
X670500Y624500
X692500Y631500
X718000Y614000
X741000Y611500
X763500Y593000
X773000Y597500
X782000Y624000
X781500Y631500
X755500Y665000
X765000Y683500
X741000Y695000
X723000Y677500
X736000Y672500
X728000Y667500
X727500Y660500
X727000Y653500
X702000Y653500
X686000Y668000
X673000Y661500
X705000Y707000
X703500Y732957
X723000Y740500
X709500Y756500
X763500Y745000
X773000Y755000
X797500Y732500
X808500Y732500
X819000Y732500
X828500Y723500
X838500Y723500
X828500Y760000
X818500Y766000
X808500Y771500
X847500Y760500
X901000Y749500
X912500Y750000
X917500Y745000
X927500Y755000
X938000Y759500
X932500Y766000
X944000Y771500
X948000Y745500
X938000Y733500
X957500Y716000
X948000Y706500
X939000Y706500
X910500Y716000
X907500Y677500
X849500Y672000
X840500Y624500
X826500Y607000
X820000Y602500
X862500Y593000
X867500Y588000
X877500Y591500
X887500Y597500
X892500Y602500
X882500Y611500
X887500Y618000
X882500Y623500
X907500Y607000
X917500Y583500
X927500Y578500
X892500Y563500
X852500Y573500
X852500Y519500
X892500Y485000
X932500Y518500
X967500Y530000
X978000Y530000
X987500Y530000
X997500Y530000
X1007500Y530000
X1017500Y530000
X1027500Y530000
X1037500Y530000
X1047500Y530000
X1057500Y530000
X1057500Y472500
X1047500Y472500
X1037500Y472500
X1027500Y472500
X1017500Y472500
X1007000Y472500
X997500Y472500
X987500Y472500
X977500Y472500
X967500Y472500
X957500Y472500
X975500Y400000
X995500Y391000
X982500Y344000
X995500Y338000
X971000Y322500
X966500Y316500
X985500Y308500
X932500Y328500
X904000Y350500
X907500Y391000
X892500Y400000
X1054500Y459000
X1091000Y400000
X1093000Y391000
X1076500Y371500
X1066500Y259500
X1082000Y254000
X1076500Y246500
X1085500Y200500
X1083500Y193500
X1049500Y153500
X1045000Y142000
X1035500Y131000
X1024500Y120500
X1013500Y121000
X1002000Y114500
X1003500Y106000
X1024000Y107000
X1044000Y98000
X1048500Y75500
X1038000Y68500
X1023000Y64500
X991500Y21500
X927000Y111500
X922000Y133500
X935500Y146000
X970500Y142000
X975500Y137500
X980000Y146000
X990500Y153500
X998500Y158000
X1006000Y133000
X1089500Y131000
X962500Y223500
X942500Y234500
X922000Y239000
X912500Y228500
X826500Y248500
X820000Y243500
X604000Y308500
X592000Y301500
X598000Y293000
X570500Y328500
X562500Y330000
X556000Y330000
X549500Y330209
X540000Y322500
X534500Y316500
X534500Y306500
X544000Y312000
X518500Y286000
X424000Y338000
X377500Y318000
X364000Y318000
X352000Y318000
X334000Y318000
X321500Y318000
X300500Y337500
X303500Y342500
X308500Y345500
X314500Y349500
X213500Y254500
X188000Y263500
X171500Y210000
X188000Y198500
X220000Y198500
X230000Y171000
X230500Y156000
X193000Y140000
X184000Y152000
X177500Y158000
X159500Y145000
X154500Y134000
X172850Y134500
X192000Y108500
X198000Y101000
X173000Y95000
X160161Y101000
X138000Y112500
X82500Y113500
X50500Y145000
X50500Y150500
X50500Y162500
X50500Y182000
X50500Y190500
X50500Y198000
X35000Y185622
X31000Y180500
X26500Y176000
X26500Y169500
X30000Y165000
X28500Y158000
X11000Y163500
X33000Y208500
X28000Y217500
X82500Y208500
X149500Y195000
X21500Y76500
X71500Y21500
X146500Y21500
X236000Y39500
X276000Y46500
X276000Y23000
X302500Y39500
X371000Y39500
X441000Y39500
X515000Y39500
X620000Y505500
X611000Y527000
X627500Y532500
X604000Y553000
X620000Y563500
X603500Y578500
X608500Y608500
X598500Y613500
X556000Y631500
X537000Y646000
X549500Y667300
X568500Y662500
X525000Y626000
X500000Y631500
X498500Y641000
X488500Y636000
X475500Y637000
X464000Y672500
X470500Y680000
X475500Y690000
X484000Y685000
X464000Y698000
X463965Y713500
X516000Y697000
X439500Y761000
X418000Y759000
X204800Y624150
X243000Y577500
X301150Y546600
X318500Y566000
X334500Y541000
X303000Y511000
X283500Y510500
X326500Y501000
X334500Y506500
X375000Y597000
X197000Y746500
X161500Y686500
X90500Y698000
X16500Y691500
X16500Y676500
X16500Y631500
X653500Y569000
X676000Y583500
X686000Y578500
X696000Y573500
X706000Y563500
X719000Y550000
X755000Y568500
X719000Y588500
X660000Y599000
X755000Y522500
X932500Y623500
X948500Y613000
X954500Y624000
X954500Y631000
X982500Y613000
X995500Y617500
X999500Y629000
X1003500Y633500
X1013500Y632000
X1013500Y623000
X1037500Y613000
X1042500Y608000
X1057500Y630000
X1067500Y633500
X1073500Y628000
X1085000Y623000
X1081500Y618000
X1076000Y591500
X1056000Y649000
X1067500Y655000
X1022000Y649000
X1016000Y657500
X1012500Y663000
X1003500Y652000
X994000Y650000
X987500Y713500
X989000Y722000
X997000Y727500
X1006000Y721500
X1001500Y713500
X1015000Y728000
X1022500Y721500
X1030500Y728000
X1038500Y721000
X1046000Y727500
X1053500Y721000
X1061500Y727500
X1011500Y782500
X1011000Y790000
X967000Y740500
X971000Y725500
X979000Y728500
X907500Y759500
X741000Y795500
X963500Y568500
T03
X600799Y760957
X597650Y765681
X594500Y760957
X591350Y765681
X588201Y760957
T04
X304307Y761866
X304307Y753992
X304307Y746118
X304307Y738244
X304307Y730370
X304307Y722496
X304307Y714622
X304307Y706748
X304307Y698874
X217693Y698874
X217693Y706748
X217693Y714622
X217693Y722496
X217693Y730370
X217693Y738244
X217693Y746118
X217693Y753992
X217693Y761866
X217693Y769740
X304307Y769740
T05
X483500Y665000
X483500Y655000
X493500Y655000
X493500Y665000
X503500Y665000
X503500Y655000
X499500Y532500
X509500Y532500
X509500Y522500
X499500Y522500
X573500Y522500
X583500Y522500
X593500Y522500
X593500Y532500
X583500Y532500
X573500Y532500
X702000Y631500
X712000Y631500
X736000Y718000
X736000Y728000
X746000Y728000
X746000Y718000
X837500Y695500
X837500Y685500
X847500Y685500
X847500Y695500
X857500Y695500
X857500Y685500
X867500Y685500
X867500Y695500
X877500Y695500
X877500Y685500
X887500Y685500
X887500Y695500
X897500Y695500
X907500Y695500
X907500Y685500
X897500Y685500
X917500Y685500
X917500Y695500
X927500Y695500
X927500Y685500
X937500Y685500
X937500Y695500
X947500Y695500
X947500Y685500
X957500Y685500
X957500Y695500
X967500Y695500
X967500Y685500
X977500Y685500
X977500Y695500
X987500Y695500
X987500Y685500
X997500Y685500
X1007500Y685500
X1007500Y695500
X997500Y695500
X1017500Y695500
X1017500Y685500
X1027500Y685500
X1027500Y695500
X1037500Y695500
X1037500Y685500
X1047500Y685500
X1047500Y695500
X1057500Y695500
X1057500Y685500
X977500Y675500
X967500Y675500
X957500Y675500
X947500Y675500
X937500Y675500
X927500Y675500
X922500Y779500
X912500Y779500
X902500Y779500
X892500Y779500
X882500Y779500
X882500Y789500
X892500Y789500
X902500Y789500
X912500Y789500
X922500Y789500
X932500Y789500
X942500Y789500
X952500Y789500
X962500Y789500
X972500Y789500
X982500Y789500
X992500Y789500
X1002500Y789500
X1002500Y779500
X992500Y779500
X982500Y779500
X972500Y779500
X962500Y779500
X952500Y779500
X942500Y779500
X932500Y779500
X927500Y505500
X927500Y495500
X917500Y495500
X917500Y505500
X907500Y505500
X897500Y505500
X897500Y495500
X907500Y495500
X887500Y495500
X887500Y505500
X877500Y505500
X877500Y495500
X867500Y495500
X867500Y505500
X857500Y505500
X857500Y495500
X847500Y495500
X847500Y505500
X837500Y505500
X837500Y495500
X937500Y495500
X937500Y505500
X947500Y505500
X947500Y495500
X957500Y495500
X957500Y505500
X967500Y505500
X967500Y495500
X977500Y495500
X977500Y505500
X987500Y505500
X987500Y495500
X997500Y495500
X1007500Y495500
X1007500Y505500
X997500Y505500
X1017500Y505500
X1017500Y495500
X1027500Y495500
X1027500Y505500
X1037500Y505500
X1037500Y495500
X1047500Y495500
X1047500Y505500
X1057500Y505500
X1057500Y495500
X1040500Y179500
X1030500Y179500
X1030500Y169500
X1040500Y169500
X1020500Y169500
X1020500Y179500
X1010500Y179500
X1010500Y169500
X1000500Y169500
X1000500Y179500
X990500Y179500
X990500Y169500
X980500Y169500
X980500Y179500
X970500Y179500
X970500Y169500
X960500Y169500
X960500Y179500
X950500Y179500
X950500Y169500
X940500Y169500
X930500Y169500
X930500Y179500
X940500Y179500
X194800Y276800
X194800Y286800
X194800Y296800
X21400Y276800
X21400Y266800
X21400Y256800
X21400Y246800
X21400Y236800
X21400Y226800
T06
X266500Y488500
X276500Y488500
X286500Y488500
X287500Y678500
X277500Y678500
X267500Y678500
X257500Y678500
X247500Y678500
X237500Y678500
X227500Y678500
X435000Y691500
X445000Y691500
X455000Y691500
X453500Y751000
X443500Y751000
X463500Y751000
X473500Y751000
X483500Y751000
X493500Y751000
X503500Y751000
X681500Y756500
X691500Y756500
X701500Y756500
X768500Y783500
X778500Y783500
X788500Y783500
X798500Y783500
X808500Y783500
X818500Y783500
X828500Y783500
X838500Y783500
X848500Y783500
X716000Y541000
X706000Y541000
X696000Y541000
X686000Y541000
X676000Y541000
X666000Y541000
X656000Y541000
X1061000Y166000
X1061000Y156000
X1061000Y146000
X1061000Y136000
X1061000Y126000
X1061000Y116000
X1061000Y106000
X1061000Y96000
X1061000Y86000
X952500Y82000
X952500Y92000
X942500Y92000
X942500Y82000
X932500Y82000
X932500Y92000
X932500Y72000
X942500Y72000
X952500Y72000
T07
X618500Y641000
X618500Y651000
X608500Y651000
X598500Y651000
X598500Y641000
X608500Y641000
X588500Y641000
X588500Y651000
X578500Y651000
X578500Y641000
X568500Y641000
X568500Y651000
X558500Y651000
X558500Y641000
X444500Y650000
X434500Y650000
X435000Y672000
X445000Y672000
X365500Y698000
X365500Y708000
X355500Y708000
X355500Y698000
X355500Y718000
X365500Y718000
X369000Y751000
X359000Y751000
X349000Y751000
X379000Y751000
X389000Y751000
X112500Y243500
X102500Y243500
X102500Y232700
X112500Y232700
X72500Y133500
X62500Y133500
X52500Y133500
X42500Y133500
X32500Y133500
X22500Y133500
T08
X221000Y29900
X221000Y12100
X251000Y12100
X251000Y29900
X286000Y29900
X286000Y12100
X316000Y12100
X316000Y29900
X356000Y29900
X356000Y12100
X386000Y12100
X386000Y29900
X426000Y29900
X426000Y12100
X456000Y12100
X456000Y29900
X498500Y29900
X498500Y12100
X528500Y12100
X528500Y29900
X806500Y29900
X806500Y12100
X836500Y12100
X836500Y29900
X1043500Y432100
X1043500Y449900
X1073500Y449900
X1073500Y432100
T09
X701500Y783000
X701500Y793000
X691500Y793000
X691500Y783000
X681500Y783000
X681500Y793000
X503500Y781000
X493500Y781000
X483500Y781000
X473500Y781000
X463500Y781000
X453500Y781000
X443500Y781000
X389000Y781500
X379000Y781500
X369000Y781500
X359000Y781500
X349000Y781500
X136500Y566500
X136500Y556500
X126500Y556500
X126500Y566500
X116500Y556500
X106500Y556500
X96500Y556500
X86500Y556500
X86500Y566500
X71500Y566500
X71500Y556500
X61500Y556500
X61500Y566500
X51500Y566500
X51500Y556500
X41500Y556500
X41500Y566500
X31500Y566500
X31500Y556500
X31500Y546500
X31500Y536500
X31500Y526500
X31500Y516500
X41500Y516500
X41500Y526500
X41500Y536500
X41500Y546500
X51500Y546500
X51500Y536500
X51500Y526500
X51500Y516500
X61500Y516500
X61500Y526500
X61500Y536500
X61500Y546500
X71500Y546500
X71500Y536500
X71500Y526500
X71500Y516500
X86500Y516500
X86500Y526500
X86500Y536500
X86500Y546500
X96500Y546500
X96500Y536500
X96500Y526500
X96500Y516500
X106500Y516500
X106500Y526500
X106500Y536500
X106500Y546500
X116500Y546500
X116500Y536500
X116500Y526500
X116500Y516500
X126500Y516500
X126500Y526500
X126500Y536500
X126500Y546500
X136500Y546500
X136500Y536500
X136500Y526500
X136500Y516500
X136500Y506500
X136500Y496500
X136500Y486500
X136500Y476500
X126500Y476500
X126500Y486500
X126500Y496500
X126500Y506500
X116500Y506500
X116500Y496500
X116500Y486500
X116500Y476500
X106500Y476500
X106500Y486500
X106500Y496500
X106500Y506500
X96500Y506500
X96500Y496500
X96500Y486500
X96500Y476500
X86500Y476500
X86500Y486500
X86500Y496500
X86500Y506500
X71500Y506500
X71500Y496500
X71500Y486500
X71500Y476500
X61500Y476500
X61500Y486500
X61500Y496500
X61500Y506500
X51500Y506500
X51500Y496500
X51500Y486500
X51500Y476500
X41500Y476500
X41500Y486500
X41500Y496500
X41500Y506500
X31500Y506500
X31500Y496500
X31500Y486500
X31500Y476500
X31500Y466500
X31500Y456500
X41500Y456500
X41500Y466500
X51500Y466500
X51500Y456500
X61500Y456500
X61500Y446500
X61500Y436500
X71500Y436500
X71500Y446500
X71500Y456500
X71500Y466500
X61500Y466500
X86500Y466500
X86500Y456500
X86500Y446500
X86500Y436500
X96500Y436500
X96500Y446500
X96500Y456500
X96500Y466500
X106500Y466500
X106500Y456500
X106500Y446500
X106500Y436500
X116500Y436500
X116500Y446500
X116500Y456500
X116500Y466500
X126500Y466500
X126500Y456500
X126500Y446500
X126500Y436500
X136500Y436500
X136500Y446500
X136500Y456500
X136500Y466500
X136500Y426500
X136500Y416500
X136500Y406500
X136500Y396500
X136500Y386500
X126500Y386500
X126500Y396500
X126500Y406500
X126500Y416500
X126500Y426500
X116500Y426500
X116500Y416500
X116500Y406500
X116500Y396500
X116500Y386500
X106500Y386500
X106500Y396500
X106500Y406500
X106500Y416500
X106500Y426500
X96500Y426500
X96500Y416500
X96500Y406500
X96500Y396500
X96500Y386500
X86500Y386500
X86500Y396500
X86500Y406500
X86500Y416500
X86500Y426500
X71500Y426500
X71500Y416500
X71500Y406500
X71500Y396500
X71500Y386500
X61500Y386500
X61500Y396500
X61500Y406500
X61500Y416500
X61500Y426500
X51500Y416500
X51500Y406500
X51500Y396500
X51500Y386500
X41500Y386500
X41500Y396500
X41500Y406500
X41500Y416500
X31500Y416500
X31500Y406500
X31500Y396500
X31500Y386500
X31500Y376500
X31500Y366500
X31500Y356500
X31500Y346500
X41500Y346500
X41500Y356500
X41500Y366500
X41500Y376500
X51500Y376500
X51500Y366500
X51500Y356500
X51500Y346500
X61500Y346500
X61500Y356500
X61500Y366500
X61500Y376500
X71500Y376500
X71500Y366500
X71500Y356500
X71500Y346500
X86500Y346500
X86500Y356500
X86500Y366500
X86500Y376500
X96500Y376500
X96500Y366500
X96500Y356500
X96500Y346500
X106500Y346500
X106500Y356500
X106500Y366500
X106500Y376500
X116500Y376500
X116500Y366500
X116500Y356500
X116500Y346500
X126500Y346500
X126500Y356500
X126500Y366500
X126500Y376500
X136500Y376500
X136500Y366500
X136500Y356500
X136500Y346500
X136500Y336500
X136500Y326500
X136500Y316500
X136500Y306500
X126500Y306500
X126500Y316500
X126500Y326500
X126500Y336500
X116500Y336500
X116500Y326500
X116500Y316500
X116500Y306500
X106500Y306500
X106500Y316500
X106500Y326500
X106500Y336500
X96500Y336500
X96500Y326500
X96500Y316500
X96500Y306500
X86500Y306500
X86500Y316500
X86500Y326500
X86500Y336500
X71500Y336500
X71500Y326500
X71500Y316500
X71500Y306500
X61500Y306500
X61500Y316500
X61500Y326500
X61500Y336500
X51500Y336500
X51500Y326500
X51500Y316500
X51500Y306500
X41500Y306500
X41500Y316500
X41500Y326500
X41500Y336500
X31500Y336500
X31500Y326500
X31500Y316500
X31500Y306500
T10
X579933Y764500
X579933Y783201
X609067Y783201
X609461Y764500
T11
X106900Y573600
X44300Y433800
T12
X1015496Y757874
X1034000Y746063
X1034000Y769685
T13
X21000Y21000
X571000Y21000
X1081000Y21000
X510500Y493000
X91000Y781000
X1081000Y781000
T14
X910500Y410500
M30
