G75*
%MOIN*%
%OFA0B0*%
%FSLAX25Y25*%
%IPPOS*%
%LPD*%
%AMOC8*
5,1,8,0,0,1.08239X$1,22.5*
%
%ADD10R,0.02362X0.11417*%
%ADD11R,0.12205X0.11024*%
%ADD12R,0.01200X0.09449*%
%ADD13R,0.06300X0.08700*%
%ADD14C,0.02756*%
%ADD15R,0.05000X0.20000*%
%ADD16C,0.02618*%
%ADD17R,0.04331X0.03937*%
D10*
X0544173Y0297209D03*
X0548110Y0297209D03*
X0552047Y0297209D03*
X0555984Y0297209D03*
X0559921Y0297209D03*
X0563858Y0297209D03*
D11*
X0578228Y0285988D03*
X0529803Y0285988D03*
D12*
X0385311Y0327722D03*
X0383411Y0327722D03*
X0381411Y0327722D03*
X0379411Y0327722D03*
X0377511Y0327722D03*
X0375511Y0327722D03*
X0373511Y0327722D03*
X0371611Y0327722D03*
X0369611Y0327722D03*
X0367611Y0327722D03*
X0365711Y0327722D03*
X0363711Y0327722D03*
X0361711Y0327722D03*
X0359811Y0327722D03*
X0357811Y0327722D03*
X0355811Y0327722D03*
X0353811Y0327722D03*
X0351911Y0327722D03*
X0349911Y0327722D03*
X0347911Y0327722D03*
X0346011Y0327722D03*
X0344011Y0327722D03*
X0342011Y0327722D03*
X0340111Y0327722D03*
X0338111Y0327722D03*
X0336111Y0327722D03*
X0334211Y0327722D03*
X0332211Y0327722D03*
X0330211Y0327722D03*
X0328311Y0327722D03*
X0326326Y0327722D03*
X0324326Y0327722D03*
X0322326Y0327722D03*
X0320426Y0327722D03*
X0318426Y0327722D03*
X0316426Y0327722D03*
X0314526Y0327722D03*
X0312526Y0327722D03*
X0310526Y0327722D03*
X0308626Y0327722D03*
D13*
X0297126Y0318022D03*
X0396811Y0318022D03*
D14*
X0562287Y0318256D02*
X0562287Y0319436D01*
X0562287Y0318256D02*
X0560713Y0318256D01*
X0560713Y0319436D01*
X0562287Y0319436D01*
X0562287Y0312744D02*
X0562287Y0311564D01*
X0560713Y0311564D01*
X0560713Y0312744D01*
X0562287Y0312744D01*
X0576564Y0316213D02*
X0577744Y0316213D01*
X0576564Y0316213D02*
X0576564Y0317787D01*
X0577744Y0317787D01*
X0577744Y0316213D01*
X0583256Y0316213D02*
X0584436Y0316213D01*
X0583256Y0316213D02*
X0583256Y0317787D01*
X0584436Y0317787D01*
X0584436Y0316213D01*
X0584256Y0302287D02*
X0585436Y0302287D01*
X0585436Y0300713D01*
X0584256Y0300713D01*
X0584256Y0302287D01*
X0578744Y0302287D02*
X0577564Y0302287D01*
X0578744Y0302287D02*
X0578744Y0300713D01*
X0577564Y0300713D01*
X0577564Y0302287D01*
X0956713Y0477064D02*
X0956713Y0478244D01*
X0958287Y0478244D01*
X0958287Y0477064D01*
X0956713Y0477064D01*
X0956713Y0483756D02*
X0956713Y0484936D01*
X0958287Y0484936D01*
X0958287Y0483756D01*
X0956713Y0483756D01*
X0966713Y0483756D02*
X0966713Y0484936D01*
X0968287Y0484936D01*
X0968287Y0483756D01*
X0966713Y0483756D01*
X0966713Y0478244D02*
X0966713Y0477064D01*
X0966713Y0478244D02*
X0968287Y0478244D01*
X0968287Y0477064D01*
X0966713Y0477064D01*
X0976713Y0477064D02*
X0976713Y0478244D01*
X0978287Y0478244D01*
X0978287Y0477064D01*
X0976713Y0477064D01*
X0976713Y0483756D02*
X0976713Y0484936D01*
X0978287Y0484936D01*
X0978287Y0483756D01*
X0976713Y0483756D01*
X0986713Y0483756D02*
X0986713Y0484936D01*
X0988287Y0484936D01*
X0988287Y0483756D01*
X0986713Y0483756D01*
X0986713Y0478244D02*
X0986713Y0477064D01*
X0986713Y0478244D02*
X0988287Y0478244D01*
X0988287Y0477064D01*
X0986713Y0477064D01*
X0996713Y0477064D02*
X0996713Y0478244D01*
X0998287Y0478244D01*
X0998287Y0477064D01*
X0996713Y0477064D01*
X0996713Y0483756D02*
X0996713Y0484936D01*
X0998287Y0484936D01*
X0998287Y0483756D01*
X0996713Y0483756D01*
X1006713Y0483756D02*
X1006713Y0484936D01*
X1008287Y0484936D01*
X1008287Y0483756D01*
X1006713Y0483756D01*
X1006713Y0478244D02*
X1006713Y0477064D01*
X1006713Y0478244D02*
X1008287Y0478244D01*
X1008287Y0477064D01*
X1006713Y0477064D01*
X1016713Y0477064D02*
X1016713Y0478244D01*
X1018287Y0478244D01*
X1018287Y0477064D01*
X1016713Y0477064D01*
X1016713Y0483756D02*
X1016713Y0484936D01*
X1018287Y0484936D01*
X1018287Y0483756D01*
X1016713Y0483756D01*
X1026713Y0483756D02*
X1026713Y0484936D01*
X1028287Y0484936D01*
X1028287Y0483756D01*
X1026713Y0483756D01*
X1026713Y0478244D02*
X1026713Y0477064D01*
X1026713Y0478244D02*
X1028287Y0478244D01*
X1028287Y0477064D01*
X1026713Y0477064D01*
X1036713Y0477064D02*
X1036713Y0478244D01*
X1038287Y0478244D01*
X1038287Y0477064D01*
X1036713Y0477064D01*
X1036713Y0483756D02*
X1036713Y0484936D01*
X1038287Y0484936D01*
X1038287Y0483756D01*
X1036713Y0483756D01*
X1046713Y0483756D02*
X1046713Y0484936D01*
X1048287Y0484936D01*
X1048287Y0483756D01*
X1046713Y0483756D01*
X1046713Y0478244D02*
X1046713Y0477064D01*
X1046713Y0478244D02*
X1048287Y0478244D01*
X1048287Y0477064D01*
X1046713Y0477064D01*
X1056713Y0477064D02*
X1056713Y0478244D01*
X1058287Y0478244D01*
X1058287Y0477064D01*
X1056713Y0477064D01*
X1056713Y0483756D02*
X1056713Y0484936D01*
X1058287Y0484936D01*
X1058287Y0483756D01*
X1056713Y0483756D01*
X1056713Y0516564D02*
X1056713Y0517744D01*
X1058287Y0517744D01*
X1058287Y0516564D01*
X1056713Y0516564D01*
X1056713Y0523256D02*
X1056713Y0524436D01*
X1058287Y0524436D01*
X1058287Y0523256D01*
X1056713Y0523256D01*
X1046713Y0523256D02*
X1046713Y0524436D01*
X1048287Y0524436D01*
X1048287Y0523256D01*
X1046713Y0523256D01*
X1046713Y0517744D02*
X1046713Y0516564D01*
X1046713Y0517744D02*
X1048287Y0517744D01*
X1048287Y0516564D01*
X1046713Y0516564D01*
X1036713Y0516564D02*
X1036713Y0517744D01*
X1038287Y0517744D01*
X1038287Y0516564D01*
X1036713Y0516564D01*
X1036713Y0523256D02*
X1036713Y0524436D01*
X1038287Y0524436D01*
X1038287Y0523256D01*
X1036713Y0523256D01*
X1026713Y0523256D02*
X1026713Y0524436D01*
X1028287Y0524436D01*
X1028287Y0523256D01*
X1026713Y0523256D01*
X1026713Y0517744D02*
X1026713Y0516564D01*
X1026713Y0517744D02*
X1028287Y0517744D01*
X1028287Y0516564D01*
X1026713Y0516564D01*
X1016713Y0516564D02*
X1016713Y0517744D01*
X1018287Y0517744D01*
X1018287Y0516564D01*
X1016713Y0516564D01*
X1016713Y0523256D02*
X1016713Y0524436D01*
X1018287Y0524436D01*
X1018287Y0523256D01*
X1016713Y0523256D01*
X1006713Y0523256D02*
X1006713Y0524436D01*
X1008287Y0524436D01*
X1008287Y0523256D01*
X1006713Y0523256D01*
X1006713Y0517744D02*
X1006713Y0516564D01*
X1006713Y0517744D02*
X1008287Y0517744D01*
X1008287Y0516564D01*
X1006713Y0516564D01*
X0996713Y0516564D02*
X0996713Y0517744D01*
X0998287Y0517744D01*
X0998287Y0516564D01*
X0996713Y0516564D01*
X0996713Y0523256D02*
X0996713Y0524436D01*
X0998287Y0524436D01*
X0998287Y0523256D01*
X0996713Y0523256D01*
X0986713Y0523256D02*
X0986713Y0524436D01*
X0988287Y0524436D01*
X0988287Y0523256D01*
X0986713Y0523256D01*
X0986713Y0517744D02*
X0986713Y0516564D01*
X0986713Y0517744D02*
X0988287Y0517744D01*
X0988287Y0516564D01*
X0986713Y0516564D01*
X0976713Y0516564D02*
X0976713Y0517744D01*
X0978287Y0517744D01*
X0978287Y0516564D01*
X0976713Y0516564D01*
X0976713Y0523256D02*
X0976713Y0524436D01*
X0978287Y0524436D01*
X0978287Y0523256D01*
X0976713Y0523256D01*
X0966713Y0523256D02*
X0966713Y0524436D01*
X0968287Y0524436D01*
X0968287Y0523256D01*
X0966713Y0523256D01*
X0966713Y0517744D02*
X0966713Y0516564D01*
X0966713Y0517744D02*
X0968287Y0517744D01*
X0968287Y0516564D01*
X0966713Y0516564D01*
D15*
X0164750Y0790000D03*
X0132250Y0790000D03*
X0052750Y0790000D03*
X0020250Y0790000D03*
D16*
X0280742Y0318616D02*
X0280742Y0317494D01*
X0280742Y0318616D02*
X0282258Y0318616D01*
X0282258Y0317494D01*
X0280742Y0317494D01*
X0280742Y0324384D02*
X0280742Y0325506D01*
X0282258Y0325506D01*
X0282258Y0324384D01*
X0280742Y0324384D01*
D17*
X0283154Y0336500D03*
X0289846Y0336500D03*
M02*
