%FSLAX25Y25*%
%MOIN*%
G70*
G01*
G75*
G04 Layer_Physical_Order=4*
G04 Layer_Color=16737945*
%ADD10C,0.01102*%
%ADD11R,0.01969X0.01969*%
%ADD12C,0.06811*%
%ADD13R,0.02200X0.02200*%
%ADD14R,0.24016X0.12047*%
%ADD15R,0.04331X0.02559*%
%ADD16R,0.04331X0.02200*%
%ADD17R,0.02362X0.04724*%
%ADD18R,0.01882X0.01024*%
%ADD19R,0.06890X0.05709*%
%ADD20R,0.05709X0.06890*%
%ADD21R,0.20866X0.07874*%
%ADD22R,0.08858X0.08465*%
%ADD23R,0.03200X0.03800*%
%ADD24R,0.06000X0.12000*%
%ADD25R,0.18000X0.10000*%
%ADD26R,0.03800X0.03200*%
%ADD27R,0.02874X0.01181*%
%ADD28R,0.01181X0.02874*%
%ADD29R,0.01181X0.03268*%
%ADD30R,0.03268X0.01181*%
%ADD31R,0.12047X0.24016*%
%ADD32R,0.09685X0.03110*%
%ADD33R,0.13000X0.07874*%
%ADD34R,0.04803X0.02441*%
%ADD35R,0.01870X0.00984*%
%ADD36R,0.00984X0.01870*%
%ADD37R,0.04331X0.04331*%
%ADD38R,0.02559X0.04331*%
%ADD39R,0.02047X0.04331*%
%ADD40R,0.03937X0.01378*%
%ADD41R,0.01378X0.03937*%
%ADD42R,0.02402X0.04902*%
%ADD43R,0.04095X0.07087*%
%ADD44R,0.04331X0.05512*%
%ADD45R,0.02165X0.01181*%
%ADD46R,0.02953X0.01181*%
%ADD47R,0.01181X0.02165*%
%ADD48R,0.01181X0.02953*%
%ADD49R,0.20630X0.20630*%
%ADD50R,0.02079X0.01024*%
%ADD51R,0.01024X0.02079*%
%ADD52R,0.10630X0.10630*%
%ADD53R,0.04134X0.01772*%
%ADD54R,0.11575X0.14094*%
%ADD55R,0.06890X0.06890*%
%ADD56O,0.02362X0.01181*%
%ADD57R,0.10000X0.14000*%
%ADD58R,0.02441X0.04803*%
%ADD59R,0.10236X0.03937*%
%ADD60R,0.03937X0.10236*%
%ADD61R,0.12992X0.12992*%
%ADD62R,0.07874X0.09843*%
%ADD63R,0.07874X0.07874*%
%ADD64R,0.02756X0.02165*%
%ADD65R,0.10433X0.03150*%
%ADD66R,0.02165X0.02165*%
%ADD67R,0.02165X0.02756*%
%ADD68R,0.03150X0.10433*%
%ADD69R,0.02165X0.02165*%
%ADD70R,0.02756X0.01181*%
%ADD71R,0.02200X0.01575*%
%ADD72R,0.01575X0.02200*%
G04:AMPARAMS|DCode=73|XSize=22mil|YSize=15.75mil|CornerRadius=0mil|HoleSize=0mil|Usage=FLASHONLY|Rotation=83.000|XOffset=0mil|YOffset=0mil|HoleType=Round|Shape=Rectangle|*
%AMROTATEDRECTD73*
4,1,4,0.00648,-0.01188,-0.00916,-0.00996,-0.00648,0.01188,0.00916,0.00996,0.00648,-0.01188,0.0*
%
%ADD73ROTATEDRECTD73*%

G04:AMPARAMS|DCode=74|XSize=22mil|YSize=15.75mil|CornerRadius=0mil|HoleSize=0mil|Usage=FLASHONLY|Rotation=97.000|XOffset=0mil|YOffset=0mil|HoleType=Round|Shape=Rectangle|*
%AMROTATEDRECTD74*
4,1,4,0.00916,-0.00996,-0.00648,-0.01188,-0.00916,0.00996,0.00648,0.01188,0.00916,-0.00996,0.0*
%
%ADD74ROTATEDRECTD74*%

%ADD75R,0.01969X0.03543*%
%ADD76R,0.03543X0.01969*%
%ADD77R,0.01969X0.03347*%
%ADD78R,0.03347X0.01969*%
%ADD79R,0.06496X0.06496*%
%ADD80R,0.05906X0.05906*%
%ADD81R,0.05906X0.05906*%
%ADD82R,0.07874X0.31496*%
%ADD83C,0.01400*%
%ADD84C,0.01000*%
%ADD85C,0.07000*%
%ADD86C,0.02400*%
%ADD87C,0.01575*%
%ADD88C,0.01100*%
%ADD89C,0.07874*%
%ADD90C,0.02362*%
%ADD91C,0.09000*%
%ADD92C,0.02000*%
%ADD93C,0.02047*%
%ADD94C,0.01600*%
%ADD95C,0.01969*%
%ADD96C,0.01200*%
%ADD97C,0.05000*%
%ADD98C,0.03500*%
%ADD99C,0.02200*%
%ADD100C,0.00984*%
%ADD101R,0.12835X0.09900*%
%ADD102R,0.11900X0.24400*%
%ADD103R,0.10700X0.08011*%
%ADD104R,0.10800X0.14300*%
%ADD105R,0.14525X0.03200*%
%ADD106R,0.18522X0.03500*%
%ADD107R,0.00433X0.01700*%
%ADD108R,0.10800X0.20947*%
%ADD109R,0.12402X0.23701*%
%ADD110R,0.09900X0.12520*%
%ADD111R,0.13976X0.55984*%
%ADD112R,0.35039X0.34961*%
%ADD113C,0.06299*%
%ADD114R,0.06299X0.06299*%
%ADD115R,0.03937X0.03937*%
%ADD116C,0.03937*%
%ADD117R,0.03937X0.03937*%
%ADD118C,0.01400*%
%ADD119C,0.01200*%
%ADD120C,0.01800*%
%ADD121C,0.02000*%
%ADD122C,0.04000*%
%ADD123C,0.01969*%
%ADD124C,0.02598*%
%ADD125C,0.00787*%
%ADD126C,0.01000*%
%ADD127C,0.02500*%
%ADD128C,0.02362*%
%ADD129C,0.14961*%
%ADD130C,0.03000*%
%ADD131R,0.11900X0.14889*%
%ADD132C,0.06000*%
G36*
X11415Y194684D02*
X382282D01*
X382386Y194727D01*
X388882Y192036D01*
X391576Y185533D01*
X391534Y185431D01*
X391530D01*
X391534Y185421D01*
Y170862D01*
X375589D01*
Y171025D01*
X372551Y169766D01*
X372091Y168654D01*
X372090Y168654D01*
X371456Y167123D01*
Y167121D01*
X371293Y166729D01*
X371456D01*
Y140056D01*
X371456Y140056D01*
Y139662D01*
X371285D01*
X372574Y136549D01*
X375687Y135260D01*
Y135431D01*
X391534D01*
Y116226D01*
X391081Y116038D01*
X390894Y115587D01*
X359545D01*
X358015Y114953D01*
X357694Y114178D01*
X357007Y113894D01*
X356775Y113333D01*
X356275D01*
X355874Y114300D01*
X353425Y115314D01*
X351004Y114311D01*
X348583Y115314D01*
X346133Y114300D01*
X345119Y111850D01*
X346003Y109717D01*
X345119Y107583D01*
X346003Y105450D01*
X345119Y103317D01*
X346133Y100867D01*
X348583Y99853D01*
X351032Y100867D01*
X351032Y100867D01*
X351076D01*
Y100867D01*
X353525Y99853D01*
X355710Y100758D01*
X356125Y100480D01*
Y98404D01*
X355710Y98126D01*
X354134Y98779D01*
X351685Y97764D01*
X351636Y97646D01*
X351229D01*
X351229Y97646D01*
Y97646D01*
X348780Y98660D01*
X346330Y97646D01*
X345316Y95197D01*
X346241Y92964D01*
X345355Y90827D01*
X346177Y88843D01*
X345237Y86575D01*
X346252Y84126D01*
X348701Y83111D01*
X351150Y84126D01*
X351199Y84244D01*
X351527D01*
X351527Y84244D01*
Y84244D01*
X353976Y83229D01*
X356426Y84244D01*
X357440Y86693D01*
X357250Y87151D01*
X357355Y87256D01*
X357336Y87236D01*
X357826Y87138D01*
X358010Y86694D01*
X359541Y86060D01*
X390893D01*
X391081Y85607D01*
X391534Y85419D01*
Y74496D01*
X391081Y74308D01*
X390893Y73855D01*
X388876D01*
Y74009D01*
X385764Y72720D01*
X384749Y70270D01*
X384251Y70227D01*
X383552Y71329D01*
D01*
X383552Y71329D01*
X383552Y71329D01*
X381102Y72343D01*
X378653Y71329D01*
X378116Y70031D01*
X377616D01*
X377095Y71289D01*
X374646Y72304D01*
X372197Y71289D01*
X371182Y68840D01*
X372197Y66391D01*
X374646Y65377D01*
X377095Y66391D01*
X377632Y67688D01*
X378132D01*
X378653Y66430D01*
X381102Y65416D01*
X383552Y66430D01*
X384154Y67885D01*
X384644Y67787D01*
Y29072D01*
X384474D01*
X385764Y25959D01*
X388876Y24670D01*
Y24840D01*
X391050D01*
X391190Y24503D01*
X391526Y24363D01*
Y11416D01*
X391572Y11304D01*
X388882Y4810D01*
X382386Y2120D01*
X382282Y2163D01*
X11415D01*
X11308Y2119D01*
X4810Y4810D01*
X2118Y11309D01*
X2162Y11416D01*
X2162D01*
X2162Y11416D01*
Y185431D01*
X2162Y185431D01*
X2162D01*
X2118Y185538D01*
X4810Y192036D01*
X11308Y194728D01*
X11415Y194684D01*
D02*
G37*
G36*
X387903Y199013D02*
X392673Y195827D01*
X395860Y191057D01*
X396701Y186830D01*
X396701Y185431D01*
Y185431D01*
X396729Y183493D01*
Y183493D01*
D01*
X396948Y168698D01*
X395996Y166400D01*
X393927Y165543D01*
X393699Y165696D01*
Y165696D01*
X376622D01*
Y140597D01*
X393699Y140844D01*
X395996Y139892D01*
X396853Y137824D01*
X396701Y137595D01*
X396701D01*
X396897Y119975D01*
X396696Y115270D01*
X396644Y114343D01*
X395511Y111607D01*
X391917Y110119D01*
X391520Y110396D01*
X391508Y110421D01*
X391277Y110419D01*
X391277Y110419D01*
Y110419D01*
X359545Y110173D01*
X359545D01*
X358832Y110469D01*
Y111355D01*
X359309D01*
X359545Y111257D01*
X391626D01*
X391632Y111255D01*
Y111084D01*
X394745Y112374D01*
X396034Y115486D01*
X395864D01*
Y137595D01*
X395230Y139126D01*
X393699Y139760D01*
X376427D01*
X376239Y140214D01*
X375785Y140401D01*
Y165924D01*
X376216Y166102D01*
X376394Y166533D01*
X393699D01*
X395230Y167167D01*
X395864Y168698D01*
Y185431D01*
X395957D01*
X394916Y190666D01*
X391951Y195105D01*
X387512Y198070D01*
X382277Y199111D01*
Y199013D01*
X11415D01*
Y199111D01*
X6179Y198070D01*
X1741Y195105D01*
X-1224Y190666D01*
X-2265Y185431D01*
X-2167D01*
Y11416D01*
X-2265D01*
X-1224Y6180D01*
X1741Y1742D01*
X6179Y-1223D01*
X11415Y-2265D01*
Y-2167D01*
X382277D01*
Y-2265D01*
X387512Y-1223D01*
X391951Y1742D01*
X394916Y6180D01*
X395957Y11416D01*
X395859D01*
X395856Y11424D01*
Y25436D01*
X395985D01*
X394854Y28167D01*
X392123Y29298D01*
Y29169D01*
X389615D01*
X389428Y29623D01*
X388974Y29811D01*
Y68868D01*
X389428Y69055D01*
X389622Y69525D01*
X391632D01*
Y69355D01*
X394745Y70644D01*
X396034Y73757D01*
X395864D01*
X395864Y73757D01*
Y86158D01*
X396034D01*
X394745Y89271D01*
X391632Y90560D01*
Y90390D01*
X359541D01*
X359305Y90292D01*
X358832D01*
Y91180D01*
X359312Y91379D01*
X359541Y91227D01*
Y91227D01*
X391632Y91644D01*
X395511Y90038D01*
X396958Y86544D01*
X396701Y86158D01*
X396701D01*
Y73757D01*
X396701D01*
X396701Y72749D01*
X395511Y69877D01*
X392018Y68430D01*
X391632Y68688D01*
Y68688D01*
X389811D01*
Y30006D01*
X392123Y30253D01*
X392245Y30203D01*
Y30203D01*
X392364Y30282D01*
X395620Y28933D01*
X396925Y25784D01*
X396692Y25436D01*
X396692D01*
X396878Y11575D01*
X396943Y11416D01*
X396943Y11416D01*
X396943D01*
X396972Y11381D01*
X395860Y5790D01*
X392673Y1020D01*
X387903Y-2167D01*
X383736Y-2996D01*
X382282Y-3003D01*
X382183Y-3003D01*
X382183Y-3003D01*
X382183Y-3003D01*
X11415Y-3286D01*
X5789Y-2167D01*
X1019Y1020D01*
X-2167Y5790D01*
X-2952Y9731D01*
X-3004Y11416D01*
X-3004Y11416D01*
X-3004Y11416D01*
X-3004Y11446D01*
X-3004Y11446D01*
X-3004Y11446D01*
X-3248Y185431D01*
X-3248D01*
Y185434D01*
X-3248Y185434D01*
X-3248Y185434D01*
X-3248Y185441D01*
X-3248Y185441D01*
X-3282Y185455D01*
X-2167Y191057D01*
X1019Y195827D01*
X5789Y199013D01*
X11138Y200077D01*
X11415Y199850D01*
Y199850D01*
X382282Y200097D01*
D01*
Y200097D01*
X382282D01*
D01*
D01*
D01*
D01*
D01*
X382283D01*
X382283Y200097D01*
D01*
X382283Y200099D01*
X382316Y200125D01*
X387903Y199013D01*
D02*
G37*
%LPC*%
G36*
X203545Y95275D02*
X201938Y94610D01*
X201272Y93002D01*
X201938Y91395D01*
X202206Y91284D01*
X202398Y90822D01*
X201881Y89573D01*
X202546Y87966D01*
X204015Y87358D01*
Y86877D01*
X204015D01*
Y86858D01*
X202378Y86180D01*
X201623Y84357D01*
X202378Y82535D01*
X204200Y81780D01*
X206022Y82535D01*
X206777Y84357D01*
X206022Y86180D01*
X204339Y86877D01*
Y87358D01*
X204339D01*
Y87377D01*
X205761Y87966D01*
X206427Y89573D01*
X205761Y91180D01*
X205166Y91427D01*
X205818Y93002D01*
X205152Y94610D01*
X203545Y95275D01*
D02*
G37*
G36*
X188400Y85092D02*
X186511Y84309D01*
X185728Y82420D01*
X186511Y80531D01*
X188400Y79748D01*
X190289Y80531D01*
X191072Y82420D01*
X190289Y84309D01*
X188400Y85092D01*
D02*
G37*
G36*
X168550Y91713D02*
X166943Y91047D01*
X166277Y89440D01*
X166943Y87833D01*
X168550Y87167D01*
X169468Y87547D01*
X169821Y87194D01*
X169495Y86407D01*
X170040Y85094D01*
X169848Y84632D01*
X169815Y84618D01*
X169149Y83011D01*
X169815Y81403D01*
X171422Y80738D01*
X173029Y81403D01*
X173695Y83011D01*
X173151Y84324D01*
X173342Y84786D01*
X173376Y84800D01*
X174042Y86407D01*
X173376Y88014D01*
X171769Y88680D01*
X170851Y88300D01*
X170497Y88654D01*
X170823Y89440D01*
X170157Y91047D01*
X168550Y91713D01*
D02*
G37*
G36*
X219866Y88146D02*
X218259Y87480D01*
X217593Y85873D01*
X218259Y84266D01*
X219866Y83600D01*
X221473Y84266D01*
X222139Y85873D01*
X221473Y87480D01*
X219866Y88146D01*
D02*
G37*
G36*
X250500Y90072D02*
X248611Y89289D01*
X247828Y87400D01*
X248611Y85511D01*
X250500Y84728D01*
X252389Y85511D01*
X253172Y87400D01*
X252389Y89289D01*
X250500Y90072D01*
D02*
G37*
G36*
X300590Y88563D02*
X299213Y87992D01*
X298642Y86614D01*
X299213Y85237D01*
X300590Y84666D01*
X301968Y85237D01*
X302539Y86614D01*
X301968Y87992D01*
X300590Y88563D01*
D02*
G37*
G36*
X238966Y88146D02*
X237359Y87480D01*
X236693Y85873D01*
X237359Y84266D01*
X238966Y83600D01*
X240573Y84266D01*
X241239Y85873D01*
X240573Y87480D01*
X238966Y88146D01*
D02*
G37*
G36*
X322622Y83409D02*
X321244Y82838D01*
X320674Y81461D01*
X321244Y80083D01*
X322622Y79512D01*
X324000Y80083D01*
X324570Y81461D01*
X324000Y82838D01*
X322622Y83409D01*
D02*
G37*
G36*
X176811Y72357D02*
X174922Y71574D01*
X174139Y69685D01*
X174922Y67796D01*
X176811Y67013D01*
X178700Y67796D01*
X179483Y69685D01*
X178700Y71574D01*
X176811Y72357D01*
D02*
G37*
G36*
X66272Y72934D02*
X64665Y72268D01*
X63999Y70661D01*
X64665Y69053D01*
X66272Y68388D01*
X67879Y69053D01*
X68545Y70661D01*
X67879Y72268D01*
X66272Y72934D01*
D02*
G37*
G36*
X73550Y69734D02*
X71943Y69068D01*
X71277Y67461D01*
X71799Y66201D01*
X71445Y65848D01*
X70272Y66334D01*
X68665Y65668D01*
X67999Y64061D01*
X68665Y62453D01*
X70272Y61788D01*
X71879Y62453D01*
X72545Y64061D01*
X72023Y65320D01*
X72377Y65674D01*
X73342Y65274D01*
X73456Y65000D01*
X73456Y65000D01*
X73456D01*
X74232Y63125D01*
X76108Y62348D01*
X77983Y63125D01*
X78759Y65000D01*
X77983Y66875D01*
X76108Y67652D01*
X76108Y67652D01*
X76108Y67652D01*
X75669Y67834D01*
X75157Y69068D01*
X73550Y69734D01*
D02*
G37*
G36*
X273516Y70233D02*
X271627Y69450D01*
X270844Y67561D01*
X271081Y66987D01*
X270728Y66634D01*
X269822Y67009D01*
X268444Y66438D01*
X267874Y65061D01*
X268444Y63683D01*
X269822Y63112D01*
X270728Y63488D01*
X271081Y63134D01*
X270844Y62561D01*
X271627Y60671D01*
X272497Y60311D01*
Y59811D01*
X271627Y59450D01*
X270844Y57561D01*
X271627Y55671D01*
X272497Y55311D01*
Y54811D01*
X271627Y54450D01*
X270844Y52561D01*
X270895Y52437D01*
X270542Y52084D01*
X269998Y52309D01*
X268620Y51738D01*
X268049Y50361D01*
X268620Y48983D01*
X269998Y48412D01*
X270842Y48762D01*
X271195Y48408D01*
X270844Y47561D01*
X271627Y45671D01*
X273516Y44889D01*
X275405Y45671D01*
X276188Y47561D01*
X276081Y47820D01*
X276434Y48173D01*
X276822Y48012D01*
X278200Y48583D01*
X278770Y49961D01*
X278200Y51338D01*
X276822Y51909D01*
X276334Y51707D01*
X275981Y52060D01*
X276188Y52561D01*
X276022Y52961D01*
X276376Y53315D01*
X276622Y53212D01*
X278000Y53783D01*
X278570Y55161D01*
X278000Y56538D01*
X276622Y57109D01*
X276476Y57048D01*
X276128Y57396D01*
Y57416D01*
X276188Y57561D01*
X276128Y57705D01*
Y57896D01*
X276426Y58194D01*
X276622Y58112D01*
X278000Y58683D01*
X278570Y60061D01*
X278000Y61438D01*
X276622Y62009D01*
X276426Y61928D01*
X276072Y62281D01*
X276188Y62561D01*
X276072Y62840D01*
X276426Y63194D01*
X276622Y63112D01*
X278000Y63683D01*
X278570Y65061D01*
X278000Y66438D01*
X276622Y67009D01*
X276426Y66928D01*
X276072Y67281D01*
X276188Y67561D01*
X275405Y69450D01*
X273516Y70233D01*
D02*
G37*
G36*
X180600Y82352D02*
X178725Y81575D01*
X177948Y79700D01*
X178725Y77825D01*
X180600Y77048D01*
X182475Y77825D01*
X183252Y79700D01*
X182475Y81575D01*
X180600Y82352D01*
D02*
G37*
G36*
X167006Y81662D02*
X165629Y81092D01*
X165058Y79714D01*
X165629Y78337D01*
X167006Y77766D01*
X168384Y78337D01*
X168955Y79714D01*
X168384Y81092D01*
X167006Y81662D01*
D02*
G37*
G36*
X353110Y72972D02*
X351733Y72401D01*
X351162Y71024D01*
X351733Y69646D01*
X353110Y69075D01*
X354488Y69646D01*
X355059Y71024D01*
X354488Y72401D01*
X353110Y72972D01*
D02*
G37*
G36*
X16260Y79822D02*
X14882Y79252D01*
X14311Y77874D01*
X14882Y76496D01*
X16260Y75926D01*
X17638Y76496D01*
X18208Y77874D01*
X17638Y79252D01*
X16260Y79822D01*
D02*
G37*
G36*
X236447Y102546D02*
X234839Y101881D01*
X234174Y100273D01*
X234839Y98666D01*
X236447Y98000D01*
X238054Y98666D01*
X238720Y100273D01*
X238054Y101881D01*
X236447Y102546D01*
D02*
G37*
G36*
X273222Y104109D02*
X271844Y103538D01*
X271274Y102161D01*
X271844Y100783D01*
X273222Y100212D01*
X273936Y100508D01*
X274398Y100317D01*
X274709Y99566D01*
X276316Y98900D01*
X277923Y99566D01*
X278589Y101173D01*
X277923Y102780D01*
X276316Y103446D01*
X274884Y102853D01*
X274600Y103538D01*
X273222Y104109D01*
D02*
G37*
G36*
X287922Y100509D02*
X286544Y99938D01*
X285974Y98561D01*
X286544Y97183D01*
X287922Y96612D01*
X289300Y97183D01*
X289870Y98561D01*
X289300Y99938D01*
X287922Y100509D01*
D02*
G37*
G36*
X204620Y106263D02*
X203013Y105597D01*
X202347Y103990D01*
X203013Y102383D01*
X203057Y102364D01*
Y101864D01*
X201543Y101237D01*
X200877Y99630D01*
X201543Y98023D01*
X203150Y97357D01*
X204757Y98023D01*
X205423Y99630D01*
X204757Y101237D01*
X204713Y101256D01*
Y101756D01*
X206227Y102383D01*
X206893Y103990D01*
X206227Y105597D01*
X204620Y106263D01*
D02*
G37*
G36*
X288740Y108808D02*
X287133Y108143D01*
X286467Y106535D01*
X287133Y104928D01*
X288740Y104262D01*
X290347Y104928D01*
X291013Y106535D01*
X290347Y108143D01*
X288740Y108808D01*
D02*
G37*
G36*
X130922Y108934D02*
X129315Y108268D01*
X128649Y106661D01*
X129315Y105053D01*
X130922Y104388D01*
X132529Y105053D01*
X133195Y106661D01*
X132529Y108268D01*
X130922Y108934D01*
D02*
G37*
G36*
X308622Y106124D02*
X306173Y105110D01*
X305158Y102661D01*
X306173Y100212D01*
X308622Y99197D01*
X311071Y100212D01*
X312086Y102661D01*
X311071Y105110D01*
X308622Y106124D01*
D02*
G37*
G36*
X236727Y120635D02*
X235120Y119969D01*
X234454Y118362D01*
X235120Y116755D01*
X234928Y116292D01*
X233350Y115639D01*
X232685Y114032D01*
X233350Y112424D01*
X233637Y112305D01*
Y111805D01*
X233387Y111702D01*
X232722Y110094D01*
X233387Y108487D01*
X233659Y108375D01*
Y107875D01*
X233393Y107765D01*
X232727Y106157D01*
X233393Y104550D01*
X235000Y103884D01*
X236607Y104550D01*
X237247Y106095D01*
X238270Y106519D01*
X238936Y108126D01*
X238270Y109733D01*
X237983Y109852D01*
Y110352D01*
X238233Y110456D01*
X238899Y112063D01*
X238233Y113670D01*
X237204Y114097D01*
X236565Y115639D01*
X236544Y115647D01*
X236727Y116089D01*
X238334Y116755D01*
X239000Y118362D01*
X238334Y119969D01*
X236727Y120635D01*
D02*
G37*
G36*
X304022Y100209D02*
X302644Y99638D01*
X302074Y98261D01*
X302644Y96883D01*
X304022Y96312D01*
X305400Y96883D01*
X305970Y98261D01*
X305400Y99638D01*
X304022Y100209D01*
D02*
G37*
G36*
X304646Y94202D02*
X303038Y93536D01*
X302373Y91929D01*
X303038Y90322D01*
X304646Y89656D01*
X306253Y90322D01*
X306919Y91929D01*
X306253Y93536D01*
X304646Y94202D01*
D02*
G37*
G36*
X314316Y96021D02*
X312938Y95451D01*
X312368Y94073D01*
X312938Y92696D01*
X314316Y92125D01*
X315694Y92696D01*
X316264Y94073D01*
X315694Y95451D01*
X314316Y96021D01*
D02*
G37*
G36*
X283522Y89209D02*
X282144Y88638D01*
X281574Y87261D01*
X281574Y87261D01*
X281574D01*
X281471Y87157D01*
X280622Y87509D01*
X279244Y86938D01*
X278674Y85561D01*
X279244Y84183D01*
X280622Y83612D01*
X282000Y84183D01*
X282570Y85561D01*
X282570Y85561D01*
X282570D01*
X282674Y85664D01*
X283522Y85312D01*
X284900Y85883D01*
X285470Y87261D01*
X284900Y88638D01*
X283522Y89209D01*
D02*
G37*
G36*
X274916Y91721D02*
X273538Y91151D01*
X272968Y89773D01*
X273538Y88396D01*
X274916Y87825D01*
X276294Y88396D01*
X276864Y89773D01*
X276294Y91151D01*
X274916Y91721D01*
D02*
G37*
G36*
X196930Y97793D02*
X195323Y97127D01*
X194657Y95520D01*
X195323Y93913D01*
X196930Y93247D01*
X198537Y93913D01*
X199203Y95520D01*
X198537Y97127D01*
X196930Y97793D01*
D02*
G37*
G36*
X250500Y98672D02*
X248611Y97889D01*
X247828Y96000D01*
X248611Y94111D01*
X250500Y93328D01*
X252389Y94111D01*
X253172Y96000D01*
X252389Y97889D01*
X250500Y98672D01*
D02*
G37*
G36*
X261700Y99251D02*
X259251Y98237D01*
X258236Y95787D01*
X259251Y93338D01*
X261700Y92324D01*
X264149Y93338D01*
X265164Y95787D01*
X264149Y98237D01*
X261700Y99251D01*
D02*
G37*
G36*
X321110Y96873D02*
X319503Y96207D01*
X318837Y94600D01*
X319503Y92993D01*
X321110Y92327D01*
X322717Y92993D01*
X323383Y94600D01*
X322717Y96207D01*
X321110Y96873D01*
D02*
G37*
G36*
X388222Y24109D02*
X386844Y23538D01*
X386274Y22161D01*
X386844Y20783D01*
X388222Y20212D01*
X389600Y20783D01*
X390170Y22161D01*
X389600Y23538D01*
X388222Y24109D01*
D02*
G37*
G36*
X250222Y28274D02*
X247922Y27322D01*
X245622Y28274D01*
X243173Y27260D01*
X242158Y24811D01*
X243101Y22536D01*
X242158Y20261D01*
X243101Y17986D01*
X242158Y15711D01*
X243173Y13262D01*
X245622Y12247D01*
X247922Y13200D01*
X250222Y12247D01*
X252671Y13262D01*
X253686Y15711D01*
X252743Y17986D01*
X253686Y20261D01*
X252743Y22536D01*
X253686Y24811D01*
X252671Y27260D01*
X250222Y28274D01*
D02*
G37*
G36*
X237953Y24483D02*
X236064Y23700D01*
X235281Y21811D01*
X236064Y19922D01*
X237953Y19139D01*
X239842Y19922D01*
X240625Y21811D01*
X239842Y23700D01*
X237953Y24483D01*
D02*
G37*
G36*
X333222Y24109D02*
X331844Y23538D01*
X331274Y22161D01*
X331844Y20783D01*
X333222Y20212D01*
X334600Y20783D01*
X335170Y22161D01*
X334600Y23538D01*
X333222Y24109D01*
D02*
G37*
G36*
X122222Y35524D02*
X122222Y35524D01*
D01*
X119772Y34510D01*
X117322Y35524D01*
D01*
X117322Y35524D01*
X117322Y35524D01*
X114873Y34510D01*
X113858Y32061D01*
X114687Y30061D01*
X113858Y28061D01*
X114873Y25611D01*
X117322Y24597D01*
X117322Y24597D01*
X117322Y24597D01*
D01*
X119772Y25611D01*
X122222Y24597D01*
D01*
X122222Y24597D01*
X122222Y24597D01*
X124671Y25611D01*
X125686Y28061D01*
X124857Y30061D01*
X125686Y32061D01*
X124671Y34510D01*
X122222Y35524D01*
X122222Y35524D01*
D02*
G37*
G36*
X65972Y47334D02*
X64365Y46668D01*
X63699Y45061D01*
X64365Y43453D01*
X65972Y42788D01*
X67072Y43243D01*
X67425Y42890D01*
X66999Y41861D01*
X67665Y40253D01*
X68393Y39952D01*
X68584Y39490D01*
X68199Y38561D01*
X68865Y36953D01*
X70472Y36288D01*
X72079Y36953D01*
X72745Y38561D01*
X72079Y40168D01*
X71351Y40470D01*
X71160Y40931D01*
X71545Y41861D01*
X70879Y43468D01*
X69272Y44134D01*
X68173Y43678D01*
X67819Y44032D01*
X68245Y45061D01*
X67579Y46668D01*
X65972Y47334D01*
D02*
G37*
G36*
X64600Y35063D02*
X62993Y34397D01*
X62327Y32790D01*
X62993Y31183D01*
X64600Y30517D01*
X66207Y31183D01*
X66873Y32790D01*
X66207Y34397D01*
X64600Y35063D01*
D02*
G37*
G36*
X80472Y36813D02*
X78597Y36036D01*
X77820Y34161D01*
X78597Y32286D01*
X80472Y31509D01*
X82347Y32286D01*
X83124Y34161D01*
X82347Y36036D01*
X80472Y36813D01*
D02*
G37*
G36*
X378222Y9109D02*
X376844Y8538D01*
X376274Y7161D01*
X376844Y5783D01*
X378222Y5212D01*
X379600Y5783D01*
X380170Y7161D01*
X379600Y8538D01*
X378222Y9109D01*
D02*
G37*
G36*
X308222Y10309D02*
X306844Y9738D01*
X306274Y8361D01*
X306844Y6983D01*
X308222Y6412D01*
X309600Y6983D01*
X310170Y8361D01*
X309600Y9738D01*
X308222Y10309D01*
D02*
G37*
G36*
X339022Y16649D02*
X336343Y15540D01*
X335234Y12861D01*
X336343Y10182D01*
X337974Y9506D01*
Y9006D01*
X336844Y8538D01*
X336274Y7161D01*
X336844Y5783D01*
X338222Y5212D01*
X339600Y5783D01*
X340170Y7161D01*
X339600Y8538D01*
X339270Y8675D01*
Y9175D01*
X341701Y10182D01*
X342811Y12861D01*
X341701Y15540D01*
X339022Y16649D01*
D02*
G37*
G36*
X363222Y9109D02*
X361844Y8538D01*
X361274Y7161D01*
X361844Y5783D01*
X363222Y5212D01*
X364600Y5783D01*
X365170Y7161D01*
X364600Y8538D01*
X363222Y9109D01*
D02*
G37*
G36*
X369022Y16649D02*
X366343Y15540D01*
X365234Y12861D01*
X366343Y10182D01*
X369022Y9072D01*
X371701Y10182D01*
X372811Y12861D01*
X371701Y15540D01*
X369022Y16649D01*
D02*
G37*
G36*
X323922Y17409D02*
X322544Y16838D01*
X322070Y15692D01*
X321701Y15540D01*
D01*
D01*
X319022Y16649D01*
X316343Y15540D01*
X315234Y12861D01*
X316343Y10182D01*
X319022Y9072D01*
X321701Y10182D01*
X322811Y12861D01*
X322504Y13600D01*
X322858Y13953D01*
X323922Y13512D01*
X325228Y14053D01*
X325581Y13700D01*
X325234Y12861D01*
X326343Y10182D01*
X329022Y9072D01*
X331701Y10182D01*
X332810Y12861D01*
X331701Y15540D01*
X329022Y16649D01*
X326343Y15540D01*
X326341Y15533D01*
X325840D01*
X325300Y16838D01*
X323922Y17409D01*
D02*
G37*
G36*
X349022Y16649D02*
X346343Y15540D01*
X345234Y12861D01*
X346343Y10182D01*
X349022Y9072D01*
X351701Y10182D01*
X352811Y12861D01*
X351701Y15540D01*
X349022Y16649D01*
D02*
G37*
G36*
X359022D02*
X356343Y15540D01*
X355234Y12861D01*
X356343Y10182D01*
X359022Y9072D01*
X361701Y10182D01*
X362810Y12861D01*
X361701Y15540D01*
X359022Y16649D01*
D02*
G37*
G36*
X112022Y43590D02*
X109597Y42586D01*
X108592Y40161D01*
X109597Y37736D01*
X112022Y36731D01*
X114447Y37736D01*
X115452Y40161D01*
X114447Y42586D01*
X112022Y43590D01*
D02*
G37*
G36*
X196400Y69864D02*
X193951Y68849D01*
X192936Y66400D01*
X193951Y63951D01*
X196400Y62936D01*
X198849Y63951D01*
X199864Y66400D01*
X198849Y68849D01*
X196400Y69864D01*
D02*
G37*
G36*
X217850Y67048D02*
X216472Y66478D01*
X215902Y65100D01*
X216472Y63722D01*
X217850Y63152D01*
X219228Y63722D01*
X219798Y65100D01*
X219228Y66478D01*
X217850Y67048D01*
D02*
G37*
G36*
X325394Y62106D02*
X324016Y61535D01*
X323445Y60158D01*
X324016Y58780D01*
X325394Y58209D01*
X326771Y58780D01*
X327342Y60158D01*
X326771Y61535D01*
X325394Y62106D01*
D02*
G37*
G36*
X102422Y59324D02*
X102422Y59324D01*
D01*
X99972Y58310D01*
X97522Y59324D01*
D01*
X97522Y59324D01*
X97522Y59324D01*
X95073Y58310D01*
X94058Y55861D01*
X94949Y53711D01*
X94058Y51561D01*
X94949Y49411D01*
X94058Y47261D01*
X95073Y44811D01*
X97522Y43797D01*
X97522Y43797D01*
X97522Y43797D01*
D01*
X99972Y44811D01*
X102422Y43797D01*
D01*
X102422Y43797D01*
X102422Y43797D01*
X104871Y44811D01*
X105886Y47261D01*
X104995Y49411D01*
X105886Y51561D01*
X104995Y53711D01*
X105886Y55861D01*
X104871Y58310D01*
X102422Y59324D01*
X102422Y59324D01*
D02*
G37*
G36*
X36496Y69654D02*
X34889Y68988D01*
X34223Y67381D01*
X34889Y65774D01*
X36496Y65108D01*
X38103Y65774D01*
X38769Y67381D01*
X38103Y68988D01*
X36496Y69654D01*
D02*
G37*
G36*
X323622Y69035D02*
X322244Y68464D01*
X321674Y67087D01*
X322244Y65709D01*
X323622Y65138D01*
X325000Y65709D01*
X325570Y67087D01*
X325000Y68464D01*
X323622Y69035D01*
D02*
G37*
G36*
X23022Y70033D02*
X21147Y69256D01*
X20370Y67381D01*
X21147Y65506D01*
X23022Y64729D01*
X24897Y65506D01*
X25674Y67381D01*
X24897Y69256D01*
X23022Y70033D01*
D02*
G37*
G36*
X185878Y71964D02*
X183429Y70949D01*
X182414Y68500D01*
X183429Y66051D01*
X185878Y65036D01*
X188327Y66051D01*
X189342Y68500D01*
X188327Y70949D01*
X185878Y71964D01*
D02*
G37*
G36*
X324922Y43909D02*
X323544Y43338D01*
X322974Y41961D01*
X323544Y40583D01*
X324922Y40012D01*
X326300Y40583D01*
X326870Y41961D01*
X326300Y43338D01*
X324922Y43909D01*
D02*
G37*
G36*
X283222Y46109D02*
X281844Y45538D01*
X281274Y44161D01*
X281844Y42783D01*
X283222Y42212D01*
X284600Y42783D01*
X285170Y44161D01*
X284600Y45538D01*
X283222Y46109D01*
D02*
G37*
G36*
X346378Y40649D02*
X345000Y40078D01*
X344430Y38701D01*
X345000Y37323D01*
X346378Y36753D01*
X347756Y37323D01*
X348326Y38701D01*
X347756Y40078D01*
X346378Y40649D01*
D02*
G37*
G36*
X313013Y40958D02*
X310680Y39992D01*
X308347Y40958D01*
X305897Y39944D01*
X304883Y37495D01*
X305897Y35045D01*
X305954Y35022D01*
X305058Y32861D01*
X306042Y30486D01*
X305058Y28111D01*
X306042Y25736D01*
X305058Y23361D01*
X306073Y20911D01*
X308522Y19897D01*
X310822Y20850D01*
X313122Y19897D01*
X315571Y20911D01*
X316586Y23361D01*
X315602Y25736D01*
X316586Y28111D01*
X315602Y30486D01*
X316586Y32861D01*
X315572Y35309D01*
X316477Y37495D01*
X315462Y39944D01*
X313013Y40958D01*
D02*
G37*
G36*
X64540Y60643D02*
X62933Y59977D01*
X62267Y58370D01*
X62933Y56763D01*
X64540Y56097D01*
X66147Y56763D01*
X66813Y58370D01*
X66147Y59977D01*
X64540Y60643D01*
D02*
G37*
G36*
X350512Y61948D02*
X349134Y61378D01*
X348564Y60000D01*
X349134Y58622D01*
X350512Y58052D01*
X351889Y58622D01*
X352460Y60000D01*
X351889Y61378D01*
X350512Y61948D01*
D02*
G37*
G36*
X378422Y51934D02*
X376815Y51268D01*
X376149Y49661D01*
X376815Y48053D01*
X378422Y47388D01*
X380029Y48053D01*
X380695Y49661D01*
X380029Y51268D01*
X378422Y51934D01*
D02*
G37*
G36*
X21732Y51594D02*
X20355Y51023D01*
X19784Y49646D01*
X20355Y48268D01*
X21732Y47697D01*
X23110Y48268D01*
X23681Y49646D01*
X23110Y51023D01*
X21732Y51594D01*
D02*
G37*
G36*
X280522Y109184D02*
X279144Y108613D01*
X278574Y107235D01*
X279144Y105858D01*
X280522Y105287D01*
X281900Y105858D01*
X282470Y107235D01*
X281900Y108613D01*
X280522Y109184D01*
D02*
G37*
G36*
X13400Y172248D02*
X12022Y171678D01*
X11452Y170300D01*
X12022Y168922D01*
X13400Y168352D01*
X14778Y168922D01*
X15348Y170300D01*
X14778Y171678D01*
X13400Y172248D01*
D02*
G37*
G36*
X191622Y175524D02*
X189173Y174510D01*
X188158Y172061D01*
X189173Y169612D01*
X191622Y168597D01*
X194071Y169612D01*
X195086Y172061D01*
X194071Y174510D01*
X191622Y175524D01*
D02*
G37*
G36*
X303222Y169109D02*
X301844Y168538D01*
X301274Y167161D01*
X301844Y165783D01*
X303222Y165212D01*
X304600Y165783D01*
X305170Y167161D01*
X304600Y168538D01*
X303222Y169109D01*
D02*
G37*
G36*
X273465Y170262D02*
X271575Y169480D01*
X270793Y167591D01*
X271575Y165701D01*
X272446Y165341D01*
Y164841D01*
X271575Y164480D01*
X270793Y162591D01*
X271575Y160701D01*
X272446Y160341D01*
Y159841D01*
X271575Y159480D01*
X270793Y157591D01*
X271575Y155701D01*
X272446Y155341D01*
Y154841D01*
X271575Y154480D01*
X270793Y152591D01*
X271575Y150701D01*
X272446Y150341D01*
Y149841D01*
X271575Y149480D01*
X270793Y147591D01*
X271575Y145701D01*
X273465Y144919D01*
X275354Y145701D01*
X276136Y147591D01*
X275354Y149480D01*
X274483Y149841D01*
Y150341D01*
X275354Y150701D01*
X276136Y152591D01*
X275354Y154480D01*
X274483Y154841D01*
Y155341D01*
X275354Y155701D01*
X276136Y157591D01*
X275354Y159480D01*
X274483Y159841D01*
Y160341D01*
X275354Y160701D01*
X276136Y162591D01*
X275354Y164480D01*
X274483Y164841D01*
Y165341D01*
X275354Y165701D01*
X275859Y166920D01*
X276359Y166920D01*
X276699Y166099D01*
X278000Y165560D01*
X279301Y166099D01*
X279840Y167400D01*
X279301Y168701D01*
X278000Y169240D01*
X276699Y168701D01*
X276438Y168070D01*
X275938D01*
X275354Y169480D01*
X273465Y170262D01*
D02*
G37*
G36*
X128230Y174898D02*
X126852Y174328D01*
X126282Y172950D01*
X126852Y171572D01*
X128230Y171002D01*
X129608Y171572D01*
X130178Y172950D01*
X129608Y174328D01*
X128230Y174898D01*
D02*
G37*
G36*
X370222Y175834D02*
X368615Y175168D01*
X367949Y173561D01*
X368615Y171953D01*
X370222Y171288D01*
X371829Y171953D01*
X372495Y173561D01*
X371829Y175168D01*
X370222Y175834D01*
D02*
G37*
G36*
X123976Y173769D02*
X122369Y173103D01*
X121703Y171496D01*
X122369Y169889D01*
X123976Y169223D01*
X125584Y169889D01*
X126249Y171496D01*
X125584Y173103D01*
X123976Y173769D01*
D02*
G37*
G36*
X321522Y177624D02*
X319073Y176610D01*
X318058Y174161D01*
X319073Y171712D01*
X321522Y170697D01*
X323971Y171712D01*
X324986Y174161D01*
X323971Y176610D01*
X321522Y177624D01*
D02*
G37*
G36*
X341390Y161946D02*
X339783Y161281D01*
X339117Y159673D01*
X339783Y158066D01*
X341390Y157400D01*
X342997Y158066D01*
X343663Y159673D01*
X342997Y161281D01*
X341390Y161946D01*
D02*
G37*
G36*
X291722Y160834D02*
X290115Y160168D01*
X289449Y158561D01*
X289704Y157946D01*
X289350Y157592D01*
X287836Y158220D01*
X286229Y157554D01*
X285563Y155947D01*
X286229Y154339D01*
X287836Y153674D01*
X289444Y154339D01*
X290109Y155947D01*
X289855Y156561D01*
X290208Y156915D01*
X291722Y156288D01*
X293329Y156953D01*
X293995Y158561D01*
X293329Y160168D01*
X291722Y160834D01*
D02*
G37*
G36*
X299252Y155777D02*
X297951Y155238D01*
X297475Y154088D01*
X297330Y154028D01*
X297330Y154028D01*
Y154028D01*
X295952Y153458D01*
X295382Y152080D01*
X295952Y150702D01*
X297330Y150132D01*
X298708Y150702D01*
X299278Y152080D01*
X299278Y152080D01*
X299278Y152080D01*
X299292Y152114D01*
X300553Y152636D01*
X301092Y153937D01*
X300553Y155238D01*
X299252Y155777D01*
D02*
G37*
G36*
X308222Y159109D02*
X306844Y158538D01*
X306274Y157161D01*
X306844Y155783D01*
X308222Y155212D01*
X309600Y155783D01*
X310170Y157161D01*
X309600Y158538D01*
X308222Y159109D01*
D02*
G37*
G36*
X64646Y168184D02*
X62756Y167401D01*
X61974Y165512D01*
X62756Y163622D01*
X64646Y162840D01*
X66535Y163622D01*
X67318Y165512D01*
X66535Y167401D01*
X64646Y168184D01*
D02*
G37*
G36*
X339016Y172588D02*
X337408Y171922D01*
X336743Y170315D01*
X337408Y168708D01*
X338256Y168357D01*
Y167857D01*
X337330Y167473D01*
X336664Y165866D01*
X337330Y164259D01*
X338937Y163593D01*
X340544Y164259D01*
X340931Y165193D01*
X341431D01*
X341818Y164259D01*
X343425Y163593D01*
X345033Y164259D01*
X345698Y165866D01*
X345033Y167473D01*
X344213Y167813D01*
Y168313D01*
X345072Y168668D01*
X345738Y170276D01*
X345072Y171883D01*
X343465Y172549D01*
X341857Y171883D01*
X341498Y171016D01*
X340998D01*
X340623Y171922D01*
X339016Y172588D01*
D02*
G37*
G36*
X349916Y163846D02*
X348309Y163180D01*
X347643Y161573D01*
X348309Y159966D01*
X349916Y159300D01*
X351523Y159966D01*
X352189Y161573D01*
X351523Y163180D01*
X349916Y163846D01*
D02*
G37*
G36*
X362888Y164111D02*
X361280Y163445D01*
X360614Y161838D01*
X361280Y160231D01*
X362888Y159565D01*
X364495Y160231D01*
X365161Y161838D01*
X364495Y163445D01*
X362888Y164111D01*
D02*
G37*
G36*
X386903Y175922D02*
X385296Y175256D01*
X384630Y173649D01*
X385296Y172041D01*
X386903Y171376D01*
X388511Y172041D01*
X389176Y173649D01*
X388511Y175256D01*
X386903Y175922D01*
D02*
G37*
G36*
X276378Y189930D02*
X273699Y188821D01*
X272590Y186142D01*
X273699Y183463D01*
X276378Y182353D01*
X279057Y183463D01*
X280166Y186142D01*
X279057Y188821D01*
X276378Y189930D01*
D02*
G37*
G36*
X286378D02*
X283699Y188821D01*
X282590Y186142D01*
X283699Y183463D01*
X286378Y182353D01*
X289057Y183463D01*
X290166Y186142D01*
X289057Y188821D01*
X286378Y189930D01*
D02*
G37*
G36*
X125787Y183966D02*
X124180Y183300D01*
X123514Y181693D01*
X124180Y180086D01*
X125787Y179420D01*
X127395Y180086D01*
X128060Y181693D01*
X127395Y183300D01*
X125787Y183966D01*
D02*
G37*
G36*
X96142Y184389D02*
X94764Y183819D01*
X94193Y182441D01*
X94764Y181063D01*
X96142Y180493D01*
X97519Y181063D01*
X98090Y182441D01*
X97519Y183819D01*
X96142Y184389D01*
D02*
G37*
G36*
X317722Y189949D02*
X315043Y188839D01*
X313934Y186161D01*
X315043Y183482D01*
X317722Y182372D01*
X320401Y183482D01*
X321511Y186161D01*
X320401Y188839D01*
X317722Y189949D01*
D02*
G37*
G36*
X353722Y189133D02*
X351833Y188350D01*
X351472Y187479D01*
X350972D01*
X350611Y188350D01*
X348722Y189133D01*
X346833Y188350D01*
X346050Y186461D01*
X346833Y184571D01*
X348722Y183789D01*
X350611Y184571D01*
X350972Y185442D01*
X351472D01*
X351833Y184571D01*
X353722Y183789D01*
X355611Y184571D01*
X356394Y186461D01*
X355611Y188350D01*
X353722Y189133D01*
D02*
G37*
G36*
X297722Y189949D02*
X295043Y188839D01*
X293934Y186161D01*
X295043Y183482D01*
X297722Y182372D01*
X300401Y183482D01*
X301511Y186161D01*
X300401Y188839D01*
X297722Y189949D01*
D02*
G37*
G36*
X307722D02*
X305043Y188839D01*
X303934Y186161D01*
X305043Y183482D01*
X307722Y182372D01*
X310401Y183482D01*
X311510Y186161D01*
X310401Y188839D01*
X307722Y189949D01*
D02*
G37*
G36*
X343500Y179263D02*
X341893Y178597D01*
X341227Y176990D01*
X341893Y175383D01*
X343500Y174717D01*
X345107Y175383D01*
X345773Y176990D01*
X345107Y178597D01*
X343500Y179263D01*
D02*
G37*
G36*
X338016Y179546D02*
X336409Y178881D01*
X335743Y177273D01*
X336409Y175666D01*
X338016Y175000D01*
X339623Y175666D01*
X340289Y177273D01*
X339623Y178881D01*
X338016Y179546D01*
D02*
G37*
G36*
X148300Y177972D02*
X146411Y177189D01*
X145628Y175300D01*
X146411Y173411D01*
X148300Y172628D01*
X150189Y173411D01*
X150972Y175300D01*
X150189Y177189D01*
X148300Y177972D01*
D02*
G37*
G36*
X119528Y177706D02*
X117920Y177040D01*
X117254Y175433D01*
X117920Y173826D01*
X119528Y173160D01*
X121135Y173826D01*
X121801Y175433D01*
X121135Y177040D01*
X119528Y177706D01*
D02*
G37*
G36*
X132913Y182706D02*
X131306Y182040D01*
X130640Y180433D01*
X131306Y178826D01*
X132913Y178160D01*
X134521Y178826D01*
X135186Y180433D01*
X134521Y182040D01*
X132913Y182706D01*
D02*
G37*
G36*
X328884Y186331D02*
X326435Y185317D01*
X325421Y182868D01*
X326435Y180419D01*
X328884Y179404D01*
X331333Y180419D01*
X332348Y182868D01*
X331333Y185317D01*
X328884Y186331D01*
D02*
G37*
G36*
X353416Y176946D02*
X351809Y176280D01*
X351703Y176026D01*
X351203D01*
X351174Y176095D01*
X349567Y176761D01*
X347960Y176095D01*
X347294Y174488D01*
X347960Y172881D01*
X349567Y172215D01*
X351174Y172881D01*
X351280Y173136D01*
X351780D01*
X351809Y173066D01*
X353416Y172400D01*
X355023Y173066D01*
X355495Y174206D01*
X355995D01*
X356509Y172966D01*
X358116Y172300D01*
X359723Y172966D01*
X360389Y174573D01*
X359723Y176181D01*
X358116Y176846D01*
X356509Y176181D01*
X356037Y175041D01*
X355537D01*
X355023Y176280D01*
X353416Y176946D01*
D02*
G37*
G36*
X352205Y182391D02*
X350597Y181725D01*
X349932Y180118D01*
X350597Y178511D01*
X352205Y177845D01*
X353812Y178511D01*
X354478Y180118D01*
X353812Y181725D01*
X352205Y182391D01*
D02*
G37*
G36*
X145922Y126013D02*
X144047Y125236D01*
X143270Y123361D01*
X144047Y121485D01*
X145922Y120709D01*
X147797Y121485D01*
X148574Y123361D01*
X147797Y125236D01*
X145922Y126013D01*
D02*
G37*
G36*
X339803Y125373D02*
X338425Y124803D01*
X337855Y123425D01*
X338425Y122047D01*
X339803Y121477D01*
X341181Y122047D01*
X341752Y123425D01*
X341181Y124803D01*
X339803Y125373D01*
D02*
G37*
G36*
X196816Y119343D02*
X195209Y118677D01*
X194543Y117070D01*
X194543Y117070D01*
X194543D01*
X193991Y116841D01*
X193272Y117139D01*
X191894Y116568D01*
X191324Y115191D01*
X191894Y113813D01*
X193272Y113242D01*
X194650Y113813D01*
X195220Y115191D01*
X195220Y115191D01*
X195220D01*
X195543Y115324D01*
X196816Y114797D01*
X198423Y115463D01*
X199089Y117070D01*
X198423Y118677D01*
X196816Y119343D01*
D02*
G37*
G36*
X192100Y124072D02*
X190211Y123289D01*
X189428Y121400D01*
X190211Y119511D01*
X192100Y118728D01*
X193989Y119511D01*
X194772Y121400D01*
X193989Y123289D01*
X192100Y124072D01*
D02*
G37*
G36*
X238522Y126534D02*
X236915Y125868D01*
X236445Y124734D01*
X235945D01*
X235623Y125511D01*
X234016Y126177D01*
X232409Y125511D01*
X231743Y123904D01*
X232409Y122297D01*
X234016Y121631D01*
X235623Y122297D01*
X236093Y123431D01*
X236593D01*
X236915Y122653D01*
X238522Y121988D01*
X240129Y122653D01*
X240795Y124261D01*
X240129Y125868D01*
X238522Y126534D01*
D02*
G37*
G36*
X229316Y127577D02*
X227709Y126911D01*
X227092Y125423D01*
X226592D01*
X226217Y126327D01*
X224610Y126993D01*
X223003Y126327D01*
X222344Y124737D01*
X221844D01*
X221523Y125511D01*
X219916Y126177D01*
X218309Y125511D01*
X217966Y124684D01*
X217466D01*
X217123Y125511D01*
X215516Y126177D01*
X213909Y125511D01*
X213243Y123904D01*
X213909Y122297D01*
X215516Y121631D01*
X217123Y122297D01*
X217466Y123124D01*
X217966D01*
X218309Y122297D01*
X219916Y121631D01*
X221523Y122297D01*
X222182Y123887D01*
X222682D01*
X223003Y123113D01*
X224610Y122447D01*
X226217Y123113D01*
X226834Y124601D01*
X227334D01*
X227709Y123697D01*
X229316Y123031D01*
X230923Y123697D01*
X231589Y125304D01*
X230923Y126911D01*
X229316Y127577D01*
D02*
G37*
G36*
X201860Y126213D02*
X200253Y125547D01*
X199587Y123940D01*
X200253Y122333D01*
X201860Y121667D01*
X203467Y122333D01*
X204133Y123940D01*
X203467Y125547D01*
X201860Y126213D01*
D02*
G37*
G36*
X253450Y127698D02*
X252072Y127128D01*
X251502Y125750D01*
X252072Y124372D01*
X253450Y123802D01*
X254828Y124372D01*
X255398Y125750D01*
X254828Y127128D01*
X253450Y127698D01*
D02*
G37*
G36*
X204350Y119283D02*
X202743Y118617D01*
X202077Y117010D01*
X202363Y116321D01*
X201993Y116167D01*
X201327Y114560D01*
X201993Y112953D01*
X202115Y112902D01*
X202306Y112440D01*
X202227Y112250D01*
X202893Y110643D01*
X204500Y109977D01*
X206107Y110643D01*
X206773Y112250D01*
X206107Y113857D01*
X205659Y114043D01*
X205873Y114560D01*
X205587Y115250D01*
X205957Y115403D01*
X206623Y117010D01*
X205957Y118617D01*
X204350Y119283D01*
D02*
G37*
G36*
X336299Y114675D02*
X334692Y114009D01*
X334026Y112402D01*
X334692Y110794D01*
X336299Y110128D01*
X337907Y110794D01*
X338572Y112402D01*
X337907Y114009D01*
X336299Y114675D01*
D02*
G37*
G36*
X166024Y111358D02*
X164340Y110660D01*
X163642Y108976D01*
X164340Y107293D01*
X166024Y106595D01*
X167707Y107293D01*
X168405Y108976D01*
X167707Y110660D01*
X166024Y111358D01*
D02*
G37*
G36*
X273216Y111846D02*
X271609Y111180D01*
X270943Y109573D01*
X271609Y107966D01*
X273216Y107300D01*
X274823Y107966D01*
X275489Y109573D01*
X274823Y111180D01*
X273216Y111846D01*
D02*
G37*
G36*
X147620Y116283D02*
X146013Y115617D01*
X145840Y115201D01*
X145340D01*
X145229Y115468D01*
X143622Y116134D01*
X142015Y115468D01*
X141349Y113861D01*
X142015Y112253D01*
X143622Y111588D01*
X145229Y112253D01*
X145402Y112670D01*
X145902D01*
X146013Y112403D01*
X147620Y111737D01*
X149227Y112403D01*
X149893Y114010D01*
X149227Y115617D01*
X147620Y116283D01*
D02*
G37*
G36*
X16042Y120098D02*
X14664Y119527D01*
X14093Y118150D01*
X14664Y116772D01*
X16042Y116201D01*
X17419Y116772D01*
X17990Y118150D01*
X17419Y119527D01*
X16042Y120098D01*
D02*
G37*
G36*
X150829Y112002D02*
X149374Y111399D01*
X149029Y110566D01*
X148529D01*
X148527Y110571D01*
X146920Y111237D01*
X145312Y110571D01*
X144647Y108964D01*
X145312Y107357D01*
X146920Y106691D01*
X148527Y107357D01*
X148917Y108298D01*
X149379Y108489D01*
X150829Y107888D01*
X152283Y108491D01*
X152885Y109945D01*
X152283Y111399D01*
X150829Y112002D01*
D02*
G37*
G36*
X135050Y115306D02*
X133596Y114704D01*
X132993Y113250D01*
D01*
X132993D01*
X132886Y113206D01*
X132424Y113397D01*
X132040Y114324D01*
X130433Y114990D01*
X128826Y114324D01*
X128160Y112716D01*
X128826Y111109D01*
X130433Y110443D01*
X132040Y111109D01*
X132706Y112716D01*
X132706Y112716D01*
X133140Y112896D01*
X133596Y111796D01*
X134644Y111362D01*
Y110862D01*
X134411Y110766D01*
X133746Y109158D01*
X134411Y107551D01*
X136019Y106885D01*
X137626Y107551D01*
X138292Y109158D01*
X137626Y110766D01*
X136425Y111263D01*
Y111763D01*
X136504Y111796D01*
X137107Y113250D01*
X136504Y114704D01*
X135050Y115306D01*
D02*
G37*
G36*
X23022Y132113D02*
X21147Y131336D01*
X20370Y129461D01*
X21147Y127585D01*
X23022Y126809D01*
X24897Y127585D01*
X25674Y129461D01*
X24897Y131336D01*
X23022Y132113D01*
D02*
G37*
G36*
X16475Y146830D02*
X15097Y146259D01*
X14526Y144882D01*
X15097Y143504D01*
X16475Y142934D01*
X17853Y143504D01*
X18423Y144882D01*
X17853Y146259D01*
X16475Y146830D01*
D02*
G37*
G36*
X334222Y150324D02*
X331773Y149310D01*
X330758Y146861D01*
X331773Y144412D01*
X334222Y143397D01*
X336671Y144412D01*
X337046Y145317D01*
X337508Y145508D01*
X338222Y145212D01*
X339600Y145783D01*
X340170Y147161D01*
X339600Y148538D01*
X338222Y149109D01*
X337296Y148725D01*
X336834Y148917D01*
X336671Y149310D01*
X334222Y150324D01*
D02*
G37*
G36*
X343779Y146840D02*
X342172Y146174D01*
X341507Y144567D01*
X342172Y142960D01*
X343779Y142294D01*
X345387Y142960D01*
X346053Y144567D01*
X345387Y146174D01*
X343779Y146840D01*
D02*
G37*
G36*
X349916Y147146D02*
X348309Y146481D01*
X347643Y144873D01*
X348309Y143266D01*
X349916Y142600D01*
X351523Y143266D01*
X352189Y144873D01*
X351523Y146481D01*
X349916Y147146D01*
D02*
G37*
G36*
X205614Y150365D02*
X204236Y149794D01*
X203666Y148417D01*
X204236Y147039D01*
X205614Y146468D01*
X206992Y147039D01*
X207562Y148417D01*
X206992Y149794D01*
X205614Y150365D01*
D02*
G37*
G36*
X52722Y160434D02*
X51115Y159768D01*
X50449Y158161D01*
X51115Y156553D01*
X52538Y155964D01*
X52568Y155890D01*
X52568Y155890D01*
X52568D01*
X53171Y154436D01*
X54625Y153834D01*
X56079Y154436D01*
X56681Y155890D01*
X56079Y157344D01*
X54865Y157847D01*
X54995Y158161D01*
X54329Y159768D01*
X52722Y160434D01*
D02*
G37*
G36*
X259778Y152153D02*
X257329Y151138D01*
X256314Y148689D01*
X257329Y146240D01*
X259778Y145226D01*
X262227Y146240D01*
X263242Y148689D01*
X262227Y151138D01*
X259778Y152153D01*
D02*
G37*
G36*
X50522Y151013D02*
X48647Y150236D01*
X47870Y148361D01*
X48647Y146485D01*
X50522Y145709D01*
X52397Y146485D01*
X53174Y148361D01*
X52397Y150236D01*
X50522Y151013D01*
D02*
G37*
G36*
X268222Y134109D02*
X266844Y133538D01*
X266274Y132161D01*
X266844Y130783D01*
X268222Y130212D01*
X269600Y130783D01*
X270170Y132161D01*
X269600Y133538D01*
X268222Y134109D01*
D02*
G37*
G36*
X340622Y136834D02*
X339015Y136168D01*
X338349Y134561D01*
X339015Y132953D01*
X340622Y132288D01*
X342229Y132953D01*
X342895Y134561D01*
X342229Y136168D01*
X340622Y136834D01*
D02*
G37*
G36*
X38222Y131734D02*
X36615Y131068D01*
X35949Y129461D01*
X36615Y127853D01*
X38222Y127188D01*
X39829Y127853D01*
X40495Y129461D01*
X39829Y131068D01*
X38222Y131734D01*
D02*
G37*
G36*
X270276Y144822D02*
X268898Y144252D01*
X268327Y142874D01*
X268898Y141496D01*
X270276Y140926D01*
X270606Y141063D01*
X270960Y140709D01*
X270911Y140591D01*
X271693Y138701D01*
X272564Y138341D01*
Y137841D01*
X271693Y137480D01*
X270911Y135591D01*
X271693Y133701D01*
X272564Y133341D01*
Y132841D01*
X271693Y132480D01*
X270911Y130591D01*
X271693Y128701D01*
X272564Y128341D01*
Y127841D01*
X271693Y127480D01*
X270911Y125591D01*
X271693Y123701D01*
X272564Y123341D01*
Y122841D01*
X271693Y122480D01*
X270911Y120591D01*
X271015Y120339D01*
X270661Y119986D01*
X270122Y120209D01*
X268744Y119638D01*
X268174Y118261D01*
X268744Y116883D01*
X269804Y116444D01*
Y115944D01*
X269409Y115780D01*
X268743Y114173D01*
X269409Y112566D01*
X271016Y111900D01*
X272623Y112566D01*
X273289Y114173D01*
X272623Y115780D01*
X271334Y116314D01*
Y116814D01*
X271500Y116883D01*
X272070Y118261D01*
X272070Y118261D01*
X272070D01*
X272271Y118462D01*
X273583Y117919D01*
X275472Y118701D01*
X276255Y120591D01*
X275472Y122480D01*
X274601Y122841D01*
Y123341D01*
X275472Y123701D01*
X276255Y125591D01*
X275472Y127480D01*
X274601Y127841D01*
Y128341D01*
X275472Y128701D01*
X276255Y130591D01*
X275472Y132480D01*
X274601Y132841D01*
Y133341D01*
X275472Y133701D01*
X275472Y133701D01*
Y133701D01*
X275919Y133886D01*
X276822Y133512D01*
X277819Y133925D01*
X278281Y133734D01*
X278315Y133653D01*
X279855Y133016D01*
Y132516D01*
X278944Y132138D01*
X278374Y130761D01*
X278944Y129383D01*
X280322Y128812D01*
X281700Y129383D01*
X281964Y130022D01*
X282464Y130022D01*
X283063Y128577D01*
X284747Y127879D01*
X286430Y128577D01*
X287128Y130261D01*
X286430Y131945D01*
X284747Y132642D01*
X283063Y131945D01*
X282671Y131000D01*
X282171D01*
X281700Y132138D01*
X280389Y132681D01*
X280389Y133181D01*
X281529Y133653D01*
X282195Y135261D01*
X281529Y136868D01*
X279922Y137534D01*
X278315Y136868D01*
X278303Y136838D01*
X278200D01*
X278200Y136838D01*
Y136838D01*
X276822Y137409D01*
X276021Y137077D01*
X275559Y137269D01*
X275472Y137480D01*
X274601Y137841D01*
Y138341D01*
X275472Y138701D01*
X276255Y140591D01*
X275472Y142480D01*
X273583Y143262D01*
X272612Y142860D01*
X272150Y143052D01*
X271653Y144252D01*
X270276Y144822D01*
D02*
G37*
G36*
X280522Y142209D02*
X279144Y141638D01*
X278574Y140261D01*
X279144Y138883D01*
X280522Y138312D01*
X281900Y138883D01*
X282470Y140261D01*
X281900Y141638D01*
X280522Y142209D01*
D02*
G37*
G36*
X362888Y146788D02*
X361280Y146122D01*
X360614Y144515D01*
X361280Y142908D01*
X362888Y142242D01*
X364495Y142908D01*
X365161Y144515D01*
X364495Y146122D01*
X362888Y146788D01*
D02*
G37*
G36*
X334222Y139824D02*
X331773Y138810D01*
X330758Y136361D01*
X331773Y133912D01*
X334222Y132897D01*
X336671Y133912D01*
X337686Y136361D01*
X336671Y138810D01*
X334222Y139824D01*
D02*
G37*
G36*
X245478Y138138D02*
X244100Y137567D01*
X243530Y136189D01*
X244100Y134812D01*
X245478Y134241D01*
X246856Y134812D01*
X247426Y136189D01*
X246856Y137567D01*
X245478Y138138D01*
D02*
G37*
%LPD*%
D116*
X187100Y121400D02*
D03*
X255500Y87400D02*
D03*
Y96000D02*
D03*
X171811Y69685D02*
D03*
X143300Y175300D02*
D03*
X237953Y26811D02*
D03*
X69646Y165512D02*
D03*
X188400Y87420D02*
D03*
X84122Y20161D02*
D03*
X89122D02*
D03*
D119*
X153650Y108090D02*
D03*
X159722Y105984D02*
D03*
X162522D02*
D03*
X29812Y168543D02*
D03*
X32098Y29213D02*
D03*
X32450Y21299D02*
D03*
X61063Y13386D02*
D03*
X121575Y59961D02*
D03*
X4254Y182237D02*
D03*
X215945Y134134D02*
D03*
X132087Y72008D02*
D03*
X123300Y111350D02*
D03*
X175079Y119434D02*
D03*
Y115870D02*
D03*
Y112305D02*
D03*
Y108740D02*
D03*
X168610Y136496D02*
D03*
X161257Y128583D02*
D03*
X175080Y144060D02*
D03*
X188898Y112008D02*
D03*
X162131Y136496D02*
D03*
X151210Y128583D02*
D03*
X216560Y174044D02*
D03*
X113031Y78268D02*
D03*
X113230Y92000D02*
D03*
X91260Y55630D02*
D03*
X131142Y17284D02*
D03*
X132323Y18701D02*
D03*
X127441Y32480D02*
D03*
X148794Y22880D02*
D03*
X143543Y87244D02*
D03*
X70630Y89003D02*
D03*
X145376Y80804D02*
D03*
Y83823D02*
D03*
X150876Y70877D02*
D03*
Y63382D02*
D03*
X149261Y65880D02*
D03*
X150876Y60883D02*
D03*
Y58385D02*
D03*
X145440Y53460D02*
D03*
X136024Y89291D02*
D03*
X150876Y45892D02*
D03*
X137620Y52890D02*
D03*
X150876Y38397D02*
D03*
Y35898D02*
D03*
Y25904D02*
D03*
Y28402D02*
D03*
Y43394D02*
D03*
Y40895D02*
D03*
Y30901D02*
D03*
Y33400D02*
D03*
X175857Y24750D02*
D03*
X178857Y24800D02*
D03*
X181857D02*
D03*
X184857D02*
D03*
X176066Y16041D02*
D03*
X179066D02*
D03*
X182066D02*
D03*
X185066D02*
D03*
X224992Y40586D02*
D03*
Y37586D02*
D03*
Y34586D02*
D03*
X233874Y31708D02*
D03*
Y37708D02*
D03*
Y40708D02*
D03*
Y34708D02*
D03*
X77550Y24950D02*
D03*
X73772Y37861D02*
D03*
X153462Y12801D02*
D03*
X92122Y9561D02*
D03*
X93386Y5472D02*
D03*
X82700Y23350D02*
D03*
X68370Y14290D02*
D03*
X137000Y113250D02*
D03*
X138950D02*
D03*
X158090Y56830D02*
D03*
X213600Y51100D02*
D03*
X202716Y50591D02*
D03*
X37122Y132261D02*
D03*
X64200Y133000D02*
D03*
X174010Y155950D02*
D03*
X229920Y100200D02*
D03*
X123740Y155945D02*
D03*
X119488D02*
D03*
X133031Y147953D02*
D03*
X85354Y89291D02*
D03*
X137598Y77612D02*
D03*
X45712Y176474D02*
D03*
X49830Y168516D02*
D03*
X38758D02*
D03*
X33222D02*
D03*
X47062D02*
D03*
X44294D02*
D03*
X60827Y167961D02*
D03*
Y165028D02*
D03*
X182650Y85750D02*
D03*
X243050Y100200D02*
D03*
X191250Y88710D02*
D03*
X215222Y115361D02*
D03*
X91772Y63504D02*
D03*
X87550Y45050D02*
D03*
X87122Y54361D02*
D03*
Y49361D02*
D03*
X194393Y12448D02*
D03*
X92323Y35472D02*
D03*
X83425Y42953D02*
D03*
X82122Y54461D02*
D03*
X91220Y41339D02*
D03*
X215800Y72000D02*
D03*
X202610Y16547D02*
D03*
X70630Y92375D02*
D03*
X60551Y111528D02*
D03*
Y108435D02*
D03*
X52677Y114144D02*
D03*
X154835Y24267D02*
D03*
X151678D02*
D03*
X224222Y133161D02*
D03*
X182992Y144508D02*
D03*
X117480Y72800D02*
D03*
X124134Y89646D02*
D03*
X126877D02*
D03*
X123846Y81203D02*
D03*
X126846D02*
D03*
X129846D02*
D03*
X132846D02*
D03*
X263400Y85300D02*
D03*
X262050Y91150D02*
D03*
X233960Y169244D02*
D03*
X238543Y51968D02*
D03*
X259222Y64161D02*
D03*
X254222D02*
D03*
X268222Y42161D02*
D03*
X273222D02*
D03*
X278222Y7161D02*
D03*
X273222D02*
D03*
X268222D02*
D03*
X298222D02*
D03*
X293222D02*
D03*
X288222D02*
D03*
X283222D02*
D03*
X7907Y17161D02*
D03*
X18222Y147161D02*
D03*
X16102Y126102D02*
D03*
X169213Y46496D02*
D03*
X108780Y138760D02*
D03*
X17244Y54921D02*
D03*
X8222Y62161D02*
D03*
X4254Y32237D02*
D03*
X156082Y52511D02*
D03*
X176725Y29021D02*
D03*
X183536Y32682D02*
D03*
X185422Y27791D02*
D03*
X158462Y12801D02*
D03*
X163462D02*
D03*
X168462D02*
D03*
X69095Y5748D02*
D03*
X83022Y9811D02*
D03*
X43222Y7161D02*
D03*
X48222D02*
D03*
X53222D02*
D03*
X58222D02*
D03*
X63222D02*
D03*
X13222D02*
D03*
X18222D02*
D03*
X23222D02*
D03*
X28222D02*
D03*
X33222D02*
D03*
X8222D02*
D03*
X4254Y27237D02*
D03*
Y22237D02*
D03*
Y17237D02*
D03*
Y12237D02*
D03*
Y57237D02*
D03*
Y52237D02*
D03*
Y47237D02*
D03*
Y42237D02*
D03*
Y37237D02*
D03*
Y82237D02*
D03*
Y77237D02*
D03*
Y72237D02*
D03*
Y67237D02*
D03*
Y62237D02*
D03*
Y107237D02*
D03*
Y102237D02*
D03*
Y97237D02*
D03*
Y92237D02*
D03*
Y87237D02*
D03*
Y132237D02*
D03*
Y127237D02*
D03*
Y122237D02*
D03*
Y117237D02*
D03*
Y112237D02*
D03*
Y157237D02*
D03*
Y152237D02*
D03*
Y147237D02*
D03*
Y142237D02*
D03*
Y137237D02*
D03*
Y162237D02*
D03*
Y167237D02*
D03*
Y172237D02*
D03*
Y177237D02*
D03*
X13222Y187161D02*
D03*
X8222D02*
D03*
X18222D02*
D03*
X23222D02*
D03*
X28222D02*
D03*
X33222D02*
D03*
X38222D02*
D03*
X43222D02*
D03*
X48222D02*
D03*
X23425Y43228D02*
D03*
X16339Y65709D02*
D03*
X388222Y182161D02*
D03*
X358222Y187161D02*
D03*
X323222D02*
D03*
X333222D02*
D03*
X338222D02*
D03*
X343222D02*
D03*
X175079Y122999D02*
D03*
X214488Y141890D02*
D03*
X233900Y132850D02*
D03*
X182992Y121791D02*
D03*
X181496Y186024D02*
D03*
X200512Y141299D02*
D03*
X189921Y157717D02*
D03*
X136024Y43622D02*
D03*
X204764Y142402D02*
D03*
X208780Y164370D02*
D03*
X161378Y119843D02*
D03*
X115118Y59449D02*
D03*
X218110Y137008D02*
D03*
X114291Y20039D02*
D03*
X273240Y112380D02*
D03*
X241560Y174044D02*
D03*
X114055Y23583D02*
D03*
X216811Y165748D02*
D03*
X199646Y157205D02*
D03*
X171270Y51950D02*
D03*
X103779Y16890D02*
D03*
X259600Y144150D02*
D03*
X182992Y115295D02*
D03*
X209646Y142598D02*
D03*
X220945Y157795D02*
D03*
X252953Y157323D02*
D03*
X235591Y157913D02*
D03*
X250478Y146189D02*
D03*
X245346Y69796D02*
D03*
X241135Y74097D02*
D03*
X243222Y82161D02*
D03*
Y77161D02*
D03*
X250478Y151189D02*
D03*
X258222Y72161D02*
D03*
X253222D02*
D03*
X248222D02*
D03*
X243222D02*
D03*
X253150Y42100D02*
D03*
X263222Y47161D02*
D03*
X258222Y42161D02*
D03*
X156614Y26417D02*
D03*
X248222Y42161D02*
D03*
X243222D02*
D03*
X238222D02*
D03*
X160551Y26417D02*
D03*
X119180Y97756D02*
D03*
X122589D02*
D03*
X115157Y105984D02*
D03*
X121968D02*
D03*
X136468Y93890D02*
D03*
X146468D02*
D03*
X156790Y89160D02*
D03*
X156468Y93890D02*
D03*
X176963Y12480D02*
D03*
X181963D02*
D03*
X186963D02*
D03*
X153228Y29488D02*
D03*
X153071Y43268D02*
D03*
X153380Y46120D02*
D03*
X188654Y32839D02*
D03*
X178930Y33666D02*
D03*
X184978Y52139D02*
D03*
X179978D02*
D03*
X174978D02*
D03*
X214921Y42205D02*
D03*
X78504Y51142D02*
D03*
X127022Y57361D02*
D03*
X184622Y82161D02*
D03*
X265922Y160161D02*
D03*
X246922Y166261D02*
D03*
X134987Y53589D02*
D03*
X156496Y155945D02*
D03*
X153189D02*
D03*
X159803D02*
D03*
X170630D02*
D03*
X176430Y155890D02*
D03*
X159803Y147953D02*
D03*
X156722D02*
D03*
X153122D02*
D03*
X149222D02*
D03*
X145922D02*
D03*
X143618Y155261D02*
D03*
X119631Y147704D02*
D03*
X115431D02*
D03*
X100820Y143630D02*
D03*
X140709Y114842D02*
D03*
X165038Y78714D02*
D03*
X163069Y79911D02*
D03*
X160086Y84061D02*
D03*
X162676Y83061D02*
D03*
X160086Y86800D02*
D03*
Y92278D02*
D03*
Y89539D02*
D03*
X167953Y100157D02*
D03*
X128622Y105984D02*
D03*
X126260D02*
D03*
X118425D02*
D03*
X153722D02*
D03*
X156722D02*
D03*
X166024Y104095D02*
D03*
X160086Y97756D02*
D03*
X149859Y97756D02*
D03*
X153398D02*
D03*
X156677D02*
D03*
X160086Y95017D02*
D03*
X132815Y97756D02*
D03*
X136224D02*
D03*
X139633D02*
D03*
X143042D02*
D03*
X146450D02*
D03*
X159930Y112490D02*
D03*
X129406Y97756D02*
D03*
X125997D02*
D03*
X115771D02*
D03*
X112750Y97600D02*
D03*
X108280Y93370D02*
D03*
X108830Y110930D02*
D03*
X102340Y93410D02*
D03*
X59560Y24700D02*
D03*
X48834Y176474D02*
D03*
X66230Y158830D02*
D03*
X70400Y160870D02*
D03*
X76600Y160760D02*
D03*
X68300Y143610D02*
D03*
X66414Y148175D02*
D03*
X64016Y105827D02*
D03*
X70320Y125150D02*
D03*
X66142Y92244D02*
D03*
X170000Y43976D02*
D03*
X78701Y92520D02*
D03*
X95551Y78031D02*
D03*
X89173Y90472D02*
D03*
X101980Y90840D02*
D03*
X110709Y90158D02*
D03*
X115787Y80394D02*
D03*
X110630Y80433D02*
D03*
X69840Y110690D02*
D03*
X110748Y88032D02*
D03*
X115775Y87761D02*
D03*
X114390Y85273D02*
D03*
X112022D02*
D03*
X115775Y82761D02*
D03*
X66140Y95410D02*
D03*
X120039Y89291D02*
D03*
X119409Y81417D02*
D03*
X135039Y39173D02*
D03*
X133228Y37362D02*
D03*
X133189Y35118D02*
D03*
X147953Y39173D02*
D03*
X146022Y16547D02*
D03*
X232872Y94342D02*
D03*
X243110Y88848D02*
D03*
X235593Y91222D02*
D03*
X235500Y82563D02*
D03*
X238558Y64744D02*
D03*
X235580Y79473D02*
D03*
X235700Y75889D02*
D03*
X238358Y73290D02*
D03*
X238447Y69617D02*
D03*
X220498Y69736D02*
D03*
X220408Y73051D02*
D03*
X241852Y69527D02*
D03*
X211746Y69238D02*
D03*
X212039Y27772D02*
D03*
X223186Y75829D02*
D03*
X204882Y28189D02*
D03*
X223275Y79114D02*
D03*
X223233Y82726D02*
D03*
X223209Y89267D02*
D03*
X205398Y24267D02*
D03*
X226604Y92345D02*
D03*
X243198Y85064D02*
D03*
X229476Y95462D02*
D03*
X233579Y64778D02*
D03*
X233460Y62837D02*
D03*
X233787Y58119D02*
D03*
X233149Y53150D02*
D03*
Y50733D02*
D03*
Y48116D02*
D03*
X233143Y44299D02*
D03*
X226023Y43644D02*
D03*
X233514Y28091D02*
D03*
X232304Y24729D02*
D03*
X214685Y29370D02*
D03*
X226023Y50246D02*
D03*
Y53098D02*
D03*
Y56489D02*
D03*
X225694Y64778D02*
D03*
X225574Y62597D02*
D03*
X145376Y77586D02*
D03*
Y72548D02*
D03*
Y68729D02*
D03*
Y65711D02*
D03*
Y62692D02*
D03*
Y59673D02*
D03*
Y56654D02*
D03*
Y44579D02*
D03*
Y41561D02*
D03*
X137598Y72900D02*
D03*
Y70195D02*
D03*
Y67389D02*
D03*
Y64583D02*
D03*
Y61778D02*
D03*
Y58972D02*
D03*
Y56166D02*
D03*
Y45000D02*
D03*
Y41378D02*
D03*
X60551Y145551D02*
D03*
Y142458D02*
D03*
Y139365D02*
D03*
Y136272D02*
D03*
Y133179D02*
D03*
Y130086D02*
D03*
Y126993D02*
D03*
Y123900D02*
D03*
Y120807D02*
D03*
Y117714D02*
D03*
Y114621D02*
D03*
X54409Y148307D02*
D03*
X52677Y145630D02*
D03*
Y142481D02*
D03*
Y139333D02*
D03*
Y136184D02*
D03*
Y133036D02*
D03*
Y129887D02*
D03*
Y126739D02*
D03*
Y123590D02*
D03*
Y120441D02*
D03*
Y117293D02*
D03*
Y110996D02*
D03*
Y107847D02*
D03*
Y104699D02*
D03*
Y101550D02*
D03*
Y98402D02*
D03*
Y95253D02*
D03*
Y92105D02*
D03*
Y88956D02*
D03*
Y85808D02*
D03*
Y82659D02*
D03*
Y79510D02*
D03*
Y76362D02*
D03*
Y73213D02*
D03*
Y70265D02*
D03*
X60551Y105342D02*
D03*
Y102249D02*
D03*
Y99155D02*
D03*
Y96062D02*
D03*
Y92970D02*
D03*
Y89876D02*
D03*
Y86783D02*
D03*
Y83690D02*
D03*
Y80597D02*
D03*
Y77504D02*
D03*
Y74411D02*
D03*
Y71318D02*
D03*
X52677Y66916D02*
D03*
Y63568D02*
D03*
Y60619D02*
D03*
Y57471D02*
D03*
Y53622D02*
D03*
Y48625D02*
D03*
Y44877D02*
D03*
Y41728D02*
D03*
Y37279D02*
D03*
X52800Y31970D02*
D03*
X52677Y29134D02*
D03*
X60551Y58910D02*
D03*
Y55659D02*
D03*
Y48856D02*
D03*
Y38161D02*
D03*
Y35161D02*
D03*
Y32161D02*
D03*
X62672Y70761D02*
D03*
X60827Y158228D02*
D03*
X52598Y160827D02*
D03*
X60551Y29200D02*
D03*
X49949Y29134D02*
D03*
X137598Y81417D02*
D03*
X140079Y89291D02*
D03*
X167480Y155945D02*
D03*
X171844Y136496D02*
D03*
X138071Y157283D02*
D03*
X130769Y155945D02*
D03*
X175079Y128583D02*
D03*
X163661Y155945D02*
D03*
X175079Y136496D02*
D03*
X171063Y147953D02*
D03*
X175079Y140823D02*
D03*
X165375Y136496D02*
D03*
X175079Y147953D02*
D03*
X163622Y147953D02*
D03*
X167205D02*
D03*
X133031Y145089D02*
D03*
X215828Y22970D02*
D03*
X219505Y21840D02*
D03*
X223293D02*
D03*
X227081D02*
D03*
X230334Y22779D02*
D03*
X218553Y29458D02*
D03*
X218189Y36024D02*
D03*
X188631Y24267D02*
D03*
X215336Y17937D02*
D03*
X212662Y16547D02*
D03*
X213268Y34291D02*
D03*
X209311Y16547D02*
D03*
X205961D02*
D03*
X199259D02*
D03*
X195909D02*
D03*
X189208D02*
D03*
X174022D02*
D03*
X170522D02*
D03*
X167022D02*
D03*
X163522D02*
D03*
X160022D02*
D03*
X156522D02*
D03*
X153022D02*
D03*
X149522D02*
D03*
X208000Y22956D02*
D03*
X208015Y25546D02*
D03*
X192306Y24267D02*
D03*
X174022D02*
D03*
X170533D02*
D03*
X167043D02*
D03*
X164009Y24565D02*
D03*
X161150Y24267D02*
D03*
X157993D02*
D03*
X115787Y90118D02*
D03*
X106471Y89291D02*
D03*
X110722Y82461D02*
D03*
X107572Y81417D02*
D03*
X102047Y79843D02*
D03*
X80354Y81417D02*
D03*
X70630Y85630D02*
D03*
X68622Y81063D02*
D03*
X78701Y89291D02*
D03*
X81614D02*
D03*
X89016Y79764D02*
D03*
X166131Y44774D02*
D03*
X84409Y81417D02*
D03*
X76339D02*
D03*
X175512Y39724D02*
D03*
X167087Y42323D02*
D03*
X172598Y45315D02*
D03*
X175472Y44252D02*
D03*
X68504Y75000D02*
D03*
X172008Y33543D02*
D03*
X169381Y40674D02*
D03*
X63305Y148175D02*
D03*
X52598Y163390D02*
D03*
X39467Y176474D02*
D03*
X36345D02*
D03*
X33222D02*
D03*
X58217Y175563D02*
D03*
X55079Y176474D02*
D03*
X51956D02*
D03*
X60827Y170394D02*
D03*
X10748Y41850D02*
D03*
X28504Y21220D02*
D03*
X36662D02*
D03*
X39505D02*
D03*
X48035D02*
D03*
X50879D02*
D03*
X28268Y29134D02*
D03*
X36310D02*
D03*
X41766D02*
D03*
X44494D02*
D03*
X53722Y21220D02*
D03*
X56850Y21811D02*
D03*
X47222Y29134D02*
D03*
X140222Y150761D02*
D03*
Y153361D02*
D03*
X136815Y155261D02*
D03*
X143618Y148861D02*
D03*
X133031Y136496D02*
D03*
X140222Y156261D02*
D03*
X104331Y160984D02*
D03*
X108898Y160906D02*
D03*
X113240Y158180D02*
D03*
X115650Y155945D02*
D03*
X127402D02*
D03*
X142362Y157244D02*
D03*
X137953Y146811D02*
D03*
X182992Y118543D02*
D03*
X174280Y101600D02*
D03*
X129619Y89646D02*
D03*
X142283Y146929D02*
D03*
X132362Y89646D02*
D03*
X174550Y96340D02*
D03*
X200709Y129724D02*
D03*
X167953Y94751D02*
D03*
Y97454D02*
D03*
X175669Y91850D02*
D03*
X184722Y87361D02*
D03*
X172222Y89461D02*
D03*
X182953Y97087D02*
D03*
X152756Y119134D02*
D03*
X126400Y110950D02*
D03*
X50122Y156961D02*
D03*
X44932Y160730D02*
D03*
X64500Y46690D02*
D03*
X37122Y126761D02*
D03*
X64590Y30610D02*
D03*
X68272Y56461D02*
D03*
X105984Y71969D02*
D03*
X150250Y84550D02*
D03*
X135122Y57361D02*
D03*
X131072D02*
D03*
X215813Y20414D02*
D03*
X148794Y24820D02*
D03*
Y26769D02*
D03*
Y28758D02*
D03*
Y30762D02*
D03*
Y32695D02*
D03*
X182178Y56897D02*
D03*
X181678Y62739D02*
D03*
X192558Y16547D02*
D03*
X156299Y83307D02*
D03*
X240905Y147087D02*
D03*
X242060Y169044D02*
D03*
X209860Y187344D02*
D03*
X158409Y54646D02*
D03*
X257822Y165761D02*
D03*
X172722Y165561D02*
D03*
X152422Y159863D02*
D03*
X152422Y165661D02*
D03*
X324022Y9761D02*
D03*
X333922Y9861D02*
D03*
X373780Y20630D02*
D03*
X363522Y9361D02*
D03*
X379122Y16161D02*
D03*
X368189Y39882D02*
D03*
X372913Y53976D02*
D03*
X380922Y56761D02*
D03*
X168022Y159461D02*
D03*
X134006Y155945D02*
D03*
X173858Y30354D02*
D03*
X139016Y90984D02*
D03*
X181535Y67126D02*
D03*
X33522Y47161D02*
D03*
X38322Y6961D02*
D03*
X34528Y62205D02*
D03*
X40422Y35461D02*
D03*
X81929Y5551D02*
D03*
X130922Y53711D02*
D03*
X192316Y30162D02*
D03*
X176063Y34331D02*
D03*
X258322Y9361D02*
D03*
X264822Y15661D02*
D03*
X287822Y10361D02*
D03*
X265422Y76661D02*
D03*
X268522Y147661D02*
D03*
X103661Y21378D02*
D03*
X265522Y32061D02*
D03*
X265222Y54861D02*
D03*
X265422Y71361D02*
D03*
X264522Y180261D02*
D03*
X258122Y185661D02*
D03*
X199055Y137480D02*
D03*
X191208Y188328D02*
D03*
X171922Y188161D02*
D03*
X134322Y188361D02*
D03*
X123722Y188161D02*
D03*
X104022Y188261D02*
D03*
X84222Y188361D02*
D03*
X66022Y187161D02*
D03*
X65197Y178307D02*
D03*
X62953Y155669D02*
D03*
X119570Y130200D02*
D03*
X115905Y118189D02*
D03*
X110315Y144488D02*
D03*
X43222Y58161D02*
D03*
X42922Y34761D02*
D03*
X31804Y161861D02*
D03*
X11904Y181761D02*
D03*
X36422Y14261D02*
D03*
X15522Y14761D02*
D03*
X11307Y34661D02*
D03*
X35722Y35761D02*
D03*
X123122Y57361D02*
D03*
X167292Y28495D02*
D03*
X92000Y69800D02*
D03*
X80872Y69761D02*
D03*
X89016Y36850D02*
D03*
X78661Y46024D02*
D03*
X42589Y176474D02*
D03*
X39038Y29134D02*
D03*
X42349Y21220D02*
D03*
X182992Y151024D02*
D03*
Y147776D02*
D03*
X181320Y154670D02*
D03*
X215216Y130273D02*
D03*
X219916D02*
D03*
X224616D02*
D03*
X229316Y131673D02*
D03*
X234016Y130273D02*
D03*
X220700Y92378D02*
D03*
X218732D02*
D03*
X212826D02*
D03*
X212795Y83976D02*
D03*
X215122Y81861D02*
D03*
X196816Y92373D02*
D03*
X181469Y104134D02*
D03*
X230550Y145810D02*
D03*
X218504Y147874D02*
D03*
X182992Y125039D02*
D03*
Y128287D02*
D03*
X176147Y106105D02*
D03*
X184850Y94910D02*
D03*
X188650Y90280D02*
D03*
X191772Y147598D02*
D03*
X189173Y104252D02*
D03*
X186850Y104134D02*
D03*
X154346Y128583D02*
D03*
X157801D02*
D03*
X182992Y112047D02*
D03*
X184291Y104134D02*
D03*
X188222Y71161D02*
D03*
X193222Y91161D02*
D03*
X164812Y128583D02*
D03*
X155672Y136496D02*
D03*
X136266D02*
D03*
X140315Y148228D02*
D03*
X139500Y136496D02*
D03*
X142735D02*
D03*
X125118Y144527D02*
D03*
X133031Y142224D02*
D03*
Y139360D02*
D03*
X186850Y112047D02*
D03*
X190915Y133565D02*
D03*
X192687Y136275D02*
D03*
X185315Y159173D02*
D03*
X143879Y128583D02*
D03*
X127205Y130394D02*
D03*
X125118Y138465D02*
D03*
X158907Y136496D02*
D03*
X127449Y124764D02*
D03*
X168168Y128583D02*
D03*
X140524D02*
D03*
X125118Y147559D02*
D03*
X70550Y118380D02*
D03*
X70320Y128590D02*
D03*
Y135660D02*
D03*
X64173Y124252D02*
D03*
X108610Y125320D02*
D03*
X64016Y113937D02*
D03*
X62598Y35079D02*
D03*
X70490Y114700D02*
D03*
X62598Y60669D02*
D03*
X68299Y22712D02*
D03*
X66693Y85472D02*
D03*
X66390Y103110D02*
D03*
X66339Y99055D02*
D03*
X72320Y82390D02*
D03*
X169810Y35130D02*
D03*
X33622Y80061D02*
D03*
X155079Y44646D02*
D03*
X60551Y45906D02*
D03*
X169961Y30236D02*
D03*
X171142Y27795D02*
D03*
X153606Y56142D02*
D03*
X73622Y21693D02*
D03*
X62750Y20340D02*
D03*
X78222Y17161D02*
D03*
X45192Y21220D02*
D03*
X47756Y61890D02*
D03*
X108840Y135940D02*
D03*
X145969Y136496D02*
D03*
X108950Y118200D02*
D03*
X125118Y135433D02*
D03*
X16417Y134488D02*
D03*
Y88661D02*
D03*
X125118Y132402D02*
D03*
X121070Y122740D02*
D03*
X152438Y136496D02*
D03*
X72756Y178504D02*
D03*
X114690Y128540D02*
D03*
X137068Y128583D02*
D03*
X125118Y141496D02*
D03*
X127008Y120787D02*
D03*
X121980Y173740D02*
D03*
X118167Y173302D02*
D03*
X109130Y114820D02*
D03*
X104167Y173302D02*
D03*
X99167D02*
D03*
X94167D02*
D03*
X89167D02*
D03*
X84167D02*
D03*
X79167D02*
D03*
X74167D02*
D03*
X68937Y172913D02*
D03*
X124055Y117598D02*
D03*
X114290Y141340D02*
D03*
X111180Y109280D02*
D03*
X83167Y168302D02*
D03*
X88167D02*
D03*
X93167D02*
D03*
X98167D02*
D03*
X103167D02*
D03*
X113167D02*
D03*
X124567Y164291D02*
D03*
X134843Y167283D02*
D03*
X133167Y173302D02*
D03*
X108670Y128140D02*
D03*
X78167Y168302D02*
D03*
X60827Y161281D02*
D03*
X143222Y167161D02*
D03*
X16417Y111772D02*
D03*
X154724Y58307D02*
D03*
X133613Y128583D02*
D03*
X144055Y188071D02*
D03*
X119170Y138640D02*
D03*
X117300Y112400D02*
D03*
X155017Y187869D02*
D03*
X199646Y134252D02*
D03*
X165017Y187869D02*
D03*
X234488Y150748D02*
D03*
X210748Y158780D02*
D03*
X187222Y167161D02*
D03*
X182222D02*
D03*
X172600Y168250D02*
D03*
X162222Y167161D02*
D03*
X157222D02*
D03*
X172990Y125370D02*
D03*
X197222Y167161D02*
D03*
X173033Y12374D02*
D03*
X153228Y26811D02*
D03*
X164331Y27559D02*
D03*
X172244Y36693D02*
D03*
X165276Y47559D02*
D03*
X163883Y45665D02*
D03*
X157641Y45977D02*
D03*
X160675Y45731D02*
D03*
X173222Y47161D02*
D03*
X198100Y49100D02*
D03*
X176792Y62578D02*
D03*
X168622Y51890D02*
D03*
X163750Y68800D02*
D03*
X194207Y50246D02*
D03*
X220200Y51700D02*
D03*
X221400Y64900D02*
D03*
X217500Y70600D02*
D03*
X213250Y65900D02*
D03*
X210861Y65078D02*
D03*
X92122Y49361D02*
D03*
X226023Y59161D02*
D03*
X167953Y92047D02*
D03*
X52913Y152087D02*
D03*
X15232Y172518D02*
D03*
X17091Y168049D02*
D03*
X26006Y167996D02*
D03*
X26059Y176911D02*
D03*
X17144Y176964D02*
D03*
X16986Y29563D02*
D03*
X15113Y25116D02*
D03*
X16933Y20648D02*
D03*
X21380Y18775D02*
D03*
X25848Y20595D02*
D03*
X25901Y29510D02*
D03*
X21455Y31383D02*
D03*
X21576Y166098D02*
D03*
X150180Y53622D02*
D03*
X129890Y59770D02*
D03*
X190968Y12370D02*
D03*
X197739Y12488D02*
D03*
X195982Y24267D02*
D03*
X202462Y24267D02*
D03*
X224722Y115361D02*
D03*
X219922D02*
D03*
X250478Y141189D02*
D03*
X245478D02*
D03*
Y146189D02*
D03*
X171623Y128583D02*
D03*
X134055Y45630D02*
D03*
X229767Y185565D02*
D03*
X182992Y134783D02*
D03*
X149204Y136496D02*
D03*
X182992Y131525D02*
D03*
X152890Y53160D02*
D03*
X114882Y17323D02*
D03*
X130079Y45630D02*
D03*
X156535Y122638D02*
D03*
X197222Y172161D02*
D03*
X181686Y30241D02*
D03*
X192222Y167161D02*
D03*
X175236Y159212D02*
D03*
X135591Y123268D02*
D03*
X123167Y168302D02*
D03*
X118167D02*
D03*
X112167Y173302D02*
D03*
X43222Y182161D02*
D03*
X31204Y182561D02*
D03*
X29460Y176457D02*
D03*
X21573Y178784D02*
D03*
X69772Y44761D02*
D03*
X92122Y59361D02*
D03*
X60551Y62161D02*
D03*
X60276Y64055D02*
D03*
X80709Y61614D02*
D03*
X60690Y173247D02*
D03*
X41526Y168516D02*
D03*
X57722Y153261D02*
D03*
X55422D02*
D03*
Y150961D02*
D03*
X65905Y155787D02*
D03*
X58898Y148228D02*
D03*
X60394Y149961D02*
D03*
X57722Y150961D02*
D03*
X60394Y154331D02*
D03*
X58898Y155866D02*
D03*
X52598Y165953D02*
D03*
X44532Y163630D02*
D03*
X52598Y168516D02*
D03*
X35990Y168516D02*
D03*
X231060Y168044D02*
D03*
X224892Y31586D02*
D03*
X222824Y29458D02*
D03*
X148480Y128580D02*
D03*
X182992Y138031D02*
D03*
Y141279D02*
D03*
X133820Y59690D02*
D03*
X70260Y138930D02*
D03*
D120*
X298622Y38161D02*
D03*
X245669Y54764D02*
D03*
X254095Y53976D02*
D03*
X191955Y57290D02*
D03*
X87953Y64373D02*
D03*
X76072Y30961D02*
D03*
X71372D02*
D03*
X206816Y82273D02*
D03*
X219816Y77861D02*
D03*
X278191Y16851D02*
D03*
X146922Y105614D02*
D03*
X139322Y109161D02*
D03*
X49322Y141261D02*
D03*
X125616Y23873D02*
D03*
X129400Y17350D02*
D03*
X191778Y51139D02*
D03*
X197897Y57804D02*
D03*
X191181Y66378D02*
D03*
X194716Y86873D02*
D03*
X251484Y138177D02*
D03*
X178667Y173555D02*
D03*
X184610Y174055D02*
D03*
X271822Y32861D02*
D03*
X278191Y32205D02*
D03*
Y14291D02*
D03*
X300041D02*
D03*
Y32205D02*
D03*
X285116Y23161D02*
D03*
Y20361D02*
D03*
Y17561D02*
D03*
Y25961D02*
D03*
Y28761D02*
D03*
X289116D02*
D03*
Y25961D02*
D03*
Y17561D02*
D03*
Y20361D02*
D03*
Y23161D02*
D03*
X293116Y28761D02*
D03*
Y25961D02*
D03*
Y17561D02*
D03*
Y20361D02*
D03*
Y23161D02*
D03*
X272516Y9748D02*
D03*
X308466Y170511D02*
D03*
Y166961D02*
D03*
Y174061D02*
D03*
X311466D02*
D03*
Y166961D02*
D03*
Y170511D02*
D03*
X314466Y174061D02*
D03*
Y166961D02*
D03*
Y170511D02*
D03*
X244522Y49961D02*
D03*
X257522Y50161D02*
D03*
X251322Y50061D02*
D03*
X238900Y77900D02*
D03*
X87953Y59803D02*
D03*
Y68942D02*
D03*
X84570Y64373D02*
D03*
Y68942D02*
D03*
Y59803D02*
D03*
X99997Y26929D02*
D03*
Y22359D02*
D03*
X96614Y26929D02*
D03*
Y22359D02*
D03*
Y17790D02*
D03*
X99997D02*
D03*
X123110Y46968D02*
D03*
D121*
X121102Y68858D02*
D03*
X127008D02*
D03*
X118150D02*
D03*
X115197D02*
D03*
X124961Y45276D02*
D03*
X121102Y45354D02*
D03*
X117087Y41653D02*
D03*
X129803D02*
D03*
X133050Y16850D02*
D03*
X124055Y68858D02*
D03*
X134122Y19861D02*
D03*
X133022Y41661D02*
D03*
X126022D02*
D03*
X129822Y31461D02*
D03*
X130822Y29161D02*
D03*
X119922Y41661D02*
D03*
X122972D02*
D03*
X124550Y53250D02*
D03*
X121950Y53180D02*
D03*
D122*
X122222Y28061D02*
D03*
X117322D02*
D03*
X122222Y32061D02*
D03*
X117322D02*
D03*
D123*
X95589Y80934D02*
D03*
Y89635D02*
D03*
X84023Y155924D02*
D03*
X95444Y151119D02*
D03*
X82323Y160728D02*
D03*
X84023Y151119D02*
D03*
X95444Y155924D02*
D03*
X97244Y160728D02*
D03*
X83823Y98269D02*
D03*
X95944Y103074D02*
D03*
Y98269D02*
D03*
X82323Y93465D02*
D03*
X83823Y103074D02*
D03*
X97244Y93465D02*
D03*
X89685Y162342D02*
D03*
Y158209D02*
D03*
Y154075D02*
D03*
Y149941D02*
D03*
Y145807D02*
D03*
Y141673D02*
D03*
Y133405D02*
D03*
Y125138D02*
D03*
Y121004D02*
D03*
Y112736D02*
D03*
Y108602D02*
D03*
Y104469D02*
D03*
Y100335D02*
D03*
Y96201D02*
D03*
X82323Y117487D02*
D03*
Y112683D02*
D03*
X83823Y107878D02*
D03*
X82323Y131901D02*
D03*
Y127096D02*
D03*
Y122292D02*
D03*
X84023Y146315D02*
D03*
X82323Y141510D02*
D03*
Y136706D02*
D03*
X95444Y146315D02*
D03*
X97244Y141510D02*
D03*
Y136706D02*
D03*
Y131901D02*
D03*
Y127096D02*
D03*
Y122292D02*
D03*
Y117487D02*
D03*
Y112683D02*
D03*
X95944Y107878D02*
D03*
X104606Y142775D02*
D03*
Y136378D02*
D03*
Y129980D02*
D03*
Y123583D02*
D03*
Y117185D02*
D03*
Y110787D02*
D03*
X89685Y137539D02*
D03*
Y129272D02*
D03*
Y116870D02*
D03*
X76181Y110787D02*
D03*
Y117185D02*
D03*
Y123583D02*
D03*
Y129980D02*
D03*
Y136378D02*
D03*
Y142775D02*
D03*
D124*
X212629Y112260D02*
D03*
X217354D02*
D03*
X212629Y107535D02*
D03*
X217354D02*
D03*
X222078D02*
D03*
X226802D02*
D03*
X212629Y102811D02*
D03*
X217354D02*
D03*
X222078D02*
D03*
X226802D02*
D03*
X212629Y98087D02*
D03*
X217354D02*
D03*
X222078D02*
D03*
X226802D02*
D03*
Y112260D02*
D03*
X222078D02*
D03*
D125*
X145516Y29773D02*
D03*
Y31773D02*
D03*
X143516Y23773D02*
D03*
Y27773D02*
D03*
X145516D02*
D03*
X141516Y25773D02*
D03*
Y23773D02*
D03*
X143516Y25773D02*
D03*
X141516Y27773D02*
D03*
X145516Y23773D02*
D03*
Y25773D02*
D03*
X137516Y31773D02*
D03*
X139516D02*
D03*
X141516D02*
D03*
X143516D02*
D03*
Y29773D02*
D03*
X141516D02*
D03*
X139516D02*
D03*
X137516D02*
D03*
X139516Y27773D02*
D03*
X137516D02*
D03*
X139516Y23773D02*
D03*
X137516D02*
D03*
X139516Y25773D02*
D03*
X137516D02*
D03*
D129*
X20827Y98421D02*
D03*
X160744Y35787D02*
D03*
X379295Y185300D02*
D03*
X357422Y32650D02*
D03*
M02*
