%FSLAX25Y25*%
%MOIN*%
G70*
G01*
G75*
G04 Layer_Physical_Order=1*
G04 Layer_Color=255*
%ADD10C,0.01102*%
%ADD11R,0.01969X0.01969*%
%ADD12C,0.06811*%
%ADD13R,0.02200X0.02200*%
%ADD14R,0.24016X0.12047*%
%ADD15R,0.04331X0.02559*%
%ADD16R,0.04331X0.02200*%
%ADD17R,0.02362X0.04724*%
%ADD18R,0.01882X0.01024*%
%ADD19R,0.06890X0.05709*%
%ADD20R,0.05709X0.06890*%
%ADD21R,0.20866X0.07874*%
%ADD22R,0.08858X0.08465*%
%ADD23R,0.03200X0.03800*%
%ADD24R,0.06000X0.12000*%
%ADD25R,0.18000X0.10000*%
%ADD26R,0.03800X0.03200*%
%ADD27R,0.02874X0.01181*%
%ADD28R,0.01181X0.02874*%
%ADD29R,0.01181X0.03268*%
%ADD30R,0.03268X0.01181*%
%ADD31R,0.12047X0.24016*%
%ADD32R,0.09685X0.03110*%
%ADD33R,0.13000X0.07874*%
%ADD34R,0.04803X0.02441*%
%ADD35R,0.01870X0.00984*%
%ADD36R,0.00984X0.01870*%
%ADD37R,0.04331X0.04331*%
%ADD38R,0.02559X0.04331*%
%ADD39R,0.02047X0.04331*%
%ADD40R,0.03937X0.01378*%
%ADD41R,0.01378X0.03937*%
%ADD42R,0.02402X0.04902*%
%ADD43R,0.04095X0.07087*%
%ADD44R,0.04331X0.05512*%
%ADD45R,0.02165X0.01181*%
%ADD46R,0.02953X0.01181*%
%ADD47R,0.01181X0.02165*%
%ADD48R,0.01181X0.02953*%
%ADD49R,0.20630X0.20630*%
%ADD50R,0.02079X0.01024*%
%ADD51R,0.01024X0.02079*%
%ADD52R,0.10630X0.10630*%
%ADD53R,0.04134X0.01772*%
%ADD54R,0.11575X0.14094*%
%ADD55R,0.06890X0.06890*%
%ADD56O,0.02362X0.01181*%
%ADD57R,0.10000X0.14000*%
%ADD58R,0.02441X0.04803*%
%ADD59R,0.10236X0.03937*%
%ADD60R,0.03937X0.10236*%
%ADD61R,0.12992X0.12992*%
%ADD62R,0.07874X0.09843*%
%ADD63R,0.07874X0.07874*%
%ADD64R,0.02756X0.02165*%
%ADD65R,0.10433X0.03150*%
%ADD66R,0.02165X0.02165*%
%ADD67R,0.02165X0.02756*%
%ADD68R,0.03150X0.10433*%
%ADD69R,0.02165X0.02165*%
%ADD70R,0.02756X0.01181*%
%ADD71R,0.02200X0.01575*%
%ADD72R,0.01575X0.02200*%
G04:AMPARAMS|DCode=73|XSize=22mil|YSize=15.75mil|CornerRadius=0mil|HoleSize=0mil|Usage=FLASHONLY|Rotation=83.000|XOffset=0mil|YOffset=0mil|HoleType=Round|Shape=Rectangle|*
%AMROTATEDRECTD73*
4,1,4,0.00648,-0.01188,-0.00916,-0.00996,-0.00648,0.01188,0.00916,0.00996,0.00648,-0.01188,0.0*
%
%ADD73ROTATEDRECTD73*%

G04:AMPARAMS|DCode=74|XSize=22mil|YSize=15.75mil|CornerRadius=0mil|HoleSize=0mil|Usage=FLASHONLY|Rotation=97.000|XOffset=0mil|YOffset=0mil|HoleType=Round|Shape=Rectangle|*
%AMROTATEDRECTD74*
4,1,4,0.00916,-0.00996,-0.00648,-0.01188,-0.00916,0.00996,0.00648,0.01188,0.00916,-0.00996,0.0*
%
%ADD74ROTATEDRECTD74*%

%ADD75R,0.01969X0.03543*%
%ADD76R,0.03543X0.01969*%
%ADD77R,0.01969X0.03347*%
%ADD78R,0.03347X0.01969*%
%ADD79R,0.06496X0.06496*%
%ADD80R,0.05906X0.05906*%
%ADD81R,0.05906X0.05906*%
%ADD82R,0.07874X0.31496*%
%ADD83C,0.01400*%
%ADD84C,0.01000*%
%ADD85C,0.07000*%
%ADD86C,0.02400*%
%ADD87C,0.01575*%
%ADD88C,0.01100*%
%ADD89C,0.07874*%
%ADD90C,0.02362*%
%ADD91C,0.09000*%
%ADD92C,0.02000*%
%ADD93C,0.02047*%
%ADD94C,0.01600*%
%ADD95C,0.01969*%
%ADD96C,0.01200*%
%ADD97C,0.05000*%
%ADD98C,0.03500*%
%ADD99C,0.02200*%
%ADD100C,0.00984*%
%ADD101R,0.12835X0.09900*%
%ADD102R,0.11900X0.24400*%
%ADD103R,0.10700X0.08011*%
%ADD104R,0.10800X0.14300*%
%ADD105R,0.14525X0.03200*%
%ADD106R,0.18522X0.03500*%
%ADD107R,0.00433X0.01700*%
%ADD108R,0.10800X0.20947*%
%ADD109R,0.12402X0.23701*%
%ADD110R,0.09900X0.12520*%
%ADD111R,0.13976X0.55984*%
%ADD112R,0.35039X0.34961*%
%ADD113C,0.06299*%
%ADD114R,0.06299X0.06299*%
%ADD115R,0.03937X0.03937*%
%ADD116C,0.03937*%
%ADD117R,0.03937X0.03937*%
%ADD118C,0.01400*%
%ADD119C,0.01200*%
%ADD120C,0.01800*%
%ADD121C,0.02000*%
%ADD122C,0.04000*%
%ADD123C,0.01969*%
%ADD124C,0.02598*%
%ADD125C,0.00787*%
%ADD126C,0.01000*%
%ADD127C,0.02500*%
%ADD128C,0.02362*%
%ADD129C,0.14961*%
G36*
X11415Y194809D02*
X382282D01*
X382384Y194830D01*
X383749Y194722D01*
X385184Y194378D01*
X386548Y193813D01*
X387807Y193042D01*
X388929Y192083D01*
X389888Y190961D01*
X390659Y189702D01*
X391224Y188338D01*
X391568Y186903D01*
X391677Y185519D01*
X391660Y185431D01*
X391655D01*
X391660Y185409D01*
Y170737D01*
X375589D01*
X375515Y170722D01*
X374553Y170596D01*
X373587Y170196D01*
X372758Y169560D01*
X372122Y168730D01*
X371850Y168074D01*
X371736Y167903D01*
X371581Y167123D01*
Y140056D01*
X371581Y140056D01*
Y139662D01*
X371593Y139601D01*
X371725Y138601D01*
X372135Y137611D01*
X372787Y136762D01*
X373636Y136110D01*
X374626Y135700D01*
X375626Y135568D01*
X375687Y135556D01*
X391660D01*
Y115481D01*
X391653Y115465D01*
X391643Y115461D01*
X365342D01*
Y121927D01*
X356469D01*
D01*
X356469D01*
X356258Y122138D01*
Y122512D01*
X367862D01*
Y135559D01*
X342846D01*
Y124341D01*
X342837Y124291D01*
Y122310D01*
X340911D01*
X340676Y122751D01*
X340839Y122996D01*
X340925Y123425D01*
X340839Y123854D01*
X340596Y124218D01*
X340232Y124461D01*
X339803Y124547D01*
X339374Y124461D01*
X339010Y124218D01*
X338767Y123854D01*
X338682Y123425D01*
X338767Y122996D01*
X338931Y122751D01*
X338695Y122310D01*
X337677D01*
X336519Y122157D01*
X335607Y121780D01*
X333181D01*
Y113890D01*
X335145D01*
X335290Y113411D01*
X334980Y112948D01*
X334872Y112402D01*
X334980Y111855D01*
X335290Y111392D01*
X335753Y111083D01*
X336299Y110974D01*
X336845Y111083D01*
X337309Y111392D01*
X337618Y111855D01*
X337727Y112402D01*
X337618Y112948D01*
X338234Y113359D01*
X342483D01*
X342837Y113006D01*
Y100591D01*
X342876Y100396D01*
X342986Y100230D01*
X343151Y100120D01*
X343347Y100081D01*
X347807D01*
Y100059D01*
X356459D01*
Y99090D01*
X348412D01*
X347284Y99239D01*
X341617D01*
X341011Y99846D01*
Y101299D01*
X340858Y102457D01*
X340411Y103537D01*
X339890Y104216D01*
Y105244D01*
X338606D01*
X337694Y105622D01*
X336535Y105774D01*
X335377Y105622D01*
X334465Y105244D01*
X333181D01*
Y104216D01*
X332660Y103537D01*
X332213Y102457D01*
X332060Y101299D01*
Y97992D01*
X332213Y96834D01*
X332213Y96834D01*
X332213Y96834D01*
X332660Y95754D01*
X333371Y94828D01*
X336599Y91599D01*
X337526Y90888D01*
X338605Y90441D01*
X339764Y90289D01*
X345433D01*
X345889Y89938D01*
Y84370D01*
X345928Y84175D01*
X346039Y84010D01*
X346204Y83899D01*
X346399Y83860D01*
X346745D01*
Y81083D01*
X346898Y79924D01*
X346898Y79924D01*
X346898Y79924D01*
X347345Y78845D01*
X348056Y77918D01*
X353398Y72576D01*
X353163Y72135D01*
X353110Y72145D01*
X352681Y72060D01*
X352317Y71817D01*
X352074Y71453D01*
X351989Y71024D01*
X352074Y70594D01*
X352317Y70231D01*
X352681Y69987D01*
X353110Y69902D01*
X353539Y69987D01*
X353903Y70231D01*
X354146Y70594D01*
X354232Y71024D01*
X354221Y71076D01*
X354662Y71312D01*
X356252Y69722D01*
Y57020D01*
X358300D01*
Y53291D01*
X355096Y50087D01*
X354126D01*
Y48803D01*
X353748Y47891D01*
X353596Y46732D01*
X353748Y45574D01*
X354126Y44662D01*
Y43378D01*
X355154D01*
X355833Y42857D01*
X356913Y42410D01*
X358071Y42257D01*
X359229Y42410D01*
X360309Y42857D01*
X360988Y43378D01*
X362016D01*
Y44348D01*
X365940Y48272D01*
X366651Y49199D01*
X366782Y49516D01*
X367098Y50279D01*
X367251Y51437D01*
Y57020D01*
X369299D01*
Y82035D01*
X356597D01*
X355696Y82936D01*
Y83860D01*
X356299D01*
X356494Y83899D01*
X356660Y84010D01*
X356770Y84175D01*
X356809Y84370D01*
Y88037D01*
X357134Y88147D01*
X357567Y87897D01*
X357657Y87445D01*
X358099Y86783D01*
X358760Y86341D01*
X359541Y86186D01*
X391632D01*
X391635Y86187D01*
X391635Y86187D01*
X391635D01*
X391660Y86158D01*
Y73757D01*
X391660Y73753D01*
D01*
X391632Y73729D01*
X388876D01*
X388096Y73574D01*
X387434Y73132D01*
X386992Y72470D01*
X386962Y72319D01*
X386510Y71973D01*
X385979Y71280D01*
X385843Y70951D01*
X385352Y71049D01*
Y71417D01*
X385314Y71612D01*
X385203Y71778D01*
X385038Y71888D01*
X384842Y71927D01*
X372008D01*
X371813Y71888D01*
X371647Y71778D01*
X371537Y71612D01*
X371498Y71417D01*
Y66818D01*
X371408D01*
Y57944D01*
X385181D01*
X385181Y57944D01*
Y57944D01*
X385408Y57944D01*
X385535Y57817D01*
Y40834D01*
X385535D01*
X385408D01*
X385181Y40834D01*
X385181Y40834D01*
Y40834D01*
X379442D01*
Y48667D01*
X379741Y49114D01*
X379850Y49661D01*
X379741Y50207D01*
X379431Y50670D01*
X378968Y50980D01*
X378422Y51088D01*
X377876Y50980D01*
X377413Y50670D01*
X377103Y50207D01*
X376995Y49661D01*
X377103Y49114D01*
X377402Y48667D01*
Y40834D01*
X371408D01*
Y31960D01*
X385181D01*
X385181Y31960D01*
Y31960D01*
X385408Y31960D01*
X385535Y31833D01*
Y30625D01*
X385367Y30514D01*
X384925Y29852D01*
X384770Y29072D01*
X384774D01*
X384914Y28010D01*
X385324Y27021D01*
X385976Y26171D01*
X386825Y25519D01*
X387814Y25109D01*
X388233Y25054D01*
X388679Y24965D01*
X391652D01*
Y11416D01*
X391675Y11298D01*
X391568Y9944D01*
X391224Y8509D01*
X390659Y7145D01*
X389888Y5886D01*
X388929Y4764D01*
X387807Y3805D01*
X386548Y3034D01*
X385184Y2469D01*
X383749Y2124D01*
X382384Y2017D01*
X382282Y2037D01*
X11415D01*
X11311Y2017D01*
X9943Y2124D01*
X8508Y2469D01*
X7144Y3034D01*
X5886Y3805D01*
X4763Y4764D01*
X3804Y5886D01*
X3033Y7145D01*
X2468Y8509D01*
X2124Y9944D01*
X2016Y11312D01*
X2037Y11416D01*
X2037D01*
X2037Y11416D01*
Y185431D01*
X2037Y185431D01*
X2037D01*
X2016Y185535D01*
X2124Y186903D01*
X2468Y188338D01*
X3033Y189702D01*
X3804Y190961D01*
X4763Y192083D01*
X5886Y193042D01*
X7144Y193813D01*
X8508Y194378D01*
X9943Y194722D01*
X11311Y194830D01*
X11415Y194809D01*
D02*
G37*
%LPC*%
G36*
X283522Y88382D02*
X283093Y88297D01*
X282729Y88054D01*
X282486Y87690D01*
X282401Y87261D01*
X282486Y86831D01*
X282729Y86468D01*
X283093Y86225D01*
X283522Y86139D01*
X283951Y86225D01*
X284315Y86468D01*
X284558Y86831D01*
X284644Y87261D01*
X284558Y87690D01*
X284315Y88054D01*
X283951Y88297D01*
X283522Y88382D01*
D02*
G37*
G36*
X280622Y86682D02*
X280193Y86597D01*
X279829Y86354D01*
X279586Y85990D01*
X279501Y85561D01*
X279586Y85132D01*
X279829Y84768D01*
X280193Y84525D01*
X280622Y84439D01*
X281051Y84525D01*
X281415Y84768D01*
X281658Y85132D01*
X281744Y85561D01*
X281658Y85990D01*
X281415Y86354D01*
X281051Y86597D01*
X280622Y86682D01*
D02*
G37*
G36*
X300590Y87736D02*
X300161Y87650D01*
X299798Y87407D01*
X299554Y87043D01*
X299469Y86614D01*
X299554Y86185D01*
X299798Y85821D01*
X300161Y85578D01*
X300590Y85493D01*
X301020Y85578D01*
X301384Y85821D01*
X301627Y86185D01*
X301712Y86614D01*
X301627Y87043D01*
X301384Y87407D01*
X301020Y87650D01*
X300590Y87736D01*
D02*
G37*
G36*
X217854Y94354D02*
X213704D01*
Y90402D01*
X217854D01*
Y94354D01*
D02*
G37*
G36*
X274916Y90895D02*
X274487Y90809D01*
X274123Y90566D01*
X273880Y90202D01*
X273794Y89773D01*
X273880Y89344D01*
X274123Y88980D01*
X274487Y88737D01*
X274916Y88652D01*
X275345Y88737D01*
X275709Y88980D01*
X275952Y89344D01*
X276037Y89773D01*
X275952Y90202D01*
X275709Y90566D01*
X275345Y90809D01*
X274916Y90895D01*
D02*
G37*
G36*
X114405Y91285D02*
X112027D01*
Y87143D01*
X112027D01*
X111990D01*
Y86290D01*
X114430D01*
Y87406D01*
X114405Y87431D01*
Y91285D01*
D02*
G37*
G36*
X339022Y16542D02*
X338069Y16416D01*
X337182Y16049D01*
X336419Y15464D01*
X335834Y14701D01*
X335466Y13813D01*
X335341Y12861D01*
X335466Y11908D01*
X335834Y11020D01*
X336419Y10258D01*
X337182Y9673D01*
X338069Y9305D01*
X339022Y9180D01*
X339975Y9305D01*
X340863Y9673D01*
X341625Y10258D01*
X342210Y11020D01*
X342578Y11908D01*
X342703Y12861D01*
X342578Y13813D01*
X342210Y14701D01*
X341625Y15464D01*
X340863Y16049D01*
X339975Y16416D01*
X339022Y16542D01*
D02*
G37*
G36*
X82104Y108950D02*
X68836D01*
Y95683D01*
X72577D01*
Y87823D01*
X72573Y87804D01*
X72573Y86869D01*
X72573Y86869D01*
X72573Y86869D01*
X72626Y86605D01*
X72665Y86408D01*
X72665Y86408D01*
X72665Y86408D01*
X72792Y86218D01*
X72926Y86018D01*
X72926Y86018D01*
X72926Y86018D01*
X75534Y83409D01*
X75534Y83409D01*
X75534Y83409D01*
X75715Y83289D01*
X75925Y83148D01*
X75925Y83148D01*
X75925Y83148D01*
X76122Y83109D01*
X76386Y83056D01*
X76386Y83056D01*
X76386Y83056D01*
X77321Y83057D01*
X77341Y83061D01*
X85963D01*
Y80560D01*
X92420D01*
Y90009D01*
X85963D01*
Y87508D01*
X77341D01*
X77321Y87512D01*
X77029D01*
X77029Y87804D01*
Y87804D01*
Y87804D01*
X77025Y87825D01*
Y95683D01*
X82104D01*
Y108950D01*
D02*
G37*
G36*
X240450Y88145D02*
X237482D01*
Y86712D01*
X237365Y86537D01*
X237233Y85873D01*
Y82540D01*
X237300Y82201D01*
Y80502D01*
X240500D01*
Y81776D01*
X240567Y81877D01*
X240699Y82540D01*
Y85873D01*
X240567Y86537D01*
X240450Y86712D01*
Y88145D01*
D02*
G37*
G36*
X221350D02*
X218382D01*
Y86712D01*
X218265Y86537D01*
X218133Y85873D01*
Y82370D01*
X218216Y81952D01*
Y80462D01*
X221416D01*
Y81630D01*
X221467Y81707D01*
X221599Y82370D01*
Y85873D01*
X221467Y86537D01*
X221350Y86712D01*
Y88145D01*
D02*
G37*
G36*
X113196Y84280D02*
X112010D01*
Y83133D01*
X112027Y83116D01*
Y79261D01*
X114405D01*
Y83403D01*
X114405D01*
X114440D01*
Y84270D01*
X113196D01*
Y84280D01*
D02*
G37*
G36*
X349022Y16542D02*
X348069Y16416D01*
X347182Y16049D01*
X346419Y15464D01*
X345834Y14701D01*
X345466Y13813D01*
X345341Y12861D01*
X345466Y11908D01*
X345834Y11020D01*
X346419Y10258D01*
X347182Y9673D01*
X348069Y9305D01*
X349022Y9180D01*
X349975Y9305D01*
X350863Y9673D01*
X351625Y10258D01*
X352210Y11020D01*
X352578Y11908D01*
X352703Y12861D01*
X352578Y13813D01*
X352210Y14701D01*
X351625Y15464D01*
X350863Y16049D01*
X349975Y16416D01*
X349022Y16542D01*
D02*
G37*
G36*
X105215Y90009D02*
X98759D01*
Y80560D01*
X105215D01*
Y83061D01*
X108590D01*
X109165Y83136D01*
X109702Y83359D01*
X109760Y83403D01*
X111232D01*
Y86851D01*
X111232Y86851D01*
Y87143D01*
X109789D01*
X109702Y87210D01*
X109165Y87432D01*
X108590Y87508D01*
X105215D01*
Y90009D01*
D02*
G37*
G36*
X271016Y115601D02*
X270470Y115492D01*
X270007Y115182D01*
X269697Y114719D01*
X269588Y114173D01*
X269697Y113627D01*
X270007Y113164D01*
X270470Y112854D01*
X271016Y112746D01*
X271562Y112854D01*
X272025Y113164D01*
X272335Y113627D01*
X272443Y114173D01*
X272335Y114719D01*
X272025Y115182D01*
X271562Y115492D01*
X271016Y115601D01*
D02*
G37*
G36*
X166024Y110506D02*
X165438Y110389D01*
X164942Y110058D01*
X164611Y109562D01*
X164494Y108976D01*
X164611Y108391D01*
X164942Y107895D01*
X165438Y107563D01*
X166024Y107447D01*
X166609Y107563D01*
X167105Y107895D01*
X167437Y108391D01*
X167553Y108976D01*
X167437Y109562D01*
X167105Y110058D01*
X166609Y110389D01*
X166024Y110506D01*
D02*
G37*
G36*
X319022Y16542D02*
X318069Y16416D01*
X317182Y16049D01*
X316419Y15464D01*
X315834Y14701D01*
X315466Y13813D01*
X315341Y12861D01*
X315466Y11908D01*
X315834Y11020D01*
X316419Y10258D01*
X317182Y9673D01*
X318069Y9305D01*
X319022Y9180D01*
X319975Y9305D01*
X320863Y9673D01*
X321625Y10258D01*
X322210Y11020D01*
X322578Y11908D01*
X322703Y12861D01*
X322578Y13813D01*
X322210Y14701D01*
X321625Y15464D01*
X320863Y16049D01*
X319975Y16416D01*
X319022Y16542D01*
D02*
G37*
G36*
X16042Y119271D02*
X15612Y119186D01*
X15249Y118943D01*
X15006Y118579D01*
X14920Y118150D01*
X15006Y117720D01*
X15249Y117357D01*
X15612Y117113D01*
X16042Y117028D01*
X16471Y117113D01*
X16835Y117357D01*
X17078Y117720D01*
X17163Y118150D01*
X17078Y118579D01*
X16835Y118943D01*
X16471Y119186D01*
X16042Y119271D01*
D02*
G37*
G36*
X194569Y123869D02*
X189631D01*
Y118931D01*
X194569D01*
Y120303D01*
X195840D01*
Y119773D01*
X196029D01*
Y118700D01*
X195824D01*
Y118091D01*
X195807Y118079D01*
X195497Y117616D01*
X195388Y117070D01*
X195497Y116524D01*
X195807Y116061D01*
X195824Y116049D01*
Y115500D01*
X198398D01*
Y118700D01*
X198171D01*
Y119773D01*
X198414D01*
Y122973D01*
X195840D01*
Y122444D01*
X194569D01*
Y123869D01*
D02*
G37*
G36*
X308222Y9482D02*
X307793Y9397D01*
X307429Y9154D01*
X307186Y8790D01*
X307101Y8361D01*
X307186Y7931D01*
X307429Y7568D01*
X307793Y7324D01*
X308222Y7239D01*
X308651Y7324D01*
X309015Y7568D01*
X309258Y7931D01*
X309344Y8361D01*
X309258Y8790D01*
X309015Y9154D01*
X308651Y9397D01*
X308222Y9482D01*
D02*
G37*
G36*
X280522Y108357D02*
X280093Y108272D01*
X279729Y108028D01*
X279486Y107665D01*
X279401Y107235D01*
X279486Y106806D01*
X279729Y106442D01*
X280093Y106199D01*
X280522Y106114D01*
X280951Y106199D01*
X281315Y106442D01*
X281558Y106806D01*
X281644Y107235D01*
X281558Y107665D01*
X281315Y108028D01*
X280951Y108272D01*
X280522Y108357D01*
D02*
G37*
G36*
X329022Y16542D02*
X328069Y16416D01*
X327182Y16049D01*
X326419Y15464D01*
X325834Y14701D01*
X325466Y13813D01*
X325341Y12861D01*
X325466Y11908D01*
X325834Y11020D01*
X326419Y10258D01*
X327182Y9673D01*
X328069Y9305D01*
X329022Y9180D01*
X329975Y9305D01*
X330863Y9673D01*
X331625Y10258D01*
X332210Y11020D01*
X332578Y11908D01*
X332703Y12861D01*
X332578Y13813D01*
X332210Y14701D01*
X331625Y15464D01*
X330863Y16049D01*
X329975Y16416D01*
X329022Y16542D01*
D02*
G37*
G36*
X276316Y102601D02*
X275770Y102492D01*
X275307Y102183D01*
X274997Y101719D01*
X274888Y101173D01*
X274997Y100627D01*
X275307Y100164D01*
X275770Y99854D01*
X276316Y99746D01*
X276862Y99854D01*
X277310Y100154D01*
X284041D01*
Y99495D01*
X286693D01*
X286929Y99054D01*
X286886Y98990D01*
X286801Y98561D01*
X286886Y98132D01*
X287116Y97787D01*
X287014Y97596D01*
X286847Y97346D01*
X284041D01*
Y96691D01*
X272639D01*
Y97346D01*
X268293D01*
Y96691D01*
X264032D01*
X263884Y97048D01*
X263483Y97570D01*
X262961Y97971D01*
X262353Y98223D01*
X261700Y98309D01*
X261047Y98223D01*
X260439Y97971D01*
X259917Y97570D01*
X259516Y97048D01*
X259264Y96440D01*
X259178Y95787D01*
X259264Y95135D01*
X259516Y94527D01*
X259917Y94004D01*
X260439Y93604D01*
X261047Y93352D01*
X261700Y93266D01*
X262353Y93352D01*
X262961Y93604D01*
X263483Y94004D01*
X263667Y94244D01*
X286214D01*
X286683Y94337D01*
X286742Y94377D01*
X288387D01*
Y97138D01*
X288387Y97138D01*
X288387D01*
X288387Y97346D01*
X288351Y97524D01*
X288715Y97768D01*
X288958Y98132D01*
X289044Y98561D01*
X288958Y98990D01*
X288715Y99354D01*
X288387Y99573D01*
Y102464D01*
X284041D01*
Y102193D01*
X277310D01*
X276862Y102492D01*
X276316Y102601D01*
D02*
G37*
G36*
X228708Y94511D02*
X228372Y94444D01*
X227394D01*
Y93353D01*
X225728D01*
Y94354D01*
X221578D01*
Y90402D01*
X223870D01*
Y74066D01*
X223749D01*
Y68555D01*
X227488D01*
Y68645D01*
X227776D01*
Y68645D01*
X231335D01*
Y68645D01*
X231533D01*
X231623Y68555D01*
Y68555D01*
X235362D01*
Y74066D01*
X234970D01*
Y93353D01*
X231723D01*
Y93657D01*
X231501D01*
X231477Y93775D01*
X231225Y94153D01*
X230848Y94405D01*
X230402Y94494D01*
X229957Y94405D01*
X229900Y94367D01*
X229755Y94444D01*
Y94444D01*
X229755Y94444D01*
X229044D01*
X228708Y94511D01*
D02*
G37*
G36*
X110608Y158439D02*
X97340D01*
Y145171D01*
X110608D01*
Y149876D01*
X111232D01*
Y149836D01*
X126797D01*
Y149824D01*
Y146246D01*
X126854D01*
Y135059D01*
X126850Y135040D01*
X126850Y134105D01*
X126850Y134105D01*
X126850Y134105D01*
X126902Y133841D01*
X126942Y133644D01*
X126942Y133644D01*
X126942Y133644D01*
X127068Y133454D01*
X127203Y133254D01*
X127203Y133254D01*
X127203Y133253D01*
X129811Y130645D01*
X129811Y130645D01*
X129811Y130645D01*
X129992Y130525D01*
X130202Y130384D01*
X130202Y130384D01*
X130202Y130384D01*
X130399Y130345D01*
X130663Y130292D01*
X130663Y130292D01*
X130663Y130292D01*
X131598Y130293D01*
X131615Y130296D01*
X173223D01*
Y130229D01*
X176838D01*
Y110598D01*
X176842Y110566D01*
X176842Y109711D01*
X176842Y109710D01*
X176842Y109710D01*
X176894Y109447D01*
X176933Y109250D01*
X176933Y109250D01*
X176933Y109249D01*
X177060Y109060D01*
X177194Y108859D01*
X177194Y108859D01*
X177194Y108859D01*
X179803Y106251D01*
X179803Y106251D01*
X179803Y106251D01*
X179983Y106130D01*
X180193Y105990D01*
X180193Y105990D01*
X180193Y105990D01*
X180391Y105950D01*
X180654Y105898D01*
X180654Y105898D01*
X180654Y105898D01*
X181589Y105898D01*
D01*
D01*
X181589Y105898D01*
X181614Y105829D01*
Y105829D01*
X188307D01*
Y110391D01*
X181614D01*
Y110391D01*
X181297D01*
X181297Y110646D01*
Y110646D01*
Y110646D01*
X181285Y110706D01*
Y130876D01*
X181342D01*
Y134454D01*
Y138391D01*
X181294D01*
Y149560D01*
X181298Y149580D01*
X181298Y150515D01*
X181298Y150515D01*
X181298Y150515D01*
X181245Y150779D01*
X181206Y150976D01*
X181206Y150976D01*
X181206Y150976D01*
X181079Y151166D01*
X180945Y151367D01*
X180945Y151367D01*
X180945Y151367D01*
X178337Y153975D01*
X178337Y153975D01*
X178337Y153975D01*
X178156Y154096D01*
X177946Y154236D01*
X177946Y154236D01*
X177946Y154236D01*
X177749Y154275D01*
X177485Y154328D01*
X177485Y154328D01*
X177485Y154328D01*
X176550Y154328D01*
X176530Y154324D01*
X174970D01*
Y154364D01*
X159222D01*
Y154364D01*
X158864D01*
X158846Y154381D01*
Y154381D01*
X151331D01*
Y154324D01*
X148248D01*
X148234Y154325D01*
X145740D01*
Y154777D01*
X141496D01*
Y152977D01*
X141471Y152851D01*
Y151151D01*
X141496Y151024D01*
Y149423D01*
X145740D01*
Y149878D01*
X148223D01*
X148236Y149876D01*
X151331D01*
Y149819D01*
X158846D01*
Y149836D01*
X159222D01*
Y149836D01*
X174970D01*
Y149876D01*
X176530D01*
X176550Y149872D01*
X176842D01*
X176842Y149580D01*
Y149580D01*
Y149580D01*
X176846Y149560D01*
Y138391D01*
X176780D01*
Y134813D01*
Y134791D01*
X173223D01*
Y134743D01*
X131621D01*
X131597Y134748D01*
X131306D01*
X131306Y135040D01*
Y135040D01*
Y135040D01*
X131301Y135061D01*
Y146246D01*
X131359D01*
Y149819D01*
X134693D01*
Y149423D01*
X138937D01*
Y150949D01*
X138959Y151061D01*
Y151991D01*
X138973Y152100D01*
X138959Y152209D01*
Y152761D01*
X138937Y152872D01*
Y154777D01*
X134693D01*
Y154381D01*
X127426D01*
Y154364D01*
X126980D01*
Y154364D01*
X111232D01*
Y154324D01*
X110608D01*
Y158439D01*
D02*
G37*
G36*
X260677Y118652D02*
X255346D01*
Y112141D01*
X256890D01*
Y106326D01*
X254735Y104172D01*
X252976D01*
Y104650D01*
X250402D01*
Y101450D01*
X252976D01*
Y101928D01*
X255200D01*
X255200Y101928D01*
X255629Y102014D01*
X255993Y102257D01*
X258805Y105069D01*
X258805Y105069D01*
X259048Y105432D01*
X259133Y105862D01*
X259133Y105862D01*
Y112141D01*
X260677D01*
Y118652D01*
D02*
G37*
G36*
X273216Y111001D02*
X272670Y110892D01*
X272207Y110582D01*
X271897Y110119D01*
X271789Y109573D01*
X271897Y109027D01*
X272196Y108579D01*
Y108096D01*
X269895Y105794D01*
X269674Y105463D01*
X269596Y105073D01*
Y102464D01*
X268293D01*
Y99495D01*
X272639D01*
Y100761D01*
X273026Y101078D01*
X273222Y101039D01*
X273651Y101125D01*
X274015Y101368D01*
X274258Y101732D01*
X274344Y102161D01*
X274258Y102590D01*
X274015Y102954D01*
X273651Y103197D01*
X273222Y103282D01*
X272793Y103197D01*
X272429Y102954D01*
X272186Y102590D01*
X272161Y102464D01*
X271636D01*
Y104651D01*
X273937Y106952D01*
X274158Y107283D01*
X274236Y107673D01*
X274236Y107673D01*
X274236Y107673D01*
Y107673D01*
Y108579D01*
X274535Y109027D01*
X274643Y109573D01*
X274535Y110119D01*
X274225Y110582D01*
X273762Y110892D01*
X273216Y111001D01*
D02*
G37*
G36*
X16260Y78996D02*
X15831Y78910D01*
X15467Y78667D01*
X15224Y78303D01*
X15138Y77874D01*
X15224Y77445D01*
X15467Y77081D01*
X15831Y76838D01*
X16260Y76753D01*
X16689Y76838D01*
X17053Y77081D01*
X17296Y77445D01*
X17381Y77874D01*
X17296Y78303D01*
X17053Y78667D01*
X16689Y78910D01*
X16260Y78996D01*
D02*
G37*
G36*
X283222Y45282D02*
X282793Y45197D01*
X282429Y44954D01*
X282186Y44590D01*
X282101Y44161D01*
X282186Y43731D01*
X282429Y43368D01*
X282793Y43124D01*
X283222Y43039D01*
X283651Y43124D01*
X284015Y43368D01*
X284258Y43731D01*
X284344Y44161D01*
X284258Y44590D01*
X284015Y44954D01*
X283651Y45197D01*
X283222Y45282D01*
D02*
G37*
G36*
X324922Y43082D02*
X324493Y42997D01*
X324129Y42754D01*
X323886Y42390D01*
X323801Y41961D01*
X323886Y41532D01*
X324129Y41168D01*
X324493Y40925D01*
X324922Y40839D01*
X325351Y40925D01*
X325715Y41168D01*
X325958Y41532D01*
X326044Y41961D01*
X325958Y42390D01*
X325715Y42754D01*
X325351Y42997D01*
X324922Y43082D01*
D02*
G37*
G36*
X346378Y39822D02*
X345949Y39737D01*
X345585Y39494D01*
X345342Y39130D01*
X345256Y38701D01*
X345342Y38272D01*
X345585Y37908D01*
X345949Y37665D01*
X346378Y37579D01*
X346807Y37665D01*
X347171Y37908D01*
X347414Y38272D01*
X347499Y38701D01*
X347414Y39130D01*
X347171Y39494D01*
X346807Y39737D01*
X346378Y39822D01*
D02*
G37*
G36*
X180512Y49483D02*
Y49483D01*
X180457Y49483D01*
X180308D01*
X180158D01*
X180104Y49483D01*
X180104Y49483D01*
Y49483D01*
X176717D01*
Y43680D01*
X177214D01*
Y39480D01*
X177214Y39480D01*
X177214D01*
X177307Y39011D01*
X177573Y38614D01*
X180913Y35274D01*
X181001Y35215D01*
Y34539D01*
X183576D01*
Y37739D01*
X181908D01*
X180870Y38777D01*
X181061Y39239D01*
X181061D01*
X181061Y39239D01*
X183576D01*
Y42439D01*
X183401D01*
Y43680D01*
X183831D01*
X183831Y43680D01*
Y43680D01*
X183898Y43680D01*
X184185Y43394D01*
Y41099D01*
X184317Y40436D01*
X184445Y40244D01*
Y36139D01*
X184576Y35476D01*
X184578Y35475D01*
Y34539D01*
X185513D01*
X185515Y34538D01*
X186178Y34406D01*
X186841Y34538D01*
X186843Y34539D01*
X187152D01*
Y34746D01*
X187404Y34914D01*
X187779Y35476D01*
X187911Y36139D01*
Y39806D01*
X191616D01*
X192279Y39938D01*
X192281Y39939D01*
X193478D01*
Y43139D01*
X192281D01*
X192279Y43141D01*
X191616Y43273D01*
X187651D01*
Y45206D01*
X191778D01*
X192441Y45338D01*
X193003Y45714D01*
X193170Y45963D01*
X193378D01*
Y46274D01*
X193379Y46276D01*
X193511Y46939D01*
X193379Y47603D01*
X193378Y47605D01*
Y48538D01*
X192446D01*
X192441Y48541D01*
X191778Y48673D01*
X187638D01*
Y49483D01*
X184252D01*
X184252Y49483D01*
Y49483D01*
X184198Y49483D01*
X184048D01*
X183898D01*
X183844Y49483D01*
X183844Y49483D01*
Y49483D01*
X180512D01*
X180512Y49483D01*
D02*
G37*
G36*
X21732Y50767D02*
X21303Y50682D01*
X20939Y50439D01*
X20696Y50075D01*
X20611Y49646D01*
X20696Y49216D01*
X20939Y48853D01*
X21303Y48610D01*
X21732Y48524D01*
X22162Y48610D01*
X22525Y48853D01*
X22769Y49216D01*
X22854Y49646D01*
X22769Y50075D01*
X22525Y50439D01*
X22162Y50682D01*
X21732Y50767D01*
D02*
G37*
G36*
X100722Y70861D02*
X93722D01*
Y69210D01*
X93712Y69161D01*
Y44761D01*
X93751Y44566D01*
X93862Y44400D01*
X94027Y44290D01*
X94222Y44251D01*
X106122D01*
X106317Y44290D01*
X106483Y44400D01*
X106593Y44566D01*
X106632Y44761D01*
Y69161D01*
X106593Y69356D01*
X106483Y69521D01*
X106317Y69632D01*
X106122Y69670D01*
X103644D01*
X103522Y69687D01*
X103400Y69670D01*
X100722D01*
Y70861D01*
D02*
G37*
G36*
X372672Y16510D02*
X365372D01*
Y9211D01*
X372672D01*
Y16510D01*
D02*
G37*
G36*
X333222Y23282D02*
X332793Y23197D01*
X332429Y22954D01*
X332186Y22590D01*
X332101Y22161D01*
X332186Y21732D01*
X332429Y21368D01*
X332793Y21125D01*
X333222Y21039D01*
X333651Y21125D01*
X334015Y21368D01*
X334258Y21732D01*
X334344Y22161D01*
X334258Y22590D01*
X334015Y22954D01*
X333651Y23197D01*
X333222Y23282D01*
D02*
G37*
G36*
X240421Y24280D02*
X235484D01*
Y19342D01*
X240421D01*
Y24280D01*
D02*
G37*
G36*
X261022Y34161D02*
X242022D01*
Y27612D01*
X241951Y27506D01*
X241912Y27311D01*
Y13011D01*
X241951Y12816D01*
X242062Y12650D01*
X242227Y12540D01*
X242422Y12501D01*
X253222D01*
X253417Y12540D01*
X253583Y12650D01*
X253693Y12816D01*
X253732Y13011D01*
Y20178D01*
X257581D01*
X257715Y20076D01*
X258688Y19673D01*
X259732Y19535D01*
X270916D01*
Y16748D01*
X271292D01*
Y15548D01*
X270916D01*
Y12348D01*
X274116D01*
Y15548D01*
X273739D01*
Y16748D01*
X274116D01*
Y18186D01*
X275624D01*
Y18024D01*
X280758D01*
Y20583D01*
Y21764D01*
X281347Y22533D01*
X281750Y23506D01*
X281888Y24550D01*
X281750Y25594D01*
X281347Y26567D01*
X280758Y27336D01*
Y28260D01*
Y31032D01*
X275624D01*
Y28585D01*
X274216D01*
Y29748D01*
X269416D01*
Y27604D01*
X261240D01*
X261106Y27707D01*
X261022Y27742D01*
Y34161D01*
D02*
G37*
G36*
X231760Y66782D02*
X227351D01*
Y63581D01*
X227332Y63436D01*
Y56149D01*
X227277D01*
Y52212D01*
Y48636D01*
X227335D01*
Y44568D01*
X227295D01*
Y40040D01*
Y33938D01*
Y28820D01*
X227335D01*
Y28074D01*
X227330Y28052D01*
Y27760D01*
X227038Y27760D01*
X227038D01*
X227038D01*
X227018Y27756D01*
X226157D01*
Y27813D01*
X218643D01*
Y27756D01*
X215354D01*
X214779Y27680D01*
X214243Y27458D01*
X214042Y27304D01*
X213294D01*
Y26319D01*
X213207Y26108D01*
X213131Y25532D01*
X213207Y24957D01*
X213294Y24746D01*
Y23761D01*
X214042D01*
X214243Y23607D01*
X214779Y23384D01*
X215354Y23309D01*
X218643D01*
Y23251D01*
X226157D01*
Y23309D01*
X227018D01*
X227038Y23305D01*
X227973Y23304D01*
X227973Y23304D01*
X227973Y23304D01*
X228237Y23357D01*
X228434Y23396D01*
X228434Y23396D01*
X228434Y23396D01*
X228624Y23523D01*
X228825Y23657D01*
X228825Y23657D01*
X228825Y23657D01*
X231433Y26265D01*
X231433Y26265D01*
X231433Y26265D01*
X231554Y26446D01*
X231694Y26656D01*
X231694Y26656D01*
X231694Y26656D01*
X231733Y26853D01*
X231786Y27117D01*
X231786Y27117D01*
X231786Y27117D01*
X231786Y28052D01*
X231782Y28071D01*
Y28820D01*
X231822D01*
Y33938D01*
Y40040D01*
Y44568D01*
X231782D01*
Y48636D01*
X231839D01*
Y52212D01*
Y56149D01*
X231779D01*
Y63436D01*
X231760Y63581D01*
Y66782D01*
D02*
G37*
G36*
X323922Y16582D02*
X323493Y16497D01*
X323129Y16254D01*
X322886Y15890D01*
X322801Y15461D01*
X322886Y15032D01*
X323129Y14668D01*
X323493Y14424D01*
X323922Y14339D01*
X324351Y14424D01*
X324715Y14668D01*
X324958Y15032D01*
X325044Y15461D01*
X324958Y15890D01*
X324715Y16254D01*
X324351Y16497D01*
X323922Y16582D01*
D02*
G37*
G36*
X388222Y23282D02*
X387793Y23197D01*
X387429Y22954D01*
X387186Y22590D01*
X387101Y22161D01*
X387186Y21732D01*
X387429Y21368D01*
X387793Y21125D01*
X388222Y21039D01*
X388651Y21125D01*
X389015Y21368D01*
X389258Y21732D01*
X389344Y22161D01*
X389258Y22590D01*
X389015Y22954D01*
X388651Y23197D01*
X388222Y23282D01*
D02*
G37*
G36*
X136468Y87537D02*
X120720D01*
Y87497D01*
X117842D01*
X117266Y87421D01*
X116730Y87199D01*
X116657Y87143D01*
X115206D01*
Y86850D01*
X115206Y86850D01*
Y83403D01*
X116657D01*
X116730Y83347D01*
X117266Y83125D01*
X117842Y83050D01*
X120720D01*
Y83009D01*
X136468D01*
Y83050D01*
X138975D01*
X138996Y83045D01*
X139288D01*
X139288Y82753D01*
Y82753D01*
Y82753D01*
X139292Y82733D01*
Y79831D01*
X139235D01*
Y75894D01*
Y72316D01*
X139292D01*
Y69373D01*
Y64773D01*
Y62031D01*
X139235D01*
Y58094D01*
Y54518D01*
X139292D01*
Y51851D01*
X138747D01*
Y52403D01*
X126700D01*
Y46931D01*
X138747D01*
Y47483D01*
X139292D01*
Y47073D01*
Y42473D01*
Y42273D01*
Y39740D01*
X135684Y37332D01*
X134902D01*
Y36267D01*
X134879Y36151D01*
Y36148D01*
X134902Y36032D01*
Y33706D01*
X134216D01*
X134177Y33714D01*
X133311D01*
X131340Y35685D01*
X131422Y35884D01*
X131422D01*
X131422Y35884D01*
Y38459D01*
X129390D01*
X129385Y38462D01*
X128722Y38594D01*
X125222D01*
X124559Y38462D01*
X124557Y38461D01*
X123624D01*
Y37528D01*
X123621Y37524D01*
X123489Y36861D01*
X123621Y36197D01*
X123624Y36193D01*
Y35261D01*
X124557D01*
X124559Y35259D01*
X125222Y35127D01*
X128722D01*
X128965Y35176D01*
X132167Y31973D01*
X132498Y31752D01*
X132638Y31725D01*
Y31683D01*
Y29714D01*
Y27746D01*
Y27630D01*
X129895D01*
X129232Y28292D01*
Y28870D01*
X129222Y28922D01*
Y29961D01*
X129124Y30059D01*
X127789D01*
X127736Y30187D01*
X127255Y30814D01*
X126629Y31295D01*
X125899Y31597D01*
X125632Y31632D01*
Y34061D01*
X125593Y34256D01*
X125483Y34421D01*
X125317Y34532D01*
X125122Y34571D01*
X122311D01*
X122222Y34582D01*
X122133Y34571D01*
X117411D01*
X117322Y34582D01*
X117233Y34571D01*
X114422D01*
X114227Y34532D01*
X114196Y34511D01*
X113951Y34642D01*
X114073Y35127D01*
X121022D01*
X121685Y35259D01*
X121687Y35261D01*
X122623D01*
Y36196D01*
X122624Y36197D01*
X122755Y36861D01*
X122624Y37524D01*
X122623Y37525D01*
Y38461D01*
X121687D01*
X121685Y38462D01*
X121022Y38594D01*
X114495D01*
X114217Y39010D01*
X114427Y39516D01*
X114512Y40161D01*
X114427Y40805D01*
X114178Y41406D01*
X113783Y41921D01*
X113755Y41942D01*
Y43761D01*
X115522D01*
Y56761D01*
X108522D01*
Y43761D01*
X110289D01*
Y41942D01*
X110262Y41921D01*
X109866Y41406D01*
X109617Y40805D01*
X109532Y40161D01*
X109617Y39516D01*
X109866Y38916D01*
X110262Y38400D01*
X110289Y38379D01*
Y36861D01*
Y32879D01*
X108097Y30686D01*
X107721Y30124D01*
X107589Y29461D01*
Y28961D01*
X105822D01*
Y15961D01*
X107589D01*
Y14050D01*
X107721Y13387D01*
X108097Y12824D01*
X108659Y12449D01*
X109322Y12317D01*
X113300D01*
X113467Y12350D01*
X115200D01*
Y15550D01*
X114115D01*
X113963Y15651D01*
X113300Y15783D01*
X112822D01*
Y15961D01*
X112822D01*
Y28961D01*
X111927D01*
X111735Y29423D01*
X113248Y30935D01*
X113434Y31214D01*
X113912Y31068D01*
Y26050D01*
X113951Y25855D01*
X114062Y25690D01*
X114227Y25579D01*
X114422Y25540D01*
X115183D01*
Y21448D01*
X115167Y21368D01*
Y19550D01*
Y18730D01*
X115299Y18067D01*
X115674Y17504D01*
X117167Y16012D01*
X116975Y15550D01*
X116202D01*
Y12350D01*
X117958D01*
X119769Y10539D01*
X120100Y10318D01*
X120490Y10240D01*
X142521D01*
X142912Y10318D01*
X143242Y10539D01*
X143242Y10539D01*
X143242Y10539D01*
X144264Y11561D01*
X146020D01*
Y14761D01*
X145310D01*
Y18214D01*
X146776D01*
X146950Y18191D01*
X154559D01*
Y18134D01*
X162073D01*
Y18187D01*
X165858D01*
Y18134D01*
X173373D01*
Y18151D01*
X188768D01*
Y18200D01*
X189558D01*
Y18142D01*
X197073D01*
Y18200D01*
X208504D01*
X209080Y18275D01*
X209616Y18497D01*
X209805Y18643D01*
X210538D01*
Y19572D01*
X210652Y19848D01*
X210728Y20423D01*
X210652Y20999D01*
X210538Y21274D01*
Y22186D01*
X209828D01*
X209616Y22349D01*
X209080Y22571D01*
X208504Y22647D01*
X200816D01*
Y22647D01*
Y22965D01*
X200816Y23000D01*
X200816Y23000D01*
X200816D01*
Y24466D01*
X200847Y24623D01*
Y38664D01*
X200723Y39288D01*
X200369Y39817D01*
X197494Y42693D01*
X197054Y42986D01*
Y43139D01*
X196498D01*
X196340Y43171D01*
X196183Y43139D01*
X194480D01*
Y39939D01*
X195633D01*
X197584Y37988D01*
Y24623D01*
X197616Y24466D01*
Y23000D01*
X197616Y23000D01*
X197616D01*
X197616Y22965D01*
X197298Y22647D01*
X197073D01*
Y22704D01*
X189558D01*
Y22647D01*
X188768D01*
Y22679D01*
X173373D01*
Y22696D01*
X165858D01*
Y22634D01*
X162073D01*
Y22696D01*
X154559D01*
Y22639D01*
X148130D01*
Y22655D01*
X144744D01*
Y21974D01*
X135717D01*
Y23809D01*
Y25777D01*
Y27746D01*
Y29714D01*
Y31683D01*
Y32891D01*
X148130D01*
Y36027D01*
X148153Y36141D01*
X148142Y36195D01*
X148148Y36250D01*
X148147Y36259D01*
X148130Y36317D01*
Y37332D01*
X147347D01*
X143739Y39741D01*
Y42473D01*
Y47073D01*
Y49667D01*
Y51773D01*
Y54518D01*
X143797D01*
Y58094D01*
Y62031D01*
X143739D01*
Y64773D01*
Y69373D01*
Y72316D01*
X143797D01*
Y75894D01*
Y79831D01*
X143739D01*
Y82733D01*
X143744Y82753D01*
X143744Y83688D01*
X143744Y83688D01*
X143744Y83688D01*
X143691Y83952D01*
X143652Y84149D01*
X143652Y84149D01*
X143652Y84149D01*
X143525Y84339D01*
X143391Y84540D01*
X143391Y84540D01*
X143391Y84540D01*
X140783Y87148D01*
X140783Y87148D01*
X140783Y87148D01*
X140602Y87269D01*
X140392Y87409D01*
X140392Y87409D01*
X140392Y87409D01*
X140195Y87448D01*
X139931Y87501D01*
X139931Y87501D01*
X139931Y87501D01*
X138996Y87501D01*
X138976Y87497D01*
X136468D01*
Y87537D01*
D02*
G37*
G36*
X359022Y16542D02*
X358069Y16416D01*
X357182Y16049D01*
X356419Y15464D01*
X355834Y14701D01*
X355466Y13813D01*
X355341Y12861D01*
X355466Y11908D01*
X355834Y11020D01*
X356419Y10258D01*
X357182Y9673D01*
X358069Y9305D01*
X359022Y9180D01*
X359975Y9305D01*
X360863Y9673D01*
X361625Y10258D01*
X362210Y11020D01*
X362578Y11908D01*
X362703Y12861D01*
X362578Y13813D01*
X362210Y14701D01*
X361625Y15464D01*
X360863Y16049D01*
X359975Y16416D01*
X359022Y16542D01*
D02*
G37*
G36*
X323622Y68208D02*
X323193Y68123D01*
X322829Y67880D01*
X322586Y67516D01*
X322500Y67087D01*
X322586Y66657D01*
X322829Y66294D01*
X323193Y66050D01*
X323622Y65965D01*
X324051Y66050D01*
X324415Y66294D01*
X324658Y66657D01*
X324744Y67087D01*
X324658Y67516D01*
X324415Y67880D01*
X324051Y68123D01*
X323622Y68208D01*
D02*
G37*
G36*
X34955Y69554D02*
X31986D01*
Y65208D01*
X34955D01*
Y66362D01*
X35502D01*
X35950Y66062D01*
X36496Y65954D01*
X37042Y66062D01*
X37505Y66372D01*
X37815Y66835D01*
X37923Y67381D01*
X37815Y67927D01*
X37505Y68391D01*
X37042Y68700D01*
X36496Y68809D01*
X35950Y68700D01*
X35502Y68401D01*
X34955D01*
Y69554D01*
D02*
G37*
G36*
X190868Y84888D02*
X185932D01*
Y79952D01*
X186931D01*
X186996Y79854D01*
X189989Y76861D01*
Y75323D01*
X190121Y74660D01*
X190122Y74658D01*
Y73462D01*
X191208D01*
X191539Y73241D01*
X192202Y73109D01*
X196040D01*
X196299Y73161D01*
X197722D01*
Y74586D01*
X197774Y74843D01*
X197722Y75099D01*
Y76361D01*
X196828D01*
X196704Y76444D01*
X196040Y76576D01*
X193823D01*
X193632Y77038D01*
X194767Y78173D01*
X196816D01*
Y82973D01*
X192616D01*
Y80924D01*
X191722Y80031D01*
X190868Y80884D01*
Y84888D01*
D02*
G37*
G36*
X29836Y69554D02*
X26868D01*
Y68605D01*
X24309D01*
X24284Y68643D01*
X23705Y69030D01*
X23022Y69165D01*
X22339Y69030D01*
X21760Y68643D01*
X21374Y68064D01*
X21238Y67381D01*
X21374Y66698D01*
X21760Y66119D01*
X22339Y65733D01*
X23022Y65597D01*
X23705Y65733D01*
X24284Y66119D01*
X24309Y66158D01*
X26868D01*
Y65208D01*
X29836D01*
Y69554D01*
D02*
G37*
G36*
X179279Y72154D02*
X174343D01*
Y67216D01*
X179279D01*
Y72154D01*
D02*
G37*
G36*
X217850Y66222D02*
X217421Y66136D01*
X217057Y65893D01*
X216814Y65529D01*
X216728Y65100D01*
X216814Y64671D01*
X217057Y64307D01*
X217421Y64064D01*
X217850Y63978D01*
X218279Y64064D01*
X218643Y64307D01*
X218886Y64671D01*
X218971Y65100D01*
X218886Y65529D01*
X218643Y65893D01*
X218279Y66136D01*
X217850Y66222D01*
D02*
G37*
G36*
X325394Y61279D02*
X324964Y61194D01*
X324601Y60950D01*
X324358Y60587D01*
X324272Y60158D01*
X324358Y59728D01*
X324601Y59364D01*
X324964Y59121D01*
X325394Y59036D01*
X325823Y59121D01*
X326187Y59364D01*
X326430Y59728D01*
X326515Y60158D01*
X326430Y60587D01*
X326187Y60950D01*
X325823Y61194D01*
X325394Y61279D01*
D02*
G37*
G36*
X350512Y61122D02*
X350083Y61036D01*
X349719Y60793D01*
X349476Y60429D01*
X349390Y60000D01*
X349476Y59571D01*
X349719Y59207D01*
X350083Y58964D01*
X350512Y58878D01*
X350941Y58964D01*
X351305Y59207D01*
X351548Y59571D01*
X351633Y60000D01*
X351548Y60429D01*
X351305Y60793D01*
X350941Y61036D01*
X350512Y61122D01*
D02*
G37*
G36*
X111600Y69545D02*
X108632D01*
Y68970D01*
X108511Y68878D01*
X108150Y68408D01*
X107924Y67861D01*
X107846Y67273D01*
Y64173D01*
Y60973D01*
X107924Y60386D01*
X108150Y59838D01*
X108511Y59368D01*
X108632Y59276D01*
Y58701D01*
X111600D01*
Y59276D01*
X111721Y59368D01*
X112081Y59838D01*
X112308Y60386D01*
X112385Y60973D01*
Y61904D01*
X131822D01*
X132410Y61981D01*
X132506Y62021D01*
X134051D01*
Y63862D01*
X134091Y64173D01*
X134051Y64484D01*
Y66132D01*
X132966D01*
X132957Y66139D01*
X132410Y66365D01*
X131822Y66443D01*
X112385D01*
Y67273D01*
X112308Y67861D01*
X112081Y68408D01*
X111721Y68878D01*
X111600Y68970D01*
Y69545D01*
D02*
G37*
G36*
X273516Y70051D02*
X272871Y69966D01*
X272271Y69717D01*
X271755Y69321D01*
X271360Y68806D01*
X271111Y68205D01*
X271026Y67561D01*
X271111Y66916D01*
X271360Y66316D01*
X271755Y65800D01*
X272271Y65404D01*
X272497Y65311D01*
Y64811D01*
X272271Y64717D01*
X271755Y64321D01*
X271360Y63806D01*
X271111Y63205D01*
X271026Y62561D01*
X271111Y61916D01*
X271360Y61316D01*
X271755Y60800D01*
X272271Y60404D01*
X272497Y60311D01*
Y59811D01*
X272271Y59717D01*
X271755Y59321D01*
X271360Y58806D01*
X271111Y58205D01*
X271026Y57561D01*
X271111Y56916D01*
X271360Y56316D01*
X271755Y55800D01*
X272271Y55405D01*
X272497Y55311D01*
Y54811D01*
X272271Y54717D01*
X271755Y54321D01*
X271360Y53806D01*
X271111Y53205D01*
X271026Y52561D01*
X271111Y51916D01*
X271360Y51316D01*
X271755Y50800D01*
X272143Y50503D01*
X271982Y50029D01*
X271391D01*
X271119Y50361D01*
X271034Y50790D01*
X270791Y51154D01*
X270427Y51397D01*
X269998Y51482D01*
X269568Y51397D01*
X269205Y51154D01*
X268962Y50790D01*
X268876Y50361D01*
X268962Y49931D01*
X269205Y49568D01*
X269568Y49325D01*
X269998Y49239D01*
X270427Y49325D01*
X270606Y49444D01*
X271047Y49209D01*
Y45092D01*
X275984D01*
Y48313D01*
X276393Y48924D01*
X276822Y48839D01*
X277251Y48924D01*
X277615Y49168D01*
X277858Y49531D01*
X277944Y49961D01*
X277858Y50390D01*
X277615Y50754D01*
X277251Y50997D01*
X276822Y51082D01*
X276393Y50997D01*
X276029Y50754D01*
X275786Y50390D01*
X275714Y50029D01*
X275049D01*
X274889Y50503D01*
X275276Y50800D01*
X275672Y51316D01*
X275921Y51916D01*
X276006Y52561D01*
X275921Y53205D01*
X275672Y53806D01*
X275556Y53957D01*
X275584Y53987D01*
X275584D01*
X275898Y54321D01*
X276193Y54124D01*
X276622Y54039D01*
X277051Y54124D01*
X277415Y54368D01*
X277658Y54732D01*
X277744Y55161D01*
X277658Y55590D01*
X277415Y55954D01*
X277051Y56197D01*
X276622Y56282D01*
X276193Y56197D01*
X276121Y56149D01*
X275734Y56466D01*
X275921Y56916D01*
X276006Y57561D01*
X275921Y58205D01*
X275677Y58794D01*
X275970Y59034D01*
X276067Y59109D01*
X276193Y59025D01*
X276622Y58939D01*
X277051Y59025D01*
X277415Y59268D01*
X277658Y59632D01*
X277744Y60061D01*
X277658Y60490D01*
X277415Y60854D01*
X277051Y61097D01*
X276622Y61182D01*
X276193Y61097D01*
X276067Y61013D01*
X275970Y61088D01*
X275677Y61328D01*
X275921Y61916D01*
X276006Y62561D01*
X275921Y63205D01*
X275677Y63794D01*
X275970Y64034D01*
X276067Y64109D01*
X276193Y64025D01*
X276622Y63939D01*
X277051Y64025D01*
X277415Y64268D01*
X277658Y64631D01*
X277744Y65061D01*
X277658Y65490D01*
X277415Y65854D01*
X277051Y66097D01*
X276622Y66182D01*
X276193Y66097D01*
X276067Y66013D01*
X275970Y66088D01*
X275677Y66328D01*
X275921Y66916D01*
X276006Y67561D01*
X275921Y68205D01*
X275672Y68806D01*
X275276Y69321D01*
X274761Y69717D01*
X274160Y69966D01*
X273516Y70051D01*
D02*
G37*
G36*
X269822Y66182D02*
X269393Y66097D01*
X269029Y65854D01*
X268786Y65490D01*
X268701Y65061D01*
X268786Y64631D01*
X269029Y64268D01*
X269393Y64025D01*
X269822Y63939D01*
X270251Y64025D01*
X270615Y64268D01*
X270858Y64631D01*
X270944Y65061D01*
X270858Y65490D01*
X270615Y65854D01*
X270251Y66097D01*
X269822Y66182D01*
D02*
G37*
G36*
X193322Y72461D02*
X190122D01*
Y71264D01*
X190121Y71262D01*
X189989Y70599D01*
X190121Y69935D01*
X190122Y69933D01*
Y69886D01*
X190153D01*
X190497Y69373D01*
X191059Y68997D01*
X191722Y68865D01*
X194728D01*
X194889Y68392D01*
X194617Y68183D01*
X194216Y67661D01*
X193964Y67053D01*
X193878Y66400D01*
X193964Y65747D01*
X194216Y65139D01*
X194617Y64617D01*
X194667Y64579D01*
Y63277D01*
X192108D01*
X191445Y63145D01*
X190882Y62769D01*
X190778Y62614D01*
X190273D01*
X189805Y62521D01*
X189408Y62256D01*
X188496Y61343D01*
X188230Y60946D01*
X188137Y60478D01*
Y59798D01*
X187638D01*
Y59798D01*
X187611Y59798D01*
Y62639D01*
X187601Y62689D01*
X187611Y62739D01*
X187611Y62739D01*
Y64339D01*
Y66679D01*
X187661Y66717D01*
X188062Y67239D01*
X188313Y67847D01*
X188400Y68500D01*
X188313Y69153D01*
X188062Y69761D01*
X187661Y70283D01*
X187139Y70684D01*
X186530Y70936D01*
X185878Y71022D01*
X185225Y70936D01*
X184617Y70684D01*
X184095Y70283D01*
X183694Y69761D01*
X183442Y69153D01*
X183356Y68500D01*
X183442Y67847D01*
X183694Y67239D01*
X184095Y66717D01*
X184145Y66679D01*
Y65959D01*
X179178D01*
X178788Y65881D01*
X178457Y65660D01*
X177717Y64920D01*
X177496Y64589D01*
X177418Y64199D01*
Y59798D01*
X176717D01*
Y53995D01*
X180158D01*
Y59798D01*
X179457D01*
Y63777D01*
X179600Y63920D01*
X184145D01*
Y62739D01*
X184154Y62689D01*
X184145Y62639D01*
Y56937D01*
X184198Y56670D01*
Y53995D01*
X187638D01*
Y54978D01*
X188137D01*
X188230Y54510D01*
X188496Y54113D01*
X189410Y53198D01*
X189648Y53039D01*
X189807Y52933D01*
X190275Y52840D01*
X194995D01*
Y52343D01*
X200799D01*
Y55784D01*
X194995D01*
Y55287D01*
X190782D01*
X190584Y55485D01*
Y59892D01*
X191698D01*
X192108Y59811D01*
X197897D01*
X197961Y59823D01*
X200799D01*
Y63264D01*
X198133D01*
Y64579D01*
X198183Y64617D01*
X198584Y65139D01*
X198836Y65747D01*
X198922Y66400D01*
X198836Y67053D01*
X198584Y67661D01*
X198183Y68183D01*
X197911Y68392D01*
X198072Y68865D01*
X198782D01*
X199273Y68374D01*
X199835Y67999D01*
X200499Y67867D01*
X206479D01*
Y63264D01*
X205310D01*
Y59878D01*
X205310Y59878D01*
X205310D01*
X205310Y59823D01*
Y59674D01*
Y59524D01*
X205310Y59470D01*
X205310Y59470D01*
X205310D01*
Y56138D01*
X205310Y56138D01*
X205310D01*
X205310Y56083D01*
Y55933D01*
Y55784D01*
X205310Y55730D01*
X205310Y55730D01*
X205310D01*
Y52343D01*
X207892D01*
X208275Y52267D01*
X212900D01*
X213563Y52399D01*
X213565Y52400D01*
X214498D01*
Y53332D01*
X214501Y53337D01*
X214633Y54000D01*
X214501Y54663D01*
X214498Y54668D01*
Y55600D01*
X213565D01*
X213563Y55601D01*
X212900Y55733D01*
X211114D01*
X211114Y55784D01*
X211114D01*
Y56083D01*
Y56113D01*
X211467Y56467D01*
X212555D01*
Y56414D01*
X215434D01*
X215434Y56414D01*
Y56414D01*
X215755Y56414D01*
X215787Y56381D01*
Y55600D01*
X215500D01*
Y52400D01*
X218074D01*
Y53141D01*
X218313Y53498D01*
X218413Y54000D01*
Y60200D01*
X218313Y60702D01*
X218028Y61128D01*
X216928Y62228D01*
X216502Y62513D01*
X216000Y62613D01*
X214738D01*
X214633Y62769D01*
X214071Y63145D01*
X213408Y63277D01*
X209945D01*
Y68688D01*
X209813Y69351D01*
X209438Y69914D01*
X208526Y70826D01*
X207963Y71201D01*
X207300Y71333D01*
X201217D01*
X200726Y71824D01*
X200163Y72200D01*
X199500Y72332D01*
X193322D01*
Y72461D01*
D02*
G37*
G36*
X145922Y125145D02*
X145239Y125009D01*
X144660Y124622D01*
X144274Y124044D01*
X144138Y123361D01*
X144274Y122678D01*
X144660Y122099D01*
X144699Y122073D01*
Y120484D01*
X137698D01*
Y120861D01*
X135124D01*
Y119393D01*
X132204Y116473D01*
X131939Y116076D01*
X131846Y115608D01*
Y113995D01*
X131780Y113952D01*
X131405Y113751D01*
X130979Y114035D01*
X130433Y114144D01*
X129887Y114035D01*
X129424Y113726D01*
X129114Y113263D01*
X129006Y112716D01*
X129114Y112170D01*
X129413Y111723D01*
Y111403D01*
X129491Y111013D01*
X129712Y110682D01*
X130739Y109656D01*
Y108070D01*
X130739Y108070D01*
X130739D01*
X130740Y108052D01*
X130376Y107980D01*
X129913Y107670D01*
X129603Y107207D01*
X129495Y106661D01*
X129603Y106114D01*
X129913Y105651D01*
X130376Y105342D01*
X130922Y105233D01*
X131468Y105342D01*
X131538Y105388D01*
X131979Y105153D01*
Y104284D01*
X126968D01*
Y104325D01*
X111220D01*
Y104284D01*
X110608D01*
Y108950D01*
X97340D01*
Y95683D01*
X110608D01*
Y99837D01*
X111220D01*
Y99798D01*
X126968D01*
Y99837D01*
X130741D01*
Y99781D01*
X135303D01*
Y99837D01*
X143313D01*
Y99780D01*
X150827D01*
Y99837D01*
X151874D01*
Y99766D01*
X159387D01*
Y99837D01*
X161482D01*
X161502Y99833D01*
X161794D01*
X161794Y99541D01*
Y99541D01*
Y99541D01*
X161799Y99520D01*
Y91961D01*
X161871Y91411D01*
X161799Y90861D01*
Y89025D01*
X161298D01*
Y83789D01*
X163262D01*
X163447Y83713D01*
X164022Y83637D01*
X164598Y83713D01*
X164782Y83789D01*
X166809D01*
Y84470D01*
X167431D01*
Y84470D01*
Y84151D01*
X167431Y84117D01*
X167431Y84117D01*
X167431D01*
Y82005D01*
X167431Y82005D01*
X167431D01*
X167431Y81970D01*
X167113Y81651D01*
X165916D01*
Y79870D01*
X165885Y79714D01*
X165916Y79558D01*
Y77777D01*
X170065D01*
Y78171D01*
X170750D01*
Y78152D01*
X173950D01*
Y78171D01*
X174900D01*
Y78152D01*
X178100D01*
Y78171D01*
X179739D01*
X179917Y78052D01*
X180600Y77916D01*
X181283Y78052D01*
X181862Y78438D01*
X182248Y79017D01*
X182384Y79700D01*
X182248Y80383D01*
X181862Y80962D01*
X181283Y81349D01*
X180600Y81484D01*
X179917Y81349D01*
X179739Y81229D01*
X172137D01*
X171992Y81708D01*
X172431Y82001D01*
X172741Y82464D01*
X172850Y83011D01*
X172741Y83557D01*
X172431Y84020D01*
X171968Y84329D01*
X171422Y84438D01*
X170876Y84329D01*
X170609Y84151D01*
X170384D01*
X170065Y84470D01*
X170065Y84505D01*
X170065Y84505D01*
X170065D01*
Y85388D01*
X170774D01*
X171222Y85088D01*
X171769Y84980D01*
X172315Y85088D01*
X172778Y85398D01*
X173087Y85861D01*
X173196Y86407D01*
X173087Y86953D01*
X172778Y87416D01*
X172315Y87726D01*
X171769Y87835D01*
X171222Y87726D01*
X170774Y87427D01*
X170065D01*
Y88344D01*
X170032D01*
X169796Y88785D01*
X169869Y88894D01*
X169977Y89440D01*
X169869Y89986D01*
X169559Y90449D01*
X169096Y90759D01*
X168550Y90867D01*
X168004Y90759D01*
X167541Y90449D01*
X167231Y89986D01*
X167123Y89440D01*
X167123Y89439D01*
X166709Y89025D01*
X166246D01*
Y89719D01*
X166302D01*
Y93880D01*
Y98442D01*
X166246D01*
Y99521D01*
X166250Y99541D01*
X166250Y100476D01*
X166250Y100476D01*
X166250Y100476D01*
X166197Y100740D01*
X166158Y100937D01*
X166158Y100937D01*
X166158Y100937D01*
X166031Y101127D01*
X165897Y101327D01*
X165897Y101328D01*
X165897Y101328D01*
X163678Y103547D01*
X163612Y103633D01*
X163525Y103699D01*
X163289Y103936D01*
X163289Y103936D01*
X163289Y103936D01*
X163108Y104056D01*
X162898Y104197D01*
X162898Y104197D01*
X162898Y104197D01*
X162701Y104236D01*
X162437Y104288D01*
X162437Y104288D01*
X162437Y104288D01*
X161502Y104288D01*
X161482Y104284D01*
X159387D01*
Y104328D01*
X152887D01*
Y107780D01*
X152887D01*
Y109748D01*
X152206D01*
Y110823D01*
X152206D01*
Y113004D01*
X151446D01*
Y114918D01*
X151353Y115386D01*
X151087Y115783D01*
X147520Y119350D01*
Y120861D01*
X147146D01*
Y122073D01*
X147184Y122099D01*
X147571Y122678D01*
X147706Y123361D01*
X147571Y124044D01*
X147184Y124622D01*
X146605Y125009D01*
X145922Y125145D01*
D02*
G37*
G36*
X123976Y172924D02*
X123430Y172815D01*
X122967Y172505D01*
X122658Y172042D01*
X122549Y171496D01*
X122658Y170950D01*
X122967Y170487D01*
X123430Y170177D01*
X123976Y170069D01*
X124523Y170177D01*
X124986Y170487D01*
X125295Y170950D01*
X125404Y171496D01*
X125295Y172042D01*
X124986Y172505D01*
X124523Y172815D01*
X123976Y172924D01*
D02*
G37*
G36*
X338222Y8282D02*
X337793Y8197D01*
X337429Y7954D01*
X337186Y7590D01*
X337101Y7161D01*
X337186Y6731D01*
X337429Y6368D01*
X337793Y6125D01*
X338222Y6039D01*
X338651Y6125D01*
X339015Y6368D01*
X339258Y6731D01*
X339344Y7161D01*
X339258Y7590D01*
X339015Y7954D01*
X338651Y8197D01*
X338222Y8282D01*
D02*
G37*
G36*
X13400Y171422D02*
X12971Y171336D01*
X12607Y171093D01*
X12364Y170729D01*
X12278Y170300D01*
X12364Y169871D01*
X12607Y169507D01*
X12971Y169264D01*
X13400Y169178D01*
X13829Y169264D01*
X14193Y169507D01*
X14436Y169871D01*
X14522Y170300D01*
X14436Y170729D01*
X14193Y171093D01*
X13829Y171336D01*
X13400Y171422D01*
D02*
G37*
G36*
X370222Y174988D02*
X369676Y174880D01*
X369213Y174570D01*
X368903Y174107D01*
X368795Y173561D01*
X368903Y173014D01*
X369213Y172551D01*
X369676Y172242D01*
X370222Y172133D01*
X370768Y172242D01*
X371231Y172551D01*
X371541Y173014D01*
X371650Y173561D01*
X371541Y174107D01*
X371231Y174570D01*
X370768Y174880D01*
X370222Y174988D01*
D02*
G37*
G36*
X128230Y174072D02*
X127801Y173986D01*
X127437Y173743D01*
X127194Y173379D01*
X127108Y172950D01*
X127194Y172521D01*
X127437Y172157D01*
X127801Y171914D01*
X128230Y171828D01*
X128659Y171914D01*
X129023Y172157D01*
X129266Y172521D01*
X129351Y172950D01*
X129266Y173379D01*
X129023Y173743D01*
X128659Y173986D01*
X128230Y174072D01*
D02*
G37*
G36*
X181569Y179015D02*
X175766D01*
Y175574D01*
X181569D01*
Y176071D01*
X185281D01*
X186399Y174954D01*
Y172567D01*
X185284Y171453D01*
X185277D01*
X185273Y171456D01*
X184610Y171588D01*
X178707D01*
X178441Y171535D01*
X175766D01*
Y168094D01*
X181569D01*
Y168121D01*
X184610D01*
X185273Y168253D01*
X185835Y168629D01*
X185911Y168742D01*
X185911Y168742D01*
Y168742D01*
X186115Y168878D01*
X186210D01*
Y168942D01*
X186281Y168989D01*
X186281Y168989D01*
X186281Y168989D01*
X188129Y170837D01*
X189423D01*
X189438Y170800D01*
X189839Y170278D01*
X190361Y169877D01*
X190970Y169625D01*
X191622Y169539D01*
X192275Y169625D01*
X192883Y169877D01*
X193405Y170278D01*
X193806Y170800D01*
X194058Y171408D01*
X194144Y172061D01*
X194058Y172713D01*
X193806Y173321D01*
X193405Y173844D01*
X192883Y174244D01*
X192275Y174496D01*
X191622Y174582D01*
X190970Y174496D01*
X190361Y174244D01*
X189839Y173844D01*
X189438Y173321D01*
X189423Y173284D01*
X188846D01*
Y175461D01*
X188752Y175929D01*
X188487Y176326D01*
X186653Y178160D01*
X186256Y178425D01*
X185788Y178518D01*
X181569D01*
Y179015D01*
D02*
G37*
G36*
X278000Y168420D02*
X277610Y168342D01*
X277279Y168121D01*
X277058Y167790D01*
X276980Y167400D01*
X277058Y167010D01*
X277279Y166679D01*
X277610Y166458D01*
X278000Y166380D01*
X278390Y166458D01*
X278721Y166679D01*
X278942Y167010D01*
X279020Y167400D01*
X278942Y167790D01*
X278721Y168121D01*
X278390Y168342D01*
X278000Y168420D01*
D02*
G37*
G36*
X20787Y176849D02*
X19888Y176760D01*
X19024Y176498D01*
X18227Y176072D01*
X17529Y175499D01*
X16955Y174801D01*
X16530Y174004D01*
X16267Y173139D01*
X16179Y172240D01*
X16267Y171341D01*
X16530Y170476D01*
X16955Y169680D01*
X17529Y168981D01*
X18227Y168408D01*
X19024Y167982D01*
X19888Y167720D01*
X20787Y167631D01*
X21687Y167720D01*
X22551Y167982D01*
X23348Y168408D01*
X24046Y168981D01*
X24619Y169680D01*
X24924Y170250D01*
X54043D01*
X54064Y170245D01*
X54356D01*
X54356Y169953D01*
Y169953D01*
Y169953D01*
X54360Y169932D01*
Y166208D01*
X54303D01*
Y162271D01*
Y159176D01*
X53824Y159031D01*
X53731Y159170D01*
X53268Y159479D01*
X52722Y159588D01*
X52176Y159479D01*
X51713Y159170D01*
X51403Y158707D01*
X51295Y158161D01*
X51403Y157615D01*
X51702Y157167D01*
Y155063D01*
X51369D01*
Y153079D01*
X54239D01*
Y154455D01*
X54920D01*
Y153774D01*
X58265D01*
Y150432D01*
X54920D01*
Y148035D01*
X54668Y147706D01*
X54445Y147170D01*
X54370Y146594D01*
Y145326D01*
X54317D01*
Y141389D01*
Y137811D01*
X54375D01*
Y58810D01*
X54317D01*
Y54873D01*
Y51297D01*
X54375D01*
Y48199D01*
Y38146D01*
X54317D01*
Y34209D01*
Y30632D01*
X54375D01*
Y27710D01*
X54371Y27689D01*
Y27397D01*
X54079Y27397D01*
X54079D01*
X54079D01*
X54058Y27393D01*
X24430D01*
X24046Y27861D01*
X23348Y28434D01*
X22551Y28860D01*
X21687Y29122D01*
X20787Y29211D01*
X19888Y29122D01*
X19024Y28860D01*
X18227Y28434D01*
X17529Y27861D01*
X16955Y27163D01*
X16530Y26366D01*
X16267Y25501D01*
X16179Y24602D01*
X16267Y23703D01*
X16530Y22839D01*
X16955Y22042D01*
X17529Y21343D01*
X18227Y20770D01*
X19024Y20345D01*
X19888Y20082D01*
X20787Y19994D01*
X21687Y20082D01*
X22551Y20345D01*
X23348Y20770D01*
X24046Y21343D01*
X24619Y22042D01*
X25045Y22839D01*
X25078Y22946D01*
X54059D01*
X54079Y22942D01*
X55014Y22942D01*
X55014Y22942D01*
X55014Y22942D01*
X55278Y22994D01*
X55475Y23033D01*
X55475Y23033D01*
X55475Y23033D01*
X55664Y23160D01*
X55865Y23294D01*
X55865Y23294D01*
X55865Y23294D01*
X58474Y25903D01*
X58474Y25903D01*
X58474Y25903D01*
X58594Y26083D01*
X58735Y26293D01*
X58735Y26294D01*
X58735Y26294D01*
X58774Y26491D01*
X58826Y26754D01*
X58826Y26754D01*
X58826Y26754D01*
X58826Y27689D01*
X58822Y27709D01*
Y30632D01*
X58880D01*
Y34209D01*
Y38146D01*
X58822D01*
Y39253D01*
X58890D01*
Y39253D01*
X64401D01*
Y39934D01*
X65023D01*
Y39934D01*
Y39615D01*
X65023Y39581D01*
X65023Y39581D01*
X65023D01*
Y37469D01*
X65023Y37469D01*
X65023D01*
X65023Y37434D01*
X64704Y37115D01*
X63507D01*
Y35859D01*
X63387Y35679D01*
X63287Y35176D01*
Y33345D01*
X63281Y33336D01*
X63173Y32790D01*
X63281Y32244D01*
X63591Y31781D01*
X64054Y31471D01*
X64600Y31363D01*
X65146Y31471D01*
X65609Y31781D01*
X65919Y32244D01*
X66027Y32790D01*
X66015Y32855D01*
X66332Y33241D01*
X67657D01*
Y33955D01*
X69787D01*
Y33604D01*
X72987D01*
Y33955D01*
X74487D01*
Y33604D01*
X75955D01*
X76264Y33296D01*
X76264D01*
X76264Y33296D01*
X76264D01*
X76264Y33296D01*
Y33296D01*
X76264Y33296D01*
Y33296D01*
X76661Y33030D01*
X77129Y32937D01*
X79185D01*
X79210Y32899D01*
X79789Y32512D01*
X80472Y32376D01*
X81155Y32512D01*
X81734Y32899D01*
X82121Y33478D01*
X82256Y34161D01*
X82121Y34844D01*
X81734Y35422D01*
X81155Y35809D01*
X80472Y35945D01*
X79789Y35809D01*
X79210Y35422D01*
X79185Y35384D01*
X77687D01*
Y36179D01*
X76786D01*
X76555Y36333D01*
X76087Y36426D01*
X75965Y36402D01*
X67657D01*
Y37081D01*
X67657Y37081D01*
D01*
D01*
X67657Y37115D01*
D01*
X67976Y37434D01*
X68897D01*
Y37505D01*
X69532D01*
X69926Y37242D01*
X70472Y37133D01*
X71018Y37242D01*
X71481Y37551D01*
X71791Y38014D01*
X71899Y38561D01*
X71791Y39107D01*
X71481Y39570D01*
X71018Y39880D01*
X70472Y39988D01*
X69926Y39880D01*
X69463Y39570D01*
X69446Y39544D01*
X68897D01*
Y39615D01*
X67976D01*
X67657Y39934D01*
X67657Y39969D01*
X67657Y39969D01*
X67657D01*
Y40852D01*
X68263D01*
X68263Y40851D01*
X68726Y40542D01*
X69272Y40433D01*
X69818Y40542D01*
X70281Y40851D01*
X70591Y41314D01*
X70700Y41861D01*
X70591Y42407D01*
X70281Y42870D01*
X69818Y43180D01*
X69272Y43288D01*
X68726Y43180D01*
X68294Y42891D01*
X67657D01*
Y43808D01*
X67349D01*
X67114Y44249D01*
X67291Y44514D01*
X67400Y45061D01*
X67291Y45607D01*
X66981Y46070D01*
X66518Y46380D01*
X65972Y46488D01*
X65426Y46380D01*
X64963Y46070D01*
X64653Y45607D01*
X64548Y45079D01*
X63959Y44489D01*
X58890D01*
D01*
X58890D01*
X58822Y44556D01*
Y48199D01*
Y51297D01*
X58880D01*
Y54873D01*
Y58810D01*
X58822D01*
Y64796D01*
X58890D01*
Y64796D01*
X64401D01*
Y65477D01*
X65023D01*
Y65477D01*
Y65158D01*
X65023Y65124D01*
X65023Y65124D01*
X65023D01*
Y63012D01*
X65023Y63012D01*
X65023D01*
X65023Y62977D01*
X64704Y62658D01*
X63507D01*
Y61406D01*
X63385Y61224D01*
X63285Y60721D01*
Y59012D01*
X63221Y58916D01*
X63113Y58370D01*
X63221Y57824D01*
X63531Y57361D01*
X63994Y57051D01*
X64540Y56943D01*
X65086Y57051D01*
X65549Y57361D01*
X65859Y57824D01*
X65967Y58370D01*
X65962Y58398D01*
X66279Y58784D01*
X67657D01*
Y59498D01*
X69808D01*
Y59024D01*
X73008D01*
Y59498D01*
X74508D01*
Y59024D01*
X77708D01*
Y61598D01*
X77637D01*
Y64139D01*
X77756Y64317D01*
X77892Y65000D01*
X77756Y65683D01*
X77369Y66262D01*
X76790Y66649D01*
X76108Y66784D01*
X75425Y66649D01*
X75165Y66475D01*
X74811Y66828D01*
X74869Y66914D01*
X74977Y67461D01*
X74869Y68007D01*
X74559Y68470D01*
X74096Y68779D01*
X73550Y68888D01*
X73004Y68779D01*
X72556Y68480D01*
X67657D01*
Y69351D01*
X67611D01*
X67376Y69792D01*
X67591Y70114D01*
X67699Y70661D01*
X67591Y71207D01*
X67281Y71670D01*
X66818Y71979D01*
X66272Y72088D01*
X65726Y71979D01*
X65263Y71670D01*
X64953Y71207D01*
X64848Y70679D01*
X64202Y70032D01*
X58890D01*
D01*
X58890D01*
X58822Y70100D01*
Y137811D01*
X58880D01*
Y141389D01*
Y145326D01*
X58817D01*
Y146594D01*
X58741Y147170D01*
X58519Y147706D01*
X58266Y148035D01*
Y150430D01*
X60305D01*
X60638Y150174D01*
X61174Y149952D01*
X61750Y149876D01*
X68836D01*
Y145171D01*
X82104D01*
Y158439D01*
X68836D01*
Y154324D01*
X61750D01*
X61174Y154248D01*
X60638Y154026D01*
X60313Y153776D01*
X58266D01*
Y156153D01*
X58519Y156483D01*
X58741Y157019D01*
X58817Y157594D01*
Y158693D01*
X58865D01*
Y162271D01*
Y166208D01*
X58807D01*
Y169934D01*
X58811Y169953D01*
X58811Y170888D01*
X58811Y170888D01*
X58811Y170888D01*
X58759Y171152D01*
X58720Y171349D01*
X58720Y171349D01*
X58720Y171349D01*
X58593Y171539D01*
X58459Y171740D01*
X58459Y171740D01*
X58459Y171740D01*
X55850Y174348D01*
X55850Y174348D01*
X55850Y174348D01*
X55670Y174469D01*
X55460Y174609D01*
X55460Y174609D01*
X55460Y174609D01*
X55263Y174648D01*
X54999Y174701D01*
X54999Y174701D01*
X54999Y174701D01*
X54064Y174701D01*
X54044Y174697D01*
X24675D01*
X24619Y174801D01*
X24046Y175499D01*
X23348Y176072D01*
X22551Y176498D01*
X21687Y176760D01*
X20787Y176849D01*
D02*
G37*
G36*
X291722Y159988D02*
X291176Y159880D01*
X290713Y159570D01*
X290403Y159107D01*
X290295Y158561D01*
X290403Y158015D01*
X290713Y157551D01*
X291176Y157242D01*
X291722Y157133D01*
X292268Y157242D01*
X292731Y157551D01*
X293041Y158015D01*
X293149Y158561D01*
X293041Y159107D01*
X292731Y159570D01*
X292268Y159880D01*
X291722Y159988D01*
D02*
G37*
G36*
X150768Y177769D02*
X145832D01*
Y172831D01*
X146628D01*
Y169861D01*
Y159186D01*
X145963D01*
Y156218D01*
X147648D01*
X148260Y156096D01*
X148872Y156218D01*
X150506D01*
Y159186D01*
X149891D01*
Y168261D01*
X150120D01*
Y171461D01*
X149891D01*
Y172831D01*
X150768D01*
Y177769D01*
D02*
G37*
G36*
X303222Y168282D02*
X302793Y168197D01*
X302429Y167954D01*
X302186Y167590D01*
X302101Y167161D01*
X302186Y166732D01*
X302429Y166368D01*
X302793Y166124D01*
X303222Y166039D01*
X303651Y166124D01*
X304015Y166368D01*
X304258Y166732D01*
X304344Y167161D01*
X304258Y167590D01*
X304015Y167954D01*
X303651Y168197D01*
X303222Y168282D01*
D02*
G37*
G36*
X67114Y167980D02*
X62177D01*
Y163043D01*
X67114D01*
Y167980D01*
D02*
G37*
G36*
X362888Y163265D02*
X362341Y163156D01*
X361878Y162847D01*
X361569Y162384D01*
X361460Y161838D01*
X361569Y161292D01*
X361878Y160828D01*
X362341Y160519D01*
X362888Y160410D01*
X363434Y160519D01*
X363897Y160828D01*
X364206Y161292D01*
X364315Y161838D01*
X364206Y162384D01*
X363897Y162847D01*
X363434Y163156D01*
X362888Y163265D01*
D02*
G37*
G36*
X386903Y175076D02*
X386357Y174968D01*
X385894Y174658D01*
X385584Y174195D01*
X385476Y173649D01*
X385584Y173102D01*
X385894Y172639D01*
X386357Y172330D01*
X386903Y172221D01*
X387450Y172330D01*
X387913Y172639D01*
X388222Y173102D01*
X388331Y173649D01*
X388222Y174195D01*
X387913Y174658D01*
X387450Y174968D01*
X386903Y175076D01*
D02*
G37*
G36*
X317722Y189842D02*
X316769Y189716D01*
X315882Y189349D01*
X315119Y188764D01*
X314534Y188001D01*
X314166Y187113D01*
X314041Y186161D01*
X314166Y185208D01*
X314534Y184320D01*
X315119Y183558D01*
X315882Y182973D01*
X316769Y182605D01*
X317722Y182480D01*
X318675Y182605D01*
X319563Y182973D01*
X320325Y183558D01*
X320910Y184320D01*
X321278Y185208D01*
X321403Y186161D01*
X321278Y187113D01*
X320910Y188001D01*
X320325Y188764D01*
X319563Y189349D01*
X318675Y189716D01*
X317722Y189842D01*
D02*
G37*
G36*
X307722D02*
X306769Y189716D01*
X305882Y189349D01*
X305119Y188764D01*
X304534Y188001D01*
X304166Y187113D01*
X304041Y186161D01*
X304166Y185208D01*
X304534Y184320D01*
X305119Y183558D01*
X305882Y182973D01*
X306769Y182605D01*
X307722Y182480D01*
X308675Y182605D01*
X309563Y182973D01*
X310325Y183558D01*
X310910Y184320D01*
X311278Y185208D01*
X311403Y186161D01*
X311278Y187113D01*
X310910Y188001D01*
X310325Y188764D01*
X309563Y189349D01*
X308675Y189716D01*
X307722Y189842D01*
D02*
G37*
G36*
X286378Y189823D02*
X285425Y189697D01*
X284537Y189330D01*
X283775Y188745D01*
X283190Y187982D01*
X282822Y187094D01*
X282697Y186142D01*
X282822Y185189D01*
X283190Y184301D01*
X283775Y183539D01*
X284537Y182954D01*
X285425Y182586D01*
X286378Y182461D01*
X287331Y182586D01*
X288218Y182954D01*
X288981Y183539D01*
X289566Y184301D01*
X289934Y185189D01*
X290059Y186142D01*
X289934Y187094D01*
X289566Y187982D01*
X288981Y188745D01*
X288218Y189330D01*
X287331Y189697D01*
X286378Y189823D01*
D02*
G37*
G36*
X353722Y188951D02*
X353078Y188866D01*
X352477Y188617D01*
X351961Y188221D01*
X351664Y187834D01*
X351191Y187994D01*
Y188929D01*
X346254D01*
Y183992D01*
X346989D01*
Y179197D01*
X346665Y178873D01*
X345918D01*
Y178126D01*
X345502Y177711D01*
X345393Y177547D01*
X344914Y177692D01*
Y178873D01*
X342339D01*
Y177773D01*
X342181Y177536D01*
X342073Y176990D01*
X342181Y176444D01*
X342339Y176207D01*
Y175673D01*
X342951D01*
X342954Y175671D01*
X343500Y175563D01*
X344046Y175671D01*
X344049Y175673D01*
X344641D01*
X344641Y175673D01*
Y175673D01*
X344914Y175673D01*
X344994Y175593D01*
Y172005D01*
X337437D01*
Y173479D01*
X337305Y174142D01*
X336930Y174704D01*
X336423Y175211D01*
X336503Y175405D01*
D01*
X336614Y175673D01*
X338992D01*
Y176242D01*
X339025Y176264D01*
X339335Y176727D01*
X339443Y177273D01*
X339335Y177820D01*
X339025Y178282D01*
X338992Y178305D01*
Y178873D01*
X336418D01*
Y175870D01*
X336150Y175759D01*
D01*
X335956Y175679D01*
X335549Y176085D01*
Y177273D01*
X335417Y177936D01*
X335414Y177941D01*
Y178873D01*
X334481D01*
X334479Y178875D01*
X333816Y179007D01*
X329497D01*
X328834Y178875D01*
X328813Y178861D01*
X327982D01*
X327790Y179323D01*
X328822Y180354D01*
X328884Y180346D01*
X329537Y180432D01*
X330145Y180684D01*
X330667Y181085D01*
X331068Y181607D01*
X331320Y182215D01*
X331406Y182868D01*
X331320Y183520D01*
X331068Y184129D01*
X330667Y184651D01*
X330145Y185052D01*
X329537Y185303D01*
X328884Y185389D01*
X328232Y185303D01*
X327624Y185052D01*
X327101Y184651D01*
X326701Y184129D01*
X326449Y183520D01*
X326363Y182868D01*
X326371Y182806D01*
X323534Y179969D01*
X323159Y179407D01*
X323027Y178743D01*
Y177979D01*
X321706Y176658D01*
X321522Y176682D01*
X320869Y176596D01*
X320261Y176344D01*
X319739Y175944D01*
X319338Y175422D01*
X319087Y174813D01*
X319001Y174161D01*
X319087Y173508D01*
X319338Y172900D01*
X319739Y172378D01*
X320261Y171977D01*
X320869Y171725D01*
X321522Y171639D01*
X322175Y171725D01*
X322783Y171977D01*
X323305Y172378D01*
X323706Y172900D01*
X323958Y173508D01*
X324033Y174083D01*
X325611Y175661D01*
X326621D01*
Y178153D01*
X327160Y178692D01*
X327622Y178501D01*
Y175661D01*
X328889D01*
X329497Y175540D01*
X332083D01*
Y175367D01*
X332215Y174704D01*
X332590Y174141D01*
X333971Y172761D01*
Y171899D01*
Y171484D01*
X332516D01*
Y171550D01*
X329316D01*
Y171484D01*
X327816D01*
Y171548D01*
X324616D01*
Y168973D01*
X327816D01*
Y169036D01*
X329316D01*
Y168975D01*
X332516D01*
Y169036D01*
X334062D01*
X334086Y168914D01*
X334327Y168553D01*
X334433Y168482D01*
X334288Y168004D01*
X330916D01*
X330753Y167972D01*
X329316D01*
Y165397D01*
X332516D01*
Y165557D01*
X334288D01*
X334433Y165078D01*
X334327Y165008D01*
X334086Y164647D01*
X334002Y164221D01*
X334086Y163796D01*
X333470Y163384D01*
X329429D01*
X327816Y164997D01*
X327816Y165397D01*
X327816D01*
Y167972D01*
X324616D01*
Y165397D01*
X324992D01*
Y164867D01*
X324992Y164867D01*
X324992D01*
X325085Y164399D01*
X325351Y164002D01*
X328057Y161296D01*
X328454Y161030D01*
X328454Y161030D01*
X328454Y161030D01*
D01*
X328454Y161030D01*
X328454Y161030D01*
X328922Y160937D01*
X340020D01*
X340256Y160496D01*
X340071Y160220D01*
X339962Y159673D01*
X340071Y159127D01*
X340380Y158664D01*
X340689Y158458D01*
X340544Y157979D01*
X326181D01*
X325890Y157941D01*
X315248D01*
Y149067D01*
X325890D01*
X326181Y149029D01*
X332169D01*
X332390Y148580D01*
X332038Y148122D01*
X331786Y147513D01*
X331700Y146861D01*
X331786Y146208D01*
X332038Y145600D01*
X332439Y145078D01*
X332961Y144677D01*
X333570Y144425D01*
X334222Y144339D01*
X334875Y144425D01*
X335483Y144677D01*
X336005Y145078D01*
X336406Y145600D01*
X336658Y146208D01*
X336710Y146602D01*
X337197Y146716D01*
X337429Y146368D01*
X337793Y146124D01*
X338222Y146039D01*
X338651Y146124D01*
X339015Y146368D01*
X339258Y146731D01*
X339344Y147161D01*
X339258Y147590D01*
X339015Y147954D01*
X338651Y148197D01*
X338222Y148282D01*
X337793Y148197D01*
X337429Y147954D01*
X337186Y147590D01*
X337161Y147467D01*
X336662Y147483D01*
X336658Y147513D01*
X336406Y148122D01*
X336054Y148580D01*
X336275Y149029D01*
X342846D01*
Y146646D01*
X349187D01*
X349333Y146167D01*
X348907Y145882D01*
X348597Y145420D01*
X348488Y144873D01*
X348597Y144327D01*
X348907Y143864D01*
X349370Y143554D01*
X349916Y143446D01*
X350462Y143554D01*
X350925Y143864D01*
X351235Y144327D01*
X351343Y144873D01*
X351235Y145420D01*
X350925Y145882D01*
X350499Y146167D01*
X350644Y146646D01*
X367862D01*
Y159693D01*
X350190D01*
X350166Y159935D01*
X350166D01*
X350141Y160190D01*
X350462Y160254D01*
X350925Y160564D01*
X351235Y161027D01*
X351343Y161573D01*
X351235Y162119D01*
X350925Y162583D01*
X350462Y162892D01*
X349916Y163001D01*
X349370Y162892D01*
X348907Y162583D01*
X348597Y162119D01*
X348488Y161573D01*
X348597Y161027D01*
X348907Y160564D01*
X349370Y160254D01*
X349691Y160190D01*
X349666Y159935D01*
X349666D01*
X349642Y159693D01*
X342846D01*
X342846Y159693D01*
Y159693D01*
X342813D01*
X342709Y160220D01*
X342524Y160496D01*
X342759Y160937D01*
X344667D01*
X345135Y161030D01*
X345532Y161296D01*
X347353Y163116D01*
X347744Y163194D01*
X348105Y163435D01*
X348345Y163796D01*
X348430Y164221D01*
X348345Y164647D01*
X348105Y165008D01*
X348039Y165051D01*
X347945Y165542D01*
X347953Y165555D01*
X347953Y165555D01*
X347953D01*
X348329Y166117D01*
X348461Y166780D01*
Y169340D01*
Y171899D01*
Y173013D01*
X348902Y173249D01*
X349021Y173169D01*
X349567Y173061D01*
X350113Y173169D01*
X350576Y173479D01*
X350886Y173942D01*
X350994Y174488D01*
X350886Y175034D01*
X350576Y175497D01*
X350113Y175807D01*
X349567Y175916D01*
X349217Y175846D01*
X348981Y176287D01*
X349948Y177254D01*
X350324Y177816D01*
X350455Y178479D01*
Y179355D01*
X350934Y179500D01*
X351195Y179109D01*
X351659Y178799D01*
X352205Y178691D01*
X352751Y178799D01*
X353214Y179109D01*
X353523Y179572D01*
X353632Y180118D01*
X353523Y180664D01*
X353214Y181128D01*
X352751Y181437D01*
X352205Y181545D01*
X351659Y181437D01*
X351195Y181128D01*
X350934Y180736D01*
X350455Y180881D01*
Y183992D01*
X351191D01*
Y184927D01*
X351664Y185088D01*
X351961Y184700D01*
X352477Y184304D01*
X353078Y184056D01*
X353722Y183971D01*
X354366Y184056D01*
X354967Y184304D01*
X355483Y184700D01*
X355878Y185216D01*
X356127Y185816D01*
X356212Y186461D01*
X356127Y187105D01*
X355878Y187706D01*
X355483Y188221D01*
X354967Y188617D01*
X354366Y188866D01*
X353722Y188951D01*
D02*
G37*
G36*
X301372Y189810D02*
X294073D01*
Y182511D01*
X301372D01*
Y189810D01*
D02*
G37*
G36*
X280028Y189791D02*
X272728D01*
Y182492D01*
X280028D01*
Y189791D01*
D02*
G37*
G36*
X96142Y183563D02*
X95713Y183477D01*
X95349Y183234D01*
X95106Y182870D01*
X95020Y182441D01*
X95106Y182012D01*
X95349Y181648D01*
X95713Y181405D01*
X96142Y181319D01*
X96571Y181405D01*
X96935Y181648D01*
X97178Y182012D01*
X97263Y182441D01*
X97178Y182870D01*
X96935Y183234D01*
X96571Y183477D01*
X96142Y183563D01*
D02*
G37*
G36*
X119528Y176860D02*
X118981Y176752D01*
X118518Y176442D01*
X118209Y175979D01*
X118100Y175433D01*
X118209Y174887D01*
X118518Y174424D01*
X118981Y174114D01*
X119528Y174006D01*
X120074Y174114D01*
X120537Y174424D01*
X120846Y174887D01*
X120955Y175433D01*
X120846Y175979D01*
X120537Y176442D01*
X120074Y176752D01*
X119528Y176860D01*
D02*
G37*
G36*
X353416Y176101D02*
X352870Y175992D01*
X352407Y175682D01*
X352097Y175220D01*
X351989Y174673D01*
X352097Y174127D01*
X352407Y173664D01*
X352870Y173354D01*
X353416Y173246D01*
X353962Y173354D01*
X354425Y173664D01*
X354735Y174127D01*
X354843Y174673D01*
X354735Y175220D01*
X354425Y175682D01*
X353962Y175992D01*
X353416Y176101D01*
D02*
G37*
G36*
X358116Y176001D02*
X357570Y175892D01*
X357107Y175583D01*
X356797Y175119D01*
X356688Y174573D01*
X356797Y174027D01*
X357107Y173564D01*
X357570Y173254D01*
X358116Y173146D01*
X358662Y173254D01*
X359125Y173564D01*
X359435Y174027D01*
X359543Y174573D01*
X359435Y175119D01*
X359125Y175583D01*
X358662Y175892D01*
X358116Y176001D01*
D02*
G37*
G36*
X125787Y183120D02*
X125241Y183012D01*
X124778Y182702D01*
X124469Y182239D01*
X124360Y181693D01*
X124469Y181147D01*
X124778Y180684D01*
X125241Y180374D01*
X125787Y180265D01*
X126334Y180374D01*
X126797Y180684D01*
X127106Y181147D01*
X127215Y181693D01*
X127106Y182239D01*
X126797Y182702D01*
X126334Y183012D01*
X125787Y183120D01*
D02*
G37*
G36*
X132913Y181860D02*
X132367Y181752D01*
X131904Y181442D01*
X131595Y180979D01*
X131486Y180433D01*
X131595Y179887D01*
X131904Y179424D01*
X132367Y179114D01*
X132913Y179006D01*
X133460Y179114D01*
X133923Y179424D01*
X134232Y179887D01*
X134341Y180433D01*
X134232Y180979D01*
X133923Y181442D01*
X133460Y181752D01*
X132913Y181860D01*
D02*
G37*
G36*
X171254Y179015D02*
X165451D01*
Y178518D01*
X159156D01*
X158688Y178425D01*
X158291Y178160D01*
X156745Y176613D01*
X156479Y176216D01*
X156386Y175748D01*
Y175031D01*
X156010D01*
Y172456D01*
X159210D01*
Y175031D01*
X159210D01*
X159210Y175618D01*
X159663Y176071D01*
X165451D01*
Y175628D01*
X165451Y175628D01*
X165451D01*
X165451Y175574D01*
Y175425D01*
Y175414D01*
X165010Y175178D01*
X164990Y175191D01*
X164522Y175284D01*
X162416D01*
X161948Y175191D01*
X161776Y175076D01*
X161708Y175031D01*
X160810D01*
Y172456D01*
X164010D01*
Y172456D01*
X164512Y172456D01*
X164560Y172424D01*
X165028Y172331D01*
X165451D01*
Y171901D01*
X165451Y171901D01*
X165451D01*
X165451Y171834D01*
X165164Y171548D01*
X152800D01*
X152363Y171461D01*
X151122D01*
Y170091D01*
X151067Y169814D01*
X151122Y169538D01*
Y168261D01*
X152065D01*
X152137Y168213D01*
X152800Y168081D01*
X166626D01*
Y163754D01*
X166758Y163091D01*
X167134Y162529D01*
X167383Y162362D01*
Y162154D01*
X167694D01*
X167696Y162153D01*
X168360Y162021D01*
X169023Y162153D01*
X169025Y162154D01*
X169958D01*
Y163087D01*
X169961Y163091D01*
X170093Y163754D01*
Y168094D01*
X171254D01*
Y171481D01*
X171254Y171481D01*
D01*
D01*
X171254Y171535D01*
Y171598D01*
Y171684D01*
Y171729D01*
Y171834D01*
X171254Y171873D01*
X171254Y171888D01*
X171254Y171888D01*
X171254D01*
Y175221D01*
X171254Y175221D01*
D01*
D01*
X171254Y175275D01*
Y175338D01*
Y175425D01*
Y175469D01*
Y175574D01*
X171254Y175613D01*
X171254Y175628D01*
X171254Y175628D01*
X171254D01*
Y179015D01*
D02*
G37*
G36*
X308222Y158282D02*
X307793Y158197D01*
X307429Y157954D01*
X307186Y157590D01*
X307101Y157161D01*
X307186Y156731D01*
X307429Y156368D01*
X307793Y156124D01*
X308222Y156039D01*
X308651Y156124D01*
X309015Y156368D01*
X309258Y156731D01*
X309344Y157161D01*
X309258Y157590D01*
X309015Y157954D01*
X308651Y158197D01*
X308222Y158282D01*
D02*
G37*
G36*
X340622Y135988D02*
X340076Y135880D01*
X339613Y135570D01*
X339303Y135107D01*
X339195Y134561D01*
X339303Y134014D01*
X339613Y133551D01*
X340076Y133242D01*
X340622Y133133D01*
X341168Y133242D01*
X341631Y133551D01*
X341941Y134014D01*
X342050Y134561D01*
X341941Y135107D01*
X341631Y135570D01*
X341168Y135880D01*
X340622Y135988D01*
D02*
G37*
G36*
X378222Y8282D02*
X377793Y8197D01*
X377429Y7954D01*
X377186Y7590D01*
X377101Y7161D01*
X377186Y6731D01*
X377429Y6368D01*
X377793Y6125D01*
X378222Y6039D01*
X378651Y6125D01*
X379015Y6368D01*
X379258Y6731D01*
X379344Y7161D01*
X379258Y7590D01*
X379015Y7954D01*
X378651Y8197D01*
X378222Y8282D01*
D02*
G37*
G36*
X268222Y133282D02*
X267793Y133197D01*
X267429Y132954D01*
X267186Y132590D01*
X267101Y132161D01*
X267186Y131731D01*
X267429Y131368D01*
X267793Y131124D01*
X268222Y131039D01*
X268651Y131124D01*
X269015Y131368D01*
X269258Y131731D01*
X269344Y132161D01*
X269258Y132590D01*
X269015Y132954D01*
X268651Y133197D01*
X268222Y133282D01*
D02*
G37*
G36*
X270276Y143996D02*
X269846Y143910D01*
X269482Y143667D01*
X269239Y143303D01*
X269154Y142874D01*
X269239Y142445D01*
X269482Y142081D01*
X269846Y141838D01*
X270276Y141753D01*
X270705Y141838D01*
X270988Y142027D01*
X271374Y141710D01*
X271178Y141235D01*
X271093Y140591D01*
X271178Y139946D01*
X271427Y139346D01*
X271822Y138830D01*
X272338Y138434D01*
X272564Y138341D01*
Y137841D01*
X272338Y137747D01*
X271822Y137351D01*
X271427Y136835D01*
X271178Y136235D01*
X271093Y135591D01*
X271178Y134946D01*
X271427Y134346D01*
X271822Y133830D01*
X272338Y133434D01*
X272564Y133341D01*
Y132841D01*
X272338Y132747D01*
X271822Y132351D01*
X271427Y131835D01*
X271178Y131235D01*
X271093Y130591D01*
X271178Y129946D01*
X271427Y129346D01*
X271822Y128830D01*
X272338Y128434D01*
X272564Y128341D01*
Y127841D01*
X272338Y127747D01*
X271822Y127351D01*
X271427Y126835D01*
X271178Y126235D01*
X271093Y125591D01*
X271178Y124946D01*
X271427Y124346D01*
X271822Y123830D01*
X272210Y123532D01*
X272049Y123059D01*
X271114D01*
Y119451D01*
X270673Y119215D01*
X270551Y119297D01*
X270122Y119382D01*
X269693Y119297D01*
X269329Y119054D01*
X269086Y118690D01*
X269001Y118261D01*
X269086Y117832D01*
X269329Y117468D01*
X269693Y117225D01*
X270122Y117139D01*
X270551Y117225D01*
X270915Y117468D01*
X271158Y117832D01*
X271216Y118122D01*
X276051D01*
Y123059D01*
X275116D01*
X274956Y123532D01*
X275343Y123830D01*
X275739Y124346D01*
X275988Y124946D01*
X276073Y125591D01*
X275988Y126235D01*
X275739Y126835D01*
X275343Y127351D01*
X274828Y127747D01*
X274601Y127841D01*
Y128341D01*
X274828Y128434D01*
X275343Y128830D01*
X275739Y129346D01*
X275988Y129946D01*
X276073Y130591D01*
X275988Y131235D01*
X275739Y131835D01*
X275343Y132351D01*
X274828Y132747D01*
X274601Y132841D01*
Y133341D01*
X274828Y133434D01*
X275343Y133830D01*
X275739Y134346D01*
X275756Y134386D01*
X276234Y134531D01*
X276393Y134424D01*
X276822Y134339D01*
X277251Y134424D01*
X277615Y134668D01*
X277858Y135031D01*
X277944Y135461D01*
X277858Y135890D01*
X277615Y136254D01*
X277251Y136497D01*
X276822Y136582D01*
X276393Y136497D01*
X276318Y136447D01*
X275840Y136592D01*
X275739Y136835D01*
X275343Y137351D01*
X274828Y137747D01*
X274601Y137841D01*
Y138341D01*
X274828Y138434D01*
X275343Y138830D01*
X275739Y139346D01*
X275988Y139946D01*
X276073Y140591D01*
X275988Y141235D01*
X275739Y141835D01*
X275343Y142351D01*
X274828Y142747D01*
X274227Y142996D01*
X273583Y143080D01*
X272938Y142996D01*
X272338Y142747D01*
X271822Y142351D01*
X271778Y142294D01*
X271323Y142500D01*
X271397Y142874D01*
X271312Y143303D01*
X271069Y143667D01*
X270705Y143910D01*
X270276Y143996D01*
D02*
G37*
G36*
X334222Y138882D02*
X333570Y138796D01*
X332961Y138544D01*
X332439Y138144D01*
X332038Y137621D01*
X331786Y137013D01*
X331700Y136361D01*
X331786Y135708D01*
X332038Y135100D01*
X332439Y134578D01*
X332961Y134177D01*
X333570Y133925D01*
X334222Y133839D01*
X334875Y133925D01*
X335483Y134177D01*
X336005Y134578D01*
X336406Y135100D01*
X336658Y135708D01*
X336744Y136361D01*
X336658Y137013D01*
X336406Y137621D01*
X336005Y138144D01*
X335483Y138544D01*
X334875Y138796D01*
X334222Y138882D01*
D02*
G37*
G36*
X279922Y136688D02*
X279376Y136580D01*
X278913Y136270D01*
X278603Y135807D01*
X278495Y135261D01*
X278603Y134714D01*
X278913Y134251D01*
X279376Y133942D01*
X279922Y133833D01*
X280468Y133942D01*
X280931Y134251D01*
X281241Y134714D01*
X281349Y135261D01*
X281241Y135807D01*
X280931Y136270D01*
X280468Y136580D01*
X279922Y136688D01*
D02*
G37*
G36*
X29836Y131634D02*
X26868D01*
Y130684D01*
X24309D01*
X24284Y130722D01*
X23705Y131109D01*
X23022Y131245D01*
X22339Y131109D01*
X21760Y130722D01*
X21374Y130143D01*
X21238Y129461D01*
X21374Y128778D01*
X21760Y128199D01*
X22339Y127812D01*
X23022Y127676D01*
X23705Y127812D01*
X24284Y128199D01*
X24309Y128237D01*
X26868D01*
Y127287D01*
X29836D01*
Y131634D01*
D02*
G37*
G36*
X257378Y145788D02*
X254178D01*
Y143984D01*
X254156Y143877D01*
Y139777D01*
X254086D01*
Y136577D01*
X254156D01*
Y136387D01*
X254250Y135919D01*
X254515Y135522D01*
X255962Y134075D01*
X255771Y133613D01*
X255346D01*
Y127101D01*
X260677D01*
Y133613D01*
X259235D01*
Y133756D01*
X259142Y134224D01*
X258877Y134621D01*
X256661Y136837D01*
Y139777D01*
X256604D01*
Y143213D01*
X257378D01*
Y145788D01*
D02*
G37*
G36*
X253450Y126872D02*
X253021Y126786D01*
X252657Y126543D01*
X252414Y126179D01*
X252328Y125750D01*
X252414Y125321D01*
X252657Y124957D01*
X253021Y124714D01*
X253450Y124628D01*
X253879Y124714D01*
X254243Y124957D01*
X254486Y125321D01*
X254572Y125750D01*
X254486Y126179D01*
X254243Y126543D01*
X253879Y126786D01*
X253450Y126872D01*
D02*
G37*
G36*
X309142Y148354D02*
X299284D01*
Y138890D01*
X307340D01*
X315248Y130982D01*
Y123083D01*
X324748D01*
X325039Y123044D01*
X326181D01*
X326472Y123083D01*
X337114D01*
Y131957D01*
X326931D01*
X312102Y146787D01*
X311175Y147498D01*
X310095Y147945D01*
X309142Y148070D01*
Y148354D01*
D02*
G37*
G36*
X280322Y131882D02*
X279893Y131797D01*
X279529Y131554D01*
X279286Y131190D01*
X279201Y130761D01*
X279286Y130332D01*
X279529Y129968D01*
X279893Y129725D01*
X280322Y129639D01*
X280751Y129725D01*
X281115Y129968D01*
X281358Y130332D01*
X281444Y130761D01*
X281358Y131190D01*
X281115Y131554D01*
X280751Y131797D01*
X280322Y131882D01*
D02*
G37*
G36*
X292213Y148354D02*
X282354D01*
Y138890D01*
X284269D01*
X289383Y133776D01*
Y129688D01*
X288376Y128681D01*
X285944D01*
X285799Y129160D01*
X285828Y129179D01*
X286160Y129675D01*
X286276Y130261D01*
X286160Y130846D01*
X285828Y131342D01*
X285332Y131674D01*
X284747Y131790D01*
X284161Y131674D01*
X283665Y131342D01*
X283334Y130846D01*
X283217Y130261D01*
X283334Y129675D01*
X283665Y129179D01*
X283695Y129160D01*
X283549Y128681D01*
X281705D01*
Y113681D01*
X287599D01*
X289700Y111580D01*
Y108075D01*
X289286Y107854D01*
X288740Y107963D01*
X288194Y107854D01*
X287731Y107545D01*
X287421Y107082D01*
X287313Y106535D01*
X287421Y105989D01*
X287731Y105526D01*
X288194Y105217D01*
X288740Y105108D01*
X289286Y105217D01*
X289700Y104996D01*
Y93459D01*
X288061Y91820D01*
X287437Y91059D01*
X286972Y90190D01*
X286686Y89248D01*
X286590Y88268D01*
Y80776D01*
X285799D01*
Y73145D01*
X280127Y67472D01*
X279755Y66916D01*
X279625Y66260D01*
Y63911D01*
X279739Y63338D01*
Y62313D01*
X280757D01*
X281339Y62197D01*
X281920Y62313D01*
X282939D01*
Y63338D01*
X283053Y63911D01*
Y65550D01*
X286648Y69146D01*
X297337D01*
X297337Y69146D01*
Y69146D01*
X297429Y69146D01*
X297690Y68885D01*
Y62877D01*
X291100Y56287D01*
X287186D01*
X282939Y60535D01*
Y61309D01*
X281920D01*
X281339Y61425D01*
X280757Y61309D01*
X279739D01*
Y60284D01*
X279625Y59711D01*
X279739Y59138D01*
Y58735D01*
X279969D01*
X280127Y58499D01*
X285799Y52826D01*
Y44657D01*
X297429D01*
Y49958D01*
X305330Y57859D01*
X306041Y58786D01*
X306041Y58786D01*
X306249Y58994D01*
X306627Y58919D01*
Y43995D01*
X305080Y42447D01*
X304962Y42368D01*
X304883Y42250D01*
X303458Y40825D01*
X303255Y40561D01*
X302122D01*
Y35761D01*
X302588D01*
Y31032D01*
X297474D01*
Y28260D01*
Y27600D01*
X297188Y27381D01*
X296547Y26545D01*
X296144Y25572D01*
X296007Y24528D01*
X296144Y23483D01*
X296547Y22511D01*
X297188Y21675D01*
X297474Y21455D01*
Y20583D01*
Y18024D01*
Y15465D01*
X302608D01*
Y15831D01*
X303512D01*
X303902Y15909D01*
X304233Y16130D01*
X306310Y18207D01*
X306531Y18538D01*
X306609Y18928D01*
Y20551D01*
X316122D01*
X316317Y20590D01*
X316483Y20700D01*
X316593Y20866D01*
X316632Y21061D01*
Y42008D01*
X316593Y42203D01*
X316483Y42368D01*
X316317Y42479D01*
X316122Y42518D01*
X315578D01*
Y62595D01*
X322128Y69146D01*
X325005D01*
X327892Y66259D01*
Y64659D01*
X328006Y64086D01*
Y63061D01*
X329025D01*
X329606Y62945D01*
X330188Y63061D01*
X331206D01*
Y64086D01*
X331320Y64659D01*
Y66969D01*
X331190Y67624D01*
X330818Y68181D01*
X327429Y71570D01*
Y80776D01*
X324002D01*
X323684Y81162D01*
X323744Y81461D01*
X323658Y81890D01*
X323543Y82062D01*
X323689Y82540D01*
X324167Y82739D01*
X325094Y83450D01*
X325094Y83450D01*
X325094Y83450D01*
X326850Y85206D01*
X332118Y79939D01*
Y57020D01*
X345165D01*
Y82035D01*
X342476D01*
X341806Y82909D01*
X330972Y93743D01*
Y105157D01*
X330820Y106315D01*
X330373Y107394D01*
X329661Y108321D01*
X322062Y115920D01*
X321135Y116632D01*
X320056Y117079D01*
X318898Y117231D01*
X317484D01*
X312705Y122010D01*
Y128681D01*
X301705D01*
Y113681D01*
X308376D01*
X312465Y109591D01*
X313392Y108880D01*
X314472Y108433D01*
X315630Y108281D01*
X317044D01*
X322022Y103303D01*
Y96240D01*
X321635Y95923D01*
X321219Y96006D01*
X321036Y96189D01*
X320705Y96410D01*
X320315Y96487D01*
X319883D01*
Y97346D01*
X315537D01*
Y95152D01*
X315225Y94944D01*
X315096Y94875D01*
X314745Y95109D01*
X314316Y95195D01*
X313887Y95109D01*
X313523Y94866D01*
X313280Y94502D01*
X313194Y94073D01*
X313280Y93644D01*
X313523Y93280D01*
X313887Y93037D01*
X314316Y92952D01*
X314745Y93037D01*
X315109Y93280D01*
X315352Y93644D01*
X315437Y94073D01*
X316966Y94377D01*
X319727D01*
X319791Y94054D01*
X320101Y93591D01*
X320564Y93281D01*
X321110Y93173D01*
X321574Y93265D01*
X321810Y92824D01*
X320075Y91089D01*
X313032D01*
X311873Y90937D01*
X310794Y90490D01*
X309867Y89779D01*
X299001Y78913D01*
X298290Y77986D01*
X297920Y77092D01*
X297429Y77190D01*
Y80776D01*
X296638D01*
Y86187D01*
X298277Y87825D01*
X298902Y88587D01*
X299366Y89455D01*
X299652Y90398D01*
X299749Y91378D01*
Y94182D01*
X299749D01*
X299789D01*
X300102Y94182D01*
X300102Y94182D01*
Y94182D01*
X301047D01*
X301241Y93892D01*
X303222Y91911D01*
X303327Y91383D01*
X303636Y90920D01*
X304099Y90610D01*
X304646Y90502D01*
X305192Y90610D01*
X305655Y90920D01*
X305964Y91383D01*
X306073Y91929D01*
X305964Y92475D01*
X305655Y92939D01*
X305192Y93248D01*
X304664Y93353D01*
X304047Y93969D01*
X304135Y94182D01*
X304135D01*
X304135Y94182D01*
Y97150D01*
X304135Y97150D01*
X304135D01*
X304134Y97162D01*
X304451Y97224D01*
X304815Y97468D01*
X305058Y97831D01*
X305144Y98261D01*
X305058Y98690D01*
X304815Y99054D01*
X305118Y99506D01*
X306691D01*
X307160Y99600D01*
X307557Y99865D01*
X307932Y100241D01*
X307969Y100225D01*
X308622Y100139D01*
X309275Y100225D01*
X309883Y100477D01*
X310405Y100878D01*
X310806Y101400D01*
X310821Y101437D01*
X315537D01*
Y99495D01*
X319883D01*
Y102464D01*
X318350D01*
X317288Y103526D01*
X316891Y103791D01*
X316423Y103884D01*
X310821D01*
X310806Y103921D01*
X310405Y104444D01*
X309883Y104844D01*
X309275Y105096D01*
X308622Y105182D01*
X307969Y105096D01*
X307361Y104844D01*
X306839Y104444D01*
X306438Y103921D01*
X306187Y103313D01*
X306101Y102661D01*
X306144Y102329D01*
X305815Y101953D01*
X304135D01*
Y102269D01*
X300102D01*
X300102Y102269D01*
Y102269D01*
X299789Y102269D01*
X299749Y102309D01*
Y113661D01*
X299652Y114642D01*
X299366Y115584D01*
X298902Y116453D01*
X298277Y117214D01*
X294172Y121319D01*
Y121819D01*
X297023Y124670D01*
X297734Y125597D01*
X297734Y125597D01*
X297734Y125597D01*
X298181Y126676D01*
X298334Y127835D01*
Y135630D01*
X298181Y136788D01*
X297734Y137868D01*
X297023Y138794D01*
X292213Y143605D01*
Y148354D01*
D02*
G37*
G36*
X34955Y131634D02*
X31986D01*
Y127287D01*
X34955D01*
Y128441D01*
X37228D01*
X37676Y128142D01*
X38222Y128033D01*
X38768Y128142D01*
X39232Y128451D01*
X39541Y128914D01*
X39650Y129461D01*
X39541Y130007D01*
X39232Y130470D01*
X38768Y130780D01*
X38222Y130888D01*
X37676Y130780D01*
X37228Y130480D01*
X34955D01*
Y131634D01*
D02*
G37*
G36*
X245478Y137311D02*
X245049Y137225D01*
X244685Y136982D01*
X244442Y136618D01*
X244356Y136189D01*
X244442Y135760D01*
X244685Y135396D01*
X245049Y135153D01*
X245478Y135068D01*
X245907Y135153D01*
X246271Y135396D01*
X246514Y135760D01*
X246599Y136189D01*
X246514Y136618D01*
X246271Y136982D01*
X245907Y137225D01*
X245478Y137311D01*
D02*
G37*
G36*
X363222Y8282D02*
X362793Y8197D01*
X362429Y7954D01*
X362186Y7590D01*
X362101Y7161D01*
X362186Y6731D01*
X362429Y6368D01*
X362793Y6125D01*
X363222Y6039D01*
X363651Y6125D01*
X364015Y6368D01*
X364258Y6731D01*
X364344Y7161D01*
X364258Y7590D01*
X364015Y7954D01*
X363651Y8197D01*
X363222Y8282D01*
D02*
G37*
G36*
X205614Y149538D02*
X205185Y149453D01*
X204821Y149210D01*
X204578Y148846D01*
X204492Y148417D01*
X204578Y147987D01*
X204821Y147624D01*
X205185Y147380D01*
X205614Y147295D01*
X206043Y147380D01*
X206407Y147624D01*
X206650Y147987D01*
X206735Y148417D01*
X206650Y148846D01*
X206407Y149210D01*
X206043Y149453D01*
X205614Y149538D01*
D02*
G37*
G36*
X259778Y151211D02*
X259125Y151125D01*
X258517Y150873D01*
X257995Y150472D01*
X257957Y150423D01*
X255778D01*
X255115Y150291D01*
X254552Y149915D01*
X254184Y149364D01*
X254178D01*
Y149355D01*
X254176Y149353D01*
X254045Y148689D01*
X254176Y148026D01*
X254178Y148024D01*
Y146789D01*
X257378D01*
Y146956D01*
X257957D01*
X257995Y146906D01*
X258517Y146506D01*
X259125Y146254D01*
X259778Y146168D01*
X260431Y146254D01*
X261039Y146506D01*
X261561Y146906D01*
X261962Y147429D01*
X262213Y148037D01*
X262299Y148689D01*
X262213Y149342D01*
X261962Y149950D01*
X261561Y150472D01*
X261039Y150873D01*
X260431Y151125D01*
X259778Y151211D01*
D02*
G37*
G36*
X287836Y157374D02*
X287290Y157265D01*
X286827Y156956D01*
X286518Y156493D01*
X286409Y155947D01*
X286518Y155400D01*
X286827Y154937D01*
X287290Y154628D01*
X287836Y154519D01*
X288383Y154628D01*
X288846Y154937D01*
X289155Y155400D01*
X289264Y155947D01*
X289155Y156493D01*
X288846Y156956D01*
X288383Y157265D01*
X287836Y157374D01*
D02*
G37*
G36*
X299252Y154957D02*
X298862Y154879D01*
X298531Y154658D01*
X298310Y154327D01*
X298232Y153937D01*
X298310Y153547D01*
X298531Y153216D01*
X298862Y152995D01*
X299252Y152917D01*
X299642Y152995D01*
X299973Y153216D01*
X300194Y153547D01*
X300272Y153937D01*
X300194Y154327D01*
X299973Y154658D01*
X299642Y154879D01*
X299252Y154957D01*
D02*
G37*
G36*
X297330Y153201D02*
X296901Y153116D01*
X296537Y152873D01*
X296294Y152509D01*
X296208Y152080D01*
X296294Y151651D01*
X296537Y151287D01*
X296901Y151044D01*
X297330Y150958D01*
X297759Y151044D01*
X298123Y151287D01*
X298366Y151651D01*
X298451Y152080D01*
X298366Y152509D01*
X298123Y152873D01*
X297759Y153116D01*
X297330Y153201D01*
D02*
G37*
G36*
X273465Y170080D02*
X272820Y169995D01*
X272220Y169747D01*
X271704Y169351D01*
X271308Y168835D01*
X271060Y168235D01*
X270975Y167591D01*
X271060Y166946D01*
X271308Y166346D01*
X271704Y165830D01*
X272220Y165434D01*
X272446Y165341D01*
Y164841D01*
X272220Y164747D01*
X271704Y164351D01*
X271308Y163835D01*
X271060Y163235D01*
X270975Y162591D01*
X271060Y161946D01*
X271308Y161346D01*
X271704Y160830D01*
X272220Y160434D01*
X272446Y160341D01*
Y159841D01*
X272220Y159747D01*
X271704Y159351D01*
X271308Y158835D01*
X271060Y158235D01*
X270975Y157591D01*
X271060Y156946D01*
X271308Y156346D01*
X271704Y155830D01*
X272220Y155434D01*
X272446Y155341D01*
Y154841D01*
X272220Y154747D01*
X271704Y154351D01*
X271308Y153835D01*
X271060Y153235D01*
X270975Y152591D01*
X271060Y151946D01*
X271308Y151346D01*
X271704Y150830D01*
X272092Y150532D01*
X271931Y150059D01*
X270996D01*
Y145122D01*
X275933D01*
Y150059D01*
X274998D01*
X274837Y150532D01*
X275225Y150830D01*
X275621Y151346D01*
X275869Y151946D01*
X275954Y152591D01*
X275869Y153235D01*
X275621Y153835D01*
X275225Y154351D01*
X274710Y154747D01*
X274483Y154841D01*
Y155341D01*
X274710Y155434D01*
X275225Y155830D01*
X275621Y156346D01*
X275869Y156946D01*
X275954Y157591D01*
X275869Y158235D01*
X275621Y158835D01*
X275225Y159351D01*
X274710Y159747D01*
X274483Y159841D01*
Y160341D01*
X274710Y160434D01*
X275225Y160830D01*
X275621Y161346D01*
X275869Y161946D01*
X275954Y162591D01*
X275869Y163235D01*
X275621Y163835D01*
X275225Y164351D01*
X274710Y164747D01*
X274483Y164841D01*
Y165341D01*
X274710Y165434D01*
X275225Y165830D01*
X275621Y166346D01*
X275869Y166946D01*
X275954Y167591D01*
X275869Y168235D01*
X275621Y168835D01*
X275225Y169351D01*
X274710Y169747D01*
X274109Y169995D01*
X273465Y170080D01*
D02*
G37*
G36*
X362888Y145942D02*
X362341Y145834D01*
X361878Y145524D01*
X361569Y145061D01*
X361460Y144515D01*
X361569Y143969D01*
X361878Y143506D01*
X362341Y143196D01*
X362888Y143087D01*
X363434Y143196D01*
X363897Y143506D01*
X364206Y143969D01*
X364315Y144515D01*
X364206Y145061D01*
X363897Y145524D01*
X363434Y145834D01*
X362888Y145942D01*
D02*
G37*
G36*
X210600Y141381D02*
Y141350D01*
X209550Y141300D01*
X204000Y141324D01*
X203269Y141228D01*
X202588Y140946D01*
X202003Y140497D01*
X201554Y139912D01*
X201272Y139231D01*
X201176Y138500D01*
X201176D01*
X201200Y138476D01*
X201163Y134100D01*
X201311Y132977D01*
X201744Y131931D01*
X202433Y131033D01*
X203331Y130344D01*
X204378Y129911D01*
X205500Y129763D01*
D01*
D01*
D01*
X205500Y129763D01*
X205500Y129763D01*
X205475Y125850D01*
X205543Y125336D01*
X205213Y124960D01*
X202854D01*
X202826Y124978D01*
Y126027D01*
X202835Y126073D01*
X202826Y126119D01*
Y127900D01*
X200252D01*
Y124700D01*
X200252D01*
X200541Y124486D01*
D01*
D01*
D01*
Y124486D01*
X200541D01*
D01*
X200433Y123940D01*
X200541Y123394D01*
X200316Y122973D01*
X199417D01*
Y119773D01*
X201992D01*
Y119988D01*
X202357Y120331D01*
X202666Y120311D01*
X202796Y119829D01*
X202595Y119694D01*
X201601Y118700D01*
X199402D01*
Y115500D01*
X201973D01*
Y115500D01*
X201976D01*
D01*
D01*
X202238Y115325D01*
X202281Y115106D01*
X202281Y115106D01*
X202281Y115106D01*
Y115106D01*
X202190Y114646D01*
X194679D01*
X194362Y115032D01*
X194394Y115191D01*
X194308Y115620D01*
X194065Y115984D01*
X193701Y116227D01*
X193272Y116312D01*
X192843Y116227D01*
X192479Y115984D01*
X192236Y115620D01*
X192150Y115191D01*
X192236Y114761D01*
X192479Y114398D01*
X192617Y114305D01*
X192472Y113827D01*
X190169D01*
Y110268D01*
X190169Y110268D01*
X190169Y109890D01*
X190169D01*
Y106331D01*
X190169Y106331D01*
X190169Y105953D01*
X190169D01*
Y102394D01*
X193347D01*
Y101693D01*
X198545D01*
X198736Y101231D01*
X198262Y100756D01*
X195300D01*
Y100551D01*
X194780D01*
Y100756D01*
X191580D01*
Y98182D01*
X194780D01*
Y98409D01*
X195300D01*
Y98182D01*
X198500D01*
Y98410D01*
X198909Y98491D01*
X199256Y98723D01*
X200823Y100290D01*
X201460D01*
X201777Y99904D01*
X201723Y99630D01*
X201831Y99084D01*
X201839Y99072D01*
X201603Y98631D01*
X200831D01*
X200421Y98550D01*
X200074Y98318D01*
X198934Y97178D01*
X198500Y97178D01*
Y97178D01*
X195300D01*
Y96931D01*
X194780D01*
Y97178D01*
X191580D01*
Y94604D01*
X194780D01*
Y94789D01*
X195300D01*
Y94604D01*
X195859D01*
X195921Y94511D01*
X196384Y94201D01*
X196930Y94093D01*
X197476Y94201D01*
X197939Y94511D01*
X198002Y94604D01*
X198500D01*
Y94789D01*
X199130D01*
X199540Y94871D01*
X199887Y95103D01*
X201274Y96490D01*
X201998D01*
X202233Y96049D01*
X201944Y95616D01*
X201812Y94952D01*
Y94107D01*
X201016D01*
X200353Y93975D01*
X200350Y93973D01*
X199417D01*
Y93041D01*
X199415Y93037D01*
X199283Y92373D01*
Y90941D01*
X199190Y90848D01*
X198814Y90286D01*
X198683Y89623D01*
Y89273D01*
X198216D01*
Y84473D01*
X198583D01*
Y82973D01*
X198216D01*
Y78173D01*
X202416D01*
Y82973D01*
X202049D01*
Y84003D01*
X202547Y84052D01*
X202616Y83701D01*
X202988Y83145D01*
X203544Y82774D01*
X204200Y82643D01*
X204856Y82774D01*
X205412Y83145D01*
X205498Y83274D01*
X206862Y84638D01*
X207020Y84875D01*
X208416D01*
Y87436D01*
X209172Y88192D01*
X209634Y88001D01*
Y81925D01*
X209699Y81601D01*
Y78279D01*
X207404Y75984D01*
X201298D01*
Y76361D01*
X198724D01*
Y73161D01*
X201298D01*
Y73537D01*
X207911D01*
X208379Y73630D01*
X208776Y73896D01*
X211787Y76907D01*
X212052Y77304D01*
X212146Y77772D01*
Y80261D01*
X212521D01*
Y83461D01*
X212081D01*
Y85900D01*
X212498D01*
Y89100D01*
X212081D01*
Y92378D01*
X211988Y92846D01*
X211948Y92906D01*
Y94354D01*
X209767D01*
Y93567D01*
X208110D01*
Y95224D01*
X208897D01*
Y97193D01*
Y99161D01*
Y101130D01*
Y103098D01*
Y105067D01*
Y107248D01*
X208071D01*
Y109004D01*
X208897D01*
Y110972D01*
Y112941D01*
Y115122D01*
X208110D01*
Y116779D01*
X209767D01*
Y115992D01*
X213600D01*
X213827Y115817D01*
X214460Y115555D01*
X215047Y115478D01*
X215050Y115461D01*
X215089Y115469D01*
D01*
X215101Y115471D01*
D01*
X215101Y115471D01*
X215137Y115466D01*
Y115466D01*
X215139Y115466D01*
X215139Y115466D01*
Y115466D01*
X215139Y115466D01*
D01*
X215830Y115616D01*
D01*
X215830D01*
X215830Y115616D01*
X216393Y115992D01*
X229665D01*
Y116779D01*
X231322D01*
Y115122D01*
X230535D01*
Y112941D01*
Y110972D01*
Y109004D01*
Y107035D01*
Y105067D01*
Y103098D01*
X234060D01*
X234829Y102329D01*
X235160Y102108D01*
X235550Y102030D01*
X235695D01*
X235840Y101552D01*
X235437Y101283D01*
X235430Y101271D01*
X234488D01*
Y101342D01*
X230535D01*
Y99161D01*
Y97193D01*
Y95224D01*
X233916D01*
X236812Y92329D01*
X237143Y92108D01*
X237533Y92030D01*
X244428D01*
X248031Y88427D01*
Y84931D01*
X252969D01*
Y89868D01*
X249473D01*
X245571Y93771D01*
X245240Y93992D01*
X244850Y94070D01*
X237955D01*
X237416Y94609D01*
X237652Y95050D01*
X238000Y94980D01*
X248031D01*
Y93532D01*
X252969D01*
Y98469D01*
X248031D01*
Y97020D01*
X238422D01*
X236969Y98473D01*
X237018Y98971D01*
X237456Y99264D01*
X237765Y99727D01*
X237874Y100273D01*
X237765Y100819D01*
X237456Y101283D01*
X237053Y101552D01*
X237198Y102030D01*
X246824D01*
Y101450D01*
X249398D01*
Y104650D01*
X246824D01*
Y104070D01*
X235972D01*
X235619Y104423D01*
X235668Y104920D01*
X236010Y105148D01*
X236319Y105611D01*
X236428Y106157D01*
X236402Y106286D01*
X236680Y106702D01*
X237209Y106807D01*
X237672Y107117D01*
X237982Y107580D01*
X238091Y108126D01*
X237982Y108672D01*
X237672Y109135D01*
X237209Y109445D01*
X236674Y109551D01*
X236397Y109967D01*
X236422Y110094D01*
X236395Y110229D01*
X236673Y110645D01*
X237172Y110744D01*
X237635Y111054D01*
X237945Y111517D01*
X238054Y112063D01*
X237945Y112609D01*
X237635Y113072D01*
X237172Y113382D01*
X236637Y113488D01*
X236360Y113904D01*
X236385Y114032D01*
X236276Y114578D01*
X235967Y115041D01*
X235504Y115350D01*
X234958Y115459D01*
X234874Y115442D01*
X234488Y115760D01*
Y117090D01*
D01*
Y117090D01*
X234740Y117343D01*
X235733D01*
X236181Y117043D01*
X236727Y116935D01*
X237273Y117043D01*
X237736Y117353D01*
X238046Y117816D01*
X238154Y118362D01*
X238046Y118908D01*
X237736Y119371D01*
X237608Y119458D01*
X237559Y119955D01*
X239243Y121640D01*
X239464Y121970D01*
X239542Y122361D01*
X239542Y122361D01*
X239542Y122361D01*
Y122361D01*
Y123267D01*
X239841Y123714D01*
X239949Y124261D01*
X239841Y124807D01*
X239531Y125270D01*
X239068Y125580D01*
X238522Y125688D01*
X237976Y125580D01*
X237513Y125270D01*
X237203Y124807D01*
X237095Y124261D01*
X237203Y123714D01*
X237503Y123267D01*
Y122783D01*
X236409Y121690D01*
X233503D01*
X233454Y122187D01*
X233675Y122231D01*
X234006Y122452D01*
X234034Y122480D01*
X234562Y122585D01*
X235025Y122895D01*
X235335Y123358D01*
X235443Y123904D01*
X235335Y124450D01*
X235197Y124656D01*
X235433Y125097D01*
X235616D01*
Y127672D01*
X232416D01*
Y125097D01*
X232599D01*
X232835Y124656D01*
X232697Y124450D01*
X232646Y124193D01*
X230788D01*
X230552Y124634D01*
X230635Y124758D01*
X230743Y125304D01*
X230635Y125850D01*
X230497Y126056D01*
X230733Y126497D01*
X230916D01*
Y129072D01*
X227716D01*
Y126497D01*
X227716D01*
Y126296D01*
X227464Y126246D01*
X227133Y126025D01*
X226678Y125570D01*
X226216Y125761D01*
Y127672D01*
X223016D01*
Y125097D01*
X223016D01*
Y125097D01*
D01*
D01*
X223016Y124538D01*
X221694Y123216D01*
X221253Y123452D01*
X221343Y123904D01*
X221235Y124450D01*
X221097Y124656D01*
X221333Y125097D01*
X221516D01*
Y127672D01*
X218316D01*
Y125097D01*
X218499D01*
X218735Y124656D01*
X218597Y124450D01*
X218489Y123904D01*
X218558Y123557D01*
X218011Y123010D01*
X218011Y123010D01*
Y123010D01*
X217991Y122993D01*
X217496Y123061D01*
X217484Y123078D01*
X216896Y123666D01*
X216943Y123904D01*
X216835Y124450D01*
X216816Y124478D01*
X216816Y125097D01*
X216816D01*
Y127672D01*
X214511D01*
X214158Y128026D01*
X214181Y137800D01*
X214059Y138727D01*
X213701Y139590D01*
X213132Y140332D01*
X212390Y140901D01*
X211527Y141259D01*
X210600Y141381D01*
D02*
G37*
G36*
X280522Y141382D02*
X280093Y141297D01*
X279729Y141054D01*
X279486Y140690D01*
X279401Y140261D01*
X279486Y139831D01*
X279729Y139468D01*
X280093Y139225D01*
X280522Y139139D01*
X280951Y139225D01*
X281315Y139468D01*
X281558Y139831D01*
X281644Y140261D01*
X281558Y140690D01*
X281315Y141054D01*
X280951Y141297D01*
X280522Y141382D01*
D02*
G37*
G36*
X343779Y145994D02*
X343233Y145886D01*
X342770Y145576D01*
X342461Y145113D01*
X342352Y144567D01*
X342461Y144021D01*
X342770Y143558D01*
X343233Y143248D01*
X343779Y143140D01*
X344326Y143248D01*
X344789Y143558D01*
X345098Y144021D01*
X345207Y144567D01*
X345098Y145113D01*
X344789Y145576D01*
X344326Y145886D01*
X343779Y145994D01*
D02*
G37*
G36*
X49922Y152259D02*
X46722D01*
Y149684D01*
X47568D01*
X48580Y148673D01*
X48531Y148175D01*
X48457Y148126D01*
X48192Y147729D01*
X48099Y147261D01*
Y146437D01*
X47722D01*
Y143862D01*
X50922D01*
Y146437D01*
X50922D01*
Y146656D01*
X51205Y146712D01*
X51784Y147099D01*
X52171Y147678D01*
X52194Y147794D01*
X53542Y149142D01*
X54239D01*
Y151127D01*
X53479D01*
X53272Y151265D01*
X52804Y151358D01*
X52336Y151265D01*
X52129Y151127D01*
X51369D01*
Y150430D01*
X51076Y150137D01*
X50576Y150137D01*
X49922Y150791D01*
Y152259D01*
D02*
G37*
G36*
X16475Y146003D02*
X16046Y145918D01*
X15682Y145675D01*
X15439Y145311D01*
X15353Y144882D01*
X15439Y144453D01*
X15682Y144089D01*
X16046Y143846D01*
X16475Y143760D01*
X16904Y143846D01*
X17268Y144089D01*
X17511Y144453D01*
X17596Y144882D01*
X17511Y145311D01*
X17268Y145675D01*
X16904Y145918D01*
X16475Y146003D01*
D02*
G37*
%LPD*%
G36*
X141050Y13611D02*
X136100D01*
Y19511D01*
X141050D01*
Y13611D01*
D02*
G37*
G36*
X135583Y20474D02*
X135575Y20435D01*
Y15533D01*
X126798D01*
Y15750D01*
X126798D01*
Y17506D01*
X128172Y18880D01*
X130661D01*
X131052Y18958D01*
X131382Y19179D01*
X134036Y21832D01*
X134177D01*
X134216Y21840D01*
X135583D01*
Y20474D01*
D02*
G37*
G36*
X144946Y117661D02*
X145749D01*
X147539Y115871D01*
X147394Y115392D01*
X147074Y115329D01*
X146611Y115019D01*
X146301Y114556D01*
X146239Y114244D01*
X145832D01*
Y113004D01*
X145513D01*
Y113004D01*
X145273D01*
X144956Y113391D01*
X145050Y113861D01*
X144941Y114407D01*
X144631Y114870D01*
X144168Y115180D01*
X143622Y115288D01*
X143076Y115180D01*
X142613Y114870D01*
X142303Y114407D01*
X142195Y113861D01*
X142288Y113391D01*
X141971Y113004D01*
X141639D01*
Y110823D01*
Y109748D01*
X140958D01*
Y108432D01*
X140746D01*
Y108432D01*
X138778D01*
Y108432D01*
X138679D01*
X138587Y108470D01*
X138022Y108545D01*
X137731Y108506D01*
X137389Y108871D01*
X137446Y109158D01*
X137338Y109705D01*
X137028Y110168D01*
X136565Y110477D01*
X136128Y110564D01*
X136128Y110570D01*
X136128Y110570D01*
X136128Y110570D01*
Y112704D01*
X136180Y112782D01*
X136274Y113250D01*
X136180Y113718D01*
X136128Y113796D01*
Y114444D01*
X135198D01*
X135050Y114473D01*
X134902Y114444D01*
X134293D01*
Y115101D01*
X136852Y117661D01*
X137698D01*
Y118037D01*
X144946D01*
Y117661D01*
D02*
G37*
G36*
X180093Y109149D02*
X181589D01*
Y107102D01*
X180654Y107102D01*
X178046Y109710D01*
X178046Y110645D01*
X180093Y110645D01*
X180093Y109149D01*
D02*
G37*
G36*
X165046Y100476D02*
X165045Y99541D01*
X162998Y99541D01*
X162998Y101037D01*
X161502D01*
Y103084D01*
X162437Y103084D01*
X165046Y100476D01*
D02*
G37*
G36*
X57607Y170888D02*
X57607Y169954D01*
X55560Y169953D01*
X55560Y171449D01*
X54064D01*
Y173497D01*
X54999Y173497D01*
X57607Y170888D01*
D02*
G37*
G36*
X180094Y150515D02*
X180094Y149580D01*
X178047Y149580D01*
X178046Y151076D01*
X176550D01*
Y153123D01*
X177485Y153124D01*
X180094Y150515D01*
D02*
G37*
G36*
X130101Y133544D02*
X131597D01*
Y131497D01*
X130663Y131497D01*
X128054Y134105D01*
X128054Y135040D01*
X130101Y135040D01*
X130101Y133544D01*
D02*
G37*
G36*
X146948Y36151D02*
X146949Y36142D01*
X136083Y36148D01*
Y36151D01*
X140532Y39119D01*
X142499Y39121D01*
X146948Y36151D01*
D02*
G37*
G36*
X230582Y27117D02*
X227973Y24509D01*
X227039Y24509D01*
X227038Y26556D01*
X228535Y26556D01*
Y28052D01*
X230582D01*
X230582Y27117D01*
D02*
G37*
G36*
X57622Y26754D02*
X55014Y24146D01*
X54079Y24146D01*
X54079Y26193D01*
X55575Y26193D01*
Y27689D01*
X57622D01*
X57622Y26754D01*
D02*
G37*
G36*
X75825Y86308D02*
X77321D01*
Y84261D01*
X76386Y84261D01*
X73777Y86869D01*
X73778Y87804D01*
X75824Y87804D01*
X75825Y86308D01*
D02*
G37*
G36*
X142540Y83688D02*
X142539Y82753D01*
X140492Y82753D01*
X140492Y84250D01*
X138996D01*
Y86297D01*
X139931Y86297D01*
X142540Y83688D01*
D02*
G37*
G36*
X321559Y81752D02*
X321501Y81461D01*
X321560Y81162D01*
X321243Y80776D01*
X315799D01*
Y75475D01*
X307938Y67613D01*
X307227Y66686D01*
X307131Y66456D01*
X306641Y66553D01*
Y73894D01*
X314885Y82139D01*
X321241D01*
X321559Y81752D01*
D02*
G37*
D10*
X226735Y74060D02*
G03*
X227900Y76873I-2814J2814D01*
G01*
X226735Y74060D02*
G03*
X225639Y71414I2645J-2645D01*
G01*
X233493D02*
G03*
X232397Y74060I-3741J0D01*
G01*
X231232Y76873D02*
G03*
X232397Y74060I3979J0D01*
G01*
X230402Y82408D02*
G03*
X231769Y81041I1366J0D01*
G01*
X227318Y81041D02*
G03*
X228708Y82432I0J1390D01*
G01*
X233493Y71310D02*
Y71414D01*
X230402Y82432D02*
Y93330D01*
X228708Y82432D02*
Y93348D01*
X192835Y104173D02*
X197916Y105098D01*
X192835Y112047D02*
X197916Y111122D01*
X202084Y105610D02*
X205478Y106189D01*
X202084Y110610D02*
X205433Y110079D01*
D11*
X20787Y36413D02*
D03*
Y12791D02*
D03*
Y160429D02*
D03*
Y184051D02*
D03*
D12*
Y24602D02*
D03*
Y172240D02*
D03*
D13*
X272516Y22548D02*
D03*
Y18348D02*
D03*
Y13948D02*
D03*
Y9748D02*
D03*
D14*
X355354Y129035D02*
D03*
Y153169D02*
D03*
D15*
X184961Y112047D02*
D03*
Y104173D02*
D03*
X192835D02*
D03*
Y108110D02*
D03*
Y112047D02*
D03*
D16*
X184961Y108110D02*
D03*
D17*
X140217Y152100D02*
D03*
D18*
X136815Y155053D02*
D03*
Y153084D02*
D03*
Y151116D02*
D03*
Y149147D02*
D03*
X143618Y149100D02*
D03*
Y151116D02*
D03*
Y153084D02*
D03*
Y155053D02*
D03*
D19*
X341535Y46732D02*
D03*
X358071D02*
D03*
D20*
X336535Y101299D02*
D03*
Y117835D02*
D03*
D21*
X326181Y153504D02*
D03*
Y127520D02*
D03*
D22*
X304213Y143622D02*
D03*
X287283D02*
D03*
D23*
X194716Y86873D02*
D03*
X200316D02*
D03*
X304222Y38161D02*
D03*
X298622D02*
D03*
X194716Y80573D02*
D03*
X200316D02*
D03*
D24*
X112022Y50261D02*
D03*
X123022D02*
D03*
X97222Y64361D02*
D03*
X86222D02*
D03*
X109322Y22461D02*
D03*
X98322D02*
D03*
D25*
X251522Y28661D02*
D03*
Y53661D02*
D03*
D26*
X271816Y27648D02*
D03*
Y33248D02*
D03*
D27*
X139369Y109161D02*
D03*
X132676D02*
D03*
X143576Y106008D02*
D03*
X150269Y107976D02*
D03*
X150269Y109945D02*
D03*
X150269Y111914D02*
D03*
X143576D02*
D03*
Y109945D02*
D03*
X143576Y107976D02*
D03*
X162676Y83061D02*
D03*
X169369D02*
D03*
X60267Y64068D02*
D03*
X66960D02*
D03*
X60267Y38525D02*
D03*
X66960D02*
D03*
D28*
X138975Y105814D02*
D03*
X137006Y112507D02*
D03*
X135038D02*
D03*
X133069Y112507D02*
D03*
Y105814D02*
D03*
X135038Y105814D02*
D03*
X137006D02*
D03*
X146922Y105614D02*
D03*
X146922Y112307D02*
D03*
X163069Y86407D02*
D03*
X165038Y79714D02*
D03*
X167006D02*
D03*
X168975D02*
D03*
Y86407D02*
D03*
X167006D02*
D03*
X165038D02*
D03*
X60661Y67414D02*
D03*
X62629Y60721D02*
D03*
X64598D02*
D03*
X66567D02*
D03*
Y67414D02*
D03*
X64598D02*
D03*
X62629D02*
D03*
X60661Y41871D02*
D03*
X62629Y35178D02*
D03*
X64598D02*
D03*
X66567D02*
D03*
Y41871D02*
D03*
X64598D02*
D03*
X62629D02*
D03*
D29*
X138975Y112310D02*
D03*
X163069Y79911D02*
D03*
X60661Y60918D02*
D03*
Y35375D02*
D03*
D30*
X150072Y106008D02*
D03*
D31*
X338642Y69528D02*
D03*
X362776D02*
D03*
D32*
X128708Y64076D02*
D03*
X132724Y49667D02*
D03*
D33*
X378408Y36397D02*
D03*
Y62381D02*
D03*
D34*
X178667Y169814D02*
D03*
Y173555D02*
D03*
Y177295D02*
D03*
X168352D02*
D03*
Y173555D02*
D03*
Y169814D02*
D03*
X197897Y61544D02*
D03*
Y57804D02*
D03*
Y54063D02*
D03*
X208212D02*
D03*
Y57804D02*
D03*
Y61544D02*
D03*
D35*
X52804Y154071D02*
D03*
X60381Y150134D02*
D03*
Y152103D02*
D03*
Y154071D02*
D03*
X52804Y152103D02*
D03*
Y150134D02*
D03*
D36*
X54625Y155890D02*
D03*
Y148316D02*
D03*
X56593D02*
D03*
X58562D02*
D03*
Y155890D02*
D03*
X56593D02*
D03*
D37*
Y152103D02*
D03*
D38*
X225619Y71310D02*
D03*
X229556D02*
D03*
X233493D02*
D03*
Y63436D02*
D03*
X225619D02*
D03*
D39*
X229556D02*
D03*
D40*
X117842Y85273D02*
D03*
X108590D02*
D03*
D41*
X115775Y81730D02*
D03*
X113216D02*
D03*
X110657D02*
D03*
Y88816D02*
D03*
X113216D02*
D03*
X115775D02*
D03*
D42*
X95589Y88936D02*
D03*
Y81633D02*
D03*
D43*
X89192Y85284D02*
D03*
X101987D02*
D03*
D44*
X248956Y115396D02*
D03*
X258012Y130357D02*
D03*
Y115396D02*
D03*
X248956Y130357D02*
D03*
D45*
X206527Y116000D02*
D03*
Y94346D02*
D03*
X232905D02*
D03*
Y116000D02*
D03*
D46*
X206921Y114032D02*
D03*
Y112063D02*
D03*
Y110094D02*
D03*
Y108126D02*
D03*
Y106157D02*
D03*
Y104189D02*
D03*
Y102220D02*
D03*
Y100252D02*
D03*
Y98283D02*
D03*
Y96315D02*
D03*
X232511D02*
D03*
Y98283D02*
D03*
Y100252D02*
D03*
Y102220D02*
D03*
Y104189D02*
D03*
Y106157D02*
D03*
Y108126D02*
D03*
Y110094D02*
D03*
Y112063D02*
D03*
Y114032D02*
D03*
D47*
X208889Y91984D02*
D03*
X230543D02*
D03*
Y118362D02*
D03*
X208889D02*
D03*
D48*
X210858Y92378D02*
D03*
X212826D02*
D03*
X214795D02*
D03*
X216763D02*
D03*
X218732D02*
D03*
X220700D02*
D03*
X222669D02*
D03*
X224637D02*
D03*
X226606D02*
D03*
X228574D02*
D03*
Y117968D02*
D03*
X226606D02*
D03*
X224637D02*
D03*
X222669D02*
D03*
X220700D02*
D03*
X218732D02*
D03*
X216763D02*
D03*
X214795D02*
D03*
X212826D02*
D03*
X210858D02*
D03*
D49*
X219716Y105173D02*
D03*
D50*
X148854Y22852D02*
D03*
Y32695D02*
D03*
Y30726D02*
D03*
Y28758D02*
D03*
Y26789D02*
D03*
Y24820D02*
D03*
X134177Y30726D02*
D03*
Y32695D02*
D03*
Y28758D02*
D03*
Y24820D02*
D03*
Y26789D02*
D03*
Y22852D02*
D03*
D51*
X144469Y35112D02*
D03*
X136595Y20435D02*
D03*
X140532Y35112D02*
D03*
X142500D02*
D03*
X146437D02*
D03*
Y20435D02*
D03*
X144469D02*
D03*
X142500D02*
D03*
X140532D02*
D03*
X138563D02*
D03*
X136595Y35112D02*
D03*
X138563D02*
D03*
D52*
X141516Y27773D02*
D03*
X291614Y74961D02*
D03*
Y50472D02*
D03*
X321614Y74961D02*
D03*
Y50472D02*
D03*
D53*
X278191Y29646D02*
D03*
Y27087D02*
D03*
Y24528D02*
D03*
Y21969D02*
D03*
Y19410D02*
D03*
Y14291D02*
D03*
X300041D02*
D03*
Y16851D02*
D03*
Y19410D02*
D03*
Y21969D02*
D03*
Y24528D02*
D03*
Y29646D02*
D03*
Y32205D02*
D03*
X278191D02*
D03*
X300041Y27087D02*
D03*
X278191Y16851D02*
D03*
D54*
X289116Y23248D02*
D03*
D55*
X341216Y168060D02*
D03*
D56*
X335704Y164221D02*
D03*
Y166780D02*
D03*
Y169340D02*
D03*
Y171899D02*
D03*
X346728D02*
D03*
Y169340D02*
D03*
Y166780D02*
D03*
Y164221D02*
D03*
D57*
X307205Y121181D02*
D03*
X287205D02*
D03*
D58*
X185918Y56897D02*
D03*
X182178D02*
D03*
X178438D02*
D03*
Y46582D02*
D03*
X182178D02*
D03*
X185918D02*
D03*
D59*
X65827Y7708D02*
D03*
X85512D02*
D03*
X65827Y186842D02*
D03*
X85512D02*
D03*
X221339D02*
D03*
X241024D02*
D03*
X181968Y7708D02*
D03*
X201654D02*
D03*
Y186842D02*
D03*
X105197D02*
D03*
Y7708D02*
D03*
X241024D02*
D03*
X181968Y186842D02*
D03*
X124882D02*
D03*
Y7708D02*
D03*
X221339D02*
D03*
D60*
X266614Y161251D02*
D03*
Y33298D02*
D03*
X40236D02*
D03*
Y161251D02*
D03*
Y141566D02*
D03*
Y52983D02*
D03*
X266614D02*
D03*
Y141566D02*
D03*
X40236Y72668D02*
D03*
Y121881D02*
D03*
X266614D02*
D03*
Y72668D02*
D03*
D61*
X262087Y182314D02*
D03*
Y12235D02*
D03*
X44764D02*
D03*
Y182314D02*
D03*
D62*
X383543Y118671D02*
D03*
Y82845D02*
D03*
D63*
X360906Y117490D02*
D03*
X352244Y104496D02*
D03*
Y94653D02*
D03*
D64*
X124421Y152100D02*
D03*
X172411D02*
D03*
X175579Y20415D02*
D03*
X123279Y85273D02*
D03*
X113779Y102061D02*
D03*
D65*
X119500Y147769D02*
D03*
Y156431D02*
D03*
X167490Y147769D02*
D03*
Y156431D02*
D03*
X180500Y24746D02*
D03*
Y16084D02*
D03*
X128200Y89604D02*
D03*
Y80942D02*
D03*
X118700Y106392D02*
D03*
Y97731D02*
D03*
D66*
X113496Y152100D02*
D03*
X161486D02*
D03*
X186504Y20415D02*
D03*
X134204Y85273D02*
D03*
X124704Y102061D02*
D03*
D67*
X229558Y31379D02*
D03*
D68*
X225228Y36300D02*
D03*
X233889D02*
D03*
D69*
X229558Y42304D02*
D03*
D70*
X207979Y20414D02*
D03*
Y22973D02*
D03*
Y25532D02*
D03*
X215853D02*
D03*
Y22973D02*
D03*
Y20414D02*
D03*
D71*
X196900Y99469D02*
D03*
Y95891D02*
D03*
X117422Y37172D02*
D03*
Y40750D02*
D03*
X129822Y37172D02*
D03*
Y40750D02*
D03*
X121116Y64484D02*
D03*
Y68062D02*
D03*
X191955Y61179D02*
D03*
Y57601D02*
D03*
X176500Y79439D02*
D03*
Y75861D02*
D03*
X76108Y60311D02*
D03*
Y56733D02*
D03*
X76087Y34892D02*
D03*
Y31313D02*
D03*
X231232Y80762D02*
D03*
Y77184D02*
D03*
X219816Y81750D02*
D03*
Y78172D02*
D03*
X227900Y80762D02*
D03*
Y77184D02*
D03*
X238900Y78211D02*
D03*
Y81789D02*
D03*
X234016Y126384D02*
D03*
Y129962D02*
D03*
X229316Y127784D02*
D03*
Y131362D02*
D03*
X224616Y126384D02*
D03*
Y129962D02*
D03*
X206816Y86162D02*
D03*
Y82584D02*
D03*
X219916Y126384D02*
D03*
Y129962D02*
D03*
X215216Y126384D02*
D03*
Y129962D02*
D03*
X193180Y99469D02*
D03*
Y95891D02*
D03*
X281339Y63600D02*
D03*
Y60022D02*
D03*
X329606Y64348D02*
D03*
Y60770D02*
D03*
X141516Y77862D02*
D03*
Y74284D02*
D03*
X330916Y166684D02*
D03*
Y170262D02*
D03*
X184610Y170166D02*
D03*
Y173743D02*
D03*
X162410D02*
D03*
Y170166D02*
D03*
X129078Y148214D02*
D03*
Y151792D02*
D03*
X179061Y132844D02*
D03*
Y136422D02*
D03*
X48322Y150972D02*
D03*
Y154550D02*
D03*
X49322Y145150D02*
D03*
Y141572D02*
D03*
X191778Y50828D02*
D03*
Y47250D02*
D03*
X172350Y79439D02*
D03*
Y75861D02*
D03*
X56584Y160662D02*
D03*
Y164240D02*
D03*
X56599Y139779D02*
D03*
Y143358D02*
D03*
Y36178D02*
D03*
Y32600D02*
D03*
X71408Y60311D02*
D03*
Y56733D02*
D03*
X71387Y34892D02*
D03*
Y31313D02*
D03*
X199216Y20676D02*
D03*
Y24252D02*
D03*
X141516Y56486D02*
D03*
Y60062D02*
D03*
X164000Y24197D02*
D03*
Y20621D02*
D03*
X133022Y98174D02*
D03*
Y101750D02*
D03*
X56599Y56841D02*
D03*
Y53265D02*
D03*
X229558Y54180D02*
D03*
Y50604D02*
D03*
X210616Y137160D02*
D03*
Y133584D02*
D03*
X326216Y170260D02*
D03*
Y166684D02*
D03*
X157610Y170168D02*
D03*
Y173743D02*
D03*
X214155Y57701D02*
D03*
Y61279D02*
D03*
X255778Y148076D02*
D03*
Y144500D02*
D03*
X191722Y71174D02*
D03*
Y74750D02*
D03*
X127622Y28772D02*
D03*
Y32350D02*
D03*
D72*
X198910Y37500D02*
D03*
X195332D02*
D03*
Y28700D02*
D03*
X198910D02*
D03*
X195105Y20423D02*
D03*
X191527D02*
D03*
X224189Y25532D02*
D03*
X220611D02*
D03*
X125511Y17350D02*
D03*
X129089D02*
D03*
X136889Y16800D02*
D03*
X133311D02*
D03*
X148311Y13161D02*
D03*
X144733D02*
D03*
X145305Y41561D02*
D03*
X141727D02*
D03*
X145305Y46286D02*
D03*
X141727D02*
D03*
X145305Y50986D02*
D03*
X141727D02*
D03*
X145305Y64773D02*
D03*
X141727D02*
D03*
X145305Y69373D02*
D03*
X141727D02*
D03*
X160105Y20415D02*
D03*
X156527D02*
D03*
X204311Y66000D02*
D03*
X207889D02*
D03*
X136411Y119261D02*
D03*
X132833D02*
D03*
X255373Y138177D02*
D03*
X251795D02*
D03*
X251689Y103050D02*
D03*
X248111D02*
D03*
X185567Y62739D02*
D03*
X181989D02*
D03*
X211211Y87500D02*
D03*
X214789D02*
D03*
X211233Y81861D02*
D03*
X214811D02*
D03*
X201539Y126300D02*
D03*
X197961D02*
D03*
X205389Y137473D02*
D03*
X201811D02*
D03*
X209705Y128705D02*
D03*
X206127D02*
D03*
X200705Y121373D02*
D03*
X197127D02*
D03*
X200689Y117100D02*
D03*
X197111D02*
D03*
X148511Y162800D02*
D03*
X152089D02*
D03*
X147989Y166500D02*
D03*
X144411D02*
D03*
X129394Y152100D02*
D03*
X132973D02*
D03*
X153300D02*
D03*
X156878D02*
D03*
X198910Y33100D02*
D03*
X195332D02*
D03*
X167827Y20415D02*
D03*
X171405D02*
D03*
X334127Y177273D02*
D03*
X337705D02*
D03*
X347205D02*
D03*
X343627D02*
D03*
X172249Y163754D02*
D03*
X168671D02*
D03*
X148859Y102061D02*
D03*
X145281D02*
D03*
X182289Y40839D02*
D03*
X185867D02*
D03*
X146233Y119261D02*
D03*
X149811D02*
D03*
X56810Y73911D02*
D03*
X60387D02*
D03*
X56810Y48199D02*
D03*
X60387D02*
D03*
X196435Y74761D02*
D03*
X200011D02*
D03*
X167909Y96161D02*
D03*
X164333D02*
D03*
X229767Y58137D02*
D03*
X233343D02*
D03*
X229337Y46747D02*
D03*
X225761D02*
D03*
X117263Y23850D02*
D03*
X120839D02*
D03*
X121335Y36861D02*
D03*
X124911D02*
D03*
X113913Y13950D02*
D03*
X117489D02*
D03*
X153843Y102047D02*
D03*
X157419D02*
D03*
X185865Y36139D02*
D03*
X182289D02*
D03*
X216787Y54000D02*
D03*
X213211D02*
D03*
X167909Y92000D02*
D03*
X164333D02*
D03*
X117213Y19550D02*
D03*
X120789D02*
D03*
X200705Y92373D02*
D03*
X197127D02*
D03*
X328909Y177261D02*
D03*
X325333D02*
D03*
X152409Y169861D02*
D03*
X148833D02*
D03*
X192191Y41539D02*
D03*
X195767D02*
D03*
X178769Y132510D02*
D03*
X175191D02*
D03*
X129505Y23873D02*
D03*
X125927D02*
D03*
D73*
X198224Y111084D02*
D03*
X201776Y110648D02*
D03*
D74*
X198224Y105136D02*
D03*
X201776Y105572D02*
D03*
D75*
X238966Y85873D02*
D03*
X233366D02*
D03*
X110116Y67273D02*
D03*
X104516D02*
D03*
X110116Y60973D02*
D03*
X104516D02*
D03*
X225466Y85873D02*
D03*
X219866D02*
D03*
D76*
X148234Y152102D02*
D03*
Y157702D02*
D03*
D77*
X28352Y67381D02*
D03*
X33470D02*
D03*
X28352Y129461D02*
D03*
X33470D02*
D03*
D78*
X301962Y100784D02*
D03*
Y95666D02*
D03*
X286214Y95862D02*
D03*
Y100980D02*
D03*
X270466Y95862D02*
D03*
Y100980D02*
D03*
X317710Y100980D02*
D03*
Y95862D02*
D03*
D79*
X75470Y102317D02*
D03*
X103974D02*
D03*
X75470Y151805D02*
D03*
X103974D02*
D03*
D80*
X72202Y137454D02*
D03*
Y116667D02*
D03*
X107242D02*
D03*
Y137454D02*
D03*
Y127061D02*
D03*
X72202D02*
D03*
D81*
X89722Y99069D02*
D03*
Y155053D02*
D03*
D82*
Y127061D02*
D03*
D83*
X150222Y111960D02*
Y114918D01*
X145922Y119218D02*
X150222Y114918D01*
X145922Y119218D02*
Y119261D01*
X328922Y162161D02*
X344667D01*
X346728Y164221D01*
X326216Y164867D02*
X328922Y162161D01*
X261700Y95787D02*
X262020Y95468D01*
X77129Y34161D02*
X80472D01*
X76087Y35203D02*
X77129Y34161D01*
X66700Y60721D02*
X76008D01*
X50522Y148461D02*
X51130D01*
X206850Y87600D02*
X208889Y89639D01*
X206850Y87050D02*
Y87600D01*
X207911Y74761D02*
X210922Y77772D01*
X200322Y74761D02*
X207911D01*
X210922Y77772D02*
Y81861D01*
X205650Y85850D02*
X206850Y87050D01*
X190273Y61390D02*
X191955D01*
X189361Y60478D02*
X190273Y61390D01*
X189361Y54978D02*
Y60478D01*
X258012Y130357D02*
Y133756D01*
X133069Y115608D02*
X136722Y119261D01*
X150222Y111960D02*
X150269Y111914D01*
X136722Y119261D02*
X145922D01*
X133069Y112507D02*
Y115608D01*
X316423Y102661D02*
X317710Y101373D01*
X308622Y102661D02*
X316423D01*
X326216Y164867D02*
Y166373D01*
X330916Y166780D02*
X335704D01*
X157610Y174055D02*
Y175748D01*
X159156Y177295D01*
X168352D01*
X162410Y174055D02*
X162416Y174061D01*
X164522D01*
X165028Y173555D01*
X168352D01*
X187622Y172061D02*
Y175461D01*
X185416Y169854D02*
X187622Y172061D01*
X184610Y169854D02*
X185416D01*
X185788Y177295D02*
X187622Y175461D01*
X178667Y177295D02*
X185788D01*
X210858Y81925D02*
Y92378D01*
X208399Y57690D02*
X214054D01*
X190275Y54063D02*
X197897D01*
X189361Y54978D02*
X190275Y54063D01*
X178438Y39480D02*
X181778Y36139D01*
X178438Y39480D02*
Y46582D01*
X182178Y41039D02*
Y46582D01*
X187622Y172061D02*
X191622D01*
X23022Y67381D02*
X27958D01*
X23022Y129461D02*
X27958D01*
X48322Y150661D02*
X50522Y148461D01*
X51130D02*
X52804Y150134D01*
X49322Y145461D02*
Y147261D01*
X66672Y35178D02*
X76063D01*
X145922Y119261D02*
Y123361D01*
X272516Y18348D02*
X273577Y19410D01*
X272516Y13948D02*
Y18348D01*
X273577Y19410D02*
X278191D01*
X203545Y94952D02*
X203853Y95261D01*
X204022D01*
X205076Y96315D01*
X206921D01*
X255380Y136387D02*
X258012Y133756D01*
X255380Y136387D02*
Y143877D01*
X326529Y170260D02*
X335704D01*
X302410Y100730D02*
X306691D01*
X308622Y102661D01*
X270466Y95468D02*
X286214D01*
X262020D02*
X270466D01*
D84*
X167006Y86407D02*
Y87880D01*
X167970Y88844D01*
X168006D02*
X168550Y89389D01*
X167970Y88844D02*
X168006D01*
X168550Y89389D02*
Y89440D01*
X144290Y20256D02*
X144469Y20435D01*
X144290Y13029D02*
Y20256D01*
X142521Y11260D02*
X144290Y13029D01*
X133998Y26610D02*
X134177Y26789D01*
X129473Y26610D02*
X133998D01*
X128213Y27870D02*
X129473Y26610D01*
X120490Y11260D02*
X142521D01*
X117800Y13950D02*
X120490Y11260D01*
X236831Y120670D02*
X238522Y122361D01*
X229613Y120670D02*
X236831D01*
X228574Y119632D02*
X229613Y120670D01*
X226510Y123960D02*
X227854Y125304D01*
X226510Y123933D02*
Y123960D01*
X225397Y122820D02*
X226510Y123933D01*
X225370Y122820D02*
X225397D01*
X222669Y120119D02*
X225370Y122820D01*
X224616Y124187D02*
Y126073D01*
X224602Y124173D02*
X224616Y124187D01*
X224093Y124173D02*
X224602D01*
X227854Y125304D02*
X229316D01*
X222669Y117968D02*
Y120119D01*
X228303Y123173D02*
X233285D01*
X224637Y119507D02*
X228303Y123173D01*
X224637Y117968D02*
Y119507D01*
X220700Y120780D02*
X224093Y124173D01*
X220700Y117968D02*
Y120780D01*
X146922Y113261D02*
X147671Y114010D01*
X147620D02*
X147671D01*
X212826Y117968D02*
Y119704D01*
X209636Y122894D02*
X212826Y119704D01*
X207723Y122894D02*
X209636D01*
X210858Y117968D02*
Y119512D01*
X208997Y121373D02*
X210858Y119512D01*
X201016Y121373D02*
X208997D01*
X320315Y95468D02*
X321260Y94523D01*
X301962Y94612D02*
X304646Y91929D01*
X232511Y112063D02*
X236626D01*
X136595Y15452D02*
Y20435D01*
X70436Y38525D02*
X70472Y38561D01*
X66567Y67414D02*
X66613Y67461D01*
X73550D01*
X168975Y86407D02*
X171769D01*
X169169Y83011D02*
X171422D01*
X205280Y137383D02*
X210576D01*
X208889Y89639D02*
Y91984D01*
X121100Y19550D02*
X123000D01*
X125200Y17350D01*
X127700Y19850D01*
Y19900D01*
X130661D02*
X133613Y22852D01*
X127700Y19900D02*
X130661D01*
X121150Y22800D02*
X122277Y21673D01*
X127616D01*
X244850Y93050D02*
X250500Y87400D01*
X237533Y93050D02*
X244850D01*
X234268Y96315D02*
X237533Y93050D01*
X238000Y96000D02*
X250500D01*
X235717Y98283D02*
X238000Y96000D01*
X232511Y98283D02*
X235717D01*
X232511Y96315D02*
X234268D01*
X234411Y104189D02*
X235550Y103050D01*
X247800D01*
X206677Y123940D02*
X207723Y122894D01*
X205477Y117050D02*
X206527Y116000D01*
X204437Y117050D02*
X205477D01*
X204360Y116973D02*
X204437Y117050D01*
X215216Y124204D02*
X215516Y123904D01*
X215216Y124204D02*
Y126073D01*
X215516Y123604D02*
Y123904D01*
Y123604D02*
X216763Y122357D01*
X127616Y21673D02*
X129816Y23873D01*
X128213Y27870D02*
Y28870D01*
X128722Y36861D02*
X132888Y32695D01*
X134177D01*
X133613Y22852D02*
X134177D01*
X129816Y23873D02*
X130763Y24820D01*
X134177D01*
X64598Y68987D02*
X66272Y70661D01*
X64598Y67414D02*
Y68987D01*
X70265Y64068D02*
X70272Y64061D01*
X66960Y64068D02*
X70265D01*
X66960Y38525D02*
X70436D01*
X69262Y41871D02*
X69272Y41861D01*
X66567Y41871D02*
X69262D01*
X64598Y43687D02*
X65972Y45061D01*
X64598Y41871D02*
Y43687D01*
X146922Y112307D02*
Y113261D01*
X143576Y113814D02*
X143622Y113861D01*
X143576Y111914D02*
Y113814D01*
X145939Y109945D02*
X146920Y108964D01*
X143576Y109945D02*
X145939D01*
X130922Y106661D02*
X132223D01*
X133069Y105814D01*
X135116Y108255D02*
X136019Y109158D01*
X135116Y105892D02*
Y108255D01*
X135038Y105814D02*
X135116Y105892D01*
X52722Y154140D02*
Y158161D01*
X317710Y95468D02*
X320315D01*
X33884Y67381D02*
X36496D01*
X33864Y129461D02*
X38222D01*
X178438Y56897D02*
Y64199D01*
X236425Y100252D02*
X236447Y100273D01*
X232511Y100252D02*
X236425D01*
X200316Y86873D02*
X200416Y86973D01*
X233285Y123173D02*
X234016Y123904D01*
Y126073D01*
X229316Y125304D02*
Y127473D01*
X228574Y117968D02*
Y119632D01*
X219916Y123904D02*
Y126073D01*
X216763Y117968D02*
Y122357D01*
X214795Y117968D02*
Y120694D01*
X218732Y117968D02*
Y122289D01*
X219916Y123473D01*
Y123904D01*
X208278Y118973D02*
X208889Y118362D01*
X201016Y116673D02*
X203316Y118973D01*
X208278D01*
X232511Y106157D02*
X235000D01*
X232511Y110094D02*
X234995D01*
X232511Y114032D02*
X234958D01*
X230543Y118362D02*
X236727D01*
X273216Y107673D02*
Y109573D01*
X276316Y101173D02*
X285311D01*
X270616Y105073D02*
X273216Y107673D01*
X270616Y101178D02*
Y105073D01*
X378422Y36411D02*
Y49661D01*
X378408Y36397D02*
X378422Y36411D01*
X185878Y62739D02*
Y64339D01*
Y62639D02*
Y62739D01*
X238522Y122361D02*
Y124261D01*
X232511Y104189D02*
X234411D01*
X236425Y100252D02*
X236537D01*
X236425D02*
X236769D01*
X305589Y18928D02*
Y24528D01*
X303512Y16851D02*
X305589Y18928D01*
X300041Y16851D02*
X303512D01*
X179178Y64939D02*
X185278D01*
X178438Y64199D02*
X179178Y64939D01*
X185278D02*
X185878Y64339D01*
X185878Y64339D01*
X130433Y111403D02*
X132676Y109161D01*
X130433Y111403D02*
Y112716D01*
X232511Y108126D02*
X236663D01*
X201590Y123940D02*
X206677D01*
X201590D02*
Y125847D01*
X201816Y126073D01*
X210340Y125149D02*
X214795Y120694D01*
X210340Y125149D02*
Y128429D01*
X210360Y128449D01*
Y133017D01*
X210616Y133273D01*
D85*
X272161Y24550D02*
X277853D01*
X271181Y23570D02*
X272161Y24550D01*
X252722Y24213D02*
X259089D01*
X259732Y23570D01*
X306622Y25561D02*
Y37661D01*
X259732Y23570D02*
X271181D01*
X300041Y24528D02*
X305589D01*
D86*
X116916Y21384D02*
Y27154D01*
X116900Y21368D02*
X116916Y21384D01*
X116900Y19550D02*
Y21368D01*
X118980Y16650D02*
X121437D01*
X116900Y18730D02*
X118980Y16650D01*
X116900Y18730D02*
Y19550D01*
X139650Y13800D02*
X139900Y14050D01*
X124287Y13800D02*
X139650D01*
X121437Y16650D02*
X124287Y13800D01*
X152800Y169814D02*
X168352D01*
X168360Y163754D02*
Y169807D01*
X178707Y169854D02*
X184610D01*
X112022Y50261D02*
Y50461D01*
X109322Y14050D02*
X113300D01*
X109322D02*
Y29461D01*
X208275Y54000D02*
X212900D01*
X208212Y61544D02*
Y68688D01*
X207300Y69600D02*
X208212Y68688D01*
X200499Y69600D02*
X207300D01*
X199500Y70599D02*
X200499Y69600D01*
X191722Y70599D02*
X199500D01*
X196400Y61544D02*
Y66400D01*
X192108Y61544D02*
X196400D01*
X197897D01*
X125222Y36861D02*
X128722D01*
X321660Y174161D02*
X324760Y177261D01*
X335704Y171899D02*
Y173479D01*
X333816Y175367D02*
X335704Y173479D01*
X333816Y175367D02*
Y177273D01*
X346728Y171899D02*
Y176485D01*
X203545Y93002D02*
Y94952D01*
X202916Y92373D02*
X203545Y93002D01*
X201016Y92373D02*
X202916D01*
X191722Y77579D02*
X194716Y80573D01*
X191722Y75323D02*
Y77579D01*
X208212Y61544D02*
X213408D01*
X185878Y56937D02*
Y62639D01*
X186275Y46939D02*
X191778D01*
X186878Y41539D02*
X191616D01*
X186178Y40839D02*
X186878Y41539D01*
X186178Y40839D02*
X186178Y40839D01*
Y36139D02*
Y40839D01*
X185918Y41099D02*
Y46582D01*
X346728Y169340D02*
Y171899D01*
Y166780D02*
Y169340D01*
X200316Y80573D02*
Y86873D01*
X200416Y86973D02*
Y89623D01*
X201016Y90223D01*
Y92373D01*
X109322Y29461D02*
X112022Y32161D01*
Y36861D02*
X121022D01*
X112022Y32161D02*
Y36861D01*
X185878Y62739D02*
X185878D01*
X188222Y81079D02*
X191722Y77579D01*
X116916Y27154D02*
X117322Y27561D01*
X219866Y82370D02*
Y85873D01*
X238966Y82540D02*
Y85873D01*
X185878Y62739D02*
Y64339D01*
Y68500D01*
X191722Y75323D02*
X192202Y74843D01*
X196040D01*
X188222Y81079D02*
Y82561D01*
X255778Y148689D02*
X259778D01*
X329497Y177273D02*
X333816D01*
X324760Y177261D02*
Y178743D01*
X328884Y182868D01*
X346728Y176485D02*
X348722Y178479D01*
Y186461D01*
X112022Y36861D02*
Y40161D01*
Y50261D01*
X335704Y170260D02*
Y171899D01*
D87*
X64600Y32790D02*
Y35176D01*
X64540Y58370D02*
X64598Y58428D01*
Y60721D01*
X337377Y164221D02*
X341216Y168060D01*
X335704Y164221D02*
X337377D01*
X217100Y54000D02*
Y60200D01*
X214445Y61300D02*
X216000D01*
X217100Y60200D01*
D88*
X206632Y114320D02*
X206921Y114032D01*
X203840Y114320D02*
X206632D01*
X203600Y114560D02*
X203840Y114320D01*
X204722Y101961D02*
X206661D01*
X204535Y101773D02*
X204722Y101961D01*
X202600Y101773D02*
X204535D01*
X198499Y99480D02*
X200380Y101361D01*
X204563Y98283D02*
X206921D01*
X203841Y97561D02*
X204563Y98283D01*
X200831Y97561D02*
X203841D01*
X202187Y101361D02*
X202600Y101773D01*
X200380Y101361D02*
X202187D01*
X203834Y100061D02*
X206729D01*
X203247Y99473D02*
X203834Y100061D01*
X206729D02*
X206921Y100252D01*
X196816Y116673D02*
Y117070D01*
X192100Y121400D02*
X192127Y121373D01*
X204350Y104020D02*
X205081D01*
X205281Y104220D02*
X206458D01*
X205081Y104020D02*
X205281Y104220D01*
X206661Y101961D02*
X206921Y102220D01*
X203016Y99573D02*
X203116Y99473D01*
X203247D01*
X204770Y112063D02*
X206921D01*
X193480Y99480D02*
X198499D01*
X193460Y95860D02*
X199130D01*
X200831Y97561D01*
X196816Y117070D02*
X197100Y117354D01*
Y121373D01*
X192127D02*
X197100D01*
D89*
X318898Y112756D02*
X326497Y105157D01*
X321929Y86614D02*
X326497Y91182D01*
Y105157D01*
X287205Y121181D02*
X293858Y127835D01*
Y135630D01*
X287283Y142205D02*
X293858Y135630D01*
X287283Y142205D02*
Y143622D01*
X358071Y46732D02*
X362776Y51437D01*
Y69528D01*
X351220Y81083D02*
Y88858D01*
Y81083D02*
X362776Y69528D01*
X326850Y91535D02*
X338642Y79744D01*
Y69528D02*
Y79744D01*
X337677Y117835D02*
X349134Y117835D01*
X313032Y86614D02*
X321929D01*
X306622Y37661D02*
X311102Y42141D01*
Y64449D01*
X302165Y61024D02*
Y75748D01*
X291614Y50472D02*
X302165Y61024D01*
Y75748D02*
X313032Y86614D01*
X311102Y64449D02*
X321614Y74961D01*
X315630Y112756D02*
X318898D01*
X307205Y121181D02*
X315630Y112756D01*
X325039Y127520D02*
X326181D01*
X308937Y143622D02*
X325039Y127520D01*
X304213Y143622D02*
X308937D01*
X326181Y153504D02*
X355020D01*
X336535Y97992D02*
Y101299D01*
Y97992D02*
X339764Y94764D01*
X347284D01*
X348583Y93465D01*
D90*
X321614Y74961D02*
X329606Y66969D01*
Y64659D02*
Y66969D01*
X281339Y59711D02*
X290577Y50472D01*
X281339Y66260D02*
X291614Y76535D01*
X281339Y63911D02*
Y66260D01*
X204200Y84400D02*
X205650Y85850D01*
X204200Y84357D02*
Y84400D01*
D91*
X291614Y76535D02*
Y88268D01*
X294724Y91378D01*
Y113661D01*
X287205Y121181D02*
X294724Y113661D01*
D92*
X169700Y79700D02*
X180600D01*
X169650Y79750D02*
X169700Y79700D01*
X76108Y60622D02*
Y65000D01*
D93*
X129078Y134986D02*
Y147903D01*
X179061Y110598D02*
Y132533D01*
X181349Y108126D02*
X184961D01*
X229558Y27962D02*
Y31379D01*
X224500Y25532D02*
X227128D01*
X21417Y25169D02*
X54449D01*
X56599Y27362D02*
Y32289D01*
X21378Y172473D02*
X54057D01*
X56584Y164551D02*
Y169947D01*
X77173Y85284D02*
X89000D01*
X74801Y87656D02*
Y101868D01*
X74814Y101882D01*
X134204Y85273D02*
X139447D01*
X141516Y78173D02*
Y83205D01*
X104643Y102061D02*
X113779D01*
X157189Y152100D02*
X161486D01*
X148236Y152100D02*
X152989D01*
X143848Y152102D02*
X148234D01*
X133283Y152100D02*
X136750D01*
X124421Y152100D02*
X129083D01*
X104643D02*
X113500D01*
X61750Y152100D02*
X74550D01*
X101987Y85284D02*
X108590D01*
X117842Y85273D02*
X123279D01*
X141516Y69373D02*
Y73973D01*
Y64773D02*
Y69373D01*
Y60373D02*
Y64773D01*
X146950Y20415D02*
X156216D01*
X164000Y20411D02*
X167516D01*
X160416D02*
X164000D01*
X171716Y20415D02*
X175579D01*
X186504Y20423D02*
X191216D01*
X199216D02*
X208504D01*
X195416D02*
X199216D01*
X215354Y25532D02*
X220300D01*
X229558Y42304D02*
Y50293D01*
X229556Y54493D02*
Y63436D01*
X56599Y48199D02*
Y52954D01*
Y36489D02*
Y48199D01*
X172411Y152100D02*
X176750D01*
X179070Y136693D02*
Y149950D01*
X157722Y102061D02*
X162039D01*
X141516Y49667D02*
Y51773D01*
Y47073D02*
Y49667D01*
X137922Y102061D02*
X144970D01*
X133022D02*
X137922D01*
X164022Y85861D02*
Y90861D01*
X149170Y102061D02*
X153522D01*
X124750D02*
X133022D01*
X56599Y57154D02*
Y139469D01*
X56593Y143668D02*
Y146594D01*
Y157594D02*
Y160341D01*
X141516Y51773D02*
Y56173D01*
Y42273D02*
Y47073D01*
Y37140D02*
Y42473D01*
X164022Y91961D02*
Y99700D01*
X131378Y132520D02*
X174930D01*
D94*
X157189Y152100D02*
X157189Y152100D01*
D95*
X129083D02*
X129084Y152100D01*
X104643Y152100D02*
Y152100D01*
X108590Y85273D02*
Y85284D01*
X160416Y20435D02*
Y20450D01*
X167516Y20435D02*
Y20450D01*
X60661Y41871D02*
X62166D01*
X56719D02*
X60661D01*
X132724Y49667D02*
X141516D01*
X56676Y67414D02*
X62166D01*
X150072Y102962D02*
Y107561D01*
X143576Y102414D02*
Y107561D01*
X144970Y102061D02*
X145022D01*
X137922D02*
Y106261D01*
X138022Y106361D01*
X21498Y172445D02*
Y172473D01*
X204154Y89573D02*
X206527Y91946D01*
Y93900D01*
D96*
X252000Y103050D02*
X255200D01*
X258012Y105862D01*
Y115396D01*
D97*
X122722Y28674D02*
X125116D01*
X103522Y61561D02*
Y64286D01*
X98122D02*
X103522D01*
Y66661D01*
D98*
X110116Y64173D02*
Y67273D01*
Y60973D02*
Y64173D01*
X131822D01*
D99*
X147822Y175261D02*
X148260Y174823D01*
Y169861D02*
Y174823D01*
X196340Y41539D02*
X199216Y38664D01*
Y24623D02*
Y38664D01*
X148260Y157727D02*
Y169861D01*
D100*
X230356Y85873D02*
X233366D01*
X225466D02*
X228756D01*
D101*
X378425Y66467D02*
D03*
D102*
X100172Y56961D02*
D03*
D103*
X119772Y30055D02*
D03*
D104*
X247822Y20161D02*
D03*
D105*
X121160Y68861D02*
D03*
D106*
X125061Y41711D02*
D03*
D107*
X137539Y151911D02*
D03*
X142892Y152001D02*
D03*
D108*
X310722Y31534D02*
D03*
D109*
X349547Y112441D02*
D03*
D110*
X351349Y90630D02*
D03*
D111*
X89721Y127063D02*
D03*
D112*
X89722Y127061D02*
D03*
D113*
X329022Y12861D02*
D03*
X339022D02*
D03*
X349022D02*
D03*
X359022D02*
D03*
X319022D02*
D03*
X307722Y186161D02*
D03*
X317722D02*
D03*
X286378Y186142D02*
D03*
D114*
X369022Y12861D02*
D03*
X297722Y186161D02*
D03*
X276378Y186142D02*
D03*
D115*
X192100Y121400D02*
D03*
X348722Y186461D02*
D03*
X250500Y87400D02*
D03*
Y96000D02*
D03*
X176811Y69685D02*
D03*
X148300Y175300D02*
D03*
X64646Y165512D02*
D03*
X89122Y20161D02*
D03*
D116*
X187100Y121400D02*
D03*
X353722Y186461D02*
D03*
X255500Y87400D02*
D03*
Y96000D02*
D03*
X171811Y69685D02*
D03*
X143300Y175300D02*
D03*
X237953Y26811D02*
D03*
X69646Y165512D02*
D03*
X188400Y87420D02*
D03*
X84122Y20161D02*
D03*
X273516Y67561D02*
D03*
Y62561D02*
D03*
Y57561D02*
D03*
Y52561D02*
D03*
X273583Y140591D02*
D03*
Y135591D02*
D03*
Y130591D02*
D03*
Y125591D02*
D03*
X273465Y167591D02*
D03*
Y162591D02*
D03*
Y157591D02*
D03*
Y152591D02*
D03*
X112022Y40161D02*
D03*
D117*
X237953Y21811D02*
D03*
X188400Y82420D02*
D03*
X273516Y47561D02*
D03*
X273583Y120591D02*
D03*
X273465Y147591D02*
D03*
D118*
X150829Y109945D02*
D03*
X135050Y113250D02*
D03*
X54625Y155890D02*
D03*
D119*
X153650Y108090D02*
D03*
X159722Y105984D02*
D03*
X162522D02*
D03*
X29812Y168543D02*
D03*
X32098Y29213D02*
D03*
X32450Y21299D02*
D03*
X322622Y81461D02*
D03*
X350512Y60000D02*
D03*
X325394Y60158D02*
D03*
X338222Y147161D02*
D03*
X61063Y13386D02*
D03*
X121575Y59961D02*
D03*
X4254Y182237D02*
D03*
X215945Y134134D02*
D03*
X132087Y72008D02*
D03*
X123300Y111350D02*
D03*
X175079Y119434D02*
D03*
Y115870D02*
D03*
Y112305D02*
D03*
Y108740D02*
D03*
X168610Y136496D02*
D03*
X161257Y128583D02*
D03*
X175080Y144060D02*
D03*
X188898Y112008D02*
D03*
X162131Y136496D02*
D03*
X151210Y128583D02*
D03*
X216560Y174044D02*
D03*
X113031Y78268D02*
D03*
X113230Y92000D02*
D03*
X91260Y55630D02*
D03*
X131142Y17284D02*
D03*
X132323Y18701D02*
D03*
X127441Y32480D02*
D03*
X148794Y22880D02*
D03*
X143543Y87244D02*
D03*
X70630Y89003D02*
D03*
X145376Y80804D02*
D03*
Y83823D02*
D03*
X150876Y70877D02*
D03*
Y63382D02*
D03*
X149261Y65880D02*
D03*
X150876Y60883D02*
D03*
Y58385D02*
D03*
X145440Y53460D02*
D03*
X136024Y89291D02*
D03*
X150876Y45892D02*
D03*
X137620Y52890D02*
D03*
X150876Y38397D02*
D03*
Y35898D02*
D03*
Y25904D02*
D03*
Y28402D02*
D03*
Y43394D02*
D03*
Y40895D02*
D03*
Y30901D02*
D03*
Y33400D02*
D03*
X175857Y24750D02*
D03*
X178857Y24800D02*
D03*
X181857D02*
D03*
X184857D02*
D03*
X176066Y16041D02*
D03*
X179066D02*
D03*
X182066D02*
D03*
X185066D02*
D03*
X224992Y40586D02*
D03*
Y37586D02*
D03*
Y34586D02*
D03*
X233874Y31708D02*
D03*
Y37708D02*
D03*
Y40708D02*
D03*
Y34708D02*
D03*
X77550Y24950D02*
D03*
X73772Y37861D02*
D03*
X153462Y12801D02*
D03*
X92122Y9561D02*
D03*
X93386Y5472D02*
D03*
X82700Y23350D02*
D03*
X68370Y14290D02*
D03*
X137000Y113250D02*
D03*
X138950D02*
D03*
X158090Y56830D02*
D03*
X213600Y51100D02*
D03*
X202716Y50591D02*
D03*
X37122Y132261D02*
D03*
X64200Y133000D02*
D03*
X174010Y155950D02*
D03*
X229920Y100200D02*
D03*
X123740Y155945D02*
D03*
X119488D02*
D03*
X133031Y147953D02*
D03*
X85354Y89291D02*
D03*
X137598Y77612D02*
D03*
X45712Y176474D02*
D03*
X49830Y168516D02*
D03*
X38758D02*
D03*
X33222D02*
D03*
X47062D02*
D03*
X44294D02*
D03*
X60827Y167961D02*
D03*
Y165028D02*
D03*
X182650Y85750D02*
D03*
X243050Y100200D02*
D03*
X191250Y88710D02*
D03*
X215222Y115361D02*
D03*
X193272Y115191D02*
D03*
X91772Y63504D02*
D03*
X87550Y45050D02*
D03*
X87122Y54361D02*
D03*
Y49361D02*
D03*
X194393Y12448D02*
D03*
X92323Y35472D02*
D03*
X83425Y42953D02*
D03*
X82122Y54461D02*
D03*
X91220Y41339D02*
D03*
X215800Y72000D02*
D03*
X202610Y16547D02*
D03*
X70630Y92375D02*
D03*
X60551Y111528D02*
D03*
Y108435D02*
D03*
X52677Y114144D02*
D03*
X154835Y24267D02*
D03*
X151678D02*
D03*
X224222Y133161D02*
D03*
X182992Y144508D02*
D03*
X117480Y72800D02*
D03*
X124134Y89646D02*
D03*
X126877D02*
D03*
X123846Y81203D02*
D03*
X126846D02*
D03*
X129846D02*
D03*
X132846D02*
D03*
X263400Y85300D02*
D03*
X262050Y91150D02*
D03*
X233960Y169244D02*
D03*
X238543Y51968D02*
D03*
X259222Y64161D02*
D03*
X254222D02*
D03*
X283222Y44161D02*
D03*
X268222Y42161D02*
D03*
X273222D02*
D03*
X333222Y22161D02*
D03*
X353110Y71024D02*
D03*
X388222Y22161D02*
D03*
X378222Y7161D02*
D03*
X363222D02*
D03*
X338222D02*
D03*
X278222D02*
D03*
X273222D02*
D03*
X268222D02*
D03*
X298222D02*
D03*
X293222D02*
D03*
X288222D02*
D03*
X283222D02*
D03*
X7907Y17161D02*
D03*
X16260Y77874D02*
D03*
X18222Y147161D02*
D03*
X16102Y126102D02*
D03*
X169213Y46496D02*
D03*
X108780Y138760D02*
D03*
X17244Y54921D02*
D03*
X8222Y62161D02*
D03*
X4254Y32237D02*
D03*
X156082Y52511D02*
D03*
X176725Y29021D02*
D03*
X183536Y32682D02*
D03*
X185422Y27791D02*
D03*
X158462Y12801D02*
D03*
X163462D02*
D03*
X168462D02*
D03*
X69095Y5748D02*
D03*
X83022Y9811D02*
D03*
X43222Y7161D02*
D03*
X48222D02*
D03*
X53222D02*
D03*
X58222D02*
D03*
X63222D02*
D03*
X13222D02*
D03*
X18222D02*
D03*
X23222D02*
D03*
X28222D02*
D03*
X33222D02*
D03*
X8222D02*
D03*
X4254Y27237D02*
D03*
Y22237D02*
D03*
Y17237D02*
D03*
Y12237D02*
D03*
Y57237D02*
D03*
Y52237D02*
D03*
Y47237D02*
D03*
Y42237D02*
D03*
Y37237D02*
D03*
Y82237D02*
D03*
Y77237D02*
D03*
Y72237D02*
D03*
Y67237D02*
D03*
Y62237D02*
D03*
Y107237D02*
D03*
Y102237D02*
D03*
Y97237D02*
D03*
Y92237D02*
D03*
Y87237D02*
D03*
Y132237D02*
D03*
Y127237D02*
D03*
Y122237D02*
D03*
Y117237D02*
D03*
Y112237D02*
D03*
Y157237D02*
D03*
Y152237D02*
D03*
Y147237D02*
D03*
Y142237D02*
D03*
Y137237D02*
D03*
Y162237D02*
D03*
Y167237D02*
D03*
Y172237D02*
D03*
Y177237D02*
D03*
X13222Y187161D02*
D03*
X8222D02*
D03*
X18222D02*
D03*
X23222D02*
D03*
X28222D02*
D03*
X33222D02*
D03*
X38222D02*
D03*
X43222D02*
D03*
X48222D02*
D03*
X23425Y43228D02*
D03*
X16339Y65709D02*
D03*
X388222Y182161D02*
D03*
X358222Y187161D02*
D03*
X323222D02*
D03*
X333222D02*
D03*
X338222D02*
D03*
X343222D02*
D03*
X303222Y167161D02*
D03*
X308222Y157161D02*
D03*
X175079Y122999D02*
D03*
X214488Y141890D02*
D03*
X233900Y132850D02*
D03*
X182992Y121791D02*
D03*
X181496Y186024D02*
D03*
X200512Y141299D02*
D03*
X189921Y157717D02*
D03*
X136024Y43622D02*
D03*
X204764Y142402D02*
D03*
X208780Y164370D02*
D03*
X268222Y132161D02*
D03*
X161378Y119843D02*
D03*
X115118Y59449D02*
D03*
X218110Y137008D02*
D03*
X114291Y20039D02*
D03*
X273222Y102161D02*
D03*
X273240Y112380D02*
D03*
X241560Y174044D02*
D03*
X114055Y23583D02*
D03*
X216811Y165748D02*
D03*
X199646Y157205D02*
D03*
X171270Y51950D02*
D03*
X103779Y16890D02*
D03*
X259600Y144150D02*
D03*
X182992Y115295D02*
D03*
X209646Y142598D02*
D03*
X220945Y157795D02*
D03*
X252953Y157323D02*
D03*
X235591Y157913D02*
D03*
X245478Y136189D02*
D03*
X250478Y146189D02*
D03*
X245346Y69796D02*
D03*
X241135Y74097D02*
D03*
X243222Y82161D02*
D03*
Y77161D02*
D03*
X250478Y151189D02*
D03*
X258222Y72161D02*
D03*
X253222D02*
D03*
X248222D02*
D03*
X243222D02*
D03*
X253150Y42100D02*
D03*
X263222Y47161D02*
D03*
X258222Y42161D02*
D03*
X156614Y26417D02*
D03*
X248222Y42161D02*
D03*
X243222D02*
D03*
X238222D02*
D03*
X160551Y26417D02*
D03*
X119180Y97756D02*
D03*
X122589D02*
D03*
X115157Y105984D02*
D03*
X121968D02*
D03*
X136468Y93890D02*
D03*
X146468D02*
D03*
X156790Y89160D02*
D03*
X156468Y93890D02*
D03*
X176963Y12480D02*
D03*
X181963D02*
D03*
X186963D02*
D03*
X153228Y29488D02*
D03*
X153071Y43268D02*
D03*
X153380Y46120D02*
D03*
X188654Y32839D02*
D03*
X178930Y33666D02*
D03*
X184978Y52139D02*
D03*
X179978D02*
D03*
X174978D02*
D03*
X214921Y42205D02*
D03*
X78504Y51142D02*
D03*
X127022Y57361D02*
D03*
X184622Y82161D02*
D03*
X276622Y55161D02*
D03*
Y60061D02*
D03*
X269822Y65061D02*
D03*
X265922Y160161D02*
D03*
X246922Y166261D02*
D03*
X134987Y53589D02*
D03*
X156496Y155945D02*
D03*
X153189D02*
D03*
X159803D02*
D03*
X170630D02*
D03*
X176430Y155890D02*
D03*
X159803Y147953D02*
D03*
X156722D02*
D03*
X153122D02*
D03*
X149222D02*
D03*
X145922D02*
D03*
X143618Y155261D02*
D03*
X119631Y147704D02*
D03*
X115431D02*
D03*
X100820Y143630D02*
D03*
X140709Y114842D02*
D03*
X167006Y79714D02*
D03*
X165038Y78714D02*
D03*
X163069Y79911D02*
D03*
X160086Y84061D02*
D03*
X162676Y83061D02*
D03*
X160086Y86800D02*
D03*
Y92278D02*
D03*
Y89539D02*
D03*
X167953Y100157D02*
D03*
X128622Y105984D02*
D03*
X126260D02*
D03*
X118425D02*
D03*
X153722D02*
D03*
X156722D02*
D03*
X166024Y104095D02*
D03*
X160086Y97756D02*
D03*
X149859Y97756D02*
D03*
X153398D02*
D03*
X156677D02*
D03*
X160086Y95017D02*
D03*
X132815Y97756D02*
D03*
X136224D02*
D03*
X139633D02*
D03*
X143042D02*
D03*
X146450D02*
D03*
X159930Y112490D02*
D03*
X129406Y97756D02*
D03*
X125997D02*
D03*
X115771D02*
D03*
X112750Y97600D02*
D03*
X108280Y93370D02*
D03*
X108830Y110930D02*
D03*
X102340Y93410D02*
D03*
X59560Y24700D02*
D03*
X48834Y176474D02*
D03*
X66230Y158830D02*
D03*
X70400Y160870D02*
D03*
X76600Y160760D02*
D03*
X68300Y143610D02*
D03*
X66414Y148175D02*
D03*
X64016Y105827D02*
D03*
X70320Y125150D02*
D03*
X66142Y92244D02*
D03*
X170000Y43976D02*
D03*
X78701Y92520D02*
D03*
X95551Y78031D02*
D03*
X89173Y90472D02*
D03*
X101980Y90840D02*
D03*
X110709Y90158D02*
D03*
X115787Y80394D02*
D03*
X110630Y80433D02*
D03*
X69840Y110690D02*
D03*
X110748Y88032D02*
D03*
X115775Y87761D02*
D03*
X114390Y85273D02*
D03*
X112022D02*
D03*
X115775Y82761D02*
D03*
X66140Y95410D02*
D03*
X120039Y89291D02*
D03*
X119409Y81417D02*
D03*
X135039Y39173D02*
D03*
X133228Y37362D02*
D03*
X133189Y35118D02*
D03*
X147953Y39173D02*
D03*
X146022Y16547D02*
D03*
X232872Y94342D02*
D03*
X243110Y88848D02*
D03*
X235593Y91222D02*
D03*
X235500Y82563D02*
D03*
X238558Y64744D02*
D03*
X235580Y79473D02*
D03*
X235700Y75889D02*
D03*
X238358Y73290D02*
D03*
X238447Y69617D02*
D03*
X220498Y69736D02*
D03*
X220408Y73051D02*
D03*
X241852Y69527D02*
D03*
X211746Y69238D02*
D03*
X212039Y27772D02*
D03*
X223186Y75829D02*
D03*
X204882Y28189D02*
D03*
X223275Y79114D02*
D03*
X223233Y82726D02*
D03*
X223209Y89267D02*
D03*
X205398Y24267D02*
D03*
X226604Y92345D02*
D03*
X243198Y85064D02*
D03*
X229476Y95462D02*
D03*
X233579Y64778D02*
D03*
X233460Y62837D02*
D03*
X233787Y58119D02*
D03*
X233149Y53150D02*
D03*
Y50733D02*
D03*
Y48116D02*
D03*
X233143Y44299D02*
D03*
X226023Y43644D02*
D03*
X233514Y28091D02*
D03*
X232304Y24729D02*
D03*
X214685Y29370D02*
D03*
X226023Y50246D02*
D03*
Y53098D02*
D03*
Y56489D02*
D03*
X225694Y64778D02*
D03*
X225574Y62597D02*
D03*
X145376Y77586D02*
D03*
Y72548D02*
D03*
Y68729D02*
D03*
Y65711D02*
D03*
Y62692D02*
D03*
Y59673D02*
D03*
Y56654D02*
D03*
Y44579D02*
D03*
Y41561D02*
D03*
X137598Y72900D02*
D03*
Y70195D02*
D03*
Y67389D02*
D03*
Y64583D02*
D03*
Y61778D02*
D03*
Y58972D02*
D03*
Y56166D02*
D03*
Y45000D02*
D03*
Y41378D02*
D03*
X60551Y145551D02*
D03*
Y142458D02*
D03*
Y139365D02*
D03*
Y136272D02*
D03*
Y133179D02*
D03*
Y130086D02*
D03*
Y126993D02*
D03*
Y123900D02*
D03*
Y120807D02*
D03*
Y117714D02*
D03*
Y114621D02*
D03*
X54409Y148307D02*
D03*
X52677Y145630D02*
D03*
Y142481D02*
D03*
Y139333D02*
D03*
Y136184D02*
D03*
Y133036D02*
D03*
Y129887D02*
D03*
Y126739D02*
D03*
Y123590D02*
D03*
Y120441D02*
D03*
Y117293D02*
D03*
Y110996D02*
D03*
Y107847D02*
D03*
Y104699D02*
D03*
Y101550D02*
D03*
Y98402D02*
D03*
Y95253D02*
D03*
Y92105D02*
D03*
Y88956D02*
D03*
Y85808D02*
D03*
Y82659D02*
D03*
Y79510D02*
D03*
Y76362D02*
D03*
Y73213D02*
D03*
Y70265D02*
D03*
X60551Y105342D02*
D03*
Y102249D02*
D03*
Y99155D02*
D03*
Y96062D02*
D03*
Y92970D02*
D03*
Y89876D02*
D03*
Y86783D02*
D03*
Y83690D02*
D03*
Y80597D02*
D03*
Y77504D02*
D03*
Y74411D02*
D03*
Y71318D02*
D03*
X52677Y66916D02*
D03*
Y63568D02*
D03*
Y60619D02*
D03*
Y57471D02*
D03*
Y53622D02*
D03*
Y48625D02*
D03*
Y44877D02*
D03*
Y41728D02*
D03*
Y37279D02*
D03*
X52800Y31970D02*
D03*
X52677Y29134D02*
D03*
X60551Y58910D02*
D03*
Y55659D02*
D03*
Y48856D02*
D03*
Y38161D02*
D03*
Y35161D02*
D03*
Y32161D02*
D03*
X62672Y70761D02*
D03*
X60827Y158228D02*
D03*
X52598Y160827D02*
D03*
X60551Y29200D02*
D03*
X49949Y29134D02*
D03*
X137598Y81417D02*
D03*
X140079Y89291D02*
D03*
X167480Y155945D02*
D03*
X171844Y136496D02*
D03*
X138071Y157283D02*
D03*
X130769Y155945D02*
D03*
X175079Y128583D02*
D03*
X163661Y155945D02*
D03*
X175079Y136496D02*
D03*
X171063Y147953D02*
D03*
X175079Y140823D02*
D03*
X165375Y136496D02*
D03*
X175079Y147953D02*
D03*
X163622Y147953D02*
D03*
X167205D02*
D03*
X133031Y145089D02*
D03*
X215828Y22970D02*
D03*
X219505Y21840D02*
D03*
X223293D02*
D03*
X227081D02*
D03*
X230334Y22779D02*
D03*
X218553Y29458D02*
D03*
X218189Y36024D02*
D03*
X188631Y24267D02*
D03*
X215336Y17937D02*
D03*
X212662Y16547D02*
D03*
X213268Y34291D02*
D03*
X209311Y16547D02*
D03*
X205961D02*
D03*
X199259D02*
D03*
X195909D02*
D03*
X189208D02*
D03*
X174022D02*
D03*
X170522D02*
D03*
X167022D02*
D03*
X163522D02*
D03*
X160022D02*
D03*
X156522D02*
D03*
X153022D02*
D03*
X149522D02*
D03*
X208000Y22956D02*
D03*
X208015Y25546D02*
D03*
X192306Y24267D02*
D03*
X174022D02*
D03*
X170533D02*
D03*
X167043D02*
D03*
X164009Y24565D02*
D03*
X161150Y24267D02*
D03*
X157993D02*
D03*
X115787Y90118D02*
D03*
X106471Y89291D02*
D03*
X110722Y82461D02*
D03*
X107572Y81417D02*
D03*
X102047Y79843D02*
D03*
X80354Y81417D02*
D03*
X70630Y85630D02*
D03*
X68622Y81063D02*
D03*
X78701Y89291D02*
D03*
X81614D02*
D03*
X89016Y79764D02*
D03*
X166131Y44774D02*
D03*
X84409Y81417D02*
D03*
X76339D02*
D03*
X175512Y39724D02*
D03*
X167087Y42323D02*
D03*
X172598Y45315D02*
D03*
X175472Y44252D02*
D03*
X68504Y75000D02*
D03*
X172008Y33543D02*
D03*
X169381Y40674D02*
D03*
X63305Y148175D02*
D03*
X52598Y163390D02*
D03*
X39467Y176474D02*
D03*
X36345D02*
D03*
X33222D02*
D03*
X58217Y175563D02*
D03*
X55079Y176474D02*
D03*
X51956D02*
D03*
X60827Y170394D02*
D03*
X10748Y41850D02*
D03*
X28504Y21220D02*
D03*
X36662D02*
D03*
X39505D02*
D03*
X48035D02*
D03*
X50879D02*
D03*
X28268Y29134D02*
D03*
X36310D02*
D03*
X41766D02*
D03*
X44494D02*
D03*
X53722Y21220D02*
D03*
X56850Y21811D02*
D03*
X47222Y29134D02*
D03*
X140222Y150761D02*
D03*
Y153361D02*
D03*
X136815Y155261D02*
D03*
X143618Y148861D02*
D03*
X133031Y136496D02*
D03*
X140222Y156261D02*
D03*
X104331Y160984D02*
D03*
X108898Y160906D02*
D03*
X113240Y158180D02*
D03*
X115650Y155945D02*
D03*
X127402D02*
D03*
X142362Y157244D02*
D03*
X137953Y146811D02*
D03*
X182992Y118543D02*
D03*
X174280Y101600D02*
D03*
X129619Y89646D02*
D03*
X142283Y146929D02*
D03*
X132362Y89646D02*
D03*
X174550Y96340D02*
D03*
X200709Y129724D02*
D03*
X167953Y94751D02*
D03*
Y97454D02*
D03*
X175669Y91850D02*
D03*
X184722Y87361D02*
D03*
X172222Y89461D02*
D03*
X182953Y97087D02*
D03*
X152756Y119134D02*
D03*
X126400Y110950D02*
D03*
X50122Y156961D02*
D03*
X44932Y160730D02*
D03*
X64500Y46690D02*
D03*
X37122Y126761D02*
D03*
X64590Y30610D02*
D03*
X68272Y56461D02*
D03*
X105984Y71969D02*
D03*
X150250Y84550D02*
D03*
X135122Y57361D02*
D03*
X131072D02*
D03*
X215813Y20414D02*
D03*
X148794Y24820D02*
D03*
Y26769D02*
D03*
Y28758D02*
D03*
Y30762D02*
D03*
Y32695D02*
D03*
X182178Y56897D02*
D03*
X181678Y62739D02*
D03*
X192558Y16547D02*
D03*
X156299Y83307D02*
D03*
X240905Y147087D02*
D03*
X242060Y169044D02*
D03*
X209860Y187344D02*
D03*
X158409Y54646D02*
D03*
X257822Y165761D02*
D03*
X172722Y165561D02*
D03*
X152422Y159863D02*
D03*
X152422Y165661D02*
D03*
X276822Y49961D02*
D03*
X276622Y65061D02*
D03*
X269998Y50361D02*
D03*
X323922Y15461D02*
D03*
X324022Y9761D02*
D03*
X333922Y9861D02*
D03*
X373780Y20630D02*
D03*
X363522Y9361D02*
D03*
X379122Y16161D02*
D03*
X346378Y38701D02*
D03*
X368189Y39882D02*
D03*
X372913Y53976D02*
D03*
X380922Y56761D02*
D03*
X300590Y86614D02*
D03*
X314316Y94073D02*
D03*
X274916Y89773D02*
D03*
X304022Y98261D02*
D03*
X280622Y85561D02*
D03*
X287922Y98561D02*
D03*
X280522Y107235D02*
D03*
X280322Y130761D02*
D03*
X276822Y135461D02*
D03*
X280522Y140261D02*
D03*
X297330Y152080D02*
D03*
X168022Y159461D02*
D03*
X134006Y155945D02*
D03*
X173858Y30354D02*
D03*
X139016Y90984D02*
D03*
X181535Y67126D02*
D03*
X33522Y47161D02*
D03*
X38322Y6961D02*
D03*
X34528Y62205D02*
D03*
X40422Y35461D02*
D03*
X81929Y5551D02*
D03*
X130922Y53711D02*
D03*
X192316Y30162D02*
D03*
X176063Y34331D02*
D03*
X258322Y9361D02*
D03*
X264822Y15661D02*
D03*
X287822Y10361D02*
D03*
X308222Y8361D02*
D03*
X324922Y41961D02*
D03*
X265422Y76661D02*
D03*
X323622Y67087D02*
D03*
X270122Y118261D02*
D03*
X270276Y142874D02*
D03*
X268522Y147661D02*
D03*
X103661Y21378D02*
D03*
X253450Y125750D02*
D03*
X339803Y123425D02*
D03*
X265522Y32061D02*
D03*
X265222Y54861D02*
D03*
X265422Y71361D02*
D03*
X264522Y180261D02*
D03*
X258122Y185661D02*
D03*
X199055Y137480D02*
D03*
X191208Y188328D02*
D03*
X171922Y188161D02*
D03*
X134322Y188361D02*
D03*
X123722Y188161D02*
D03*
X104022Y188261D02*
D03*
X84222Y188361D02*
D03*
X66022Y187161D02*
D03*
X65197Y178307D02*
D03*
X62953Y155669D02*
D03*
X119570Y130200D02*
D03*
X115905Y118189D02*
D03*
X110315Y144488D02*
D03*
X43222Y58161D02*
D03*
X42922Y34761D02*
D03*
X31804Y161861D02*
D03*
X11904Y181761D02*
D03*
X36422Y14261D02*
D03*
X15522Y14761D02*
D03*
X11307Y34661D02*
D03*
X35722Y35761D02*
D03*
X283522Y87261D02*
D03*
X123122Y57361D02*
D03*
X167292Y28495D02*
D03*
X92000Y69800D02*
D03*
X80872Y69761D02*
D03*
X89016Y36850D02*
D03*
X78661Y46024D02*
D03*
X42589Y176474D02*
D03*
X39038Y29134D02*
D03*
X42349Y21220D02*
D03*
X182992Y151024D02*
D03*
Y147776D02*
D03*
X181320Y154670D02*
D03*
X215216Y130273D02*
D03*
X219916D02*
D03*
X224616D02*
D03*
X229316Y131673D02*
D03*
X234016Y130273D02*
D03*
X220700Y92378D02*
D03*
X218732D02*
D03*
X212826D02*
D03*
X212795Y83976D02*
D03*
X215122Y81861D02*
D03*
X196816Y92373D02*
D03*
X181469Y104134D02*
D03*
X230550Y145810D02*
D03*
X205614Y148417D02*
D03*
X218504Y147874D02*
D03*
X182992Y125039D02*
D03*
Y128287D02*
D03*
X176147Y106105D02*
D03*
X184850Y94910D02*
D03*
X188650Y90280D02*
D03*
X191772Y147598D02*
D03*
X189173Y104252D02*
D03*
X186850Y104134D02*
D03*
X154346Y128583D02*
D03*
X157801D02*
D03*
X182992Y112047D02*
D03*
X184291Y104134D02*
D03*
X188222Y71161D02*
D03*
X193222Y91161D02*
D03*
X164812Y128583D02*
D03*
X155672Y136496D02*
D03*
X136266D02*
D03*
X140315Y148228D02*
D03*
X139500Y136496D02*
D03*
X142735D02*
D03*
X125118Y144527D02*
D03*
X133031Y142224D02*
D03*
Y139360D02*
D03*
X186850Y112047D02*
D03*
X190915Y133565D02*
D03*
X192687Y136275D02*
D03*
X185315Y159173D02*
D03*
X143879Y128583D02*
D03*
X127205Y130394D02*
D03*
X125118Y138465D02*
D03*
X158907Y136496D02*
D03*
X127449Y124764D02*
D03*
X168168Y128583D02*
D03*
X140524D02*
D03*
X125118Y147559D02*
D03*
X70550Y118380D02*
D03*
X70320Y128590D02*
D03*
Y135660D02*
D03*
X64173Y124252D02*
D03*
X108610Y125320D02*
D03*
X64016Y113937D02*
D03*
X62598Y35079D02*
D03*
X70490Y114700D02*
D03*
X62598Y60669D02*
D03*
X68299Y22712D02*
D03*
X66693Y85472D02*
D03*
X66390Y103110D02*
D03*
X66339Y99055D02*
D03*
X72320Y82390D02*
D03*
X169810Y35130D02*
D03*
X33622Y80061D02*
D03*
X155079Y44646D02*
D03*
X60551Y45906D02*
D03*
X169961Y30236D02*
D03*
X171142Y27795D02*
D03*
X153606Y56142D02*
D03*
X73622Y21693D02*
D03*
X62750Y20340D02*
D03*
X78222Y17161D02*
D03*
X45192Y21220D02*
D03*
X47756Y61890D02*
D03*
X108840Y135940D02*
D03*
X145969Y136496D02*
D03*
X96142Y182441D02*
D03*
X108950Y118200D02*
D03*
X125118Y135433D02*
D03*
X16417Y134488D02*
D03*
X128230Y172950D02*
D03*
X16042Y118150D02*
D03*
X16417Y88661D02*
D03*
X125118Y132402D02*
D03*
X121070Y122740D02*
D03*
X152438Y136496D02*
D03*
X72756Y178504D02*
D03*
X114690Y128540D02*
D03*
X13400Y170300D02*
D03*
X137068Y128583D02*
D03*
X125118Y141496D02*
D03*
X127008Y120787D02*
D03*
X121980Y173740D02*
D03*
X118167Y173302D02*
D03*
X109130Y114820D02*
D03*
X104167Y173302D02*
D03*
X99167D02*
D03*
X94167D02*
D03*
X89167D02*
D03*
X84167D02*
D03*
X79167D02*
D03*
X74167D02*
D03*
X68937Y172913D02*
D03*
X124055Y117598D02*
D03*
X21732Y49646D02*
D03*
X114290Y141340D02*
D03*
X111180Y109280D02*
D03*
X83167Y168302D02*
D03*
X88167D02*
D03*
X93167D02*
D03*
X98167D02*
D03*
X103167D02*
D03*
X113167D02*
D03*
X124567Y164291D02*
D03*
X134843Y167283D02*
D03*
X133167Y173302D02*
D03*
X108670Y128140D02*
D03*
X78167Y168302D02*
D03*
X60827Y161281D02*
D03*
X143222Y167161D02*
D03*
X16417Y111772D02*
D03*
X154724Y58307D02*
D03*
X133613Y128583D02*
D03*
X144055Y188071D02*
D03*
X119170Y138640D02*
D03*
X117300Y112400D02*
D03*
X155017Y187869D02*
D03*
X199646Y134252D02*
D03*
X165017Y187869D02*
D03*
X234488Y150748D02*
D03*
X210748Y158780D02*
D03*
X187222Y167161D02*
D03*
X182222D02*
D03*
X172600Y168250D02*
D03*
X162222Y167161D02*
D03*
X157222D02*
D03*
X172990Y125370D02*
D03*
X197222Y167161D02*
D03*
X173033Y12374D02*
D03*
X153228Y26811D02*
D03*
X164331Y27559D02*
D03*
X172244Y36693D02*
D03*
X165276Y47559D02*
D03*
X163883Y45665D02*
D03*
X157641Y45977D02*
D03*
X160675Y45731D02*
D03*
X173222Y47161D02*
D03*
X198100Y49100D02*
D03*
X176792Y62578D02*
D03*
X168622Y51890D02*
D03*
X163750Y68800D02*
D03*
X194207Y50246D02*
D03*
X220200Y51700D02*
D03*
X221400Y64900D02*
D03*
X217500Y70600D02*
D03*
X217850Y65100D02*
D03*
X213250Y65900D02*
D03*
X210861Y65078D02*
D03*
X92122Y49361D02*
D03*
X226023Y59161D02*
D03*
X167953Y92047D02*
D03*
X52913Y152087D02*
D03*
X15232Y172518D02*
D03*
X17091Y168049D02*
D03*
X26006Y167996D02*
D03*
X26059Y176911D02*
D03*
X17144Y176964D02*
D03*
X16986Y29563D02*
D03*
X15113Y25116D02*
D03*
X16933Y20648D02*
D03*
X21380Y18775D02*
D03*
X25848Y20595D02*
D03*
X25901Y29510D02*
D03*
X21455Y31383D02*
D03*
X21576Y166098D02*
D03*
X150180Y53622D02*
D03*
X129890Y59770D02*
D03*
X190968Y12370D02*
D03*
X197739Y12488D02*
D03*
X195982Y24267D02*
D03*
X202462Y24267D02*
D03*
X224722Y115361D02*
D03*
X219922D02*
D03*
X250478Y141189D02*
D03*
X245478D02*
D03*
Y146189D02*
D03*
X171623Y128583D02*
D03*
X134055Y45630D02*
D03*
X229767Y185565D02*
D03*
X182992Y134783D02*
D03*
X149204Y136496D02*
D03*
X182992Y131525D02*
D03*
X152890Y53160D02*
D03*
X114882Y17323D02*
D03*
X130079Y45630D02*
D03*
X156535Y122638D02*
D03*
X197222Y172161D02*
D03*
X181686Y30241D02*
D03*
X192222Y167161D02*
D03*
X175236Y159212D02*
D03*
X135591Y123268D02*
D03*
X123167Y168302D02*
D03*
X16475Y144882D02*
D03*
X118167Y168302D02*
D03*
X112167Y173302D02*
D03*
X43222Y182161D02*
D03*
X31204Y182561D02*
D03*
X29460Y176457D02*
D03*
X21573Y178784D02*
D03*
X69772Y44761D02*
D03*
X92122Y59361D02*
D03*
X60551Y62161D02*
D03*
X60276Y64055D02*
D03*
X80709Y61614D02*
D03*
X60690Y173247D02*
D03*
X41526Y168516D02*
D03*
X57722Y153261D02*
D03*
X55422D02*
D03*
Y150961D02*
D03*
X65905Y155787D02*
D03*
X58898Y148228D02*
D03*
X60394Y149961D02*
D03*
X57722Y150961D02*
D03*
X60394Y154331D02*
D03*
X58898Y155866D02*
D03*
X52598Y165953D02*
D03*
X44532Y163630D02*
D03*
X52598Y168516D02*
D03*
X35990Y168516D02*
D03*
X231060Y168044D02*
D03*
X224892Y31586D02*
D03*
X222824Y29458D02*
D03*
X148480Y128580D02*
D03*
X182992Y138031D02*
D03*
Y141279D02*
D03*
X133820Y59690D02*
D03*
X70260Y138930D02*
D03*
D120*
X168550Y89440D02*
D03*
X224610Y124720D02*
D03*
X147620Y114010D02*
D03*
X204500Y112250D02*
D03*
X204620Y103990D02*
D03*
X203150Y99630D02*
D03*
X64540Y58370D02*
D03*
X321110Y94600D02*
D03*
X298622Y38161D02*
D03*
X288740Y106535D02*
D03*
X343779Y144567D02*
D03*
X341390Y159673D02*
D03*
X304646Y91929D02*
D03*
X287836Y155947D02*
D03*
X245669Y54764D02*
D03*
X254095Y53976D02*
D03*
X191955Y57290D02*
D03*
X236626Y112063D02*
D03*
X236663Y108126D02*
D03*
X234995Y110094D02*
D03*
X87953Y64373D02*
D03*
X76072Y30961D02*
D03*
X71372D02*
D03*
X70472Y38561D02*
D03*
X69272Y41861D02*
D03*
X206816Y82273D02*
D03*
X196930Y95520D02*
D03*
X196816Y117070D02*
D03*
X203545Y93002D02*
D03*
X234016Y123904D02*
D03*
X229316Y125304D02*
D03*
X201860Y123940D02*
D03*
X203600Y114560D02*
D03*
X219816Y77861D02*
D03*
X171422Y83011D02*
D03*
X278191Y16851D02*
D03*
X271016Y114173D02*
D03*
X340622Y134561D02*
D03*
X66272Y70661D02*
D03*
X65972Y45061D02*
D03*
X171769Y86407D02*
D03*
X146920Y108964D02*
D03*
X130922Y106661D02*
D03*
X136019Y109158D02*
D03*
X279922Y135261D02*
D03*
X52722Y158161D02*
D03*
X336299Y112402D02*
D03*
X36496Y67381D02*
D03*
X38222Y129461D02*
D03*
X236447Y100273D02*
D03*
X204154Y89573D02*
D03*
X235000Y106157D02*
D03*
X234958Y114032D02*
D03*
X236727Y118362D02*
D03*
X273216Y109573D02*
D03*
X276316Y101173D02*
D03*
X378422Y49661D02*
D03*
X143622Y113861D02*
D03*
X238522Y124261D02*
D03*
X146922Y105614D02*
D03*
X139322Y109161D02*
D03*
X49322Y141261D02*
D03*
X125616Y23873D02*
D03*
X129400Y17350D02*
D03*
X191778Y51139D02*
D03*
X197897Y57804D02*
D03*
X191181Y66378D02*
D03*
X194716Y86873D02*
D03*
X251484Y138177D02*
D03*
X178667Y173555D02*
D03*
X184610Y174055D02*
D03*
X271822Y32861D02*
D03*
X278191Y32205D02*
D03*
Y14291D02*
D03*
X300041D02*
D03*
Y32205D02*
D03*
X285116Y23161D02*
D03*
Y20361D02*
D03*
Y17561D02*
D03*
Y25961D02*
D03*
Y28761D02*
D03*
X289116D02*
D03*
Y25961D02*
D03*
Y17561D02*
D03*
Y20361D02*
D03*
Y23161D02*
D03*
X293116Y28761D02*
D03*
Y25961D02*
D03*
Y17561D02*
D03*
Y20361D02*
D03*
Y23161D02*
D03*
X272516Y9748D02*
D03*
X308466Y170511D02*
D03*
Y166961D02*
D03*
Y174061D02*
D03*
X311466D02*
D03*
Y166961D02*
D03*
Y170511D02*
D03*
X314466Y174061D02*
D03*
Y166961D02*
D03*
Y170511D02*
D03*
X244522Y49961D02*
D03*
X257522Y50161D02*
D03*
X251322Y50061D02*
D03*
X349916Y144873D02*
D03*
X362888Y144515D02*
D03*
Y161838D02*
D03*
X349916Y161573D02*
D03*
X370222Y173561D02*
D03*
X386903Y173649D02*
D03*
X353416Y174673D02*
D03*
X358116Y174573D02*
D03*
X291722Y158561D02*
D03*
X219866Y85873D02*
D03*
X238966D02*
D03*
X238900Y77900D02*
D03*
X64600Y32790D02*
D03*
X215516Y123904D02*
D03*
X219916D02*
D03*
X204350Y117010D02*
D03*
X338016Y177273D02*
D03*
X341181Y168032D02*
D03*
X343425Y165866D02*
D03*
X339016Y170315D02*
D03*
X343465Y170276D02*
D03*
X338937Y165866D02*
D03*
X343500Y176990D02*
D03*
X349567Y174488D02*
D03*
X352205Y180118D02*
D03*
X130433Y112716D02*
D03*
X70272Y64061D02*
D03*
X73550Y67461D02*
D03*
X87953Y59803D02*
D03*
Y68942D02*
D03*
X84570Y64373D02*
D03*
Y68942D02*
D03*
Y59803D02*
D03*
X132913Y180433D02*
D03*
X123976Y171496D02*
D03*
X125787Y181693D02*
D03*
X119528Y175433D02*
D03*
X99997Y26929D02*
D03*
Y22359D02*
D03*
X96614Y26929D02*
D03*
Y22359D02*
D03*
Y17790D02*
D03*
X99997D02*
D03*
X123110Y46968D02*
D03*
D121*
X166024Y108976D02*
D03*
X121102Y68858D02*
D03*
X127008D02*
D03*
X118150D02*
D03*
X115197D02*
D03*
X124961Y45276D02*
D03*
X121102Y45354D02*
D03*
X117087Y41653D02*
D03*
X129803D02*
D03*
X133050Y16850D02*
D03*
X124055Y68858D02*
D03*
X134122Y19861D02*
D03*
X133022Y41661D02*
D03*
X126022D02*
D03*
X129822Y31461D02*
D03*
X130822Y29161D02*
D03*
X284747Y130261D02*
D03*
X119922Y41661D02*
D03*
X122972D02*
D03*
X124550Y53250D02*
D03*
X121950Y53180D02*
D03*
D122*
X334222Y136361D02*
D03*
Y146861D02*
D03*
X381102Y68879D02*
D03*
X374646Y68840D02*
D03*
X348819Y90827D02*
D03*
X353976Y86693D02*
D03*
X348701Y86575D02*
D03*
X348780Y95197D02*
D03*
X354016Y90984D02*
D03*
X313013Y37495D02*
D03*
X308347D02*
D03*
X261700Y95787D02*
D03*
X102422Y47261D02*
D03*
X97522D02*
D03*
X102422Y51561D02*
D03*
X97522D02*
D03*
Y55861D02*
D03*
X102422D02*
D03*
X196400Y66400D02*
D03*
X259778Y148689D02*
D03*
X308622Y102661D02*
D03*
X308522Y23361D02*
D03*
Y28111D02*
D03*
X313122Y23361D02*
D03*
Y28111D02*
D03*
X308522Y32861D02*
D03*
X313122D02*
D03*
X250222Y24811D02*
D03*
X321522Y174161D02*
D03*
X348583Y107583D02*
D03*
X353525Y103317D02*
D03*
X348583D02*
D03*
X353425Y111850D02*
D03*
X122222Y28061D02*
D03*
X117322D02*
D03*
X122222Y32061D02*
D03*
X117322D02*
D03*
X185878Y68500D02*
D03*
X328884Y182868D02*
D03*
X191622Y172061D02*
D03*
X353504Y107583D02*
D03*
X348583Y111850D02*
D03*
X354134Y95315D02*
D03*
X245622Y24811D02*
D03*
X250222Y20261D02*
D03*
X245622D02*
D03*
X250222Y15711D02*
D03*
X245622D02*
D03*
D123*
X95589Y80934D02*
D03*
Y89635D02*
D03*
X84023Y155924D02*
D03*
X95444Y151119D02*
D03*
X82323Y160728D02*
D03*
X84023Y151119D02*
D03*
X95444Y155924D02*
D03*
X97244Y160728D02*
D03*
X83823Y98269D02*
D03*
X95944Y103074D02*
D03*
Y98269D02*
D03*
X82323Y93465D02*
D03*
X83823Y103074D02*
D03*
X97244Y93465D02*
D03*
X89685Y162342D02*
D03*
Y158209D02*
D03*
Y154075D02*
D03*
Y149941D02*
D03*
Y145807D02*
D03*
Y141673D02*
D03*
Y133405D02*
D03*
Y125138D02*
D03*
Y121004D02*
D03*
Y112736D02*
D03*
Y108602D02*
D03*
Y104469D02*
D03*
Y100335D02*
D03*
Y96201D02*
D03*
X82323Y117487D02*
D03*
Y112683D02*
D03*
X83823Y107878D02*
D03*
X82323Y131901D02*
D03*
Y127096D02*
D03*
Y122292D02*
D03*
X84023Y146315D02*
D03*
X82323Y141510D02*
D03*
Y136706D02*
D03*
X95444Y146315D02*
D03*
X97244Y141510D02*
D03*
Y136706D02*
D03*
Y131901D02*
D03*
Y127096D02*
D03*
Y122292D02*
D03*
Y117487D02*
D03*
Y112683D02*
D03*
X95944Y107878D02*
D03*
X104606Y142775D02*
D03*
Y136378D02*
D03*
Y129980D02*
D03*
Y123583D02*
D03*
Y117185D02*
D03*
Y110787D02*
D03*
X89685Y137539D02*
D03*
Y129272D02*
D03*
Y116870D02*
D03*
X76181Y110787D02*
D03*
Y117185D02*
D03*
Y123583D02*
D03*
Y129980D02*
D03*
Y136378D02*
D03*
Y142775D02*
D03*
D124*
X212629Y112260D02*
D03*
X217354D02*
D03*
X212629Y107535D02*
D03*
X217354D02*
D03*
X222078D02*
D03*
X226802D02*
D03*
X212629Y102811D02*
D03*
X217354D02*
D03*
X222078D02*
D03*
X226802D02*
D03*
X212629Y98087D02*
D03*
X217354D02*
D03*
X222078D02*
D03*
X226802D02*
D03*
Y112260D02*
D03*
X222078D02*
D03*
D125*
X145516Y29773D02*
D03*
Y31773D02*
D03*
X143516Y23773D02*
D03*
Y27773D02*
D03*
X145516D02*
D03*
X141516Y25773D02*
D03*
Y23773D02*
D03*
X143516Y25773D02*
D03*
X141516Y27773D02*
D03*
X145516Y23773D02*
D03*
Y25773D02*
D03*
X137516Y31773D02*
D03*
X139516D02*
D03*
X141516D02*
D03*
X143516D02*
D03*
Y29773D02*
D03*
X141516D02*
D03*
X139516D02*
D03*
X137516D02*
D03*
X139516Y27773D02*
D03*
X137516D02*
D03*
X139516Y23773D02*
D03*
X137516D02*
D03*
X139516Y25773D02*
D03*
X137516D02*
D03*
D126*
X299252Y153937D02*
D03*
X278000Y167400D02*
D03*
D127*
X80472Y34161D02*
D03*
X180600Y79700D02*
D03*
X23022Y129461D02*
D03*
Y67381D02*
D03*
X50522Y148361D02*
D03*
X145922Y123361D02*
D03*
X76108Y65000D02*
D03*
D128*
X204200Y84357D02*
D03*
D129*
X20827Y98421D02*
D03*
X160744Y35787D02*
D03*
X379295Y185300D02*
D03*
X357422Y32650D02*
D03*
M02*
