%FSLAX25Y25*%
%MOIN*%
G70*
G01*
G75*
G04 Layer_Color=8388736*
%ADD10C,0.01102*%
%ADD11R,0.01969X0.01969*%
%ADD12C,0.06811*%
%ADD13R,0.02200X0.02200*%
%ADD14R,0.24016X0.12047*%
%ADD15R,0.04331X0.02559*%
%ADD16R,0.04331X0.02200*%
%ADD17R,0.02362X0.04724*%
%ADD18R,0.01882X0.01024*%
%ADD19R,0.06890X0.05709*%
%ADD20R,0.05709X0.06890*%
%ADD21R,0.20866X0.07874*%
%ADD22R,0.08858X0.08465*%
%ADD23R,0.03200X0.03800*%
%ADD24R,0.06000X0.12000*%
%ADD25R,0.18000X0.10000*%
%ADD26R,0.03800X0.03200*%
%ADD27R,0.02874X0.01181*%
%ADD28R,0.01181X0.02874*%
%ADD29R,0.01181X0.03268*%
%ADD30R,0.03268X0.01181*%
%ADD31R,0.12047X0.24016*%
%ADD32R,0.09685X0.03110*%
%ADD33R,0.13000X0.07874*%
%ADD34R,0.04803X0.02441*%
%ADD35R,0.01870X0.00984*%
%ADD36R,0.00984X0.01870*%
%ADD37R,0.04331X0.04331*%
%ADD38R,0.02559X0.04331*%
%ADD39R,0.02047X0.04331*%
%ADD40R,0.03937X0.01378*%
%ADD41R,0.01378X0.03937*%
%ADD42R,0.02402X0.04902*%
%ADD43R,0.04095X0.07087*%
%ADD44R,0.04331X0.05512*%
%ADD45R,0.02165X0.01181*%
%ADD46R,0.02953X0.01181*%
%ADD47R,0.01181X0.02165*%
%ADD48R,0.01181X0.02953*%
%ADD49R,0.20630X0.20630*%
%ADD50R,0.02079X0.01024*%
%ADD51R,0.01024X0.02079*%
%ADD52R,0.10630X0.10630*%
%ADD53R,0.04134X0.01772*%
%ADD54R,0.11575X0.14094*%
%ADD55R,0.06890X0.06890*%
%ADD56O,0.02362X0.01181*%
%ADD57R,0.10000X0.14000*%
%ADD58R,0.02441X0.04803*%
%ADD59R,0.10236X0.03937*%
%ADD60R,0.03937X0.10236*%
%ADD61R,0.12992X0.12992*%
%ADD62R,0.07874X0.09843*%
%ADD63R,0.07874X0.07874*%
%ADD64R,0.02756X0.02165*%
%ADD65R,0.10433X0.03150*%
%ADD66R,0.02165X0.02165*%
%ADD67R,0.02165X0.02756*%
%ADD68R,0.03150X0.10433*%
%ADD69R,0.02165X0.02165*%
%ADD70R,0.02756X0.01181*%
%ADD71R,0.02200X0.01575*%
%ADD72R,0.01575X0.02200*%
G04:AMPARAMS|DCode=73|XSize=22mil|YSize=15.75mil|CornerRadius=0mil|HoleSize=0mil|Usage=FLASHONLY|Rotation=83.000|XOffset=0mil|YOffset=0mil|HoleType=Round|Shape=Rectangle|*
%AMROTATEDRECTD73*
4,1,4,0.00648,-0.01188,-0.00916,-0.00996,-0.00648,0.01188,0.00916,0.00996,0.00648,-0.01188,0.0*
%
%ADD73ROTATEDRECTD73*%

G04:AMPARAMS|DCode=74|XSize=22mil|YSize=15.75mil|CornerRadius=0mil|HoleSize=0mil|Usage=FLASHONLY|Rotation=97.000|XOffset=0mil|YOffset=0mil|HoleType=Round|Shape=Rectangle|*
%AMROTATEDRECTD74*
4,1,4,0.00916,-0.00996,-0.00648,-0.01188,-0.00916,0.00996,0.00648,0.01188,0.00916,-0.00996,0.0*
%
%ADD74ROTATEDRECTD74*%

%ADD75R,0.01969X0.03543*%
%ADD76R,0.03543X0.01969*%
%ADD77R,0.01969X0.03347*%
%ADD78R,0.03347X0.01969*%
%ADD79R,0.06496X0.06496*%
%ADD80R,0.05906X0.05906*%
%ADD81R,0.05906X0.05906*%
%ADD82R,0.07874X0.31496*%
%ADD83C,0.01400*%
%ADD84C,0.01000*%
%ADD85C,0.07000*%
%ADD86C,0.02400*%
%ADD87C,0.01575*%
%ADD88C,0.01100*%
%ADD89C,0.07874*%
%ADD90C,0.02362*%
%ADD91C,0.09000*%
%ADD92C,0.02000*%
%ADD93C,0.02047*%
%ADD94C,0.01600*%
%ADD95C,0.01969*%
%ADD96C,0.01200*%
%ADD97C,0.05000*%
%ADD98C,0.03500*%
%ADD99C,0.02200*%
%ADD100C,0.00984*%
%ADD101R,0.12835X0.09900*%
%ADD102R,0.11900X0.24400*%
%ADD103R,0.10700X0.08011*%
%ADD104R,0.10800X0.14300*%
%ADD105R,0.14525X0.03200*%
%ADD106R,0.18522X0.03500*%
%ADD107R,0.00433X0.01700*%
%ADD108R,0.10800X0.20947*%
%ADD109R,0.12402X0.23701*%
%ADD110R,0.09900X0.12520*%
%ADD111R,0.13976X0.55984*%
%ADD112R,0.35039X0.34961*%
%ADD113C,0.06299*%
%ADD114R,0.06299X0.06299*%
%ADD115R,0.03937X0.03937*%
%ADD116C,0.03937*%
%ADD117R,0.03937X0.03937*%
%ADD118C,0.01400*%
%ADD119C,0.01200*%
%ADD120C,0.01800*%
%ADD121C,0.02000*%
%ADD122C,0.04000*%
%ADD123C,0.01969*%
%ADD124C,0.02598*%
%ADD125C,0.00787*%
%ADD126C,0.01000*%
%ADD127C,0.02500*%
%ADD128C,0.02362*%
%ADD129C,0.14961*%
%ADD130C,0.03000*%
%ADD131R,0.11900X0.14889*%
%ADD132C,0.06000*%
%ADD133R,0.01200X0.02200*%
%ADD134R,0.09843X0.05906*%
%ADD135R,0.05906X0.09843*%
%ADD136R,0.04921X0.01575*%
%ADD137R,0.04921X0.01575*%
%ADD138R,0.08661X0.05512*%
%ADD139R,0.26772X0.26772*%
%ADD140R,0.01378X0.03150*%
%ADD141R,0.03150X0.01378*%
%ADD142R,0.03543X0.01575*%
%ADD143R,0.01969X0.01969*%
%ADD144R,0.05118X0.03347*%
%ADD145C,0.00900*%
%ADD146C,0.02500*%
%ADD147R,0.01850X0.03340*%
%ADD148R,0.05908X0.03435*%
%ADD149R,0.09900X0.13110*%
%ADD150C,0.00394*%
%ADD151C,0.00827*%
%ADD152C,0.00800*%
%ADD153C,0.00787*%
%ADD154C,0.00315*%
%ADD155C,0.00591*%
%ADD156C,0.00787*%
%ADD157C,0.00394*%
%ADD158C,0.00400*%
%ADD159C,0.01378*%
%ADD160C,0.00600*%
%ADD161R,0.01181X0.02165*%
%ADD162R,0.01771X0.02165*%
%ADD163R,0.02165X0.01181*%
%ADD164R,0.02165X0.01771*%
%ADD165R,0.11221X0.13307*%
%ADD166R,0.11102X0.13661*%
%ADD167R,0.10827X0.12214*%
%ADD168R,0.12214X0.10827*%
%ADD169R,0.14902X0.56988*%
%ADD170R,0.35945X0.35886*%
%ADD171R,0.02769X0.02769*%
%ADD172C,0.07611*%
%ADD173R,0.04882X0.03110*%
%ADD174R,0.04882X0.02751*%
%ADD175R,0.02913X0.05276*%
%ADD176R,0.02433X0.01575*%
%ADD177R,0.07690X0.06509*%
%ADD178R,0.06509X0.07690*%
%ADD179R,0.21666X0.08674*%
%ADD180R,0.09658X0.09265*%
%ADD181R,0.03279X0.03879*%
%ADD182R,0.03268X0.01575*%
%ADD183R,0.01575X0.03268*%
%ADD184R,0.01575X0.03661*%
%ADD185R,0.03661X0.01575*%
%ADD186R,0.09764X0.03189*%
%ADD187R,0.05354X0.02992*%
%ADD188R,0.02185X0.01299*%
%ADD189R,0.01299X0.02185*%
%ADD190R,0.04646X0.04646*%
%ADD191R,0.03110X0.04882*%
%ADD192R,0.02598X0.04882*%
%ADD193R,0.04331X0.01772*%
%ADD194R,0.01772X0.04331*%
%ADD195R,0.03202X0.05702*%
%ADD196R,0.04895X0.07887*%
%ADD197R,0.05131X0.06312*%
%ADD198R,0.02559X0.01575*%
%ADD199R,0.03347X0.01575*%
%ADD200R,0.01575X0.02559*%
%ADD201R,0.01575X0.03347*%
%ADD202R,0.21181X0.21181*%
%ADD203R,0.02630X0.01575*%
%ADD204R,0.01575X0.02630*%
%ADD205R,0.11181X0.11181*%
%ADD206R,0.04685X0.02323*%
%ADD207R,0.11811X0.14331*%
%ADD208R,0.07284X0.07284*%
%ADD209O,0.02756X0.01575*%
%ADD210R,0.11430X0.11430*%
%ADD211R,0.02992X0.05354*%
%ADD212R,0.11036X0.04737*%
%ADD213R,0.04737X0.11036*%
%ADD214R,0.13792X0.13792*%
%ADD215R,0.08674X0.10642*%
%ADD216R,0.08674X0.08674*%
%ADD217R,0.03156X0.02565*%
%ADD218R,0.10835X0.03551*%
%ADD219R,0.02565X0.02565*%
%ADD220R,0.02565X0.03156*%
%ADD221R,0.03551X0.10835*%
%ADD222R,0.02565X0.02565*%
%ADD223R,0.03556X0.01981*%
%ADD224R,0.07296X0.07296*%
%ADD225R,0.06706X0.06706*%
%ADD226R,0.06706X0.06706*%
%ADD227R,0.08674X0.32296*%
%ADD228C,0.04737*%
%ADD229R,0.04737X0.04737*%
%ADD230R,0.04737X0.04737*%
%ADD231C,0.03398*%
%ADD232C,0.04800*%
%ADD233C,0.15761*%
G36*
X34839Y38993D02*
X34890Y38984D01*
X34938Y38967D01*
X34985Y38944D01*
X35028Y38915D01*
X35066Y38881D01*
X35100Y38842D01*
X35129Y38800D01*
X35152Y38753D01*
X35168Y38704D01*
X35179Y38654D01*
X35182Y38602D01*
Y29354D01*
X35179Y29303D01*
X35168Y29252D01*
X35152Y29203D01*
X35129Y29157D01*
X35100Y29114D01*
X35066Y29075D01*
X35028Y29041D01*
X34985Y29013D01*
X34938Y28990D01*
X34890Y28973D01*
X34839Y28963D01*
X34787Y28960D01*
X27299D01*
X27247Y28963D01*
X27197Y28973D01*
X27148Y28990D01*
X27101Y29013D01*
X27059Y29041D01*
X27020Y29075D01*
X26986Y29114D01*
X26957Y29157D01*
X26934Y29203D01*
X26933Y29206D01*
X26238Y30053D01*
X25070Y31012D01*
X23737Y31724D01*
X22291Y32163D01*
X20787Y32311D01*
X19284Y32163D01*
X17838Y31724D01*
X16505Y31012D01*
X15337Y30053D01*
X14641Y29206D01*
X14640Y29203D01*
X14634Y29189D01*
X14627Y29175D01*
X14622Y29166D01*
X14618Y29157D01*
X14609Y29144D01*
X14601Y29130D01*
X14595Y29122D01*
X14589Y29114D01*
X14579Y29102D01*
X14569Y29090D01*
X14562Y29083D01*
X14555Y29075D01*
X14543Y29065D01*
X14532Y29054D01*
X14524Y29048D01*
X14516Y29041D01*
X14503Y29033D01*
X14491Y29023D01*
X14482Y29018D01*
X14473Y29013D01*
X14459Y29006D01*
X14445Y28998D01*
X14436Y28994D01*
X14427Y28990D01*
X14412Y28985D01*
X14397Y28979D01*
X14388Y28977D01*
X14378Y28973D01*
X14363Y28970D01*
X14347Y28966D01*
X14337Y28965D01*
X14327Y28963D01*
X14312Y28962D01*
X14296Y28960D01*
X14286Y28960D01*
X14276Y28960D01*
X6787D01*
X6736Y28963D01*
X6685Y28973D01*
X6636Y28990D01*
X6590Y29013D01*
X6547Y29041D01*
X6508Y29075D01*
X6474Y29114D01*
X6446Y29157D01*
X6423Y29203D01*
X6406Y29252D01*
X6396Y29303D01*
X6393Y29354D01*
Y38602D01*
X6396Y38654D01*
X6406Y38704D01*
X6423Y38753D01*
X6446Y38800D01*
X6474Y38842D01*
X6508Y38881D01*
X6547Y38915D01*
X6590Y38944D01*
X6636Y38967D01*
X6685Y38984D01*
X6736Y38993D01*
X6787Y38997D01*
X34787D01*
X34839Y38993D01*
D02*
G37*
G36*
Y20242D02*
X34890Y20232D01*
X34938Y20215D01*
X34985Y20192D01*
X35028Y20163D01*
X35066Y20129D01*
X35100Y20091D01*
X35129Y20048D01*
X35152Y20001D01*
X35168Y19952D01*
X35179Y19902D01*
X35182Y19850D01*
Y10602D01*
X35179Y10551D01*
X35168Y10500D01*
X35152Y10451D01*
X35129Y10405D01*
X35100Y10362D01*
X35066Y10323D01*
X35028Y10289D01*
X34985Y10261D01*
X34938Y10238D01*
X34890Y10221D01*
X34839Y10211D01*
X34787Y10208D01*
X6787D01*
X6736Y10211D01*
X6685Y10221D01*
X6636Y10238D01*
X6590Y10261D01*
X6547Y10289D01*
X6508Y10323D01*
X6474Y10362D01*
X6446Y10405D01*
X6423Y10451D01*
X6406Y10500D01*
X6396Y10551D01*
X6393Y10602D01*
Y19850D01*
X6396Y19902D01*
X6406Y19952D01*
X6423Y20001D01*
X6446Y20048D01*
X6474Y20091D01*
X6508Y20129D01*
X6547Y20163D01*
X6590Y20192D01*
X6636Y20215D01*
X6685Y20232D01*
X6736Y20242D01*
X6787Y20245D01*
X14276D01*
X14327Y20242D01*
X14378Y20232D01*
X14427Y20215D01*
X14473Y20192D01*
X14516Y20163D01*
X14555Y20129D01*
X14589Y20091D01*
X14618Y20048D01*
X14640Y20001D01*
X14641Y19999D01*
X15337Y19152D01*
X16505Y18193D01*
X17838Y17481D01*
X19284Y17042D01*
X20787Y16894D01*
X22291Y17042D01*
X23737Y17481D01*
X25070Y18193D01*
X26238Y19152D01*
X26933Y19999D01*
X26934Y20001D01*
X26941Y20016D01*
X26948Y20030D01*
X26953Y20039D01*
X26957Y20048D01*
X26966Y20061D01*
X26974Y20074D01*
X26980Y20082D01*
X26986Y20091D01*
X26996Y20102D01*
X27006Y20115D01*
X27013Y20122D01*
X27020Y20129D01*
X27032Y20140D01*
X27043Y20151D01*
X27051Y20157D01*
X27059Y20163D01*
X27072Y20172D01*
X27084Y20182D01*
X27093Y20187D01*
X27101Y20192D01*
X27116Y20199D01*
X27129Y20207D01*
X27139Y20210D01*
X27148Y20215D01*
X27163Y20220D01*
X27177Y20226D01*
X27187Y20228D01*
X27197Y20232D01*
X27212Y20235D01*
X27227Y20238D01*
X27237Y20240D01*
X27247Y20242D01*
X27263Y20243D01*
X27279Y20244D01*
X27289Y20244D01*
X27299Y20245D01*
X34787D01*
X34839Y20242D01*
D02*
G37*
G36*
Y186631D02*
X34890Y186621D01*
X34938Y186605D01*
X34985Y186582D01*
X35028Y186553D01*
X35066Y186519D01*
X35100Y186480D01*
X35129Y186437D01*
X35152Y186391D01*
X35168Y186342D01*
X35179Y186292D01*
X35182Y186240D01*
Y176992D01*
X35179Y176941D01*
X35168Y176890D01*
X35152Y176841D01*
X35129Y176795D01*
X35100Y176752D01*
X35066Y176713D01*
X35028Y176679D01*
X34985Y176651D01*
X34938Y176628D01*
X34890Y176611D01*
X34839Y176601D01*
X34787Y176598D01*
X27299D01*
X27247Y176601D01*
X27197Y176611D01*
X27148Y176628D01*
X27101Y176651D01*
X27059Y176679D01*
X27020Y176713D01*
X26986Y176752D01*
X26957Y176795D01*
X26934Y176841D01*
X26933Y176844D01*
X26238Y177691D01*
X25070Y178649D01*
X23737Y179362D01*
X22291Y179800D01*
X20787Y179949D01*
X19284Y179800D01*
X17838Y179362D01*
X16505Y178649D01*
X15337Y177691D01*
X14641Y176844D01*
X14640Y176841D01*
X14634Y176827D01*
X14627Y176813D01*
X14622Y176804D01*
X14618Y176795D01*
X14609Y176782D01*
X14601Y176768D01*
X14595Y176760D01*
X14589Y176752D01*
X14579Y176740D01*
X14569Y176728D01*
X14562Y176721D01*
X14555Y176713D01*
X14543Y176703D01*
X14532Y176692D01*
X14524Y176686D01*
X14516Y176679D01*
X14503Y176670D01*
X14491Y176661D01*
X14482Y176656D01*
X14473Y176651D01*
X14459Y176644D01*
X14445Y176636D01*
X14436Y176632D01*
X14427Y176628D01*
X14412Y176622D01*
X14397Y176617D01*
X14388Y176614D01*
X14378Y176611D01*
X14363Y176608D01*
X14347Y176604D01*
X14337Y176603D01*
X14327Y176601D01*
X14312Y176600D01*
X14296Y176598D01*
X14286Y176598D01*
X14276Y176598D01*
X6787D01*
X6736Y176601D01*
X6685Y176611D01*
X6636Y176628D01*
X6590Y176651D01*
X6547Y176679D01*
X6508Y176713D01*
X6474Y176752D01*
X6446Y176795D01*
X6423Y176841D01*
X6406Y176890D01*
X6396Y176941D01*
X6393Y176992D01*
Y186240D01*
X6396Y186292D01*
X6406Y186342D01*
X6423Y186391D01*
X6446Y186437D01*
X6474Y186480D01*
X6508Y186519D01*
X6547Y186553D01*
X6590Y186582D01*
X6636Y186605D01*
X6685Y186621D01*
X6736Y186631D01*
X6787Y186635D01*
X34787D01*
X34839Y186631D01*
D02*
G37*
G36*
Y167879D02*
X34890Y167869D01*
X34938Y167853D01*
X34985Y167830D01*
X35028Y167801D01*
X35066Y167767D01*
X35100Y167728D01*
X35129Y167685D01*
X35152Y167639D01*
X35168Y167590D01*
X35179Y167540D01*
X35182Y167488D01*
Y158240D01*
X35179Y158189D01*
X35168Y158138D01*
X35152Y158089D01*
X35129Y158043D01*
X35100Y158000D01*
X35066Y157961D01*
X35028Y157927D01*
X34985Y157898D01*
X34938Y157876D01*
X34890Y157859D01*
X34839Y157849D01*
X34787Y157846D01*
X6787D01*
X6736Y157849D01*
X6685Y157859D01*
X6636Y157876D01*
X6590Y157898D01*
X6547Y157927D01*
X6508Y157961D01*
X6474Y158000D01*
X6446Y158043D01*
X6423Y158089D01*
X6406Y158138D01*
X6396Y158189D01*
X6393Y158240D01*
Y167488D01*
X6396Y167540D01*
X6406Y167590D01*
X6423Y167639D01*
X6446Y167685D01*
X6474Y167728D01*
X6508Y167767D01*
X6547Y167801D01*
X6590Y167830D01*
X6636Y167853D01*
X6685Y167869D01*
X6736Y167879D01*
X6787Y167883D01*
X14276D01*
X14327Y167879D01*
X14378Y167869D01*
X14427Y167853D01*
X14473Y167830D01*
X14516Y167801D01*
X14555Y167767D01*
X14589Y167728D01*
X14618Y167685D01*
X14640Y167639D01*
X14641Y167637D01*
X15337Y166789D01*
X16505Y165831D01*
X17838Y165119D01*
X19284Y164680D01*
X20787Y164532D01*
X22291Y164680D01*
X23737Y165119D01*
X25070Y165831D01*
X26238Y166789D01*
X26933Y167637D01*
X26934Y167639D01*
X26941Y167653D01*
X26948Y167668D01*
X26953Y167676D01*
X26957Y167685D01*
X26966Y167699D01*
X26974Y167712D01*
X26980Y167720D01*
X26986Y167728D01*
X26996Y167740D01*
X27006Y167753D01*
X27013Y167760D01*
X27020Y167767D01*
X27032Y167778D01*
X27043Y167789D01*
X27051Y167795D01*
X27059Y167801D01*
X27072Y167810D01*
X27084Y167819D01*
X27093Y167824D01*
X27101Y167830D01*
X27116Y167837D01*
X27129Y167844D01*
X27139Y167848D01*
X27148Y167853D01*
X27163Y167858D01*
X27177Y167864D01*
X27187Y167866D01*
X27197Y167869D01*
X27212Y167872D01*
X27227Y167876D01*
X27237Y167877D01*
X27247Y167879D01*
X27263Y167880D01*
X27279Y167882D01*
X27289Y167882D01*
X27299Y167883D01*
X34787D01*
X34839Y167879D01*
D02*
G37*
D13*
X272516Y22548D02*
D03*
Y18348D02*
D03*
Y13948D02*
D03*
Y9748D02*
D03*
D14*
X355354Y129035D02*
D03*
Y153169D02*
D03*
D23*
X304222Y38161D02*
D03*
X298622D02*
D03*
D24*
X112022Y50261D02*
D03*
X123022D02*
D03*
X97222Y64361D02*
D03*
X86222D02*
D03*
X109322Y22461D02*
D03*
X98322D02*
D03*
D25*
X251522Y28661D02*
D03*
Y53661D02*
D03*
D26*
X271816Y27648D02*
D03*
Y33248D02*
D03*
D31*
X338642Y69528D02*
D03*
X362776D02*
D03*
D33*
X378408Y36397D02*
D03*
Y62381D02*
D03*
D57*
X307205Y121181D02*
D03*
X287205D02*
D03*
D71*
X196900Y99469D02*
D03*
Y95891D02*
D03*
X117422Y37172D02*
D03*
Y40750D02*
D03*
X129822Y37172D02*
D03*
Y40750D02*
D03*
X121116Y64484D02*
D03*
Y68062D02*
D03*
X191955Y61179D02*
D03*
Y57601D02*
D03*
X176500Y79439D02*
D03*
Y75861D02*
D03*
X76108Y60311D02*
D03*
Y56733D02*
D03*
X76087Y34892D02*
D03*
Y31313D02*
D03*
X231232Y80762D02*
D03*
Y77184D02*
D03*
X219816Y81750D02*
D03*
Y78172D02*
D03*
X227900Y80762D02*
D03*
Y77184D02*
D03*
X238900Y78211D02*
D03*
Y81789D02*
D03*
X234016Y126384D02*
D03*
Y129962D02*
D03*
X229316Y127784D02*
D03*
Y131362D02*
D03*
X224616Y126384D02*
D03*
Y129962D02*
D03*
X206816Y86162D02*
D03*
Y82584D02*
D03*
X219916Y126384D02*
D03*
Y129962D02*
D03*
X215216Y126384D02*
D03*
Y129962D02*
D03*
X193180Y99469D02*
D03*
Y95891D02*
D03*
X281339Y63600D02*
D03*
Y60022D02*
D03*
X329606Y64348D02*
D03*
Y60770D02*
D03*
X141516Y77862D02*
D03*
Y74284D02*
D03*
X330916Y166684D02*
D03*
Y170262D02*
D03*
X184610Y170166D02*
D03*
Y173743D02*
D03*
X162410D02*
D03*
Y170166D02*
D03*
X129078Y148214D02*
D03*
Y151792D02*
D03*
X179061Y132844D02*
D03*
Y136422D02*
D03*
X48322Y150972D02*
D03*
Y154550D02*
D03*
X49322Y145150D02*
D03*
Y141572D02*
D03*
X191778Y50828D02*
D03*
Y47250D02*
D03*
X172350Y79439D02*
D03*
Y75861D02*
D03*
X56584Y160662D02*
D03*
Y164240D02*
D03*
X56599Y139779D02*
D03*
Y143358D02*
D03*
Y36178D02*
D03*
Y32600D02*
D03*
X71408Y60311D02*
D03*
Y56733D02*
D03*
X71387Y34892D02*
D03*
Y31313D02*
D03*
X199216Y20676D02*
D03*
Y24252D02*
D03*
X141516Y56486D02*
D03*
Y60062D02*
D03*
X164000Y24197D02*
D03*
Y20621D02*
D03*
X133022Y98174D02*
D03*
Y101750D02*
D03*
X56599Y56841D02*
D03*
Y53265D02*
D03*
X229558Y54180D02*
D03*
Y50604D02*
D03*
X210616Y137160D02*
D03*
Y133584D02*
D03*
X326216Y170260D02*
D03*
Y166684D02*
D03*
X157610Y170168D02*
D03*
Y173743D02*
D03*
X214155Y57701D02*
D03*
Y61279D02*
D03*
X255778Y148076D02*
D03*
Y144500D02*
D03*
X191722Y71174D02*
D03*
Y74750D02*
D03*
X127622Y28772D02*
D03*
Y32350D02*
D03*
D72*
X198910Y37500D02*
D03*
X195332D02*
D03*
Y28700D02*
D03*
X198910D02*
D03*
X195105Y20423D02*
D03*
X191527D02*
D03*
X224189Y25532D02*
D03*
X220611D02*
D03*
X125511Y17350D02*
D03*
X129089D02*
D03*
X136889Y16800D02*
D03*
X133311D02*
D03*
X148311Y13161D02*
D03*
X144733D02*
D03*
X145305Y41561D02*
D03*
X141727D02*
D03*
X145305Y46286D02*
D03*
X141727D02*
D03*
X145305Y50986D02*
D03*
X141727D02*
D03*
X145305Y64773D02*
D03*
X141727D02*
D03*
X145305Y69373D02*
D03*
X141727D02*
D03*
X160105Y20415D02*
D03*
X156527D02*
D03*
X204311Y66000D02*
D03*
X207889D02*
D03*
X136411Y119261D02*
D03*
X132833D02*
D03*
X255373Y138177D02*
D03*
X251795D02*
D03*
X251689Y103050D02*
D03*
X248111D02*
D03*
X185567Y62739D02*
D03*
X181989D02*
D03*
X211211Y87500D02*
D03*
X214789D02*
D03*
X211233Y81861D02*
D03*
X214811D02*
D03*
X201539Y126300D02*
D03*
X197961D02*
D03*
X205389Y137473D02*
D03*
X201811D02*
D03*
X209705Y128705D02*
D03*
X206127D02*
D03*
X200705Y121373D02*
D03*
X197127D02*
D03*
X200689Y117100D02*
D03*
X197111D02*
D03*
X148511Y162800D02*
D03*
X152089D02*
D03*
X147989Y166500D02*
D03*
X144411D02*
D03*
X129394Y152100D02*
D03*
X132973D02*
D03*
X153300D02*
D03*
X156878D02*
D03*
X198910Y33100D02*
D03*
X195332D02*
D03*
X167827Y20415D02*
D03*
X171405D02*
D03*
X334127Y177273D02*
D03*
X337705D02*
D03*
X347205D02*
D03*
X343627D02*
D03*
X172249Y163754D02*
D03*
X168671D02*
D03*
X148859Y102061D02*
D03*
X145281D02*
D03*
X182289Y40839D02*
D03*
X185867D02*
D03*
X146233Y119261D02*
D03*
X149811D02*
D03*
X56810Y73911D02*
D03*
X60387D02*
D03*
X56810Y48199D02*
D03*
X60387D02*
D03*
X196435Y74761D02*
D03*
X200011D02*
D03*
X167909Y96161D02*
D03*
X164333D02*
D03*
X229767Y58137D02*
D03*
X233343D02*
D03*
X229337Y46747D02*
D03*
X225761D02*
D03*
X117263Y23850D02*
D03*
X120839D02*
D03*
X121335Y36861D02*
D03*
X124911D02*
D03*
X113913Y13950D02*
D03*
X117489D02*
D03*
X153843Y102047D02*
D03*
X157419D02*
D03*
X185865Y36139D02*
D03*
X182289D02*
D03*
X216787Y54000D02*
D03*
X213211D02*
D03*
X167909Y92000D02*
D03*
X164333D02*
D03*
X117213Y19550D02*
D03*
X120789D02*
D03*
X200705Y92373D02*
D03*
X197127D02*
D03*
X328909Y177261D02*
D03*
X325333D02*
D03*
X152409Y169861D02*
D03*
X148833D02*
D03*
X192191Y41539D02*
D03*
X195767D02*
D03*
X178769Y132510D02*
D03*
X175191D02*
D03*
X129505Y23873D02*
D03*
X125927D02*
D03*
D73*
X198224Y111084D02*
D03*
X201776Y110648D02*
D03*
D74*
X198224Y105136D02*
D03*
X201776Y105572D02*
D03*
D75*
X238966Y85873D02*
D03*
X233366D02*
D03*
X110116Y67273D02*
D03*
X104516D02*
D03*
X110116Y60973D02*
D03*
X104516D02*
D03*
X225466Y85873D02*
D03*
X219866D02*
D03*
D76*
X148234Y152102D02*
D03*
Y157702D02*
D03*
D77*
X28352Y67381D02*
D03*
X33470D02*
D03*
X28352Y129461D02*
D03*
X33470D02*
D03*
D78*
X301962Y100784D02*
D03*
Y95666D02*
D03*
X286214Y95862D02*
D03*
Y100980D02*
D03*
X270466Y95862D02*
D03*
Y100980D02*
D03*
X317710Y100980D02*
D03*
Y95862D02*
D03*
D113*
X329022Y12861D02*
D03*
X339022D02*
D03*
X349022D02*
D03*
X359022D02*
D03*
X319022D02*
D03*
X307722Y186161D02*
D03*
X317722D02*
D03*
X286378Y186142D02*
D03*
D114*
X369022Y12861D02*
D03*
X297722Y186161D02*
D03*
X276378Y186142D02*
D03*
D115*
X192100Y121400D02*
D03*
X348722Y186461D02*
D03*
X250500Y87400D02*
D03*
Y96000D02*
D03*
X176811Y69685D02*
D03*
X148300Y175300D02*
D03*
X89122Y20161D02*
D03*
D116*
X187100Y121400D02*
D03*
X353722Y186461D02*
D03*
X255500Y87400D02*
D03*
Y96000D02*
D03*
X171811Y69685D02*
D03*
X143300Y175300D02*
D03*
X188400Y87420D02*
D03*
X84122Y20161D02*
D03*
X273516Y67561D02*
D03*
Y62561D02*
D03*
Y57561D02*
D03*
Y52561D02*
D03*
X273583Y140591D02*
D03*
Y135591D02*
D03*
Y130591D02*
D03*
Y125591D02*
D03*
X273465Y167591D02*
D03*
Y162591D02*
D03*
Y157591D02*
D03*
Y152591D02*
D03*
D117*
X188400Y82420D02*
D03*
X273516Y47561D02*
D03*
X273583Y120591D02*
D03*
X273465Y147591D02*
D03*
D125*
X145516Y29773D02*
D03*
Y31773D02*
D03*
X143516Y23773D02*
D03*
Y27773D02*
D03*
X145516D02*
D03*
X141516Y25773D02*
D03*
Y23773D02*
D03*
X143516Y25773D02*
D03*
X141516Y27773D02*
D03*
X145516Y23773D02*
D03*
Y25773D02*
D03*
X137516Y31773D02*
D03*
X139516D02*
D03*
X141516D02*
D03*
X143516D02*
D03*
Y29773D02*
D03*
X141516D02*
D03*
X139516D02*
D03*
X137516D02*
D03*
X139516Y27773D02*
D03*
X137516D02*
D03*
X139516Y23773D02*
D03*
X137516D02*
D03*
X139516Y25773D02*
D03*
X137516D02*
D03*
D165*
X351043Y90748D02*
D03*
D166*
X350276Y107500D02*
D03*
D167*
X119510Y152100D02*
D03*
X167500D02*
D03*
X180490Y20414D02*
D03*
X128190Y85273D02*
D03*
X118690Y102061D02*
D03*
D168*
X229559Y36290D02*
D03*
D169*
X89751Y127120D02*
D03*
D170*
X89722Y127070D02*
D03*
D171*
X20787Y36413D02*
D03*
Y12791D02*
D03*
Y160429D02*
D03*
Y184051D02*
D03*
D172*
Y24602D02*
D03*
Y172240D02*
D03*
D173*
X184961Y112047D02*
D03*
Y104173D02*
D03*
X192835D02*
D03*
Y108110D02*
D03*
Y112047D02*
D03*
D174*
X184961Y108110D02*
D03*
D175*
X140217Y152100D02*
D03*
D176*
X136815Y155053D02*
D03*
Y153084D02*
D03*
Y151116D02*
D03*
Y149147D02*
D03*
X143618Y149100D02*
D03*
Y151116D02*
D03*
Y153084D02*
D03*
Y155053D02*
D03*
D177*
X341535Y46732D02*
D03*
X358071D02*
D03*
D178*
X336535Y101299D02*
D03*
Y117835D02*
D03*
D179*
X326181Y153504D02*
D03*
Y127520D02*
D03*
D180*
X304213Y143622D02*
D03*
X287283D02*
D03*
D181*
X194716Y86873D02*
D03*
X200316D02*
D03*
X194716Y80573D02*
D03*
X200316D02*
D03*
D182*
X139369Y109161D02*
D03*
X132676D02*
D03*
X143576Y106008D02*
D03*
X150269Y107976D02*
D03*
X150269Y109945D02*
D03*
X150269Y111914D02*
D03*
X143576D02*
D03*
Y109945D02*
D03*
X143576Y107976D02*
D03*
X162676Y83061D02*
D03*
X169369D02*
D03*
X60267Y64068D02*
D03*
X66960D02*
D03*
X60267Y38525D02*
D03*
X66960D02*
D03*
D183*
X138975Y105814D02*
D03*
X137006Y112507D02*
D03*
X135038D02*
D03*
X133069Y112507D02*
D03*
Y105814D02*
D03*
X135038Y105814D02*
D03*
X137006D02*
D03*
X146922Y105614D02*
D03*
X146922Y112307D02*
D03*
X163069Y86407D02*
D03*
X165038Y79714D02*
D03*
X167006D02*
D03*
X168975D02*
D03*
Y86407D02*
D03*
X167006D02*
D03*
X165038D02*
D03*
X60661Y67414D02*
D03*
X62629Y60721D02*
D03*
X64598D02*
D03*
X66567D02*
D03*
Y67414D02*
D03*
X64598D02*
D03*
X62629D02*
D03*
X60661Y41871D02*
D03*
X62629Y35178D02*
D03*
X64598D02*
D03*
X66567D02*
D03*
Y41871D02*
D03*
X64598D02*
D03*
X62629D02*
D03*
D184*
X138975Y112310D02*
D03*
X163069Y79911D02*
D03*
X60661Y60918D02*
D03*
Y35375D02*
D03*
D185*
X150072Y106008D02*
D03*
D186*
X128708Y64076D02*
D03*
X132724Y49667D02*
D03*
D187*
X178667Y169814D02*
D03*
Y173555D02*
D03*
Y177295D02*
D03*
X168352D02*
D03*
Y173555D02*
D03*
Y169814D02*
D03*
X197897Y61544D02*
D03*
Y57804D02*
D03*
Y54063D02*
D03*
X208212D02*
D03*
Y57804D02*
D03*
Y61544D02*
D03*
D188*
X52804Y154071D02*
D03*
X60381Y150134D02*
D03*
Y152103D02*
D03*
Y154071D02*
D03*
X52804Y152103D02*
D03*
Y150134D02*
D03*
D189*
X54625Y155890D02*
D03*
Y148316D02*
D03*
X56593D02*
D03*
X58562D02*
D03*
Y155890D02*
D03*
X56593D02*
D03*
D190*
Y152103D02*
D03*
D191*
X225619Y71310D02*
D03*
X229556D02*
D03*
X233493D02*
D03*
Y63436D02*
D03*
X225619D02*
D03*
D192*
X229556D02*
D03*
D193*
X117842Y85273D02*
D03*
X108590D02*
D03*
D194*
X115775Y81730D02*
D03*
X113216D02*
D03*
X110657D02*
D03*
Y88816D02*
D03*
X113216D02*
D03*
X115775D02*
D03*
D195*
X95589Y88936D02*
D03*
Y81633D02*
D03*
D196*
X89192Y85284D02*
D03*
X101987D02*
D03*
D197*
X248956Y115396D02*
D03*
X258012Y130357D02*
D03*
Y115396D02*
D03*
X248956Y130357D02*
D03*
D198*
X206527Y116000D02*
D03*
Y94346D02*
D03*
X232905D02*
D03*
Y116000D02*
D03*
D199*
X206921Y114032D02*
D03*
Y112063D02*
D03*
Y110094D02*
D03*
Y108126D02*
D03*
Y106157D02*
D03*
Y104189D02*
D03*
Y102220D02*
D03*
Y100252D02*
D03*
Y98283D02*
D03*
Y96315D02*
D03*
X232511D02*
D03*
Y98283D02*
D03*
Y100252D02*
D03*
Y102220D02*
D03*
Y104189D02*
D03*
Y106157D02*
D03*
Y108126D02*
D03*
Y110094D02*
D03*
Y112063D02*
D03*
Y114032D02*
D03*
D200*
X208889Y91984D02*
D03*
X230543D02*
D03*
Y118362D02*
D03*
X208889D02*
D03*
D201*
X210858Y92378D02*
D03*
X212826D02*
D03*
X214795D02*
D03*
X216763D02*
D03*
X218732D02*
D03*
X220700D02*
D03*
X222669D02*
D03*
X224637D02*
D03*
X226606D02*
D03*
X228574D02*
D03*
Y117968D02*
D03*
X226606D02*
D03*
X224637D02*
D03*
X222669D02*
D03*
X220700D02*
D03*
X218732D02*
D03*
X216763D02*
D03*
X214795D02*
D03*
X212826D02*
D03*
X210858D02*
D03*
D202*
X219716Y105173D02*
D03*
D203*
X148854Y22852D02*
D03*
Y32695D02*
D03*
Y30726D02*
D03*
Y28758D02*
D03*
Y26789D02*
D03*
Y24820D02*
D03*
X134177Y30726D02*
D03*
Y32695D02*
D03*
Y28758D02*
D03*
Y24820D02*
D03*
Y26789D02*
D03*
Y22852D02*
D03*
D204*
X144469Y35112D02*
D03*
X136595Y20435D02*
D03*
X140532Y35112D02*
D03*
X142500D02*
D03*
X146437D02*
D03*
Y20435D02*
D03*
X144469D02*
D03*
X142500D02*
D03*
X140532D02*
D03*
X138563D02*
D03*
X136595Y35112D02*
D03*
X138563D02*
D03*
D205*
X141516Y27773D02*
D03*
D206*
X278191Y29646D02*
D03*
Y27087D02*
D03*
Y24528D02*
D03*
Y21969D02*
D03*
Y19410D02*
D03*
Y14291D02*
D03*
X300041D02*
D03*
Y16851D02*
D03*
Y19410D02*
D03*
Y21969D02*
D03*
Y24528D02*
D03*
Y29646D02*
D03*
Y32205D02*
D03*
X278191D02*
D03*
X300041Y27087D02*
D03*
X278191Y16851D02*
D03*
D207*
X289116Y23248D02*
D03*
D208*
X341216Y168060D02*
D03*
D209*
X335704Y164221D02*
D03*
Y166780D02*
D03*
Y169340D02*
D03*
Y171899D02*
D03*
X346728D02*
D03*
Y169340D02*
D03*
Y166780D02*
D03*
Y164221D02*
D03*
D210*
X291614Y74961D02*
D03*
Y50472D02*
D03*
X321614Y74961D02*
D03*
Y50472D02*
D03*
D211*
X185918Y56897D02*
D03*
X182178D02*
D03*
X178438D02*
D03*
Y46582D02*
D03*
X182178D02*
D03*
X185918D02*
D03*
D212*
X65827Y7708D02*
D03*
X85512D02*
D03*
X65827Y186842D02*
D03*
X85512D02*
D03*
X221339D02*
D03*
X241024D02*
D03*
X181968Y7708D02*
D03*
X201654D02*
D03*
Y186842D02*
D03*
X105197D02*
D03*
Y7708D02*
D03*
X241024D02*
D03*
X181968Y186842D02*
D03*
X124882D02*
D03*
Y7708D02*
D03*
X221339D02*
D03*
D213*
X266614Y161251D02*
D03*
Y33298D02*
D03*
X40236D02*
D03*
Y161251D02*
D03*
Y141566D02*
D03*
Y52983D02*
D03*
X266614D02*
D03*
Y141566D02*
D03*
X40236Y72668D02*
D03*
Y121881D02*
D03*
X266614D02*
D03*
Y72668D02*
D03*
D214*
X262087Y182314D02*
D03*
Y12235D02*
D03*
X44764D02*
D03*
Y182314D02*
D03*
D215*
X383543Y118671D02*
D03*
Y82845D02*
D03*
D216*
X360906Y117490D02*
D03*
X352244Y104496D02*
D03*
Y94653D02*
D03*
D217*
X124421Y152100D02*
D03*
X172411D02*
D03*
X175579Y20415D02*
D03*
X123279Y85273D02*
D03*
X113779Y102061D02*
D03*
D218*
X119500Y147769D02*
D03*
Y156431D02*
D03*
X167490Y147769D02*
D03*
Y156431D02*
D03*
X180500Y24746D02*
D03*
Y16084D02*
D03*
X128200Y89604D02*
D03*
Y80942D02*
D03*
X118700Y106392D02*
D03*
Y97731D02*
D03*
D219*
X113496Y152100D02*
D03*
X161486D02*
D03*
X186504Y20415D02*
D03*
X134204Y85273D02*
D03*
X124704Y102061D02*
D03*
D220*
X229558Y31379D02*
D03*
D221*
X225228Y36300D02*
D03*
X233889D02*
D03*
D222*
X229558Y42304D02*
D03*
D223*
X207979Y20414D02*
D03*
Y22973D02*
D03*
Y25532D02*
D03*
X215853D02*
D03*
Y22973D02*
D03*
Y20414D02*
D03*
D224*
X75470Y102317D02*
D03*
X103974D02*
D03*
X75470Y151805D02*
D03*
X103974D02*
D03*
D225*
X72202Y137454D02*
D03*
Y116667D02*
D03*
X107242D02*
D03*
Y137454D02*
D03*
Y127061D02*
D03*
X72202D02*
D03*
D226*
X89722Y99069D02*
D03*
Y155053D02*
D03*
D227*
Y127061D02*
D03*
D228*
X237953Y26811D02*
D03*
X69646Y165512D02*
D03*
D229*
X237953Y21811D02*
D03*
D230*
X64646Y165512D02*
D03*
D231*
X212629Y112260D02*
D03*
X217354D02*
D03*
X212629Y107535D02*
D03*
X217354D02*
D03*
X222078D02*
D03*
X226802D02*
D03*
X212629Y102811D02*
D03*
X217354D02*
D03*
X222078D02*
D03*
X226802D02*
D03*
X212629Y98087D02*
D03*
X217354D02*
D03*
X222078D02*
D03*
X226802D02*
D03*
Y112260D02*
D03*
X222078D02*
D03*
D232*
X348819Y90827D02*
D03*
X353976Y86693D02*
D03*
X348701Y86575D02*
D03*
X348780Y95197D02*
D03*
X354016Y90984D02*
D03*
X348583Y107583D02*
D03*
X353525Y103317D02*
D03*
X348583D02*
D03*
X353425Y111850D02*
D03*
X353504Y107583D02*
D03*
X348583Y111850D02*
D03*
X354134Y95315D02*
D03*
D233*
X20827Y98421D02*
D03*
X160744Y35787D02*
D03*
X379295Y185300D02*
D03*
X357422Y32650D02*
D03*
M02*
