%FSLAX25Y25*%
%MOIN*%
G70*
G01*
G75*
G04 Layer_Color=65535*
%ADD10C,0.01102*%
%ADD11R,0.01969X0.01969*%
%ADD12C,0.06811*%
%ADD13R,0.02200X0.02200*%
%ADD14R,0.24016X0.12047*%
%ADD15R,0.04331X0.02559*%
%ADD16R,0.04331X0.02200*%
%ADD17R,0.02362X0.04724*%
%ADD18R,0.01882X0.01024*%
%ADD19R,0.06890X0.05709*%
%ADD20R,0.05709X0.06890*%
%ADD21R,0.20866X0.07874*%
%ADD22R,0.08858X0.08465*%
%ADD23R,0.03200X0.03800*%
%ADD24R,0.06000X0.12000*%
%ADD25R,0.18000X0.10000*%
%ADD26R,0.03800X0.03200*%
%ADD27R,0.02874X0.01181*%
%ADD28R,0.01181X0.02874*%
%ADD29R,0.01181X0.03268*%
%ADD30R,0.03268X0.01181*%
%ADD31R,0.12047X0.24016*%
%ADD32R,0.09685X0.03110*%
%ADD33R,0.13000X0.07874*%
%ADD34R,0.04803X0.02441*%
%ADD35R,0.01870X0.00984*%
%ADD36R,0.00984X0.01870*%
%ADD37R,0.04331X0.04331*%
%ADD38R,0.02559X0.04331*%
%ADD39R,0.02047X0.04331*%
%ADD40R,0.03937X0.01378*%
%ADD41R,0.01378X0.03937*%
%ADD42R,0.02402X0.04902*%
%ADD43R,0.04095X0.07087*%
%ADD44R,0.04331X0.05512*%
%ADD45R,0.02165X0.01181*%
%ADD46R,0.02953X0.01181*%
%ADD47R,0.01181X0.02165*%
%ADD48R,0.01181X0.02953*%
%ADD49R,0.20630X0.20630*%
%ADD50R,0.02079X0.01024*%
%ADD51R,0.01024X0.02079*%
%ADD52R,0.10630X0.10630*%
%ADD53R,0.04134X0.01772*%
%ADD54R,0.11575X0.14094*%
%ADD55R,0.06890X0.06890*%
%ADD56O,0.02362X0.01181*%
%ADD57R,0.10000X0.14000*%
%ADD58R,0.02441X0.04803*%
%ADD59R,0.10236X0.03937*%
%ADD60R,0.03937X0.10236*%
%ADD61R,0.12992X0.12992*%
%ADD62R,0.07874X0.09843*%
%ADD63R,0.07874X0.07874*%
%ADD64R,0.02756X0.02165*%
%ADD65R,0.10433X0.03150*%
%ADD66R,0.02165X0.02165*%
%ADD67R,0.02165X0.02756*%
%ADD68R,0.03150X0.10433*%
%ADD69R,0.02165X0.02165*%
%ADD70R,0.02756X0.01181*%
%ADD71R,0.02200X0.01575*%
%ADD72R,0.01575X0.02200*%
G04:AMPARAMS|DCode=73|XSize=22mil|YSize=15.75mil|CornerRadius=0mil|HoleSize=0mil|Usage=FLASHONLY|Rotation=83.000|XOffset=0mil|YOffset=0mil|HoleType=Round|Shape=Rectangle|*
%AMROTATEDRECTD73*
4,1,4,0.00648,-0.01188,-0.00916,-0.00996,-0.00648,0.01188,0.00916,0.00996,0.00648,-0.01188,0.0*
%
%ADD73ROTATEDRECTD73*%

G04:AMPARAMS|DCode=74|XSize=22mil|YSize=15.75mil|CornerRadius=0mil|HoleSize=0mil|Usage=FLASHONLY|Rotation=97.000|XOffset=0mil|YOffset=0mil|HoleType=Round|Shape=Rectangle|*
%AMROTATEDRECTD74*
4,1,4,0.00916,-0.00996,-0.00648,-0.01188,-0.00916,0.00996,0.00648,0.01188,0.00916,-0.00996,0.0*
%
%ADD74ROTATEDRECTD74*%

%ADD75R,0.01969X0.03543*%
%ADD76R,0.03543X0.01969*%
%ADD77R,0.01969X0.03347*%
%ADD78R,0.03347X0.01969*%
%ADD79R,0.06496X0.06496*%
%ADD80R,0.05906X0.05906*%
%ADD81R,0.05906X0.05906*%
%ADD82R,0.07874X0.31496*%
%ADD83C,0.01400*%
%ADD84C,0.01000*%
%ADD85C,0.07000*%
%ADD86C,0.02400*%
%ADD87C,0.01575*%
%ADD88C,0.01100*%
%ADD89C,0.07874*%
%ADD90C,0.02362*%
%ADD91C,0.09000*%
%ADD92C,0.02000*%
%ADD93C,0.02047*%
%ADD94C,0.01600*%
%ADD95C,0.01969*%
%ADD96C,0.01200*%
%ADD97C,0.05000*%
%ADD98C,0.03500*%
%ADD99C,0.02200*%
%ADD100C,0.00984*%
%ADD101R,0.12835X0.09900*%
%ADD102R,0.11900X0.24400*%
%ADD103R,0.10700X0.08011*%
%ADD104R,0.10800X0.14300*%
%ADD105R,0.14525X0.03200*%
%ADD106R,0.18522X0.03500*%
%ADD107R,0.00433X0.01700*%
%ADD108R,0.10800X0.20947*%
%ADD109R,0.12402X0.23701*%
%ADD110R,0.09900X0.12520*%
%ADD111R,0.13976X0.55984*%
%ADD112R,0.35039X0.34961*%
%ADD113C,0.06299*%
%ADD114R,0.06299X0.06299*%
%ADD115R,0.03937X0.03937*%
%ADD116C,0.03937*%
%ADD117R,0.03937X0.03937*%
%ADD118C,0.01400*%
%ADD119C,0.01200*%
%ADD120C,0.01800*%
%ADD121C,0.02000*%
%ADD122C,0.04000*%
%ADD123C,0.01969*%
%ADD124C,0.02598*%
%ADD125C,0.00787*%
%ADD126C,0.01000*%
%ADD127C,0.02500*%
%ADD128C,0.02362*%
%ADD129C,0.14961*%
%ADD130C,0.03000*%
%ADD131R,0.11900X0.14889*%
%ADD132C,0.06000*%
%ADD133R,0.01200X0.02200*%
%ADD134R,0.09843X0.05906*%
%ADD135R,0.05906X0.09843*%
%ADD136R,0.04921X0.01575*%
%ADD137R,0.04921X0.01575*%
%ADD138R,0.08661X0.05512*%
%ADD139R,0.26772X0.26772*%
%ADD140R,0.01378X0.03150*%
%ADD141R,0.03150X0.01378*%
%ADD142R,0.03543X0.01575*%
%ADD143R,0.01969X0.01969*%
%ADD144R,0.05118X0.03347*%
%ADD145C,0.00900*%
%ADD146C,0.02500*%
%ADD147R,0.01850X0.03340*%
%ADD148R,0.05908X0.03435*%
%ADD149R,0.09900X0.13110*%
%ADD150C,0.00394*%
%ADD151C,0.00827*%
%ADD152C,0.00800*%
%ADD153C,0.00787*%
%ADD154C,0.00315*%
%ADD155C,0.00591*%
%ADD156C,0.00787*%
%ADD157C,0.00394*%
%ADD158C,0.00400*%
%ADD159C,0.01378*%
%ADD160C,0.00600*%
G36*
X228470Y180771D02*
X228830Y180711D01*
X229250Y180621D01*
X229670Y180501D01*
X230120Y180351D01*
X230540Y180111D01*
X230600Y180081D01*
X230720Y179991D01*
X230930Y179841D01*
X231170Y179631D01*
X231439Y179361D01*
X231709Y179061D01*
X231949Y178702D01*
X232159Y178312D01*
X232189Y178252D01*
X232249Y178102D01*
X232309Y177832D01*
X232429Y177442D01*
X232519Y176932D01*
X232549Y176662D01*
X232579Y176332D01*
X232609Y175972D01*
X232639Y175583D01*
X232669Y175163D01*
Y174713D01*
Y166646D01*
X229220D01*
Y173603D01*
Y173633D01*
Y173693D01*
Y173813D01*
Y173993D01*
X229190Y174173D01*
Y174383D01*
X229160Y174893D01*
X229070Y175403D01*
X228980Y175943D01*
X228830Y176392D01*
X228740Y176602D01*
X228620Y176782D01*
X228590Y176812D01*
X228500Y176902D01*
X228380Y177052D01*
X228170Y177202D01*
X227931Y177352D01*
X227601Y177502D01*
X227241Y177592D01*
X226821Y177622D01*
X226671D01*
X226491Y177592D01*
X226281Y177562D01*
X226041Y177502D01*
X225771Y177412D01*
X225471Y177292D01*
X225202Y177112D01*
X225171Y177082D01*
X225081Y177022D01*
X224962Y176902D01*
X224812Y176752D01*
X224632Y176542D01*
X224482Y176302D01*
X224302Y176032D01*
X224152Y175703D01*
Y175673D01*
X224092Y175523D01*
X224062Y175313D01*
X224002Y175013D01*
X223942Y174623D01*
X223882Y174113D01*
X223852Y173543D01*
X223822Y172854D01*
Y166646D01*
X220373D01*
Y173303D01*
Y173333D01*
Y173393D01*
Y173483D01*
Y173603D01*
Y173933D01*
X220343Y174323D01*
X220313Y174773D01*
X220253Y175193D01*
X220163Y175613D01*
X220073Y175972D01*
Y176003D01*
X220013Y176122D01*
X219953Y176272D01*
X219863Y176452D01*
X219593Y176842D01*
X219443Y177052D01*
X219233Y177202D01*
X219203Y177232D01*
X219144Y177262D01*
X219024Y177322D01*
X218874Y177412D01*
X218664Y177502D01*
X218454Y177562D01*
X218184Y177592D01*
X217914Y177622D01*
X217764D01*
X217614Y177592D01*
X217404Y177562D01*
X217134Y177502D01*
X216864Y177382D01*
X216594Y177262D01*
X216324Y177082D01*
X216295Y177052D01*
X216205Y176992D01*
X216085Y176872D01*
X215935Y176722D01*
X215755Y176512D01*
X215605Y176272D01*
X215425Y175972D01*
X215275Y175643D01*
Y175613D01*
X215215Y175463D01*
X215185Y175253D01*
X215125Y174953D01*
X215065Y174533D01*
X215005Y174053D01*
X214975Y173453D01*
X214945Y172764D01*
Y166646D01*
X211496D01*
Y180441D01*
X214945D01*
Y178822D01*
X214975Y178852D01*
X215095Y178972D01*
X215275Y179151D01*
X215515Y179391D01*
X215815Y179601D01*
X216144Y179871D01*
X216504Y180081D01*
X216894Y180291D01*
X216954Y180321D01*
X217074Y180381D01*
X217314Y180441D01*
X217614Y180561D01*
X217974Y180651D01*
X218364Y180711D01*
X218814Y180771D01*
X219293Y180801D01*
X219503D01*
X219743Y180771D01*
X220073Y180711D01*
X220433Y180651D01*
X220823Y180531D01*
X221213Y180351D01*
X221603Y180141D01*
X221663Y180111D01*
X221783Y180021D01*
X221963Y179871D01*
X222202Y179661D01*
X222472Y179421D01*
X222772Y179092D01*
X223042Y178702D01*
X223312Y178282D01*
X223342Y178342D01*
X223462Y178492D01*
X223642Y178702D01*
X223882Y178972D01*
X224152Y179271D01*
X224512Y179571D01*
X224902Y179871D01*
X225322Y180141D01*
X225381Y180171D01*
X225531Y180231D01*
X225771Y180351D01*
X226101Y180471D01*
X226491Y180591D01*
X226941Y180711D01*
X227421Y180771D01*
X227961Y180801D01*
X228201D01*
X228470Y180771D01*
D02*
G37*
G36*
X202706D02*
X203006Y180741D01*
X203365Y180681D01*
X203755Y180591D01*
X204145Y180471D01*
X204565Y180321D01*
X204625Y180291D01*
X204745Y180231D01*
X204955Y180111D01*
X205255Y179961D01*
X205555Y179781D01*
X205915Y179511D01*
X206275Y179242D01*
X206634Y178912D01*
Y180441D01*
X210083D01*
Y166646D01*
X206634D01*
Y168085D01*
X206604Y168055D01*
X206454Y167935D01*
X206244Y167755D01*
X206005Y167545D01*
X205675Y167335D01*
X205345Y167095D01*
X204955Y166886D01*
X204565Y166706D01*
X204505Y166676D01*
X204385Y166646D01*
X204175Y166586D01*
X203905Y166496D01*
X203575Y166406D01*
X203186Y166346D01*
X202796Y166316D01*
X202346Y166286D01*
X202076D01*
X201896Y166316D01*
X201656Y166346D01*
X201386Y166406D01*
X201086Y166466D01*
X200756Y166556D01*
X200396Y166646D01*
X200037Y166796D01*
X199647Y166946D01*
X199257Y167156D01*
X198837Y167395D01*
X198447Y167665D01*
X198057Y167995D01*
X197697Y168355D01*
X197667Y168385D01*
X197607Y168445D01*
X197518Y168565D01*
X197397Y168715D01*
X197248Y168925D01*
X197068Y169165D01*
X196918Y169465D01*
X196738Y169765D01*
X196528Y170124D01*
X196378Y170514D01*
X196198Y170934D01*
X196048Y171414D01*
X195928Y171894D01*
X195838Y172404D01*
X195778Y172944D01*
X195748Y173513D01*
Y173543D01*
Y173663D01*
Y173813D01*
X195778Y174053D01*
X195808Y174323D01*
X195838Y174623D01*
X195898Y174983D01*
X195988Y175373D01*
X196198Y176182D01*
X196378Y176632D01*
X196558Y177052D01*
X196768Y177502D01*
X197008Y177922D01*
X197308Y178342D01*
X197637Y178732D01*
X197667Y178762D01*
X197727Y178822D01*
X197817Y178912D01*
X197967Y179061D01*
X198147Y179211D01*
X198387Y179391D01*
X198627Y179571D01*
X198927Y179781D01*
X199257Y179961D01*
X199587Y180141D01*
X200396Y180471D01*
X200816Y180621D01*
X201266Y180711D01*
X201746Y180771D01*
X202256Y180801D01*
X202466D01*
X202706Y180771D01*
D02*
G37*
%LPC*%
G36*
X202946Y177622D02*
X202796D01*
X202676Y177592D01*
X202376Y177562D01*
X202016Y177472D01*
X201566Y177352D01*
X201116Y177142D01*
X200666Y176872D01*
X200247Y176482D01*
X200217Y176422D01*
X200097Y176272D01*
X199917Y176032D01*
X199737Y175703D01*
X199527Y175253D01*
X199377Y174773D01*
X199257Y174173D01*
X199197Y173543D01*
Y173513D01*
Y173453D01*
Y173363D01*
X199227Y173243D01*
X199257Y172914D01*
X199347Y172524D01*
X199467Y172044D01*
X199647Y171564D01*
X199917Y171054D01*
X200276Y170604D01*
X200337Y170544D01*
X200457Y170424D01*
X200696Y170245D01*
X201026Y170035D01*
X201416Y169825D01*
X201866Y169645D01*
X202376Y169525D01*
X202946Y169465D01*
X203096D01*
X203216Y169495D01*
X203516Y169525D01*
X203905Y169615D01*
X204325Y169735D01*
X204805Y169945D01*
X205255Y170214D01*
X205675Y170574D01*
X205735Y170634D01*
X205855Y170784D01*
X206035Y171024D01*
X206244Y171384D01*
X206424Y171804D01*
X206604Y172314D01*
X206724Y172914D01*
X206784Y173573D01*
Y173603D01*
Y173663D01*
Y173753D01*
X206754Y173873D01*
X206724Y174203D01*
X206634Y174623D01*
X206514Y175073D01*
X206305Y175553D01*
X206035Y176032D01*
X205675Y176482D01*
X205615Y176542D01*
X205495Y176662D01*
X205255Y176842D01*
X204925Y177052D01*
X204535Y177262D01*
X204055Y177442D01*
X203545Y177562D01*
X202946Y177622D01*
D02*
G37*
%LPD*%
D84*
X247184Y134177D02*
G03*
X247184Y134177I-100J0D01*
G01*
X193347Y91732D02*
X195276Y89803D01*
X192362Y91732D02*
X193347D01*
X115354Y26378D02*
Y28780D01*
X113189Y30945D02*
X115354Y28780D01*
X106220Y30945D02*
X113189D01*
X182205Y98701D02*
X190669D01*
D100*
X185158Y116378D02*
G03*
X185158Y116378I-492J0D01*
G01*
X177610Y167669D02*
G03*
X177610Y167655I492J-15D01*
G01*
X198954Y63689D02*
G03*
X198954Y63704I-492J15D01*
G01*
X221780Y63141D02*
G03*
X221780Y63141I-492J0D01*
G01*
X118508Y90265D02*
G03*
X118508Y90265I-492J0D01*
G01*
X204222Y117361D02*
G03*
X204222Y117361I-492J0D01*
G01*
X132272Y20590D02*
G03*
X132272Y20590I-492J0D01*
G01*
X279408Y34440D02*
G03*
X279408Y34440I-492J0D01*
G01*
X350232Y161760D02*
G03*
X350232Y161760I-308J0D01*
G01*
X294803Y66654D02*
G03*
X294803Y66654I-492J0D01*
G01*
X188063Y55840D02*
G03*
X188078Y55839I15J492D01*
G01*
X216416Y18488D02*
G03*
X216416Y18473I492J-15D01*
G01*
D150*
X135767Y156740D02*
G03*
X135767Y156740I-394J0D01*
G01*
X141056Y114004D02*
G03*
X141056Y114004I-394J0D01*
G01*
X152160Y104321D02*
G03*
X152160Y104321I-394J0D01*
G01*
X161776Y78217D02*
G03*
X161776Y78217I-394J0D01*
G01*
X59368Y59224D02*
G03*
X59368Y59224I-394J0D01*
G01*
Y33681D02*
G03*
X59368Y33681I-394J0D01*
G01*
X52987Y147109D02*
G03*
X52987Y147109I-394J0D01*
G01*
X133508Y19773D02*
Y21073D01*
Y19773D02*
X134866D01*
X148216Y19765D02*
X149516D01*
Y21123D01*
X133516Y35781D02*
X134816D01*
X133516Y34423D02*
Y35781D01*
X149524Y34473D02*
Y35773D01*
X148166D02*
X149524D01*
X296666Y33848D02*
X298024D01*
Y33548D02*
Y33848D01*
X280208Y33548D02*
Y33848D01*
X281566D01*
X298024Y12748D02*
Y13048D01*
X296666Y12748D02*
X298024D01*
X280208D02*
Y13048D01*
Y12748D02*
X281566D01*
X121063Y39764D02*
Y41732D01*
X122047D01*
X122375Y41404D01*
Y40748D01*
X122047Y40420D01*
X121063D01*
X121719D02*
X122375Y39764D01*
X124015D02*
Y41732D01*
X123031Y40748D01*
X124343D01*
X124999Y41404D02*
X125327Y41732D01*
X125983D01*
X126311Y41404D01*
Y40092D01*
X125983Y39764D01*
X125327D01*
X124999Y40092D01*
Y41404D01*
D151*
X233937Y176488D02*
D03*
Y175307D02*
D03*
Y174126D02*
D03*
Y170583D02*
D03*
Y171764D02*
D03*
Y172945D02*
D03*
Y168220D02*
D03*
Y169402D02*
D03*
Y177669D02*
D03*
Y178850D02*
D03*
Y180032D02*
D03*
X235118D02*
D03*
Y178850D02*
D03*
Y177669D02*
D03*
Y169402D02*
D03*
Y168220D02*
D03*
Y167039D02*
D03*
Y172945D02*
D03*
Y171764D02*
D03*
Y170583D02*
D03*
Y174126D02*
D03*
Y175307D02*
D03*
Y176488D02*
D03*
X236299Y180032D02*
D03*
Y178850D02*
D03*
Y177669D02*
D03*
Y169402D02*
D03*
Y168220D02*
D03*
Y167039D02*
D03*
Y172945D02*
D03*
Y171764D02*
D03*
Y170583D02*
D03*
Y174126D02*
D03*
Y175307D02*
D03*
Y176488D02*
D03*
X237480Y169402D02*
D03*
Y168220D02*
D03*
Y167039D02*
D03*
X238661Y169402D02*
D03*
Y168220D02*
D03*
Y167039D02*
D03*
X239843Y180032D02*
D03*
Y178850D02*
D03*
Y177669D02*
D03*
Y169402D02*
D03*
Y168220D02*
D03*
Y167039D02*
D03*
Y172945D02*
D03*
Y171764D02*
D03*
Y170583D02*
D03*
Y174126D02*
D03*
Y175307D02*
D03*
Y176488D02*
D03*
X241024Y180032D02*
D03*
Y178850D02*
D03*
Y177669D02*
D03*
Y169402D02*
D03*
Y168220D02*
D03*
Y167039D02*
D03*
Y172945D02*
D03*
Y171764D02*
D03*
Y170583D02*
D03*
Y174126D02*
D03*
Y175307D02*
D03*
Y176488D02*
D03*
X242205Y180032D02*
D03*
Y178850D02*
D03*
Y177669D02*
D03*
Y169402D02*
D03*
Y168220D02*
D03*
Y172945D02*
D03*
Y171764D02*
D03*
Y170583D02*
D03*
Y174126D02*
D03*
Y175307D02*
D03*
Y176488D02*
D03*
X243386Y180032D02*
D03*
Y178850D02*
D03*
Y177669D02*
D03*
X244567Y180032D02*
D03*
Y178850D02*
D03*
Y177669D02*
D03*
X245748Y180032D02*
D03*
Y178850D02*
D03*
Y177669D02*
D03*
Y169402D02*
D03*
Y168220D02*
D03*
Y167039D02*
D03*
Y172945D02*
D03*
Y171764D02*
D03*
Y170583D02*
D03*
Y174126D02*
D03*
Y175307D02*
D03*
Y176488D02*
D03*
X246929Y180032D02*
D03*
Y178850D02*
D03*
Y177669D02*
D03*
Y169402D02*
D03*
Y168220D02*
D03*
Y167039D02*
D03*
Y172945D02*
D03*
Y171764D02*
D03*
Y170583D02*
D03*
Y174126D02*
D03*
Y175307D02*
D03*
Y176488D02*
D03*
X248110Y180032D02*
D03*
Y178850D02*
D03*
Y177669D02*
D03*
Y169402D02*
D03*
Y168220D02*
D03*
Y167039D02*
D03*
Y172945D02*
D03*
Y171764D02*
D03*
Y170583D02*
D03*
Y174126D02*
D03*
Y175307D02*
D03*
Y176488D02*
D03*
D152*
X270154Y24779D02*
X274878D01*
Y16117D02*
Y24779D01*
X270154Y16117D02*
X274878D01*
X270154D02*
Y24779D01*
X342654Y122402D02*
Y159802D01*
Y122402D02*
X368054D01*
Y159802D01*
X342654D02*
X368054D01*
X314022Y7861D02*
Y17861D01*
X374022Y7861D02*
Y17861D01*
X314022D02*
X374022D01*
X314022Y7861D02*
X374022D01*
X105172Y49011D02*
Y51511D01*
X103922Y50261D02*
X106422D01*
X103922D02*
X106422D01*
X103922D02*
X106422D01*
X116122Y43661D02*
X126722D01*
Y56861D01*
X114722D02*
X126722D01*
X108922Y43661D02*
X117122D01*
X107522Y45061D02*
X108922Y43661D01*
X107522Y45061D02*
Y55661D01*
X108722Y56861D01*
X114922D01*
X103922Y50261D02*
X106422D01*
X104072Y63661D02*
Y64861D01*
X82522Y70961D02*
X93122D01*
X82522Y57761D02*
Y70961D01*
Y57761D02*
X94522D01*
X92122Y70961D02*
X100322D01*
X101722Y69561D01*
Y58961D02*
Y69561D01*
X100522Y57761D02*
X101722Y58961D01*
X94322Y57761D02*
X100522D01*
X103422Y64361D02*
X104822D01*
X94622Y29061D02*
X105222D01*
X94622Y15861D02*
Y29061D01*
Y15861D02*
X106622D01*
X104222Y29061D02*
X112422D01*
X113822Y27661D01*
Y17061D02*
Y27661D01*
X112622Y15861D02*
X113822Y17061D01*
X106422Y15861D02*
X112622D01*
X115422Y21761D02*
X116922D01*
X116172Y21211D02*
Y22361D01*
X250272Y18911D02*
X252772D01*
X251522Y17661D02*
Y20161D01*
Y17661D02*
Y20161D01*
X241522Y22661D02*
Y40661D01*
Y22661D02*
X243522Y20661D01*
X259522D01*
X261522Y22661D01*
Y35661D01*
X241522Y40661D02*
Y59661D01*
X261522D01*
Y35661D02*
Y59661D01*
X307172Y35011D02*
Y41310D01*
X295672Y35011D02*
X307172D01*
X295672D02*
Y41310D01*
X307172D01*
X332009Y56828D02*
Y82228D01*
X369409D01*
Y56828D02*
Y82228D01*
X332009Y56828D02*
X369409D01*
X292722Y191161D02*
X322722D01*
Y181161D02*
Y191161D01*
X292722Y181161D02*
X322722D01*
X292722D02*
Y191161D01*
X270154Y16179D02*
X274878D01*
Y7518D02*
Y16179D01*
X270154Y7518D02*
X274878D01*
X270154D02*
Y16179D01*
X281505Y113381D02*
X295405D01*
X279955Y114931D02*
X281505Y113381D01*
X279955Y114931D02*
Y127431D01*
X281505Y128981D01*
X295205D01*
X313205D01*
Y113381D02*
Y128981D01*
X295405Y113381D02*
X313205D01*
X276205Y121181D02*
X278705D01*
X277455Y119931D02*
Y122431D01*
X184500Y118600D02*
Y124200D01*
X194700Y118600D02*
Y124200D01*
X184500Y118600D02*
X194700D01*
X184500Y124200D02*
X194700D01*
X356322Y183661D02*
Y189261D01*
X346122Y183661D02*
Y189261D01*
X356322D01*
X346122Y183661D02*
X356322D01*
X271378Y181142D02*
X291378D01*
X271378Y191142D02*
X291378D01*
X271378Y181142D02*
Y191142D01*
X291378Y181142D02*
Y191142D01*
X247900Y84600D02*
X258100D01*
X247900Y90200D02*
X258100D01*
X247900Y84600D02*
Y90200D01*
X258100Y84600D02*
Y90200D01*
X247900Y93200D02*
X258100D01*
X247900Y98800D02*
X258100D01*
X247900Y93200D02*
Y98800D01*
X258100Y93200D02*
Y98800D01*
X169211Y72485D02*
X179411D01*
X169211Y66885D02*
X179411D01*
Y72485D01*
X169211Y66885D02*
Y72485D01*
X140700Y178100D02*
X150900D01*
X140700Y172500D02*
X150900D01*
Y178100D01*
X140700Y172500D02*
Y178100D01*
X62046Y162712D02*
X72246D01*
X62046Y168312D02*
X72246D01*
X62046Y162712D02*
Y168312D01*
X72246Y162712D02*
Y168312D01*
X191200Y79820D02*
Y90020D01*
X185600Y79820D02*
Y90020D01*
Y79820D02*
X191200D01*
X185600Y90020D02*
X191200D01*
X81522Y22961D02*
X91722D01*
X81522Y17361D02*
X91722D01*
Y22961D01*
X81522Y17361D02*
Y22961D01*
X270716Y70061D02*
X276316D01*
X270716Y44961D02*
X276316D01*
X270716D02*
Y70061D01*
X276316Y44961D02*
Y70061D01*
X270783Y143091D02*
X276383D01*
X270783Y117991D02*
X276383D01*
X270783D02*
Y143091D01*
X276383Y117991D02*
Y143091D01*
X270665Y170091D02*
X276265D01*
X270665Y144991D02*
X276265D01*
X270665D02*
Y170091D01*
X276265Y144991D02*
Y170091D01*
X198593Y94511D02*
Y100849D01*
X195207D02*
X198593D01*
X195207Y94511D02*
Y100849D01*
Y94511D02*
X198593D01*
X193952Y35807D02*
X200291D01*
Y39193D01*
X193952D02*
X200291D01*
X193952Y35807D02*
Y39193D01*
Y30393D02*
X200291D01*
X193952Y27007D02*
Y30393D01*
Y27007D02*
X200291D01*
Y30393D01*
X190147Y18730D02*
X196485D01*
Y22116D01*
X190147D02*
X196485D01*
X190147Y18730D02*
Y22116D01*
X219231Y23839D02*
X225569D01*
Y27225D01*
X219231D02*
X225569D01*
X219231Y23839D02*
Y27225D01*
X115729Y35791D02*
Y42130D01*
Y35791D02*
X119115D01*
Y42130D01*
X115729D02*
X119115D01*
X124131Y19043D02*
X130469D01*
X124131Y15657D02*
Y19043D01*
Y15657D02*
X130469D01*
Y19043D01*
X131931Y15107D02*
X138269D01*
Y18493D01*
X131931D02*
X138269D01*
X131931Y15107D02*
Y18493D01*
X128129Y35791D02*
Y42130D01*
Y35791D02*
X131515D01*
Y42130D01*
X128129D02*
X131515D01*
X119423Y63104D02*
Y69442D01*
Y63104D02*
X122809D01*
Y69442D01*
X119423D02*
X122809D01*
X143353Y11468D02*
X149691D01*
Y14854D01*
X143353D02*
X149691D01*
X143353Y11468D02*
Y14854D01*
X140347Y39868D02*
X146685D01*
Y43254D01*
X140347D02*
X146685D01*
X140347Y39868D02*
Y43254D01*
Y44593D02*
X146685D01*
Y47979D01*
X140347D02*
X146685D01*
X140347Y44593D02*
Y47979D01*
Y49293D02*
X146685D01*
Y52679D01*
X140347D02*
X146685D01*
X140347Y49293D02*
Y52679D01*
Y63080D02*
X146685D01*
Y66466D01*
X140347D02*
X146685D01*
X140347Y63080D02*
Y66466D01*
Y67680D02*
X146685D01*
Y71066D01*
X140347D02*
X146685D01*
X140347Y67680D02*
Y71066D01*
X155147Y18722D02*
X161485D01*
Y22108D01*
X155147D02*
X161485D01*
X155147Y18722D02*
Y22108D01*
X193647Y56221D02*
Y62560D01*
X190262D02*
X193647D01*
X190262Y56221D02*
Y62560D01*
Y56221D02*
X193647D01*
X202931Y67693D02*
X209269D01*
X202931Y64307D02*
Y67693D01*
Y64307D02*
X209269D01*
Y67693D01*
X178193Y74481D02*
Y80819D01*
X174807D02*
X178193D01*
X174807Y74481D02*
Y80819D01*
Y74481D02*
X178193D01*
X131453Y117568D02*
X137791D01*
Y120954D01*
X131453D02*
X137791D01*
X131453Y117568D02*
Y120954D01*
X77801Y55353D02*
Y61691D01*
X74415D02*
X77801D01*
X74415Y55353D02*
Y61691D01*
Y55353D02*
X77801D01*
X77780Y29933D02*
Y36272D01*
X74394D02*
X77780D01*
X74394Y29933D02*
Y36272D01*
Y29933D02*
X77780D01*
X250415Y136484D02*
X256753D01*
Y139870D01*
X250415D02*
X256753D01*
X250415Y136484D02*
Y139870D01*
X246731Y101357D02*
X253069D01*
Y104743D01*
X246731D02*
X253069D01*
X246731Y101357D02*
Y104743D01*
X180609Y61046D02*
X186947D01*
Y64432D01*
X180609D02*
X186947D01*
X180609Y61046D02*
Y64432D01*
X232925Y75804D02*
Y82143D01*
X229539D02*
X232925D01*
X229539Y75804D02*
Y82143D01*
Y75804D02*
X232925D01*
X221509Y76791D02*
Y83130D01*
X218123D02*
X221509D01*
X218123Y76791D02*
Y83130D01*
Y76791D02*
X221509D01*
X229593Y75804D02*
Y82143D01*
X226207D02*
X229593D01*
X226207Y75804D02*
Y82143D01*
Y75804D02*
X229593D01*
X237207Y76831D02*
Y83169D01*
Y76831D02*
X240593D01*
Y83169D01*
X237207D02*
X240593D01*
X232323Y125004D02*
Y131342D01*
Y125004D02*
X235709D01*
Y131342D01*
X232323D02*
X235709D01*
X227623Y126404D02*
Y132743D01*
Y126404D02*
X231009D01*
Y132743D01*
X227623D02*
X231009D01*
X222923Y125004D02*
Y131342D01*
Y125004D02*
X226309D01*
Y131342D01*
X222923D02*
X226309D01*
X209831Y89193D02*
X216169D01*
X209831Y85807D02*
Y89193D01*
Y85807D02*
X216169D01*
Y89193D01*
X209853Y83554D02*
X216191D01*
X209853Y80168D02*
Y83554D01*
Y80168D02*
X216191D01*
Y83554D01*
X208509Y81204D02*
Y87542D01*
X205123D02*
X208509D01*
X205123Y81204D02*
Y87542D01*
Y81204D02*
X208509D01*
X218223Y125004D02*
Y131342D01*
Y125004D02*
X221609D01*
Y131342D01*
X218223D02*
X221609D01*
X213523Y125004D02*
Y131342D01*
Y125004D02*
X216909D01*
Y131342D01*
X213523D02*
X216909D01*
X196581Y124607D02*
X202919D01*
Y127993D01*
X196581D02*
X202919D01*
X196581Y124607D02*
Y127993D01*
X200431Y135780D02*
X206769D01*
Y139166D01*
X200431D02*
X206769D01*
X200431Y135780D02*
Y139166D01*
X204747Y127012D02*
X211085D01*
Y130398D01*
X204747D02*
X211085D01*
X204747Y127012D02*
Y130398D01*
X195747Y119680D02*
X202085D01*
Y123066D01*
X195747D02*
X202085D01*
X195747Y119680D02*
Y123066D01*
X195731Y115407D02*
X202069D01*
Y118793D01*
X195731D02*
X202069D01*
X195731Y115407D02*
Y118793D01*
X194873Y94511D02*
Y100849D01*
X191487D02*
X194873D01*
X191487Y94511D02*
Y100849D01*
Y94511D02*
X194873D01*
X283032Y58642D02*
Y64980D01*
X279646D02*
X283032D01*
X279646Y58642D02*
Y64980D01*
Y58642D02*
X283032D01*
X331299Y59390D02*
Y65728D01*
X327913D02*
X331299D01*
X327913Y59390D02*
Y65728D01*
Y59390D02*
X331299D01*
X147131Y164493D02*
X153469D01*
X147131Y161107D02*
Y164493D01*
Y161107D02*
X153469D01*
Y164493D01*
X143031Y164807D02*
X149369D01*
Y168193D01*
X143031D02*
X149369D01*
X143031Y164807D02*
Y168193D01*
X128014Y153793D02*
X134353D01*
Y150407D02*
Y153793D01*
X151919D02*
X158258D01*
X151919Y150407D02*
Y153793D01*
Y150407D02*
X158258D01*
Y153793D01*
X193952Y31407D02*
X200291D01*
Y34793D01*
X193952D02*
X200291D01*
X193952Y31407D02*
Y34793D01*
X143209Y72904D02*
Y79242D01*
X139823D02*
X143209D01*
X139823Y72904D02*
Y79242D01*
Y72904D02*
X143209D01*
X166447Y22108D02*
X172785D01*
X166447Y18722D02*
Y22108D01*
Y18722D02*
X172785D01*
Y22108D01*
X329223Y165304D02*
Y171642D01*
Y165304D02*
X332609D01*
Y171642D01*
X329223D02*
X332609D01*
X332747Y178966D02*
X339085D01*
X332747Y175580D02*
Y178966D01*
Y175580D02*
X339085D01*
Y178966D01*
X342247Y175580D02*
X348585D01*
Y178966D01*
X342247D02*
X348585D01*
X342247Y175580D02*
Y178966D01*
X182917Y168785D02*
Y175124D01*
Y168785D02*
X186302D01*
Y175124D01*
X182917D02*
X186302D01*
X164102Y168785D02*
Y175124D01*
X160717D02*
X164102D01*
X160717Y168785D02*
Y175124D01*
Y168785D02*
X164102D01*
X167290Y162062D02*
X173629D01*
Y165447D01*
X167290D02*
X173629D01*
X167290Y162062D02*
Y165447D01*
X127385Y146834D02*
Y153173D01*
Y146834D02*
X130771D01*
X180754Y131464D02*
Y137803D01*
X177368D02*
X180754D01*
X197061Y112933D02*
X203352Y112160D01*
X196648Y109572D02*
X197061Y112933D01*
X196648Y109572D02*
X202939Y108800D01*
X203352Y112160D01*
X46629Y149591D02*
Y155930D01*
Y149591D02*
X50015D01*
Y155930D01*
X46629D02*
X50015D01*
X51015Y140191D02*
Y146530D01*
X47629D02*
X51015D01*
X47629Y140191D02*
Y146530D01*
Y140191D02*
X51015D01*
X143901Y100368D02*
X150239D01*
Y103754D01*
X143901D02*
X150239D01*
X143901Y100368D02*
Y103754D01*
X180909Y42532D02*
X187247D01*
X180909Y39146D02*
Y42532D01*
Y39146D02*
X187247D01*
Y42532D01*
X193471Y45870D02*
Y52209D01*
X190085D02*
X193471D01*
X190085Y45870D02*
Y52209D01*
Y45870D02*
X193471D01*
X174043Y74481D02*
Y80819D01*
X170657D02*
X174043D01*
X170657Y74481D02*
Y80819D01*
Y74481D02*
X174043D01*
X196648Y106648D02*
X202939Y107421D01*
X196648Y106648D02*
X197061Y103288D01*
X203352Y104060D01*
X202939Y107421D02*
X203352Y104060D01*
X144853Y120954D02*
X151191D01*
X144853Y117568D02*
Y120954D01*
Y117568D02*
X151191D01*
Y120954D01*
X54891Y159282D02*
Y165620D01*
Y159282D02*
X58277D01*
Y165620D01*
X54891D02*
X58277D01*
X54906Y138399D02*
Y144738D01*
Y138399D02*
X58291D01*
Y144738D01*
X54906D02*
X58291D01*
Y31220D02*
Y37558D01*
X54906D02*
X58291D01*
X54906Y31220D02*
Y37558D01*
Y31220D02*
X58291D01*
X55429Y75604D02*
X61768D01*
X55429Y72219D02*
Y75604D01*
Y72219D02*
X61768D01*
Y75604D01*
X55429Y49892D02*
X61768D01*
X55429Y46506D02*
Y49892D01*
Y46506D02*
X61768D01*
Y49892D01*
X73101Y55353D02*
Y61691D01*
X69715D02*
X73101D01*
X69715Y55353D02*
Y61691D01*
Y55353D02*
X73101D01*
X73080Y29933D02*
Y36272D01*
X69694D02*
X73080D01*
X69694Y29933D02*
Y36272D01*
Y29933D02*
X73080D01*
X195053Y76454D02*
X201411D01*
X195053Y73068D02*
Y76454D01*
Y73068D02*
X201411D01*
Y76454D01*
X197523Y19294D02*
Y25652D01*
Y19294D02*
X200909D01*
Y25652D01*
X197523D02*
X200909D01*
X139823Y55104D02*
Y61462D01*
Y55104D02*
X143209D01*
Y61462D01*
X139823D02*
X143209D01*
X165693Y19221D02*
Y25579D01*
X162307D02*
X165693D01*
X162307Y19221D02*
Y25579D01*
Y19221D02*
X165693D01*
X131329Y96791D02*
Y103150D01*
Y96791D02*
X134715D01*
Y103150D01*
X131329D02*
X134715D01*
X162933Y94468D02*
X169291D01*
Y97854D01*
X162933D02*
X169291D01*
X162933Y94468D02*
Y97854D01*
X58291Y51865D02*
Y58223D01*
X54906D02*
X58291D01*
X54906Y51865D02*
Y58223D01*
Y51865D02*
X58291D01*
X231251Y49204D02*
Y55563D01*
X227865D02*
X231251D01*
X227865Y49204D02*
Y55563D01*
Y49204D02*
X231251D01*
X228385Y59830D02*
X234743D01*
X228385Y56444D02*
Y59830D01*
Y56444D02*
X234743D01*
Y59830D01*
X224361Y45054D02*
X230720D01*
Y48440D01*
X224361D02*
X230720D01*
X224361Y45054D02*
Y48440D01*
X115881Y25543D02*
X122239D01*
X115881Y22157D02*
Y25543D01*
Y22157D02*
X122239D01*
Y25543D01*
X119953Y38554D02*
X126311D01*
X119953Y35168D02*
Y38554D01*
Y35168D02*
X126311D01*
Y38554D01*
X112531Y15643D02*
X118889D01*
X112531Y12257D02*
Y15643D01*
Y12257D02*
X118889D01*
Y15643D01*
X152461Y103740D02*
X158819D01*
X152461Y100354D02*
Y103740D01*
Y100354D02*
X158819D01*
Y103740D01*
X212309Y132184D02*
Y138542D01*
X208923D02*
X212309D01*
X208923Y132184D02*
Y138542D01*
Y132184D02*
X212309D01*
X180889Y34446D02*
X187247D01*
Y37832D01*
X180889D02*
X187247D01*
X180889Y34446D02*
Y37832D01*
X327909Y165284D02*
Y171642D01*
X324523D02*
X327909D01*
X324523Y165284D02*
Y171642D01*
Y165284D02*
X327909D01*
X155917Y168785D02*
Y175144D01*
Y168785D02*
X159302D01*
Y175144D01*
X155917D02*
X159302D01*
X211811Y52307D02*
X218169D01*
Y55693D01*
X211811D02*
X218169D01*
X211811Y52307D02*
Y55693D01*
X162933Y90307D02*
X169291D01*
Y93693D01*
X162933D02*
X169291D01*
X162933Y90307D02*
Y93693D01*
X115831Y21243D02*
X122189D01*
X115831Y17857D02*
Y21243D01*
Y17857D02*
X122189D01*
Y21243D01*
X212462Y56321D02*
Y62660D01*
Y56321D02*
X215847D01*
Y62660D01*
X212462D02*
X215847D01*
X195747Y90680D02*
X202085D01*
Y94066D01*
X195747D02*
X202085D01*
X195747Y90680D02*
Y94066D01*
X257471Y143100D02*
Y149459D01*
X254085D02*
X257471D01*
X254085Y143100D02*
Y149459D01*
Y143100D02*
X257471D01*
X323933Y175568D02*
X330291D01*
Y178954D01*
X323933D02*
X330291D01*
X323933Y175568D02*
Y178954D01*
X147433Y168168D02*
X153791D01*
Y171554D01*
X147433D02*
X153791D01*
X147433Y168168D02*
Y171554D01*
X190029Y69791D02*
Y76150D01*
Y69791D02*
X193415D01*
Y76150D01*
X190029D02*
X193415D01*
X190809Y43232D02*
X197167D01*
X190809Y39846D02*
Y43232D01*
Y39846D02*
X197167D01*
Y43232D01*
X180149Y130817D02*
Y134203D01*
X173811D02*
X180149D01*
X124547Y22180D02*
X130885D01*
Y25566D01*
X124547D02*
X130885D01*
X124547Y22180D02*
Y25566D01*
X125929Y27391D02*
Y33730D01*
Y27391D02*
X129315D01*
Y33730D01*
X125929D02*
X129315D01*
D153*
X185354Y114803D02*
Y114902D01*
Y114803D02*
X188012D01*
X189784D02*
X192441D01*
Y114902D01*
Y101319D02*
Y101417D01*
X189784D02*
X192441D01*
X185354D02*
X188012D01*
X185354Y101319D02*
Y101417D01*
X236249Y63830D02*
X236347D01*
X236249D02*
Y66487D01*
Y68259D02*
Y70916D01*
X236347D01*
X222764D02*
X222863D01*
Y68259D02*
Y70916D01*
Y63830D02*
Y66487D01*
X222764Y63830D02*
X222863D01*
X108984Y88029D02*
X109082D01*
Y87537D02*
Y88029D01*
Y82517D02*
Y83009D01*
X108984Y82517D02*
X109082D01*
X117350D02*
X117448D01*
X117350D02*
Y83009D01*
Y87537D02*
Y88029D01*
X117448D01*
X204755Y91000D02*
X205543D01*
Y90213D02*
Y91000D01*
X204755Y119346D02*
X205543D01*
Y120134D01*
X233889Y119346D02*
Y120134D01*
Y119346D02*
X234677D01*
X233889Y91000D02*
X234677D01*
X233889Y90213D02*
Y91000D01*
X334316Y174560D02*
X348095D01*
X334316Y161560D02*
X348095D01*
X326614Y57717D02*
Y67716D01*
X299114Y80216D02*
X314220D01*
X299114Y45217D02*
X314114D01*
X286614Y57717D02*
Y67716D01*
X357756Y89095D02*
Y112677D01*
X393386Y89095D02*
Y112677D01*
X357756Y89095D02*
X393386D01*
X357756Y112677D02*
X393386D01*
X211916Y27673D02*
X215016D01*
Y26943D02*
Y27673D01*
X208816D02*
X211916D01*
X208816Y26943D02*
Y27673D01*
X211916Y18273D02*
X215016D01*
Y19004D01*
X208816Y18273D02*
Y19004D01*
Y18273D02*
X211916D01*
X26777Y65117D02*
X34061D01*
X26777Y69645D02*
X34061D01*
X26777Y65117D02*
Y69645D01*
Y127197D02*
X34061D01*
X26777Y131725D02*
X34061D01*
X26777Y127197D02*
Y131725D01*
X299698Y95076D02*
Y102359D01*
X304226Y95076D02*
Y102359D01*
X299698D02*
X304226D01*
X288478Y94287D02*
Y101570D01*
X283950Y94287D02*
Y101570D01*
Y94287D02*
X288478D01*
X272730D02*
Y101570D01*
X268202Y94287D02*
Y101570D01*
Y94287D02*
X272730D01*
X315446Y95271D02*
Y102554D01*
X319974Y95271D02*
Y102554D01*
X315446D02*
X319974D01*
X19068Y44916D02*
X18018D01*
X18543D01*
Y42292D01*
X18018Y41768D01*
X17493D01*
X16969Y42292D01*
X20117Y41768D02*
X21167D01*
X20642D01*
Y44916D01*
X20117Y44392D01*
X24315Y41768D02*
Y44916D01*
X22741Y43342D01*
X24840D01*
X20367Y155507D02*
X19317D01*
X19842D01*
Y152883D01*
X19317Y152358D01*
X18792D01*
X18268Y152883D01*
X21416Y155507D02*
X23515D01*
Y154982D01*
X21416Y152883D01*
Y152358D01*
X155549Y16184D02*
X155024Y16709D01*
X153975D01*
X153450Y16184D01*
Y14085D01*
X153975Y13560D01*
X155024D01*
X155549Y14085D01*
X156599Y16184D02*
X157123Y16709D01*
X158173D01*
X158698Y16184D01*
Y15659D01*
X158173Y15134D01*
X158698Y14609D01*
Y14085D01*
X158173Y13560D01*
X157123D01*
X156599Y14085D01*
Y14609D01*
X157123Y15134D01*
X156599Y15659D01*
Y16184D01*
X157123Y15134D02*
X158173D01*
X161321Y13560D02*
Y16709D01*
X159747Y15134D01*
X161846D01*
X362717Y165038D02*
Y161890D01*
X364816D01*
X367964Y165038D02*
X365865D01*
Y163464D01*
X366915Y163989D01*
X367439D01*
X367964Y163464D01*
Y162415D01*
X367439Y161890D01*
X366390D01*
X365865Y162415D01*
X178046Y141339D02*
X177521Y140814D01*
Y139765D01*
X178046Y139240D01*
X180145D01*
X180670Y139765D01*
Y140814D01*
X180145Y141339D01*
Y142389D02*
X180670Y142913D01*
Y143963D01*
X180145Y144488D01*
X178046D01*
X177521Y143963D01*
Y142913D01*
X178046Y142389D01*
X178571D01*
X179096Y142913D01*
Y144488D01*
X178046Y145537D02*
X177521Y146062D01*
Y147111D01*
X178046Y147636D01*
X178571D01*
X179096Y147111D01*
X179621Y147636D01*
X180145D01*
X180670Y147111D01*
Y146062D01*
X180145Y145537D01*
X179621D01*
X179096Y146062D01*
X178571Y145537D01*
X178046D01*
X179096Y146062D02*
Y147111D01*
X128124Y139068D02*
X127599Y138543D01*
Y137493D01*
X128124Y136969D01*
X130223D01*
X130748Y137493D01*
Y138543D01*
X130223Y139068D01*
Y140117D02*
X130748Y140642D01*
Y141691D01*
X130223Y142216D01*
X128124D01*
X127599Y141691D01*
Y140642D01*
X128124Y140117D01*
X128649D01*
X129174Y140642D01*
Y142216D01*
X127599Y143266D02*
Y145365D01*
X128124D01*
X130223Y143266D01*
X130748D01*
X177598Y117794D02*
X179698D01*
X178648D01*
Y114646D01*
X180747Y117794D02*
X182846D01*
Y117270D01*
X180747Y115170D01*
Y114646D01*
X115866Y109291D02*
Y112440D01*
X117440D01*
X117965Y111915D01*
Y110866D01*
X117440Y110341D01*
X115866D01*
X119015Y109291D02*
X120064D01*
X119539D01*
Y112440D01*
X119015Y111915D01*
X121639Y109291D02*
X122688D01*
X122163D01*
Y112440D01*
X121639Y111915D01*
X218826Y72319D02*
X218301Y71794D01*
Y70745D01*
X218826Y70220D01*
X220925D01*
X221450Y70745D01*
Y71794D01*
X220925Y72319D01*
X218301Y73369D02*
Y75468D01*
X218826D01*
X220925Y73369D01*
X221450D01*
X137022Y146409D02*
Y143786D01*
X137547Y143261D01*
X138596D01*
X139121Y143786D01*
Y146409D01*
X141745Y143261D02*
Y146409D01*
X140171Y144835D01*
X142270D01*
X165315Y141457D02*
Y144605D01*
X166889D01*
X167414Y144080D01*
Y143031D01*
X166889Y142506D01*
X165315D01*
X170038Y141457D02*
Y144605D01*
X168464Y143031D01*
X170563D01*
X112795Y159331D02*
Y162479D01*
X114370D01*
X114894Y161954D01*
Y160905D01*
X114370Y160380D01*
X112795D01*
X115944Y161954D02*
X116469Y162479D01*
X117518D01*
X118043Y161954D01*
Y161430D01*
X117518Y160905D01*
X116993D01*
X117518D01*
X118043Y160380D01*
Y159855D01*
X117518Y159331D01*
X116469D01*
X115944Y159855D01*
X332441Y39841D02*
X334540D01*
X333490D01*
Y36693D01*
X335590Y39841D02*
Y37742D01*
X336639Y36693D01*
X337689Y37742D01*
Y39841D01*
X340837Y39317D02*
X340312Y39841D01*
X339263D01*
X338738Y39317D01*
Y38792D01*
X339263Y38267D01*
X340312D01*
X340837Y37742D01*
Y37218D01*
X340312Y36693D01*
X339263D01*
X338738Y37218D01*
X343986Y36693D02*
X341887D01*
X343986Y38792D01*
Y39317D01*
X343461Y39841D01*
X342411D01*
X341887Y39317D01*
X325473Y104449D02*
Y106548D01*
Y105498D01*
X328622D01*
X325473Y107597D02*
X327572D01*
X328622Y108647D01*
X327572Y109696D01*
X325473D01*
X325998Y112845D02*
X325473Y112320D01*
Y111271D01*
X325998Y110746D01*
X326523D01*
X327048Y111271D01*
Y112320D01*
X327572Y112845D01*
X328097D01*
X328622Y112320D01*
Y111271D01*
X328097Y110746D01*
X328622Y113895D02*
Y114944D01*
Y114419D01*
X325473D01*
X325998Y113895D01*
X309028Y14645D02*
X307979D01*
X308503D01*
Y12021D01*
X307979Y11496D01*
X307454D01*
X306929Y12021D01*
X312177Y14645D02*
X311127Y14120D01*
X310078Y13070D01*
Y12021D01*
X310602Y11496D01*
X311652D01*
X312177Y12021D01*
Y12546D01*
X311652Y13070D01*
X310078D01*
X319776Y121101D02*
X317677D01*
Y119527D01*
X318727D01*
X317677D01*
Y117953D01*
X320826D02*
X321875D01*
X321351D01*
Y121101D01*
X320826Y120577D01*
X293268Y157322D02*
Y154173D01*
X294842D01*
X295367Y154698D01*
Y156797D01*
X294842Y157322D01*
X293268D01*
X296416Y154173D02*
X297466D01*
X296941D01*
Y157322D01*
X296416Y156797D01*
X301139Y154173D02*
X299040D01*
X301139Y156272D01*
Y156797D01*
X300614Y157322D01*
X299565D01*
X299040Y156797D01*
X246829Y139134D02*
X246304Y139659D01*
X245255D01*
X244730Y139134D01*
Y137035D01*
X245255Y136510D01*
X246304D01*
X246829Y137035D01*
X247879Y136510D02*
X248928D01*
X248403D01*
Y139659D01*
X247879Y139134D01*
X242256Y104474D02*
X241732Y104999D01*
X240682D01*
X240158Y104474D01*
Y102375D01*
X240682Y101850D01*
X241732D01*
X242256Y102375D01*
X245405Y101850D02*
X243306D01*
X245405Y103949D01*
Y104474D01*
X244880Y104999D01*
X243831D01*
X243306Y104474D01*
X238409Y74844D02*
X237884Y75369D01*
X236835D01*
X236310Y74844D01*
Y72745D01*
X236835Y72220D01*
X237884D01*
X238409Y72745D01*
X241558Y75369D02*
X240508Y74844D01*
X239459Y73794D01*
Y72745D01*
X239983Y72220D01*
X241033D01*
X241558Y72745D01*
Y73269D01*
X241033Y73794D01*
X239459D01*
X228276Y85529D02*
X227751Y85004D01*
Y83955D01*
X228276Y83430D01*
X230375D01*
X230900Y83955D01*
Y85004D01*
X230375Y85529D01*
X228276Y86579D02*
X227751Y87103D01*
Y88153D01*
X228276Y88678D01*
X228801D01*
X229326Y88153D01*
X229851Y88678D01*
X230375D01*
X230900Y88153D01*
Y87103D01*
X230375Y86579D01*
X229851D01*
X229326Y87103D01*
X228801Y86579D01*
X228276D01*
X229326Y87103D02*
Y88153D01*
X232936Y134699D02*
X232411Y134174D01*
Y133125D01*
X232936Y132600D01*
X235035D01*
X235560Y133125D01*
Y134174D01*
X235035Y134699D01*
X235560Y135749D02*
Y136798D01*
Y136273D01*
X232411D01*
X232936Y135749D01*
Y138372D02*
X232411Y138897D01*
Y139947D01*
X232936Y140471D01*
X235035D01*
X235560Y139947D01*
Y138897D01*
X235035Y138372D01*
X232936D01*
X228336Y136149D02*
X227811Y135624D01*
Y134575D01*
X228336Y134050D01*
X230435D01*
X230960Y134575D01*
Y135624D01*
X230435Y136149D01*
X230960Y137199D02*
Y138248D01*
Y137723D01*
X227811D01*
X228336Y137199D01*
X230960Y141921D02*
Y139822D01*
X228861Y141921D01*
X228336D01*
X227811Y141397D01*
Y140347D01*
X228336Y139822D01*
X223656Y134869D02*
X223131Y134344D01*
Y133295D01*
X223656Y132770D01*
X225755D01*
X226280Y133295D01*
Y134344D01*
X225755Y134869D01*
X226280Y135919D02*
Y136968D01*
Y136443D01*
X223131D01*
X223656Y135919D01*
X226280Y140117D02*
X223131D01*
X224706Y138542D01*
Y140641D01*
X211169Y74154D02*
X210644Y74679D01*
X209595D01*
X209070Y74154D01*
Y72055D01*
X209595Y71530D01*
X210644D01*
X211169Y72055D01*
X212219Y71530D02*
X213268D01*
X212743D01*
Y74679D01*
X212219Y74154D01*
X214842Y74679D02*
X216941D01*
Y74154D01*
X214842Y72055D01*
Y71530D01*
X218876Y134869D02*
X218351Y134344D01*
Y133295D01*
X218876Y132770D01*
X220975D01*
X221500Y133295D01*
Y134344D01*
X220975Y134869D01*
X221500Y135919D02*
Y136968D01*
Y136443D01*
X218351D01*
X218876Y135919D01*
X220975Y138542D02*
X221500Y139067D01*
Y140117D01*
X220975Y140641D01*
X218876D01*
X218351Y140117D01*
Y139067D01*
X218876Y138542D01*
X219401D01*
X219926Y139067D01*
Y140641D01*
X214186Y134869D02*
X213661Y134344D01*
Y133295D01*
X214186Y132770D01*
X216285D01*
X216810Y133295D01*
Y134344D01*
X216285Y134869D01*
X216810Y138018D02*
Y135919D01*
X214711Y138018D01*
X214186D01*
X213661Y137493D01*
Y136443D01*
X214186Y135919D01*
X216810Y139067D02*
Y140117D01*
Y139592D01*
X213661D01*
X214186Y139067D01*
X190091Y139120D02*
X189566Y139645D01*
X188517D01*
X187992Y139120D01*
Y137021D01*
X188517Y136496D01*
X189566D01*
X190091Y137021D01*
X193240Y136496D02*
X191141D01*
X193240Y138595D01*
Y139120D01*
X192715Y139645D01*
X191665D01*
X191141Y139120D01*
X194289D02*
X194814Y139645D01*
X195864D01*
X196388Y139120D01*
Y138595D01*
X195864Y138070D01*
X195339D01*
X195864D01*
X196388Y137546D01*
Y137021D01*
X195864Y136496D01*
X194814D01*
X194289Y137021D01*
X184039Y93964D02*
X183514Y94489D01*
X182465D01*
X181940Y93964D01*
Y91865D01*
X182465Y91340D01*
X183514D01*
X184039Y91865D01*
X187188Y91340D02*
X185089D01*
X187188Y93439D01*
Y93964D01*
X186663Y94489D01*
X185613D01*
X185089Y93964D01*
X188237Y91865D02*
X188762Y91340D01*
X189812D01*
X190336Y91865D01*
Y93964D01*
X189812Y94489D01*
X188762D01*
X188237Y93964D01*
Y93439D01*
X188762Y92914D01*
X190336D01*
X200309Y143464D02*
X199784Y143989D01*
X198735D01*
X198210Y143464D01*
Y141365D01*
X198735Y140840D01*
X199784D01*
X200309Y141365D01*
X201359Y143464D02*
X201883Y143989D01*
X202933D01*
X203458Y143464D01*
Y142939D01*
X202933Y142414D01*
X202408D01*
X202933D01*
X203458Y141890D01*
Y141365D01*
X202933Y140840D01*
X201883D01*
X201359Y141365D01*
X204507Y143464D02*
X205032Y143989D01*
X206082D01*
X206606Y143464D01*
Y141365D01*
X206082Y140840D01*
X205032D01*
X204507Y141365D01*
Y143464D01*
X206699Y124814D02*
X206174Y125339D01*
X205125D01*
X204600Y124814D01*
Y122715D01*
X205125Y122190D01*
X206174D01*
X206699Y122715D01*
X207749Y124814D02*
X208273Y125339D01*
X209323D01*
X209848Y124814D01*
Y124289D01*
X209323Y123764D01*
X208798D01*
X209323D01*
X209848Y123240D01*
Y122715D01*
X209323Y122190D01*
X208273D01*
X207749Y122715D01*
X210897Y122190D02*
X211947D01*
X211422D01*
Y125339D01*
X210897Y124814D01*
X188674Y134396D02*
X188149Y134920D01*
X187100D01*
X186575Y134396D01*
Y132296D01*
X187100Y131772D01*
X188149D01*
X188674Y132296D01*
X189723Y134396D02*
X190248Y134920D01*
X191298D01*
X191823Y134396D01*
Y133871D01*
X191298Y133346D01*
X190773D01*
X191298D01*
X191823Y132821D01*
Y132296D01*
X191298Y131772D01*
X190248D01*
X189723Y132296D01*
X194971Y131772D02*
X192872D01*
X194971Y133871D01*
Y134396D01*
X194446Y134920D01*
X193397D01*
X192872Y134396D01*
X188516Y129710D02*
X187992Y130235D01*
X186942D01*
X186417Y129710D01*
Y127611D01*
X186942Y127087D01*
X187992D01*
X188516Y127611D01*
X189566Y129710D02*
X190091Y130235D01*
X191140D01*
X191665Y129710D01*
Y129186D01*
X191140Y128661D01*
X190615D01*
X191140D01*
X191665Y128136D01*
Y127611D01*
X191140Y127087D01*
X190091D01*
X189566Y127611D01*
X192715Y129710D02*
X193239Y130235D01*
X194289D01*
X194814Y129710D01*
Y129186D01*
X194289Y128661D01*
X193764D01*
X194289D01*
X194814Y128136D01*
Y127611D01*
X194289Y127087D01*
X193239D01*
X192715Y127611D01*
X173675Y97020D02*
X173151Y96496D01*
Y95446D01*
X173675Y94921D01*
X175774D01*
X176299Y95446D01*
Y96496D01*
X175774Y97020D01*
X173675Y98070D02*
X173151Y98595D01*
Y99644D01*
X173675Y100169D01*
X174200D01*
X174725Y99644D01*
Y99119D01*
Y99644D01*
X175250Y100169D01*
X175774D01*
X176299Y99644D01*
Y98595D01*
X175774Y98070D01*
X173151Y103317D02*
X173675Y102268D01*
X174725Y101218D01*
X175774D01*
X176299Y101743D01*
Y102793D01*
X175774Y103317D01*
X175250D01*
X174725Y102793D01*
Y101218D01*
X178203Y97099D02*
X177678Y96574D01*
Y95525D01*
X178203Y95000D01*
X180302D01*
X180827Y95525D01*
Y96574D01*
X180302Y97099D01*
X178203Y98149D02*
X177678Y98673D01*
Y99723D01*
X178203Y100248D01*
X178728D01*
X179253Y99723D01*
Y99198D01*
Y99723D01*
X179777Y100248D01*
X180302D01*
X180827Y99723D01*
Y98673D01*
X180302Y98149D01*
X177678Y101297D02*
Y103396D01*
X178203D01*
X180302Y101297D01*
X180827D01*
X280526Y50839D02*
X280001Y50314D01*
Y49265D01*
X280526Y48740D01*
X282625D01*
X283150Y49265D01*
Y50314D01*
X282625Y50839D01*
X283150Y53463D02*
X280001D01*
X281575Y51889D01*
Y53988D01*
X283150Y56612D02*
X280001D01*
X281575Y55037D01*
Y57136D01*
X328754Y49382D02*
X328229Y48858D01*
Y47808D01*
X328754Y47284D01*
X330853D01*
X331378Y47808D01*
Y48858D01*
X330853Y49382D01*
X331378Y52006D02*
X328229D01*
X329804Y50432D01*
Y52531D01*
X328229Y55680D02*
Y53581D01*
X329804D01*
X329279Y54630D01*
Y55155D01*
X329804Y55680D01*
X330853D01*
X331378Y55155D01*
Y54105D01*
X330853Y53581D01*
X157138Y163923D02*
X156614Y164448D01*
X155564D01*
X155039Y163923D01*
Y161824D01*
X155564Y161299D01*
X156614D01*
X157138Y161824D01*
X160287Y164448D02*
X158188D01*
Y162873D01*
X159238Y163398D01*
X159762D01*
X160287Y162873D01*
Y161824D01*
X159762Y161299D01*
X158713D01*
X158188Y161824D01*
X161337Y164448D02*
X163436D01*
Y163923D01*
X161337Y161824D01*
Y161299D01*
X134934Y167663D02*
X134409Y168188D01*
X133359D01*
X132835Y167663D01*
Y165564D01*
X133359Y165039D01*
X134409D01*
X134934Y165564D01*
X138082Y168188D02*
X135983D01*
Y166614D01*
X137033Y167138D01*
X137557D01*
X138082Y166614D01*
Y165564D01*
X137557Y165039D01*
X136508D01*
X135983Y165564D01*
X139132Y167663D02*
X139657Y168188D01*
X140706D01*
X141231Y167663D01*
Y167138D01*
X140706Y166614D01*
X141231Y166089D01*
Y165564D01*
X140706Y165039D01*
X139657D01*
X139132Y165564D01*
Y166089D01*
X139657Y166614D01*
X139132Y167138D01*
Y167663D01*
X139657Y166614D02*
X140706D01*
X127659Y157674D02*
X127134Y158199D01*
X126085D01*
X125560Y157674D01*
Y155575D01*
X126085Y155050D01*
X127134D01*
X127659Y155575D01*
X130808Y158199D02*
X128709D01*
Y156624D01*
X129758Y157149D01*
X130283D01*
X130808Y156624D01*
Y155575D01*
X130283Y155050D01*
X129233D01*
X128709Y155575D01*
X131857D02*
X132382Y155050D01*
X133431D01*
X133956Y155575D01*
Y157674D01*
X133431Y158199D01*
X132382D01*
X131857Y157674D01*
Y157149D01*
X132382Y156624D01*
X133956D01*
X153249Y148454D02*
X152724Y148979D01*
X151675D01*
X151150Y148454D01*
Y146355D01*
X151675Y145830D01*
X152724D01*
X153249Y146355D01*
X156398Y148979D02*
X155348Y148454D01*
X154299Y147404D01*
Y146355D01*
X154823Y145830D01*
X155873D01*
X156398Y146355D01*
Y146879D01*
X155873Y147404D01*
X154299D01*
X157447Y148454D02*
X157972Y148979D01*
X159021D01*
X159546Y148454D01*
Y146355D01*
X159021Y145830D01*
X157972D01*
X157447Y146355D01*
Y148454D01*
X205249Y38608D02*
X204724Y39133D01*
X203674D01*
X203150Y38608D01*
Y36509D01*
X203674Y35984D01*
X204724D01*
X205249Y36509D01*
X208397Y39133D02*
X207348Y38608D01*
X206298Y37559D01*
Y36509D01*
X206823Y35984D01*
X207873D01*
X208397Y36509D01*
Y37034D01*
X207873Y37559D01*
X206298D01*
X209447Y35984D02*
X210496D01*
X209972D01*
Y39133D01*
X209447Y38608D01*
X205170Y34120D02*
X204645Y34645D01*
X203596D01*
X203071Y34120D01*
Y32021D01*
X203596Y31496D01*
X204645D01*
X205170Y32021D01*
X208318Y34645D02*
X207269Y34120D01*
X206220Y33070D01*
Y32021D01*
X206744Y31496D01*
X207794D01*
X208318Y32021D01*
Y32546D01*
X207794Y33070D01*
X206220D01*
X211467Y31496D02*
X209368D01*
X211467Y33595D01*
Y34120D01*
X210942Y34645D01*
X209893D01*
X209368Y34120D01*
X186359Y29714D02*
X185834Y30239D01*
X184785D01*
X184260Y29714D01*
Y27615D01*
X184785Y27090D01*
X185834D01*
X186359Y27615D01*
X189508Y30239D02*
X188458Y29714D01*
X187409Y28664D01*
Y27615D01*
X187933Y27090D01*
X188983D01*
X189508Y27615D01*
Y28139D01*
X188983Y28664D01*
X187409D01*
X190557Y29714D02*
X191082Y30239D01*
X192131D01*
X192656Y29714D01*
Y29189D01*
X192131Y28664D01*
X191607D01*
X192131D01*
X192656Y28139D01*
Y27615D01*
X192131Y27090D01*
X191082D01*
X190557Y27615D01*
X191863Y15695D02*
X191338Y16219D01*
X190289D01*
X189764Y15695D01*
Y13596D01*
X190289Y13071D01*
X191338D01*
X191863Y13596D01*
X195011Y16219D02*
X193962Y15695D01*
X192912Y14645D01*
Y13596D01*
X193437Y13071D01*
X194487D01*
X195011Y13596D01*
Y14120D01*
X194487Y14645D01*
X192912D01*
X197635Y13071D02*
Y16219D01*
X196061Y14645D01*
X198160D01*
X221784Y20892D02*
X221259Y21416D01*
X220210D01*
X219685Y20892D01*
Y18792D01*
X220210Y18268D01*
X221259D01*
X221784Y18792D01*
X224933Y21416D02*
X223883Y20892D01*
X222834Y19842D01*
Y18792D01*
X223358Y18268D01*
X224408D01*
X224933Y18792D01*
Y19317D01*
X224408Y19842D01*
X222834D01*
X228081Y21416D02*
X225982D01*
Y19842D01*
X227032Y20367D01*
X227556D01*
X228081Y19842D01*
Y18792D01*
X227556Y18268D01*
X226507D01*
X225982Y18792D01*
X96390Y49710D02*
X95866Y50235D01*
X94816D01*
X94291Y49710D01*
Y47611D01*
X94816Y47087D01*
X95866D01*
X96390Y47611D01*
X99539Y50235D02*
X98489Y49710D01*
X97440Y48661D01*
Y47611D01*
X97965Y47087D01*
X99014D01*
X99539Y47611D01*
Y48136D01*
X99014Y48661D01*
X97440D01*
X102688Y50235D02*
X101638Y49710D01*
X100589Y48661D01*
Y47611D01*
X101113Y47087D01*
X102163D01*
X102688Y47611D01*
Y48136D01*
X102163Y48661D01*
X100589D01*
X107375Y35301D02*
X106850Y35826D01*
X105800D01*
X105276Y35301D01*
Y33202D01*
X105800Y32677D01*
X106850D01*
X107375Y33202D01*
X110523Y35826D02*
X109474Y35301D01*
X108424Y34251D01*
Y33202D01*
X108949Y32677D01*
X109999D01*
X110523Y33202D01*
Y33727D01*
X109999Y34251D01*
X108424D01*
X111573Y35826D02*
X113672D01*
Y35301D01*
X111573Y33202D01*
Y32677D01*
X125799Y13204D02*
X125274Y13729D01*
X124225D01*
X123700Y13204D01*
Y11105D01*
X124225Y10580D01*
X125274D01*
X125799Y11105D01*
X128948Y13729D02*
X127898Y13204D01*
X126849Y12154D01*
Y11105D01*
X127373Y10580D01*
X128423D01*
X128948Y11105D01*
Y11630D01*
X128423Y12154D01*
X126849D01*
X129997Y13204D02*
X130522Y13729D01*
X131571D01*
X132096Y13204D01*
Y12679D01*
X131571Y12154D01*
X132096Y11630D01*
Y11105D01*
X131571Y10580D01*
X130522D01*
X129997Y11105D01*
Y11630D01*
X130522Y12154D01*
X129997Y12679D01*
Y13204D01*
X130522Y12154D02*
X131571D01*
X91321Y55984D02*
X90796Y56509D01*
X89747D01*
X89222Y55984D01*
Y53886D01*
X89747Y53361D01*
X90796D01*
X91321Y53886D01*
X92371Y56509D02*
X94470D01*
Y55984D01*
X92371Y53886D01*
Y53361D01*
X95519Y55984D02*
X96044Y56509D01*
X97094D01*
X97618Y55984D01*
Y53886D01*
X97094Y53361D01*
X96044D01*
X95519Y53886D01*
Y55984D01*
X87020Y28254D02*
X86496Y28778D01*
X85446D01*
X84921Y28254D01*
Y26155D01*
X85446Y25630D01*
X86496D01*
X87020Y26155D01*
X88070Y28778D02*
X90169D01*
Y28254D01*
X88070Y26155D01*
Y25630D01*
X93318D02*
X91218D01*
X93318Y27729D01*
Y28254D01*
X92793Y28778D01*
X91743D01*
X91218Y28254D01*
X135669Y13094D02*
X135144Y13619D01*
X134095D01*
X133570Y13094D01*
Y10995D01*
X134095Y10470D01*
X135144D01*
X135669Y10995D01*
X136719Y13619D02*
X138818D01*
Y13094D01*
X136719Y10995D01*
Y10470D01*
X139867Y13094D02*
X140392Y13619D01*
X141442D01*
X141966Y13094D01*
Y12569D01*
X141442Y12044D01*
X140917D01*
X141442D01*
X141966Y11519D01*
Y10995D01*
X141442Y10470D01*
X140392D01*
X139867Y10995D01*
X134423Y40249D02*
X133899Y39724D01*
Y38674D01*
X134423Y38150D01*
X136522D01*
X137047Y38674D01*
Y39724D01*
X136522Y40249D01*
X133899Y41298D02*
Y43397D01*
X134423D01*
X136522Y41298D01*
X137047D01*
Y46021D02*
X133899D01*
X135473Y44447D01*
Y46546D01*
X120321Y74685D02*
X119796Y75209D01*
X118747D01*
X118222Y74685D01*
Y72585D01*
X118747Y72061D01*
X119796D01*
X120321Y72585D01*
X121371Y75209D02*
X123470D01*
Y74685D01*
X121371Y72585D01*
Y72061D01*
X126618Y75209D02*
X124519D01*
Y73635D01*
X125569Y74160D01*
X126094D01*
X126618Y73635D01*
Y72585D01*
X126094Y72061D01*
X125044D01*
X124519Y72585D01*
X152659Y10474D02*
X152134Y10999D01*
X151085D01*
X150560Y10474D01*
Y8375D01*
X151085Y7850D01*
X152134D01*
X152659Y8375D01*
X153709Y10999D02*
X155808D01*
Y10474D01*
X153709Y8375D01*
Y7850D01*
X158956Y10999D02*
X157907Y10474D01*
X156857Y9424D01*
Y8375D01*
X157382Y7850D01*
X158431D01*
X158956Y8375D01*
Y8900D01*
X158431Y9424D01*
X156857D01*
X147257Y76876D02*
X146732Y77401D01*
X145682D01*
X145158Y76876D01*
Y74777D01*
X145682Y74252D01*
X146732D01*
X147257Y74777D01*
X148306Y77401D02*
X150405D01*
Y76876D01*
X148306Y74777D01*
Y74252D01*
X151455Y77401D02*
X153554D01*
Y76876D01*
X151455Y74777D01*
Y74252D01*
X151684Y46049D02*
X151159Y46574D01*
X150110D01*
X149585Y46049D01*
Y43950D01*
X150110Y43425D01*
X151159D01*
X151684Y43950D01*
X152734Y46574D02*
X154833D01*
Y46049D01*
X152734Y43950D01*
Y43425D01*
X155882Y46049D02*
X156407Y46574D01*
X157457D01*
X157981Y46049D01*
Y45524D01*
X157457Y45000D01*
X157981Y44475D01*
Y43950D01*
X157457Y43425D01*
X156407D01*
X155882Y43950D01*
Y44475D01*
X156407Y45000D01*
X155882Y45524D01*
Y46049D01*
X156407Y45000D02*
X157457D01*
X151645Y50695D02*
X151120Y51219D01*
X150070D01*
X149546Y50695D01*
Y48596D01*
X150070Y48071D01*
X151120D01*
X151645Y48596D01*
X152694Y51219D02*
X154793D01*
Y50695D01*
X152694Y48596D01*
Y48071D01*
X155843Y48596D02*
X156368Y48071D01*
X157417D01*
X157942Y48596D01*
Y50695D01*
X157417Y51219D01*
X156368D01*
X155843Y50695D01*
Y50170D01*
X156368Y49645D01*
X157942D01*
X151487Y55616D02*
X150962Y56141D01*
X149913D01*
X149388Y55616D01*
Y53517D01*
X149913Y52992D01*
X150962D01*
X151487Y53517D01*
X152537Y55616D02*
X153062Y56141D01*
X154111D01*
X154636Y55616D01*
Y55091D01*
X154111Y54566D01*
X154636Y54042D01*
Y53517D01*
X154111Y52992D01*
X153062D01*
X152537Y53517D01*
Y54042D01*
X153062Y54566D01*
X152537Y55091D01*
Y55616D01*
X153062Y54566D02*
X154111D01*
X155685Y55616D02*
X156210Y56141D01*
X157260D01*
X157784Y55616D01*
Y53517D01*
X157260Y52992D01*
X156210D01*
X155685Y53517D01*
Y55616D01*
X151802Y65577D02*
X151277Y66101D01*
X150228D01*
X149703Y65577D01*
Y63477D01*
X150228Y62953D01*
X151277D01*
X151802Y63477D01*
X152852Y65577D02*
X153376Y66101D01*
X154426D01*
X154951Y65577D01*
Y65052D01*
X154426Y64527D01*
X154951Y64002D01*
Y63477D01*
X154426Y62953D01*
X153376D01*
X152852Y63477D01*
Y64002D01*
X153376Y64527D01*
X152852Y65052D01*
Y65577D01*
X153376Y64527D02*
X154426D01*
X156000Y62953D02*
X157050D01*
X156525D01*
Y66101D01*
X156000Y65577D01*
X151330Y71010D02*
X150805Y71534D01*
X149756D01*
X149231Y71010D01*
Y68911D01*
X149756Y68386D01*
X150805D01*
X151330Y68911D01*
X152379Y71010D02*
X152904Y71534D01*
X153954D01*
X154478Y71010D01*
Y70485D01*
X153954Y69960D01*
X154478Y69435D01*
Y68911D01*
X153954Y68386D01*
X152904D01*
X152379Y68911D01*
Y69435D01*
X152904Y69960D01*
X152379Y70485D01*
Y71010D01*
X152904Y69960D02*
X153954D01*
X157627Y68386D02*
X155528D01*
X157627Y70485D01*
Y71010D01*
X157102Y71534D01*
X156053D01*
X155528Y71010D01*
X167099Y16504D02*
X166574Y17029D01*
X165525D01*
X165000Y16504D01*
Y14405D01*
X165525Y13880D01*
X166574D01*
X167099Y14405D01*
X168149Y16504D02*
X168673Y17029D01*
X169723D01*
X170248Y16504D01*
Y15979D01*
X169723Y15454D01*
X170248Y14930D01*
Y14405D01*
X169723Y13880D01*
X168673D01*
X168149Y14405D01*
Y14930D01*
X168673Y15454D01*
X168149Y15979D01*
Y16504D01*
X168673Y15454D02*
X169723D01*
X171297Y16504D02*
X171822Y17029D01*
X172871D01*
X173396Y16504D01*
Y15979D01*
X172871Y15454D01*
X172347D01*
X172871D01*
X173396Y14930D01*
Y14405D01*
X172871Y13880D01*
X171822D01*
X171297Y14405D01*
X325721Y162073D02*
X325196Y162597D01*
X324147D01*
X323622Y162073D01*
Y159974D01*
X324147Y159449D01*
X325196D01*
X325721Y159974D01*
X326771Y162073D02*
X327295Y162597D01*
X328345D01*
X328870Y162073D01*
Y161548D01*
X328345Y161023D01*
X328870Y160498D01*
Y159974D01*
X328345Y159449D01*
X327295D01*
X326771Y159974D01*
Y160498D01*
X327295Y161023D01*
X326771Y161548D01*
Y162073D01*
X327295Y161023D02*
X328345D01*
X332018Y162597D02*
X329919D01*
Y161023D01*
X330969Y161548D01*
X331493D01*
X332018Y161023D01*
Y159974D01*
X331493Y159449D01*
X330444D01*
X329919Y159974D01*
X251221Y63784D02*
X250696Y64309D01*
X249647D01*
X249122Y63784D01*
Y61686D01*
X249647Y61161D01*
X250696D01*
X251221Y61686D01*
X252271Y63784D02*
X252796Y64309D01*
X253845D01*
X254370Y63784D01*
Y63260D01*
X253845Y62735D01*
X254370Y62210D01*
Y61686D01*
X253845Y61161D01*
X252796D01*
X252271Y61686D01*
Y62210D01*
X252796Y62735D01*
X252271Y63260D01*
Y63784D01*
X252796Y62735D02*
X253845D01*
X257518Y64309D02*
X256469Y63784D01*
X255419Y62735D01*
Y61686D01*
X255944Y61161D01*
X256994D01*
X257518Y61686D01*
Y62210D01*
X256994Y62735D01*
X255419D01*
X272099Y38844D02*
X271574Y39369D01*
X270525D01*
X270000Y38844D01*
Y36745D01*
X270525Y36220D01*
X271574D01*
X272099Y36745D01*
X273149Y38844D02*
X273673Y39369D01*
X274723D01*
X275248Y38844D01*
Y38320D01*
X274723Y37795D01*
X275248Y37270D01*
Y36745D01*
X274723Y36220D01*
X273673D01*
X273149Y36745D01*
Y37270D01*
X273673Y37795D01*
X273149Y38320D01*
Y38844D01*
X273673Y37795D02*
X274723D01*
X276297Y39369D02*
X278396D01*
Y38844D01*
X276297Y36745D01*
Y36220D01*
X312138Y38569D02*
X311614Y39094D01*
X310564D01*
X310039Y38569D01*
Y36470D01*
X310564Y35945D01*
X311614D01*
X312138Y36470D01*
X313188Y38569D02*
X313713Y39094D01*
X314762D01*
X315287Y38569D01*
Y38044D01*
X314762Y37519D01*
X315287Y36994D01*
Y36470D01*
X314762Y35945D01*
X313713D01*
X313188Y36470D01*
Y36994D01*
X313713Y37519D01*
X313188Y38044D01*
Y38569D01*
X313713Y37519D02*
X314762D01*
X316336Y38569D02*
X316861Y39094D01*
X317911D01*
X318436Y38569D01*
Y38044D01*
X317911Y37519D01*
X318436Y36994D01*
Y36470D01*
X317911Y35945D01*
X316861D01*
X316336Y36470D01*
Y36994D01*
X316861Y37519D01*
X316336Y38044D01*
Y38569D01*
X316861Y37519D02*
X317911D01*
X335879Y183175D02*
X335354Y183700D01*
X334304D01*
X333780Y183175D01*
Y181076D01*
X334304Y180551D01*
X335354D01*
X335879Y181076D01*
X336928Y183175D02*
X337453Y183700D01*
X338502D01*
X339027Y183175D01*
Y182650D01*
X338502Y182125D01*
X339027Y181601D01*
Y181076D01*
X338502Y180551D01*
X337453D01*
X336928Y181076D01*
Y181601D01*
X337453Y182125D01*
X336928Y182650D01*
Y183175D01*
X337453Y182125D02*
X338502D01*
X340077Y181076D02*
X340601Y180551D01*
X341651D01*
X342176Y181076D01*
Y183175D01*
X341651Y183700D01*
X340601D01*
X340077Y183175D01*
Y182650D01*
X340601Y182125D01*
X342176D01*
X352521Y178884D02*
X351996Y179409D01*
X350947D01*
X350422Y178884D01*
Y176786D01*
X350947Y176261D01*
X351996D01*
X352521Y176786D01*
X353571D02*
X354096Y176261D01*
X355145D01*
X355670Y176786D01*
Y178884D01*
X355145Y179409D01*
X354096D01*
X353571Y178884D01*
Y178360D01*
X354096Y177835D01*
X355670D01*
X356719Y178884D02*
X357244Y179409D01*
X358294D01*
X358818Y178884D01*
Y176786D01*
X358294Y176261D01*
X357244D01*
X356719Y176786D01*
Y178884D01*
X183446Y178609D02*
X182921Y178084D01*
Y177035D01*
X183446Y176510D01*
X185545D01*
X186070Y177035D01*
Y178084D01*
X185545Y178609D01*
Y179659D02*
X186070Y180183D01*
Y181233D01*
X185545Y181758D01*
X183446D01*
X182921Y181233D01*
Y180183D01*
X183446Y179659D01*
X183971D01*
X184496Y180183D01*
Y181758D01*
X186070Y182807D02*
Y183857D01*
Y183332D01*
X182921D01*
X183446Y182807D01*
X161376Y178449D02*
X160851Y177924D01*
Y176875D01*
X161376Y176350D01*
X163475D01*
X164000Y176875D01*
Y177924D01*
X163475Y178449D01*
Y179499D02*
X164000Y180023D01*
Y181073D01*
X163475Y181598D01*
X161376D01*
X160851Y181073D01*
Y180023D01*
X161376Y179499D01*
X161901D01*
X162426Y180023D01*
Y181598D01*
X164000Y184746D02*
Y182647D01*
X161901Y184746D01*
X161376D01*
X160851Y184221D01*
Y183172D01*
X161376Y182647D01*
X176979Y164854D02*
X176454Y165379D01*
X175405D01*
X174880Y164854D01*
Y162755D01*
X175405Y162230D01*
X176454D01*
X176979Y162755D01*
X178029D02*
X178553Y162230D01*
X179603D01*
X180128Y162755D01*
Y164854D01*
X179603Y165379D01*
X178553D01*
X178029Y164854D01*
Y164329D01*
X178553Y163804D01*
X180128D01*
X181177Y164854D02*
X181702Y165379D01*
X182752D01*
X183276Y164854D01*
Y164329D01*
X182752Y163804D01*
X182227D01*
X182752D01*
X183276Y163279D01*
Y162755D01*
X182752Y162230D01*
X181702D01*
X181177Y162755D01*
X190299Y66484D02*
X189774Y67009D01*
X188725D01*
X188200Y66484D01*
Y64385D01*
X188725Y63860D01*
X189774D01*
X190299Y64385D01*
X191349D02*
X191873Y63860D01*
X192923D01*
X193448Y64385D01*
Y66484D01*
X192923Y67009D01*
X191873D01*
X191349Y66484D01*
Y65959D01*
X191873Y65434D01*
X193448D01*
X196072Y63860D02*
Y67009D01*
X194497Y65434D01*
X196596D01*
X213159Y67244D02*
X212634Y67769D01*
X211585D01*
X211060Y67244D01*
Y65145D01*
X211585Y64620D01*
X212634D01*
X213159Y65145D01*
X214209D02*
X214733Y64620D01*
X215783D01*
X216308Y65145D01*
Y67244D01*
X215783Y67769D01*
X214733D01*
X214209Y67244D01*
Y66719D01*
X214733Y66194D01*
X216308D01*
X219456Y67769D02*
X218407Y67244D01*
X217357Y66194D01*
Y65145D01*
X217882Y64620D01*
X218932D01*
X219456Y65145D01*
Y65670D01*
X218932Y66194D01*
X217357D01*
X46589Y159540D02*
X46064Y159015D01*
Y157966D01*
X46589Y157441D01*
X48688D01*
X49213Y157966D01*
Y159015D01*
X48688Y159540D01*
X49213Y160590D02*
Y161639D01*
Y161114D01*
X46064D01*
X46589Y160590D01*
Y163213D02*
X46064Y163738D01*
Y164788D01*
X46589Y165312D01*
X48688D01*
X49213Y164788D01*
Y163738D01*
X48688Y163213D01*
X46589D01*
X49213Y166362D02*
Y167411D01*
Y166887D01*
X46064D01*
X46589Y166362D01*
X48256Y129969D02*
X47731Y129444D01*
Y128395D01*
X48256Y127870D01*
X50355D01*
X50880Y128395D01*
Y129444D01*
X50355Y129969D01*
X50880Y131019D02*
Y132068D01*
Y131543D01*
X47731D01*
X48256Y131019D01*
Y133642D02*
X47731Y134167D01*
Y135217D01*
X48256Y135741D01*
X50355D01*
X50880Y135217D01*
Y134167D01*
X50355Y133642D01*
X48256D01*
X50880Y138890D02*
Y136791D01*
X48781Y138890D01*
X48256D01*
X47731Y138365D01*
Y137316D01*
X48256Y136791D01*
X142869Y98354D02*
X142344Y98879D01*
X141295D01*
X140770Y98354D01*
Y96255D01*
X141295Y95730D01*
X142344D01*
X142869Y96255D01*
X143919Y95730D02*
X144968D01*
X144443D01*
Y98879D01*
X143919Y98354D01*
X146542D02*
X147067Y98879D01*
X148117D01*
X148642Y98354D01*
Y96255D01*
X148117Y95730D01*
X147067D01*
X146542Y96255D01*
Y98354D01*
X149691D02*
X150216Y98879D01*
X151265D01*
X151790Y98354D01*
Y97829D01*
X151265Y97304D01*
X150741D01*
X151265D01*
X151790Y96780D01*
Y96255D01*
X151265Y95730D01*
X150216D01*
X149691Y96255D01*
X127652Y105446D02*
X127127Y104921D01*
Y103871D01*
X127652Y103347D01*
X129751D01*
X130276Y103871D01*
Y104921D01*
X129751Y105446D01*
X130276Y106495D02*
Y107545D01*
Y107020D01*
X127127D01*
X127652Y106495D01*
Y109119D02*
X127127Y109644D01*
Y110693D01*
X127652Y111218D01*
X129751D01*
X130276Y110693D01*
Y109644D01*
X129751Y109119D01*
X127652D01*
X127127Y114366D02*
Y112267D01*
X128701D01*
X128176Y113317D01*
Y113842D01*
X128701Y114366D01*
X129751D01*
X130276Y113842D01*
Y112792D01*
X129751Y112267D01*
X154973Y115183D02*
X154448Y115708D01*
X153399D01*
X152874Y115183D01*
Y113084D01*
X153399Y112559D01*
X154448D01*
X154973Y113084D01*
X156023Y112559D02*
X157072D01*
X156547D01*
Y115708D01*
X156023Y115183D01*
X158646D02*
X159171Y115708D01*
X160221D01*
X160746Y115183D01*
Y113084D01*
X160221Y112559D01*
X159171D01*
X158646Y113084D01*
Y115183D01*
X163894Y115708D02*
X162845Y115183D01*
X161795Y114133D01*
Y113084D01*
X162320Y112559D01*
X163369D01*
X163894Y113084D01*
Y113609D01*
X163369Y114133D01*
X161795D01*
X151469Y85813D02*
X150944Y86338D01*
X149895D01*
X149370Y85813D01*
Y83714D01*
X149895Y83189D01*
X150944D01*
X151469Y83714D01*
X152519Y83189D02*
X153568D01*
X153043D01*
Y86338D01*
X152519Y85813D01*
X155142D02*
X155667Y86338D01*
X156717D01*
X157242Y85813D01*
Y83714D01*
X156717Y83189D01*
X155667D01*
X155142Y83714D01*
Y85813D01*
X158291Y86338D02*
X160390D01*
Y85813D01*
X158291Y83714D01*
Y83189D01*
X159469Y76034D02*
X158944Y76559D01*
X157895D01*
X157370Y76034D01*
Y73935D01*
X157895Y73410D01*
X158944D01*
X159469Y73935D01*
X160519Y73410D02*
X161568D01*
X161043D01*
Y76559D01*
X160519Y76034D01*
X163142D02*
X163667Y76559D01*
X164717D01*
X165242Y76034D01*
Y73935D01*
X164717Y73410D01*
X163667D01*
X163142Y73935D01*
Y76034D01*
X166291Y73935D02*
X166816Y73410D01*
X167865D01*
X168390Y73935D01*
Y76034D01*
X167865Y76559D01*
X166816D01*
X166291Y76034D01*
Y75509D01*
X166816Y74984D01*
X168390D01*
X175456Y84289D02*
X174931Y83764D01*
Y82715D01*
X175456Y82190D01*
X177555D01*
X178080Y82715D01*
Y83764D01*
X177555Y84289D01*
X178080Y85339D02*
Y86388D01*
Y85863D01*
X174931D01*
X175456Y85339D01*
X178080Y87962D02*
Y89012D01*
Y88487D01*
X174931D01*
X175456Y87962D01*
Y90586D02*
X174931Y91111D01*
Y92161D01*
X175456Y92685D01*
X177555D01*
X178080Y92161D01*
Y91111D01*
X177555Y90586D01*
X175456D01*
X145369Y125224D02*
X144844Y125749D01*
X143795D01*
X143270Y125224D01*
Y123125D01*
X143795Y122600D01*
X144844D01*
X145369Y123125D01*
X146419Y122600D02*
X147468D01*
X146943D01*
Y125749D01*
X146419Y125224D01*
X149042Y122600D02*
X150092D01*
X149567D01*
Y125749D01*
X149042Y125224D01*
X153765Y125749D02*
X151666D01*
Y124174D01*
X152716Y124699D01*
X153241D01*
X153765Y124174D01*
Y123125D01*
X153241Y122600D01*
X152191D01*
X151666Y123125D01*
X132690Y125734D02*
X132165Y126259D01*
X131115D01*
X130591Y125734D01*
Y123635D01*
X131115Y123110D01*
X132165D01*
X132690Y123635D01*
X133739Y123110D02*
X134789D01*
X134264D01*
Y126259D01*
X133739Y125734D01*
X136363Y123110D02*
X137413D01*
X136888D01*
Y126259D01*
X136363Y125734D01*
X141086Y126259D02*
X140036Y125734D01*
X138987Y124685D01*
Y123635D01*
X139512Y123110D01*
X140561D01*
X141086Y123635D01*
Y124160D01*
X140561Y124685D01*
X138987D01*
X54946Y169389D02*
X54421Y168864D01*
Y167815D01*
X54946Y167290D01*
X57045D01*
X57570Y167815D01*
Y168864D01*
X57045Y169389D01*
X57570Y170439D02*
Y171488D01*
Y170963D01*
X54421D01*
X54946Y170439D01*
X57570Y173062D02*
Y174112D01*
Y173587D01*
X54421D01*
X54946Y173062D01*
X54421Y175686D02*
Y177785D01*
X54946D01*
X57045Y175686D01*
X57570D01*
X55776Y128489D02*
X55251Y127964D01*
Y126915D01*
X55776Y126390D01*
X57875D01*
X58400Y126915D01*
Y127964D01*
X57875Y128489D01*
X58400Y129539D02*
Y130588D01*
Y130063D01*
X55251D01*
X55776Y129539D01*
X58400Y132162D02*
Y133212D01*
Y132687D01*
X55251D01*
X55776Y132162D01*
Y134786D02*
X55251Y135311D01*
Y136361D01*
X55776Y136885D01*
X56301D01*
X56826Y136361D01*
X57350Y136885D01*
X57875D01*
X58400Y136361D01*
Y135311D01*
X57875Y134786D01*
X57350D01*
X56826Y135311D01*
X56301Y134786D01*
X55776D01*
X56826Y135311D02*
Y136361D01*
X50936Y30909D02*
X50411Y30384D01*
Y29335D01*
X50936Y28810D01*
X53035D01*
X53560Y29335D01*
Y30384D01*
X53035Y30909D01*
X53560Y31959D02*
Y33008D01*
Y32483D01*
X50411D01*
X50936Y31959D01*
X53560Y34582D02*
Y35632D01*
Y35107D01*
X50411D01*
X50936Y34582D01*
X53035Y37206D02*
X53560Y37731D01*
Y38781D01*
X53035Y39305D01*
X50936D01*
X50411Y38781D01*
Y37731D01*
X50936Y37206D01*
X51461D01*
X51986Y37731D01*
Y39305D01*
X65229Y74814D02*
X64704Y75339D01*
X63655D01*
X63130Y74814D01*
Y72715D01*
X63655Y72190D01*
X64704D01*
X65229Y72715D01*
X66279Y72190D02*
X67328D01*
X66803D01*
Y75339D01*
X66279Y74814D01*
X71001Y72190D02*
X68902D01*
X71001Y74289D01*
Y74814D01*
X70477Y75339D01*
X69427D01*
X68902Y74814D01*
X72051D02*
X72576Y75339D01*
X73625D01*
X74150Y74814D01*
Y72715D01*
X73625Y72190D01*
X72576D01*
X72051Y72715D01*
Y74814D01*
X46229Y49314D02*
X45704Y49839D01*
X44655D01*
X44130Y49314D01*
Y47215D01*
X44655Y46690D01*
X45704D01*
X46229Y47215D01*
X47279Y46690D02*
X48328D01*
X47803D01*
Y49839D01*
X47279Y49314D01*
X52002Y46690D02*
X49902D01*
X52002Y48789D01*
Y49314D01*
X51477Y49839D01*
X50427D01*
X49902Y49314D01*
X53051Y46690D02*
X54101D01*
X53576D01*
Y49839D01*
X53051Y49314D01*
X48319Y65094D02*
X47794Y65619D01*
X46745D01*
X46220Y65094D01*
Y62995D01*
X46745Y62470D01*
X47794D01*
X48319Y62995D01*
X49369Y62470D02*
X50418D01*
X49893D01*
Y65619D01*
X49369Y65094D01*
X54092Y62470D02*
X51992D01*
X54092Y64569D01*
Y65094D01*
X53567Y65619D01*
X52517D01*
X51992Y65094D01*
X57240Y62470D02*
X55141D01*
X57240Y64569D01*
Y65094D01*
X56715Y65619D01*
X55666D01*
X55141Y65094D01*
X48619Y43864D02*
X48094Y44389D01*
X47045D01*
X46520Y43864D01*
Y41765D01*
X47045Y41240D01*
X48094D01*
X48619Y41765D01*
X49669Y41240D02*
X50718D01*
X50193D01*
Y44389D01*
X49669Y43864D01*
X54391Y41240D02*
X52292D01*
X54391Y43339D01*
Y43864D01*
X53867Y44389D01*
X52817D01*
X52292Y43864D01*
X55441D02*
X55966Y44389D01*
X57015D01*
X57540Y43864D01*
Y43339D01*
X57015Y42814D01*
X56490D01*
X57015D01*
X57540Y42290D01*
Y41765D01*
X57015Y41240D01*
X55966D01*
X55441Y41765D01*
X75376Y44469D02*
X74851Y43944D01*
Y42895D01*
X75376Y42370D01*
X77475D01*
X78000Y42895D01*
Y43944D01*
X77475Y44469D01*
X78000Y45519D02*
Y46568D01*
Y46043D01*
X74851D01*
X75376Y45519D01*
X78000Y50242D02*
Y48142D01*
X75901Y50242D01*
X75376D01*
X74851Y49717D01*
Y48667D01*
X75376Y48142D01*
X78000Y52865D02*
X74851D01*
X76426Y51291D01*
Y53390D01*
X70526Y44619D02*
X70001Y44094D01*
Y43044D01*
X70526Y42520D01*
X72625D01*
X73150Y43044D01*
Y44094D01*
X72625Y44619D01*
X73150Y45668D02*
Y46718D01*
Y46193D01*
X70001D01*
X70526Y45668D01*
X73150Y50391D02*
Y48292D01*
X71051Y50391D01*
X70526D01*
X70001Y49866D01*
Y48817D01*
X70526Y48292D01*
X70001Y53540D02*
Y51441D01*
X71575D01*
X71051Y52490D01*
Y53015D01*
X71575Y53540D01*
X72625D01*
X73150Y53015D01*
Y51965D01*
X72625Y51441D01*
X75316Y19109D02*
X74791Y18584D01*
Y17535D01*
X75316Y17010D01*
X77415D01*
X77940Y17535D01*
Y18584D01*
X77415Y19109D01*
X77940Y20159D02*
Y21208D01*
Y20683D01*
X74791D01*
X75316Y20159D01*
X77940Y24882D02*
Y22782D01*
X75841Y24882D01*
X75316D01*
X74791Y24357D01*
Y23307D01*
X75316Y22782D01*
X74791Y28030D02*
X75316Y26981D01*
X76366Y25931D01*
X77415D01*
X77940Y26456D01*
Y27505D01*
X77415Y28030D01*
X76890D01*
X76366Y27505D01*
Y25931D01*
X70716Y18949D02*
X70191Y18424D01*
Y17375D01*
X70716Y16850D01*
X72815D01*
X73340Y17375D01*
Y18424D01*
X72815Y18949D01*
X73340Y19999D02*
Y21048D01*
Y20523D01*
X70191D01*
X70716Y19999D01*
X73340Y24722D02*
Y22622D01*
X71241Y24722D01*
X70716D01*
X70191Y24197D01*
Y23147D01*
X70716Y22622D01*
X70191Y25771D02*
Y27870D01*
X70716D01*
X72815Y25771D01*
X73340D01*
X28622Y75109D02*
Y71961D01*
X30196D01*
X30721Y72486D01*
Y74585D01*
X30196Y75109D01*
X28622D01*
X31771D02*
X33870D01*
Y74585D01*
X31771Y72486D01*
Y71961D01*
X305788Y95984D02*
X308937D01*
Y97559D01*
X308412Y98083D01*
X306313D01*
X305788Y97559D01*
Y95984D01*
X306313Y99133D02*
X305788Y99658D01*
Y100707D01*
X306313Y101232D01*
X306838D01*
X307363Y100707D01*
X307888Y101232D01*
X308412D01*
X308937Y100707D01*
Y99658D01*
X308412Y99133D01*
X307888D01*
X307363Y99658D01*
X306838Y99133D01*
X306313D01*
X307363Y99658D02*
Y100707D01*
X290080Y95866D02*
X293228D01*
Y97440D01*
X292704Y97965D01*
X290604D01*
X290080Y97440D01*
Y95866D01*
X292704Y99015D02*
X293228Y99540D01*
Y100589D01*
X292704Y101114D01*
X290604D01*
X290080Y100589D01*
Y99540D01*
X290604Y99015D01*
X291129D01*
X291654Y99540D01*
Y101114D01*
X274371Y95000D02*
X277520D01*
Y96574D01*
X276995Y97099D01*
X274896D01*
X274371Y96574D01*
Y95000D01*
X277520Y98149D02*
Y99198D01*
Y98673D01*
X274371D01*
X274896Y98149D01*
Y100772D02*
X274371Y101297D01*
Y102347D01*
X274896Y102872D01*
X276995D01*
X277520Y102347D01*
Y101297D01*
X276995Y100772D01*
X274896D01*
X28122Y136609D02*
Y133461D01*
X29696D01*
X30221Y133985D01*
Y136084D01*
X29696Y136609D01*
X28122D01*
X31271Y133461D02*
X32320D01*
X31795D01*
Y136609D01*
X31271Y136084D01*
X33895Y133461D02*
X34944D01*
X34419D01*
Y136609D01*
X33895Y136084D01*
X273713Y179723D02*
X272664D01*
X273188D01*
Y177100D01*
X272664Y176575D01*
X272139D01*
X271614Y177100D01*
X276862Y176575D02*
X274763D01*
X276862Y178674D01*
Y179199D01*
X276337Y179723D01*
X275288D01*
X274763Y179199D01*
X277911D02*
X278436Y179723D01*
X279486D01*
X280010Y179199D01*
Y178674D01*
X279486Y178149D01*
X280010Y177624D01*
Y177100D01*
X279486Y176575D01*
X278436D01*
X277911Y177100D01*
Y177624D01*
X278436Y178149D01*
X277911Y178674D01*
Y179199D01*
X278436Y178149D02*
X279486D01*
X249651Y144290D02*
X252800D01*
Y146389D01*
Y147439D02*
Y148488D01*
Y147963D01*
X249651D01*
X250176Y147439D01*
X237717Y91967D02*
Y88819D01*
X239816D01*
X242964D02*
X240865D01*
X242964Y90918D01*
Y91443D01*
X242439Y91967D01*
X241390D01*
X240865Y91443D01*
X372244Y80629D02*
Y77480D01*
X374343D01*
X375393Y80629D02*
X377492D01*
Y80104D01*
X375393Y78005D01*
Y77480D01*
X146103Y144528D02*
X149252D01*
Y146627D01*
X148727Y147676D02*
X149252Y148201D01*
Y149250D01*
X148727Y149775D01*
X146628D01*
X146103Y149250D01*
Y148201D01*
X146628Y147676D01*
X147153D01*
X147678Y148201D01*
Y149775D01*
X202291Y18380D02*
X205440D01*
Y20479D01*
Y21529D02*
Y22578D01*
Y22053D01*
X202291D01*
X202816Y21529D01*
Y24152D02*
X202291Y24677D01*
Y25727D01*
X202816Y26252D01*
X204915D01*
X205440Y25727D01*
Y24677D01*
X204915Y24152D01*
X202816D01*
X105722Y73409D02*
Y70261D01*
X107821D01*
X108871D02*
X109920D01*
X109396D01*
Y73409D01*
X108871Y72885D01*
X111495Y70261D02*
X112544D01*
X112019D01*
Y73409D01*
X111495Y72885D01*
X113173Y58661D02*
X116322D01*
Y60760D01*
Y61809D02*
Y62859D01*
Y62334D01*
X113173D01*
X113698Y61809D01*
X116322Y66532D02*
Y64433D01*
X114223Y66532D01*
X113698D01*
X113173Y66007D01*
Y64958D01*
X113698Y64433D01*
X119055Y61259D02*
Y58110D01*
X121154D01*
X122204D02*
X123253D01*
X122729D01*
Y61259D01*
X122204Y60734D01*
X124828D02*
X125352Y61259D01*
X126402D01*
X126927Y60734D01*
Y60209D01*
X126402Y59684D01*
X125877D01*
X126402D01*
X126927Y59160D01*
Y58635D01*
X126402Y58110D01*
X125352D01*
X124828Y58635D01*
X135371Y54400D02*
X138520D01*
Y56499D01*
Y57549D02*
Y58598D01*
Y58073D01*
X135371D01*
X135896Y57549D01*
X138520Y61747D02*
X135371D01*
X136946Y60172D01*
Y62271D01*
X167941Y23410D02*
X171090D01*
Y25509D01*
Y26559D02*
Y27608D01*
Y27083D01*
X167941D01*
X168466Y26559D01*
X167941Y31282D02*
Y29182D01*
X169516D01*
X168991Y30232D01*
Y30757D01*
X169516Y31282D01*
X170565D01*
X171090Y30757D01*
Y29707D01*
X170565Y29182D01*
X324170Y183429D02*
Y180280D01*
X326269D01*
X327319D02*
X328368D01*
X327843D01*
Y183429D01*
X327319Y182904D01*
X332042Y183429D02*
X330992Y182904D01*
X329942Y181854D01*
Y180805D01*
X330467Y180280D01*
X331517D01*
X332042Y180805D01*
Y181330D01*
X331517Y181854D01*
X329942D01*
X146790Y182939D02*
Y179790D01*
X148889D01*
X149939D02*
X150988D01*
X150463D01*
Y182939D01*
X149939Y182414D01*
X152562Y182939D02*
X154662D01*
Y182414D01*
X152562Y180315D01*
Y179790D01*
X185511Y69580D02*
X188660D01*
Y71679D01*
Y72729D02*
Y73778D01*
Y73253D01*
X185511D01*
X186036Y72729D01*
Y75352D02*
X185511Y75877D01*
Y76927D01*
X186036Y77451D01*
X186561D01*
X187086Y76927D01*
X187610Y77451D01*
X188135D01*
X188660Y76927D01*
Y75877D01*
X188135Y75352D01*
X187610D01*
X187086Y75877D01*
X186561Y75352D01*
X186036D01*
X187086Y75877D02*
Y76927D01*
X135981Y94210D02*
X139130D01*
Y96309D01*
Y99458D02*
Y97359D01*
X137031Y99458D01*
X136506D01*
X135981Y98933D01*
Y97883D01*
X136506Y97359D01*
Y100507D02*
X135981Y101032D01*
Y102082D01*
X136506Y102606D01*
X138605D01*
X139130Y102082D01*
Y101032D01*
X138605Y100507D01*
X136506D01*
X154030Y97799D02*
Y94650D01*
X156129D01*
X159278D02*
X157179D01*
X159278Y96749D01*
Y97274D01*
X158753Y97799D01*
X157703D01*
X157179Y97274D01*
X160327Y94650D02*
X161377D01*
X160852D01*
Y97799D01*
X160327Y97274D01*
X50490Y51461D02*
X53639D01*
Y53560D01*
Y56708D02*
Y54609D01*
X51540Y56708D01*
X51015D01*
X50490Y56184D01*
Y55134D01*
X51015Y54609D01*
Y57758D02*
X50490Y58283D01*
Y59332D01*
X51015Y59857D01*
X51540D01*
X52065Y59332D01*
Y58807D01*
Y59332D01*
X52589Y59857D01*
X53114D01*
X53639Y59332D01*
Y58283D01*
X53114Y57758D01*
X362099Y171613D02*
X361050D01*
X361574D01*
Y168989D01*
X361050Y168465D01*
X360525D01*
X360000Y168989D01*
X363149Y171088D02*
X363673Y171613D01*
X364723D01*
X365248Y171088D01*
Y170564D01*
X364723Y170039D01*
X364198D01*
X364723D01*
X365248Y169514D01*
Y168989D01*
X364723Y168465D01*
X363673D01*
X363149Y168989D01*
X294304Y179802D02*
X293254D01*
X293779D01*
Y177178D01*
X293254Y176654D01*
X292729D01*
X292205Y177178D01*
X297452Y179802D02*
X295353D01*
Y178228D01*
X296403Y178753D01*
X296928D01*
X297452Y178228D01*
Y177178D01*
X296928Y176654D01*
X295878D01*
X295353Y177178D01*
X173740Y27283D02*
Y30432D01*
X175314D01*
X175839Y29907D01*
Y28858D01*
X175314Y28333D01*
X173740D01*
X178988Y30432D02*
X176889D01*
Y28858D01*
X177938Y29383D01*
X178463D01*
X178988Y28858D01*
Y27808D01*
X178463Y27283D01*
X177413D01*
X176889Y27808D01*
X217520Y35630D02*
Y38778D01*
X219094D01*
X219619Y38254D01*
Y37204D01*
X219094Y36680D01*
X217520D01*
X222767Y38778D02*
X221718Y38254D01*
X220668Y37204D01*
Y36155D01*
X221193Y35630D01*
X222243D01*
X222767Y36155D01*
Y36680D01*
X222243Y37204D01*
X220668D01*
X195910Y68340D02*
Y71489D01*
X197484D01*
X198009Y70964D01*
Y69914D01*
X197484Y69389D01*
X195910D01*
X196959D02*
X198009Y68340D01*
X199059D02*
X200108D01*
X199583D01*
Y71489D01*
X199059Y70964D01*
X183110Y75480D02*
X179961D01*
Y77054D01*
X180486Y77579D01*
X181536D01*
X182061Y77054D01*
Y75480D01*
Y76530D02*
X183110Y77579D01*
Y80203D02*
X179961D01*
X181536Y78629D01*
Y80728D01*
X212280Y139830D02*
X209131D01*
Y141404D01*
X209656Y141929D01*
X210706D01*
X211230Y141404D01*
Y139830D01*
Y140879D02*
X212280Y141929D01*
X209131Y145078D02*
Y142979D01*
X210706D01*
X210181Y144028D01*
Y144553D01*
X210706Y145078D01*
X211755D01*
X212280Y144553D01*
Y143503D01*
X211755Y142979D01*
X226140Y49820D02*
X222991D01*
Y51394D01*
X223516Y51919D01*
X224566D01*
X225091Y51394D01*
Y49820D01*
Y50870D02*
X226140Y51919D01*
X223516Y52969D02*
X222991Y53493D01*
Y54543D01*
X223516Y55068D01*
X224041D01*
X224566Y54543D01*
Y54018D01*
Y54543D01*
X225091Y55068D01*
X225615D01*
X226140Y54543D01*
Y53493D01*
X225615Y52969D01*
X222991Y58216D02*
Y56117D01*
X224566D01*
X224041Y57167D01*
Y57692D01*
X224566Y58216D01*
X225615D01*
X226140Y57692D01*
Y56642D01*
X225615Y56117D01*
X239740Y51430D02*
X236591D01*
Y53004D01*
X237116Y53529D01*
X238166D01*
X238690Y53004D01*
Y51430D01*
Y52479D02*
X239740Y53529D01*
X237116Y54579D02*
X236591Y55103D01*
Y56153D01*
X237116Y56678D01*
X237641D01*
X238166Y56153D01*
Y55628D01*
Y56153D01*
X238690Y56678D01*
X239215D01*
X239740Y56153D01*
Y55103D01*
X239215Y54579D01*
X236591Y59826D02*
X237116Y58777D01*
X238166Y57727D01*
X239215D01*
X239740Y58252D01*
Y59302D01*
X239215Y59826D01*
X238690D01*
X238166Y59302D01*
Y57727D01*
X214480Y43030D02*
Y46179D01*
X216054D01*
X216579Y45654D01*
Y44604D01*
X216054Y44080D01*
X214480D01*
X215529D02*
X216579Y43030D01*
X217629Y45654D02*
X218153Y46179D01*
X219203D01*
X219728Y45654D01*
Y45129D01*
X219203Y44604D01*
X218678D01*
X219203D01*
X219728Y44080D01*
Y43555D01*
X219203Y43030D01*
X218153D01*
X217629Y43555D01*
X220777Y46179D02*
X222876D01*
Y45654D01*
X220777Y43555D01*
Y43030D01*
X94803Y30433D02*
Y33582D01*
X96377D01*
X96902Y33057D01*
Y32007D01*
X96377Y31483D01*
X94803D01*
X95853D02*
X96902Y30433D01*
X97952Y33057D02*
X98476Y33582D01*
X99526D01*
X100051Y33057D01*
Y32532D01*
X99526Y32007D01*
X99001D01*
X99526D01*
X100051Y31483D01*
Y30958D01*
X99526Y30433D01*
X98476D01*
X97952Y30958D01*
X101100D02*
X101625Y30433D01*
X102675D01*
X103199Y30958D01*
Y33057D01*
X102675Y33582D01*
X101625D01*
X101100Y33057D01*
Y32532D01*
X101625Y32007D01*
X103199D01*
X103490Y11200D02*
Y14349D01*
X105064D01*
X105589Y13824D01*
Y12774D01*
X105064Y12250D01*
X103490D01*
X104540D02*
X105589Y11200D01*
X108213D02*
Y14349D01*
X106639Y12774D01*
X108738D01*
X109787Y11200D02*
X110837D01*
X110312D01*
Y14349D01*
X109787Y13824D01*
X323222Y165061D02*
X320074D01*
Y166635D01*
X320598Y167160D01*
X321648D01*
X322173Y166635D01*
Y165061D01*
Y166110D02*
X323222Y167160D01*
Y169784D02*
X320074D01*
X321648Y168209D01*
Y170308D01*
X323222Y173457D02*
Y171358D01*
X321123Y173457D01*
X320598D01*
X320074Y172932D01*
Y171883D01*
X320598Y171358D01*
X276732Y8307D02*
Y11456D01*
X278307D01*
X278831Y10931D01*
Y9881D01*
X278307Y9357D01*
X276732D01*
X277782D02*
X278831Y8307D01*
X281455D02*
Y11456D01*
X279881Y9881D01*
X281980D01*
X284604Y8307D02*
Y11456D01*
X283030Y9881D01*
X285128D01*
X159240Y176500D02*
X156091D01*
Y178074D01*
X156616Y178599D01*
X157666D01*
X158191Y178074D01*
Y176500D01*
Y177550D02*
X159240Y178599D01*
Y181223D02*
X156091D01*
X157666Y179649D01*
Y181748D01*
X156091Y184896D02*
Y182797D01*
X157666D01*
X157141Y183847D01*
Y184371D01*
X157666Y184896D01*
X158715D01*
X159240Y184371D01*
Y183322D01*
X158715Y182797D01*
X211320Y47820D02*
Y50969D01*
X212894D01*
X213419Y50444D01*
Y49394D01*
X212894Y48869D01*
X211320D01*
X212369D02*
X213419Y47820D01*
X216043D02*
Y50969D01*
X214469Y49394D01*
X216568D01*
X219716Y50969D02*
X218667Y50444D01*
X217617Y49394D01*
Y48345D01*
X218142Y47820D01*
X219192D01*
X219716Y48345D01*
Y48869D01*
X219192Y49394D01*
X217617D01*
X152756Y89842D02*
Y92991D01*
X154330D01*
X154855Y92466D01*
Y91417D01*
X154330Y90892D01*
X152756D01*
X153805D02*
X154855Y89842D01*
X158004Y92991D02*
X155904D01*
Y91417D01*
X156954Y91942D01*
X157479D01*
X158004Y91417D01*
Y90367D01*
X157479Y89842D01*
X156429D01*
X155904Y90367D01*
X159053Y92466D02*
X159578Y92991D01*
X160627D01*
X161152Y92466D01*
Y90367D01*
X160627Y89842D01*
X159578D01*
X159053Y90367D01*
Y92466D01*
X377611Y70655D02*
X377086Y71180D01*
X376037D01*
X375512Y70655D01*
Y70131D01*
X376037Y69606D01*
X377086D01*
X377611Y69081D01*
Y68556D01*
X377086Y68032D01*
X376037D01*
X375512Y68556D01*
X380760Y68032D02*
X378660D01*
X380760Y70131D01*
Y70655D01*
X380235Y71180D01*
X379185D01*
X378660Y70655D01*
X173921Y183185D02*
X173396Y183709D01*
X172347D01*
X171822Y183185D01*
Y182660D01*
X172347Y182135D01*
X173396D01*
X173921Y181610D01*
Y181086D01*
X173396Y180561D01*
X172347D01*
X171822Y181086D01*
X174971Y183185D02*
X175496Y183709D01*
X176545D01*
X177070Y183185D01*
Y182660D01*
X176545Y182135D01*
X176020D01*
X176545D01*
X177070Y181610D01*
Y181086D01*
X176545Y180561D01*
X175496D01*
X174971Y181086D01*
X207326Y48359D02*
X206801Y47834D01*
Y46785D01*
X207326Y46260D01*
X207851D01*
X208376Y46785D01*
Y47834D01*
X208900Y48359D01*
X209425D01*
X209950Y47834D01*
Y46785D01*
X209425Y46260D01*
X209950Y50983D02*
X206801D01*
X208376Y49409D01*
Y51508D01*
X64225Y146088D02*
X63700Y146613D01*
X62651D01*
X62126Y146088D01*
Y145564D01*
X62651Y145039D01*
X63700D01*
X64225Y144514D01*
Y143989D01*
X63700Y143465D01*
X62651D01*
X62126Y143989D01*
X67374Y146613D02*
X65275D01*
Y145039D01*
X66324Y145564D01*
X66849D01*
X67374Y145039D01*
Y143989D01*
X66849Y143465D01*
X65799D01*
X65275Y143989D01*
X238222Y68309D02*
X240321D01*
X239272D01*
Y65161D01*
X241371Y67785D02*
X241896Y68309D01*
X242945D01*
X243470Y67785D01*
Y67260D01*
X242945Y66735D01*
X242420D01*
X242945D01*
X243470Y66210D01*
Y65685D01*
X242945Y65161D01*
X241896D01*
X241371Y65685D01*
X111024Y94841D02*
X113123D01*
X112073D01*
Y91693D01*
X115746D02*
Y94841D01*
X114172Y93267D01*
X116271D01*
X98583Y79645D02*
X100682D01*
X99632D01*
Y76496D01*
X103830Y79645D02*
X101731D01*
Y78070D01*
X102781Y78595D01*
X103306D01*
X103830Y78070D01*
Y77021D01*
X103306Y76496D01*
X102256D01*
X101731Y77021D01*
X87122Y168609D02*
X89221D01*
X88172D01*
Y165461D01*
X92370Y168609D02*
X91320Y168085D01*
X90271Y167035D01*
Y165986D01*
X90795Y165461D01*
X91845D01*
X92370Y165986D01*
Y166510D01*
X91845Y167035D01*
X90271D01*
X251260Y110511D02*
Y107887D01*
X251785Y107362D01*
X252834D01*
X253359Y107887D01*
Y110511D01*
X254408Y107362D02*
X255458D01*
X254933D01*
Y110511D01*
X254408Y109986D01*
X236575Y120865D02*
Y118241D01*
X237100Y117717D01*
X238149D01*
X238674Y118241D01*
Y120865D01*
X241822Y117717D02*
X239723D01*
X241822Y119816D01*
Y120340D01*
X241298Y120865D01*
X240248D01*
X239723Y120340D01*
X209660Y16299D02*
Y13675D01*
X210185Y13150D01*
X211234D01*
X211759Y13675D01*
Y16299D01*
X214908D02*
X212809D01*
Y14724D01*
X213858Y15249D01*
X214383D01*
X214908Y14724D01*
Y13675D01*
X214383Y13150D01*
X213333D01*
X212809Y13675D01*
X151890Y27283D02*
Y24659D01*
X152415Y24134D01*
X153464D01*
X153989Y24659D01*
Y27283D01*
X157137D02*
X156088Y26758D01*
X155038Y25708D01*
Y24659D01*
X155563Y24134D01*
X156613D01*
X157137Y24659D01*
Y25183D01*
X156613Y25708D01*
X155038D01*
X285622Y38009D02*
Y35386D01*
X286147Y34861D01*
X287196D01*
X287721Y35386D01*
Y38009D01*
X288771D02*
X290870D01*
Y37484D01*
X288771Y35386D01*
Y34861D01*
X350276Y167282D02*
Y164659D01*
X350800Y164134D01*
X351850D01*
X352375Y164659D01*
Y167282D01*
X353424Y166758D02*
X353949Y167282D01*
X354998D01*
X355523Y166758D01*
Y166233D01*
X354998Y165708D01*
X355523Y165183D01*
Y164659D01*
X354998Y164134D01*
X353949D01*
X353424Y164659D01*
Y165183D01*
X353949Y165708D01*
X353424Y166233D01*
Y166758D01*
X353949Y165708D02*
X354998D01*
X296410Y111392D02*
X295885Y111917D01*
X294836D01*
X294311Y111392D01*
Y109293D01*
X294836Y108769D01*
X295885D01*
X296410Y109293D01*
X299034Y108769D02*
Y111917D01*
X297460Y110343D01*
X299559D01*
X302707Y111917D02*
X301658Y111392D01*
X300608Y110343D01*
Y109293D01*
X301133Y108769D01*
X302182D01*
X302707Y109293D01*
Y109818D01*
X302182Y110343D01*
X300608D01*
X288858Y86338D02*
Y83189D01*
X290957D01*
X294106Y86338D02*
X293056Y85813D01*
X292007Y84763D01*
Y83714D01*
X292532Y83189D01*
X293581D01*
X294106Y83714D01*
Y84238D01*
X293581Y84763D01*
X292007D01*
X136850Y88346D02*
Y91495D01*
X138425D01*
X138950Y90970D01*
Y89921D01*
X138425Y89396D01*
X136850D01*
X139999Y90970D02*
X140524Y91495D01*
X141573D01*
X142098Y90970D01*
Y90446D01*
X141573Y89921D01*
X142098Y89396D01*
Y88871D01*
X141573Y88346D01*
X140524D01*
X139999Y88871D01*
Y89396D01*
X140524Y89921D01*
X139999Y90446D01*
Y90970D01*
X140524Y89921D02*
X141573D01*
X170547Y41994D02*
X170023Y42519D01*
X168973D01*
X168448Y41994D01*
Y39895D01*
X168973Y39370D01*
X170023D01*
X170547Y39895D01*
X171597Y39370D02*
X172646D01*
X172122D01*
Y42519D01*
X171597Y41994D01*
X174221D02*
X174746Y42519D01*
X175795D01*
X176320Y41994D01*
Y39895D01*
X175795Y39370D01*
X174746D01*
X174221Y39895D01*
Y41994D01*
X178944Y39370D02*
Y42519D01*
X177369Y40944D01*
X179468D01*
X198830Y43719D02*
Y40570D01*
X200929D01*
X204078D02*
X201979D01*
X204078Y42669D01*
Y43194D01*
X203553Y43719D01*
X202503D01*
X201979Y43194D01*
X207226Y40570D02*
X205127D01*
X207226Y42669D01*
Y43194D01*
X206701Y43719D01*
X205652D01*
X205127Y43194D01*
X170929Y34370D02*
Y37519D01*
X172503D01*
X173028Y36994D01*
Y35944D01*
X172503Y35420D01*
X170929D01*
X171978D02*
X173028Y34370D01*
X174077Y36994D02*
X174602Y37519D01*
X175652D01*
X176176Y36994D01*
Y36469D01*
X175652Y35944D01*
X175127D01*
X175652D01*
X176176Y35420D01*
Y34895D01*
X175652Y34370D01*
X174602D01*
X174077Y34895D01*
X179325Y34370D02*
X177226D01*
X179325Y36469D01*
Y36994D01*
X178800Y37519D01*
X177751D01*
X177226Y36994D01*
X171587Y52742D02*
X171063Y53267D01*
X170013D01*
X169488Y52742D01*
Y52217D01*
X170013Y51692D01*
X171063D01*
X171587Y51168D01*
Y50643D01*
X171063Y50118D01*
X170013D01*
X169488Y50643D01*
X174736Y53267D02*
X173686Y52742D01*
X172637Y51692D01*
Y50643D01*
X173162Y50118D01*
X174211D01*
X174736Y50643D01*
Y51168D01*
X174211Y51692D01*
X172637D01*
X175524Y64002D02*
X174999Y64526D01*
X173950D01*
X173425Y64002D01*
Y61903D01*
X173950Y61378D01*
X174999D01*
X175524Y61903D01*
X176574Y64002D02*
X177099Y64526D01*
X178148D01*
X178673Y64002D01*
Y63477D01*
X178148Y62952D01*
X177623D01*
X178148D01*
X178673Y62428D01*
Y61903D01*
X178148Y61378D01*
X177099D01*
X176574Y61903D01*
X196839Y54634D02*
X196314Y55159D01*
X195265D01*
X194740Y54634D01*
Y52535D01*
X195265Y52010D01*
X196314D01*
X196839Y52535D01*
X197889Y52010D02*
X198938D01*
X198413D01*
Y55159D01*
X197889Y54634D01*
X200512D02*
X201037Y55159D01*
X202087D01*
X202611Y54634D01*
Y52535D01*
X202087Y52010D01*
X201037D01*
X200512Y52535D01*
Y54634D01*
X203661D02*
X204186Y55159D01*
X205235D01*
X205760Y54634D01*
Y54109D01*
X205235Y53584D01*
X205760Y53060D01*
Y52535D01*
X205235Y52010D01*
X204186D01*
X203661Y52535D01*
Y53060D01*
X204186Y53584D01*
X203661Y54109D01*
Y54634D01*
X204186Y53584D02*
X205235D01*
X321891Y95236D02*
X325039D01*
Y96811D01*
X324515Y97335D01*
X322415D01*
X321891Y96811D01*
Y95236D01*
X325039Y98385D02*
Y99434D01*
Y98910D01*
X321891D01*
X322415Y98385D01*
Y101009D02*
X321891Y101533D01*
Y102583D01*
X322415Y103108D01*
X322940D01*
X323465Y102583D01*
Y102058D01*
Y102583D01*
X323990Y103108D01*
X324515D01*
X325039Y102583D01*
Y101533D01*
X324515Y101009D01*
X176705Y122755D02*
X175656D01*
X176181D01*
Y120131D01*
X175656Y119606D01*
X175131D01*
X174606Y120131D01*
X177755Y119606D02*
X178804D01*
X178280D01*
Y122755D01*
X177755Y122230D01*
X182478Y119606D02*
X180379D01*
X182478Y121705D01*
Y122230D01*
X181953Y122755D01*
X180903D01*
X180379Y122230D01*
X359698Y187715D02*
X358648D01*
X359173D01*
Y185092D01*
X358648Y184567D01*
X358123D01*
X357598Y185092D01*
X360747Y184567D02*
X361796D01*
X361272D01*
Y187715D01*
X360747Y187191D01*
X242376Y79519D02*
X241851Y78994D01*
Y77945D01*
X242376Y77420D01*
X244475D01*
X245000Y77945D01*
Y78994D01*
X244475Y79519D01*
Y80569D02*
X245000Y81093D01*
Y82143D01*
X244475Y82668D01*
X242376D01*
X241851Y82143D01*
Y81093D01*
X242376Y80569D01*
X242901D01*
X243426Y81093D01*
Y82668D01*
X33164Y91074D02*
X32639Y90549D01*
Y89499D01*
X33164Y88975D01*
X33688D01*
X34213Y89499D01*
Y90549D01*
X34738Y91074D01*
X35263D01*
X35787Y90549D01*
Y89499D01*
X35263Y88975D01*
X32639Y92123D02*
X35787D01*
X34213D01*
X33688Y92648D01*
Y93698D01*
X34213Y94222D01*
X35787D01*
Y95272D02*
Y96321D01*
Y95797D01*
X33688D01*
Y95272D01*
X35787Y99470D02*
Y98421D01*
X35263Y97896D01*
X34213D01*
X33688Y98421D01*
Y99470D01*
X34213Y99995D01*
X34738D01*
Y97896D01*
X35787Y101044D02*
Y102094D01*
Y101569D01*
X32639D01*
Y101044D01*
Y105767D02*
X35787D01*
Y104193D01*
X35263Y103668D01*
X34213D01*
X33688Y104193D01*
Y105767D01*
X35787Y106817D02*
Y107866D01*
Y107342D01*
X32639D01*
X33164Y106817D01*
X250849Y83039D02*
X249799D01*
X250324D01*
Y80415D01*
X249799Y79890D01*
X249275D01*
X248750Y80415D01*
X253998Y79890D02*
X251899D01*
X253998Y81989D01*
Y82514D01*
X253473Y83039D01*
X252423D01*
X251899Y82514D01*
X257146Y79890D02*
X255047D01*
X257146Y81989D01*
Y82514D01*
X256622Y83039D01*
X255572D01*
X255047Y82514D01*
X260061Y94549D02*
Y93499D01*
Y94024D01*
X262685D01*
X263210Y93499D01*
Y92975D01*
X262685Y92450D01*
X263210Y97698D02*
Y95599D01*
X261111Y97698D01*
X260586D01*
X260061Y97173D01*
Y96123D01*
X260586Y95599D01*
X263210Y98747D02*
Y99797D01*
Y99272D01*
X260061D01*
X260586Y98747D01*
X163831Y65038D02*
X162782D01*
X163307D01*
Y62414D01*
X162782Y61890D01*
X162257D01*
X161732Y62414D01*
X166980Y61890D02*
X164881D01*
X166980Y63989D01*
Y64514D01*
X166455Y65038D01*
X165406D01*
X164881Y64514D01*
X168029D02*
X168554Y65038D01*
X169604D01*
X170129Y64514D01*
Y62414D01*
X169604Y61890D01*
X168554D01*
X168029Y62414D01*
Y64514D01*
X133005Y176968D02*
X131955D01*
X132480D01*
Y174344D01*
X131955Y173819D01*
X131430D01*
X130905Y174344D01*
X134054Y173819D02*
X135104D01*
X134579D01*
Y176968D01*
X134054Y176443D01*
X136678Y174344D02*
X137203Y173819D01*
X138252D01*
X138777Y174344D01*
Y176443D01*
X138252Y176968D01*
X137203D01*
X136678Y176443D01*
Y175918D01*
X137203Y175393D01*
X138777D01*
X235499Y17249D02*
X234450D01*
X234974D01*
Y14625D01*
X234450Y14100D01*
X233925D01*
X233400Y14625D01*
X236549Y14100D02*
X237598D01*
X237073D01*
Y17249D01*
X236549Y16724D01*
X239172Y17249D02*
X241271D01*
Y16724D01*
X239172Y14625D01*
Y14100D01*
X64745Y172860D02*
X63695D01*
X64220D01*
Y170237D01*
X63695Y169712D01*
X63170D01*
X62646Y170237D01*
X65794Y169712D02*
X66844D01*
X66319D01*
Y172860D01*
X65794Y172336D01*
X70517Y172860D02*
X69468Y172336D01*
X68418Y171286D01*
Y170237D01*
X68943Y169712D01*
X69992D01*
X70517Y170237D01*
Y170761D01*
X69992Y171286D01*
X68418D01*
X181151Y84519D02*
Y83469D01*
Y83994D01*
X183775D01*
X184300Y83469D01*
Y82945D01*
X183775Y82420D01*
X184300Y85569D02*
Y86618D01*
Y86093D01*
X181151D01*
X181676Y85569D01*
X184300Y88192D02*
Y89242D01*
Y88717D01*
X181151D01*
X181676Y88192D01*
X85800Y16023D02*
X84750D01*
X85275D01*
Y13399D01*
X84750Y12874D01*
X84226D01*
X83701Y13399D01*
X86849D02*
X87374Y12874D01*
X88424D01*
X88948Y13399D01*
Y15498D01*
X88424Y16023D01*
X87374D01*
X86849Y15498D01*
Y14973D01*
X87374Y14448D01*
X88948D01*
X170979Y112364D02*
X170454Y112889D01*
X169405D01*
X168880Y112364D01*
Y110265D01*
X169405Y109740D01*
X170454D01*
X170979Y110265D01*
X172029Y109740D02*
X173078D01*
X172553D01*
Y112889D01*
X172029Y112364D01*
X174652D02*
X175177Y112889D01*
X176227D01*
X176751Y112364D01*
Y110265D01*
X176227Y109740D01*
X175177D01*
X174652Y110265D01*
Y112364D01*
X177801D02*
X178326Y112889D01*
X179375D01*
X179900Y112364D01*
Y110265D01*
X179375Y109740D01*
X178326D01*
X177801Y110265D01*
Y112364D01*
X172169Y107504D02*
X171644Y108029D01*
X170595D01*
X170070Y107504D01*
Y105405D01*
X170595Y104880D01*
X171644D01*
X172169Y105405D01*
X173219Y104880D02*
X174268D01*
X173743D01*
Y108029D01*
X173219Y107504D01*
X175842Y104880D02*
X176892D01*
X176367D01*
Y108029D01*
X175842Y107504D01*
X178466Y104880D02*
X179516D01*
X178991D01*
Y108029D01*
X178466Y107504D01*
X153410Y104970D02*
Y108119D01*
X154984D01*
X155509Y107594D01*
Y106544D01*
X154984Y106019D01*
X153410D01*
X154460D02*
X155509Y104970D01*
X158658D02*
X156559D01*
X158658Y107069D01*
Y107594D01*
X158133Y108119D01*
X157083D01*
X156559Y107594D01*
X278301Y163879D02*
Y162829D01*
Y163354D01*
X280925D01*
X281450Y162829D01*
Y162305D01*
X280925Y161780D01*
X281450Y164929D02*
Y165978D01*
Y165453D01*
X278301D01*
X278826Y164929D01*
Y167552D02*
X278301Y168077D01*
Y169127D01*
X278826Y169651D01*
X280925D01*
X281450Y169127D01*
Y168077D01*
X280925Y167552D01*
X278826D01*
X271666Y116180D02*
X270617D01*
X271141D01*
Y113556D01*
X270617Y113031D01*
X270092D01*
X269567Y113556D01*
X274815Y113031D02*
X272715D01*
X274815Y115131D01*
Y115655D01*
X274290Y116180D01*
X273240D01*
X272715Y115655D01*
X277963Y116180D02*
X276914Y115655D01*
X275864Y114606D01*
Y113556D01*
X276389Y113031D01*
X277438D01*
X277963Y113556D01*
Y114081D01*
X277438Y114606D01*
X275864D01*
X273215Y76435D02*
X272165D01*
X272690D01*
Y73811D01*
X272165Y73286D01*
X271641D01*
X271116Y73811D01*
X276363Y73286D02*
X274265D01*
X276363Y75385D01*
Y75910D01*
X275839Y76435D01*
X274789D01*
X274265Y75910D01*
X277413Y76435D02*
X279512D01*
Y75910D01*
X277413Y73811D01*
Y73286D01*
X164769Y133394D02*
X164244Y133919D01*
X163195D01*
X162670Y133394D01*
Y131295D01*
X163195Y130770D01*
X164244D01*
X164769Y131295D01*
X165819D02*
X166343Y130770D01*
X167393D01*
X167918Y131295D01*
Y133394D01*
X167393Y133919D01*
X166343D01*
X165819Y133394D01*
Y132869D01*
X166343Y132344D01*
X167918D01*
X168967Y131295D02*
X169492Y130770D01*
X170542D01*
X171066Y131295D01*
Y133394D01*
X170542Y133919D01*
X169492D01*
X168967Y133394D01*
Y132869D01*
X169492Y132344D01*
X171066D01*
X5356Y93829D02*
X9291D01*
Y95797D01*
X8635Y96453D01*
X7979D01*
X7323Y95797D01*
Y93829D01*
Y95797D01*
X6667Y96453D01*
X6012D01*
X5356Y95797D01*
Y93829D01*
Y97765D02*
X9291D01*
X7323D01*
Y100388D01*
X5356D01*
X9291D01*
X5356Y101700D02*
Y103012D01*
Y102356D01*
X9291D01*
Y101700D01*
Y103012D01*
X196063Y162665D02*
Y160697D01*
X196719Y160041D01*
X197375Y160697D01*
X198031Y160041D01*
X198687Y160697D01*
Y162665D01*
X199999D02*
Y160697D01*
X200655Y160041D01*
X201311Y160697D01*
X201967Y160041D01*
X202623Y160697D01*
Y162665D01*
X203935D02*
Y160697D01*
X204590Y160041D01*
X205246Y160697D01*
X205902Y160041D01*
X206558Y160697D01*
Y162665D01*
X207870Y160041D02*
Y160697D01*
X208526D01*
Y160041D01*
X207870D01*
X211806Y162665D02*
X213118D01*
X213774Y162009D01*
Y160041D01*
X211806D01*
X211150Y160697D01*
X211806Y161353D01*
X213774D01*
X215086Y160041D02*
Y162665D01*
X215742D01*
X216398Y162009D01*
Y160041D01*
Y162009D01*
X217054Y162665D01*
X217710Y162009D01*
Y160041D01*
X219022D02*
X220989D01*
X221645Y160697D01*
X220989Y161353D01*
X219677D01*
X219022Y162009D01*
X219677Y162665D01*
X221645D01*
X222957Y160041D02*
Y160697D01*
X223613D01*
Y160041D01*
X222957D01*
X228861Y162665D02*
X226893D01*
X226237Y162009D01*
Y160697D01*
X226893Y160041D01*
X228861D01*
X230829D02*
X232141D01*
X232797Y160697D01*
Y162009D01*
X232141Y162665D01*
X230829D01*
X230173Y162009D01*
Y160697D01*
X230829Y160041D01*
X234108D02*
Y162665D01*
X234764D01*
X235420Y162009D01*
Y160041D01*
Y162009D01*
X236076Y162665D01*
X236732Y162009D01*
Y160041D01*
X196216Y152540D02*
Y155164D01*
X197528Y156476D01*
X198840Y155164D01*
Y152540D01*
Y154508D01*
X196216D01*
X202776Y155820D02*
X202120Y156476D01*
X200808D01*
X200152Y155820D01*
Y155164D01*
X200808Y154508D01*
X202120D01*
X202776Y153852D01*
Y153196D01*
X202120Y152540D01*
X200808D01*
X200152Y153196D01*
X204088Y155820D02*
X204744Y156476D01*
X206056D01*
X206712Y155820D01*
Y155164D01*
X206056Y154508D01*
X205400D01*
X206056D01*
X206712Y153852D01*
Y153196D01*
X206056Y152540D01*
X204744D01*
X204088Y153196D01*
X208024D02*
X208680Y152540D01*
X209992D01*
X210648Y153196D01*
Y155820D01*
X209992Y156476D01*
X208680D01*
X208024Y155820D01*
Y155164D01*
X208680Y154508D01*
X210648D01*
X211959Y153196D02*
X212615Y152540D01*
X213927D01*
X214583Y153196D01*
Y155820D01*
X213927Y156476D01*
X212615D01*
X211959Y155820D01*
Y155164D01*
X212615Y154508D01*
X214583D01*
X215895Y155820D02*
X216551Y156476D01*
X217863D01*
X218519Y155820D01*
Y155164D01*
X217863Y154508D01*
X217207D01*
X217863D01*
X218519Y153852D01*
Y153196D01*
X217863Y152540D01*
X216551D01*
X215895Y153196D01*
X223767Y152540D02*
Y156476D01*
X225734D01*
X226390Y155820D01*
Y154508D01*
X225734Y153852D01*
X223767D01*
X225079D02*
X226390Y152540D01*
X228358Y155164D02*
X229670D01*
X230326Y154508D01*
Y152540D01*
X228358D01*
X227702Y153196D01*
X228358Y153852D01*
X230326D01*
X234262Y156476D02*
Y152540D01*
X232294D01*
X231638Y153196D01*
Y154508D01*
X232294Y155164D01*
X234262D01*
X236230Y152540D02*
X237542D01*
X238198Y153196D01*
Y154508D01*
X237542Y155164D01*
X236230D01*
X235574Y154508D01*
Y153196D01*
X236230Y152540D01*
X239510D02*
Y155164D01*
X241477D01*
X242133Y154508D01*
Y152540D01*
X247381D02*
X248693D01*
X248037D01*
Y156476D01*
X247381Y155820D01*
X250661Y156476D02*
Y153852D01*
X251973Y152540D01*
X253285Y153852D01*
Y156476D01*
X254597Y155820D02*
X255253Y156476D01*
X256564D01*
X257220Y155820D01*
Y155164D01*
X256564Y154508D01*
X255908D01*
X256564D01*
X257220Y153852D01*
Y153196D01*
X256564Y152540D01*
X255253D01*
X254597Y153196D01*
X316891Y19173D02*
Y21797D01*
Y20485D01*
X320827D01*
X318203Y23109D02*
X320827Y25733D01*
X319515Y24421D01*
X318203Y25733D01*
X320827Y23109D01*
X371102Y19173D02*
X367167D01*
X368478Y20485D01*
X367167Y21797D01*
X371102D01*
X367823Y25733D02*
X367167Y25077D01*
Y23765D01*
X367823Y23109D01*
X370446D01*
X371102Y23765D01*
Y25077D01*
X370446Y25733D01*
X367167Y27045D02*
X371102D01*
Y29669D01*
Y30980D02*
X367167D01*
Y32948D01*
X367823Y33604D01*
X369134D01*
X369791Y32948D01*
Y30980D01*
Y32292D02*
X371102Y33604D01*
X346405Y21797D02*
X345749Y21141D01*
Y19829D01*
X346405Y19173D01*
X349029D01*
X349685Y19829D01*
Y21141D01*
X349029Y21797D01*
X347717D01*
Y20485D01*
X349685Y23109D02*
X345749D01*
X349685Y25733D01*
X345749D01*
Y27045D02*
X349685D01*
Y29013D01*
X349029Y29669D01*
X346405D01*
X345749Y29013D01*
Y27045D01*
X340984Y19173D02*
X337049D01*
Y21141D01*
X337704Y21797D01*
X339016D01*
X339672Y21141D01*
Y19173D01*
X337704Y25733D02*
X337049Y25077D01*
Y23765D01*
X337704Y23109D01*
X340328D01*
X340984Y23765D01*
Y25077D01*
X340328Y25733D01*
X339016D01*
Y24421D01*
X337049Y29669D02*
Y27045D01*
X340984D01*
Y29669D01*
X339016Y27045D02*
Y28357D01*
X337049Y30980D02*
X340984D01*
Y32948D01*
X340328Y33604D01*
X337704D01*
X337049Y32948D01*
Y30980D01*
X330906Y19173D02*
X326970D01*
Y21141D01*
X327626Y21797D01*
X328938D01*
X329594Y21141D01*
Y19173D01*
X327626Y25733D02*
X326970Y25077D01*
Y23765D01*
X327626Y23109D01*
X330250D01*
X330906Y23765D01*
Y25077D01*
X330250Y25733D01*
X328938D01*
Y24421D01*
X326970Y29669D02*
Y27045D01*
X330906D01*
Y29669D01*
X328938Y27045D02*
Y28357D01*
X327626Y33604D02*
X326970Y32948D01*
Y31636D01*
X327626Y30980D01*
X330250D01*
X330906Y31636D01*
Y32948D01*
X330250Y33604D01*
D154*
X136122Y155840D02*
Y156194D01*
X144311Y155840D02*
Y156194D01*
Y148005D02*
Y148360D01*
X136122Y148005D02*
Y148360D01*
X143366Y156194D02*
X144311D01*
X136122D02*
X137067D01*
X136122Y148005D02*
X137067D01*
X143366D02*
X144311D01*
X139762Y113255D02*
X140117D01*
X139762Y105066D02*
X140117D01*
X131928D02*
X132282D01*
X131928Y113255D02*
X132282D01*
X140117Y105066D02*
Y106011D01*
Y112310D02*
Y113255D01*
X131928Y112310D02*
Y113255D01*
Y105066D02*
Y106011D01*
X151017Y104866D02*
Y105220D01*
X142828Y104866D02*
Y105220D01*
Y112701D02*
Y113055D01*
X151017Y112701D02*
Y113055D01*
X142828Y104866D02*
X143772D01*
X150072D02*
X151017D01*
X150072Y113055D02*
X151017D01*
X142828D02*
X143772D01*
X161928Y78966D02*
X162282D01*
X161928Y87155D02*
X162282D01*
X169762D02*
X170117D01*
X169762Y78966D02*
X170117D01*
X161928Y86210D02*
Y87155D01*
Y78966D02*
Y79911D01*
X170117Y78966D02*
Y79911D01*
Y86210D02*
Y87155D01*
X59519Y59973D02*
X59874D01*
X59519Y68162D02*
X59874D01*
X67354D02*
X67708D01*
X67354Y59973D02*
X67708D01*
X59519Y67217D02*
Y68162D01*
Y59973D02*
Y60918D01*
X67708Y59973D02*
Y60918D01*
Y67217D02*
Y68162D01*
X59519Y34430D02*
X59874D01*
X59519Y42619D02*
X59874D01*
X67354D02*
X67708D01*
X67354Y34430D02*
X67708D01*
X59519Y41674D02*
Y42619D01*
Y34430D02*
Y35375D01*
X67708Y34430D02*
Y35375D01*
Y41674D02*
Y42619D01*
X52393Y156303D02*
X53088D01*
X52393Y155603D02*
Y156303D01*
X60793Y155608D02*
Y156303D01*
X60093D02*
X60793D01*
X60099Y147903D02*
X60793D01*
Y148603D01*
X52393Y147908D02*
X53093D01*
X52393D02*
Y148603D01*
D155*
X338976Y52244D02*
X360630D01*
X338976Y41221D02*
X360630D01*
X338976Y51161D02*
Y52244D01*
X360630Y51161D02*
Y52244D01*
X338976Y41221D02*
Y42303D01*
X360630Y41221D02*
Y42303D01*
X331024Y98740D02*
Y120394D01*
X342047Y98740D02*
Y120394D01*
X331024Y98740D02*
X332106D01*
X331024Y120394D02*
X332106D01*
X340965Y98740D02*
X342047D01*
X340965Y120394D02*
X342047D01*
X336910Y133622D02*
Y147303D01*
X315453Y133622D02*
Y147303D01*
X281575Y139291D02*
Y148150D01*
X284724Y135945D02*
X306772D01*
X284724Y151299D02*
X306772D01*
Y135945D02*
Y137815D01*
X284724Y135945D02*
Y137815D01*
X306772Y149429D02*
Y151299D01*
X284724Y149429D02*
Y151299D01*
X211264Y78428D02*
X210871Y78821D01*
X210084D01*
X209690Y78428D01*
Y76854D01*
X210084Y76460D01*
X210871D01*
X211264Y76854D01*
X212051Y76460D02*
X212839D01*
X212445D01*
Y78821D01*
X212051Y78428D01*
X215594Y78821D02*
X214806Y78428D01*
X214019Y77641D01*
Y76854D01*
X214413Y76460D01*
X215200D01*
X215594Y76854D01*
Y77247D01*
X215200Y77641D01*
X214019D01*
X205582Y75594D02*
X205189Y75201D01*
Y74414D01*
X205582Y74020D01*
X207156D01*
X207550Y74414D01*
Y75201D01*
X207156Y75594D01*
X207550Y76381D02*
Y77169D01*
Y76775D01*
X205189D01*
X205582Y76381D01*
Y78349D02*
X205189Y78743D01*
Y79530D01*
X205582Y79924D01*
X205976D01*
X206369Y79530D01*
X206763Y79924D01*
X207156D01*
X207550Y79530D01*
Y78743D01*
X207156Y78349D01*
X206763D01*
X206369Y78743D01*
X205976Y78349D01*
X205582D01*
X206369Y78743D02*
Y79530D01*
X200842Y97264D02*
X200449Y96871D01*
Y96084D01*
X200842Y95690D01*
X202416D01*
X202810Y96084D01*
Y96871D01*
X202416Y97264D01*
X202810Y99626D02*
Y98051D01*
X201236Y99626D01*
X200842D01*
X200449Y99232D01*
Y98445D01*
X200842Y98051D01*
X200449Y100413D02*
Y101987D01*
X200842D01*
X202416Y100413D01*
X202810D01*
X118724Y28718D02*
X118331Y29111D01*
X117544D01*
X117150Y28718D01*
Y27144D01*
X117544Y26750D01*
X118331D01*
X118724Y27144D01*
X121086Y29111D02*
X120299Y28718D01*
X119511Y27931D01*
Y27144D01*
X119905Y26750D01*
X120692D01*
X121086Y27144D01*
Y27537D01*
X120692Y27931D01*
X119511D01*
X121873Y27144D02*
X122266Y26750D01*
X123054D01*
X123447Y27144D01*
Y28718D01*
X123054Y29111D01*
X122266D01*
X121873Y28718D01*
Y28324D01*
X122266Y27931D01*
X123447D01*
X119354Y32988D02*
X118961Y33381D01*
X118174D01*
X117780Y32988D01*
Y31414D01*
X118174Y31020D01*
X118961D01*
X119354Y31414D01*
X120141Y33381D02*
X121716D01*
Y32988D01*
X120141Y31414D01*
Y31020D01*
X122503D02*
X123290D01*
X122897D01*
Y33381D01*
X122503Y32988D01*
X217492Y58504D02*
X217099Y58111D01*
Y57324D01*
X217492Y56930D01*
X219066D01*
X219460Y57324D01*
Y58111D01*
X219066Y58504D01*
Y59291D02*
X219460Y59685D01*
Y60472D01*
X219066Y60866D01*
X217492D01*
X217099Y60472D01*
Y59685D01*
X217492Y59291D01*
X217886D01*
X218279Y59685D01*
Y60866D01*
X217099Y63227D02*
Y61653D01*
X218279D01*
X217886Y62440D01*
Y62834D01*
X218279Y63227D01*
X219066D01*
X219460Y62834D01*
Y62046D01*
X219066Y61653D01*
X222669Y79220D02*
X225030D01*
Y80794D01*
Y82762D02*
X222669D01*
X223849Y81581D01*
Y83156D01*
X122520Y10280D02*
X120159D01*
Y11461D01*
X120552Y11854D01*
X121339D01*
X121733Y11461D01*
Y10280D01*
Y11067D02*
X122520Y11854D01*
X120552Y12641D02*
X120159Y13035D01*
Y13822D01*
X120552Y14216D01*
X120946D01*
X121339Y13822D01*
Y13429D01*
Y13822D01*
X121733Y14216D01*
X122126D01*
X122520Y13822D01*
Y13035D01*
X122126Y12641D01*
X120552Y15003D02*
X120159Y15396D01*
Y16184D01*
X120552Y16577D01*
X120946D01*
X121339Y16184D01*
X121733Y16577D01*
X122126D01*
X122520Y16184D01*
Y15396D01*
X122126Y15003D01*
X121733D01*
X121339Y15396D01*
X120946Y15003D01*
X120552D01*
X121339Y15396D02*
Y16184D01*
X266120Y20310D02*
X263759D01*
Y21491D01*
X264152Y21884D01*
X264939D01*
X265333Y21491D01*
Y20310D01*
Y21097D02*
X266120Y21884D01*
Y23852D02*
X263759D01*
X264939Y22671D01*
Y24246D01*
X264152Y25033D02*
X263759Y25426D01*
Y26214D01*
X264152Y26607D01*
X264546D01*
X264939Y26214D01*
Y25820D01*
Y26214D01*
X265333Y26607D01*
X265726D01*
X266120Y26214D01*
Y25426D01*
X265726Y25033D01*
D156*
X387658Y44866D02*
Y53527D01*
X385689Y49197D02*
X387658D01*
X371516Y38567D02*
X385295D01*
Y60220D01*
X371516Y38567D02*
Y60220D01*
X385295D01*
D157*
X89289Y82084D02*
X101889D01*
X89289D02*
Y88484D01*
X101889D01*
Y82084D02*
Y88484D01*
X251784Y132977D02*
X255184D01*
X251784Y112777D02*
X255184D01*
X259984Y118877D02*
Y126877D01*
X246984Y118877D02*
Y126877D01*
D158*
X140025Y187826D02*
X166825D01*
X246319D02*
X255332D01*
X226619D02*
X235632D01*
X206919D02*
X215932D01*
X187219D02*
X196232D01*
X110553D02*
X119565D01*
X90853D02*
X99865D01*
X71153D02*
X80165D01*
X51453D02*
X60465D01*
X39222Y166575D02*
Y175587D01*
X39253Y146875D02*
Y155887D01*
X39222Y127175D02*
Y136187D01*
Y58275D02*
Y67287D01*
Y38575D02*
Y47587D01*
Y18975D02*
Y27987D01*
X267550Y18975D02*
Y27987D01*
Y38575D02*
Y47587D01*
Y58275D02*
Y67287D01*
Y127175D02*
Y136187D01*
Y146875D02*
Y155887D01*
Y166575D02*
Y175587D01*
X246306Y6724D02*
X255319D01*
X226606D02*
X235619D01*
X206906D02*
X215919D01*
X187306D02*
X196319D01*
X110540D02*
X119553D01*
X90840D02*
X99853D01*
X71140D02*
X80153D01*
X51440D02*
X60453D01*
X267550Y77962D02*
Y116575D01*
X39222Y77962D02*
Y116575D01*
X140025Y6724D02*
X166825D01*
D159*
X35360Y65432D02*
Y69369D01*
Y127512D02*
Y131449D01*
X300013Y93776D02*
X303951D01*
X284226Y102869D02*
X288163D01*
X268478D02*
X272415D01*
X315761Y93972D02*
X319699D01*
D160*
X371496Y117638D02*
Y120137D01*
X372746D01*
X373162Y119720D01*
Y118887D01*
X372746Y118471D01*
X371496D01*
X373995Y117638D02*
X374828D01*
X374412D01*
Y120137D01*
X373995Y119720D01*
M02*
