%FSLAX25Y25*%
%MOIN*%
G70*
G01*
G75*
G04 Layer_Color=2752767*
%ADD10C,0.01102*%
%ADD11R,0.01969X0.01969*%
%ADD12C,0.06811*%
%ADD13R,0.02200X0.02200*%
%ADD14R,0.24016X0.12047*%
%ADD15R,0.04331X0.02559*%
%ADD16R,0.04331X0.02200*%
%ADD17R,0.02362X0.04724*%
%ADD18R,0.01882X0.01024*%
%ADD19R,0.06890X0.05709*%
%ADD20R,0.05709X0.06890*%
%ADD21R,0.20866X0.07874*%
%ADD22R,0.08858X0.08465*%
%ADD23R,0.03200X0.03800*%
%ADD24R,0.06000X0.12000*%
%ADD25R,0.18000X0.10000*%
%ADD26R,0.03800X0.03200*%
%ADD27R,0.02874X0.01181*%
%ADD28R,0.01181X0.02874*%
%ADD29R,0.01181X0.03268*%
%ADD30R,0.03268X0.01181*%
%ADD31R,0.12047X0.24016*%
%ADD32R,0.09685X0.03110*%
%ADD33R,0.13000X0.07874*%
%ADD34R,0.04803X0.02441*%
%ADD35R,0.01870X0.00984*%
%ADD36R,0.00984X0.01870*%
%ADD37R,0.04331X0.04331*%
%ADD38R,0.02559X0.04331*%
%ADD39R,0.02047X0.04331*%
%ADD40R,0.03937X0.01378*%
%ADD41R,0.01378X0.03937*%
%ADD42R,0.02402X0.04902*%
%ADD43R,0.04095X0.07087*%
%ADD44R,0.04331X0.05512*%
%ADD45R,0.02165X0.01181*%
%ADD46R,0.02953X0.01181*%
%ADD47R,0.01181X0.02165*%
%ADD48R,0.01181X0.02953*%
%ADD49R,0.20630X0.20630*%
%ADD50R,0.02079X0.01024*%
%ADD51R,0.01024X0.02079*%
%ADD52R,0.10630X0.10630*%
%ADD53R,0.04134X0.01772*%
%ADD54R,0.11575X0.14094*%
%ADD55R,0.06890X0.06890*%
%ADD56O,0.02362X0.01181*%
%ADD57R,0.10000X0.14000*%
%ADD58R,0.02441X0.04803*%
%ADD59R,0.10236X0.03937*%
%ADD60R,0.03937X0.10236*%
%ADD61R,0.12992X0.12992*%
%ADD62R,0.07874X0.09843*%
%ADD63R,0.07874X0.07874*%
%ADD64R,0.02756X0.02165*%
%ADD65R,0.10433X0.03150*%
%ADD66R,0.02165X0.02165*%
%ADD67R,0.02165X0.02756*%
%ADD68R,0.03150X0.10433*%
%ADD69R,0.02165X0.02165*%
%ADD70R,0.02756X0.01181*%
%ADD71R,0.02200X0.01575*%
%ADD72R,0.01575X0.02200*%
G04:AMPARAMS|DCode=73|XSize=22mil|YSize=15.75mil|CornerRadius=0mil|HoleSize=0mil|Usage=FLASHONLY|Rotation=83.000|XOffset=0mil|YOffset=0mil|HoleType=Round|Shape=Rectangle|*
%AMROTATEDRECTD73*
4,1,4,0.00648,-0.01188,-0.00916,-0.00996,-0.00648,0.01188,0.00916,0.00996,0.00648,-0.01188,0.0*
%
%ADD73ROTATEDRECTD73*%

G04:AMPARAMS|DCode=74|XSize=22mil|YSize=15.75mil|CornerRadius=0mil|HoleSize=0mil|Usage=FLASHONLY|Rotation=97.000|XOffset=0mil|YOffset=0mil|HoleType=Round|Shape=Rectangle|*
%AMROTATEDRECTD74*
4,1,4,0.00916,-0.00996,-0.00648,-0.01188,-0.00916,0.00996,0.00648,0.01188,0.00916,-0.00996,0.0*
%
%ADD74ROTATEDRECTD74*%

%ADD75R,0.01969X0.03543*%
%ADD76R,0.03543X0.01969*%
%ADD77R,0.01969X0.03347*%
%ADD78R,0.03347X0.01969*%
%ADD79R,0.06496X0.06496*%
%ADD80R,0.05906X0.05906*%
%ADD81R,0.05906X0.05906*%
%ADD82R,0.07874X0.31496*%
%ADD83C,0.01400*%
%ADD84C,0.01000*%
%ADD85C,0.07000*%
%ADD86C,0.02400*%
%ADD87C,0.01575*%
%ADD88C,0.01100*%
%ADD89C,0.07874*%
%ADD90C,0.02362*%
%ADD91C,0.09000*%
%ADD92C,0.02000*%
%ADD93C,0.02047*%
%ADD94C,0.01600*%
%ADD95C,0.01969*%
%ADD96C,0.01200*%
%ADD97C,0.05000*%
%ADD98C,0.03500*%
%ADD99C,0.02200*%
%ADD100C,0.00984*%
%ADD101R,0.12835X0.09900*%
%ADD102R,0.11900X0.24400*%
%ADD103R,0.10700X0.08011*%
%ADD104R,0.10800X0.14300*%
%ADD105R,0.14525X0.03200*%
%ADD106R,0.18522X0.03500*%
%ADD107R,0.00433X0.01700*%
%ADD108R,0.10800X0.20947*%
%ADD109R,0.12402X0.23701*%
%ADD110R,0.09900X0.12520*%
%ADD111R,0.13976X0.55984*%
%ADD112R,0.35039X0.34961*%
%ADD113C,0.06299*%
%ADD114R,0.06299X0.06299*%
%ADD115R,0.03937X0.03937*%
%ADD116C,0.03937*%
%ADD117R,0.03937X0.03937*%
%ADD118C,0.01400*%
%ADD119C,0.01200*%
%ADD120C,0.01800*%
%ADD121C,0.02000*%
%ADD122C,0.04000*%
%ADD123C,0.01969*%
%ADD124C,0.02598*%
%ADD125C,0.00787*%
%ADD126C,0.01000*%
%ADD127C,0.02500*%
%ADD128C,0.02362*%
%ADD129C,0.14961*%
%ADD130C,0.03000*%
%ADD131R,0.11900X0.14889*%
%ADD132C,0.06000*%
%ADD133R,0.01200X0.02200*%
%ADD134R,0.09843X0.05906*%
%ADD135R,0.05906X0.09843*%
%ADD136R,0.04921X0.01575*%
%ADD137R,0.04921X0.01575*%
%ADD138R,0.08661X0.05512*%
%ADD139R,0.26772X0.26772*%
%ADD140R,0.01378X0.03150*%
%ADD141R,0.03150X0.01378*%
%ADD142R,0.03543X0.01575*%
%ADD143R,0.01969X0.01969*%
%ADD144R,0.05118X0.03347*%
%ADD145C,0.00900*%
%ADD146C,0.02500*%
%ADD147R,0.01850X0.03340*%
%ADD148R,0.05908X0.03435*%
%ADD149R,0.09900X0.13110*%
%ADD150C,0.00394*%
%ADD151C,0.00827*%
%ADD152C,0.00800*%
%ADD153C,0.00787*%
%ADD154C,0.00315*%
%ADD155C,0.00591*%
%ADD156C,0.00787*%
%ADD157C,0.00394*%
%ADD158C,0.00400*%
%ADD159C,0.01378*%
%ADD160C,0.00600*%
%ADD161R,0.01181X0.02165*%
%ADD162R,0.01771X0.02165*%
%ADD163R,0.02165X0.01181*%
%ADD164R,0.02165X0.01771*%
%ADD165R,0.11221X0.13307*%
%ADD166R,0.11102X0.13661*%
%ADD167R,0.10827X0.12214*%
%ADD168R,0.12214X0.10827*%
%ADD169R,0.14902X0.56988*%
%ADD170R,0.35945X0.35886*%
%ADD171R,0.02769X0.02769*%
%ADD172C,0.07611*%
%ADD173R,0.04882X0.03110*%
%ADD174R,0.04882X0.02751*%
%ADD175R,0.02913X0.05276*%
%ADD176R,0.02433X0.01575*%
%ADD177R,0.07690X0.06509*%
%ADD178R,0.06509X0.07690*%
%ADD179R,0.21666X0.08674*%
%ADD180R,0.09658X0.09265*%
%ADD181R,0.03279X0.03879*%
%ADD182R,0.03268X0.01575*%
%ADD183R,0.01575X0.03268*%
%ADD184R,0.01575X0.03661*%
%ADD185R,0.03661X0.01575*%
%ADD186R,0.09764X0.03189*%
%ADD187R,0.05354X0.02992*%
%ADD188R,0.02185X0.01299*%
%ADD189R,0.01299X0.02185*%
%ADD190R,0.04646X0.04646*%
%ADD191R,0.03110X0.04882*%
%ADD192R,0.02598X0.04882*%
%ADD193R,0.04331X0.01772*%
%ADD194R,0.01772X0.04331*%
%ADD195R,0.03202X0.05702*%
%ADD196R,0.04895X0.07887*%
%ADD197R,0.05131X0.06312*%
%ADD198R,0.02559X0.01575*%
%ADD199R,0.03347X0.01575*%
%ADD200R,0.01575X0.02559*%
%ADD201R,0.01575X0.03347*%
%ADD202R,0.21181X0.21181*%
%ADD203R,0.02630X0.01575*%
%ADD204R,0.01575X0.02630*%
%ADD205R,0.11181X0.11181*%
%ADD206R,0.04685X0.02323*%
%ADD207R,0.11811X0.14331*%
%ADD208R,0.07284X0.07284*%
%ADD209O,0.02756X0.01575*%
%ADD210R,0.11430X0.11430*%
%ADD211R,0.02992X0.05354*%
%ADD212R,0.11036X0.04737*%
%ADD213R,0.04737X0.11036*%
%ADD214R,0.13792X0.13792*%
%ADD215R,0.08674X0.10642*%
%ADD216R,0.08674X0.08674*%
%ADD217R,0.03156X0.02565*%
%ADD218R,0.10835X0.03551*%
%ADD219R,0.02565X0.02565*%
%ADD220R,0.02565X0.03156*%
%ADD221R,0.03551X0.10835*%
%ADD222R,0.02565X0.02565*%
%ADD223R,0.03556X0.01981*%
%ADD224R,0.07296X0.07296*%
%ADD225R,0.06706X0.06706*%
%ADD226R,0.06706X0.06706*%
%ADD227R,0.08674X0.32296*%
%ADD228C,0.04737*%
%ADD229R,0.04737X0.04737*%
%ADD230R,0.04737X0.04737*%
%ADD231C,0.03398*%
%ADD232C,0.04800*%
%ADD233C,0.15761*%
%ADD234R,0.17600X0.17600*%
%ADD235R,0.10642X0.06706*%
%ADD236R,0.06706X0.10642*%
%ADD237R,0.05721X0.02375*%
%ADD238R,0.05721X0.02375*%
%ADD239R,0.27165X0.27165*%
%ADD240R,0.01772X0.03543*%
%ADD241R,0.03543X0.01772*%
%ADD242R,0.05918X0.04147*%
%ADD243R,0.03879X0.03279*%
%ADD244C,0.00500*%
%ADD245C,0.00667*%
D158*
X122302Y68858D02*
G03*
X122302Y68858I-1200J0D01*
G01*
X128208D02*
G03*
X128208Y68858I-1200J0D01*
G01*
X119350D02*
G03*
X119350Y68858I-1200J0D01*
G01*
X116397D02*
G03*
X116397Y68858I-1200J0D01*
G01*
X126161Y45276D02*
G03*
X126161Y45276I-1200J0D01*
G01*
X122302Y45354D02*
G03*
X122302Y45354I-1200J0D01*
G01*
X118287Y41653D02*
G03*
X118287Y41653I-1200J0D01*
G01*
X131003D02*
G03*
X131003Y41653I-1200J0D01*
G01*
X134250Y16850D02*
G03*
X134250Y16850I-1200J0D01*
G01*
X125255Y68858D02*
G03*
X125255Y68858I-1200J0D01*
G01*
X135322Y19861D02*
G03*
X135322Y19861I-1200J0D01*
G01*
X134222Y41661D02*
G03*
X134222Y41661I-1200J0D01*
G01*
X127222D02*
G03*
X127222Y41661I-1200J0D01*
G01*
X131022Y31461D02*
G03*
X131022Y31461I-1200J0D01*
G01*
X132022Y29161D02*
G03*
X132022Y29161I-1200J0D01*
G01*
X285947Y130261D02*
G03*
X285947Y130261I-1200J0D01*
G01*
X121122Y41661D02*
G03*
X121122Y41661I-1200J0D01*
G01*
X124172D02*
G03*
X124172Y41661I-1200J0D01*
G01*
X125750Y53250D02*
G03*
X125750Y53250I-1200J0D01*
G01*
X123150Y53180D02*
G03*
X123150Y53180I-1200J0D01*
G01*
D244*
X327022Y10861D02*
Y14861D01*
X331022D01*
Y10861D01*
X327022D01*
X337022D02*
Y14861D01*
X341022D01*
Y10861D01*
X337022D01*
X347022D02*
Y14861D01*
X351022D01*
Y10861D01*
X347022D01*
X357022D02*
Y14861D01*
X361022D01*
Y10861D01*
X357022D01*
X367022D02*
Y14861D01*
X371022D01*
Y10861D01*
X367022D01*
X317022D02*
Y14861D01*
X321022D01*
Y10861D01*
X317022D01*
X295722Y184161D02*
Y188161D01*
X299722D01*
Y184161D01*
X295722D01*
X305722D02*
Y188161D01*
X309722D01*
Y184161D01*
X305722D01*
X315722D02*
Y188161D01*
X319722D01*
Y184161D01*
X315722D01*
X284378Y184142D02*
Y188142D01*
X288378D01*
Y184142D01*
X284378D01*
X274378D02*
Y188142D01*
X278378D01*
Y184142D01*
X274378D01*
X150829Y107945D02*
X148828Y111945D01*
X152829D01*
X150829Y107945D01*
X153650Y106090D02*
X151650Y110090D01*
X155650D01*
X153650Y106090D01*
X168550Y87440D02*
X169550Y88440D01*
X170550D01*
X169550Y89440D01*
X170550Y90440D01*
X169550D01*
X168550Y91440D01*
X167550Y90440D01*
X166550D01*
X167550Y89440D01*
X166550Y88440D01*
X167550D01*
X168550Y87440D01*
X224610Y122720D02*
X225610Y123720D01*
X226610D01*
X225610Y124720D01*
X226610Y125720D01*
X225610D01*
X224610Y126720D01*
X223610Y125720D01*
X222610D01*
X223610Y124720D01*
X222610Y123720D01*
X223610D01*
X224610Y122720D01*
X147620Y112010D02*
X148620Y113010D01*
X149620D01*
X148620Y114010D01*
X149620Y115010D01*
X148620D01*
X147620Y116010D01*
X146620Y115010D01*
X145620D01*
X146620Y114010D01*
X145620Y113010D01*
X146620D01*
X147620Y112010D01*
X204500Y110250D02*
X205500Y111250D01*
X206500D01*
X205500Y112250D01*
X206500Y113250D01*
X205500D01*
X204500Y114250D01*
X203500Y113250D01*
X202500D01*
X203500Y112250D01*
X202500Y111250D01*
X203500D01*
X204500Y110250D01*
X204620Y101990D02*
X205620Y102990D01*
X206620D01*
X205620Y103990D01*
X206620Y104990D01*
X205620D01*
X204620Y105990D01*
X203620Y104990D01*
X202620D01*
X203620Y103990D01*
X202620Y102990D01*
X203620D01*
X204620Y101990D01*
X203150Y97630D02*
X204150Y98630D01*
X205150D01*
X204150Y99630D01*
X205150Y100630D01*
X204150D01*
X203150Y101630D01*
X202150Y100630D01*
X201150D01*
X202150Y99630D01*
X201150Y98630D01*
X202150D01*
X203150Y97630D01*
X64540Y56370D02*
X65540Y57370D01*
X66540D01*
X65540Y58370D01*
X66540Y59370D01*
X65540D01*
X64540Y60370D01*
X63540Y59370D01*
X62540D01*
X63540Y58370D01*
X62540Y57370D01*
X63540D01*
X64540Y56370D01*
X166024Y106976D02*
X167024Y107976D01*
X168024D01*
X167024Y108976D01*
X168024Y109976D01*
X167024D01*
X166024Y110976D01*
X165024Y109976D01*
X164024D01*
X165024Y108976D01*
X164024Y107976D01*
X165024D01*
X166024Y106976D01*
X159722Y103984D02*
X157722Y107984D01*
X161722D01*
X159722Y103984D01*
X162522D02*
X160522Y107984D01*
X164522D01*
X162522Y103984D01*
X332222Y134361D02*
X333222Y136361D01*
X332222Y138361D01*
X334222Y137361D01*
X336222Y138361D01*
X335222Y136361D01*
X336222Y134361D01*
X334222Y135361D01*
X332222Y134361D01*
Y144861D02*
X333222Y146861D01*
X332222Y148861D01*
X334222Y147861D01*
X336222Y148861D01*
X335222Y146861D01*
X336222Y144861D01*
X334222Y145861D01*
X332222Y144861D01*
X94589Y79934D02*
Y78934D01*
X96589D01*
Y79934D01*
X97589D01*
Y81934D01*
X96589D01*
Y82934D01*
X94589D01*
Y81934D01*
X93589D01*
Y79934D01*
X94589D01*
Y88635D02*
Y87635D01*
X96589D01*
Y88635D01*
X97589D01*
Y90635D01*
X96589D01*
Y91635D01*
X94589D01*
Y90635D01*
X93589D01*
Y88635D01*
X94589D01*
X210629Y110260D02*
X211629D01*
X212629Y111260D01*
X213629Y110260D01*
X214629D01*
Y111260D01*
X213629Y112260D01*
X214629Y113260D01*
Y114260D01*
X213629D01*
X212629Y113260D01*
X211629Y114260D01*
X210629D01*
Y113260D01*
X211629Y112260D01*
X210629Y111260D01*
Y110260D01*
X215354D02*
X216354D01*
X217354Y111260D01*
X218354Y110260D01*
X219354D01*
Y111260D01*
X218354Y112260D01*
X219354Y113260D01*
Y114260D01*
X218354D01*
X217354Y113260D01*
X216354Y114260D01*
X215354D01*
Y113260D01*
X216354Y112260D01*
X215354Y111260D01*
Y110260D01*
X210629Y105535D02*
X211629D01*
X212629Y106535D01*
X213629Y105535D01*
X214629D01*
Y106535D01*
X213629Y107535D01*
X214629Y108535D01*
Y109535D01*
X213629D01*
X212629Y108535D01*
X211629Y109535D01*
X210629D01*
Y108535D01*
X211629Y107535D01*
X210629Y106535D01*
Y105535D01*
X215354D02*
X216354D01*
X217354Y106535D01*
X218354Y105535D01*
X219354D01*
Y106535D01*
X218354Y107535D01*
X219354Y108535D01*
Y109535D01*
X218354D01*
X217354Y108535D01*
X216354Y109535D01*
X215354D01*
Y108535D01*
X216354Y107535D01*
X215354Y106535D01*
Y105535D01*
X220078D02*
X221078D01*
X222078Y106535D01*
X223078Y105535D01*
X224078D01*
Y106535D01*
X223078Y107535D01*
X224078Y108535D01*
Y109535D01*
X223078D01*
X222078Y108535D01*
X221078Y109535D01*
X220078D01*
Y108535D01*
X221078Y107535D01*
X220078Y106535D01*
Y105535D01*
X224802D02*
X225802D01*
X226802Y106535D01*
X227802Y105535D01*
X228802D01*
Y106535D01*
X227802Y107535D01*
X228802Y108535D01*
Y109535D01*
X227802D01*
X226802Y108535D01*
X225802Y109535D01*
X224802D01*
Y108535D01*
X225802Y107535D01*
X224802Y106535D01*
Y105535D01*
X210629Y100811D02*
X211629D01*
X212629Y101811D01*
X213629Y100811D01*
X214629D01*
Y101811D01*
X213629Y102811D01*
X214629Y103811D01*
Y104811D01*
X213629D01*
X212629Y103811D01*
X211629Y104811D01*
X210629D01*
Y103811D01*
X211629Y102811D01*
X210629Y101811D01*
Y100811D01*
X215354D02*
X216354D01*
X217354Y101811D01*
X218354Y100811D01*
X219354D01*
Y101811D01*
X218354Y102811D01*
X219354Y103811D01*
Y104811D01*
X218354D01*
X217354Y103811D01*
X216354Y104811D01*
X215354D01*
Y103811D01*
X216354Y102811D01*
X215354Y101811D01*
Y100811D01*
X220078D02*
X221078D01*
X222078Y101811D01*
X223078Y100811D01*
X224078D01*
Y101811D01*
X223078Y102811D01*
X224078Y103811D01*
Y104811D01*
X223078D01*
X222078Y103811D01*
X221078Y104811D01*
X220078D01*
Y103811D01*
X221078Y102811D01*
X220078Y101811D01*
Y100811D01*
X224802D02*
X225802D01*
X226802Y101811D01*
X227802Y100811D01*
X228802D01*
Y101811D01*
X227802Y102811D01*
X228802Y103811D01*
Y104811D01*
X227802D01*
X226802Y103811D01*
X225802Y104811D01*
X224802D01*
Y103811D01*
X225802Y102811D01*
X224802Y101811D01*
Y100811D01*
X210629Y96087D02*
X211629D01*
X212629Y97087D01*
X213629Y96087D01*
X214629D01*
Y97087D01*
X213629Y98087D01*
X214629Y99087D01*
Y100087D01*
X213629D01*
X212629Y99087D01*
X211629Y100087D01*
X210629D01*
Y99087D01*
X211629Y98087D01*
X210629Y97087D01*
Y96087D01*
X215354D02*
X216354D01*
X217354Y97087D01*
X218354Y96087D01*
X219354D01*
Y97087D01*
X218354Y98087D01*
X219354Y99087D01*
Y100087D01*
X218354D01*
X217354Y99087D01*
X216354Y100087D01*
X215354D01*
Y99087D01*
X216354Y98087D01*
X215354Y97087D01*
Y96087D01*
X220078D02*
X221078D01*
X222078Y97087D01*
X223078Y96087D01*
X224078D01*
Y97087D01*
X223078Y98087D01*
X224078Y99087D01*
Y100087D01*
X223078D01*
X222078Y99087D01*
X221078Y100087D01*
X220078D01*
Y99087D01*
X221078Y98087D01*
X220078Y97087D01*
Y96087D01*
X224802D02*
X225802D01*
X226802Y97087D01*
X227802Y96087D01*
X228802D01*
Y97087D01*
X227802Y98087D01*
X228802Y99087D01*
Y100087D01*
X227802D01*
X226802Y99087D01*
X225802Y100087D01*
X224802D01*
Y99087D01*
X225802Y98087D01*
X224802Y97087D01*
Y96087D01*
Y110260D02*
X225802D01*
X226802Y111260D01*
X227802Y110260D01*
X228802D01*
Y111260D01*
X227802Y112260D01*
X228802Y113260D01*
Y114260D01*
X227802D01*
X226802Y113260D01*
X225802Y114260D01*
X224802D01*
Y113260D01*
X225802Y112260D01*
X224802Y111260D01*
Y110260D01*
X220078D02*
X221078D01*
X222078Y111260D01*
X223078Y110260D01*
X224078D01*
Y111260D01*
X223078Y112260D01*
X224078Y113260D01*
Y114260D01*
X223078D01*
X222078Y113260D01*
X221078Y114260D01*
X220078D01*
Y113260D01*
X221078Y112260D01*
X220078Y111260D01*
Y110260D01*
X143516Y29773D02*
X145516Y31773D01*
X147516Y29773D01*
X145516Y27773D01*
X143516Y29773D01*
Y31773D02*
X145516Y33773D01*
X147516Y31773D01*
X145516Y29773D01*
X143516Y31773D01*
X141516Y23773D02*
X143516Y25773D01*
X145516Y23773D01*
X143516Y21773D01*
X141516Y23773D01*
Y27773D02*
X143516Y29773D01*
X145516Y27773D01*
X143516Y25773D01*
X141516Y27773D01*
X143516D02*
X145516Y29773D01*
X147516Y27773D01*
X145516Y25773D01*
X143516Y27773D01*
X139516Y25773D02*
X141516Y27773D01*
X143516Y25773D01*
X141516Y23773D01*
X139516Y25773D01*
Y23773D02*
X141516Y25773D01*
X143516Y23773D01*
X141516Y21773D01*
X139516Y23773D01*
X141516Y25773D02*
X143516Y27773D01*
X145516Y25773D01*
X143516Y23773D01*
X141516Y25773D01*
X139516Y27773D02*
X141516Y29773D01*
X143516Y27773D01*
X141516Y25773D01*
X139516Y27773D01*
X143516Y23773D02*
X145516Y25773D01*
X147516Y23773D01*
X145516Y21773D01*
X143516Y23773D01*
Y25773D02*
X145516Y27773D01*
X147516Y25773D01*
X145516Y23773D01*
X143516Y25773D01*
X135516Y31773D02*
X137516Y33773D01*
X139516Y31773D01*
X137516Y29773D01*
X135516Y31773D01*
X137516D02*
X139516Y33773D01*
X141516Y31773D01*
X139516Y29773D01*
X137516Y31773D01*
X139516D02*
X141516Y33773D01*
X143516Y31773D01*
X141516Y29773D01*
X139516Y31773D01*
X141516D02*
X143516Y33773D01*
X145516Y31773D01*
X143516Y29773D01*
X141516Y31773D01*
Y29773D02*
X143516Y31773D01*
X145516Y29773D01*
X143516Y27773D01*
X141516Y29773D01*
X139516D02*
X141516Y31773D01*
X143516Y29773D01*
X141516Y27773D01*
X139516Y29773D01*
X137516D02*
X139516Y31773D01*
X141516Y29773D01*
X139516Y27773D01*
X137516Y29773D01*
X135516D02*
X137516Y31773D01*
X139516Y29773D01*
X137516Y27773D01*
X135516Y29773D01*
X137516Y27773D02*
X139516Y29773D01*
X141516Y27773D01*
X139516Y25773D01*
X137516Y27773D01*
X135516D02*
X137516Y29773D01*
X139516Y27773D01*
X137516Y25773D01*
X135516Y27773D01*
X137516Y23773D02*
X139516Y25773D01*
X141516Y23773D01*
X139516Y21773D01*
X137516Y23773D01*
X135516D02*
X137516Y25773D01*
X139516Y23773D01*
X137516Y21773D01*
X135516Y23773D01*
X137516Y25773D02*
X139516Y27773D01*
X141516Y25773D01*
X139516Y23773D01*
X137516Y25773D01*
X135516D02*
X137516Y27773D01*
X139516Y25773D01*
X137516Y23773D01*
X135516Y25773D01*
X29812Y166543D02*
X27812Y170543D01*
X31812D01*
X29812Y166543D01*
X32098Y27213D02*
X30098Y31213D01*
X34098D01*
X32098Y27213D01*
X32450Y19299D02*
X30450Y23299D01*
X34450D01*
X32450Y19299D01*
X379102Y66879D02*
X380102Y68879D01*
X379102Y70880D01*
X381102Y69880D01*
X383102Y70880D01*
X382102Y68879D01*
X383102Y66879D01*
X381102Y67879D01*
X379102Y66879D01*
X372646Y66840D02*
X373646Y68840D01*
X372646Y70840D01*
X374646Y69840D01*
X376646Y70840D01*
X375646Y68840D01*
X376646Y66840D01*
X374646Y67840D01*
X372646Y66840D01*
X322622Y79461D02*
X320622Y83461D01*
X324622D01*
X322622Y79461D01*
X321110Y92600D02*
X322110Y93600D01*
X323110D01*
X322110Y94600D01*
X323110Y95600D01*
X322110D01*
X321110Y96600D01*
X320110Y95600D01*
X319110D01*
X320110Y94600D01*
X319110Y93600D01*
X320110D01*
X321110Y92600D01*
X346819Y88827D02*
X347819Y90827D01*
X346819Y92827D01*
X348819Y91827D01*
X350819Y92827D01*
X349819Y90827D01*
X350819Y88827D01*
X348819Y89827D01*
X346819Y88827D01*
X351976Y84693D02*
X352976Y86693D01*
X351976Y88693D01*
X353976Y87693D01*
X355976Y88693D01*
X354976Y86693D01*
X355976Y84693D01*
X353976Y85693D01*
X351976Y84693D01*
X346701Y84575D02*
X347701Y86575D01*
X346701Y88575D01*
X348701Y87575D01*
X350701Y88575D01*
X349701Y86575D01*
X350701Y84575D01*
X348701Y85575D01*
X346701Y84575D01*
X350512Y58000D02*
X348512Y62000D01*
X352512D01*
X350512Y58000D01*
X325394Y58157D02*
X323394Y62157D01*
X327394D01*
X325394Y58157D01*
X346779Y93197D02*
X347779Y95197D01*
X346779Y97197D01*
X348780Y96197D01*
X350780Y97197D01*
X349780Y95197D01*
X350780Y93197D01*
X348780Y94197D01*
X346779Y93197D01*
X352016Y88984D02*
X353016Y90984D01*
X352016Y92984D01*
X354016Y91984D01*
X356016Y92984D01*
X355016Y90984D01*
X356016Y88984D01*
X354016Y89984D01*
X352016Y88984D01*
X311013Y35495D02*
X312013Y37495D01*
X311013Y39494D01*
X313013Y38495D01*
X315013Y39494D01*
X314013Y37495D01*
X315013Y35495D01*
X313013Y36494D01*
X311013Y35495D01*
X306347D02*
X307347Y37495D01*
X306347Y39494D01*
X308347Y38495D01*
X310347Y39494D01*
X309347Y37495D01*
X310347Y35495D01*
X308347Y36494D01*
X306347Y35495D01*
X298622Y36161D02*
X299622Y37161D01*
X300622D01*
X299622Y38161D01*
X300622Y39161D01*
X299622D01*
X298622Y40161D01*
X297622Y39161D01*
X296622D01*
X297622Y38161D01*
X296622Y37161D01*
X297622D01*
X298622Y36161D01*
X288740Y104535D02*
X289740Y105535D01*
X290740D01*
X289740Y106535D01*
X290740Y107535D01*
X289740D01*
X288740Y108535D01*
X287740Y107535D01*
X286740D01*
X287740Y106535D01*
X286740Y105535D01*
X287740D01*
X288740Y104535D01*
X338222Y145161D02*
X336222Y149161D01*
X340222D01*
X338222Y145161D01*
X343779Y142567D02*
X344779Y143567D01*
X345779D01*
X344779Y144567D01*
X345779Y145567D01*
X344779D01*
X343779Y146567D01*
X342779Y145567D01*
X341779D01*
X342779Y144567D01*
X341779Y143567D01*
X342779D01*
X343779Y142567D01*
X341390Y157673D02*
X342390Y158673D01*
X343390D01*
X342390Y159673D01*
X343390Y160673D01*
X342390D01*
X341390Y161673D01*
X340390Y160673D01*
X339390D01*
X340390Y159673D01*
X339390Y158673D01*
X340390D01*
X341390Y157673D01*
X259700Y93787D02*
X260700Y95787D01*
X259700Y97787D01*
X261700Y96787D01*
X263700Y97787D01*
X262700Y95787D01*
X263700Y93787D01*
X261700Y94787D01*
X259700Y93787D01*
X304646Y89929D02*
X305646Y90929D01*
X306646D01*
X305646Y91929D01*
X306646Y92929D01*
X305646D01*
X304646Y93929D01*
X303646Y92929D01*
X302646D01*
X303646Y91929D01*
X302646Y90929D01*
X303646D01*
X304646Y89929D01*
X61063Y11386D02*
X59063Y15386D01*
X63063D01*
X61063Y11386D01*
X121575Y57961D02*
X119575Y61961D01*
X123575D01*
X121575Y57961D01*
X4254Y180237D02*
X2254Y184237D01*
X6254D01*
X4254Y180237D01*
X215945Y132134D02*
X213945Y136134D01*
X217945D01*
X215945Y132134D01*
X82023Y153924D02*
Y157924D01*
X86023D01*
Y153924D01*
X82023D01*
X82823Y154724D02*
Y157124D01*
X85223D01*
Y154724D01*
X82823D01*
X287836Y153946D02*
X288836Y154946D01*
X289836D01*
X288836Y155947D01*
X289836Y156947D01*
X288836D01*
X287836Y157947D01*
X286836Y156947D01*
X285836D01*
X286836Y155947D01*
X285836Y154946D01*
X286836D01*
X287836Y153946D01*
X299252Y151937D02*
X300252Y152937D01*
X301252D01*
X300252Y153937D01*
X301252Y154937D01*
X300252D01*
X299252Y155937D01*
X298252Y154937D01*
X297252D01*
X298252Y153937D01*
X297252Y152937D01*
X298252D01*
X299252Y151937D01*
X132087Y70008D02*
X130087Y74008D01*
X134087D01*
X132087Y70008D01*
X123300Y109350D02*
X121300Y113350D01*
X125300D01*
X123300Y109350D01*
X245669Y52764D02*
X246669Y53764D01*
X247669D01*
X246669Y54764D01*
X247669Y55764D01*
X246669D01*
X245669Y56764D01*
X244669Y55764D01*
X243669D01*
X244669Y54764D01*
X243669Y53764D01*
X244669D01*
X245669Y52764D01*
X254095Y51976D02*
X255095Y52976D01*
X256095D01*
X255095Y53976D01*
X256095Y54976D01*
X255095D01*
X254095Y55976D01*
X253095Y54976D01*
X252095D01*
X253095Y53976D01*
X252095Y52976D01*
X253095D01*
X254095Y51976D01*
X191955Y55290D02*
X192955Y56290D01*
X193955D01*
X192955Y57290D01*
X193955Y58290D01*
X192955D01*
X191955Y59290D01*
X190954Y58290D01*
X189954D01*
X190954Y57290D01*
X189954Y56290D01*
X190954D01*
X191955Y55290D01*
X175079Y117435D02*
X173079Y121434D01*
X177079D01*
X175079Y117435D01*
Y113870D02*
X173079Y117870D01*
X177079D01*
X175079Y113870D01*
Y110305D02*
X173079Y114305D01*
X177079D01*
X175079Y110305D01*
Y106740D02*
X173079Y110740D01*
X177079D01*
X175079Y106740D01*
X168610Y134496D02*
X166610Y138496D01*
X170610D01*
X168610Y134496D01*
X161257Y126583D02*
X159257Y130583D01*
X163257D01*
X161257Y126583D01*
X175080Y142060D02*
X173080Y146060D01*
X177080D01*
X175080Y142060D01*
X188898Y110008D02*
X186898Y114008D01*
X190898D01*
X188898Y110008D01*
X162131Y134496D02*
X160131Y138496D01*
X164131D01*
X162131Y134496D01*
X151210Y126583D02*
X149210Y130583D01*
X153210D01*
X151210Y126583D01*
X236626Y110063D02*
X237626Y111063D01*
X238626D01*
X237626Y112063D01*
X238626Y113063D01*
X237626D01*
X236626Y114063D01*
X235626Y113063D01*
X234626D01*
X235626Y112063D01*
X234626Y111063D01*
X235626D01*
X236626Y110063D01*
X236663Y106126D02*
X237663Y107126D01*
X238663D01*
X237663Y108126D01*
X238663Y109126D01*
X237663D01*
X236663Y110126D01*
X235663Y109126D01*
X234663D01*
X235663Y108126D01*
X234663Y107126D01*
X235663D01*
X236663Y106126D01*
X234995Y108095D02*
X235995Y109095D01*
X236995D01*
X235995Y110094D01*
X236995Y111094D01*
X235995D01*
X234995Y112094D01*
X233995Y111094D01*
X232995D01*
X233995Y110094D01*
X232995Y109095D01*
X233995D01*
X234995Y108095D01*
X216560Y172044D02*
X214560Y176044D01*
X218560D01*
X216560Y172044D01*
X93444Y149119D02*
Y153119D01*
X97444D01*
Y149119D01*
X93444D01*
X94244Y149919D02*
Y152319D01*
X96644D01*
Y149919D01*
X94244D01*
X80323Y158728D02*
Y162728D01*
X84323D01*
Y158728D01*
X80323D01*
X81123Y159528D02*
Y161928D01*
X83523D01*
Y159528D01*
X81123D01*
X82023Y149119D02*
Y153119D01*
X86023D01*
Y149119D01*
X82023D01*
X82823Y149919D02*
Y152319D01*
X85223D01*
Y149919D01*
X82823D01*
X93444Y153924D02*
Y157924D01*
X97444D01*
Y153924D01*
X93444D01*
X94244Y154724D02*
Y157124D01*
X96644D01*
Y154724D01*
X94244D01*
X95244Y158728D02*
Y162728D01*
X99244D01*
Y158728D01*
X95244D01*
X96044Y159528D02*
Y161928D01*
X98444D01*
Y159528D01*
X96044D01*
X81823Y96269D02*
Y100269D01*
X85823D01*
Y96269D01*
X81823D01*
X82623Y97069D02*
Y99469D01*
X85023D01*
Y97069D01*
X82623D01*
X93944Y101074D02*
Y105074D01*
X97944D01*
Y101074D01*
X93944D01*
X94744Y101874D02*
Y104274D01*
X97144D01*
Y101874D01*
X94744D01*
X93944Y96269D02*
Y100269D01*
X97944D01*
Y96269D01*
X93944D01*
X94744Y97069D02*
Y99469D01*
X97144D01*
Y97069D01*
X94744D01*
X80323Y91465D02*
Y95465D01*
X84323D01*
Y91465D01*
X80323D01*
X81123Y92265D02*
Y94665D01*
X83523D01*
Y92265D01*
X81123D01*
X81823Y101074D02*
Y105074D01*
X85823D01*
Y101074D01*
X81823D01*
X82623Y101874D02*
Y104274D01*
X85023D01*
Y101874D01*
X82623D01*
X113031Y76268D02*
X111031Y80268D01*
X115032D01*
X113031Y76268D01*
X113230Y90000D02*
X111230Y94000D01*
X115230D01*
X113230Y90000D01*
X91260Y53630D02*
X89260Y57630D01*
X93260D01*
X91260Y53630D01*
X87953Y62373D02*
X88953Y63373D01*
X89953D01*
X88953Y64373D01*
X89953Y65373D01*
X88953D01*
X87953Y66373D01*
X86953Y65373D01*
X85953D01*
X86953Y64373D01*
X85953Y63373D01*
X86953D01*
X87953Y62373D01*
X131142Y15283D02*
X129142Y19284D01*
X133142D01*
X131142Y15283D01*
X132323Y16701D02*
X130323Y20701D01*
X134323D01*
X132323Y16701D01*
X127441Y30480D02*
X125441Y34480D01*
X129441D01*
X127441Y30480D01*
X148794Y20880D02*
X146794Y24880D01*
X150794D01*
X148794Y20880D01*
X143543Y85244D02*
X141543Y89244D01*
X145543D01*
X143543Y85244D01*
X70630Y87003D02*
X68630Y91003D01*
X72630D01*
X70630Y87003D01*
X145376Y78804D02*
X143376Y82804D01*
X147376D01*
X145376Y78804D01*
Y81823D02*
X143376Y85823D01*
X147376D01*
X145376Y81823D01*
X150876Y68877D02*
X148876Y72877D01*
X152876D01*
X150876Y68877D01*
Y61382D02*
X148876Y65382D01*
X152876D01*
X150876Y61382D01*
X149261Y63880D02*
X147261Y67880D01*
X151261D01*
X149261Y63880D01*
X150876Y58883D02*
X148876Y62883D01*
X152876D01*
X150876Y58883D01*
Y56385D02*
X148876Y60385D01*
X152876D01*
X150876Y56385D01*
X145440Y51460D02*
X143440Y55460D01*
X147440D01*
X145440Y51460D01*
X136024Y87291D02*
X134024Y91291D01*
X138024D01*
X136024Y87291D01*
X150876Y43892D02*
X148876Y47892D01*
X152876D01*
X150876Y43892D01*
X137620Y50890D02*
X135620Y54890D01*
X139620D01*
X137620Y50890D01*
X150876Y36397D02*
X148876Y40397D01*
X152876D01*
X150876Y36397D01*
Y33898D02*
X148876Y37898D01*
X152876D01*
X150876Y33898D01*
Y23904D02*
X148876Y27904D01*
X152876D01*
X150876Y23904D01*
Y26402D02*
X148876Y30402D01*
X152876D01*
X150876Y26402D01*
Y41394D02*
X148876Y45394D01*
X152876D01*
X150876Y41394D01*
Y38895D02*
X148876Y42895D01*
X152876D01*
X150876Y38895D01*
Y28901D02*
X148876Y32901D01*
X152876D01*
X150876Y28901D01*
Y31400D02*
X148876Y35399D01*
X152876D01*
X150876Y31400D01*
X175857Y22750D02*
X173857Y26750D01*
X177857D01*
X175857Y22750D01*
X178857Y22800D02*
X176857Y26800D01*
X180857D01*
X178857Y22800D01*
X181857D02*
X179857Y26800D01*
X183857D01*
X181857Y22800D01*
X184857D02*
X182857Y26800D01*
X186857D01*
X184857Y22800D01*
X176066Y14041D02*
X174066Y18041D01*
X178066D01*
X176066Y14041D01*
X179066D02*
X177066Y18041D01*
X181066D01*
X179066Y14041D01*
X182066D02*
X180066Y18041D01*
X184066D01*
X182066Y14041D01*
X185066D02*
X183066Y18041D01*
X187066D01*
X185066Y14041D01*
X224992Y38586D02*
X222992Y42586D01*
X226992D01*
X224992Y38586D01*
Y35586D02*
X222992Y39586D01*
X226992D01*
X224992Y35586D01*
Y32586D02*
X222992Y36586D01*
X226992D01*
X224992Y32586D01*
X233874Y29708D02*
X231874Y33708D01*
X235874D01*
X233874Y29708D01*
Y35708D02*
X231874Y39708D01*
X235874D01*
X233874Y35708D01*
Y38708D02*
X231874Y42708D01*
X235874D01*
X233874Y38708D01*
Y32708D02*
X231874Y36708D01*
X235874D01*
X233874Y32708D01*
X77550Y22950D02*
X75550Y26950D01*
X79550D01*
X77550Y22950D01*
X76072Y28961D02*
X77072Y29961D01*
X78072D01*
X77072Y30961D01*
X78072Y31961D01*
X77072D01*
X76072Y32961D01*
X75072Y31961D01*
X74072D01*
X75072Y30961D01*
X74072Y29961D01*
X75072D01*
X76072Y28961D01*
X71372D02*
X72372Y29961D01*
X73372D01*
X72372Y30961D01*
X73372Y31961D01*
X72372D01*
X71372Y32961D01*
X70372Y31961D01*
X69372D01*
X70372Y30961D01*
X69372Y29961D01*
X70372D01*
X71372Y28961D01*
X73772Y35861D02*
X71772Y39861D01*
X75772D01*
X73772Y35861D01*
X80472Y32161D02*
X78472Y36161D01*
X82472D01*
X80472Y32161D01*
Y32961D02*
X79272Y35361D01*
X81672D01*
X80472Y32961D01*
X153462Y10801D02*
X151462Y14801D01*
X155462D01*
X153462Y10801D01*
X92122Y7561D02*
X90122Y11561D01*
X94122D01*
X92122Y7561D01*
X93386Y3472D02*
X91386Y7472D01*
X95386D01*
X93386Y3472D01*
X82700Y21350D02*
X80700Y25350D01*
X84700D01*
X82700Y21350D01*
X68370Y12290D02*
X66370Y16290D01*
X70370D01*
X68370Y12290D01*
X70472Y36561D02*
X71472Y37561D01*
X72472D01*
X71472Y38561D01*
X72472Y39561D01*
X71472D01*
X70472Y40561D01*
X69472Y39561D01*
X68472D01*
X69472Y38561D01*
X68472Y37561D01*
X69472D01*
X70472Y36561D01*
X69272Y39861D02*
X70272Y40861D01*
X71272D01*
X70272Y41861D01*
X71272Y42861D01*
X70272D01*
X69272Y43861D01*
X68272Y42861D01*
X67272D01*
X68272Y41861D01*
X67272Y40861D01*
X68272D01*
X69272Y39861D01*
X100422Y45261D02*
X101422Y47261D01*
X100422Y49261D01*
X102422Y48261D01*
X104422Y49261D01*
X103422Y47261D01*
X104422Y45261D01*
X102422Y46261D01*
X100422Y45261D01*
X95522D02*
X96522Y47261D01*
X95522Y49261D01*
X97522Y48261D01*
X99522Y49261D01*
X98522Y47261D01*
X99522Y45261D01*
X97522Y46261D01*
X95522Y45261D01*
X100422Y49561D02*
X101422Y51561D01*
X100422Y53561D01*
X102422Y52561D01*
X104422Y53561D01*
X103422Y51561D01*
X104422Y49561D01*
X102422Y50561D01*
X100422Y49561D01*
X95522D02*
X96522Y51561D01*
X95522Y53561D01*
X97522Y52561D01*
X99522Y53561D01*
X98522Y51561D01*
X99522Y49561D01*
X97522Y50561D01*
X95522Y49561D01*
X137000Y111250D02*
X135000Y115250D01*
X139000D01*
X137000Y111250D01*
X138950D02*
X136950Y115250D01*
X140950D01*
X138950Y111250D01*
X135050D02*
X133050Y115250D01*
X137050D01*
X135050Y111250D01*
X158090Y54830D02*
X156090Y58830D01*
X160090D01*
X158090Y54830D01*
X213600Y49100D02*
X211600Y53100D01*
X215600D01*
X213600Y49100D01*
X202716Y48591D02*
X200716Y52591D01*
X204716D01*
X202716Y48591D01*
X37122Y130261D02*
X35122Y134261D01*
X39122D01*
X37122Y130261D01*
X64200Y131000D02*
X62200Y135000D01*
X66200D01*
X64200Y131000D01*
X204200Y82357D02*
X205200Y83357D01*
X206200D01*
X205200Y84357D01*
X206200Y85357D01*
X205200D01*
X204200Y86357D01*
X203200Y85357D01*
X202200D01*
X203200Y84357D01*
X202200Y83357D01*
X203200D01*
X204200Y82357D01*
Y83157D02*
X204800Y83757D01*
X205400D01*
X204800Y84357D01*
X205400Y84957D01*
X204800D01*
X204200Y85557D01*
X203600Y84957D01*
X203000D01*
X203600Y84357D01*
X203000Y83757D01*
X203600D01*
X204200Y83157D01*
X206816Y80273D02*
X207816Y81273D01*
X208816D01*
X207816Y82273D01*
X208816Y83273D01*
X207816D01*
X206816Y84273D01*
X205816Y83273D01*
X204816D01*
X205816Y82273D01*
X204816Y81273D01*
X205816D01*
X206816Y80273D01*
X180600Y77700D02*
X178600Y81700D01*
X182600D01*
X180600Y77700D01*
Y78500D02*
X179400Y80900D01*
X181800D01*
X180600Y78500D01*
X174010Y153950D02*
X172010Y157950D01*
X176010D01*
X174010Y153950D01*
X229920Y98200D02*
X227920Y102200D01*
X231920D01*
X229920Y98200D01*
X123740Y153945D02*
X121740Y157945D01*
X125740D01*
X123740Y153945D01*
X119488D02*
X117488Y157945D01*
X121488D01*
X119488Y153945D01*
X133031Y145953D02*
X131032Y149953D01*
X135031D01*
X133031Y145953D01*
X85354Y87291D02*
X83354Y91291D01*
X87354D01*
X85354Y87291D01*
X137598Y75612D02*
X135598Y79612D01*
X139598D01*
X137598Y75612D01*
X45712Y174474D02*
X43712Y178474D01*
X47712D01*
X45712Y174474D01*
X49830Y166516D02*
X47830Y170516D01*
X51830D01*
X49830Y166516D01*
X38758D02*
X36758Y170516D01*
X40758D01*
X38758Y166516D01*
X33222D02*
X31222Y170516D01*
X35222D01*
X33222Y166516D01*
X47062D02*
X45062Y170516D01*
X49062D01*
X47062Y166516D01*
X44294D02*
X42294Y170516D01*
X46294D01*
X44294Y166516D01*
X60827Y165961D02*
X58827Y169961D01*
X62827D01*
X60827Y165961D01*
Y163028D02*
X58827Y167028D01*
X62827D01*
X60827Y163028D01*
X196930Y93520D02*
X197930Y94520D01*
X198930D01*
X197930Y95520D01*
X198930Y96520D01*
X197930D01*
X196930Y97520D01*
X195930Y96520D01*
X194930D01*
X195930Y95520D01*
X194930Y94520D01*
X195930D01*
X196930Y93520D01*
X196816Y115070D02*
X197816Y116070D01*
X198816D01*
X197816Y117070D01*
X198816Y118070D01*
X197816D01*
X196816Y119070D01*
X195816Y118070D01*
X194816D01*
X195816Y117070D01*
X194816Y116070D01*
X195816D01*
X196816Y115070D01*
X203545Y91002D02*
X204545Y92002D01*
X205545D01*
X204545Y93002D01*
X205545Y94002D01*
X204545D01*
X203545Y95002D01*
X202545Y94002D01*
X201545D01*
X202545Y93002D01*
X201545Y92002D01*
X202545D01*
X203545Y91002D01*
X182650Y83750D02*
X180650Y87750D01*
X184650D01*
X182650Y83750D01*
X234016Y121904D02*
X235016Y122904D01*
X236016D01*
X235016Y123904D01*
X236016Y124904D01*
X235016D01*
X234016Y125904D01*
X233016Y124904D01*
X232016D01*
X233016Y123904D01*
X232016Y122904D01*
X233016D01*
X234016Y121904D01*
X229316Y123304D02*
X230316Y124304D01*
X231316D01*
X230316Y125304D01*
X231316Y126304D01*
X230316D01*
X229316Y127304D01*
X228316Y126304D01*
X227316D01*
X228316Y125304D01*
X227316Y124304D01*
X228316D01*
X229316Y123304D01*
X201860Y121940D02*
X202860Y122940D01*
X203860D01*
X202860Y123940D01*
X203860Y124940D01*
X202860D01*
X201860Y125940D01*
X200860Y124940D01*
X199860D01*
X200860Y123940D01*
X199860Y122940D01*
X200860D01*
X201860Y121940D01*
X203600Y112560D02*
X204600Y113560D01*
X205600D01*
X204600Y114560D01*
X205600Y115560D01*
X204600D01*
X203600Y116560D01*
X202600Y115560D01*
X201600D01*
X202600Y114560D01*
X201600Y113560D01*
X202600D01*
X203600Y112560D01*
X243050Y98200D02*
X241050Y102200D01*
X245050D01*
X243050Y98200D01*
X191250Y86710D02*
X189250Y90710D01*
X193250D01*
X191250Y86710D01*
X215222Y113361D02*
X213222Y117361D01*
X217222D01*
X215222Y113361D01*
X193272Y113191D02*
X191272Y117191D01*
X195272D01*
X193272Y113191D01*
X91772Y61504D02*
X89772Y65504D01*
X93772D01*
X91772Y61504D01*
X95522Y53861D02*
X96522Y55861D01*
X95522Y57861D01*
X97522Y56861D01*
X99522Y57861D01*
X98522Y55861D01*
X99522Y53861D01*
X97522Y54861D01*
X95522Y53861D01*
X100422D02*
X101422Y55861D01*
X100422Y57861D01*
X102422Y56861D01*
X104422Y57861D01*
X103422Y55861D01*
X104422Y53861D01*
X102422Y54861D01*
X100422Y53861D01*
X87550Y43050D02*
X85550Y47050D01*
X89550D01*
X87550Y43050D01*
X87122Y52361D02*
X85122Y56361D01*
X89122D01*
X87122Y52361D01*
Y47361D02*
X85122Y51361D01*
X89122D01*
X87122Y47361D01*
X194393Y10448D02*
X192393Y14448D01*
X196393D01*
X194393Y10448D01*
X92323Y33472D02*
X90323Y37472D01*
X94323D01*
X92323Y33472D01*
X83425Y40953D02*
X81425Y44953D01*
X85425D01*
X83425Y40953D01*
X82122Y52461D02*
X80122Y56461D01*
X84122D01*
X82122Y52461D01*
X91220Y39339D02*
X89220Y43339D01*
X93221D01*
X91220Y39339D01*
X215800Y70000D02*
X213800Y74000D01*
X217800D01*
X215800Y70000D01*
X194400Y64400D02*
X195400Y66400D01*
X194400Y68400D01*
X196400Y67400D01*
X198400Y68400D01*
X197400Y66400D01*
X198400Y64400D01*
X196400Y65400D01*
X194400Y64400D01*
X202610Y14547D02*
X200610Y18547D01*
X204610D01*
X202610Y14547D01*
X219816Y75861D02*
X220816Y76861D01*
X221816D01*
X220816Y77861D01*
X221816Y78861D01*
X220816D01*
X219816Y79861D01*
X218816Y78861D01*
X217816D01*
X218816Y77861D01*
X217816Y76861D01*
X218816D01*
X219816Y75861D01*
X70630Y90375D02*
X68630Y94375D01*
X72630D01*
X70630Y90375D01*
X60551Y109528D02*
X58551Y113528D01*
X62551D01*
X60551Y109528D01*
Y106435D02*
X58551Y110435D01*
X62551D01*
X60551Y106435D01*
X52677Y112144D02*
X50677Y116144D01*
X54677D01*
X52677Y112144D01*
X154835Y22267D02*
X152835Y26267D01*
X156835D01*
X154835Y22267D01*
X151678D02*
X149678Y26267D01*
X153678D01*
X151678Y22267D01*
X224222Y131161D02*
X222222Y135161D01*
X226222D01*
X224222Y131161D01*
X182992Y142508D02*
X180992Y146508D01*
X184992D01*
X182992Y142508D01*
X117480Y70800D02*
X115480Y74800D01*
X119480D01*
X117480Y70800D01*
X124134Y87646D02*
X122134Y91646D01*
X126134D01*
X124134Y87646D01*
X126877D02*
X124877Y91646D01*
X128877D01*
X126877Y87646D01*
X123846Y79203D02*
X121846Y83203D01*
X125846D01*
X123846Y79203D01*
X126846D02*
X124846Y83203D01*
X128846D01*
X126846Y79203D01*
X129846D02*
X127846Y83203D01*
X131846D01*
X129846Y79203D01*
X132846D02*
X130846Y83203D01*
X134846D01*
X132846Y79203D01*
X263400Y83300D02*
X261400Y87300D01*
X265400D01*
X263400Y83300D01*
X262050Y89150D02*
X260050Y93150D01*
X264050D01*
X262050Y89150D01*
X233960Y167244D02*
X231960Y171244D01*
X235960D01*
X233960Y167244D01*
X238543Y49968D02*
X236543Y53969D01*
X240543D01*
X238543Y49968D01*
X259222Y62161D02*
X257222Y66161D01*
X261222D01*
X259222Y62161D01*
X254222D02*
X252222Y66161D01*
X256222D01*
X254222Y62161D01*
X283222Y42161D02*
X281222Y46161D01*
X285222D01*
X283222Y42161D01*
X268222Y40161D02*
X266222Y44161D01*
X270222D01*
X268222Y40161D01*
X273222D02*
X271222Y44161D01*
X275222D01*
X273222Y40161D01*
X333222Y20161D02*
X331222Y24161D01*
X335222D01*
X333222Y20161D01*
X353110Y69024D02*
X351110Y73024D01*
X355110D01*
X353110Y69024D01*
X388222Y20161D02*
X386222Y24161D01*
X390222D01*
X388222Y20161D01*
X378222Y5161D02*
X376222Y9161D01*
X380222D01*
X378222Y5161D01*
X363222D02*
X361222Y9161D01*
X365222D01*
X363222Y5161D01*
X338222D02*
X336222Y9161D01*
X340222D01*
X338222Y5161D01*
X278222D02*
X276222Y9161D01*
X280222D01*
X278222Y5161D01*
X273222D02*
X271222Y9161D01*
X275222D01*
X273222Y5161D01*
X268222D02*
X266222Y9161D01*
X270222D01*
X268222Y5161D01*
X298222D02*
X296222Y9161D01*
X300222D01*
X298222Y5161D01*
X293222D02*
X291222Y9161D01*
X295222D01*
X293222Y5161D01*
X288222D02*
X286222Y9161D01*
X290222D01*
X288222Y5161D01*
X283222D02*
X281222Y9161D01*
X285222D01*
X283222Y5161D01*
X7907Y15161D02*
X5907Y19161D01*
X9907D01*
X7907Y15161D01*
X16260Y75874D02*
X14260Y79874D01*
X18260D01*
X16260Y75874D01*
X18222Y145161D02*
X16222Y149161D01*
X20222D01*
X18222Y145161D01*
X16102Y124102D02*
X14102Y128102D01*
X18102D01*
X16102Y124102D01*
X169213Y44496D02*
X167213Y48496D01*
X171213D01*
X169213Y44496D01*
X108780Y136760D02*
X106780Y140760D01*
X110780D01*
X108780Y136760D01*
X17244Y52921D02*
X15244Y56921D01*
X19244D01*
X17244Y52921D01*
X8222Y60161D02*
X6222Y64161D01*
X10222D01*
X8222Y60161D01*
X4254Y30237D02*
X2254Y34237D01*
X6254D01*
X4254Y30237D01*
X156082Y50511D02*
X154082Y54511D01*
X158082D01*
X156082Y50511D01*
X176725Y27020D02*
X174725Y31021D01*
X178725D01*
X176725Y27020D01*
X183536Y30682D02*
X181536Y34682D01*
X185536D01*
X183536Y30682D01*
X185422Y25791D02*
X183422Y29791D01*
X187422D01*
X185422Y25791D01*
X158462Y10801D02*
X156462Y14801D01*
X160462D01*
X158462Y10801D01*
X163462D02*
X161462Y14801D01*
X165462D01*
X163462Y10801D01*
X168462D02*
X166462Y14801D01*
X170462D01*
X168462Y10801D01*
X69095Y3748D02*
X67094Y7748D01*
X71095D01*
X69095Y3748D01*
X83022Y7811D02*
X81022Y11811D01*
X85022D01*
X83022Y7811D01*
X43222Y5161D02*
X41222Y9161D01*
X45222D01*
X43222Y5161D01*
X48222D02*
X46222Y9161D01*
X50222D01*
X48222Y5161D01*
X53222D02*
X51222Y9161D01*
X55222D01*
X53222Y5161D01*
X58222D02*
X56222Y9161D01*
X60222D01*
X58222Y5161D01*
X63222D02*
X61222Y9161D01*
X65222D01*
X63222Y5161D01*
X13222D02*
X11222Y9161D01*
X15222D01*
X13222Y5161D01*
X18222D02*
X16222Y9161D01*
X20222D01*
X18222Y5161D01*
X23222D02*
X21222Y9161D01*
X25222D01*
X23222Y5161D01*
X28222D02*
X26222Y9161D01*
X30222D01*
X28222Y5161D01*
X33222D02*
X31222Y9161D01*
X35222D01*
X33222Y5161D01*
X8222D02*
X6222Y9161D01*
X10222D01*
X8222Y5161D01*
X4254Y25237D02*
X2254Y29237D01*
X6254D01*
X4254Y25237D01*
Y20237D02*
X2254Y24237D01*
X6254D01*
X4254Y20237D01*
Y15237D02*
X2254Y19237D01*
X6254D01*
X4254Y15237D01*
Y10237D02*
X2254Y14237D01*
X6254D01*
X4254Y10237D01*
Y55237D02*
X2254Y59237D01*
X6254D01*
X4254Y55237D01*
Y50237D02*
X2254Y54237D01*
X6254D01*
X4254Y50237D01*
Y45237D02*
X2254Y49237D01*
X6254D01*
X4254Y45237D01*
Y40237D02*
X2254Y44237D01*
X6254D01*
X4254Y40237D01*
Y35237D02*
X2254Y39237D01*
X6254D01*
X4254Y35237D01*
Y80237D02*
X2254Y84237D01*
X6254D01*
X4254Y80237D01*
Y75237D02*
X2254Y79237D01*
X6254D01*
X4254Y75237D01*
Y70237D02*
X2254Y74237D01*
X6254D01*
X4254Y70237D01*
Y65237D02*
X2254Y69237D01*
X6254D01*
X4254Y65237D01*
Y60237D02*
X2254Y64237D01*
X6254D01*
X4254Y60237D01*
Y105237D02*
X2254Y109237D01*
X6254D01*
X4254Y105237D01*
Y100237D02*
X2254Y104237D01*
X6254D01*
X4254Y100237D01*
Y95237D02*
X2254Y99237D01*
X6254D01*
X4254Y95237D01*
Y90237D02*
X2254Y94237D01*
X6254D01*
X4254Y90237D01*
Y85237D02*
X2254Y89237D01*
X6254D01*
X4254Y85237D01*
Y130237D02*
X2254Y134237D01*
X6254D01*
X4254Y130237D01*
Y125237D02*
X2254Y129237D01*
X6254D01*
X4254Y125237D01*
Y120237D02*
X2254Y124237D01*
X6254D01*
X4254Y120237D01*
Y115237D02*
X2254Y119237D01*
X6254D01*
X4254Y115237D01*
Y110237D02*
X2254Y114237D01*
X6254D01*
X4254Y110237D01*
Y155237D02*
X2254Y159237D01*
X6254D01*
X4254Y155237D01*
Y150237D02*
X2254Y154237D01*
X6254D01*
X4254Y150237D01*
Y145237D02*
X2254Y149237D01*
X6254D01*
X4254Y145237D01*
Y140237D02*
X2254Y144237D01*
X6254D01*
X4254Y140237D01*
Y135237D02*
X2254Y139237D01*
X6254D01*
X4254Y135237D01*
Y160237D02*
X2254Y164237D01*
X6254D01*
X4254Y160237D01*
Y165237D02*
X2254Y169237D01*
X6254D01*
X4254Y165237D01*
Y170237D02*
X2254Y174237D01*
X6254D01*
X4254Y170237D01*
Y175237D02*
X2254Y179237D01*
X6254D01*
X4254Y175237D01*
X13222Y185161D02*
X11222Y189161D01*
X15222D01*
X13222Y185161D01*
X8222D02*
X6222Y189161D01*
X10222D01*
X8222Y185161D01*
X18222D02*
X16222Y189161D01*
X20222D01*
X18222Y185161D01*
X23222D02*
X21222Y189161D01*
X25222D01*
X23222Y185161D01*
X28222D02*
X26222Y189161D01*
X30222D01*
X28222Y185161D01*
X33222D02*
X31222Y189161D01*
X35222D01*
X33222Y185161D01*
X38222D02*
X36222Y189161D01*
X40222D01*
X38222Y185161D01*
X43222D02*
X41222Y189161D01*
X45222D01*
X43222Y185161D01*
X48222D02*
X46222Y189161D01*
X50222D01*
X48222Y185161D01*
X23425Y41228D02*
X21425Y45228D01*
X25425D01*
X23425Y41228D01*
X16339Y63709D02*
X14339Y67709D01*
X18339D01*
X16339Y63709D01*
X388222Y180161D02*
X386222Y184161D01*
X390222D01*
X388222Y180161D01*
X358222Y185161D02*
X356222Y189161D01*
X360222D01*
X358222Y185161D01*
X323222D02*
X321222Y189161D01*
X325222D01*
X323222Y185161D01*
X333222D02*
X331222Y189161D01*
X335222D01*
X333222Y185161D01*
X338222D02*
X336222Y189161D01*
X340222D01*
X338222Y185161D01*
X343222D02*
X341222Y189161D01*
X345222D01*
X343222Y185161D01*
X303222Y165161D02*
X301222Y169161D01*
X305222D01*
X303222Y165161D01*
X308222Y155161D02*
X306222Y159161D01*
X310222D01*
X308222Y155161D01*
X278000Y165400D02*
X279000Y166400D01*
X280000D01*
X279000Y167400D01*
X280000Y168400D01*
X279000D01*
X278000Y169400D01*
X277000Y168400D01*
X276000D01*
X277000Y167400D01*
X276000Y166400D01*
X277000D01*
X278000Y165400D01*
X175079Y120999D02*
X173079Y124999D01*
X177079D01*
X175079Y120999D01*
X214488Y139890D02*
X212488Y143890D01*
X216488D01*
X214488Y139890D01*
X233900Y130850D02*
X231900Y134850D01*
X235900D01*
X233900Y130850D01*
X182992Y119791D02*
X180992Y123791D01*
X184992D01*
X182992Y119791D01*
X181496Y184024D02*
X179496Y188024D01*
X183496D01*
X181496Y184024D01*
X200512Y139299D02*
X198512Y143299D01*
X202512D01*
X200512Y139299D01*
X189921Y155717D02*
X187921Y159716D01*
X191921D01*
X189921Y155717D01*
X136024Y41622D02*
X134024Y45622D01*
X138024D01*
X136024Y41622D01*
X204764Y140402D02*
X202764Y144402D01*
X206764D01*
X204764Y140402D01*
X208780Y162370D02*
X206780Y166370D01*
X210780D01*
X208780Y162370D01*
X268222Y130161D02*
X266222Y134161D01*
X270222D01*
X268222Y130161D01*
X161378Y117842D02*
X159378Y121843D01*
X163378D01*
X161378Y117842D01*
X115118Y57449D02*
X113118Y61449D01*
X117118D01*
X115118Y57449D01*
X218110Y135008D02*
X216110Y139008D01*
X220110D01*
X218110Y135008D01*
X114291Y18039D02*
X112291Y22039D01*
X116291D01*
X114291Y18039D01*
X273222Y100161D02*
X271222Y104161D01*
X275222D01*
X273222Y100161D01*
X273240Y110380D02*
X271240Y114380D01*
X275240D01*
X273240Y110380D01*
X241560Y172044D02*
X239560Y176044D01*
X243560D01*
X241560Y172044D01*
X114055Y21583D02*
X112055Y25583D01*
X116055D01*
X114055Y21583D01*
X216811Y163748D02*
X214811Y167748D01*
X218811D01*
X216811Y163748D01*
X199646Y155205D02*
X197646Y159205D01*
X201646D01*
X199646Y155205D01*
X171270Y49950D02*
X169270Y53950D01*
X173270D01*
X171270Y49950D01*
X103779Y14890D02*
X101779Y18890D01*
X105780D01*
X103779Y14890D01*
X259600Y142150D02*
X257600Y146150D01*
X261600D01*
X259600Y142150D01*
X182992Y113295D02*
X180992Y117295D01*
X184992D01*
X182992Y113295D01*
X209646Y140598D02*
X207646Y144598D01*
X211646D01*
X209646Y140598D01*
X220945Y155795D02*
X218945Y159795D01*
X222945D01*
X220945Y155795D01*
X252953Y155323D02*
X250953Y159323D01*
X254953D01*
X252953Y155323D01*
X235591Y155913D02*
X233591Y159913D01*
X237591D01*
X235591Y155913D01*
X245478Y134189D02*
X243478Y138189D01*
X247478D01*
X245478Y134189D01*
X250478Y144189D02*
X248478Y148189D01*
X252478D01*
X250478Y144189D01*
X245346Y67796D02*
X243347Y71796D01*
X247346D01*
X245346Y67796D01*
X241135Y72097D02*
X239135Y76097D01*
X243135D01*
X241135Y72097D01*
X243222Y80161D02*
X241222Y84161D01*
X245222D01*
X243222Y80161D01*
Y75161D02*
X241222Y79161D01*
X245222D01*
X243222Y75161D01*
X250478Y149189D02*
X248478Y153189D01*
X252478D01*
X250478Y149189D01*
X258222Y70161D02*
X256222Y74161D01*
X260222D01*
X258222Y70161D01*
X253222D02*
X251222Y74161D01*
X255222D01*
X253222Y70161D01*
X248222D02*
X246222Y74161D01*
X250222D01*
X248222Y70161D01*
X243222D02*
X241222Y74161D01*
X245222D01*
X243222Y70161D01*
X253150Y40100D02*
X251150Y44100D01*
X255150D01*
X253150Y40100D01*
X263222Y45161D02*
X261222Y49161D01*
X265222D01*
X263222Y45161D01*
X258222Y40161D02*
X256222Y44161D01*
X260222D01*
X258222Y40161D01*
X156614Y24417D02*
X154614Y28417D01*
X158614D01*
X156614Y24417D01*
X248222Y40161D02*
X246222Y44161D01*
X250222D01*
X248222Y40161D01*
X243222D02*
X241222Y44161D01*
X245222D01*
X243222Y40161D01*
X238222D02*
X236222Y44161D01*
X240222D01*
X238222Y40161D01*
X160551Y24417D02*
X158551Y28417D01*
X162551D01*
X160551Y24417D01*
X119180Y95756D02*
X117180Y99756D01*
X121180D01*
X119180Y95756D01*
X122589D02*
X120589Y99756D01*
X124589D01*
X122589Y95756D01*
X115157Y103984D02*
X113157Y107984D01*
X117157D01*
X115157Y103984D01*
X121968D02*
X119968Y107984D01*
X123969D01*
X121968Y103984D01*
X136468Y91890D02*
X134468Y95890D01*
X138468D01*
X136468Y91890D01*
X146468D02*
X144468Y95890D01*
X148468D01*
X146468Y91890D01*
X156790Y87160D02*
X154790Y91160D01*
X158790D01*
X156790Y87160D01*
X156468Y91890D02*
X154468Y95890D01*
X158468D01*
X156468Y91890D01*
X176963Y10480D02*
X174963Y14480D01*
X178963D01*
X176963Y10480D01*
X181963D02*
X179963Y14480D01*
X183963D01*
X181963Y10480D01*
X186963D02*
X184963Y14480D01*
X188963D01*
X186963Y10480D01*
X153228Y27488D02*
X151228Y31488D01*
X155228D01*
X153228Y27488D01*
X153071Y41268D02*
X151071Y45268D01*
X155071D01*
X153071Y41268D01*
X153380Y44120D02*
X151380Y48120D01*
X155380D01*
X153380Y44120D01*
X188654Y30839D02*
X186654Y34839D01*
X190654D01*
X188654Y30839D01*
X178930Y31666D02*
X176930Y35666D01*
X180930D01*
X178930Y31666D01*
X184978Y50139D02*
X182978Y54139D01*
X186978D01*
X184978Y50139D01*
X179978D02*
X177978Y54139D01*
X181978D01*
X179978Y50139D01*
X174978D02*
X172978Y54139D01*
X176978D01*
X174978Y50139D01*
X214921Y40205D02*
X212921Y44205D01*
X216921D01*
X214921Y40205D01*
X78504Y49142D02*
X76504Y53142D01*
X80504D01*
X78504Y49142D01*
X127022Y55361D02*
X125022Y59361D01*
X129022D01*
X127022Y55361D01*
X171422Y81011D02*
X172422Y82011D01*
X173422D01*
X172422Y83011D01*
X173422Y84011D01*
X172422D01*
X171422Y85011D01*
X170422Y84011D01*
X169422D01*
X170422Y83011D01*
X169422Y82011D01*
X170422D01*
X171422Y81011D01*
X184622Y80161D02*
X182622Y84161D01*
X186622D01*
X184622Y80161D01*
X257778Y146689D02*
X258778Y148689D01*
X257778Y150689D01*
X259778Y149689D01*
X261778Y150689D01*
X260778Y148689D01*
X261778Y146689D01*
X259778Y147689D01*
X257778Y146689D01*
X278191Y14851D02*
X279191Y15851D01*
X280191D01*
X279191Y16851D01*
X280191Y17851D01*
X279191D01*
X278191Y18851D01*
X277191Y17851D01*
X276191D01*
X277191Y16851D01*
X276191Y15851D01*
X277191D01*
X278191Y14851D01*
X276622Y53161D02*
X274622Y57161D01*
X278622D01*
X276622Y53161D01*
Y58061D02*
X274622Y62061D01*
X278622D01*
X276622Y58061D01*
X269822Y63061D02*
X267822Y67061D01*
X271822D01*
X269822Y63061D01*
X271016Y112173D02*
X272016Y113173D01*
X273016D01*
X272016Y114173D01*
X273016Y115173D01*
X272016D01*
X271016Y116173D01*
X270016Y115173D01*
X269016D01*
X270016Y114173D01*
X269016Y113173D01*
X270016D01*
X271016Y112173D01*
X265922Y158161D02*
X263922Y162161D01*
X267922D01*
X265922Y158161D01*
X246922Y164261D02*
X244922Y168261D01*
X248922D01*
X246922Y164261D01*
X134987Y51589D02*
X132987Y55589D01*
X136987D01*
X134987Y51589D01*
X156496Y153945D02*
X154496Y157945D01*
X158496D01*
X156496Y153945D01*
X153189D02*
X151189Y157945D01*
X155189D01*
X153189Y153945D01*
X159803D02*
X157803Y157945D01*
X161803D01*
X159803Y153945D01*
X170630D02*
X168630Y157945D01*
X172630D01*
X170630Y153945D01*
X176430Y153890D02*
X174430Y157890D01*
X178430D01*
X176430Y153890D01*
X159803Y145953D02*
X157803Y149953D01*
X161803D01*
X159803Y145953D01*
X156722D02*
X154722Y149953D01*
X158722D01*
X156722Y145953D01*
X153122D02*
X151122Y149953D01*
X155122D01*
X153122Y145953D01*
X149222D02*
X147222Y149953D01*
X151222D01*
X149222Y145953D01*
X145922D02*
X143922Y149953D01*
X147922D01*
X145922Y145953D01*
X143618Y153261D02*
X141618Y157261D01*
X145618D01*
X143618Y153261D01*
X119631Y145704D02*
X117631Y149704D01*
X121631D01*
X119631Y145704D01*
X115431D02*
X113431Y149704D01*
X117431D01*
X115431Y145704D01*
X100820Y141630D02*
X98820Y145630D01*
X102820D01*
X100820Y141630D01*
X140709Y112843D02*
X138709Y116842D01*
X142709D01*
X140709Y112843D01*
X167006Y77714D02*
X165006Y81714D01*
X169006D01*
X167006Y77714D01*
X165038Y76714D02*
X163038Y80714D01*
X167038D01*
X165038Y76714D01*
X163069Y77911D02*
X161069Y81911D01*
X165069D01*
X163069Y77911D01*
X160086Y82061D02*
X158086Y86061D01*
X162086D01*
X160086Y82061D01*
X162676Y81061D02*
X160676Y85061D01*
X164676D01*
X162676Y81061D01*
X160086Y84800D02*
X158086Y88800D01*
X162086D01*
X160086Y84800D01*
Y90278D02*
X158086Y94278D01*
X162086D01*
X160086Y90278D01*
Y87539D02*
X158086Y91539D01*
X162086D01*
X160086Y87539D01*
X167953Y98158D02*
X165953Y102157D01*
X169953D01*
X167953Y98158D01*
X128622Y103984D02*
X126622Y107984D01*
X130622D01*
X128622Y103984D01*
X126260D02*
X124260Y107984D01*
X128260D01*
X126260Y103984D01*
X118425D02*
X116425Y107984D01*
X120425D01*
X118425Y103984D01*
X153722D02*
X151722Y107984D01*
X155722D01*
X153722Y103984D01*
X156722D02*
X154722Y107984D01*
X158722D01*
X156722Y103984D01*
X166024Y102094D02*
X164024Y106095D01*
X168024D01*
X166024Y102094D01*
X160086Y95756D02*
X158086Y99756D01*
X162086D01*
X160086Y95756D01*
X149859Y95756D02*
X147859Y99756D01*
X151859D01*
X149859Y95756D01*
X153398D02*
X151398Y99756D01*
X155398D01*
X153398Y95756D01*
X156677D02*
X154677Y99756D01*
X158677D01*
X156677Y95756D01*
X160086Y93017D02*
X158086Y97017D01*
X162086D01*
X160086Y93017D01*
X132815Y95756D02*
X130815Y99756D01*
X134815D01*
X132815Y95756D01*
X136224D02*
X134224Y99756D01*
X138224D01*
X136224Y95756D01*
X139633D02*
X137633Y99756D01*
X141633D01*
X139633Y95756D01*
X143042D02*
X141042Y99756D01*
X145042D01*
X143042Y95756D01*
X146450D02*
X144450Y99756D01*
X148451D01*
X146450Y95756D01*
X159930Y110490D02*
X157930Y114490D01*
X161930D01*
X159930Y110490D01*
X129406Y95756D02*
X127406Y99756D01*
X131406D01*
X129406Y95756D01*
X125997D02*
X123997Y99756D01*
X127998D01*
X125997Y95756D01*
X115771D02*
X113771Y99756D01*
X117771D01*
X115771Y95756D01*
X112750Y95600D02*
X110750Y99600D01*
X114750D01*
X112750Y95600D01*
X108280Y91370D02*
X106280Y95370D01*
X110280D01*
X108280Y91370D01*
X108830Y108930D02*
X106830Y112930D01*
X110830D01*
X108830Y108930D01*
X102340Y91410D02*
X100340Y95410D01*
X104340D01*
X102340Y91410D01*
X59560Y22700D02*
X57560Y26700D01*
X61560D01*
X59560Y22700D01*
X48834Y174474D02*
X46834Y178474D01*
X50834D01*
X48834Y174474D01*
X66230Y156830D02*
X64230Y160830D01*
X68230D01*
X66230Y156830D01*
X70400Y158870D02*
X68400Y162870D01*
X72400D01*
X70400Y158870D01*
X76600Y158760D02*
X74600Y162760D01*
X78600D01*
X76600Y158760D01*
X68300Y141610D02*
X66300Y145610D01*
X70300D01*
X68300Y141610D01*
X66414Y146175D02*
X64414Y150175D01*
X68414D01*
X66414Y146175D01*
X64016Y103827D02*
X62016Y107827D01*
X66016D01*
X64016Y103827D01*
X70320Y123150D02*
X68320Y127150D01*
X72320D01*
X70320Y123150D01*
X66142Y90244D02*
X64142Y94244D01*
X68142D01*
X66142Y90244D01*
X170000Y41976D02*
X168000Y45976D01*
X172000D01*
X170000Y41976D01*
X78701Y90520D02*
X76701Y94520D01*
X80701D01*
X78701Y90520D01*
X95551Y76032D02*
X93551Y80032D01*
X97551D01*
X95551Y76032D01*
X89173Y88472D02*
X87173Y92472D01*
X91173D01*
X89173Y88472D01*
X101980Y88840D02*
X99980Y92840D01*
X103980D01*
X101980Y88840D01*
X110709Y88157D02*
X108709Y92158D01*
X112709D01*
X110709Y88157D01*
X115787Y78394D02*
X113787Y82394D01*
X117787D01*
X115787Y78394D01*
X110630Y78433D02*
X108630Y82433D01*
X112630D01*
X110630Y78433D01*
X69840Y108690D02*
X67840Y112690D01*
X71840D01*
X69840Y108690D01*
X110748Y86032D02*
X108748Y90031D01*
X112748D01*
X110748Y86032D01*
X115775Y85761D02*
X113775Y89761D01*
X117775D01*
X115775Y85761D01*
X114390Y83273D02*
X112390Y87273D01*
X116390D01*
X114390Y83273D01*
X112022D02*
X110022Y87273D01*
X114022D01*
X112022Y83273D01*
X115775Y80761D02*
X113775Y84761D01*
X117775D01*
X115775Y80761D01*
X66140Y93410D02*
X64140Y97410D01*
X68140D01*
X66140Y93410D01*
X120039Y87291D02*
X118039Y91291D01*
X122039D01*
X120039Y87291D01*
X119409Y79417D02*
X117409Y83417D01*
X121409D01*
X119409Y79417D01*
X135039Y37173D02*
X133039Y41173D01*
X137039D01*
X135039Y37173D01*
X133228Y35362D02*
X131228Y39362D01*
X135228D01*
X133228Y35362D01*
X133189Y33118D02*
X131189Y37118D01*
X135189D01*
X133189Y33118D01*
X147953Y37173D02*
X145953Y41173D01*
X149953D01*
X147953Y37173D01*
X146022Y14547D02*
X144022Y18547D01*
X148022D01*
X146022Y14547D01*
X340622Y132561D02*
X341622Y133561D01*
X342622D01*
X341622Y134561D01*
X342622Y135561D01*
X341622D01*
X340622Y136561D01*
X339622Y135561D01*
X338622D01*
X339622Y134561D01*
X338622Y133561D01*
X339622D01*
X340622Y132561D01*
X66272Y68661D02*
X67272Y69661D01*
X68272D01*
X67272Y70661D01*
X68272Y71661D01*
X67272D01*
X66272Y72661D01*
X65272Y71661D01*
X64272D01*
X65272Y70661D01*
X64272Y69661D01*
X65272D01*
X66272Y68661D01*
X65972Y43061D02*
X66972Y44061D01*
X67972D01*
X66972Y45061D01*
X67972Y46061D01*
X66972D01*
X65972Y47061D01*
X64972Y46061D01*
X63972D01*
X64972Y45061D01*
X63972Y44061D01*
X64972D01*
X65972Y43061D01*
X171769Y84407D02*
X172769Y85407D01*
X173769D01*
X172769Y86407D01*
X173769Y87407D01*
X172769D01*
X171769Y88407D01*
X170769Y87407D01*
X169769D01*
X170769Y86407D01*
X169769Y85407D01*
X170769D01*
X171769Y84407D01*
X146920Y106964D02*
X147920Y107964D01*
X148920D01*
X147920Y108964D01*
X148920Y109964D01*
X147920D01*
X146920Y110964D01*
X145920Y109964D01*
X144920D01*
X145920Y108964D01*
X144920Y107964D01*
X145920D01*
X146920Y106964D01*
X130922Y104661D02*
X131922Y105661D01*
X132922D01*
X131922Y106661D01*
X132922Y107661D01*
X131922D01*
X130922Y108661D01*
X129922Y107661D01*
X128922D01*
X129922Y106661D01*
X128922Y105661D01*
X129922D01*
X130922Y104661D01*
X136019Y107158D02*
X137019Y108158D01*
X138019D01*
X137019Y109158D01*
X138019Y110158D01*
X137019D01*
X136019Y111158D01*
X135019Y110158D01*
X134019D01*
X135019Y109158D01*
X134019Y108158D01*
X135019D01*
X136019Y107158D01*
X306622Y100661D02*
X307622Y102661D01*
X306622Y104661D01*
X308622Y103661D01*
X310622Y104661D01*
X309622Y102661D01*
X310622Y100661D01*
X308622Y101661D01*
X306622Y100661D01*
X279922Y133261D02*
X280922Y134261D01*
X281922D01*
X280922Y135261D01*
X281922Y136261D01*
X280922D01*
X279922Y137261D01*
X278922Y136261D01*
X277922D01*
X278922Y135261D01*
X277922Y134261D01*
X278922D01*
X279922Y133261D01*
X52722Y156161D02*
X53722Y157161D01*
X54722D01*
X53722Y158161D01*
X54722Y159161D01*
X53722D01*
X52722Y160161D01*
X51722Y159161D01*
X50722D01*
X51722Y158161D01*
X50722Y157161D01*
X51722D01*
X52722Y156161D01*
X336299Y110402D02*
X337299Y111402D01*
X338299D01*
X337299Y112402D01*
X338299Y113402D01*
X337299D01*
X336299Y114402D01*
X335299Y113402D01*
X334299D01*
X335299Y112402D01*
X334299Y111402D01*
X335299D01*
X336299Y110402D01*
X36496Y65381D02*
X37496Y66381D01*
X38496D01*
X37496Y67381D01*
X38496Y68381D01*
X37496D01*
X36496Y69381D01*
X35496Y68381D01*
X34496D01*
X35496Y67381D01*
X34496Y66381D01*
X35496D01*
X36496Y65381D01*
X38222Y127461D02*
X39222Y128461D01*
X40222D01*
X39222Y129461D01*
X40222Y130461D01*
X39222D01*
X38222Y131461D01*
X37222Y130461D01*
X36222D01*
X37222Y129461D01*
X36222Y128461D01*
X37222D01*
X38222Y127461D01*
X236447Y98273D02*
X237447Y99273D01*
X238447D01*
X237447Y100273D01*
X238447Y101273D01*
X237447D01*
X236447Y102273D01*
X235447Y101273D01*
X234447D01*
X235447Y100273D01*
X234447Y99273D01*
X235447D01*
X236447Y98273D01*
X204154Y87573D02*
X205154Y88573D01*
X206154D01*
X205154Y89573D01*
X206154Y90573D01*
X205154D01*
X204154Y91573D01*
X203154Y90573D01*
X202154D01*
X203154Y89573D01*
X202154Y88573D01*
X203154D01*
X204154Y87573D01*
X235000Y104157D02*
X236000Y105157D01*
X237000D01*
X236000Y106157D01*
X237000Y107157D01*
X236000D01*
X235000Y108157D01*
X234000Y107157D01*
X233000D01*
X234000Y106157D01*
X233000Y105157D01*
X234000D01*
X235000Y104157D01*
X234958Y112031D02*
X235958Y113031D01*
X236958D01*
X235958Y114032D01*
X236958Y115032D01*
X235958D01*
X234958Y116032D01*
X233958Y115032D01*
X232958D01*
X233958Y114032D01*
X232958Y113031D01*
X233958D01*
X234958Y112031D01*
X236727Y116362D02*
X237727Y117362D01*
X238727D01*
X237727Y118362D01*
X238727Y119362D01*
X237727D01*
X236727Y120362D01*
X235727Y119362D01*
X234727D01*
X235727Y118362D01*
X234727Y117362D01*
X235727D01*
X236727Y116362D01*
X273216Y107573D02*
X274216Y108573D01*
X275216D01*
X274216Y109573D01*
X275216Y110573D01*
X274216D01*
X273216Y111573D01*
X272216Y110573D01*
X271216D01*
X272216Y109573D01*
X271216Y108573D01*
X272216D01*
X273216Y107573D01*
X276316Y99173D02*
X277316Y100173D01*
X278316D01*
X277316Y101173D01*
X278316Y102173D01*
X277316D01*
X276316Y103173D01*
X275316Y102173D01*
X274316D01*
X275316Y101173D01*
X274316Y100173D01*
X275316D01*
X276316Y99173D01*
X378422Y47661D02*
X379422Y48661D01*
X380422D01*
X379422Y49661D01*
X380422Y50661D01*
X379422D01*
X378422Y51661D01*
X377422Y50661D01*
X376422D01*
X377422Y49661D01*
X376422Y48661D01*
X377422D01*
X378422Y47661D01*
X143622Y111861D02*
X144622Y112861D01*
X145622D01*
X144622Y113861D01*
X145622Y114861D01*
X144622D01*
X143622Y115861D01*
X142622Y114861D01*
X141622D01*
X142622Y113861D01*
X141622Y112861D01*
X142622D01*
X143622Y111861D01*
X306522Y21361D02*
X307522Y23361D01*
X306522Y25361D01*
X308522Y24361D01*
X310522Y25361D01*
X309522Y23361D01*
X310522Y21361D01*
X308522Y22361D01*
X306522Y21361D01*
Y26111D02*
X307522Y28111D01*
X306522Y30111D01*
X308522Y29111D01*
X310522Y30111D01*
X309522Y28111D01*
X310522Y26111D01*
X308522Y27111D01*
X306522Y26111D01*
X311122Y21361D02*
X312122Y23361D01*
X311122Y25361D01*
X313122Y24361D01*
X315122Y25361D01*
X314122Y23361D01*
X315122Y21361D01*
X313122Y22361D01*
X311122Y21361D01*
Y26111D02*
X312122Y28111D01*
X311122Y30111D01*
X313122Y29111D01*
X315122Y30111D01*
X314122Y28111D01*
X315122Y26111D01*
X313122Y27111D01*
X311122Y26111D01*
X306522Y30861D02*
X307522Y32861D01*
X306522Y34861D01*
X308522Y33861D01*
X310522Y34861D01*
X309522Y32861D01*
X310522Y30861D01*
X308522Y31861D01*
X306522Y30861D01*
X311122D02*
X312122Y32861D01*
X311122Y34861D01*
X313122Y33861D01*
X315122Y34861D01*
X314122Y32861D01*
X315122Y30861D01*
X313122Y31861D01*
X311122Y30861D01*
X248222Y22811D02*
X249222Y24811D01*
X248222Y26811D01*
X250222Y25811D01*
X252222Y26811D01*
X251222Y24811D01*
X252222Y22811D01*
X250222Y23811D01*
X248222Y22811D01*
X319522Y172161D02*
X320522Y174161D01*
X319522Y176161D01*
X321522Y175161D01*
X323522Y176161D01*
X322522Y174161D01*
X323522Y172161D01*
X321522Y173161D01*
X319522Y172161D01*
X238522Y122261D02*
X239522Y123261D01*
X240522D01*
X239522Y124261D01*
X240522Y125261D01*
X239522D01*
X238522Y126261D01*
X237522Y125261D01*
X236522D01*
X237522Y124261D01*
X236522Y123261D01*
X237522D01*
X238522Y122261D01*
X23022Y127461D02*
X21022Y131461D01*
X25022D01*
X23022Y127461D01*
Y128261D02*
X21822Y130661D01*
X24222D01*
X23022Y128261D01*
Y65381D02*
X21022Y69381D01*
X25022D01*
X23022Y65381D01*
Y66181D02*
X21822Y68581D01*
X24222D01*
X23022Y66181D01*
X50522Y146361D02*
X48522Y150361D01*
X52522D01*
X50522Y146361D01*
Y147161D02*
X49322Y149561D01*
X51722D01*
X50522Y147161D01*
X145922Y121361D02*
X143922Y125361D01*
X147922D01*
X145922Y121361D01*
Y122161D02*
X144722Y124561D01*
X147122D01*
X145922Y122161D01*
X346583Y105584D02*
X347583Y107583D01*
X346583Y109583D01*
X348583Y108583D01*
X350583Y109583D01*
X349583Y107583D01*
X350583Y105584D01*
X348583Y106583D01*
X346583Y105584D01*
X351525Y101317D02*
X352525Y103317D01*
X351525Y105317D01*
X353525Y104317D01*
X355525Y105317D01*
X354525Y103317D01*
X355525Y101317D01*
X353525Y102317D01*
X351525Y101317D01*
X346583D02*
X347583Y103317D01*
X346583Y105317D01*
X348583Y104317D01*
X350583Y105317D01*
X349583Y103317D01*
X350583Y101317D01*
X348583Y102317D01*
X346583Y101317D01*
X351425Y109850D02*
X352425Y111850D01*
X351425Y113850D01*
X353425Y112850D01*
X355425Y113850D01*
X354425Y111850D01*
X355425Y109850D01*
X353425Y110850D01*
X351425Y109850D01*
X232872Y92342D02*
X230872Y96342D01*
X234872D01*
X232872Y92342D01*
X243110Y86848D02*
X241110Y90848D01*
X245110D01*
X243110Y86848D01*
X235593Y89222D02*
X233593Y93222D01*
X237593D01*
X235593Y89222D01*
X235500Y80563D02*
X233500Y84563D01*
X237500D01*
X235500Y80563D01*
X238558Y62744D02*
X236558Y66744D01*
X240558D01*
X238558Y62744D01*
X235580Y77473D02*
X233580Y81472D01*
X237580D01*
X235580Y77473D01*
X235700Y73889D02*
X233700Y77889D01*
X237700D01*
X235700Y73889D01*
X238358Y71290D02*
X236358Y75290D01*
X240358D01*
X238358Y71290D01*
X238447Y67617D02*
X236447Y71617D01*
X240447D01*
X238447Y67617D01*
X220498Y67736D02*
X218498Y71736D01*
X222498D01*
X220498Y67736D01*
X220408Y71051D02*
X218408Y75051D01*
X222408D01*
X220408Y71051D01*
X241852Y67527D02*
X239852Y71527D01*
X243852D01*
X241852Y67527D01*
X211746Y67238D02*
X209746Y71238D01*
X213746D01*
X211746Y67238D01*
X212039Y25772D02*
X210039Y29772D01*
X214039D01*
X212039Y25772D01*
X223186Y73829D02*
X221186Y77829D01*
X225186D01*
X223186Y73829D01*
X204882Y26189D02*
X202882Y30189D01*
X206882D01*
X204882Y26189D01*
X223275Y77114D02*
X221275Y81114D01*
X225275D01*
X223275Y77114D01*
X223233Y80726D02*
X221233Y84726D01*
X225233D01*
X223233Y80726D01*
X223209Y87267D02*
X221209Y91267D01*
X225209D01*
X223209Y87267D01*
X205398Y22267D02*
X203398Y26267D01*
X207398D01*
X205398Y22267D01*
X226604Y90346D02*
X224604Y94345D01*
X228604D01*
X226604Y90346D01*
X243198Y83064D02*
X241198Y87064D01*
X245198D01*
X243198Y83064D01*
X229476Y93462D02*
X227476Y97462D01*
X231476D01*
X229476Y93462D01*
X233579Y62778D02*
X231579Y66778D01*
X235579D01*
X233579Y62778D01*
X233460Y60837D02*
X231460Y64837D01*
X235460D01*
X233460Y60837D01*
X233787Y56119D02*
X231787Y60119D01*
X235787D01*
X233787Y56119D01*
X233149Y51150D02*
X231149Y55150D01*
X235149D01*
X233149Y51150D01*
Y48733D02*
X231149Y52733D01*
X235149D01*
X233149Y48733D01*
Y46116D02*
X231149Y50116D01*
X235149D01*
X233149Y46116D01*
X233143Y42299D02*
X231143Y46299D01*
X235143D01*
X233143Y42299D01*
X226023Y41644D02*
X224023Y45643D01*
X228023D01*
X226023Y41644D01*
X233514Y26092D02*
X231514Y30092D01*
X235514D01*
X233514Y26092D01*
X232304Y22729D02*
X230304Y26729D01*
X234304D01*
X232304Y22729D01*
X214685Y27370D02*
X212685Y31370D01*
X216685D01*
X214685Y27370D01*
X226023Y48246D02*
X224023Y52246D01*
X228023D01*
X226023Y48246D01*
Y51098D02*
X224023Y55098D01*
X228023D01*
X226023Y51098D01*
Y54489D02*
X224023Y58490D01*
X228023D01*
X226023Y54489D01*
X225694Y62778D02*
X223694Y66778D01*
X227695D01*
X225694Y62778D01*
X225574Y60597D02*
X223574Y64597D01*
X227574D01*
X225574Y60597D01*
X145376Y75586D02*
X143376Y79586D01*
X147376D01*
X145376Y75586D01*
Y70548D02*
X143376Y74548D01*
X147376D01*
X145376Y70548D01*
Y66729D02*
X143376Y70729D01*
X147376D01*
X145376Y66729D01*
Y63711D02*
X143376Y67711D01*
X147376D01*
X145376Y63711D01*
Y60692D02*
X143376Y64692D01*
X147376D01*
X145376Y60692D01*
Y57673D02*
X143376Y61673D01*
X147376D01*
X145376Y57673D01*
Y54654D02*
X143376Y58654D01*
X147376D01*
X145376Y54654D01*
Y42579D02*
X143376Y46580D01*
X147376D01*
X145376Y42579D01*
Y39561D02*
X143376Y43561D01*
X147376D01*
X145376Y39561D01*
X137598Y70900D02*
X135598Y74900D01*
X139598D01*
X137598Y70900D01*
Y68195D02*
X135598Y72195D01*
X139598D01*
X137598Y68195D01*
Y65389D02*
X135598Y69389D01*
X139598D01*
X137598Y65389D01*
Y62583D02*
X135598Y66583D01*
X139598D01*
X137598Y62583D01*
Y59778D02*
X135598Y63778D01*
X139598D01*
X137598Y59778D01*
Y56972D02*
X135598Y60972D01*
X139598D01*
X137598Y56972D01*
Y54166D02*
X135598Y58166D01*
X139598D01*
X137598Y54166D01*
Y43000D02*
X135598Y47000D01*
X139598D01*
X137598Y43000D01*
Y39378D02*
X135598Y43378D01*
X139598D01*
X137598Y39378D01*
X60551Y143551D02*
X58551Y147551D01*
X62551D01*
X60551Y143551D01*
Y140458D02*
X58551Y144458D01*
X62551D01*
X60551Y140458D01*
Y137365D02*
X58551Y141365D01*
X62551D01*
X60551Y137365D01*
Y134272D02*
X58551Y138272D01*
X62551D01*
X60551Y134272D01*
Y131179D02*
X58551Y135179D01*
X62551D01*
X60551Y131179D01*
Y128086D02*
X58551Y132086D01*
X62551D01*
X60551Y128086D01*
Y124993D02*
X58551Y128993D01*
X62551D01*
X60551Y124993D01*
Y121900D02*
X58551Y125900D01*
X62551D01*
X60551Y121900D01*
Y118807D02*
X58551Y122807D01*
X62551D01*
X60551Y118807D01*
Y115714D02*
X58551Y119714D01*
X62551D01*
X60551Y115714D01*
Y112621D02*
X58551Y116621D01*
X62551D01*
X60551Y112621D01*
X54409Y146307D02*
X52409Y150307D01*
X56410D01*
X54409Y146307D01*
X52677Y143630D02*
X50677Y147630D01*
X54677D01*
X52677Y143630D01*
Y140481D02*
X50677Y144481D01*
X54677D01*
X52677Y140481D01*
Y137333D02*
X50677Y141333D01*
X54677D01*
X52677Y137333D01*
Y134184D02*
X50677Y138184D01*
X54677D01*
X52677Y134184D01*
Y131036D02*
X50677Y135036D01*
X54677D01*
X52677Y131036D01*
Y127887D02*
X50677Y131887D01*
X54677D01*
X52677Y127887D01*
Y124739D02*
X50677Y128739D01*
X54677D01*
X52677Y124739D01*
Y121590D02*
X50677Y125590D01*
X54677D01*
X52677Y121590D01*
Y118441D02*
X50677Y122441D01*
X54677D01*
X52677Y118441D01*
Y115293D02*
X50677Y119293D01*
X54677D01*
X52677Y115293D01*
Y108996D02*
X50677Y112996D01*
X54677D01*
X52677Y108996D01*
Y105847D02*
X50677Y109847D01*
X54677D01*
X52677Y105847D01*
Y102699D02*
X50677Y106699D01*
X54677D01*
X52677Y102699D01*
Y99550D02*
X50677Y103550D01*
X54677D01*
X52677Y99550D01*
Y96402D02*
X50677Y100402D01*
X54677D01*
X52677Y96402D01*
Y93253D02*
X50677Y97253D01*
X54677D01*
X52677Y93253D01*
Y90105D02*
X50677Y94105D01*
X54677D01*
X52677Y90105D01*
Y86956D02*
X50677Y90956D01*
X54677D01*
X52677Y86956D01*
Y83808D02*
X50677Y87808D01*
X54677D01*
X52677Y83808D01*
Y80659D02*
X50677Y84659D01*
X54677D01*
X52677Y80659D01*
Y77510D02*
X50677Y81511D01*
X54677D01*
X52677Y77510D01*
Y74362D02*
X50677Y78362D01*
X54677D01*
X52677Y74362D01*
Y71213D02*
X50677Y75213D01*
X54677D01*
X52677Y71213D01*
Y68265D02*
X50677Y72265D01*
X54677D01*
X52677Y68265D01*
X60551Y103342D02*
X58551Y107342D01*
X62551D01*
X60551Y103342D01*
Y100249D02*
X58551Y104249D01*
X62551D01*
X60551Y100249D01*
Y97155D02*
X58551Y101155D01*
X62551D01*
X60551Y97155D01*
Y94063D02*
X58551Y98062D01*
X62551D01*
X60551Y94063D01*
Y90970D02*
X58551Y94969D01*
X62551D01*
X60551Y90970D01*
Y87876D02*
X58551Y91876D01*
X62551D01*
X60551Y87876D01*
Y84783D02*
X58551Y88783D01*
X62551D01*
X60551Y84783D01*
Y81690D02*
X58551Y85690D01*
X62551D01*
X60551Y81690D01*
Y78597D02*
X58551Y82597D01*
X62551D01*
X60551Y78597D01*
Y75504D02*
X58551Y79504D01*
X62551D01*
X60551Y75504D01*
Y72411D02*
X58551Y76411D01*
X62551D01*
X60551Y72411D01*
Y69318D02*
X58551Y73318D01*
X62551D01*
X60551Y69318D01*
X52677Y64916D02*
X50677Y68916D01*
X54677D01*
X52677Y64916D01*
Y61568D02*
X50677Y65568D01*
X54677D01*
X52677Y61568D01*
Y58619D02*
X50677Y62619D01*
X54677D01*
X52677Y58619D01*
Y55471D02*
X50677Y59471D01*
X54677D01*
X52677Y55471D01*
Y51622D02*
X50677Y55622D01*
X54677D01*
X52677Y51622D01*
Y46625D02*
X50677Y50625D01*
X54677D01*
X52677Y46625D01*
Y42877D02*
X50677Y46877D01*
X54677D01*
X52677Y42877D01*
Y39728D02*
X50677Y43728D01*
X54677D01*
X52677Y39728D01*
Y35280D02*
X50677Y39279D01*
X54677D01*
X52677Y35280D01*
X52800Y29970D02*
X50800Y33970D01*
X54800D01*
X52800Y29970D01*
X52677Y27134D02*
X50677Y31134D01*
X54677D01*
X52677Y27134D01*
X60551Y56910D02*
X58551Y60910D01*
X62551D01*
X60551Y56910D01*
Y53659D02*
X58551Y57659D01*
X62551D01*
X60551Y53659D01*
Y46856D02*
X58551Y50857D01*
X62551D01*
X60551Y46856D01*
Y36161D02*
X58551Y40161D01*
X62551D01*
X60551Y36161D01*
Y33161D02*
X58551Y37161D01*
X62551D01*
X60551Y33161D01*
Y30161D02*
X58551Y34161D01*
X62551D01*
X60551Y30161D01*
X62672Y68761D02*
X60672Y72761D01*
X64672D01*
X62672Y68761D01*
X60827Y156228D02*
X58827Y160228D01*
X62827D01*
X60827Y156228D01*
X52598Y158827D02*
X50598Y162827D01*
X54598D01*
X52598Y158827D01*
X60551Y27200D02*
X58551Y31200D01*
X62551D01*
X60551Y27200D01*
X49949Y27134D02*
X47949Y31134D01*
X51949D01*
X49949Y27134D01*
X137598Y79417D02*
X135598Y83417D01*
X139598D01*
X137598Y79417D01*
X140079Y87291D02*
X138079Y91291D01*
X142079D01*
X140079Y87291D01*
X167480Y153945D02*
X165480Y157945D01*
X169480D01*
X167480Y153945D01*
X171844Y134496D02*
X169844Y138496D01*
X173844D01*
X171844Y134496D01*
X138071Y155283D02*
X136071Y159283D01*
X140071D01*
X138071Y155283D01*
X130769Y153945D02*
X128769Y157945D01*
X132769D01*
X130769Y153945D01*
X175079Y126583D02*
X173079Y130583D01*
X177079D01*
X175079Y126583D01*
X163661Y153945D02*
X161661Y157945D01*
X165661D01*
X163661Y153945D01*
X175079Y134496D02*
X173079Y138496D01*
X177079D01*
X175079Y134496D01*
X171063Y145953D02*
X169063Y149953D01*
X173063D01*
X171063Y145953D01*
X175079Y138823D02*
X173079Y142823D01*
X177079D01*
X175079Y138823D01*
X165375Y134496D02*
X163375Y138496D01*
X167376D01*
X165375Y134496D01*
X175079Y145953D02*
X173079Y149953D01*
X177079D01*
X175079Y145953D01*
X163622Y145953D02*
X161622Y149953D01*
X165622D01*
X163622Y145953D01*
X167205D02*
X165205Y149953D01*
X169205D01*
X167205Y145953D01*
X133031Y143089D02*
X131032Y147089D01*
X135031D01*
X133031Y143089D01*
X215828Y20970D02*
X213828Y24970D01*
X217828D01*
X215828Y20970D01*
X219505Y19840D02*
X217505Y23840D01*
X221505D01*
X219505Y19840D01*
X223293D02*
X221293Y23840D01*
X225293D01*
X223293Y19840D01*
X227081D02*
X225081Y23840D01*
X229081D01*
X227081Y19840D01*
X230334Y20779D02*
X228334Y24779D01*
X232334D01*
X230334Y20779D01*
X218553Y27458D02*
X216553Y31458D01*
X220553D01*
X218553Y27458D01*
X218189Y34024D02*
X216189Y38024D01*
X220189D01*
X218189Y34024D01*
X188631Y22267D02*
X186631Y26267D01*
X190631D01*
X188631Y22267D01*
X215336Y15937D02*
X213336Y19937D01*
X217336D01*
X215336Y15937D01*
X212662Y14547D02*
X210662Y18547D01*
X214662D01*
X212662Y14547D01*
X213268Y32291D02*
X211268Y36291D01*
X215268D01*
X213268Y32291D01*
X209311Y14547D02*
X207311Y18547D01*
X211311D01*
X209311Y14547D01*
X205961D02*
X203961Y18547D01*
X207961D01*
X205961Y14547D01*
X199259D02*
X197259Y18547D01*
X201259D01*
X199259Y14547D01*
X195909D02*
X193909Y18547D01*
X197909D01*
X195909Y14547D01*
X189208D02*
X187208Y18547D01*
X191208D01*
X189208Y14547D01*
X174022D02*
X172022Y18547D01*
X176022D01*
X174022Y14547D01*
X170522D02*
X168522Y18547D01*
X172522D01*
X170522Y14547D01*
X167022D02*
X165022Y18547D01*
X169022D01*
X167022Y14547D01*
X163522D02*
X161522Y18547D01*
X165522D01*
X163522Y14547D01*
X160022D02*
X158022Y18547D01*
X162022D01*
X160022Y14547D01*
X156522D02*
X154522Y18547D01*
X158522D01*
X156522Y14547D01*
X153022D02*
X151022Y18547D01*
X155022D01*
X153022Y14547D01*
X149522D02*
X147522Y18547D01*
X151522D01*
X149522Y14547D01*
X208000Y20956D02*
X206000Y24956D01*
X210000D01*
X208000Y20956D01*
X208015Y23546D02*
X206015Y27546D01*
X210015D01*
X208015Y23546D01*
X192306Y22267D02*
X190306Y26267D01*
X194306D01*
X192306Y22267D01*
X174022D02*
X172022Y26267D01*
X176022D01*
X174022Y22267D01*
X170533D02*
X168533Y26267D01*
X172533D01*
X170533Y22267D01*
X167043D02*
X165043Y26267D01*
X169043D01*
X167043Y22267D01*
X164009Y22565D02*
X162009Y26565D01*
X166009D01*
X164009Y22565D01*
X161150Y22267D02*
X159150Y26267D01*
X163150D01*
X161150Y22267D01*
X157993D02*
X155993Y26267D01*
X159993D01*
X157993Y22267D01*
X115787Y88118D02*
X113787Y92118D01*
X117787D01*
X115787Y88118D01*
X106471Y87291D02*
X104471Y91291D01*
X108471D01*
X106471Y87291D01*
X110722Y80461D02*
X108722Y84461D01*
X112722D01*
X110722Y80461D01*
X107572Y79417D02*
X105572Y83417D01*
X109572D01*
X107572Y79417D01*
X102047Y77842D02*
X100047Y81842D01*
X104047D01*
X102047Y77842D01*
X80354Y79417D02*
X78354Y83417D01*
X82354D01*
X80354Y79417D01*
X70630Y83630D02*
X68630Y87630D01*
X72630D01*
X70630Y83630D01*
X68622Y79063D02*
X66622Y83063D01*
X70622D01*
X68622Y79063D01*
X78701Y87291D02*
X76701Y91291D01*
X80701D01*
X78701Y87291D01*
X81614D02*
X79614Y91291D01*
X83614D01*
X81614Y87291D01*
X89016Y77764D02*
X87016Y81764D01*
X91016D01*
X89016Y77764D01*
X166131Y42774D02*
X164131Y46774D01*
X168131D01*
X166131Y42774D01*
X84409Y79417D02*
X82410Y83417D01*
X86409D01*
X84409Y79417D01*
X76339D02*
X74339Y83417D01*
X78339D01*
X76339Y79417D01*
X175512Y37724D02*
X173512Y41724D01*
X177512D01*
X175512Y37724D01*
X167087Y40323D02*
X165087Y44323D01*
X169087D01*
X167087Y40323D01*
X172598Y43315D02*
X170598Y47315D01*
X174598D01*
X172598Y43315D01*
X175472Y42252D02*
X173472Y46252D01*
X177472D01*
X175472Y42252D01*
X68504Y73000D02*
X66504Y77000D01*
X70504D01*
X68504Y73000D01*
X172008Y31543D02*
X170008Y35543D01*
X174008D01*
X172008Y31543D01*
X169381Y38674D02*
X167381Y42674D01*
X171381D01*
X169381Y38674D01*
X63305Y146175D02*
X61305Y150175D01*
X65305D01*
X63305Y146175D01*
X52598Y161390D02*
X50598Y165390D01*
X54598D01*
X52598Y161390D01*
X39467Y174474D02*
X37467Y178474D01*
X41467D01*
X39467Y174474D01*
X36345D02*
X34345Y178474D01*
X38344D01*
X36345Y174474D01*
X33222D02*
X31222Y178474D01*
X35222D01*
X33222Y174474D01*
X58217Y173563D02*
X56217Y177563D01*
X60216D01*
X58217Y173563D01*
X55079Y174474D02*
X53079Y178474D01*
X57079D01*
X55079Y174474D01*
X51956D02*
X49956Y178474D01*
X53956D01*
X51956Y174474D01*
X60827Y168394D02*
X58827Y172394D01*
X62827D01*
X60827Y168394D01*
X10748Y39850D02*
X8748Y43850D01*
X12748D01*
X10748Y39850D01*
X28504Y19220D02*
X26504Y23221D01*
X30504D01*
X28504Y19220D01*
X36662D02*
X34662Y23221D01*
X38662D01*
X36662Y19220D01*
X39505D02*
X37505Y23221D01*
X41506D01*
X39505Y19220D01*
X48035D02*
X46035Y23221D01*
X50035D01*
X48035Y19220D01*
X50879D02*
X48879Y23221D01*
X52879D01*
X50879Y19220D01*
X28268Y27134D02*
X26268Y31134D01*
X30268D01*
X28268Y27134D01*
X36310D02*
X34310Y31134D01*
X38311D01*
X36310Y27134D01*
X41766D02*
X39766Y31134D01*
X43766D01*
X41766Y27134D01*
X44494D02*
X42494Y31134D01*
X46494D01*
X44494Y27134D01*
X53722Y19220D02*
X51722Y23221D01*
X55722D01*
X53722Y19220D01*
X56850Y19811D02*
X54850Y23811D01*
X58850D01*
X56850Y19811D01*
X47222Y27134D02*
X45222Y31134D01*
X49222D01*
X47222Y27134D01*
X140222Y148761D02*
X138222Y152761D01*
X142222D01*
X140222Y148761D01*
Y151361D02*
X138222Y155361D01*
X142222D01*
X140222Y151361D01*
X136815Y153261D02*
X134815Y157261D01*
X138815D01*
X136815Y153261D01*
X143618Y146861D02*
X141618Y150861D01*
X145618D01*
X143618Y146861D01*
X133031Y134496D02*
X131032Y138496D01*
X135031D01*
X133031Y134496D01*
X140222Y154261D02*
X138222Y158261D01*
X142222D01*
X140222Y154261D01*
X104331Y158984D02*
X102331Y162984D01*
X106331D01*
X104331Y158984D01*
X108898Y158905D02*
X106898Y162906D01*
X110898D01*
X108898Y158905D01*
X113240Y156180D02*
X111240Y160180D01*
X115240D01*
X113240Y156180D01*
X115650Y153945D02*
X113650Y157945D01*
X117650D01*
X115650Y153945D01*
X127402D02*
X125402Y157945D01*
X129402D01*
X127402Y153945D01*
X142362Y155244D02*
X140362Y159244D01*
X144362D01*
X142362Y155244D01*
X137953Y144811D02*
X135953Y148811D01*
X139953D01*
X137953Y144811D01*
X182992Y116543D02*
X180992Y120543D01*
X184992D01*
X182992Y116543D01*
X174280Y99600D02*
X172280Y103600D01*
X176280D01*
X174280Y99600D01*
X129619Y87646D02*
X127619Y91646D01*
X131619D01*
X129619Y87646D01*
X142283Y144929D02*
X140284Y148929D01*
X144283D01*
X142283Y144929D01*
X132362Y87646D02*
X130362Y91646D01*
X134362D01*
X132362Y87646D01*
X174550Y94340D02*
X172550Y98340D01*
X176550D01*
X174550Y94340D01*
X200709Y127724D02*
X198709Y131724D01*
X202709D01*
X200709Y127724D01*
X167953Y92751D02*
X165953Y96751D01*
X169953D01*
X167953Y92751D01*
Y95454D02*
X165953Y99454D01*
X169953D01*
X167953Y95454D01*
X175669Y89850D02*
X173669Y93850D01*
X177669D01*
X175669Y89850D01*
X184722Y85361D02*
X182722Y89361D01*
X186722D01*
X184722Y85361D01*
X172222Y87461D02*
X170222Y91461D01*
X174222D01*
X172222Y87461D01*
X182953Y95087D02*
X180953Y99087D01*
X184953D01*
X182953Y95087D01*
X152756Y117134D02*
X150756Y121134D01*
X154756D01*
X152756Y117134D01*
X146922Y103614D02*
X147922Y104614D01*
X148922D01*
X147922Y105614D01*
X148922Y106614D01*
X147922D01*
X146922Y107614D01*
X145922Y106614D01*
X144922D01*
X145922Y105614D01*
X144922Y104614D01*
X145922D01*
X146922Y103614D01*
X126400Y108950D02*
X124400Y112950D01*
X128400D01*
X126400Y108950D01*
X139322Y107161D02*
X140322Y108161D01*
X141322D01*
X140322Y109161D01*
X141322Y110161D01*
X140322D01*
X139322Y111161D01*
X138322Y110161D01*
X137322D01*
X138322Y109161D01*
X137322Y108161D01*
X138322D01*
X139322Y107161D01*
X50122Y154961D02*
X48122Y158961D01*
X52122D01*
X50122Y154961D01*
X44932Y158730D02*
X42932Y162730D01*
X46931D01*
X44932Y158730D01*
X64500Y44690D02*
X62500Y48690D01*
X66500D01*
X64500Y44690D01*
X37122Y124761D02*
X35122Y128761D01*
X39122D01*
X37122Y124761D01*
X64590Y28610D02*
X62590Y32610D01*
X66590D01*
X64590Y28610D01*
X68272Y54461D02*
X66272Y58461D01*
X70272D01*
X68272Y54461D01*
X49322Y139261D02*
X50322Y140261D01*
X51322D01*
X50322Y141261D01*
X51322Y142261D01*
X50322D01*
X49322Y143261D01*
X48322Y142261D01*
X47322D01*
X48322Y141261D01*
X47322Y140261D01*
X48322D01*
X49322Y139261D01*
X105984Y69968D02*
X103984Y73968D01*
X107984D01*
X105984Y69968D01*
X150250Y82550D02*
X148250Y86550D01*
X152250D01*
X150250Y82550D01*
X135122Y55361D02*
X133122Y59361D01*
X137122D01*
X135122Y55361D01*
X131072D02*
X129072Y59361D01*
X133072D01*
X131072Y55361D01*
X125616Y21873D02*
X126616Y22873D01*
X127616D01*
X126616Y23873D01*
X127616Y24873D01*
X126616D01*
X125616Y25873D01*
X124616Y24873D01*
X123616D01*
X124616Y23873D01*
X123616Y22873D01*
X124616D01*
X125616Y21873D01*
X129400Y15350D02*
X130400Y16350D01*
X131400D01*
X130400Y17350D01*
X131400Y18350D01*
X130400D01*
X129400Y19350D01*
X128400Y18350D01*
X127400D01*
X128400Y17350D01*
X127400Y16350D01*
X128400D01*
X129400Y15350D01*
X215813Y18414D02*
X213813Y22414D01*
X217813D01*
X215813Y18414D01*
X148794Y22820D02*
X146794Y26820D01*
X150794D01*
X148794Y22820D01*
Y24769D02*
X146794Y28769D01*
X150794D01*
X148794Y24769D01*
Y26757D02*
X146794Y30757D01*
X150794D01*
X148794Y26757D01*
Y28762D02*
X146794Y32762D01*
X150794D01*
X148794Y28762D01*
Y30694D02*
X146794Y34694D01*
X150794D01*
X148794Y30694D01*
X182178Y54897D02*
X180178Y58897D01*
X184178D01*
X182178Y54897D01*
X181678Y60739D02*
X179678Y64739D01*
X183678D01*
X181678Y60739D01*
X192558Y14547D02*
X190558Y18547D01*
X194558D01*
X192558Y14547D01*
X191778Y49139D02*
X192778Y50139D01*
X193778D01*
X192778Y51139D01*
X193778Y52139D01*
X192778D01*
X191778Y53139D01*
X190778Y52139D01*
X189778D01*
X190778Y51139D01*
X189778Y50139D01*
X190778D01*
X191778Y49139D01*
X197897Y55804D02*
X198897Y56804D01*
X199897D01*
X198897Y57804D01*
X199897Y58804D01*
X198897D01*
X197897Y59804D01*
X196897Y58804D01*
X195897D01*
X196897Y57804D01*
X195897Y56804D01*
X196897D01*
X197897Y55804D01*
X156299Y81307D02*
X154299Y85307D01*
X158299D01*
X156299Y81307D01*
X191181Y64378D02*
X192181Y65378D01*
X193181D01*
X192181Y66378D01*
X193181Y67378D01*
X192181D01*
X191181Y68378D01*
X190181Y67378D01*
X189181D01*
X190181Y66378D01*
X189181Y65378D01*
X190181D01*
X191181Y64378D01*
X194716Y84873D02*
X195716Y85873D01*
X196716D01*
X195716Y86873D01*
X196716Y87873D01*
X195716D01*
X194716Y88873D01*
X193716Y87873D01*
X192716D01*
X193716Y86873D01*
X192716Y85873D01*
X193716D01*
X194716Y84873D01*
X240905Y145087D02*
X238906Y149087D01*
X242905D01*
X240905Y145087D01*
X242060Y167044D02*
X240060Y171044D01*
X244060D01*
X242060Y167044D01*
X251484Y136177D02*
X252484Y137177D01*
X253484D01*
X252484Y138177D01*
X253484Y139177D01*
X252484D01*
X251484Y140177D01*
X250484Y139177D01*
X249484D01*
X250484Y138177D01*
X249484Y137177D01*
X250484D01*
X251484Y136177D01*
X209860Y185344D02*
X207860Y189344D01*
X211860D01*
X209860Y185344D01*
X158409Y52646D02*
X156409Y56646D01*
X160409D01*
X158409Y52646D01*
X257822Y163761D02*
X255822Y167761D01*
X259822D01*
X257822Y163761D01*
X178667Y171555D02*
X179667Y172555D01*
X180667D01*
X179667Y173555D01*
X180667Y174555D01*
X179667D01*
X178667Y175555D01*
X177667Y174555D01*
X176667D01*
X177667Y173555D01*
X176667Y172555D01*
X177667D01*
X178667Y171555D01*
X184610Y172055D02*
X185610Y173055D01*
X186610D01*
X185610Y174055D01*
X186610Y175055D01*
X185610D01*
X184610Y176055D01*
X183610Y175055D01*
X182610D01*
X183610Y174055D01*
X182610Y173055D01*
X183610D01*
X184610Y172055D01*
X172722Y163561D02*
X170722Y167561D01*
X174722D01*
X172722Y163561D01*
X152422Y157863D02*
X150422Y161863D01*
X154422D01*
X152422Y157863D01*
X152422Y163661D02*
X150422Y167661D01*
X154422D01*
X152422Y163661D01*
X276822Y47961D02*
X274822Y51961D01*
X278822D01*
X276822Y47961D01*
X276622Y63061D02*
X274622Y67061D01*
X278622D01*
X276622Y63061D01*
X269998Y48361D02*
X267998Y52361D01*
X271998D01*
X269998Y48361D01*
X271822Y30861D02*
X272822Y31861D01*
X273822D01*
X272822Y32861D01*
X273822Y33861D01*
X272822D01*
X271822Y34861D01*
X270822Y33861D01*
X269822D01*
X270822Y32861D01*
X269822Y31861D01*
X270822D01*
X271822Y30861D01*
X278191Y30205D02*
X279191Y31205D01*
X280191D01*
X279191Y32205D01*
X280191Y33205D01*
X279191D01*
X278191Y34205D01*
X277191Y33205D01*
X276191D01*
X277191Y32205D01*
X276191Y31205D01*
X277191D01*
X278191Y30205D01*
Y12291D02*
X279191Y13292D01*
X280191D01*
X279191Y14291D01*
X280191Y15292D01*
X279191D01*
X278191Y16292D01*
X277191Y15292D01*
X276191D01*
X277191Y14291D01*
X276191Y13292D01*
X277191D01*
X278191Y12291D01*
X300041D02*
X301041Y13292D01*
X302041D01*
X301041Y14291D01*
X302041Y15292D01*
X301041D01*
X300041Y16292D01*
X299041Y15292D01*
X298041D01*
X299041Y14291D01*
X298041Y13292D01*
X299041D01*
X300041Y12291D01*
Y30205D02*
X301041Y31205D01*
X302041D01*
X301041Y32205D01*
X302041Y33205D01*
X301041D01*
X300041Y34205D01*
X299041Y33205D01*
X298041D01*
X299041Y32205D01*
X298041Y31205D01*
X299041D01*
X300041Y30205D01*
X285116Y21161D02*
X286116Y22161D01*
X287116D01*
X286116Y23161D01*
X287116Y24161D01*
X286116D01*
X285116Y25161D01*
X284116Y24161D01*
X283116D01*
X284116Y23161D01*
X283116Y22161D01*
X284116D01*
X285116Y21161D01*
Y18361D02*
X286116Y19361D01*
X287116D01*
X286116Y20361D01*
X287116Y21361D01*
X286116D01*
X285116Y22361D01*
X284116Y21361D01*
X283116D01*
X284116Y20361D01*
X283116Y19361D01*
X284116D01*
X285116Y18361D01*
Y15561D02*
X286116Y16561D01*
X287116D01*
X286116Y17561D01*
X287116Y18561D01*
X286116D01*
X285116Y19561D01*
X284116Y18561D01*
X283116D01*
X284116Y17561D01*
X283116Y16561D01*
X284116D01*
X285116Y15561D01*
Y23961D02*
X286116Y24961D01*
X287116D01*
X286116Y25961D01*
X287116Y26961D01*
X286116D01*
X285116Y27961D01*
X284116Y26961D01*
X283116D01*
X284116Y25961D01*
X283116Y24961D01*
X284116D01*
X285116Y23961D01*
Y26761D02*
X286116Y27761D01*
X287116D01*
X286116Y28761D01*
X287116Y29761D01*
X286116D01*
X285116Y30761D01*
X284116Y29761D01*
X283116D01*
X284116Y28761D01*
X283116Y27761D01*
X284116D01*
X285116Y26761D01*
X289116D02*
X290116Y27761D01*
X291116D01*
X290116Y28761D01*
X291116Y29761D01*
X290116D01*
X289116Y30761D01*
X288116Y29761D01*
X287116D01*
X288116Y28761D01*
X287116Y27761D01*
X288116D01*
X289116Y26761D01*
Y23961D02*
X290116Y24961D01*
X291116D01*
X290116Y25961D01*
X291116Y26961D01*
X290116D01*
X289116Y27961D01*
X288116Y26961D01*
X287116D01*
X288116Y25961D01*
X287116Y24961D01*
X288116D01*
X289116Y23961D01*
Y15561D02*
X290116Y16561D01*
X291116D01*
X290116Y17561D01*
X291116Y18561D01*
X290116D01*
X289116Y19561D01*
X288116Y18561D01*
X287116D01*
X288116Y17561D01*
X287116Y16561D01*
X288116D01*
X289116Y15561D01*
Y18361D02*
X290116Y19361D01*
X291116D01*
X290116Y20361D01*
X291116Y21361D01*
X290116D01*
X289116Y22361D01*
X288116Y21361D01*
X287116D01*
X288116Y20361D01*
X287116Y19361D01*
X288116D01*
X289116Y18361D01*
Y21161D02*
X290116Y22161D01*
X291116D01*
X290116Y23161D01*
X291116Y24161D01*
X290116D01*
X289116Y25161D01*
X288116Y24161D01*
X287116D01*
X288116Y23161D01*
X287116Y22161D01*
X288116D01*
X289116Y21161D01*
X293116Y26761D02*
X294116Y27761D01*
X295116D01*
X294116Y28761D01*
X295116Y29761D01*
X294116D01*
X293116Y30761D01*
X292116Y29761D01*
X291116D01*
X292116Y28761D01*
X291116Y27761D01*
X292116D01*
X293116Y26761D01*
Y23961D02*
X294116Y24961D01*
X295116D01*
X294116Y25961D01*
X295116Y26961D01*
X294116D01*
X293116Y27961D01*
X292116Y26961D01*
X291116D01*
X292116Y25961D01*
X291116Y24961D01*
X292116D01*
X293116Y23961D01*
Y15561D02*
X294116Y16561D01*
X295116D01*
X294116Y17561D01*
X295116Y18561D01*
X294116D01*
X293116Y19561D01*
X292116Y18561D01*
X291116D01*
X292116Y17561D01*
X291116Y16561D01*
X292116D01*
X293116Y15561D01*
Y18361D02*
X294116Y19361D01*
X295116D01*
X294116Y20361D01*
X295116Y21361D01*
X294116D01*
X293116Y22361D01*
X292116Y21361D01*
X291116D01*
X292116Y20361D01*
X291116Y19361D01*
X292116D01*
X293116Y18361D01*
Y21161D02*
X294116Y22161D01*
X295116D01*
X294116Y23161D01*
X295116Y24161D01*
X294116D01*
X293116Y25161D01*
X292116Y24161D01*
X291116D01*
X292116Y23161D01*
X291116Y22161D01*
X292116D01*
X293116Y21161D01*
X272516Y7748D02*
X273516Y8748D01*
X274516D01*
X273516Y9748D01*
X274516Y10748D01*
X273516D01*
X272516Y11748D01*
X271516Y10748D01*
X270516D01*
X271516Y9748D01*
X270516Y8748D01*
X271516D01*
X272516Y7748D01*
X323922Y13461D02*
X321922Y17461D01*
X325922D01*
X323922Y13461D01*
X324022Y7761D02*
X322022Y11761D01*
X326022D01*
X324022Y7761D01*
X333922Y7861D02*
X331922Y11861D01*
X335922D01*
X333922Y7861D01*
X373780Y18630D02*
X371779Y22630D01*
X375780D01*
X373780Y18630D01*
X363522Y7361D02*
X361522Y11361D01*
X365522D01*
X363522Y7361D01*
X379122Y14161D02*
X377122Y18161D01*
X381122D01*
X379122Y14161D01*
X346378Y36701D02*
X344378Y40701D01*
X348378D01*
X346378Y36701D01*
X368189Y37882D02*
X366189Y41882D01*
X370189D01*
X368189Y37882D01*
X372913Y51976D02*
X370913Y55976D01*
X374913D01*
X372913Y51976D01*
X380922Y54761D02*
X378922Y58761D01*
X382922D01*
X380922Y54761D01*
X308466Y168511D02*
X309466Y169511D01*
X310466D01*
X309466Y170511D01*
X310466Y171511D01*
X309466D01*
X308466Y172511D01*
X307466Y171511D01*
X306466D01*
X307466Y170511D01*
X306466Y169511D01*
X307466D01*
X308466Y168511D01*
Y164961D02*
X309466Y165961D01*
X310466D01*
X309466Y166961D01*
X310466Y167961D01*
X309466D01*
X308466Y168961D01*
X307466Y167961D01*
X306466D01*
X307466Y166961D01*
X306466Y165961D01*
X307466D01*
X308466Y164961D01*
Y172061D02*
X309466Y173061D01*
X310466D01*
X309466Y174061D01*
X310466Y175061D01*
X309466D01*
X308466Y176061D01*
X307466Y175061D01*
X306466D01*
X307466Y174061D01*
X306466Y173061D01*
X307466D01*
X308466Y172061D01*
X311466D02*
X312466Y173061D01*
X313466D01*
X312466Y174061D01*
X313466Y175061D01*
X312466D01*
X311466Y176061D01*
X310466Y175061D01*
X309466D01*
X310466Y174061D01*
X309466Y173061D01*
X310466D01*
X311466Y172061D01*
Y164961D02*
X312466Y165961D01*
X313466D01*
X312466Y166961D01*
X313466Y167961D01*
X312466D01*
X311466Y168961D01*
X310466Y167961D01*
X309466D01*
X310466Y166961D01*
X309466Y165961D01*
X310466D01*
X311466Y164961D01*
Y168511D02*
X312466Y169511D01*
X313466D01*
X312466Y170511D01*
X313466Y171511D01*
X312466D01*
X311466Y172511D01*
X310466Y171511D01*
X309466D01*
X310466Y170511D01*
X309466Y169511D01*
X310466D01*
X311466Y168511D01*
X314466Y172061D02*
X315466Y173061D01*
X316466D01*
X315466Y174061D01*
X316466Y175061D01*
X315466D01*
X314466Y176061D01*
X313466Y175061D01*
X312466D01*
X313466Y174061D01*
X312466Y173061D01*
X313466D01*
X314466Y172061D01*
Y164961D02*
X315466Y165961D01*
X316466D01*
X315466Y166961D01*
X316466Y167961D01*
X315466D01*
X314466Y168961D01*
X313466Y167961D01*
X312466D01*
X313466Y166961D01*
X312466Y165961D01*
X313466D01*
X314466Y164961D01*
Y168511D02*
X315466Y169511D01*
X316466D01*
X315466Y170511D01*
X316466Y171511D01*
X315466D01*
X314466Y172511D01*
X313466Y171511D01*
X312466D01*
X313466Y170511D01*
X312466Y169511D01*
X313466D01*
X314466Y168511D01*
X244522Y47961D02*
X245522Y48961D01*
X246522D01*
X245522Y49961D01*
X246522Y50961D01*
X245522D01*
X244522Y51961D01*
X243522Y50961D01*
X242522D01*
X243522Y49961D01*
X242522Y48961D01*
X243522D01*
X244522Y47961D01*
X257522Y48161D02*
X258522Y49161D01*
X259522D01*
X258522Y50161D01*
X259522Y51161D01*
X258522D01*
X257522Y52161D01*
X256522Y51161D01*
X255522D01*
X256522Y50161D01*
X255522Y49161D01*
X256522D01*
X257522Y48161D01*
X251322Y48061D02*
X252322Y49061D01*
X253322D01*
X252322Y50061D01*
X253322Y51061D01*
X252322D01*
X251322Y52061D01*
X250322Y51061D01*
X249322D01*
X250322Y50061D01*
X249322Y49061D01*
X250322D01*
X251322Y48061D01*
X349916Y142873D02*
X350916Y143873D01*
X351916D01*
X350916Y144873D01*
X351916Y145873D01*
X350916D01*
X349916Y146873D01*
X348916Y145873D01*
X347916D01*
X348916Y144873D01*
X347916Y143873D01*
X348916D01*
X349916Y142873D01*
X362888Y142515D02*
X363888Y143515D01*
X364888D01*
X363888Y144515D01*
X364888Y145515D01*
X363888D01*
X362888Y146515D01*
X361888Y145515D01*
X360888D01*
X361888Y144515D01*
X360888Y143515D01*
X361888D01*
X362888Y142515D01*
Y159838D02*
X363888Y160838D01*
X364888D01*
X363888Y161838D01*
X364888Y162838D01*
X363888D01*
X362888Y163838D01*
X361888Y162838D01*
X360888D01*
X361888Y161838D01*
X360888Y160838D01*
X361888D01*
X362888Y159838D01*
X349916Y159573D02*
X350916Y160573D01*
X351916D01*
X350916Y161573D01*
X351916Y162573D01*
X350916D01*
X349916Y163573D01*
X348916Y162573D01*
X347916D01*
X348916Y161573D01*
X347916Y160573D01*
X348916D01*
X349916Y159573D01*
X370222Y171561D02*
X371222Y172561D01*
X372222D01*
X371222Y173561D01*
X372222Y174561D01*
X371222D01*
X370222Y175561D01*
X369222Y174561D01*
X368222D01*
X369222Y173561D01*
X368222Y172561D01*
X369222D01*
X370222Y171561D01*
X386903Y171649D02*
X387903Y172649D01*
X388903D01*
X387903Y173649D01*
X388903Y174649D01*
X387903D01*
X386903Y175649D01*
X385903Y174649D01*
X384903D01*
X385903Y173649D01*
X384903Y172649D01*
X385903D01*
X386903Y171649D01*
X353416Y172673D02*
X354416Y173673D01*
X355416D01*
X354416Y174673D01*
X355416Y175673D01*
X354416D01*
X353416Y176673D01*
X352416Y175673D01*
X351416D01*
X352416Y174673D01*
X351416Y173673D01*
X352416D01*
X353416Y172673D01*
X358116Y172573D02*
X359116Y173573D01*
X360116D01*
X359116Y174573D01*
X360116Y175573D01*
X359116D01*
X358116Y176573D01*
X357116Y175573D01*
X356116D01*
X357116Y174573D01*
X356116Y173573D01*
X357116D01*
X358116Y172573D01*
X300590Y84614D02*
X298590Y88614D01*
X302590D01*
X300590Y84614D01*
X314316Y92073D02*
X312316Y96073D01*
X316316D01*
X314316Y92073D01*
X274916Y87773D02*
X272916Y91773D01*
X276916D01*
X274916Y87773D01*
X304022Y96261D02*
X302022Y100261D01*
X306022D01*
X304022Y96261D01*
X280622Y83561D02*
X278622Y87561D01*
X282622D01*
X280622Y83561D01*
X287922Y96561D02*
X285922Y100561D01*
X289922D01*
X287922Y96561D01*
X280522Y105235D02*
X278522Y109235D01*
X282522D01*
X280522Y105235D01*
X280322Y128761D02*
X278322Y132761D01*
X282322D01*
X280322Y128761D01*
X276822Y133461D02*
X274822Y137461D01*
X278822D01*
X276822Y133461D01*
X280522Y138261D02*
X278522Y142261D01*
X282522D01*
X280522Y138261D01*
X297330Y150080D02*
X295330Y154080D01*
X299330D01*
X297330Y150080D01*
X168022Y157461D02*
X166022Y161461D01*
X170022D01*
X168022Y157461D01*
X134006Y153945D02*
X132006Y157945D01*
X136006D01*
X134006Y153945D01*
X173858Y28354D02*
X171858Y32354D01*
X175858D01*
X173858Y28354D01*
X139016Y88984D02*
X137016Y92984D01*
X141016D01*
X139016Y88984D01*
X181535Y65126D02*
X179535Y69126D01*
X183535D01*
X181535Y65126D01*
X33522Y45161D02*
X31522Y49161D01*
X35522D01*
X33522Y45161D01*
X38322Y4961D02*
X36322Y8961D01*
X40322D01*
X38322Y4961D01*
X34528Y60205D02*
X32528Y64205D01*
X36528D01*
X34528Y60205D01*
X40422Y33461D02*
X38422Y37461D01*
X42422D01*
X40422Y33461D01*
X81929Y3551D02*
X79929Y7551D01*
X83929D01*
X81929Y3551D01*
X130922Y51711D02*
X128922Y55711D01*
X132922D01*
X130922Y51711D01*
X192316Y28162D02*
X190316Y32162D01*
X194316D01*
X192316Y28162D01*
X176063Y32331D02*
X174063Y36331D01*
X178063D01*
X176063Y32331D01*
X258322Y7361D02*
X256322Y11361D01*
X260322D01*
X258322Y7361D01*
X264822Y13661D02*
X262822Y17661D01*
X266822D01*
X264822Y13661D01*
X287822Y8361D02*
X285822Y12361D01*
X289822D01*
X287822Y8361D01*
X308222Y6361D02*
X306222Y10361D01*
X310222D01*
X308222Y6361D01*
X324922Y39961D02*
X322922Y43961D01*
X326922D01*
X324922Y39961D01*
X265422Y74661D02*
X263422Y78661D01*
X267422D01*
X265422Y74661D01*
X323622Y65087D02*
X321622Y69087D01*
X325622D01*
X323622Y65087D01*
X270122Y116261D02*
X268122Y120261D01*
X272122D01*
X270122Y116261D01*
X270276Y140874D02*
X268276Y144874D01*
X272276D01*
X270276Y140874D01*
X268522Y145661D02*
X266522Y149661D01*
X270522D01*
X268522Y145661D01*
X103661Y19378D02*
X101661Y23378D01*
X105661D01*
X103661Y19378D01*
X253450Y123750D02*
X251450Y127750D01*
X255450D01*
X253450Y123750D01*
X339803Y121425D02*
X337803Y125425D01*
X341803D01*
X339803Y121425D01*
X265522Y30061D02*
X263522Y34061D01*
X267522D01*
X265522Y30061D01*
X265222Y52861D02*
X263222Y56861D01*
X267222D01*
X265222Y52861D01*
X265422Y69361D02*
X263422Y73361D01*
X267422D01*
X265422Y69361D01*
X264522Y178261D02*
X262522Y182261D01*
X266522D01*
X264522Y178261D01*
X258122Y183661D02*
X256122Y187661D01*
X260122D01*
X258122Y183661D01*
X199055Y135480D02*
X197055Y139480D01*
X201055D01*
X199055Y135480D01*
X191208Y186328D02*
X189208Y190328D01*
X193208D01*
X191208Y186328D01*
X171922Y186161D02*
X169922Y190161D01*
X173922D01*
X171922Y186161D01*
X134322Y186361D02*
X132322Y190361D01*
X136322D01*
X134322Y186361D01*
X123722Y186161D02*
X121722Y190161D01*
X125722D01*
X123722Y186161D01*
X104022Y186261D02*
X102022Y190261D01*
X106022D01*
X104022Y186261D01*
X84222Y186361D02*
X82222Y190361D01*
X86222D01*
X84222Y186361D01*
X66022Y185161D02*
X64022Y189161D01*
X68022D01*
X66022Y185161D01*
X65197Y176307D02*
X63197Y180307D01*
X67197D01*
X65197Y176307D01*
X62953Y153669D02*
X60953Y157669D01*
X64953D01*
X62953Y153669D01*
X119570Y128200D02*
X117570Y132200D01*
X121570D01*
X119570Y128200D01*
X115905Y116189D02*
X113906Y120189D01*
X117905D01*
X115905Y116189D01*
X110315Y142488D02*
X108315Y146488D01*
X112315D01*
X110315Y142488D01*
X43222Y56161D02*
X41222Y60161D01*
X45222D01*
X43222Y56161D01*
X42922Y32761D02*
X40922Y36761D01*
X44922D01*
X42922Y32761D01*
X31804Y159861D02*
X29804Y163861D01*
X33804D01*
X31804Y159861D01*
X11904Y179761D02*
X9904Y183761D01*
X13904D01*
X11904Y179761D01*
X36422Y12261D02*
X34422Y16261D01*
X38422D01*
X36422Y12261D01*
X15522Y12761D02*
X13522Y16761D01*
X17522D01*
X15522Y12761D01*
X11307Y32661D02*
X9307Y36661D01*
X13307D01*
X11307Y32661D01*
X35722Y33761D02*
X33722Y37761D01*
X37722D01*
X35722Y33761D01*
X283522Y85261D02*
X281522Y89261D01*
X285522D01*
X283522Y85261D01*
X123122Y55361D02*
X121122Y59361D01*
X125122D01*
X123122Y55361D01*
X167292Y26495D02*
X165292Y30495D01*
X169292D01*
X167292Y26495D01*
X92000Y67800D02*
X90000Y71800D01*
X94000D01*
X92000Y67800D01*
X80872Y67761D02*
X78872Y71761D01*
X82872D01*
X80872Y67761D01*
X89016Y34850D02*
X87016Y38850D01*
X91016D01*
X89016Y34850D01*
X78661Y44024D02*
X76661Y48024D01*
X80661D01*
X78661Y44024D01*
X42589Y174474D02*
X40589Y178474D01*
X44589D01*
X42589Y174474D01*
X39038Y27134D02*
X37038Y31134D01*
X41038D01*
X39038Y27134D01*
X42349Y19220D02*
X40349Y23221D01*
X44349D01*
X42349Y19220D01*
X18827Y96421D02*
X19827Y98421D01*
X18827Y100420D01*
X20827Y99420D01*
X22827Y100420D01*
X21827Y98421D01*
X22827Y96421D01*
X20827Y97421D01*
X18827Y96421D01*
X19627Y97220D02*
X20227Y98421D01*
X19627Y99620D01*
X20827Y99020D01*
X22027Y99620D01*
X21427Y98421D01*
X22027Y97220D01*
X20827Y97821D01*
X19627Y97220D01*
X158744Y33787D02*
X159744Y35787D01*
X158744Y37787D01*
X160744Y36787D01*
X162744Y37787D01*
X161744Y35787D01*
X162744Y33787D01*
X160744Y34787D01*
X158744Y33787D01*
X159544Y34587D02*
X160144Y35787D01*
X159544Y36987D01*
X160744Y36387D01*
X161944Y36987D01*
X161344Y35787D01*
X161944Y34587D01*
X160744Y35187D01*
X159544Y34587D01*
X377295Y183300D02*
X378295Y185300D01*
X377295Y187300D01*
X379295Y186300D01*
X381295Y187300D01*
X380295Y185300D01*
X381295Y183300D01*
X379295Y184300D01*
X377295Y183300D01*
X378095Y184100D02*
X378695Y185300D01*
X378095Y186500D01*
X379295Y185900D01*
X380495Y186500D01*
X379895Y185300D01*
X380495Y184100D01*
X379295Y184700D01*
X378095Y184100D01*
X355422Y30650D02*
X356422Y32650D01*
X355422Y34650D01*
X357422Y33650D01*
X359422Y34650D01*
X358422Y32650D01*
X359422Y30650D01*
X357422Y31650D01*
X355422Y30650D01*
X356222Y31450D02*
X356822Y32650D01*
X356222Y33850D01*
X357422Y33250D01*
X358622Y33850D01*
X358022Y32650D01*
X358622Y31450D01*
X357422Y32050D01*
X356222Y31450D01*
X291722Y156561D02*
X292722Y157561D01*
X293722D01*
X292722Y158561D01*
X293722Y159561D01*
X292722D01*
X291722Y160561D01*
X290722Y159561D01*
X289722D01*
X290722Y158561D01*
X289722Y157561D01*
X290722D01*
X291722Y156561D01*
X120222Y26061D02*
X121222Y28061D01*
X120222Y30061D01*
X122222Y29061D01*
X124222Y30061D01*
X123222Y28061D01*
X124222Y26061D01*
X122222Y27061D01*
X120222Y26061D01*
X115322D02*
X116322Y28061D01*
X115322Y30061D01*
X117322Y29061D01*
X119322Y30061D01*
X118322Y28061D01*
X119322Y26061D01*
X117322Y27061D01*
X115322Y26061D01*
X120222Y30061D02*
X121222Y32061D01*
X120222Y34061D01*
X122222Y33061D01*
X124222Y34061D01*
X123222Y32061D01*
X124222Y30061D01*
X122222Y31061D01*
X120222Y30061D01*
X115322D02*
X116322Y32061D01*
X115322Y34061D01*
X117322Y33061D01*
X119322Y34061D01*
X118322Y32061D01*
X119322Y30061D01*
X117322Y31061D01*
X115322Y30061D01*
X182992Y149024D02*
X180992Y153024D01*
X184992D01*
X182992Y149024D01*
Y145776D02*
X180992Y149776D01*
X184992D01*
X182992Y145776D01*
X181320Y152670D02*
X179320Y156670D01*
X183320D01*
X181320Y152670D01*
X215216Y128273D02*
X213216Y132273D01*
X217216D01*
X215216Y128273D01*
X219916D02*
X217916Y132273D01*
X221916D01*
X219916Y128273D01*
X224616D02*
X222616Y132273D01*
X226616D01*
X224616Y128273D01*
X229316Y129673D02*
X227316Y133673D01*
X231316D01*
X229316Y129673D01*
X234016Y128273D02*
X232016Y132273D01*
X236016D01*
X234016Y128273D01*
X220700Y90378D02*
X218700Y94378D01*
X222700D01*
X220700Y90378D01*
X218732D02*
X216732Y94378D01*
X220732D01*
X218732Y90378D01*
X212826D02*
X210826Y94378D01*
X214826D01*
X212826Y90378D01*
X212795Y81976D02*
X210795Y85976D01*
X214795D01*
X212795Y81976D01*
X215122Y79861D02*
X213122Y83861D01*
X217122D01*
X215122Y79861D01*
X196816Y90373D02*
X194816Y94373D01*
X198816D01*
X196816Y90373D01*
X181469Y102134D02*
X179469Y106134D01*
X183469D01*
X181469Y102134D01*
X230550Y143810D02*
X228550Y147810D01*
X232550D01*
X230550Y143810D01*
X205614Y146417D02*
X203614Y150417D01*
X207614D01*
X205614Y146417D01*
X218504Y145874D02*
X216504Y149874D01*
X220504D01*
X218504Y145874D01*
X182992Y123039D02*
X180992Y127039D01*
X184992D01*
X182992Y123039D01*
Y126287D02*
X180992Y130287D01*
X184992D01*
X182992Y126287D01*
X176147Y104105D02*
X174147Y108106D01*
X178147D01*
X176147Y104105D01*
X184850Y92910D02*
X182850Y96910D01*
X186850D01*
X184850Y92910D01*
X188650Y88280D02*
X186650Y92280D01*
X190650D01*
X188650Y88280D01*
X191772Y145598D02*
X189772Y149598D01*
X193772D01*
X191772Y145598D01*
X189173Y102252D02*
X187173Y106252D01*
X191173D01*
X189173Y102252D01*
X186850Y102134D02*
X184850Y106134D01*
X188850D01*
X186850Y102134D01*
X154346Y126583D02*
X152346Y130583D01*
X156346D01*
X154346Y126583D01*
X157801D02*
X155801Y130583D01*
X159801D01*
X157801Y126583D01*
X182992Y110047D02*
X180992Y114047D01*
X184992D01*
X182992Y110047D01*
X184291Y102134D02*
X182291Y106134D01*
X186291D01*
X184291Y102134D01*
X188222Y69161D02*
X186222Y73161D01*
X190222D01*
X188222Y69161D01*
X193222Y89161D02*
X191222Y93161D01*
X195222D01*
X193222Y89161D01*
X164812Y126583D02*
X162812Y130583D01*
X166812D01*
X164812Y126583D01*
X155672Y134496D02*
X153672Y138496D01*
X157672D01*
X155672Y134496D01*
X136266D02*
X134266Y138496D01*
X138266D01*
X136266Y134496D01*
X140315Y146228D02*
X138315Y150228D01*
X142315D01*
X140315Y146228D01*
X139500Y134496D02*
X137500Y138496D01*
X141500D01*
X139500Y134496D01*
X142735D02*
X140735Y138496D01*
X144735D01*
X142735Y134496D01*
X125118Y142527D02*
X123118Y146528D01*
X127118D01*
X125118Y142527D01*
X133031Y140224D02*
X131032Y144224D01*
X135031D01*
X133031Y140224D01*
Y137360D02*
X131032Y141360D01*
X135031D01*
X133031Y137360D01*
X186850Y110047D02*
X184850Y114047D01*
X188850D01*
X186850Y110047D01*
X190915Y131565D02*
X188915Y135565D01*
X192915D01*
X190915Y131565D01*
X192687Y134275D02*
X190687Y138275D01*
X194687D01*
X192687Y134275D01*
X185315Y157173D02*
X183315Y161173D01*
X187315D01*
X185315Y157173D01*
X143879Y126583D02*
X141879Y130583D01*
X145879D01*
X143879Y126583D01*
X127205Y128394D02*
X125205Y132394D01*
X129205D01*
X127205Y128394D01*
X125118Y136465D02*
X123118Y140465D01*
X127118D01*
X125118Y136465D01*
X158907Y134496D02*
X156907Y138496D01*
X160907D01*
X158907Y134496D01*
X127449Y122764D02*
X125449Y126764D01*
X129449D01*
X127449Y122764D01*
X168168Y126583D02*
X166168Y130583D01*
X170168D01*
X168168Y126583D01*
X140524D02*
X138524Y130583D01*
X142524D01*
X140524Y126583D01*
X125118Y145559D02*
X123118Y149559D01*
X127118D01*
X125118Y145559D01*
X70550Y116380D02*
X68550Y120380D01*
X72550D01*
X70550Y116380D01*
X70320Y126590D02*
X68320Y130590D01*
X72320D01*
X70320Y126590D01*
Y133660D02*
X68320Y137660D01*
X72320D01*
X70320Y133660D01*
X64173Y122252D02*
X62173Y126252D01*
X66173D01*
X64173Y122252D01*
X108610Y123320D02*
X106610Y127320D01*
X110610D01*
X108610Y123320D01*
X95244Y91465D02*
Y95465D01*
X99244D01*
Y91465D01*
X95244D01*
X96044Y92265D02*
Y94665D01*
X98444D01*
Y92265D01*
X96044D01*
X64016Y111937D02*
X62016Y115937D01*
X66016D01*
X64016Y111937D01*
X62598Y33079D02*
X60598Y37079D01*
X64598D01*
X62598Y33079D01*
X70490Y112700D02*
X68490Y116700D01*
X72490D01*
X70490Y112700D01*
X62598Y58669D02*
X60598Y62669D01*
X64598D01*
X62598Y58669D01*
X68299Y20712D02*
X66299Y24712D01*
X70299D01*
X68299Y20712D01*
X66693Y83472D02*
X64693Y87472D01*
X68693D01*
X66693Y83472D01*
X66390Y101110D02*
X64390Y105110D01*
X68390D01*
X66390Y101110D01*
X66339Y97055D02*
X64339Y101055D01*
X68339D01*
X66339Y97055D01*
X72320Y80390D02*
X70320Y84390D01*
X74320D01*
X72320Y80390D01*
X169810Y33130D02*
X167810Y37130D01*
X171810D01*
X169810Y33130D01*
X33622Y78061D02*
X31622Y82061D01*
X35622D01*
X33622Y78061D01*
X155079Y42646D02*
X153079Y46646D01*
X157079D01*
X155079Y42646D01*
X60551Y43905D02*
X58551Y47905D01*
X62551D01*
X60551Y43905D01*
X169961Y28236D02*
X167961Y32236D01*
X171961D01*
X169961Y28236D01*
X171142Y25795D02*
X169142Y29795D01*
X173142D01*
X171142Y25795D01*
X153606Y54142D02*
X151606Y58142D01*
X155606D01*
X153606Y54142D01*
X73622Y19693D02*
X71622Y23693D01*
X75622D01*
X73622Y19693D01*
X62750Y18340D02*
X60750Y22340D01*
X64750D01*
X62750Y18340D01*
X78222Y15161D02*
X76222Y19161D01*
X80222D01*
X78222Y15161D01*
X45192Y19220D02*
X43192Y23221D01*
X47192D01*
X45192Y19220D01*
X47756Y59890D02*
X45756Y63890D01*
X49756D01*
X47756Y59890D01*
X108840Y133940D02*
X106840Y137940D01*
X110840D01*
X108840Y133940D01*
X145969Y134496D02*
X143969Y138496D01*
X147969D01*
X145969Y134496D01*
X96142Y180441D02*
X94142Y184441D01*
X98142D01*
X96142Y180441D01*
X108950Y116200D02*
X106950Y120200D01*
X110950D01*
X108950Y116200D01*
X125118Y133433D02*
X123118Y137433D01*
X127118D01*
X125118Y133433D01*
X16417Y132488D02*
X14417Y136488D01*
X18417D01*
X16417Y132488D01*
X128230Y170950D02*
X126230Y174950D01*
X130230D01*
X128230Y170950D01*
X16042Y116150D02*
X14042Y120150D01*
X18042D01*
X16042Y116150D01*
X16417Y86661D02*
X14417Y90661D01*
X18417D01*
X16417Y86661D01*
X125118Y130402D02*
X123118Y134402D01*
X127118D01*
X125118Y130402D01*
X121070Y120740D02*
X119070Y124740D01*
X123070D01*
X121070Y120740D01*
X152438Y134496D02*
X150438Y138496D01*
X154438D01*
X152438Y134496D01*
X72756Y176504D02*
X70756Y180504D01*
X74756D01*
X72756Y176504D01*
X114690Y126540D02*
X112690Y130540D01*
X116690D01*
X114690Y126540D01*
X13400Y168300D02*
X11400Y172300D01*
X15400D01*
X13400Y168300D01*
X137068Y126583D02*
X135068Y130583D01*
X139068D01*
X137068Y126583D01*
X125118Y139496D02*
X123118Y143496D01*
X127118D01*
X125118Y139496D01*
X127008Y118787D02*
X125008Y122787D01*
X129008D01*
X127008Y118787D01*
X121980Y171740D02*
X119980Y175740D01*
X123980D01*
X121980Y171740D01*
X118167Y171302D02*
X116167Y175302D01*
X120167D01*
X118167Y171302D01*
X109130Y112820D02*
X107130Y116820D01*
X111130D01*
X109130Y112820D01*
X104167Y171302D02*
X102167Y175302D01*
X106167D01*
X104167Y171302D01*
X99167D02*
X97167Y175302D01*
X101167D01*
X99167Y171302D01*
X94167D02*
X92167Y175302D01*
X96167D01*
X94167Y171302D01*
X89167D02*
X87167Y175302D01*
X91167D01*
X89167Y171302D01*
X84167D02*
X82167Y175302D01*
X86167D01*
X84167Y171302D01*
X79167D02*
X77167Y175302D01*
X81167D01*
X79167Y171302D01*
X74167D02*
X72167Y175302D01*
X76167D01*
X74167Y171302D01*
X68937Y170913D02*
X66937Y174913D01*
X70937D01*
X68937Y170913D01*
X124055Y115598D02*
X122055Y119598D01*
X126055D01*
X124055Y115598D01*
X21732Y47646D02*
X19732Y51646D01*
X23732D01*
X21732Y47646D01*
X114290Y139340D02*
X112290Y143340D01*
X116290D01*
X114290Y139340D01*
X111180Y107280D02*
X109180Y111280D01*
X113180D01*
X111180Y107280D01*
X83167Y166302D02*
X81167Y170302D01*
X85167D01*
X83167Y166302D01*
X88167D02*
X86167Y170302D01*
X90167D01*
X88167Y166302D01*
X93167D02*
X91167Y170302D01*
X95167D01*
X93167Y166302D01*
X98167D02*
X96167Y170302D01*
X100167D01*
X98167Y166302D01*
X103167D02*
X101167Y170302D01*
X105167D01*
X103167Y166302D01*
X113167D02*
X111167Y170302D01*
X115167D01*
X113167Y166302D01*
X124567Y162291D02*
X122567Y166291D01*
X126567D01*
X124567Y162291D01*
X134843Y165284D02*
X132843Y169283D01*
X136843D01*
X134843Y165284D01*
X133167Y171302D02*
X131167Y175302D01*
X135167D01*
X133167Y171302D01*
X108670Y126140D02*
X106670Y130140D01*
X110670D01*
X108670Y126140D01*
X78167Y166302D02*
X76167Y170302D01*
X80167D01*
X78167Y166302D01*
X60827Y159281D02*
X58827Y163281D01*
X62827D01*
X60827Y159281D01*
X143222Y165161D02*
X141222Y169161D01*
X145222D01*
X143222Y165161D01*
X16417Y109772D02*
X14417Y113772D01*
X18417D01*
X16417Y109772D01*
X154724Y56307D02*
X152724Y60307D01*
X156724D01*
X154724Y56307D01*
X133613Y126583D02*
X131613Y130583D01*
X135613D01*
X133613Y126583D01*
X144055Y186071D02*
X142055Y190071D01*
X146055D01*
X144055Y186071D01*
X119170Y136640D02*
X117170Y140640D01*
X121170D01*
X119170Y136640D01*
X117300Y110400D02*
X115300Y114400D01*
X119300D01*
X117300Y110400D01*
X155017Y185869D02*
X153017Y189869D01*
X157017D01*
X155017Y185869D01*
X199646Y132252D02*
X197646Y136252D01*
X201646D01*
X199646Y132252D01*
X165017Y185869D02*
X163017Y189869D01*
X167017D01*
X165017Y185869D01*
X234488Y148748D02*
X232488Y152748D01*
X236488D01*
X234488Y148748D01*
X210748Y156780D02*
X208748Y160780D01*
X212748D01*
X210748Y156780D01*
X187222Y165161D02*
X185222Y169161D01*
X189222D01*
X187222Y165161D01*
X182222D02*
X180222Y169161D01*
X184222D01*
X182222Y165161D01*
X172600Y166250D02*
X170600Y170250D01*
X174600D01*
X172600Y166250D01*
X162222Y165161D02*
X160222Y169161D01*
X164222D01*
X162222Y165161D01*
X157222D02*
X155222Y169161D01*
X159222D01*
X157222Y165161D01*
X172990Y123370D02*
X170990Y127370D01*
X174990D01*
X172990Y123370D01*
X197222Y165161D02*
X195222Y169161D01*
X199222D01*
X197222Y165161D01*
X173033Y10374D02*
X171033Y14374D01*
X175033D01*
X173033Y10374D01*
X153228Y24811D02*
X151228Y28811D01*
X155228D01*
X153228Y24811D01*
X164331Y25559D02*
X162331Y29559D01*
X166331D01*
X164331Y25559D01*
X172244Y34693D02*
X170244Y38693D01*
X174244D01*
X172244Y34693D01*
X165276Y45559D02*
X163276Y49559D01*
X167276D01*
X165276Y45559D01*
X163883Y43665D02*
X161883Y47665D01*
X165883D01*
X163883Y43665D01*
X157641Y43977D02*
X155641Y47977D01*
X159641D01*
X157641Y43977D01*
X160675Y43731D02*
X158675Y47731D01*
X162675D01*
X160675Y43731D01*
X173222Y45161D02*
X171222Y49161D01*
X175222D01*
X173222Y45161D01*
X198100Y47100D02*
X196100Y51100D01*
X200100D01*
X198100Y47100D01*
X176792Y60578D02*
X174792Y64578D01*
X178792D01*
X176792Y60578D01*
X168622Y49890D02*
X166622Y53890D01*
X170622D01*
X168622Y49890D01*
X163750Y66800D02*
X161750Y70800D01*
X165750D01*
X163750Y66800D01*
X194207Y48246D02*
X192207Y52246D01*
X196207D01*
X194207Y48246D01*
X220200Y49700D02*
X218200Y53700D01*
X222200D01*
X220200Y49700D01*
X221400Y62900D02*
X219400Y66900D01*
X223400D01*
X221400Y62900D01*
X217500Y68600D02*
X215500Y72600D01*
X219500D01*
X217500Y68600D01*
X217850Y63100D02*
X215850Y67100D01*
X219850D01*
X217850Y63100D01*
X213250Y63900D02*
X211250Y67900D01*
X215250D01*
X213250Y63900D01*
X210861Y63078D02*
X208861Y67078D01*
X212861D01*
X210861Y63078D01*
X92122Y47361D02*
X90122Y51361D01*
X94122D01*
X92122Y47361D01*
X219866Y83873D02*
X220866Y84873D01*
X221866D01*
X220866Y85873D01*
X221866Y86873D01*
X220866D01*
X219866Y87873D01*
X218866Y86873D01*
X217866D01*
X218866Y85873D01*
X217866Y84873D01*
X218866D01*
X219866Y83873D01*
X238966D02*
X239966Y84873D01*
X240966D01*
X239966Y85873D01*
X240966Y86873D01*
X239966D01*
X238966Y87873D01*
X237966Y86873D01*
X236966D01*
X237966Y85873D01*
X236966Y84873D01*
X237966D01*
X238966Y83873D01*
X238900Y75900D02*
X239900Y76900D01*
X240900D01*
X239900Y77900D01*
X240900Y78900D01*
X239900D01*
X238900Y79900D01*
X237900Y78900D01*
X236900D01*
X237900Y77900D01*
X236900Y76900D01*
X237900D01*
X238900Y75900D01*
X226023Y57161D02*
X224023Y61161D01*
X228023D01*
X226023Y57161D01*
X183878Y66500D02*
X184878Y68500D01*
X183878Y70500D01*
X185878Y69500D01*
X187878Y70500D01*
X186878Y68500D01*
X187878Y66500D01*
X185878Y67500D01*
X183878Y66500D01*
X87685Y160342D02*
Y164342D01*
X91685D01*
Y160342D01*
X87685D01*
X88485Y161142D02*
Y163542D01*
X90885D01*
Y161142D01*
X88485D01*
X87685Y156209D02*
Y160208D01*
X91685D01*
Y156209D01*
X87685D01*
X88485Y157009D02*
Y159408D01*
X90885D01*
Y157009D01*
X88485D01*
X87685Y152075D02*
Y156075D01*
X91685D01*
Y152075D01*
X87685D01*
X88485Y152875D02*
Y155275D01*
X90885D01*
Y152875D01*
X88485D01*
X87685Y147941D02*
Y151941D01*
X91685D01*
Y147941D01*
X87685D01*
X88485Y148741D02*
Y151141D01*
X90885D01*
Y148741D01*
X88485D01*
X87685Y143807D02*
Y147807D01*
X91685D01*
Y143807D01*
X87685D01*
X88485Y144607D02*
Y147007D01*
X90885D01*
Y144607D01*
X88485D01*
X87685Y139673D02*
Y143673D01*
X91685D01*
Y139673D01*
X87685D01*
X88485Y140473D02*
Y142873D01*
X90885D01*
Y140473D01*
X88485D01*
X87685Y131405D02*
Y135405D01*
X91685D01*
Y131405D01*
X87685D01*
X88485Y132205D02*
Y134605D01*
X90885D01*
Y132205D01*
X88485D01*
X87685Y123138D02*
Y127138D01*
X91685D01*
Y123138D01*
X87685D01*
X88485Y123938D02*
Y126338D01*
X90885D01*
Y123938D01*
X88485D01*
X87685Y119004D02*
Y123004D01*
X91685D01*
Y119004D01*
X87685D01*
X88485Y119804D02*
Y122204D01*
X90885D01*
Y119804D01*
X88485D01*
X87685Y110736D02*
Y114736D01*
X91685D01*
Y110736D01*
X87685D01*
X88485Y111536D02*
Y113936D01*
X90885D01*
Y111536D01*
X88485D01*
X87685Y106602D02*
Y110602D01*
X91685D01*
Y106602D01*
X87685D01*
X88485Y107402D02*
Y109802D01*
X90885D01*
Y107402D01*
X88485D01*
X87685Y102469D02*
Y106468D01*
X91685D01*
Y102469D01*
X87685D01*
X88485Y103269D02*
Y105668D01*
X90885D01*
Y103269D01*
X88485D01*
X87685Y98335D02*
Y102335D01*
X91685D01*
Y98335D01*
X87685D01*
X88485Y99135D02*
Y101535D01*
X90885D01*
Y99135D01*
X88485D01*
X87685Y94201D02*
Y98201D01*
X91685D01*
Y94201D01*
X87685D01*
X88485Y95001D02*
Y97401D01*
X90885D01*
Y95001D01*
X88485D01*
X80323Y115487D02*
Y119487D01*
X84323D01*
Y115487D01*
X80323D01*
X81123Y116287D02*
Y118687D01*
X83523D01*
Y116287D01*
X81123D01*
X80323Y110683D02*
Y114683D01*
X84323D01*
Y110683D01*
X80323D01*
X81123Y111483D02*
Y113883D01*
X83523D01*
Y111483D01*
X81123D01*
X81823Y105878D02*
Y109878D01*
X85823D01*
Y105878D01*
X81823D01*
X82623Y106678D02*
Y109078D01*
X85023D01*
Y106678D01*
X82623D01*
X80323Y129901D02*
Y133901D01*
X84323D01*
Y129901D01*
X80323D01*
X81123Y130701D02*
Y133101D01*
X83523D01*
Y130701D01*
X81123D01*
X80323Y125096D02*
Y129096D01*
X84323D01*
Y125096D01*
X80323D01*
X81123Y125896D02*
Y128296D01*
X83523D01*
Y125896D01*
X81123D01*
X80323Y120292D02*
Y124292D01*
X84323D01*
Y120292D01*
X80323D01*
X81123Y121092D02*
Y123492D01*
X83523D01*
Y121092D01*
X81123D01*
X82023Y144315D02*
Y148315D01*
X86023D01*
Y144315D01*
X82023D01*
X82823Y145115D02*
Y147515D01*
X85223D01*
Y145115D01*
X82823D01*
X80323Y139510D02*
Y143510D01*
X84323D01*
Y139510D01*
X80323D01*
X81123Y140310D02*
Y142710D01*
X83523D01*
Y140310D01*
X81123D01*
X80323Y134705D02*
Y138706D01*
X84323D01*
Y134705D01*
X80323D01*
X81123Y135505D02*
Y137906D01*
X83523D01*
Y135505D01*
X81123D01*
X93444Y144315D02*
Y148315D01*
X97444D01*
Y144315D01*
X93444D01*
X94244Y145115D02*
Y147515D01*
X96644D01*
Y145115D01*
X94244D01*
X95244Y139510D02*
Y143510D01*
X99244D01*
Y139510D01*
X95244D01*
X96044Y140310D02*
Y142710D01*
X98444D01*
Y140310D01*
X96044D01*
X95244Y134705D02*
Y138706D01*
X99244D01*
Y134705D01*
X95244D01*
X96044Y135505D02*
Y137906D01*
X98444D01*
Y135505D01*
X96044D01*
X95244Y129901D02*
Y133901D01*
X99244D01*
Y129901D01*
X95244D01*
X96044Y130701D02*
Y133101D01*
X98444D01*
Y130701D01*
X96044D01*
X95244Y125096D02*
Y129096D01*
X99244D01*
Y125096D01*
X95244D01*
X96044Y125896D02*
Y128296D01*
X98444D01*
Y125896D01*
X96044D01*
X95244Y120292D02*
Y124292D01*
X99244D01*
Y120292D01*
X95244D01*
X96044Y121092D02*
Y123492D01*
X98444D01*
Y121092D01*
X96044D01*
X95244Y115487D02*
Y119487D01*
X99244D01*
Y115487D01*
X95244D01*
X96044Y116287D02*
Y118687D01*
X98444D01*
Y116287D01*
X96044D01*
X95244Y110683D02*
Y114683D01*
X99244D01*
Y110683D01*
X95244D01*
X96044Y111483D02*
Y113883D01*
X98444D01*
Y111483D01*
X96044D01*
X93944Y105878D02*
Y109878D01*
X97944D01*
Y105878D01*
X93944D01*
X94744Y106678D02*
Y109078D01*
X97144D01*
Y106678D01*
X94744D01*
X102606Y140776D02*
Y144775D01*
X106606D01*
Y140776D01*
X102606D01*
X103406Y141576D02*
Y143975D01*
X105806D01*
Y141576D01*
X103406D01*
X102606Y134378D02*
Y138378D01*
X106606D01*
Y134378D01*
X102606D01*
X103406Y135178D02*
Y137578D01*
X105806D01*
Y135178D01*
X103406D01*
X102606Y127980D02*
Y131980D01*
X106606D01*
Y127980D01*
X102606D01*
X103406Y128780D02*
Y131180D01*
X105806D01*
Y128780D01*
X103406D01*
X102606Y121583D02*
Y125583D01*
X106606D01*
Y121583D01*
X102606D01*
X103406Y122383D02*
Y124783D01*
X105806D01*
Y122383D01*
X103406D01*
X102606Y115185D02*
Y119185D01*
X106606D01*
Y115185D01*
X102606D01*
X103406Y115985D02*
Y118385D01*
X105806D01*
Y115985D01*
X103406D01*
X102606Y108787D02*
Y112787D01*
X106606D01*
Y108787D01*
X102606D01*
X103406Y109587D02*
Y111987D01*
X105806D01*
Y109587D01*
X103406D01*
X87685Y135539D02*
Y139539D01*
X91685D01*
Y135539D01*
X87685D01*
X88485Y136339D02*
Y138739D01*
X90885D01*
Y136339D01*
X88485D01*
X87685Y127272D02*
Y131272D01*
X91685D01*
Y127272D01*
X87685D01*
X88485Y128072D02*
Y130472D01*
X90885D01*
Y128072D01*
X88485D01*
X87685Y114870D02*
Y118870D01*
X91685D01*
Y114870D01*
X87685D01*
X88485Y115670D02*
Y118070D01*
X90885D01*
Y115670D01*
X88485D01*
X74181Y108787D02*
Y112787D01*
X78181D01*
Y108787D01*
X74181D01*
X74981Y109587D02*
Y111987D01*
X77381D01*
Y109587D01*
X74981D01*
X74181Y115185D02*
Y119185D01*
X78181D01*
Y115185D01*
X74181D01*
X74981Y115985D02*
Y118385D01*
X77381D01*
Y115985D01*
X74981D01*
X74181Y121583D02*
Y125583D01*
X78181D01*
Y121583D01*
X74181D01*
X74981Y122383D02*
Y124783D01*
X77381D01*
Y122383D01*
X74981D01*
X74181Y127980D02*
Y131980D01*
X78181D01*
Y127980D01*
X74181D01*
X74981Y128780D02*
Y131180D01*
X77381D01*
Y128780D01*
X74981D01*
X74181Y134378D02*
Y138378D01*
X78181D01*
Y134378D01*
X74181D01*
X74981Y135178D02*
Y137578D01*
X77381D01*
Y135178D01*
X74981D01*
X74181Y140776D02*
Y144775D01*
X78181D01*
Y140776D01*
X74181D01*
X74981Y141576D02*
Y143975D01*
X77381D01*
Y141576D01*
X74981D01*
X167953Y90047D02*
X165953Y94047D01*
X169953D01*
X167953Y90047D01*
X52913Y150087D02*
X50913Y154087D01*
X54913D01*
X52913Y150087D01*
X15232Y170518D02*
X13232Y174518D01*
X17232D01*
X15232Y170518D01*
X17091Y166049D02*
X15091Y170049D01*
X19091D01*
X17091Y166049D01*
X26006Y165996D02*
X24006Y169996D01*
X28006D01*
X26006Y165996D01*
X26059Y174911D02*
X24059Y178911D01*
X28059D01*
X26059Y174911D01*
X17144Y174964D02*
X15144Y178964D01*
X19144D01*
X17144Y174964D01*
X16986Y27563D02*
X14986Y31563D01*
X18986D01*
X16986Y27563D01*
X15113Y23116D02*
X13114Y27116D01*
X17113D01*
X15113Y23116D01*
X16933Y18648D02*
X14933Y22648D01*
X18933D01*
X16933Y18648D01*
X21380Y16775D02*
X19380Y20775D01*
X23380D01*
X21380Y16775D01*
X25848Y18595D02*
X23848Y22595D01*
X27848D01*
X25848Y18595D01*
X25901Y27510D02*
X23901Y31510D01*
X27901D01*
X25901Y27510D01*
X21455Y29383D02*
X19455Y33383D01*
X23455D01*
X21455Y29383D01*
X21576Y164098D02*
X19577Y168098D01*
X23576D01*
X21576Y164098D01*
X150180Y51622D02*
X148180Y55622D01*
X152181D01*
X150180Y51622D01*
X129890Y57770D02*
X127890Y61770D01*
X131890D01*
X129890Y57770D01*
X190968Y10370D02*
X188968Y14370D01*
X192968D01*
X190968Y10370D01*
X197739Y10488D02*
X195739Y14488D01*
X199739D01*
X197739Y10488D01*
X64600Y30790D02*
X65600Y31790D01*
X66600D01*
X65600Y32790D01*
X66600Y33790D01*
X65600D01*
X64600Y34790D01*
X63600Y33790D01*
X62600D01*
X63600Y32790D01*
X62600Y31790D01*
X63600D01*
X64600Y30790D01*
X54625Y153890D02*
X52625Y157890D01*
X56625D01*
X54625Y153890D01*
X195982Y22267D02*
X193982Y26267D01*
X197982D01*
X195982Y22267D01*
X202462Y22267D02*
X200462Y26267D01*
X204462D01*
X202462Y22267D01*
X224722Y113361D02*
X222722Y117361D01*
X226722D01*
X224722Y113361D01*
X219922D02*
X217922Y117361D01*
X221922D01*
X219922Y113361D01*
X250478Y139189D02*
X248478Y143189D01*
X252478D01*
X250478Y139189D01*
X215516Y121904D02*
X216516Y122904D01*
X217516D01*
X216516Y123904D01*
X217516Y124904D01*
X216516D01*
X215516Y125904D01*
X214516Y124904D01*
X213516D01*
X214516Y123904D01*
X213516Y122904D01*
X214516D01*
X215516Y121904D01*
X219916D02*
X220916Y122904D01*
X221916D01*
X220916Y123904D01*
X221916Y124904D01*
X220916D01*
X219916Y125904D01*
X218916Y124904D01*
X217916D01*
X218916Y123904D01*
X217916Y122904D01*
X218916D01*
X219916Y121904D01*
X204350Y115010D02*
X205350Y116010D01*
X206350D01*
X205350Y117010D01*
X206350Y118010D01*
X205350D01*
X204350Y119010D01*
X203350Y118010D01*
X202350D01*
X203350Y117010D01*
X202350Y116010D01*
X203350D01*
X204350Y115010D01*
X326884Y180868D02*
X327884Y182868D01*
X326884Y184868D01*
X328884Y183868D01*
X330884Y184868D01*
X329884Y182868D01*
X330884Y180868D01*
X328884Y181868D01*
X326884Y180868D01*
X245478Y139189D02*
X243478Y143189D01*
X247478D01*
X245478Y139189D01*
Y144189D02*
X243478Y148189D01*
X247478D01*
X245478Y144189D01*
X171623Y126583D02*
X169623Y130583D01*
X173623D01*
X171623Y126583D01*
X134055Y43630D02*
X132055Y47630D01*
X136055D01*
X134055Y43630D01*
X229767Y183565D02*
X227767Y187565D01*
X231767D01*
X229767Y183565D01*
X182992Y132783D02*
X180992Y136783D01*
X184992D01*
X182992Y132783D01*
X149204Y134496D02*
X147204Y138496D01*
X151204D01*
X149204Y134496D01*
X182992Y129525D02*
X180992Y133525D01*
X184992D01*
X182992Y129525D01*
X152890Y51160D02*
X150890Y55160D01*
X154890D01*
X152890Y51160D01*
X114882Y15323D02*
X112882Y19323D01*
X116882D01*
X114882Y15323D01*
X130079Y43630D02*
X128079Y47630D01*
X132079D01*
X130079Y43630D01*
X156535Y120638D02*
X154535Y124638D01*
X158535D01*
X156535Y120638D01*
X197222Y170161D02*
X195222Y174161D01*
X199222D01*
X197222Y170161D01*
X181686Y28241D02*
X179686Y32241D01*
X183686D01*
X181686Y28241D01*
X192222Y165161D02*
X190222Y169161D01*
X194222D01*
X192222Y165161D01*
X189622Y170061D02*
X190622Y172061D01*
X189622Y174061D01*
X191622Y173061D01*
X193622Y174061D01*
X192622Y172061D01*
X193622Y170061D01*
X191622Y171061D01*
X189622Y170061D01*
X175236Y157212D02*
X173236Y161212D01*
X177236D01*
X175236Y157212D01*
X338016Y175273D02*
X339016Y176273D01*
X340016D01*
X339016Y177273D01*
X340016Y178273D01*
X339016D01*
X338016Y179273D01*
X337016Y178273D01*
X336016D01*
X337016Y177273D01*
X336016Y176273D01*
X337016D01*
X338016Y175273D01*
X341181Y166032D02*
X342181Y167032D01*
X343181D01*
X342181Y168032D01*
X343181Y169032D01*
X342181D01*
X341181Y170031D01*
X340181Y169032D01*
X339181D01*
X340181Y168032D01*
X339181Y167032D01*
X340181D01*
X341181Y166032D01*
X343425Y163866D02*
X344425Y164866D01*
X345425D01*
X344425Y165866D01*
X345425Y166866D01*
X344425D01*
X343425Y167866D01*
X342425Y166866D01*
X341425D01*
X342425Y165866D01*
X341425Y164866D01*
X342425D01*
X343425Y163866D01*
X339016Y168315D02*
X340016Y169315D01*
X341016D01*
X340016Y170315D01*
X341016Y171315D01*
X340016D01*
X339016Y172315D01*
X338016Y171315D01*
X337016D01*
X338016Y170315D01*
X337016Y169315D01*
X338016D01*
X339016Y168315D01*
X343465Y168276D02*
X344465Y169276D01*
X345465D01*
X344465Y170276D01*
X345465Y171276D01*
X344465D01*
X343465Y172276D01*
X342465Y171276D01*
X341465D01*
X342465Y170276D01*
X341465Y169276D01*
X342465D01*
X343465Y168276D01*
X338937Y163866D02*
X339937Y164866D01*
X340937D01*
X339937Y165866D01*
X340937Y166866D01*
X339937D01*
X338937Y167866D01*
X337937Y166866D01*
X336937D01*
X337937Y165866D01*
X336937Y164866D01*
X337937D01*
X338937Y163866D01*
X343500Y174990D02*
X344500Y175990D01*
X345500D01*
X344500Y176990D01*
X345500Y177990D01*
X344500D01*
X343500Y178990D01*
X342500Y177990D01*
X341500D01*
X342500Y176990D01*
X341500Y175990D01*
X342500D01*
X343500Y174990D01*
X349567Y172488D02*
X350567Y173488D01*
X351567D01*
X350567Y174488D01*
X351567Y175488D01*
X350567D01*
X349567Y176488D01*
X348567Y175488D01*
X347567D01*
X348567Y174488D01*
X347567Y173488D01*
X348567D01*
X349567Y172488D01*
X352205Y178118D02*
X353205Y179118D01*
X354205D01*
X353205Y180118D01*
X354205Y181118D01*
X353205D01*
X352205Y182118D01*
X351205Y181118D01*
X350205D01*
X351205Y180118D01*
X350205Y179118D01*
X351205D01*
X352205Y178118D01*
X351504Y105584D02*
X352504Y107583D01*
X351504Y109583D01*
X353504Y108583D01*
X355504Y109583D01*
X354504Y107583D01*
X355504Y105584D01*
X353504Y106583D01*
X351504Y105584D01*
X346583Y109850D02*
X347583Y111850D01*
X346583Y113850D01*
X348583Y112850D01*
X350583Y113850D01*
X349583Y111850D01*
X350583Y109850D01*
X348583Y110850D01*
X346583Y109850D01*
X352134Y93315D02*
X353134Y95315D01*
X352134Y97315D01*
X354134Y96315D01*
X356134Y97315D01*
X355134Y95315D01*
X356134Y93315D01*
X354134Y94315D01*
X352134Y93315D01*
X130433Y110716D02*
X131433Y111716D01*
X132433D01*
X131433Y112716D01*
X132433Y113716D01*
X131433D01*
X130433Y114716D01*
X129433Y113716D01*
X128433D01*
X129433Y112716D01*
X128433Y111716D01*
X129433D01*
X130433Y110716D01*
X135591Y121268D02*
X133591Y125268D01*
X137591D01*
X135591Y121268D01*
X123167Y166302D02*
X121167Y170302D01*
X125167D01*
X123167Y166302D01*
X16475Y142882D02*
X14475Y146882D01*
X18475D01*
X16475Y142882D01*
X118167Y166302D02*
X116167Y170302D01*
X120167D01*
X118167Y166302D01*
X112167Y171302D02*
X110167Y175302D01*
X114167D01*
X112167Y171302D01*
X43222Y180161D02*
X41222Y184161D01*
X45222D01*
X43222Y180161D01*
X31204Y180561D02*
X29204Y184561D01*
X33204D01*
X31204Y180561D01*
X29460Y174457D02*
X27460Y178457D01*
X31460D01*
X29460Y174457D01*
X21573Y176784D02*
X19573Y180784D01*
X23573D01*
X21573Y176784D01*
X69772Y42761D02*
X67772Y46761D01*
X71772D01*
X69772Y42761D01*
X92122Y57361D02*
X90122Y61361D01*
X94122D01*
X92122Y57361D01*
X70272Y62061D02*
X71272Y63061D01*
X72272D01*
X71272Y64061D01*
X72272Y65061D01*
X71272D01*
X70272Y66061D01*
X69272Y65061D01*
X68272D01*
X69272Y64061D01*
X68272Y63061D01*
X69272D01*
X70272Y62061D01*
X73550Y65461D02*
X74550Y66461D01*
X75550D01*
X74550Y67461D01*
X75550Y68461D01*
X74550D01*
X73550Y69461D01*
X72550Y68461D01*
X71550D01*
X72550Y67461D01*
X71550Y66461D01*
X72550D01*
X73550Y65461D01*
X87953Y57803D02*
X88953Y58803D01*
X89953D01*
X88953Y59803D01*
X89953Y60803D01*
X88953D01*
X87953Y61803D01*
X86953Y60803D01*
X85953D01*
X86953Y59803D01*
X85953Y58803D01*
X86953D01*
X87953Y57803D01*
Y66942D02*
X88953Y67942D01*
X89953D01*
X88953Y68942D01*
X89953Y69942D01*
X88953D01*
X87953Y70942D01*
X86953Y69942D01*
X85953D01*
X86953Y68942D01*
X85953Y67942D01*
X86953D01*
X87953Y66942D01*
X84570Y62373D02*
X85570Y63373D01*
X86570D01*
X85570Y64373D01*
X86570Y65373D01*
X85570D01*
X84570Y66373D01*
X83570Y65373D01*
X82570D01*
X83570Y64373D01*
X82570Y63373D01*
X83570D01*
X84570Y62373D01*
Y66942D02*
X85570Y67942D01*
X86570D01*
X85570Y68942D01*
X86570Y69942D01*
X85570D01*
X84570Y70942D01*
X83570Y69942D01*
X82570D01*
X83570Y68942D01*
X82570Y67942D01*
X83570D01*
X84570Y66942D01*
Y57803D02*
X85570Y58803D01*
X86570D01*
X85570Y59803D01*
X86570Y60803D01*
X85570D01*
X84570Y61803D01*
X83570Y60803D01*
X82570D01*
X83570Y59803D01*
X82570Y58803D01*
X83570D01*
X84570Y57803D01*
X60551Y60161D02*
X58551Y64161D01*
X62551D01*
X60551Y60161D01*
X60276Y62055D02*
X58276Y66055D01*
X62276D01*
X60276Y62055D01*
X80709Y59614D02*
X78709Y63614D01*
X82709D01*
X80709Y59614D01*
X76108Y63000D02*
X74108Y67000D01*
X78108D01*
X76108Y63000D01*
Y63800D02*
X74908Y66200D01*
X77308D01*
X76108Y63800D01*
X132913Y178433D02*
X133913Y179433D01*
X134913D01*
X133913Y180433D01*
X134913Y181433D01*
X133913D01*
X132913Y182433D01*
X131913Y181433D01*
X130913D01*
X131913Y180433D01*
X130913Y179433D01*
X131913D01*
X132913Y178433D01*
X123976Y169496D02*
X124976Y170496D01*
X125976D01*
X124976Y171496D01*
X125976Y172496D01*
X124976D01*
X123976Y173496D01*
X122976Y172496D01*
X121976D01*
X122976Y171496D01*
X121976Y170496D01*
X122976D01*
X123976Y169496D01*
X60690Y171247D02*
X58691Y175247D01*
X62691D01*
X60690Y171247D01*
X125787Y179693D02*
X126787Y180693D01*
X127787D01*
X126787Y181693D01*
X127787Y182693D01*
X126787D01*
X125787Y183693D01*
X124787Y182693D01*
X123787D01*
X124787Y181693D01*
X123787Y180693D01*
X124787D01*
X125787Y179693D01*
X119528Y173433D02*
X120528Y174433D01*
X121528D01*
X120528Y175433D01*
X121528Y176433D01*
X120528D01*
X119528Y177433D01*
X118528Y176433D01*
X117528D01*
X118528Y175433D01*
X117528Y174433D01*
X118528D01*
X119528Y173433D01*
X41526Y166516D02*
X39526Y170516D01*
X43526D01*
X41526Y166516D01*
X57722Y151261D02*
X55722Y155261D01*
X59722D01*
X57722Y151261D01*
X55422D02*
X53422Y155261D01*
X57422D01*
X55422Y151261D01*
Y148961D02*
X53422Y152961D01*
X57422D01*
X55422Y148961D01*
X65905Y153787D02*
X63906Y157787D01*
X67905D01*
X65905Y153787D01*
X58898Y146228D02*
X56898Y150228D01*
X60898D01*
X58898Y146228D01*
X60394Y147961D02*
X58394Y151961D01*
X62394D01*
X60394Y147961D01*
X57722Y148961D02*
X55722Y152961D01*
X59722D01*
X57722Y148961D01*
X60394Y152331D02*
X58394Y156331D01*
X62394D01*
X60394Y152331D01*
X58898Y153866D02*
X56898Y157866D01*
X60898D01*
X58898Y153866D01*
X52598Y163953D02*
X50598Y167953D01*
X54598D01*
X52598Y163953D01*
X44532Y161630D02*
X42531Y165630D01*
X46532D01*
X44532Y161630D01*
X52598Y166516D02*
X50598Y170516D01*
X54598D01*
X52598Y166516D01*
X35990Y166516D02*
X33990Y170516D01*
X37990D01*
X35990Y166516D01*
X110022Y38161D02*
Y42161D01*
X114022D01*
Y38161D01*
X110022D01*
X110822Y38961D02*
Y41361D01*
X113222D01*
Y38961D01*
X110822D01*
X231060Y166044D02*
X229060Y170044D01*
X233060D01*
X231060Y166044D01*
X224892Y29586D02*
X222892Y33586D01*
X226892D01*
X224892Y29586D01*
X222824Y27458D02*
X220824Y31458D01*
X224824D01*
X222824Y27458D01*
X243622Y22811D02*
X244622Y24811D01*
X243622Y26811D01*
X245622Y25811D01*
X247622Y26811D01*
X246622Y24811D01*
X247622Y22811D01*
X245622Y23811D01*
X243622Y22811D01*
X248222Y18261D02*
X249222Y20261D01*
X248222Y22261D01*
X250222Y21261D01*
X252222Y22261D01*
X251222Y20261D01*
X252222Y18261D01*
X250222Y19261D01*
X248222Y18261D01*
X243622D02*
X244622Y20261D01*
X243622Y22261D01*
X245622Y21261D01*
X247622Y22261D01*
X246622Y20261D01*
X247622Y18261D01*
X245622Y19261D01*
X243622Y18261D01*
X248222Y13711D02*
X249222Y15711D01*
X248222Y17711D01*
X250222Y16711D01*
X252222Y17711D01*
X251222Y15711D01*
X252222Y13711D01*
X250222Y14711D01*
X248222Y13711D01*
X243622D02*
X244622Y15711D01*
X243622Y17711D01*
X245622Y16711D01*
X247622Y17711D01*
X246622Y15711D01*
X247622Y13711D01*
X245622Y14711D01*
X243622Y13711D01*
X99997Y24929D02*
X100997Y25929D01*
X101997D01*
X100997Y26929D01*
X101997Y27929D01*
X100997D01*
X99997Y28929D01*
X98997Y27929D01*
X97997D01*
X98997Y26929D01*
X97997Y25929D01*
X98997D01*
X99997Y24929D01*
Y20359D02*
X100997Y21360D01*
X101997D01*
X100997Y22359D01*
X101997Y23359D01*
X100997D01*
X99997Y24360D01*
X98997Y23359D01*
X97997D01*
X98997Y22359D01*
X97997Y21360D01*
X98997D01*
X99997Y20359D01*
X96614Y24929D02*
X97614Y25929D01*
X98614D01*
X97614Y26929D01*
X98614Y27929D01*
X97614D01*
X96614Y28929D01*
X95614Y27929D01*
X94614D01*
X95614Y26929D01*
X94614Y25929D01*
X95614D01*
X96614Y24929D01*
Y20359D02*
X97614Y21360D01*
X98614D01*
X97614Y22359D01*
X98614Y23359D01*
X97614D01*
X96614Y24360D01*
X95614Y23359D01*
X94614D01*
X95614Y22359D01*
X94614Y21360D01*
X95614D01*
X96614Y20359D01*
Y15790D02*
X97614Y16790D01*
X98614D01*
X97614Y17790D01*
X98614Y18790D01*
X97614D01*
X96614Y19790D01*
X95614Y18790D01*
X94614D01*
X95614Y17790D01*
X94614Y16790D01*
X95614D01*
X96614Y15790D01*
X99997D02*
X100997Y16790D01*
X101997D01*
X100997Y17790D01*
X101997Y18790D01*
X100997D01*
X99997Y19790D01*
X98997Y18790D01*
X97997D01*
X98997Y17790D01*
X97997Y16790D01*
X98997D01*
X99997Y15790D01*
X123110Y44969D02*
X124110Y45968D01*
X125110D01*
X124110Y46968D01*
X125110Y47969D01*
X124110D01*
X123110Y48968D01*
X122110Y47969D01*
X121110D01*
X122110Y46968D01*
X121110Y45968D01*
X122110D01*
X123110Y44969D01*
X148480Y126580D02*
X146480Y130580D01*
X150480D01*
X148480Y126580D01*
X182992Y136031D02*
X180992Y140032D01*
X184992D01*
X182992Y136031D01*
Y139279D02*
X180992Y143280D01*
X184992D01*
X182992Y139279D01*
X133820Y57690D02*
X131820Y61690D01*
X135820D01*
X133820Y57690D01*
X70260Y136930D02*
X68260Y140930D01*
X72260D01*
X70260Y136930D01*
D245*
X194100Y121400D02*
G03*
X194100Y121400I-2000J0D01*
G01*
X189100D02*
G03*
X189100Y121400I-2000J0D01*
G01*
X350722Y186461D02*
G03*
X350722Y186461I-2000J0D01*
G01*
X355722D02*
G03*
X355722Y186461I-2000J0D01*
G01*
X257500Y87400D02*
G03*
X257500Y87400I-2000J0D01*
G01*
X252500D02*
G03*
X252500Y87400I-2000J0D01*
G01*
X257500Y96000D02*
G03*
X257500Y96000I-2000J0D01*
G01*
X252500D02*
G03*
X252500Y96000I-2000J0D01*
G01*
X173811Y69685D02*
G03*
X173811Y69685I-2000J0D01*
G01*
X178811D02*
G03*
X178811Y69685I-2000J0D01*
G01*
X145300Y175300D02*
G03*
X145300Y175300I-2000J0D01*
G01*
X150300D02*
G03*
X150300Y175300I-2000J0D01*
G01*
X239953Y26811D02*
G03*
X239953Y26811I-2000J0D01*
G01*
Y21811D02*
G03*
X239953Y21811I-2000J0D01*
G01*
X71646Y165512D02*
G03*
X71646Y165512I-2000J0D01*
G01*
X66646D02*
G03*
X66646Y165512I-2000J0D01*
G01*
X190400Y87420D02*
G03*
X190400Y87420I-2000J0D01*
G01*
Y82420D02*
G03*
X190400Y82420I-2000J0D01*
G01*
X86122Y20161D02*
G03*
X86122Y20161I-2000J0D01*
G01*
X91122D02*
G03*
X91122Y20161I-2000J0D01*
G01*
X275516Y67561D02*
G03*
X275516Y67561I-2000J0D01*
G01*
Y62561D02*
G03*
X275516Y62561I-2000J0D01*
G01*
Y57561D02*
G03*
X275516Y57561I-2000J0D01*
G01*
Y47561D02*
G03*
X275516Y47561I-2000J0D01*
G01*
Y52561D02*
G03*
X275516Y52561I-2000J0D01*
G01*
X275583Y140591D02*
G03*
X275583Y140591I-2000J0D01*
G01*
Y135591D02*
G03*
X275583Y135591I-2000J0D01*
G01*
Y130591D02*
G03*
X275583Y130591I-2000J0D01*
G01*
Y120591D02*
G03*
X275583Y120591I-2000J0D01*
G01*
Y125591D02*
G03*
X275583Y125591I-2000J0D01*
G01*
X275465Y167591D02*
G03*
X275465Y167591I-2000J0D01*
G01*
Y162591D02*
G03*
X275465Y162591I-2000J0D01*
G01*
Y157591D02*
G03*
X275465Y157591I-2000J0D01*
G01*
Y147591D02*
G03*
X275465Y147591I-2000J0D01*
G01*
Y152591D02*
G03*
X275465Y152591I-2000J0D01*
G01*
X123102Y68858D02*
G03*
X123102Y68858I-2000J0D01*
G01*
X129008D02*
G03*
X129008Y68858I-2000J0D01*
G01*
X120150D02*
G03*
X120150Y68858I-2000J0D01*
G01*
X117197D02*
G03*
X117197Y68858I-2000J0D01*
G01*
X126961Y45276D02*
G03*
X126961Y45276I-2000J0D01*
G01*
X123102Y45354D02*
G03*
X123102Y45354I-2000J0D01*
G01*
X119087Y41653D02*
G03*
X119087Y41653I-2000J0D01*
G01*
X131803D02*
G03*
X131803Y41653I-2000J0D01*
G01*
X135050Y16850D02*
G03*
X135050Y16850I-2000J0D01*
G01*
X126055Y68858D02*
G03*
X126055Y68858I-2000J0D01*
G01*
X136122Y19861D02*
G03*
X136122Y19861I-2000J0D01*
G01*
X135022Y41661D02*
G03*
X135022Y41661I-2000J0D01*
G01*
X128022D02*
G03*
X128022Y41661I-2000J0D01*
G01*
X131822Y31461D02*
G03*
X131822Y31461I-2000J0D01*
G01*
X132822Y29161D02*
G03*
X132822Y29161I-2000J0D01*
G01*
X286747Y130261D02*
G03*
X286747Y130261I-2000J0D01*
G01*
X121922Y41661D02*
G03*
X121922Y41661I-2000J0D01*
G01*
X124972D02*
G03*
X124972Y41661I-2000J0D01*
G01*
X126550Y53250D02*
G03*
X126550Y53250I-2000J0D01*
G01*
X123950Y53180D02*
G03*
X123950Y53180I-2000J0D01*
G01*
M02*
