%FSLAX25Y25*%
%MOIN*%
G70*
G01*
G75*
G04 Layer_Color=8421504*
%ADD10C,0.01102*%
%ADD11R,0.01969X0.01969*%
%ADD12C,0.06811*%
%ADD13R,0.02200X0.02200*%
%ADD14R,0.24016X0.12047*%
%ADD15R,0.04331X0.02559*%
%ADD16R,0.04331X0.02200*%
%ADD17R,0.02362X0.04724*%
%ADD18R,0.01882X0.01024*%
%ADD19R,0.06890X0.05709*%
%ADD20R,0.05709X0.06890*%
%ADD21R,0.20866X0.07874*%
%ADD22R,0.08858X0.08465*%
%ADD23R,0.03200X0.03800*%
%ADD24R,0.06000X0.12000*%
%ADD25R,0.18000X0.10000*%
%ADD26R,0.03800X0.03200*%
%ADD27R,0.02874X0.01181*%
%ADD28R,0.01181X0.02874*%
%ADD29R,0.01181X0.03268*%
%ADD30R,0.03268X0.01181*%
%ADD31R,0.12047X0.24016*%
%ADD32R,0.09685X0.03110*%
%ADD33R,0.13000X0.07874*%
%ADD34R,0.04803X0.02441*%
%ADD35R,0.01870X0.00984*%
%ADD36R,0.00984X0.01870*%
%ADD37R,0.04331X0.04331*%
%ADD38R,0.02559X0.04331*%
%ADD39R,0.02047X0.04331*%
%ADD40R,0.03937X0.01378*%
%ADD41R,0.01378X0.03937*%
%ADD42R,0.02402X0.04902*%
%ADD43R,0.04095X0.07087*%
%ADD44R,0.04331X0.05512*%
%ADD45R,0.02165X0.01181*%
%ADD46R,0.02953X0.01181*%
%ADD47R,0.01181X0.02165*%
%ADD48R,0.01181X0.02953*%
%ADD49R,0.20630X0.20630*%
%ADD50R,0.02079X0.01024*%
%ADD51R,0.01024X0.02079*%
%ADD52R,0.10630X0.10630*%
%ADD53R,0.04134X0.01772*%
%ADD54R,0.11575X0.14094*%
%ADD55R,0.06890X0.06890*%
%ADD56O,0.02362X0.01181*%
%ADD57R,0.10000X0.14000*%
%ADD58R,0.02441X0.04803*%
%ADD59R,0.10236X0.03937*%
%ADD60R,0.03937X0.10236*%
%ADD61R,0.12992X0.12992*%
%ADD62R,0.07874X0.09843*%
%ADD63R,0.07874X0.07874*%
%ADD64R,0.02756X0.02165*%
%ADD65R,0.10433X0.03150*%
%ADD66R,0.02165X0.02165*%
%ADD67R,0.02165X0.02756*%
%ADD68R,0.03150X0.10433*%
%ADD69R,0.02165X0.02165*%
%ADD70R,0.02756X0.01181*%
%ADD71R,0.02200X0.01575*%
%ADD72R,0.01575X0.02200*%
G04:AMPARAMS|DCode=73|XSize=22mil|YSize=15.75mil|CornerRadius=0mil|HoleSize=0mil|Usage=FLASHONLY|Rotation=83.000|XOffset=0mil|YOffset=0mil|HoleType=Round|Shape=Rectangle|*
%AMROTATEDRECTD73*
4,1,4,0.00648,-0.01188,-0.00916,-0.00996,-0.00648,0.01188,0.00916,0.00996,0.00648,-0.01188,0.0*
%
%ADD73ROTATEDRECTD73*%

G04:AMPARAMS|DCode=74|XSize=22mil|YSize=15.75mil|CornerRadius=0mil|HoleSize=0mil|Usage=FLASHONLY|Rotation=97.000|XOffset=0mil|YOffset=0mil|HoleType=Round|Shape=Rectangle|*
%AMROTATEDRECTD74*
4,1,4,0.00916,-0.00996,-0.00648,-0.01188,-0.00916,0.00996,0.00648,0.01188,0.00916,-0.00996,0.0*
%
%ADD74ROTATEDRECTD74*%

%ADD75R,0.01969X0.03543*%
%ADD76R,0.03543X0.01969*%
%ADD77R,0.01969X0.03347*%
%ADD78R,0.03347X0.01969*%
%ADD79R,0.06496X0.06496*%
%ADD80R,0.05906X0.05906*%
%ADD81R,0.05906X0.05906*%
%ADD82R,0.07874X0.31496*%
%ADD83C,0.01400*%
%ADD84C,0.01000*%
%ADD85C,0.07000*%
%ADD86C,0.02400*%
%ADD87C,0.01575*%
%ADD88C,0.01100*%
%ADD89C,0.07874*%
%ADD90C,0.02362*%
%ADD91C,0.09000*%
%ADD92C,0.02000*%
%ADD93C,0.02047*%
%ADD94C,0.01600*%
%ADD95C,0.01969*%
%ADD96C,0.01200*%
%ADD97C,0.05000*%
%ADD98C,0.03500*%
%ADD99C,0.02200*%
%ADD100C,0.00984*%
%ADD101R,0.12835X0.09900*%
%ADD102R,0.11900X0.24400*%
%ADD103R,0.10700X0.08011*%
%ADD104R,0.10800X0.14300*%
%ADD105R,0.14525X0.03200*%
%ADD106R,0.18522X0.03500*%
%ADD107R,0.00433X0.01700*%
%ADD108R,0.10800X0.20947*%
%ADD109R,0.12402X0.23701*%
%ADD110R,0.09900X0.12520*%
%ADD111R,0.13976X0.55984*%
%ADD112R,0.35039X0.34961*%
%ADD113C,0.06299*%
%ADD114R,0.06299X0.06299*%
%ADD115R,0.03937X0.03937*%
%ADD116C,0.03937*%
%ADD117R,0.03937X0.03937*%
%ADD118C,0.01400*%
%ADD119C,0.01200*%
%ADD120C,0.01800*%
%ADD121C,0.02000*%
%ADD122C,0.04000*%
%ADD123C,0.01969*%
%ADD124C,0.02598*%
%ADD125C,0.00787*%
%ADD126C,0.01000*%
%ADD127C,0.02500*%
%ADD128C,0.02362*%
%ADD129C,0.14961*%
%ADD130C,0.03000*%
%ADD131R,0.11900X0.14889*%
%ADD132C,0.06000*%
%ADD133R,0.01200X0.02200*%
%ADD134R,0.09843X0.05906*%
%ADD135R,0.05906X0.09843*%
%ADD136R,0.04921X0.01575*%
%ADD137R,0.04921X0.01575*%
%ADD138R,0.08661X0.05512*%
%ADD139R,0.26772X0.26772*%
%ADD140R,0.01378X0.03150*%
%ADD141R,0.03150X0.01378*%
%ADD142R,0.03543X0.01575*%
%ADD143R,0.01969X0.01969*%
%ADD144R,0.05118X0.03347*%
%ADD145C,0.00900*%
%ADD146C,0.02500*%
%ADD147R,0.01850X0.03340*%
%ADD148R,0.05908X0.03435*%
%ADD149R,0.09900X0.13110*%
%ADD150C,0.00394*%
%ADD151C,0.00827*%
%ADD152C,0.00800*%
%ADD153C,0.00787*%
%ADD154C,0.00315*%
%ADD155C,0.00591*%
%ADD156C,0.00787*%
%ADD157C,0.00394*%
%ADD158C,0.00400*%
%ADD159C,0.01378*%
%ADD160C,0.00600*%
%ADD161R,0.01181X0.02165*%
%ADD162R,0.01771X0.02165*%
%ADD163R,0.02165X0.01181*%
%ADD164R,0.02165X0.01771*%
G36*
X34393Y29749D02*
X27509D01*
X26823Y30584D01*
X26815Y30593D01*
X26806Y30603D01*
X26797Y30612D01*
X26788Y30621D01*
X26778Y30630D01*
X26769Y30638D01*
X25541Y31646D01*
X25530Y31654D01*
X25520Y31662D01*
X25509Y31669D01*
X25499Y31676D01*
X25487Y31683D01*
X25476Y31689D01*
X24075Y32438D01*
X24063Y32443D01*
X24052Y32450D01*
X24040Y32454D01*
X24028Y32460D01*
X24016Y32463D01*
X24003Y32468D01*
X22483Y32929D01*
X22470Y32932D01*
X22458Y32936D01*
X22445Y32938D01*
X22433Y32941D01*
X22420Y32942D01*
X22407Y32944D01*
X20826Y33100D01*
X20813Y33100D01*
X20800Y33102D01*
X20787Y33101D01*
X20775Y33102D01*
X20762Y33100D01*
X20749Y33100D01*
X19168Y32944D01*
X19155Y32942D01*
X19142Y32941D01*
X19129Y32938D01*
X19117Y32936D01*
X19104Y32932D01*
X19092Y32929D01*
X17571Y32468D01*
X17559Y32463D01*
X17547Y32460D01*
X17535Y32454D01*
X17523Y32450D01*
X17512Y32444D01*
X17500Y32438D01*
X16099Y31689D01*
X16088Y31683D01*
X16076Y31676D01*
X16066Y31669D01*
X16055Y31662D01*
X16045Y31654D01*
X16034Y31646D01*
X14806Y30638D01*
X14797Y30630D01*
X14787Y30621D01*
X14778Y30612D01*
X14768Y30603D01*
X14760Y30593D01*
X14751Y30584D01*
X14066Y29749D01*
X7182D01*
Y38208D01*
X34393D01*
Y29749D01*
D02*
G37*
G36*
Y10997D02*
X7182D01*
Y19456D01*
X14066D01*
X14751Y18621D01*
X14760Y18612D01*
X14768Y18602D01*
X14778Y18593D01*
X14787Y18583D01*
X14797Y18575D01*
X14806Y18566D01*
X16034Y17558D01*
X16045Y17551D01*
X16055Y17543D01*
X16066Y17536D01*
X16076Y17528D01*
X16088Y17522D01*
X16099Y17515D01*
X17500Y16767D01*
X17512Y16761D01*
X17523Y16755D01*
X17535Y16750D01*
X17547Y16745D01*
X17559Y16741D01*
X17571Y16737D01*
X19092Y16276D01*
X19104Y16273D01*
X19117Y16269D01*
X19129Y16267D01*
X19142Y16264D01*
X19155Y16263D01*
X19168Y16261D01*
X20749Y16105D01*
X20762Y16104D01*
X20775Y16103D01*
X20787Y16104D01*
X20800Y16103D01*
X20813Y16104D01*
X20826Y16105D01*
X22407Y16261D01*
X22420Y16263D01*
X22433Y16264D01*
X22445Y16267D01*
X22458Y16269D01*
X22470Y16273D01*
X22483Y16276D01*
X24003Y16737D01*
X24016Y16741D01*
X24028Y16745D01*
X24040Y16750D01*
X24052Y16755D01*
X24063Y16761D01*
X24075Y16767D01*
X25476Y17515D01*
X25487Y17522D01*
X25499Y17528D01*
X25509Y17536D01*
X25520Y17543D01*
X25530Y17551D01*
X25541Y17558D01*
X26769Y18566D01*
X26778Y18575D01*
X26788Y18583D01*
X26797Y18593D01*
X26806Y18602D01*
X26815Y18612D01*
X26823Y18621D01*
X27509Y19456D01*
X34393D01*
Y10997D01*
D02*
G37*
G36*
Y177387D02*
X27509D01*
X26823Y178221D01*
X26815Y178231D01*
X26806Y178241D01*
X26797Y178250D01*
X26788Y178259D01*
X26778Y178267D01*
X26769Y178276D01*
X25541Y179284D01*
X25530Y179292D01*
X25520Y179300D01*
X25509Y179307D01*
X25499Y179314D01*
X25487Y179320D01*
X25476Y179327D01*
X24075Y180076D01*
X24063Y180081D01*
X24052Y180087D01*
X24040Y180092D01*
X24028Y180097D01*
X24016Y180101D01*
X24003Y180106D01*
X22483Y180567D01*
X22470Y180570D01*
X22458Y180574D01*
X22445Y180576D01*
X22433Y180579D01*
X22420Y180580D01*
X22407Y180582D01*
X20826Y180738D01*
X20813Y180738D01*
X20800Y180739D01*
X20787Y180739D01*
X20775Y180739D01*
X20762Y180738D01*
X20749Y180738D01*
X19168Y180582D01*
X19155Y180580D01*
X19142Y180579D01*
X19129Y180576D01*
X19117Y180574D01*
X19104Y180570D01*
X19092Y180567D01*
X17571Y180106D01*
X17559Y180101D01*
X17547Y180097D01*
X17535Y180092D01*
X17523Y180087D01*
X17512Y180081D01*
X17500Y180076D01*
X16099Y179327D01*
X16088Y179320D01*
X16076Y179314D01*
X16066Y179307D01*
X16055Y179300D01*
X16045Y179292D01*
X16034Y179284D01*
X14806Y178276D01*
X14797Y178267D01*
X14787Y178259D01*
X14778Y178250D01*
X14768Y178241D01*
X14760Y178231D01*
X14751Y178221D01*
X14066Y177387D01*
X7182D01*
Y185846D01*
X34393D01*
Y177387D01*
D02*
G37*
G36*
Y158635D02*
X7182D01*
Y167094D01*
X14066D01*
X14751Y166259D01*
X14760Y166250D01*
X14768Y166239D01*
X14778Y166231D01*
X14787Y166221D01*
X14797Y166213D01*
X14806Y166204D01*
X16034Y165196D01*
X16045Y165189D01*
X16055Y165181D01*
X16066Y165174D01*
X16076Y165166D01*
X16088Y165160D01*
X16099Y165153D01*
X17500Y164404D01*
X17512Y164399D01*
X17523Y164393D01*
X17535Y164388D01*
X17547Y164383D01*
X17559Y164379D01*
X17571Y164375D01*
X19092Y163913D01*
X19104Y163910D01*
X19117Y163907D01*
X19129Y163905D01*
X19142Y163902D01*
X19155Y163900D01*
X19168Y163898D01*
X20749Y163743D01*
X20762Y163742D01*
X20775Y163741D01*
X20787Y163741D01*
X20800Y163741D01*
X20813Y163742D01*
X20826Y163743D01*
X22407Y163898D01*
X22420Y163900D01*
X22433Y163902D01*
X22445Y163905D01*
X22458Y163907D01*
X22470Y163910D01*
X22483Y163913D01*
X24003Y164375D01*
X24016Y164379D01*
X24028Y164383D01*
X24040Y164388D01*
X24052Y164393D01*
X24063Y164399D01*
X24075Y164404D01*
X25476Y165153D01*
X25487Y165160D01*
X25499Y165166D01*
X25509Y165174D01*
X25520Y165181D01*
X25530Y165189D01*
X25541Y165196D01*
X26769Y166204D01*
X26778Y166213D01*
X26788Y166221D01*
X26797Y166231D01*
X26806Y166239D01*
X26815Y166249D01*
X26823Y166259D01*
X27509Y167094D01*
X34393D01*
Y158635D01*
D02*
G37*
D11*
X20787Y36413D02*
D03*
Y12791D02*
D03*
Y160429D02*
D03*
Y184051D02*
D03*
D12*
Y24602D02*
D03*
Y172240D02*
D03*
D13*
X272516Y22548D02*
D03*
Y18348D02*
D03*
Y13948D02*
D03*
Y9748D02*
D03*
D14*
X355354Y129035D02*
D03*
Y153169D02*
D03*
D15*
X184961Y112047D02*
D03*
Y104173D02*
D03*
X192835D02*
D03*
Y108110D02*
D03*
Y112047D02*
D03*
D16*
X184961Y108110D02*
D03*
D17*
X140217Y152100D02*
D03*
D18*
X136815Y155053D02*
D03*
Y153084D02*
D03*
Y151116D02*
D03*
Y149147D02*
D03*
X143618Y149100D02*
D03*
Y151116D02*
D03*
Y153084D02*
D03*
Y155053D02*
D03*
D19*
X341535Y46732D02*
D03*
X358071D02*
D03*
D20*
X336535Y101299D02*
D03*
Y117835D02*
D03*
D21*
X326181Y153504D02*
D03*
Y127520D02*
D03*
D22*
X304213Y143622D02*
D03*
X287283D02*
D03*
D23*
X194716Y86873D02*
D03*
X200316D02*
D03*
X304222Y38161D02*
D03*
X298622D02*
D03*
X194716Y80573D02*
D03*
X200316D02*
D03*
D24*
X112022Y50261D02*
D03*
X123022D02*
D03*
X97222Y64361D02*
D03*
X86222D02*
D03*
X109322Y22461D02*
D03*
X98322D02*
D03*
D25*
X251522Y28661D02*
D03*
Y53661D02*
D03*
D26*
X271816Y27648D02*
D03*
Y33248D02*
D03*
D27*
X139369Y109161D02*
D03*
X132676D02*
D03*
X143576Y106008D02*
D03*
X150269Y107976D02*
D03*
X150269Y109945D02*
D03*
X150269Y111914D02*
D03*
X143576D02*
D03*
Y109945D02*
D03*
X143576Y107976D02*
D03*
X162676Y83061D02*
D03*
X169369D02*
D03*
X60267Y64068D02*
D03*
X66960D02*
D03*
X60267Y38525D02*
D03*
X66960D02*
D03*
D28*
X138975Y105814D02*
D03*
X137006Y112507D02*
D03*
X135038D02*
D03*
X133069Y112507D02*
D03*
Y105814D02*
D03*
X135038Y105814D02*
D03*
X137006D02*
D03*
X146922Y105614D02*
D03*
X146922Y112307D02*
D03*
X163069Y86407D02*
D03*
X165038Y79714D02*
D03*
X167006D02*
D03*
X168975D02*
D03*
Y86407D02*
D03*
X167006D02*
D03*
X165038D02*
D03*
X60661Y67414D02*
D03*
X62629Y60721D02*
D03*
X64598D02*
D03*
X66567D02*
D03*
Y67414D02*
D03*
X64598D02*
D03*
X62629D02*
D03*
X60661Y41871D02*
D03*
X62629Y35178D02*
D03*
X64598D02*
D03*
X66567D02*
D03*
Y41871D02*
D03*
X64598D02*
D03*
X62629D02*
D03*
D29*
X138975Y112310D02*
D03*
X163069Y79911D02*
D03*
X60661Y60918D02*
D03*
Y35375D02*
D03*
D30*
X150072Y106008D02*
D03*
D31*
X338642Y69528D02*
D03*
X362776D02*
D03*
D32*
X128708Y64076D02*
D03*
X132724Y49667D02*
D03*
D33*
X378408Y36397D02*
D03*
Y62381D02*
D03*
D34*
X178667Y169814D02*
D03*
Y173555D02*
D03*
Y177295D02*
D03*
X168352D02*
D03*
Y173555D02*
D03*
Y169814D02*
D03*
X197897Y61544D02*
D03*
Y57804D02*
D03*
Y54063D02*
D03*
X208212D02*
D03*
Y57804D02*
D03*
Y61544D02*
D03*
D35*
X52804Y154071D02*
D03*
X60381Y150134D02*
D03*
Y152103D02*
D03*
Y154071D02*
D03*
X52804Y152103D02*
D03*
Y150134D02*
D03*
D36*
X54625Y155890D02*
D03*
Y148316D02*
D03*
X56593D02*
D03*
X58562D02*
D03*
Y155890D02*
D03*
X56593D02*
D03*
D37*
Y152103D02*
D03*
D38*
X225619Y71310D02*
D03*
X229556D02*
D03*
X233493D02*
D03*
Y63436D02*
D03*
X225619D02*
D03*
D39*
X229556D02*
D03*
D40*
X117842Y85273D02*
D03*
X108590D02*
D03*
D41*
X115775Y81730D02*
D03*
X113216D02*
D03*
X110657D02*
D03*
Y88816D02*
D03*
X113216D02*
D03*
X115775D02*
D03*
D42*
X95589Y88936D02*
D03*
Y81633D02*
D03*
D43*
X89192Y85284D02*
D03*
X101987D02*
D03*
D44*
X248956Y115396D02*
D03*
X258012Y130357D02*
D03*
Y115396D02*
D03*
X248956Y130357D02*
D03*
D45*
X206527Y116000D02*
D03*
Y94346D02*
D03*
X232905D02*
D03*
Y116000D02*
D03*
D46*
X206921Y114032D02*
D03*
Y112063D02*
D03*
Y110094D02*
D03*
Y108126D02*
D03*
Y106157D02*
D03*
Y104189D02*
D03*
Y102220D02*
D03*
Y100252D02*
D03*
Y98283D02*
D03*
Y96315D02*
D03*
X232511D02*
D03*
Y98283D02*
D03*
Y100252D02*
D03*
Y102220D02*
D03*
Y104189D02*
D03*
Y106157D02*
D03*
Y108126D02*
D03*
Y110094D02*
D03*
Y112063D02*
D03*
Y114032D02*
D03*
D47*
X208889Y91984D02*
D03*
X230543D02*
D03*
Y118362D02*
D03*
X208889D02*
D03*
D48*
X210858Y92378D02*
D03*
X212826D02*
D03*
X214795D02*
D03*
X216763D02*
D03*
X218732D02*
D03*
X220700D02*
D03*
X222669D02*
D03*
X224637D02*
D03*
X226606D02*
D03*
X228574D02*
D03*
Y117968D02*
D03*
X226606D02*
D03*
X224637D02*
D03*
X222669D02*
D03*
X220700D02*
D03*
X218732D02*
D03*
X216763D02*
D03*
X214795D02*
D03*
X212826D02*
D03*
X210858D02*
D03*
D49*
X219716Y105173D02*
D03*
D50*
X148854Y22852D02*
D03*
Y32695D02*
D03*
Y30726D02*
D03*
Y28758D02*
D03*
Y26789D02*
D03*
Y24820D02*
D03*
X134177Y30726D02*
D03*
Y32695D02*
D03*
Y28758D02*
D03*
Y24820D02*
D03*
Y26789D02*
D03*
Y22852D02*
D03*
D51*
X144469Y35112D02*
D03*
X136595Y20435D02*
D03*
X140532Y35112D02*
D03*
X142500D02*
D03*
X146437D02*
D03*
Y20435D02*
D03*
X144469D02*
D03*
X142500D02*
D03*
X140532D02*
D03*
X138563D02*
D03*
X136595Y35112D02*
D03*
X138563D02*
D03*
D52*
X141516Y27773D02*
D03*
X291614Y74961D02*
D03*
Y50472D02*
D03*
X321614Y74961D02*
D03*
Y50472D02*
D03*
D53*
X278191Y29646D02*
D03*
Y27087D02*
D03*
Y24528D02*
D03*
Y21969D02*
D03*
Y19410D02*
D03*
Y14291D02*
D03*
X300041D02*
D03*
Y16851D02*
D03*
Y19410D02*
D03*
Y21969D02*
D03*
Y24528D02*
D03*
Y29646D02*
D03*
Y32205D02*
D03*
X278191D02*
D03*
X300041Y27087D02*
D03*
X278191Y16851D02*
D03*
D54*
X289116Y23248D02*
D03*
D55*
X341216Y168060D02*
D03*
D56*
X335704Y164221D02*
D03*
Y166780D02*
D03*
Y169340D02*
D03*
Y171899D02*
D03*
X346728D02*
D03*
Y169340D02*
D03*
Y166780D02*
D03*
Y164221D02*
D03*
D57*
X307205Y121181D02*
D03*
X287205D02*
D03*
D58*
X185918Y56897D02*
D03*
X182178D02*
D03*
X178438D02*
D03*
Y46582D02*
D03*
X182178D02*
D03*
X185918D02*
D03*
D59*
X65827Y7708D02*
D03*
X85512D02*
D03*
X65827Y186842D02*
D03*
X85512D02*
D03*
X221339D02*
D03*
X241024D02*
D03*
X181968Y7708D02*
D03*
X201654D02*
D03*
Y186842D02*
D03*
X105197D02*
D03*
Y7708D02*
D03*
X241024D02*
D03*
X181968Y186842D02*
D03*
X124882D02*
D03*
Y7708D02*
D03*
X221339D02*
D03*
D60*
X266614Y161251D02*
D03*
Y33298D02*
D03*
X40236D02*
D03*
Y161251D02*
D03*
Y141566D02*
D03*
Y52983D02*
D03*
X266614D02*
D03*
Y141566D02*
D03*
X40236Y72668D02*
D03*
Y121881D02*
D03*
X266614D02*
D03*
Y72668D02*
D03*
D61*
X262087Y182314D02*
D03*
Y12235D02*
D03*
X44764D02*
D03*
Y182314D02*
D03*
D62*
X383543Y118671D02*
D03*
Y82845D02*
D03*
D63*
X360906Y117490D02*
D03*
X352244Y104496D02*
D03*
Y94653D02*
D03*
D65*
X119500Y147769D02*
D03*
Y156431D02*
D03*
X167490Y147769D02*
D03*
Y156431D02*
D03*
X180500Y24746D02*
D03*
Y16084D02*
D03*
X128200Y89604D02*
D03*
Y80942D02*
D03*
X118700Y106392D02*
D03*
Y97731D02*
D03*
D68*
X225228Y36300D02*
D03*
X233889D02*
D03*
D70*
X207979Y20414D02*
D03*
Y22973D02*
D03*
Y25532D02*
D03*
X215853D02*
D03*
Y22973D02*
D03*
Y20414D02*
D03*
D71*
X196900Y99469D02*
D03*
Y95891D02*
D03*
X117422Y37172D02*
D03*
Y40750D02*
D03*
X129822Y37172D02*
D03*
Y40750D02*
D03*
X121116Y64484D02*
D03*
Y68062D02*
D03*
X191955Y61179D02*
D03*
Y57601D02*
D03*
X176500Y79439D02*
D03*
Y75861D02*
D03*
X76108Y60311D02*
D03*
Y56733D02*
D03*
X76087Y34892D02*
D03*
Y31313D02*
D03*
X231232Y80762D02*
D03*
Y77184D02*
D03*
X219816Y81750D02*
D03*
Y78172D02*
D03*
X227900Y80762D02*
D03*
Y77184D02*
D03*
X238900Y78211D02*
D03*
Y81789D02*
D03*
X234016Y126384D02*
D03*
Y129962D02*
D03*
X229316Y127784D02*
D03*
Y131362D02*
D03*
X224616Y126384D02*
D03*
Y129962D02*
D03*
X206816Y86162D02*
D03*
Y82584D02*
D03*
X219916Y126384D02*
D03*
Y129962D02*
D03*
X215216Y126384D02*
D03*
Y129962D02*
D03*
X193180Y99469D02*
D03*
Y95891D02*
D03*
X281339Y63600D02*
D03*
Y60022D02*
D03*
X329606Y64348D02*
D03*
Y60770D02*
D03*
X141516Y77862D02*
D03*
Y74284D02*
D03*
X330916Y166684D02*
D03*
Y170262D02*
D03*
X184610Y170166D02*
D03*
Y173743D02*
D03*
X162410D02*
D03*
Y170166D02*
D03*
X129078Y148214D02*
D03*
Y151792D02*
D03*
X179061Y132844D02*
D03*
Y136422D02*
D03*
X48322Y150972D02*
D03*
Y154550D02*
D03*
X49322Y145150D02*
D03*
Y141572D02*
D03*
X191778Y50828D02*
D03*
Y47250D02*
D03*
X172350Y79439D02*
D03*
Y75861D02*
D03*
X56584Y160662D02*
D03*
Y164240D02*
D03*
X56599Y139779D02*
D03*
Y143358D02*
D03*
Y36178D02*
D03*
Y32600D02*
D03*
X71408Y60311D02*
D03*
Y56733D02*
D03*
X71387Y34892D02*
D03*
Y31313D02*
D03*
X199216Y20676D02*
D03*
Y24252D02*
D03*
X141516Y56486D02*
D03*
Y60062D02*
D03*
X164000Y24197D02*
D03*
Y20621D02*
D03*
X133022Y98174D02*
D03*
Y101750D02*
D03*
X56599Y56841D02*
D03*
Y53265D02*
D03*
X229558Y54180D02*
D03*
Y50604D02*
D03*
X210616Y137160D02*
D03*
Y133584D02*
D03*
X326216Y170260D02*
D03*
Y166684D02*
D03*
X157610Y170168D02*
D03*
Y173743D02*
D03*
X214155Y57701D02*
D03*
Y61279D02*
D03*
X255778Y148076D02*
D03*
Y144500D02*
D03*
X191722Y71174D02*
D03*
Y74750D02*
D03*
X127622Y28772D02*
D03*
Y32350D02*
D03*
D72*
X198910Y37500D02*
D03*
X195332D02*
D03*
Y28700D02*
D03*
X198910D02*
D03*
X195105Y20423D02*
D03*
X191527D02*
D03*
X224189Y25532D02*
D03*
X220611D02*
D03*
X125511Y17350D02*
D03*
X129089D02*
D03*
X136889Y16800D02*
D03*
X133311D02*
D03*
X148311Y13161D02*
D03*
X144733D02*
D03*
X145305Y41561D02*
D03*
X141727D02*
D03*
X145305Y46286D02*
D03*
X141727D02*
D03*
X145305Y50986D02*
D03*
X141727D02*
D03*
X145305Y64773D02*
D03*
X141727D02*
D03*
X145305Y69373D02*
D03*
X141727D02*
D03*
X160105Y20415D02*
D03*
X156527D02*
D03*
X204311Y66000D02*
D03*
X207889D02*
D03*
X136411Y119261D02*
D03*
X132833D02*
D03*
X255373Y138177D02*
D03*
X251795D02*
D03*
X251689Y103050D02*
D03*
X248111D02*
D03*
X185567Y62739D02*
D03*
X181989D02*
D03*
X211211Y87500D02*
D03*
X214789D02*
D03*
X211233Y81861D02*
D03*
X214811D02*
D03*
X201539Y126300D02*
D03*
X197961D02*
D03*
X205389Y137473D02*
D03*
X201811D02*
D03*
X209705Y128705D02*
D03*
X206127D02*
D03*
X200705Y121373D02*
D03*
X197127D02*
D03*
X200689Y117100D02*
D03*
X197111D02*
D03*
X148511Y162800D02*
D03*
X152089D02*
D03*
X147989Y166500D02*
D03*
X144411D02*
D03*
X129394Y152100D02*
D03*
X132973D02*
D03*
X153300D02*
D03*
X156878D02*
D03*
X198910Y33100D02*
D03*
X195332D02*
D03*
X167827Y20415D02*
D03*
X171405D02*
D03*
X334127Y177273D02*
D03*
X337705D02*
D03*
X347205D02*
D03*
X343627D02*
D03*
X172249Y163754D02*
D03*
X168671D02*
D03*
X148859Y102061D02*
D03*
X145281D02*
D03*
X182289Y40839D02*
D03*
X185867D02*
D03*
X146233Y119261D02*
D03*
X149811D02*
D03*
X56810Y73911D02*
D03*
X60387D02*
D03*
X56810Y48199D02*
D03*
X60387D02*
D03*
X196435Y74761D02*
D03*
X200011D02*
D03*
X167909Y96161D02*
D03*
X164333D02*
D03*
X229767Y58137D02*
D03*
X233343D02*
D03*
X229337Y46747D02*
D03*
X225761D02*
D03*
X117263Y23850D02*
D03*
X120839D02*
D03*
X121335Y36861D02*
D03*
X124911D02*
D03*
X113913Y13950D02*
D03*
X117489D02*
D03*
X153843Y102047D02*
D03*
X157419D02*
D03*
X185865Y36139D02*
D03*
X182289D02*
D03*
X216787Y54000D02*
D03*
X213211D02*
D03*
X167909Y92000D02*
D03*
X164333D02*
D03*
X117213Y19550D02*
D03*
X120789D02*
D03*
X200705Y92373D02*
D03*
X197127D02*
D03*
X328909Y177261D02*
D03*
X325333D02*
D03*
X152409Y169861D02*
D03*
X148833D02*
D03*
X192191Y41539D02*
D03*
X195767D02*
D03*
X178769Y132510D02*
D03*
X175191D02*
D03*
X129505Y23873D02*
D03*
X125927D02*
D03*
D73*
X198224Y111084D02*
D03*
X201776Y110648D02*
D03*
D74*
X198224Y105136D02*
D03*
X201776Y105572D02*
D03*
D75*
X238966Y85873D02*
D03*
X233366D02*
D03*
X110116Y67273D02*
D03*
X104516D02*
D03*
X110116Y60973D02*
D03*
X104516D02*
D03*
X225466Y85873D02*
D03*
X219866D02*
D03*
D76*
X148234Y152102D02*
D03*
Y157702D02*
D03*
D77*
X28352Y67381D02*
D03*
X33470D02*
D03*
X28352Y129461D02*
D03*
X33470D02*
D03*
D78*
X301962Y100784D02*
D03*
Y95666D02*
D03*
X286214Y95862D02*
D03*
Y100980D02*
D03*
X270466Y95862D02*
D03*
Y100980D02*
D03*
X317710Y100980D02*
D03*
Y95862D02*
D03*
D79*
X75470Y102317D02*
D03*
X103974D02*
D03*
X75470Y151805D02*
D03*
X103974D02*
D03*
D80*
X72202Y137454D02*
D03*
Y116667D02*
D03*
X107242D02*
D03*
Y137454D02*
D03*
Y127061D02*
D03*
X72202D02*
D03*
D81*
X89722Y99069D02*
D03*
Y155053D02*
D03*
D82*
Y127061D02*
D03*
D161*
X113990Y152100D02*
D03*
X161980D02*
D03*
X186012Y20415D02*
D03*
X133712Y85272D02*
D03*
X124212Y102060D02*
D03*
D162*
X123929Y152100D02*
D03*
X171919D02*
D03*
X176070Y20415D02*
D03*
X123771Y85273D02*
D03*
X114271Y102061D02*
D03*
D163*
X229558Y41812D02*
D03*
D164*
X229558Y31871D02*
D03*
M02*
