%FSLAX25Y25*%
%MOIN*%
G70*
G01*
G75*
G04 Layer_Color=128*
%ADD10C,0.01102*%
%ADD11R,0.01969X0.01969*%
%ADD12C,0.06811*%
%ADD13R,0.02200X0.02200*%
%ADD14R,0.24016X0.12047*%
%ADD15R,0.04331X0.02559*%
%ADD16R,0.04331X0.02200*%
%ADD17R,0.02362X0.04724*%
%ADD18R,0.01882X0.01024*%
%ADD19R,0.06890X0.05709*%
%ADD20R,0.05709X0.06890*%
%ADD21R,0.20866X0.07874*%
%ADD22R,0.08858X0.08465*%
%ADD23R,0.03200X0.03800*%
%ADD24R,0.06000X0.12000*%
%ADD25R,0.18000X0.10000*%
%ADD26R,0.03800X0.03200*%
%ADD27R,0.02874X0.01181*%
%ADD28R,0.01181X0.02874*%
%ADD29R,0.01181X0.03268*%
%ADD30R,0.03268X0.01181*%
%ADD31R,0.12047X0.24016*%
%ADD32R,0.09685X0.03110*%
%ADD33R,0.13000X0.07874*%
%ADD34R,0.04803X0.02441*%
%ADD35R,0.01870X0.00984*%
%ADD36R,0.00984X0.01870*%
%ADD37R,0.04331X0.04331*%
%ADD38R,0.02559X0.04331*%
%ADD39R,0.02047X0.04331*%
%ADD40R,0.03937X0.01378*%
%ADD41R,0.01378X0.03937*%
%ADD42R,0.02402X0.04902*%
%ADD43R,0.04095X0.07087*%
%ADD44R,0.04331X0.05512*%
%ADD45R,0.02165X0.01181*%
%ADD46R,0.02953X0.01181*%
%ADD47R,0.01181X0.02165*%
%ADD48R,0.01181X0.02953*%
%ADD49R,0.20630X0.20630*%
%ADD50R,0.02079X0.01024*%
%ADD51R,0.01024X0.02079*%
%ADD52R,0.10630X0.10630*%
%ADD53R,0.04134X0.01772*%
%ADD54R,0.11575X0.14094*%
%ADD55R,0.06890X0.06890*%
%ADD56O,0.02362X0.01181*%
%ADD57R,0.10000X0.14000*%
%ADD58R,0.02441X0.04803*%
%ADD59R,0.10236X0.03937*%
%ADD60R,0.03937X0.10236*%
%ADD61R,0.12992X0.12992*%
%ADD62R,0.07874X0.09843*%
%ADD63R,0.07874X0.07874*%
%ADD64R,0.02756X0.02165*%
%ADD65R,0.10433X0.03150*%
%ADD66R,0.02165X0.02165*%
%ADD67R,0.02165X0.02756*%
%ADD68R,0.03150X0.10433*%
%ADD69R,0.02165X0.02165*%
%ADD70R,0.02756X0.01181*%
%ADD71R,0.02200X0.01575*%
%ADD72R,0.01575X0.02200*%
G04:AMPARAMS|DCode=73|XSize=22mil|YSize=15.75mil|CornerRadius=0mil|HoleSize=0mil|Usage=FLASHONLY|Rotation=83.000|XOffset=0mil|YOffset=0mil|HoleType=Round|Shape=Rectangle|*
%AMROTATEDRECTD73*
4,1,4,0.00648,-0.01188,-0.00916,-0.00996,-0.00648,0.01188,0.00916,0.00996,0.00648,-0.01188,0.0*
%
%ADD73ROTATEDRECTD73*%

G04:AMPARAMS|DCode=74|XSize=22mil|YSize=15.75mil|CornerRadius=0mil|HoleSize=0mil|Usage=FLASHONLY|Rotation=97.000|XOffset=0mil|YOffset=0mil|HoleType=Round|Shape=Rectangle|*
%AMROTATEDRECTD74*
4,1,4,0.00916,-0.00996,-0.00648,-0.01188,-0.00916,0.00996,0.00648,0.01188,0.00916,-0.00996,0.0*
%
%ADD74ROTATEDRECTD74*%

%ADD75R,0.01969X0.03543*%
%ADD76R,0.03543X0.01969*%
%ADD77R,0.01969X0.03347*%
%ADD78R,0.03347X0.01969*%
%ADD79R,0.06496X0.06496*%
%ADD80R,0.05906X0.05906*%
%ADD81R,0.05906X0.05906*%
%ADD82R,0.07874X0.31496*%
%ADD83C,0.01400*%
%ADD84C,0.01000*%
%ADD85C,0.07000*%
%ADD86C,0.02400*%
%ADD87C,0.01575*%
%ADD88C,0.01100*%
%ADD89C,0.07874*%
%ADD90C,0.02362*%
%ADD91C,0.09000*%
%ADD92C,0.02000*%
%ADD93C,0.02047*%
%ADD94C,0.01600*%
%ADD95C,0.01969*%
%ADD96C,0.01200*%
%ADD97C,0.05000*%
%ADD98C,0.03500*%
%ADD99C,0.02200*%
%ADD100C,0.00984*%
%ADD101R,0.12835X0.09900*%
%ADD102R,0.11900X0.24400*%
%ADD103R,0.10700X0.08011*%
%ADD104R,0.10800X0.14300*%
%ADD105R,0.14525X0.03200*%
%ADD106R,0.18522X0.03500*%
%ADD107R,0.00433X0.01700*%
%ADD108R,0.10800X0.20947*%
%ADD109R,0.12402X0.23701*%
%ADD110R,0.09900X0.12520*%
%ADD111R,0.13976X0.55984*%
%ADD112R,0.35039X0.34961*%
%ADD113C,0.06299*%
%ADD114R,0.06299X0.06299*%
%ADD115R,0.03937X0.03937*%
%ADD116C,0.03937*%
%ADD117R,0.03937X0.03937*%
%ADD118C,0.01400*%
%ADD119C,0.01200*%
%ADD120C,0.01800*%
%ADD121C,0.02000*%
%ADD122C,0.04000*%
%ADD123C,0.01969*%
%ADD124C,0.02598*%
%ADD125C,0.00787*%
%ADD126C,0.01000*%
%ADD127C,0.02500*%
%ADD128C,0.02362*%
%ADD129C,0.14961*%
%ADD130C,0.03000*%
%ADD131R,0.11900X0.14889*%
%ADD132C,0.06000*%
%ADD133R,0.01200X0.02200*%
%ADD134R,0.09843X0.05906*%
%ADD135R,0.05906X0.09843*%
%ADD136R,0.04921X0.01575*%
%ADD137R,0.04921X0.01575*%
%ADD138R,0.08661X0.05512*%
%ADD139R,0.26772X0.26772*%
%ADD140R,0.01378X0.03150*%
%ADD141R,0.03150X0.01378*%
%ADD142R,0.03543X0.01575*%
%ADD143R,0.01969X0.01969*%
%ADD144R,0.05118X0.03347*%
%ADD145C,0.00900*%
%ADD146C,0.02500*%
%ADD147R,0.01850X0.03340*%
%ADD148R,0.05908X0.03435*%
%ADD149R,0.09900X0.13110*%
%ADD150C,0.00394*%
%ADD151C,0.00827*%
%ADD152C,0.00800*%
%ADD153C,0.00787*%
%ADD154C,0.00315*%
%ADD155C,0.00591*%
%ADD156C,0.00787*%
%ADD157C,0.00394*%
%ADD158C,0.00400*%
%ADD159C,0.01378*%
%ADD160C,0.00600*%
%ADD161R,0.01181X0.02165*%
%ADD162R,0.01771X0.02165*%
%ADD163R,0.02165X0.01181*%
%ADD164R,0.02165X0.01771*%
%ADD165R,0.11221X0.13307*%
%ADD166R,0.11102X0.13661*%
%ADD167R,0.10827X0.12214*%
%ADD168R,0.12214X0.10827*%
%ADD169R,0.14902X0.56988*%
%ADD170R,0.35945X0.35886*%
%ADD171R,0.02769X0.02769*%
%ADD172C,0.07611*%
%ADD173R,0.04882X0.03110*%
%ADD174R,0.04882X0.02751*%
%ADD175R,0.02913X0.05276*%
%ADD176R,0.02433X0.01575*%
%ADD177R,0.07690X0.06509*%
%ADD178R,0.06509X0.07690*%
%ADD179R,0.21666X0.08674*%
%ADD180R,0.09658X0.09265*%
%ADD181R,0.03279X0.03879*%
%ADD182R,0.03268X0.01575*%
%ADD183R,0.01575X0.03268*%
%ADD184R,0.01575X0.03661*%
%ADD185R,0.03661X0.01575*%
%ADD186R,0.09764X0.03189*%
%ADD187R,0.05354X0.02992*%
%ADD188R,0.02185X0.01299*%
%ADD189R,0.01299X0.02185*%
%ADD190R,0.04646X0.04646*%
%ADD191R,0.03110X0.04882*%
%ADD192R,0.02598X0.04882*%
%ADD193R,0.04331X0.01772*%
%ADD194R,0.01772X0.04331*%
%ADD195R,0.03202X0.05702*%
%ADD196R,0.04895X0.07887*%
%ADD197R,0.05131X0.06312*%
%ADD198R,0.02559X0.01575*%
%ADD199R,0.03347X0.01575*%
%ADD200R,0.01575X0.02559*%
%ADD201R,0.01575X0.03347*%
%ADD202R,0.21181X0.21181*%
%ADD203R,0.02630X0.01575*%
%ADD204R,0.01575X0.02630*%
%ADD205R,0.11181X0.11181*%
%ADD206R,0.04685X0.02323*%
%ADD207R,0.11811X0.14331*%
%ADD208R,0.07284X0.07284*%
%ADD209O,0.02756X0.01575*%
%ADD210R,0.11430X0.11430*%
%ADD211R,0.02992X0.05354*%
%ADD212R,0.11036X0.04737*%
%ADD213R,0.04737X0.11036*%
%ADD214R,0.13792X0.13792*%
%ADD215R,0.08674X0.10642*%
%ADD216R,0.08674X0.08674*%
%ADD217R,0.03156X0.02565*%
%ADD218R,0.10835X0.03551*%
%ADD219R,0.02565X0.02565*%
%ADD220R,0.02565X0.03156*%
%ADD221R,0.03551X0.10835*%
%ADD222R,0.02565X0.02565*%
%ADD223R,0.03556X0.01981*%
%ADD224R,0.07296X0.07296*%
%ADD225R,0.06706X0.06706*%
%ADD226R,0.06706X0.06706*%
%ADD227R,0.08674X0.32296*%
%ADD228C,0.04737*%
%ADD229R,0.04737X0.04737*%
%ADD230R,0.04737X0.04737*%
%ADD231C,0.03398*%
%ADD232C,0.04800*%
%ADD233C,0.15761*%
%ADD234R,0.17600X0.17600*%
%ADD235R,0.10642X0.06706*%
%ADD236R,0.06706X0.10642*%
%ADD237R,0.05721X0.02375*%
%ADD238R,0.05721X0.02375*%
%ADD239R,0.27165X0.27165*%
%ADD240R,0.01772X0.03543*%
%ADD241R,0.03543X0.01772*%
%ADD242R,0.05918X0.04147*%
%ADD243R,0.03879X0.03279*%
D13*
X343816Y150873D02*
D03*
Y146673D02*
D03*
Y155473D02*
D03*
Y159673D02*
D03*
D23*
X335271Y173898D02*
D03*
X340871D02*
D03*
D26*
X349916Y144873D02*
D03*
Y150473D02*
D03*
Y161573D02*
D03*
Y155973D02*
D03*
X309716Y147673D02*
D03*
Y153273D02*
D03*
D33*
X378408Y62369D02*
D03*
Y36385D02*
D03*
D71*
X234006Y121372D02*
D03*
Y117794D02*
D03*
X229306Y122772D02*
D03*
Y119194D02*
D03*
X224606Y121372D02*
D03*
Y117794D02*
D03*
X219906Y121372D02*
D03*
Y117794D02*
D03*
X215206Y121372D02*
D03*
Y117794D02*
D03*
X211166Y88114D02*
D03*
Y91692D02*
D03*
X206566Y88114D02*
D03*
Y91692D02*
D03*
X356116Y154965D02*
D03*
Y151387D02*
D03*
X358116Y170652D02*
D03*
Y174230D02*
D03*
X353822Y170652D02*
D03*
Y174230D02*
D03*
X349528D02*
D03*
Y170652D02*
D03*
X338016Y126884D02*
D03*
Y130462D02*
D03*
X286816Y131562D02*
D03*
Y127984D02*
D03*
X314316Y93662D02*
D03*
Y90084D02*
D03*
X274916D02*
D03*
Y93662D02*
D03*
X332422Y100974D02*
D03*
Y104550D02*
D03*
X327722Y100974D02*
D03*
Y104550D02*
D03*
X323022Y100974D02*
D03*
Y104550D02*
D03*
X318322Y100974D02*
D03*
Y104550D02*
D03*
X313622Y100974D02*
D03*
Y104550D02*
D03*
X299222Y153648D02*
D03*
Y150072D02*
D03*
X303922Y153648D02*
D03*
Y150072D02*
D03*
X294522Y153648D02*
D03*
Y150072D02*
D03*
X289822Y150074D02*
D03*
Y153650D02*
D03*
D72*
X234141Y100273D02*
D03*
X230563D02*
D03*
X202177Y121203D02*
D03*
X205755D02*
D03*
X197177Y106703D02*
D03*
X200755D02*
D03*
X204977Y101303D02*
D03*
X208555D02*
D03*
X239133Y100261D02*
D03*
X242711D02*
D03*
X200705Y92373D02*
D03*
X197127D02*
D03*
X200699Y117060D02*
D03*
X197121D02*
D03*
X200749Y113000D02*
D03*
X197171D02*
D03*
X197231Y95590D02*
D03*
X200809D02*
D03*
X197177Y101803D02*
D03*
X200755D02*
D03*
X204977Y96603D02*
D03*
X208555D02*
D03*
X305527Y106473D02*
D03*
X309105D02*
D03*
X333111Y131361D02*
D03*
X329533D02*
D03*
X321703Y155573D02*
D03*
X318127D02*
D03*
X319303Y150873D02*
D03*
X315727D02*
D03*
X278629Y128273D02*
D03*
X282205D02*
D03*
X278629Y137773D02*
D03*
X282205D02*
D03*
X278629Y142473D02*
D03*
X282205D02*
D03*
X278629Y147173D02*
D03*
X282205D02*
D03*
X333103Y126573D02*
D03*
X329527D02*
D03*
X332429Y121873D02*
D03*
X336005D02*
D03*
X278629Y123573D02*
D03*
X282205D02*
D03*
X282203Y132973D02*
D03*
X278627D02*
D03*
X278629Y118873D02*
D03*
X282205D02*
D03*
X332429Y112473D02*
D03*
X336005D02*
D03*
X297103Y106473D02*
D03*
X293527D02*
D03*
X282203Y104873D02*
D03*
X278627D02*
D03*
X282203Y109473D02*
D03*
X278627D02*
D03*
X282203Y114173D02*
D03*
X278627D02*
D03*
X332429Y117173D02*
D03*
X336005D02*
D03*
X215763Y85900D02*
D03*
X219339D02*
D03*
D133*
X251181Y101102D02*
D03*
X245522D02*
D03*
D134*
X386903Y132704D02*
D03*
X370565D02*
D03*
Y173649D02*
D03*
X386903D02*
D03*
D135*
X362888Y144515D02*
D03*
Y161838D02*
D03*
D136*
X369974Y148058D02*
D03*
D137*
Y150617D02*
D03*
Y153176D02*
D03*
Y155735D02*
D03*
Y158294D02*
D03*
D138*
X307017Y96794D02*
D03*
X282214Y86952D02*
D03*
X307017D02*
D03*
X282214Y96794D02*
D03*
D139*
X307703Y127173D02*
D03*
D140*
X294907Y142921D02*
D03*
X297466D02*
D03*
X300026D02*
D03*
X302585D02*
D03*
X305144D02*
D03*
X307703D02*
D03*
X310262D02*
D03*
X312821D02*
D03*
X315380D02*
D03*
X317939D02*
D03*
X320498D02*
D03*
Y111425D02*
D03*
X317939D02*
D03*
X315380D02*
D03*
X312821D02*
D03*
X310262D02*
D03*
X307703D02*
D03*
X305144D02*
D03*
X302585D02*
D03*
X300026D02*
D03*
X297466D02*
D03*
X294907D02*
D03*
D141*
X323451Y139969D02*
D03*
Y137409D02*
D03*
Y134850D02*
D03*
Y132291D02*
D03*
Y129732D02*
D03*
Y127426D02*
D03*
Y124614D02*
D03*
Y122055D02*
D03*
Y119496D02*
D03*
Y116937D02*
D03*
Y114378D02*
D03*
X291955D02*
D03*
Y116937D02*
D03*
Y119496D02*
D03*
Y122055D02*
D03*
Y124614D02*
D03*
Y127183D02*
D03*
Y129732D02*
D03*
Y132291D02*
D03*
Y134850D02*
D03*
Y137409D02*
D03*
Y139969D02*
D03*
D142*
X332369Y154751D02*
D03*
X339062Y154751D02*
D03*
X332369Y151602D02*
D03*
X339062D02*
D03*
D143*
X297766Y175061D02*
D03*
X303278D02*
D03*
X300666Y179761D02*
D03*
X306178D02*
D03*
D144*
X351929Y180157D02*
D03*
X341693D02*
D03*
M02*
