%FSLAX25Y25*%
%MOIN*%
G70*
G01*
G75*
G04 Layer_Color=16711935*
%ADD10C,0.01102*%
%ADD11R,0.01969X0.01969*%
%ADD12C,0.06811*%
%ADD13R,0.02200X0.02200*%
%ADD14R,0.24016X0.12047*%
%ADD15R,0.04331X0.02559*%
%ADD16R,0.04331X0.02200*%
%ADD17R,0.02362X0.04724*%
%ADD18R,0.01882X0.01024*%
%ADD19R,0.06890X0.05709*%
%ADD20R,0.05709X0.06890*%
%ADD21R,0.20866X0.07874*%
%ADD22R,0.08858X0.08465*%
%ADD23R,0.03200X0.03800*%
%ADD24R,0.06000X0.12000*%
%ADD25R,0.18000X0.10000*%
%ADD26R,0.03800X0.03200*%
%ADD27R,0.02874X0.01181*%
%ADD28R,0.01181X0.02874*%
%ADD29R,0.01181X0.03268*%
%ADD30R,0.03268X0.01181*%
%ADD31R,0.12047X0.24016*%
%ADD32R,0.09685X0.03110*%
%ADD33R,0.13000X0.07874*%
%ADD34R,0.04803X0.02441*%
%ADD35R,0.01870X0.00984*%
%ADD36R,0.00984X0.01870*%
%ADD37R,0.04331X0.04331*%
%ADD38R,0.02559X0.04331*%
%ADD39R,0.02047X0.04331*%
%ADD40R,0.03937X0.01378*%
%ADD41R,0.01378X0.03937*%
%ADD42R,0.02402X0.04902*%
%ADD43R,0.04095X0.07087*%
%ADD44R,0.04331X0.05512*%
%ADD45R,0.02165X0.01181*%
%ADD46R,0.02953X0.01181*%
%ADD47R,0.01181X0.02165*%
%ADD48R,0.01181X0.02953*%
%ADD49R,0.20630X0.20630*%
%ADD50R,0.02079X0.01024*%
%ADD51R,0.01024X0.02079*%
%ADD52R,0.10630X0.10630*%
%ADD53R,0.04134X0.01772*%
%ADD54R,0.11575X0.14094*%
%ADD55R,0.06890X0.06890*%
%ADD56O,0.02362X0.01181*%
%ADD57R,0.10000X0.14000*%
%ADD58R,0.02441X0.04803*%
%ADD59R,0.10236X0.03937*%
%ADD60R,0.03937X0.10236*%
%ADD61R,0.12992X0.12992*%
%ADD62R,0.07874X0.09843*%
%ADD63R,0.07874X0.07874*%
%ADD64R,0.02756X0.02165*%
%ADD65R,0.10433X0.03150*%
%ADD66R,0.02165X0.02165*%
%ADD67R,0.02165X0.02756*%
%ADD68R,0.03150X0.10433*%
%ADD69R,0.02165X0.02165*%
%ADD70R,0.02756X0.01181*%
%ADD71R,0.02200X0.01575*%
%ADD72R,0.01575X0.02200*%
G04:AMPARAMS|DCode=73|XSize=22mil|YSize=15.75mil|CornerRadius=0mil|HoleSize=0mil|Usage=FLASHONLY|Rotation=83.000|XOffset=0mil|YOffset=0mil|HoleType=Round|Shape=Rectangle|*
%AMROTATEDRECTD73*
4,1,4,0.00648,-0.01188,-0.00916,-0.00996,-0.00648,0.01188,0.00916,0.00996,0.00648,-0.01188,0.0*
%
%ADD73ROTATEDRECTD73*%

G04:AMPARAMS|DCode=74|XSize=22mil|YSize=15.75mil|CornerRadius=0mil|HoleSize=0mil|Usage=FLASHONLY|Rotation=97.000|XOffset=0mil|YOffset=0mil|HoleType=Round|Shape=Rectangle|*
%AMROTATEDRECTD74*
4,1,4,0.00916,-0.00996,-0.00648,-0.01188,-0.00916,0.00996,0.00648,0.01188,0.00916,-0.00996,0.0*
%
%ADD74ROTATEDRECTD74*%

%ADD75R,0.01969X0.03543*%
%ADD76R,0.03543X0.01969*%
%ADD77R,0.01969X0.03347*%
%ADD78R,0.03347X0.01969*%
%ADD79R,0.06496X0.06496*%
%ADD80R,0.05906X0.05906*%
%ADD81R,0.05906X0.05906*%
%ADD82R,0.07874X0.31496*%
%ADD83C,0.01400*%
%ADD84C,0.01000*%
%ADD85C,0.07000*%
%ADD86C,0.02400*%
%ADD87C,0.01575*%
%ADD88C,0.01100*%
%ADD89C,0.07874*%
%ADD90C,0.02362*%
%ADD91C,0.09000*%
%ADD92C,0.02000*%
%ADD93C,0.02047*%
%ADD94C,0.01600*%
%ADD95C,0.01969*%
%ADD96C,0.01200*%
%ADD97C,0.05000*%
%ADD98C,0.03500*%
%ADD99C,0.02200*%
%ADD100C,0.00984*%
%ADD101R,0.12835X0.09900*%
%ADD102R,0.11900X0.24400*%
%ADD103R,0.10700X0.08011*%
%ADD104R,0.10800X0.14300*%
%ADD105R,0.14525X0.03200*%
%ADD106R,0.18522X0.03500*%
%ADD107R,0.00433X0.01700*%
%ADD108R,0.10800X0.20947*%
%ADD109R,0.12402X0.23701*%
%ADD110R,0.09900X0.12520*%
%ADD111R,0.13976X0.55984*%
%ADD112R,0.35039X0.34961*%
%ADD113C,0.06299*%
%ADD114R,0.06299X0.06299*%
%ADD115R,0.03937X0.03937*%
%ADD116C,0.03937*%
%ADD117R,0.03937X0.03937*%
%ADD118C,0.01400*%
%ADD119C,0.01200*%
%ADD120C,0.01800*%
%ADD121C,0.02000*%
%ADD122C,0.04000*%
%ADD123C,0.01969*%
%ADD124C,0.02598*%
%ADD125C,0.00787*%
%ADD126C,0.01000*%
%ADD127C,0.02500*%
%ADD128C,0.02362*%
%ADD129C,0.14961*%
%ADD130C,0.03000*%
%ADD131R,0.11900X0.14889*%
%ADD132C,0.06000*%
%ADD133R,0.01200X0.02200*%
%ADD134R,0.09843X0.05906*%
%ADD135R,0.05906X0.09843*%
%ADD136R,0.04921X0.01575*%
%ADD137R,0.04921X0.01575*%
%ADD138R,0.08661X0.05512*%
%ADD139R,0.26772X0.26772*%
%ADD140R,0.01378X0.03150*%
%ADD141R,0.03150X0.01378*%
%ADD142R,0.03543X0.01575*%
%ADD143R,0.01969X0.01969*%
%ADD144R,0.05118X0.03347*%
%ADD145C,0.00900*%
%ADD146C,0.02500*%
%ADD147R,0.01850X0.03340*%
%ADD148R,0.05908X0.03435*%
%ADD149R,0.09900X0.13110*%
%ADD150C,0.00394*%
%ADD151C,0.00827*%
%ADD152C,0.00800*%
%ADD153C,0.00787*%
%ADD154C,0.00315*%
%ADD155C,0.00591*%
%ADD156C,0.00787*%
%ADD157C,0.00394*%
%ADD158C,0.00400*%
%ADD159C,0.01378*%
%ADD160C,0.00600*%
%ADD161R,0.01181X0.02165*%
%ADD162R,0.01771X0.02165*%
%ADD163R,0.02165X0.01181*%
%ADD164R,0.02165X0.01771*%
%ADD165R,0.11221X0.13307*%
%ADD166R,0.11102X0.13661*%
%ADD167R,0.10827X0.12214*%
%ADD168R,0.12214X0.10827*%
%ADD169R,0.14902X0.56988*%
%ADD170R,0.35945X0.35886*%
%ADD171R,0.02769X0.02769*%
%ADD172C,0.07611*%
%ADD173R,0.04882X0.03110*%
%ADD174R,0.04882X0.02751*%
%ADD175R,0.02913X0.05276*%
%ADD176R,0.02433X0.01575*%
%ADD177R,0.07690X0.06509*%
%ADD178R,0.06509X0.07690*%
%ADD179R,0.21666X0.08674*%
%ADD180R,0.09658X0.09265*%
%ADD181R,0.03279X0.03879*%
%ADD182R,0.03268X0.01575*%
%ADD183R,0.01575X0.03268*%
%ADD184R,0.01575X0.03661*%
%ADD185R,0.03661X0.01575*%
%ADD186R,0.09764X0.03189*%
%ADD187R,0.05354X0.02992*%
%ADD188R,0.02185X0.01299*%
%ADD189R,0.01299X0.02185*%
%ADD190R,0.04646X0.04646*%
%ADD191R,0.03110X0.04882*%
%ADD192R,0.02598X0.04882*%
%ADD193R,0.04331X0.01772*%
%ADD194R,0.01772X0.04331*%
%ADD195R,0.03202X0.05702*%
%ADD196R,0.04895X0.07887*%
%ADD197R,0.05131X0.06312*%
%ADD198R,0.02559X0.01575*%
%ADD199R,0.03347X0.01575*%
%ADD200R,0.01575X0.02559*%
%ADD201R,0.01575X0.03347*%
%ADD202R,0.21181X0.21181*%
%ADD203R,0.02630X0.01575*%
%ADD204R,0.01575X0.02630*%
%ADD205R,0.11181X0.11181*%
%ADD206R,0.04685X0.02323*%
%ADD207R,0.11811X0.14331*%
%ADD208R,0.07284X0.07284*%
%ADD209O,0.02756X0.01575*%
%ADD210R,0.11430X0.11430*%
%ADD211R,0.02992X0.05354*%
%ADD212R,0.11036X0.04737*%
%ADD213R,0.04737X0.11036*%
%ADD214R,0.13792X0.13792*%
%ADD215R,0.08674X0.10642*%
%ADD216R,0.08674X0.08674*%
%ADD217R,0.03156X0.02565*%
%ADD218R,0.10835X0.03551*%
%ADD219R,0.02565X0.02565*%
%ADD220R,0.02565X0.03156*%
%ADD221R,0.03551X0.10835*%
%ADD222R,0.02565X0.02565*%
%ADD223R,0.03556X0.01981*%
%ADD224R,0.07296X0.07296*%
%ADD225R,0.06706X0.06706*%
%ADD226R,0.06706X0.06706*%
%ADD227R,0.08674X0.32296*%
%ADD228C,0.04737*%
%ADD229R,0.04737X0.04737*%
%ADD230R,0.04737X0.04737*%
%ADD231C,0.03398*%
%ADD232C,0.04800*%
%ADD233C,0.15761*%
%ADD234R,0.17600X0.17600*%
%ADD235R,0.10642X0.06706*%
%ADD236R,0.06706X0.10642*%
%ADD237R,0.05721X0.02375*%
%ADD238R,0.05721X0.02375*%
%ADD239R,0.27165X0.27165*%
%ADD240R,0.01772X0.03543*%
%ADD241R,0.03543X0.01772*%
%ADD242R,0.05918X0.04147*%
%ADD243R,0.03879X0.03279*%
D84*
X393695Y185431D02*
G03*
X382277Y196848I-11417J0D01*
G01*
X11415D02*
G03*
X-3Y185431I0J-11417D01*
G01*
Y11416D02*
G03*
X11415Y-2I11417J0D01*
G01*
X375589Y168698D02*
G03*
X373620Y166729I0J-1969D01*
G01*
Y139662D02*
G03*
X375687Y137595I2067J0D01*
G01*
X386809Y29072D02*
G03*
X388876Y27005I2067J0D01*
G01*
X391632Y113419D02*
G03*
X393699Y115486I0J2067D01*
G01*
X359545Y113422D02*
G03*
X357478Y111355I0J-2067D01*
G01*
X357474Y90292D02*
G03*
X359541Y88225I2067J0D01*
G01*
X393699Y86158D02*
G03*
X391632Y88225I-2067J0D01*
G01*
X391632Y71690D02*
G03*
X393699Y73757I0J2067D01*
G01*
X388876Y71674D02*
G03*
X386809Y69607I0J-2067D01*
G01*
X382277Y-2D02*
G03*
X393695Y11416I0J11417D01*
G01*
X393691Y25436D02*
G03*
X392123Y27004I-1568J0D01*
G01*
X393699Y168698D02*
Y185431D01*
X357478Y90278D02*
Y111355D01*
X-3Y11416D02*
Y185431D01*
X11415Y196848D02*
X382282D01*
X11415Y-2D02*
X382282D01*
X359541Y88225D02*
X391632D01*
X373620Y140056D02*
Y167123D01*
X375589Y168698D02*
X393699D01*
X373620Y139662D02*
Y166729D01*
X375687Y137595D02*
X393699D01*
X359545Y113422D02*
X391730D01*
X393699Y115436D02*
Y137595D01*
X388876Y71690D02*
X391632D01*
X388679Y27005D02*
X392123D01*
X386809Y29072D02*
Y69682D01*
X393699Y73757D02*
Y86158D01*
X393699Y11416D02*
Y25436D01*
M02*
