%FSLAX25Y25*%
%MOIN*%
G70*
G01*
G75*
G04 Layer_Physical_Order=6*
G04 Layer_Color=16711680*
%ADD10C,0.01102*%
%ADD11R,0.01969X0.01969*%
%ADD12C,0.06811*%
%ADD13R,0.02200X0.02200*%
%ADD14R,0.24016X0.12047*%
%ADD15R,0.04331X0.02559*%
%ADD16R,0.04331X0.02200*%
%ADD17R,0.02362X0.04724*%
%ADD18R,0.01882X0.01024*%
%ADD19R,0.06890X0.05709*%
%ADD20R,0.05709X0.06890*%
%ADD21R,0.20866X0.07874*%
%ADD22R,0.08858X0.08465*%
%ADD23R,0.03200X0.03800*%
%ADD24R,0.06000X0.12000*%
%ADD25R,0.18000X0.10000*%
%ADD26R,0.03800X0.03200*%
%ADD27R,0.02874X0.01181*%
%ADD28R,0.01181X0.02874*%
%ADD29R,0.01181X0.03268*%
%ADD30R,0.03268X0.01181*%
%ADD31R,0.12047X0.24016*%
%ADD32R,0.09685X0.03110*%
%ADD33R,0.13000X0.07874*%
%ADD34R,0.04803X0.02441*%
%ADD35R,0.01870X0.00984*%
%ADD36R,0.00984X0.01870*%
%ADD37R,0.04331X0.04331*%
%ADD38R,0.02559X0.04331*%
%ADD39R,0.02047X0.04331*%
%ADD40R,0.03937X0.01378*%
%ADD41R,0.01378X0.03937*%
%ADD42R,0.02402X0.04902*%
%ADD43R,0.04095X0.07087*%
%ADD44R,0.04331X0.05512*%
%ADD45R,0.02165X0.01181*%
%ADD46R,0.02953X0.01181*%
%ADD47R,0.01181X0.02165*%
%ADD48R,0.01181X0.02953*%
%ADD49R,0.20630X0.20630*%
%ADD50R,0.02079X0.01024*%
%ADD51R,0.01024X0.02079*%
%ADD52R,0.10630X0.10630*%
%ADD53R,0.04134X0.01772*%
%ADD54R,0.11575X0.14094*%
%ADD55R,0.06890X0.06890*%
%ADD56O,0.02362X0.01181*%
%ADD57R,0.10000X0.14000*%
%ADD58R,0.02441X0.04803*%
%ADD59R,0.10236X0.03937*%
%ADD60R,0.03937X0.10236*%
%ADD61R,0.12992X0.12992*%
%ADD62R,0.07874X0.09843*%
%ADD63R,0.07874X0.07874*%
%ADD64R,0.02756X0.02165*%
%ADD65R,0.10433X0.03150*%
%ADD66R,0.02165X0.02165*%
%ADD67R,0.02165X0.02756*%
%ADD68R,0.03150X0.10433*%
%ADD69R,0.02165X0.02165*%
%ADD70R,0.02756X0.01181*%
%ADD71R,0.02200X0.01575*%
%ADD72R,0.01575X0.02200*%
G04:AMPARAMS|DCode=73|XSize=22mil|YSize=15.75mil|CornerRadius=0mil|HoleSize=0mil|Usage=FLASHONLY|Rotation=83.000|XOffset=0mil|YOffset=0mil|HoleType=Round|Shape=Rectangle|*
%AMROTATEDRECTD73*
4,1,4,0.00648,-0.01188,-0.00916,-0.00996,-0.00648,0.01188,0.00916,0.00996,0.00648,-0.01188,0.0*
%
%ADD73ROTATEDRECTD73*%

G04:AMPARAMS|DCode=74|XSize=22mil|YSize=15.75mil|CornerRadius=0mil|HoleSize=0mil|Usage=FLASHONLY|Rotation=97.000|XOffset=0mil|YOffset=0mil|HoleType=Round|Shape=Rectangle|*
%AMROTATEDRECTD74*
4,1,4,0.00916,-0.00996,-0.00648,-0.01188,-0.00916,0.00996,0.00648,0.01188,0.00916,-0.00996,0.0*
%
%ADD74ROTATEDRECTD74*%

%ADD75R,0.01969X0.03543*%
%ADD76R,0.03543X0.01969*%
%ADD77R,0.01969X0.03347*%
%ADD78R,0.03347X0.01969*%
%ADD79R,0.06496X0.06496*%
%ADD80R,0.05906X0.05906*%
%ADD81R,0.05906X0.05906*%
%ADD82R,0.07874X0.31496*%
%ADD83C,0.01400*%
%ADD84C,0.01000*%
%ADD85C,0.07000*%
%ADD86C,0.02400*%
%ADD87C,0.01575*%
%ADD88C,0.01100*%
%ADD89C,0.07874*%
%ADD90C,0.02362*%
%ADD91C,0.09000*%
%ADD92C,0.02000*%
%ADD93C,0.02047*%
%ADD94C,0.01600*%
%ADD95C,0.01969*%
%ADD96C,0.01200*%
%ADD97C,0.05000*%
%ADD98C,0.03500*%
%ADD99C,0.02200*%
%ADD100C,0.00984*%
%ADD101R,0.12835X0.09900*%
%ADD102R,0.11900X0.24400*%
%ADD103R,0.10700X0.08011*%
%ADD104R,0.10800X0.14300*%
%ADD105R,0.14525X0.03200*%
%ADD106R,0.18522X0.03500*%
%ADD107R,0.00433X0.01700*%
%ADD108R,0.10800X0.20947*%
%ADD109R,0.12402X0.23701*%
%ADD110R,0.09900X0.12520*%
%ADD111R,0.13976X0.55984*%
%ADD112R,0.35039X0.34961*%
%ADD113C,0.06299*%
%ADD114R,0.06299X0.06299*%
%ADD115R,0.03937X0.03937*%
%ADD116C,0.03937*%
%ADD117R,0.03937X0.03937*%
%ADD118C,0.01400*%
%ADD119C,0.01200*%
%ADD120C,0.01800*%
%ADD121C,0.02000*%
%ADD122C,0.04000*%
%ADD123C,0.01969*%
%ADD124C,0.02598*%
%ADD125C,0.00787*%
%ADD126C,0.01000*%
%ADD127C,0.02500*%
%ADD128C,0.02362*%
%ADD129C,0.14961*%
%ADD130C,0.03000*%
%ADD131R,0.11900X0.14889*%
%ADD132C,0.06000*%
%ADD133R,0.01200X0.02200*%
%ADD134R,0.09843X0.05906*%
%ADD135R,0.05906X0.09843*%
%ADD136R,0.04921X0.01575*%
%ADD137R,0.04921X0.01575*%
%ADD138R,0.08661X0.05512*%
%ADD139R,0.26772X0.26772*%
%ADD140R,0.01378X0.03150*%
%ADD141R,0.03150X0.01378*%
%ADD142R,0.03543X0.01575*%
%ADD143R,0.01969X0.01969*%
%ADD144R,0.05118X0.03347*%
%ADD145C,0.00900*%
%ADD146C,0.02500*%
%ADD147R,0.01850X0.03340*%
%ADD148R,0.05908X0.03435*%
%ADD149R,0.09900X0.13110*%
G36*
X11415Y195496D02*
X382282D01*
X382386Y195539D01*
X389456Y192610D01*
X392388Y185533D01*
X392346Y185431D01*
X392342D01*
X392346Y185421D01*
Y170051D01*
X375589D01*
Y170213D01*
X373126Y169192D01*
X372105Y166729D01*
X372267D01*
X372538Y166076D01*
Y159582D01*
X371868D01*
Y165915D01*
X371476Y166862D01*
X371314Y167254D01*
X368555Y170013D01*
X367216Y170567D01*
X360600D01*
X359716Y171452D01*
Y171939D01*
X358908D01*
X358116Y172267D01*
X348895D01*
X345925Y175237D01*
X344586Y175792D01*
X342971D01*
Y176298D01*
X342716D01*
Y177776D01*
X342924Y177984D01*
X344752D01*
Y179812D01*
X348932Y183992D01*
X351191D01*
Y184840D01*
X351681Y184938D01*
X351833Y184571D01*
X353722Y183789D01*
X355611Y184571D01*
X356394Y186461D01*
X355611Y188350D01*
X353722Y189133D01*
X351833Y188350D01*
X351681Y187984D01*
X351191Y188081D01*
Y188929D01*
X346254D01*
Y186671D01*
X341913Y182331D01*
X338634D01*
Y177984D01*
X338928D01*
Y176298D01*
X338771D01*
Y171498D01*
X342971D01*
Y172003D01*
X343801D01*
X346771Y169034D01*
X348110Y168479D01*
X357331D01*
X358476Y167334D01*
X359816Y166779D01*
X366431D01*
X368080Y165130D01*
Y159582D01*
X367014D01*
Y157007D01*
Y156818D01*
X366916D01*
X366150Y156501D01*
X366150Y156501D01*
X366008Y156359D01*
X356116D01*
X356116Y156359D01*
X355860Y156253D01*
X354516D01*
Y155207D01*
X354468Y155159D01*
X352316D01*
Y158073D01*
X347516D01*
Y155159D01*
X345416D01*
Y157073D01*
X342216D01*
Y155952D01*
X341886Y155732D01*
X341403Y155860D01*
X341334Y155997D01*
Y156039D01*
X336791D01*
Y153464D01*
X340481D01*
X340556Y153426D01*
Y152926D01*
X340481Y152889D01*
X336791D01*
Y150314D01*
X341334D01*
Y150355D01*
X341403Y150493D01*
X341886Y150621D01*
X342216Y150400D01*
Y149273D01*
X345416D01*
Y151194D01*
X347516D01*
Y148373D01*
X352316D01*
Y151194D01*
X354468D01*
X354516Y151146D01*
Y150100D01*
X355860D01*
X356116Y149994D01*
X356116Y149994D01*
X357716D01*
X357716Y149994D01*
X358481Y150311D01*
X360264Y152094D01*
X367014D01*
Y151889D01*
X372538D01*
Y140315D01*
X372267Y139662D01*
X372097D01*
X373149Y137124D01*
X375687Y136072D01*
Y136242D01*
X392346D01*
Y115486D01*
X391664D01*
X391655Y115464D01*
X391632Y115454D01*
Y114775D01*
X359545D01*
Y114945D01*
X357007Y113894D01*
X356396Y112419D01*
X355896D01*
X355339Y113764D01*
X353425Y114556D01*
X351512Y113764D01*
X351254Y113141D01*
X350754D01*
X350496Y113764D01*
X348583Y114556D01*
X346669Y113764D01*
X345877Y111850D01*
X346669Y109937D01*
D01*
Y109937D01*
Y109937D01*
D01*
X346669Y109497D01*
X346669D01*
X345877Y107583D01*
X346669Y105670D01*
D01*
Y105670D01*
Y105670D01*
D01*
X346669Y105230D01*
X346669D01*
X345877Y103317D01*
X346669Y101403D01*
X348583Y100611D01*
X350496Y101403D01*
X350804Y102146D01*
X351304D01*
X351612Y101403D01*
X353525Y100611D01*
X355439Y101403D01*
X355906Y102531D01*
X356396Y102433D01*
Y98086D01*
X356299Y98022D01*
X346399D01*
X346017Y97863D01*
X345858Y97480D01*
Y84370D01*
X346017Y83987D01*
X346399Y83829D01*
X356299D01*
X356682Y83987D01*
X356840Y84370D01*
Y87641D01*
X357256Y87919D01*
X358534Y87389D01*
X358584Y87269D01*
X359541Y86872D01*
X391632D01*
Y86190D01*
X391655Y86181D01*
X391664Y86158D01*
X392346D01*
Y73757D01*
X391664D01*
X391655Y73734D01*
X391632Y73725D01*
Y73043D01*
X388876D01*
Y73197D01*
X386337Y72145D01*
X385286Y69607D01*
X385456D01*
Y66806D01*
X385456D01*
X385408D01*
X385103Y66806D01*
X385103Y66806D01*
Y66806D01*
X371408D01*
Y63451D01*
X355862D01*
X345334Y73979D01*
Y114431D01*
X345334Y114431D01*
X345110Y114972D01*
X345017Y115196D01*
X345017Y115196D01*
X342275Y117939D01*
X341510Y118256D01*
X341510Y118256D01*
X337292D01*
Y118773D01*
X335588D01*
X335396Y119235D01*
X336434Y120273D01*
X337292D01*
Y121430D01*
X337398Y121686D01*
X337398Y121686D01*
Y121873D01*
Y124425D01*
X338570Y125597D01*
X339616D01*
Y128172D01*
X336416D01*
Y126957D01*
X335954Y126766D01*
X335381Y127339D01*
X334616Y127656D01*
X334616Y127656D01*
Y127656D01*
X334390Y128107D01*
Y128173D01*
X332435D01*
X332244Y128635D01*
X333369Y129761D01*
X334399D01*
Y130582D01*
X334721Y131361D01*
Y133861D01*
X336136Y134447D01*
X336928Y136361D01*
X336136Y138274D01*
X334222Y139067D01*
X332309Y138274D01*
X331516Y136361D01*
X332123Y134895D01*
Y132961D01*
X331824D01*
Y131889D01*
X328660Y128725D01*
X323451D01*
X323185Y128615D01*
X321376D01*
Y126237D01*
X321376Y126237D01*
X321376Y125803D01*
X321376D01*
Y123425D01*
X321376Y123425D01*
X321376Y123244D01*
X321376D01*
Y120866D01*
X321376Y120866D01*
X321376Y120685D01*
X321376D01*
Y118307D01*
X321376Y118307D01*
X321376Y118126D01*
X321376D01*
Y115748D01*
X321376Y115748D01*
X321376Y115567D01*
X321376D01*
Y113500D01*
X319309D01*
D01*
D01*
X319309Y113500D01*
X319128D01*
Y113500D01*
X316750D01*
D01*
D01*
X316750Y113500D01*
X316569D01*
Y113500D01*
X314191D01*
D01*
D01*
X314191Y113500D01*
X314010D01*
Y113500D01*
X311632D01*
D01*
D01*
X311632Y113500D01*
X311451D01*
Y113500D01*
X309245D01*
X309245Y113500D01*
Y113500D01*
X309073Y113500D01*
X308982D01*
X308892D01*
X308719Y113500D01*
X308719Y113500D01*
Y113500D01*
X306514D01*
Y111690D01*
X306404Y111425D01*
Y108186D01*
X306784Y107268D01*
X307818Y106235D01*
Y105033D01*
X306709Y104574D01*
X305916Y102661D01*
X306709Y100747D01*
X308622Y99955D01*
X310536Y100747D01*
X311328Y102661D01*
X310715Y104141D01*
Y106473D01*
X310402Y107228D01*
X310594Y107690D01*
X310854Y107798D01*
X312353Y106299D01*
X312162Y105837D01*
X312022D01*
Y103262D01*
X315222D01*
Y105377D01*
X315684Y105568D01*
X316657Y104595D01*
X316657Y104595D01*
X316722Y104568D01*
Y103262D01*
X319922D01*
Y105777D01*
X320384Y105968D01*
X321422Y104930D01*
Y103262D01*
X324622D01*
Y105777D01*
X325084Y105968D01*
X326122Y104930D01*
Y103262D01*
X329322D01*
Y105837D01*
D01*
Y105837D01*
X329363Y105878D01*
X329874D01*
X330822Y104930D01*
Y103262D01*
X334022D01*
Y105677D01*
X334324Y105802D01*
X334740Y105524D01*
Y33908D01*
X328257Y27425D01*
X327940Y26660D01*
X327940Y26660D01*
Y16363D01*
X326229Y15654D01*
X325072Y12861D01*
X326229Y10067D01*
X329022Y8910D01*
X331815Y10067D01*
X332972Y12861D01*
X331815Y15654D01*
X330104Y16363D01*
Y26212D01*
X336587Y32695D01*
X336588Y32695D01*
X336746Y33077D01*
X336905Y33460D01*
X336905Y33460D01*
Y106061D01*
X336905Y106061D01*
X336768Y106391D01*
X337183Y106669D01*
X337940Y105912D01*
Y16363D01*
X336229Y15654D01*
X335072Y12861D01*
X336229Y10067D01*
X339022Y8910D01*
X341815Y10067D01*
X342972Y12861D01*
X341815Y15654D01*
X340105Y16363D01*
Y106361D01*
X340105Y106361D01*
X339946Y106743D01*
X339788Y107126D01*
X339787Y107126D01*
X336502Y110411D01*
X336694Y110873D01*
X337292D01*
Y111298D01*
X337371Y111330D01*
X337815Y112402D01*
X337572Y112986D01*
X337988Y113264D01*
X340840Y110412D01*
Y32763D01*
X340840Y32763D01*
X341157Y31998D01*
X353762Y19392D01*
X353762Y19392D01*
X354528Y19075D01*
X361277D01*
X365372Y14980D01*
Y9211D01*
X372672D01*
Y16510D01*
X366903D01*
X362491Y20923D01*
X361725Y21240D01*
X361725Y21240D01*
X354976D01*
X343004Y33211D01*
Y72566D01*
X343487Y72765D01*
X354648Y61603D01*
X354648Y61603D01*
X355031Y61445D01*
X355414Y61286D01*
X355414Y61286D01*
X371408D01*
Y57932D01*
X377325D01*
Y50671D01*
X376907Y49661D01*
X377351Y48589D01*
X378422Y48145D01*
X379494Y48589D01*
X379937Y49661D01*
X379494Y50732D01*
X379490Y50734D01*
Y56062D01*
X379980Y56160D01*
X380080Y55919D01*
X380922Y55570D01*
X381764Y55919D01*
X382113Y56761D01*
X381800Y57516D01*
X382078Y57932D01*
X385103D01*
X385103Y57932D01*
Y57932D01*
X385408Y57932D01*
X385456Y57883D01*
Y29072D01*
X385286D01*
X386337Y26533D01*
X388876Y25481D01*
Y25652D01*
X391615D01*
Y25652D01*
Y25436D01*
X391665Y25316D01*
X391689Y25257D01*
X391689Y25257D01*
X391689D01*
X391764Y25077D01*
Y25077D01*
D01*
D01*
X391764D01*
X391944Y25002D01*
X391944Y25002D01*
X391944Y25002D01*
X392003Y24978D01*
X392123Y24928D01*
D01*
X392338Y24713D01*
Y11416D01*
X392384Y11304D01*
X389456Y4236D01*
X382386Y1308D01*
X382282Y1351D01*
X11415D01*
X11308Y1307D01*
X4236Y4236D01*
X1306Y11309D01*
X1350Y11416D01*
X1350D01*
X1350Y11416D01*
Y185431D01*
X1350Y185431D01*
X1350D01*
X1306Y185538D01*
X4236Y192610D01*
X11308Y195540D01*
X11415Y195496D01*
D02*
G37*
%LPC*%
G36*
X4254Y113428D02*
X3412Y113079D01*
X3064Y112237D01*
X3412Y111395D01*
X4254Y111047D01*
X5096Y111395D01*
X5445Y112237D01*
X5096Y113079D01*
X4254Y113428D01*
D02*
G37*
G36*
X130433Y114232D02*
X129362Y113788D01*
X128918Y112716D01*
X129362Y111645D01*
X130433Y111201D01*
X131505Y111645D01*
X131948Y112716D01*
X131505Y113788D01*
X130433Y114232D01*
D02*
G37*
G36*
X143622Y115376D02*
X142551Y114932D01*
X142107Y113861D01*
X142551Y112789D01*
X143622Y112345D01*
X144694Y112789D01*
X145137Y113861D01*
X144694Y114932D01*
X143622Y115376D01*
D02*
G37*
G36*
X16417Y112962D02*
X15575Y112614D01*
X15227Y111772D01*
X15575Y110930D01*
X16417Y110581D01*
X17259Y110930D01*
X17608Y111772D01*
X17259Y112614D01*
X16417Y112962D01*
D02*
G37*
G36*
X4254Y103428D02*
X3412Y103079D01*
X3064Y102237D01*
X3412Y101395D01*
X4254Y101047D01*
X5096Y101395D01*
X5445Y102237D01*
X5096Y103079D01*
X4254Y103428D01*
D02*
G37*
G36*
X324022Y10951D02*
X323180Y10603D01*
X322832Y9761D01*
X323180Y8919D01*
X324022Y8570D01*
X324864Y8919D01*
X325213Y9761D01*
X324864Y10603D01*
X324022Y10951D01*
D02*
G37*
G36*
X4254Y108428D02*
X3412Y108079D01*
X3064Y107237D01*
X3412Y106395D01*
X4254Y106047D01*
X5096Y106395D01*
X5445Y107237D01*
X5096Y108079D01*
X4254Y108428D01*
D02*
G37*
G36*
X166024Y105285D02*
X165182Y104936D01*
X164833Y104095D01*
X165182Y103253D01*
X166024Y102904D01*
X166866Y103253D01*
X167214Y104095D01*
X166866Y104936D01*
X166024Y105285D01*
D02*
G37*
G36*
X147620Y115525D02*
X146548Y115082D01*
X146105Y114010D01*
X146548Y112938D01*
X147620Y112495D01*
X148691Y112938D01*
X149135Y114010D01*
X148691Y115082D01*
X147620Y115525D01*
D02*
G37*
G36*
X161378Y121033D02*
X160536Y120684D01*
X160187Y119843D01*
X160536Y119001D01*
X161378Y118652D01*
X162220Y119001D01*
X162569Y119843D01*
X162220Y120684D01*
X161378Y121033D01*
D02*
G37*
G36*
X152756Y120325D02*
X151914Y119976D01*
X151565Y119134D01*
X151914Y118292D01*
X152756Y117943D01*
X153598Y118292D01*
X153946Y119134D01*
X153598Y119976D01*
X152756Y120325D01*
D02*
G37*
G36*
X53222Y8351D02*
X52380Y8003D01*
X52031Y7161D01*
X52380Y6319D01*
X53222Y5970D01*
X54064Y6319D01*
X54413Y7161D01*
X54064Y8003D01*
X53222Y8351D01*
D02*
G37*
G36*
X58222D02*
X57380Y8003D01*
X57032Y7161D01*
X57380Y6319D01*
X58222Y5970D01*
X59064Y6319D01*
X59413Y7161D01*
X59064Y8003D01*
X58222Y8351D01*
D02*
G37*
G36*
X4254Y118428D02*
X3412Y118079D01*
X3064Y117237D01*
X3412Y116395D01*
X4254Y116047D01*
X5096Y116395D01*
X5445Y117237D01*
X5096Y118079D01*
X4254Y118428D01*
D02*
G37*
G36*
X140709Y116033D02*
X139867Y115684D01*
X139518Y114842D01*
X139587Y114677D01*
X139233Y114323D01*
X138950Y114441D01*
X138108Y114092D01*
D01*
Y114092D01*
X137842D01*
Y114092D01*
X137000Y114441D01*
X136158Y114092D01*
X135809Y113250D01*
X136158Y112408D01*
X137000Y112059D01*
X137842Y112408D01*
X137842Y112408D01*
X138108D01*
Y112408D01*
X138950Y112059D01*
X139792Y112408D01*
X140141Y113250D01*
X140072Y113416D01*
X140426Y113769D01*
X140709Y113652D01*
X141551Y114001D01*
X141899Y114842D01*
X141551Y115684D01*
X140709Y116033D01*
D02*
G37*
G36*
X363522Y10551D02*
X362680Y10203D01*
X362332Y9361D01*
X362680Y8519D01*
X363522Y8170D01*
X364364Y8519D01*
X364713Y9361D01*
X364364Y10203D01*
X363522Y10551D01*
D02*
G37*
G36*
X279914Y115773D02*
X277340D01*
Y115256D01*
X272061D01*
X271016Y115689D01*
X269944Y115245D01*
X269501Y114173D01*
X269944Y113102D01*
X271016Y112658D01*
X271799Y112982D01*
X272152Y112629D01*
X272049Y112380D01*
X272398Y111538D01*
X272746Y111394D01*
Y110894D01*
X272144Y110645D01*
X271701Y109573D01*
X272144Y108502D01*
X273216Y108058D01*
X274020Y108391D01*
X277340D01*
Y107873D01*
X279914D01*
Y111073D01*
X277340D01*
Y110556D01*
X274324D01*
X274287Y110645D01*
X273710Y110884D01*
Y111384D01*
X274082Y111538D01*
X274431Y112380D01*
X274308Y112675D01*
X274586Y113091D01*
X277340D01*
Y112573D01*
X279914D01*
Y115773D01*
D02*
G37*
G36*
X63222Y8351D02*
X62380Y8003D01*
X62032Y7161D01*
X62380Y6319D01*
X63222Y5970D01*
X64064Y6319D01*
X64413Y7161D01*
X64064Y8003D01*
X63222Y8351D01*
D02*
G37*
G36*
X255500Y98672D02*
X253611Y97889D01*
X253459Y97523D01*
X252969Y97620D01*
Y98469D01*
X248031D01*
Y93532D01*
X252969D01*
Y94380D01*
X253459Y94477D01*
X253611Y94111D01*
X255500Y93328D01*
X257389Y94111D01*
X258172Y96000D01*
X257389Y97889D01*
X255500Y98672D01*
D02*
G37*
G36*
X4254Y83428D02*
X3412Y83079D01*
X3064Y82237D01*
X3412Y81395D01*
X4254Y81047D01*
X5096Y81395D01*
X5445Y82237D01*
X5096Y83079D01*
X4254Y83428D01*
D02*
G37*
G36*
Y13428D02*
X3412Y13079D01*
X3064Y12237D01*
X3412Y11395D01*
X4254Y11047D01*
X5096Y11395D01*
X5445Y12237D01*
X5096Y13079D01*
X4254Y13428D01*
D02*
G37*
G36*
X263400Y86491D02*
X262558Y86142D01*
X262209Y85300D01*
X262558Y84458D01*
X263400Y84109D01*
X264242Y84458D01*
X264591Y85300D01*
X264242Y86142D01*
X263400Y86491D01*
D02*
G37*
G36*
X162676Y84251D02*
X161834Y83903D01*
X161485Y83061D01*
X161834Y82219D01*
X162676Y81870D01*
X163517Y82219D01*
X163866Y83061D01*
X163517Y83903D01*
X162676Y84251D01*
D02*
G37*
G36*
X61063Y14577D02*
X60221Y14228D01*
X59872Y13386D01*
X60221Y12544D01*
X61063Y12195D01*
X61905Y12544D01*
X62254Y13386D01*
X61905Y14228D01*
X61063Y14577D01*
D02*
G37*
G36*
X4254Y73428D02*
X3412Y73079D01*
X3064Y72237D01*
X3412Y71395D01*
X4254Y71047D01*
X5096Y71395D01*
X5445Y72237D01*
X5096Y73079D01*
X4254Y73428D01*
D02*
G37*
G36*
X258222Y73351D02*
X257380Y73003D01*
X257031Y72161D01*
X257380Y71319D01*
X258222Y70970D01*
X259064Y71319D01*
X259413Y72161D01*
X259064Y73003D01*
X258222Y73351D01*
D02*
G37*
G36*
X4254Y78428D02*
X3412Y78079D01*
X3064Y77237D01*
X3412Y76395D01*
X4254Y76047D01*
X5096Y76395D01*
X5445Y77237D01*
X5096Y78079D01*
X4254Y78428D01*
D02*
G37*
G36*
X265422Y77851D02*
X264580Y77503D01*
X264231Y76661D01*
X264580Y75819D01*
X265422Y75470D01*
X266264Y75819D01*
X266613Y76661D01*
X266264Y77503D01*
X265422Y77851D01*
D02*
G37*
G36*
X359022Y16811D02*
X356229Y15654D01*
X355072Y12861D01*
X356229Y10067D01*
X359022Y8910D01*
X361815Y10067D01*
X362972Y12861D01*
X361815Y15654D01*
X359022Y16811D01*
D02*
G37*
G36*
X261700Y98493D02*
X259787Y97701D01*
X258994Y95787D01*
X259787Y93874D01*
X261700Y93081D01*
X263613Y93874D01*
X264406Y95787D01*
X263613Y97701D01*
X261700Y98493D01*
D02*
G37*
G36*
X4254Y93428D02*
X3412Y93079D01*
X3064Y92237D01*
X3412Y91395D01*
X4254Y91047D01*
X5096Y91395D01*
X5445Y92237D01*
X5096Y93079D01*
X4254Y93428D01*
D02*
G37*
G36*
Y98428D02*
X3412Y98079D01*
X3064Y97237D01*
X3412Y96395D01*
X4254Y96047D01*
X5096Y96395D01*
X5445Y97237D01*
X5096Y98079D01*
X4254Y98428D01*
D02*
G37*
G36*
X333922Y11051D02*
X333080Y10703D01*
X332732Y9861D01*
X333080Y9019D01*
X333922Y8670D01*
X334764Y9019D01*
X335113Y9861D01*
X334764Y10703D01*
X333922Y11051D01*
D02*
G37*
G36*
X262050Y92341D02*
X261208Y91992D01*
X260859Y91150D01*
X261208Y90308D01*
X262050Y89959D01*
X262892Y90308D01*
X263241Y91150D01*
X262892Y91992D01*
X262050Y92341D01*
D02*
G37*
G36*
X4254Y88428D02*
X3412Y88079D01*
X3064Y87237D01*
X3412Y86395D01*
X4254Y86047D01*
X5096Y86395D01*
X5445Y87237D01*
X5096Y88079D01*
X4254Y88428D01*
D02*
G37*
G36*
X319022Y16811D02*
X316229Y15654D01*
X315072Y12861D01*
X316229Y10067D01*
X319022Y8910D01*
X321815Y10067D01*
X322972Y12861D01*
X321815Y15654D01*
X319022Y16811D01*
D02*
G37*
G36*
X255500Y90072D02*
X253611Y89289D01*
X253459Y88923D01*
X252969Y89020D01*
Y89868D01*
X248031D01*
Y84931D01*
X252969D01*
Y85780D01*
X253459Y85877D01*
X253611Y85511D01*
X255500Y84728D01*
X257389Y85511D01*
X258172Y87400D01*
X257389Y89289D01*
X255500Y90072D01*
D02*
G37*
G36*
X16417Y89852D02*
X15575Y89503D01*
X15227Y88661D01*
X15575Y87819D01*
X16417Y87471D01*
X17259Y87819D01*
X17608Y88661D01*
X17259Y89503D01*
X16417Y89852D01*
D02*
G37*
G36*
Y135679D02*
X15575Y135330D01*
X15227Y134488D01*
X15575Y133646D01*
X16417Y133298D01*
X17259Y133646D01*
X17608Y134488D01*
X17259Y135330D01*
X16417Y135679D01*
D02*
G37*
G36*
X4254Y133428D02*
X3412Y133079D01*
X3064Y132237D01*
X3412Y131395D01*
X4254Y131047D01*
X5096Y131395D01*
X5445Y132237D01*
X5096Y133079D01*
X4254Y133428D01*
D02*
G37*
G36*
X136266Y137687D02*
X135424Y137338D01*
X135075Y136496D01*
X135424Y135654D01*
X136266Y135305D01*
X137108Y135654D01*
X137457Y136496D01*
X137108Y137338D01*
X136266Y137687D01*
D02*
G37*
G36*
X133031Y149143D02*
X132190Y148795D01*
X131841Y147953D01*
X132190Y147111D01*
X133011Y146771D01*
Y146271D01*
X132190Y145931D01*
X131841Y145089D01*
X132190Y144247D01*
X133011Y143906D01*
Y143406D01*
X132190Y143066D01*
X131841Y142224D01*
X132190Y141383D01*
X133011Y141042D01*
Y140542D01*
X132190Y140202D01*
X131841Y139360D01*
X132190Y138518D01*
X133011Y138178D01*
Y137678D01*
X132190Y137338D01*
X131841Y136496D01*
X132190Y135654D01*
X133031Y135305D01*
X133873Y135654D01*
X134222Y136496D01*
X133873Y137338D01*
X133052Y137678D01*
Y138178D01*
X133873Y138518D01*
X134222Y139360D01*
X133873Y140202D01*
X133052Y140542D01*
Y141042D01*
X133873Y141383D01*
X134222Y142224D01*
X133873Y143066D01*
X133052Y143406D01*
Y143906D01*
X133873Y144247D01*
X134222Y145089D01*
X133873Y145931D01*
X133052Y146271D01*
Y146771D01*
X133873Y147111D01*
X134222Y147953D01*
X133873Y148795D01*
X133031Y149143D01*
D02*
G37*
G36*
X340622Y136076D02*
X339551Y135632D01*
X339118Y134587D01*
X337250Y132720D01*
X336933Y131955D01*
X336933Y131955D01*
X336933D01*
X336524Y131750D01*
X336416D01*
Y129175D01*
X339616D01*
Y131750D01*
X339616Y131750D01*
X339616D01*
X339536Y131944D01*
X340648Y133056D01*
X341694Y133489D01*
X342137Y134561D01*
X341694Y135632D01*
X340622Y136076D01*
D02*
G37*
G36*
X23222Y8351D02*
X22380Y8003D01*
X22031Y7161D01*
X22380Y6319D01*
X23222Y5970D01*
X24064Y6319D01*
X24413Y7161D01*
X24064Y8003D01*
X23222Y8351D01*
D02*
G37*
G36*
X168168Y129773D02*
X167326Y129425D01*
X166977Y128583D01*
X167326Y127741D01*
X168168Y127392D01*
X169010Y127741D01*
X169358Y128583D01*
X169010Y129425D01*
X168168Y129773D01*
D02*
G37*
G36*
X151210D02*
X150368Y129425D01*
X150095Y128763D01*
X149596D01*
Y128763D01*
X149595D01*
X149322Y129422D01*
X148480Y129771D01*
X147638Y129422D01*
X147289Y128580D01*
X147638Y127738D01*
X148480Y127389D01*
X149322Y127738D01*
X149596Y128399D01*
X150095D01*
Y128399D01*
X150096D01*
X150368Y127741D01*
X151210Y127392D01*
X152052Y127741D01*
X152401Y128583D01*
X152052Y129425D01*
X151210Y129773D01*
D02*
G37*
G36*
X18222Y8351D02*
X17380Y8003D01*
X17031Y7161D01*
X17380Y6319D01*
X18222Y5970D01*
X19064Y6319D01*
X19413Y7161D01*
X19064Y8003D01*
X18222Y8351D01*
D02*
G37*
G36*
X139500Y137687D02*
X138658Y137338D01*
X138310Y136496D01*
X138658Y135654D01*
X139500Y135305D01*
X140342Y135654D01*
X140691Y136496D01*
X140342Y137338D01*
X139500Y137687D01*
D02*
G37*
G36*
X162131D02*
X161289Y137338D01*
X160941Y136496D01*
X161289Y135654D01*
X162131Y135305D01*
X162973Y135654D01*
X163322Y136496D01*
X162973Y137338D01*
X162131Y137687D01*
D02*
G37*
G36*
X158907D02*
X158065Y137338D01*
X157716Y136496D01*
X158065Y135654D01*
X158907Y135305D01*
X159749Y135654D01*
X160097Y136496D01*
X159749Y137338D01*
X158907Y137687D01*
D02*
G37*
G36*
X4254Y138428D02*
X3412Y138079D01*
X3064Y137237D01*
X3412Y136395D01*
X4254Y136047D01*
X5096Y136395D01*
X5445Y137237D01*
X5096Y138079D01*
X4254Y138428D01*
D02*
G37*
G36*
X165375Y137687D02*
X164534Y137338D01*
X164185Y136496D01*
X164534Y135654D01*
X165375Y135305D01*
X166217Y135654D01*
X166566Y136496D01*
X166217Y137338D01*
X165375Y137687D01*
D02*
G37*
G36*
X155672D02*
X154830Y137338D01*
X154482Y136496D01*
X154830Y135654D01*
X155672Y135305D01*
X156514Y135654D01*
X156863Y136496D01*
X156514Y137338D01*
X155672Y137687D01*
D02*
G37*
G36*
X145969D02*
X145127Y137338D01*
X144779Y136496D01*
X145127Y135654D01*
X145969Y135305D01*
X146811Y135654D01*
X147160Y136496D01*
X146811Y137338D01*
X145969Y137687D01*
D02*
G37*
G36*
X142735D02*
X141893Y137338D01*
X141544Y136496D01*
X141893Y135654D01*
X142735Y135305D01*
X143577Y135654D01*
X143925Y136496D01*
X143577Y137338D01*
X142735Y137687D01*
D02*
G37*
G36*
X152438D02*
X151596Y137338D01*
X151247Y136496D01*
X151596Y135654D01*
X152438Y135305D01*
X153280Y135654D01*
X153629Y136496D01*
X153280Y137338D01*
X152438Y137687D01*
D02*
G37*
G36*
X149204D02*
X148362Y137338D01*
X148013Y136496D01*
X148362Y135654D01*
X149204Y135305D01*
X150045Y135654D01*
X150394Y136496D01*
X150045Y137338D01*
X149204Y137687D01*
D02*
G37*
G36*
X28222Y8351D02*
X27380Y8003D01*
X27031Y7161D01*
X27380Y6319D01*
X28222Y5970D01*
X29064Y6319D01*
X29413Y7161D01*
X29064Y8003D01*
X28222Y8351D01*
D02*
G37*
G36*
X145922Y125255D02*
X144583Y124700D01*
X144028Y123361D01*
X144583Y122021D01*
X145922Y121467D01*
X147262Y122021D01*
X147816Y123361D01*
X147262Y124700D01*
X145922Y125255D01*
D02*
G37*
G36*
X238522Y125776D02*
X237451Y125332D01*
X237007Y124261D01*
X237451Y123189D01*
X238522Y122745D01*
X239594Y123189D01*
X240037Y124261D01*
X239594Y125332D01*
X238522Y125776D01*
D02*
G37*
G36*
X135591Y124458D02*
X134749Y124110D01*
X134400Y123268D01*
X134749Y122426D01*
X135591Y122077D01*
X136432Y122426D01*
X136781Y123268D01*
X136432Y124110D01*
X135591Y124458D01*
D02*
G37*
G36*
X156535Y123828D02*
X155693Y123480D01*
X155345Y122638D01*
X155693Y121796D01*
X156535Y121447D01*
X157377Y121796D01*
X157726Y122638D01*
X157377Y123480D01*
X156535Y123828D01*
D02*
G37*
G36*
X43222Y8351D02*
X42380Y8003D01*
X42031Y7161D01*
X42380Y6319D01*
X43222Y5970D01*
X44064Y6319D01*
X44413Y7161D01*
X44064Y8003D01*
X43222Y8351D01*
D02*
G37*
G36*
X48222D02*
X47380Y8003D01*
X47032Y7161D01*
X47380Y6319D01*
X48222Y5970D01*
X49064Y6319D01*
X49413Y7161D01*
X49064Y8003D01*
X48222Y8351D01*
D02*
G37*
G36*
X4254Y123428D02*
X3412Y123079D01*
X3064Y122237D01*
X3412Y121395D01*
X4254Y121047D01*
X5096Y121395D01*
X5445Y122237D01*
X5096Y123079D01*
X4254Y123428D01*
D02*
G37*
G36*
X33222Y8351D02*
X32380Y8003D01*
X32032Y7161D01*
X32380Y6319D01*
X33222Y5970D01*
X34064Y6319D01*
X34413Y7161D01*
X34064Y8003D01*
X33222Y8351D01*
D02*
G37*
G36*
X16102Y127293D02*
X15260Y126944D01*
X14912Y126102D01*
X15260Y125260D01*
X16102Y124912D01*
X16944Y125260D01*
X17293Y126102D01*
X16944Y126944D01*
X16102Y127293D01*
D02*
G37*
G36*
X157801Y129773D02*
X156959Y129425D01*
X156611Y128583D01*
X156959Y127741D01*
X157801Y127392D01*
X158643Y127741D01*
X158992Y128583D01*
X158643Y129425D01*
X157801Y129773D01*
D02*
G37*
G36*
X154346D02*
X153504Y129425D01*
X153155Y128583D01*
X153504Y127741D01*
X154346Y127392D01*
X155188Y127741D01*
X155536Y128583D01*
X155188Y129425D01*
X154346Y129773D01*
D02*
G37*
G36*
X164812D02*
X163970Y129425D01*
X163622Y128583D01*
X163970Y127741D01*
X164812Y127392D01*
X165654Y127741D01*
X166003Y128583D01*
X165654Y129425D01*
X164812Y129773D01*
D02*
G37*
G36*
X161257D02*
X160415Y129425D01*
X160066Y128583D01*
X160415Y127741D01*
X161257Y127392D01*
X162099Y127741D01*
X162447Y128583D01*
X162099Y129425D01*
X161257Y129773D01*
D02*
G37*
G36*
X143879D02*
X143037Y129425D01*
X142689Y128583D01*
X143037Y127741D01*
X143879Y127392D01*
X144721Y127741D01*
X145070Y128583D01*
X144721Y129425D01*
X143879Y129773D01*
D02*
G37*
G36*
X133613D02*
X132771Y129425D01*
X132422Y128583D01*
X132771Y127741D01*
X133613Y127392D01*
X134455Y127741D01*
X134804Y128583D01*
X134455Y129425D01*
X133613Y129773D01*
D02*
G37*
G36*
X4254Y128428D02*
X3412Y128079D01*
X3064Y127237D01*
X3412Y126395D01*
X4254Y126047D01*
X5096Y126395D01*
X5445Y127237D01*
X5096Y128079D01*
X4254Y128428D01*
D02*
G37*
G36*
X140524Y129773D02*
X139682Y129425D01*
X139333Y128583D01*
X139682Y127741D01*
X140524Y127392D01*
X141366Y127741D01*
X141715Y128583D01*
X141366Y129425D01*
X140524Y129773D01*
D02*
G37*
G36*
X137068D02*
X136226Y129425D01*
X135878Y128583D01*
X136226Y127741D01*
X137068Y127392D01*
X137910Y127741D01*
X138259Y128583D01*
X137910Y129425D01*
X137068Y129773D01*
D02*
G37*
G36*
X16933Y21838D02*
X16091Y21490D01*
X15743Y20648D01*
X16091Y19806D01*
X16933Y19457D01*
X17775Y19806D01*
X18124Y20648D01*
X17775Y21490D01*
X16933Y21838D01*
D02*
G37*
G36*
X60551Y39351D02*
X59709Y39003D01*
X59361Y38161D01*
X59709Y37319D01*
X60551Y36970D01*
X61393Y37319D01*
X61742Y38161D01*
X61393Y39003D01*
X60551Y39351D01*
D02*
G37*
G36*
X368189Y41072D02*
X367347Y40724D01*
X366998Y39882D01*
X367347Y39040D01*
X368189Y38691D01*
X369031Y39040D01*
X369380Y39882D01*
X369031Y40724D01*
X368189Y41072D01*
D02*
G37*
G36*
X373780Y21821D02*
X372938Y21472D01*
X372589Y20630D01*
X372938Y19788D01*
X373780Y19439D01*
X374621Y19788D01*
X374970Y20630D01*
X374621Y21472D01*
X373780Y21821D01*
D02*
G37*
G36*
X52677Y38470D02*
X51835Y38121D01*
X51486Y37279D01*
X51835Y36438D01*
X52677Y36089D01*
X53519Y36438D01*
X53868Y37279D01*
X53519Y38121D01*
X52677Y38470D01*
D02*
G37*
G36*
X60551Y36351D02*
X59709Y36003D01*
X59361Y35161D01*
X59709Y34319D01*
X60551Y33970D01*
X61393Y34319D01*
X61393D01*
D01*
X61723D01*
X61756Y34237D01*
X62598Y33888D01*
X63440Y34237D01*
X63789Y35079D01*
X63440Y35921D01*
X62598Y36269D01*
X61757Y35921D01*
X61756D01*
D01*
X61427D01*
X61393Y36003D01*
X60551Y36351D01*
D02*
G37*
G36*
X40422Y36651D02*
X39580Y36303D01*
X39232Y35461D01*
X39580Y34619D01*
X40422Y34270D01*
X41264Y34619D01*
X41277Y34650D01*
X41777D01*
X42080Y33919D01*
X42922Y33570D01*
X43764Y33919D01*
X44113Y34761D01*
X43764Y35603D01*
X42922Y35951D01*
X42080Y35603D01*
X42067Y35571D01*
X41567D01*
X41264Y36303D01*
X40422Y36651D01*
D02*
G37*
G36*
X4254Y38428D02*
X3412Y38079D01*
X3064Y37237D01*
X3412Y36395D01*
X4254Y36047D01*
X5096Y36395D01*
X5445Y37237D01*
X5096Y38079D01*
X4254Y38428D01*
D02*
G37*
G36*
X35722Y36951D02*
X34880Y36603D01*
X34532Y35761D01*
X34880Y34919D01*
X35722Y34570D01*
X36564Y34919D01*
X36913Y35761D01*
X36564Y36603D01*
X35722Y36951D01*
D02*
G37*
G36*
X52677Y42919D02*
X51835Y42570D01*
X51486Y41728D01*
X51835Y40886D01*
X52677Y40537D01*
X53519Y40886D01*
X53868Y41728D01*
X53519Y42570D01*
X52677Y42919D01*
D02*
G37*
G36*
X263222Y48351D02*
X262380Y48003D01*
X262032Y47161D01*
X262380Y46319D01*
X263222Y45970D01*
X264064Y46319D01*
X264413Y47161D01*
X264064Y48003D01*
X263222Y48351D01*
D02*
G37*
G36*
X33522D02*
X32680Y48003D01*
X32331Y47161D01*
X32680Y46319D01*
X33522Y45970D01*
X34364Y46319D01*
X34713Y47161D01*
X34364Y48003D01*
X33522Y48351D01*
D02*
G37*
G36*
X52677Y49816D02*
X51835Y49467D01*
X51486Y48625D01*
X51835Y47783D01*
X52677Y47434D01*
X53519Y47783D01*
X53868Y48625D01*
X53519Y49467D01*
X52677Y49816D01*
D02*
G37*
G36*
X4254Y48428D02*
X3412Y48079D01*
X3064Y47237D01*
X3412Y46395D01*
X4254Y46047D01*
X5096Y46395D01*
X5445Y47237D01*
X5096Y48079D01*
X4254Y48428D01*
D02*
G37*
G36*
X60551Y47096D02*
X59709Y46747D01*
X59361Y45906D01*
X59709Y45064D01*
X60551Y44715D01*
X61393Y45064D01*
X61742Y45906D01*
X61393Y46747D01*
X60551Y47096D01*
D02*
G37*
G36*
X4254Y43428D02*
X3412Y43079D01*
X3064Y42237D01*
X3412Y41395D01*
X4254Y41047D01*
X5096Y41395D01*
X5445Y42237D01*
X5096Y43079D01*
X4254Y43428D01*
D02*
G37*
G36*
X10748Y43041D02*
X9906Y42692D01*
X9557Y41850D01*
X9906Y41008D01*
X10748Y40660D01*
X11590Y41008D01*
X11939Y41850D01*
X11590Y42692D01*
X10748Y43041D01*
D02*
G37*
G36*
X52677Y46067D02*
X51835Y45719D01*
X51486Y44877D01*
X51835Y44035D01*
X52677Y43686D01*
X53519Y44035D01*
X53868Y44877D01*
X53519Y45719D01*
X52677Y46067D01*
D02*
G37*
G36*
X23425Y44419D02*
X22583Y44070D01*
X22235Y43228D01*
X22583Y42386D01*
X23425Y42038D01*
X24267Y42386D01*
X24616Y43228D01*
X24267Y44070D01*
X23425Y44419D01*
D02*
G37*
G36*
X4254Y23428D02*
X3412Y23079D01*
X3064Y22237D01*
X3412Y21395D01*
X4254Y21047D01*
X5096Y21395D01*
X5445Y22237D01*
X5096Y23079D01*
X4254Y23428D01*
D02*
G37*
G36*
Y28428D02*
X3412Y28079D01*
X3064Y27237D01*
X3412Y26395D01*
X4254Y26047D01*
X5096Y26395D01*
X5445Y27237D01*
X5096Y28079D01*
X4254Y28428D01*
D02*
G37*
G36*
X60551Y30391D02*
X59709Y30042D01*
X59361Y29200D01*
X59709Y28358D01*
X60551Y28009D01*
X61393Y28358D01*
X61742Y29200D01*
X61393Y30042D01*
X60551Y30391D01*
D02*
G37*
G36*
X25901Y30700D02*
X25060Y30351D01*
X24711Y29510D01*
X25060Y28668D01*
X25901Y28319D01*
X26743Y28668D01*
X26757Y28700D01*
X27257D01*
X27426Y28292D01*
X28268Y27943D01*
X29110Y28292D01*
X29458Y29134D01*
X29110Y29976D01*
X28268Y30325D01*
X27426Y29976D01*
X27412Y29943D01*
X26912D01*
X26743Y30351D01*
X25901Y30700D01*
D02*
G37*
G36*
X357422Y41287D02*
X351314Y38758D01*
X348784Y32650D01*
X351314Y26542D01*
X357422Y24012D01*
X363530Y26542D01*
X366060Y32650D01*
X363530Y38758D01*
X357422Y41287D01*
D02*
G37*
G36*
X53722Y22411D02*
X52880Y22062D01*
X52550Y21266D01*
X52050D01*
X51721Y22062D01*
X50879Y22411D01*
X50037Y22062D01*
X49707Y21266D01*
X49207D01*
X48877Y22062D01*
X48035Y22411D01*
X47194Y22062D01*
X46864Y21266D01*
X46364D01*
X46034Y22062D01*
X45192Y22411D01*
X44350Y22062D01*
X44021Y21266D01*
X43521D01*
X43191Y22062D01*
X42349Y22411D01*
X41507Y22062D01*
X41177Y21266D01*
X40677D01*
X40347Y22062D01*
X39505Y22411D01*
X38664Y22062D01*
X38334Y21266D01*
X37834D01*
X37504Y22062D01*
X36662Y22411D01*
X35820Y22062D01*
X35472Y21220D01*
X35820Y20379D01*
X36662Y20030D01*
X37504Y20379D01*
X37834Y21175D01*
X38334D01*
X38664Y20379D01*
X39505Y20030D01*
X40347Y20379D01*
X40677Y21175D01*
X41177D01*
X41507Y20379D01*
X42349Y20030D01*
X43191Y20379D01*
X43521Y21175D01*
X44021D01*
X44350Y20379D01*
X45192Y20030D01*
X46034Y20379D01*
X46364Y21175D01*
X46864D01*
X47194Y20379D01*
X48035Y20030D01*
X48877Y20379D01*
X49207Y21175D01*
X49707D01*
X50037Y20379D01*
X50879Y20030D01*
X51721Y20379D01*
X52050Y21175D01*
X52550D01*
X52880Y20379D01*
X53722Y20030D01*
X54564Y20379D01*
X54913Y21220D01*
X54564Y22062D01*
X53722Y22411D01*
D02*
G37*
G36*
X28504D02*
X27662Y22062D01*
X27313Y21220D01*
D01*
X27313D01*
X27184Y21167D01*
X26722Y21358D01*
X26690Y21437D01*
X25848Y21785D01*
X25006Y21437D01*
X24658Y20595D01*
X25006Y19753D01*
X25848Y19404D01*
X26690Y19753D01*
X27039Y20595D01*
D01*
X27039D01*
X27168Y20648D01*
X27630Y20457D01*
X27662Y20379D01*
X28504Y20030D01*
X29346Y20379D01*
X29695Y21220D01*
X29346Y22062D01*
X28504Y22411D01*
D02*
G37*
G36*
X15113Y26307D02*
X14272Y25958D01*
X13923Y25116D01*
X14272Y24274D01*
X15113Y23926D01*
X15955Y24274D01*
X16304Y25116D01*
X15955Y25958D01*
X15113Y26307D01*
D02*
G37*
G36*
X59560Y25891D02*
X58718Y25542D01*
X58369Y24700D01*
X58718Y23858D01*
X59560Y23509D01*
X60402Y23858D01*
X60751Y24700D01*
X60402Y25542D01*
X59560Y25891D01*
D02*
G37*
G36*
X32098Y30403D02*
X31256Y30055D01*
X30907Y29213D01*
X31256Y28371D01*
X32098Y28022D01*
X32940Y28371D01*
X33288Y29213D01*
X32940Y30055D01*
X32098Y30403D01*
D02*
G37*
G36*
X56850Y23002D02*
X56008Y22653D01*
X55660Y21811D01*
X56008Y20969D01*
X56850Y20620D01*
X57692Y20969D01*
X58041Y21811D01*
X57692Y22653D01*
X56850Y23002D01*
D02*
G37*
G36*
X4254Y33428D02*
X3412Y33079D01*
X3064Y32237D01*
X3412Y31395D01*
X4254Y31047D01*
X5096Y31395D01*
X5445Y32237D01*
X5096Y33079D01*
X4254Y33428D01*
D02*
G37*
G36*
X11307Y35851D02*
X10465Y35503D01*
X10116Y34661D01*
X10465Y33819D01*
X11307Y33470D01*
X12149Y33819D01*
X12498Y34661D01*
X12149Y35503D01*
X11307Y35851D01*
D02*
G37*
G36*
X32450Y22490D02*
X31608Y22141D01*
X31259Y21299D01*
X31608Y20457D01*
X32450Y20109D01*
X33292Y20457D01*
X33640Y21299D01*
X33292Y22141D01*
X32450Y22490D01*
D02*
G37*
G36*
X60551Y33351D02*
X59709Y33003D01*
X59361Y32161D01*
X59709Y31319D01*
X60551Y30970D01*
X61393Y31319D01*
X61742Y32161D01*
X61393Y33003D01*
X60551Y33351D01*
D02*
G37*
G36*
X52677Y30325D02*
X51835Y29976D01*
X51563Y29319D01*
X51063D01*
X50791Y29976D01*
X49949Y30325D01*
X49108Y29976D01*
X48836Y29319D01*
X48335D01*
X48063Y29976D01*
X47222Y30325D01*
X46380Y29976D01*
X46108Y29319D01*
X45608D01*
X45336Y29976D01*
X44494Y30325D01*
X43652Y29976D01*
X43380Y29319D01*
X42880D01*
X42608Y29976D01*
X41766Y30325D01*
X40924Y29976D01*
X40652Y29319D01*
X40152D01*
X39880Y29976D01*
X39038Y30325D01*
X38196Y29976D01*
X37924Y29319D01*
X37424D01*
X37152Y29976D01*
X36310Y30325D01*
X35469Y29976D01*
X35120Y29134D01*
X35469Y28292D01*
X36310Y27943D01*
X37152Y28292D01*
X37424Y28949D01*
X37924D01*
X38196Y28292D01*
X39038Y27943D01*
X39880Y28292D01*
X40152Y28949D01*
X40652D01*
X40924Y28292D01*
X41766Y27943D01*
X42608Y28292D01*
X42880Y28949D01*
X43380D01*
X43652Y28292D01*
X44494Y27943D01*
X45336Y28292D01*
X45608Y28949D01*
X46108D01*
X46380Y28292D01*
X47222Y27943D01*
X48063Y28292D01*
X48335Y28949D01*
X48836D01*
X49108Y28292D01*
X49949Y27943D01*
X50791Y28292D01*
X51063Y28949D01*
X51563D01*
X51835Y28292D01*
X52677Y27943D01*
X53519Y28292D01*
X53868Y29134D01*
X53519Y29976D01*
X52677Y30325D01*
D02*
G37*
G36*
X16986Y30753D02*
X16145Y30405D01*
X15796Y29563D01*
X16145Y28721D01*
X16986Y28372D01*
X17828Y28721D01*
X18177Y29563D01*
X17828Y30405D01*
X16986Y30753D01*
D02*
G37*
G36*
X52800Y33161D02*
X51958Y32812D01*
X51609Y31970D01*
X51958Y31128D01*
X52800Y30779D01*
X53642Y31128D01*
X53991Y31970D01*
X53642Y32812D01*
X52800Y33161D01*
D02*
G37*
G36*
X21455Y32573D02*
X20613Y32225D01*
X20264Y31383D01*
X20613Y30541D01*
X21455Y30192D01*
X22297Y30541D01*
X22646Y31383D01*
X22297Y32225D01*
X21455Y32573D01*
D02*
G37*
G36*
X7907Y18351D02*
X7065Y18003D01*
X6717Y17161D01*
X7065Y16319D01*
X7907Y15970D01*
X8749Y16319D01*
X9098Y17161D01*
X8749Y18003D01*
X7907Y18351D01*
D02*
G37*
G36*
X4254Y18428D02*
X3412Y18079D01*
X3064Y17237D01*
X3412Y16395D01*
X4254Y16047D01*
X5096Y16395D01*
X5445Y17237D01*
X5096Y18079D01*
X4254Y18428D01*
D02*
G37*
G36*
X16339Y66899D02*
X15497Y66551D01*
X15148Y65709D01*
X15497Y64867D01*
X16339Y64518D01*
X17180Y64867D01*
X17529Y65709D01*
X17180Y66551D01*
X16339Y66899D01*
D02*
G37*
G36*
X379122Y17351D02*
X378280Y17003D01*
X377931Y16161D01*
X378280Y15319D01*
X379122Y14970D01*
X379964Y15319D01*
X380313Y16161D01*
X379964Y17003D01*
X379122Y17351D01*
D02*
G37*
G36*
X60276Y65246D02*
X59434Y64897D01*
X59085Y64055D01*
X59434Y63213D01*
X59434D01*
X59709Y63003D01*
X59361Y62161D01*
X59709Y61319D01*
X60551Y60970D01*
X61132Y61211D01*
X61486Y60857D01*
X61408Y60669D01*
X61620Y60158D01*
X61560Y60098D01*
X61560Y60098D01*
X61266Y59804D01*
X60551Y60100D01*
X59709Y59751D01*
X59361Y58910D01*
X59709Y58068D01*
X60551Y57719D01*
X61393Y58068D01*
X61742Y58910D01*
X61530Y59421D01*
X61589Y59481D01*
X61589Y59481D01*
X61883Y59775D01*
X62598Y59479D01*
X63440Y59827D01*
X63789Y60669D01*
X63440Y61511D01*
X62598Y61860D01*
X62018Y61619D01*
X61664Y61973D01*
X61742Y62161D01*
X61393Y63003D01*
X61393D01*
X61118Y63213D01*
X61118D01*
X61118D01*
X61466Y64055D01*
X61118Y64897D01*
X60276Y65246D01*
D02*
G37*
G36*
X21380Y19965D02*
X20538Y19617D01*
X20189Y18775D01*
X20538Y17933D01*
X21380Y17584D01*
X22222Y17933D01*
X22570Y18775D01*
X22222Y19617D01*
X21380Y19965D01*
D02*
G37*
G36*
X52677Y64758D02*
X51835Y64410D01*
X51486Y63568D01*
X51835Y62726D01*
X52677Y62377D01*
X53519Y62726D01*
X53868Y63568D01*
X53519Y64410D01*
X52677Y64758D01*
D02*
G37*
G36*
X259222Y65351D02*
X258380Y65003D01*
X258032Y64161D01*
X258380Y63319D01*
X259222Y62970D01*
X260064Y63319D01*
X260413Y64161D01*
X260064Y65003D01*
X259222Y65351D01*
D02*
G37*
G36*
X254222D02*
X253380Y65003D01*
X253031Y64161D01*
X253380Y63319D01*
X254222Y62970D01*
X255064Y63319D01*
X255413Y64161D01*
X255064Y65003D01*
X254222Y65351D01*
D02*
G37*
G36*
X23022Y69275D02*
X21683Y68721D01*
X21128Y67381D01*
X21683Y66042D01*
X23022Y65487D01*
X24362Y66042D01*
X24916Y67381D01*
X24362Y68721D01*
X23022Y69275D01*
D02*
G37*
G36*
X60551Y72509D02*
X59709Y72160D01*
X59361Y71318D01*
X59709Y70476D01*
X60551Y70127D01*
X61242Y70414D01*
X61704Y70223D01*
X61830Y69919D01*
X62672Y69570D01*
X63514Y69919D01*
X63863Y70761D01*
X63514Y71603D01*
X62672Y71951D01*
X61981Y71665D01*
X61519Y71856D01*
X61393Y72160D01*
X60551Y72509D01*
D02*
G37*
G36*
X52677Y71456D02*
X51835Y71107D01*
X51486Y70265D01*
X51835Y69423D01*
X52677Y69074D01*
X53519Y69423D01*
X53868Y70265D01*
X53519Y71107D01*
X52677Y71456D01*
D02*
G37*
G36*
X253222Y73351D02*
X252380Y73003D01*
X252031Y72161D01*
X252380Y71319D01*
X253222Y70970D01*
X254064Y71319D01*
X254413Y72161D01*
X254064Y73003D01*
X253222Y73351D01*
D02*
G37*
G36*
X265422Y72551D02*
X264580Y72203D01*
X264231Y71361D01*
X264580Y70519D01*
X265422Y70170D01*
X266264Y70519D01*
X266613Y71361D01*
X266264Y72203D01*
X265422Y72551D01*
D02*
G37*
G36*
X36422Y15451D02*
X35580Y15103D01*
X35232Y14261D01*
X35580Y13419D01*
X36422Y13070D01*
X37264Y13419D01*
X37613Y14261D01*
X37264Y15103D01*
X36422Y15451D01*
D02*
G37*
G36*
X36496Y68897D02*
X35425Y68453D01*
X34981Y67381D01*
X35425Y66310D01*
X36496Y65866D01*
X37568Y66310D01*
X38011Y67381D01*
X37568Y68453D01*
X36496Y68897D01*
D02*
G37*
G36*
X52677Y68107D02*
X51835Y67758D01*
X51486Y66916D01*
X51835Y66074D01*
X52677Y65726D01*
X53519Y66074D01*
X53868Y66916D01*
X53519Y67758D01*
X52677Y68107D01*
D02*
G37*
G36*
X4254Y68428D02*
X3412Y68079D01*
X3064Y67237D01*
X3412Y66395D01*
X4254Y66047D01*
X5096Y66395D01*
X5445Y67237D01*
X5096Y68079D01*
X4254Y68428D01*
D02*
G37*
G36*
X15522Y15951D02*
X14680Y15603D01*
X14332Y14761D01*
X14680Y13919D01*
X15522Y13570D01*
X16364Y13919D01*
X16713Y14761D01*
X16364Y15603D01*
X15522Y15951D01*
D02*
G37*
G36*
X372913Y55167D02*
X372072Y54818D01*
X371723Y53976D01*
X372072Y53135D01*
X372913Y52786D01*
X373755Y53135D01*
X374104Y53976D01*
X373755Y54818D01*
X372913Y55167D01*
D02*
G37*
G36*
X254095Y55492D02*
X253023Y55048D01*
X252579Y53976D01*
X253023Y52905D01*
X254095Y52461D01*
X255166Y52905D01*
X255610Y53976D01*
X255166Y55048D01*
X254095Y55492D01*
D02*
G37*
G36*
X17244Y56112D02*
X16402Y55763D01*
X16053Y54921D01*
X16402Y54079D01*
X17244Y53731D01*
X18086Y54079D01*
X18435Y54921D01*
X18086Y55763D01*
X17244Y56112D01*
D02*
G37*
G36*
X265222Y56051D02*
X264380Y55703D01*
X264032Y54861D01*
X264380Y54019D01*
X265222Y53670D01*
X266064Y54019D01*
X266413Y54861D01*
X266064Y55703D01*
X265222Y56051D01*
D02*
G37*
G36*
X52677Y54813D02*
X51835Y54464D01*
X51486Y53622D01*
X51835Y52780D01*
X52677Y52432D01*
X53519Y52780D01*
X53868Y53622D01*
X53519Y54464D01*
X52677Y54813D01*
D02*
G37*
G36*
X251322Y51576D02*
X250251Y51132D01*
X249807Y50061D01*
X250251Y48989D01*
X251322Y48545D01*
X252394Y48989D01*
X252837Y50061D01*
X252394Y51132D01*
X251322Y51576D01*
D02*
G37*
G36*
X60551Y50047D02*
X59709Y49698D01*
X59361Y48856D01*
X59709Y48015D01*
X60551Y47666D01*
X61393Y48015D01*
X61742Y48856D01*
X61393Y49698D01*
X60551Y50047D01*
D02*
G37*
G36*
X4254Y53428D02*
X3412Y53079D01*
X3064Y52237D01*
X3412Y51395D01*
X4254Y51047D01*
X5096Y51395D01*
X5445Y52237D01*
X5096Y53079D01*
X4254Y53428D01*
D02*
G37*
G36*
X257522Y51676D02*
X256451Y51232D01*
X256007Y50161D01*
X256451Y49089D01*
X257522Y48645D01*
X258594Y49089D01*
X259037Y50161D01*
X258594Y51232D01*
X257522Y51676D01*
D02*
G37*
G36*
X60551Y56849D02*
X59709Y56501D01*
X59361Y55659D01*
X59709Y54817D01*
X60551Y54468D01*
X61393Y54817D01*
X61742Y55659D01*
X61393Y56501D01*
X60551Y56849D01*
D02*
G37*
G36*
X8222Y63351D02*
X7380Y63003D01*
X7032Y62161D01*
X7380Y61319D01*
X8222Y60970D01*
X9064Y61319D01*
X9413Y62161D01*
X9064Y63003D01*
X8222Y63351D01*
D02*
G37*
G36*
X47756Y63080D02*
X46914Y62732D01*
X46565Y61890D01*
X46914Y61048D01*
X47756Y60699D01*
X48598Y61048D01*
X48946Y61890D01*
X48598Y62732D01*
X47756Y63080D01*
D02*
G37*
G36*
X4254Y63428D02*
X3412Y63079D01*
X3064Y62237D01*
X3412Y61395D01*
X4254Y61047D01*
X5096Y61395D01*
X5445Y62237D01*
X5096Y63079D01*
X4254Y63428D01*
D02*
G37*
G36*
X34528Y63395D02*
X33686Y63047D01*
X33337Y62205D01*
X33686Y61363D01*
X34528Y61014D01*
X35370Y61363D01*
X35718Y62205D01*
X35370Y63047D01*
X34528Y63395D01*
D02*
G37*
G36*
X52677Y61810D02*
X51835Y61461D01*
X51486Y60619D01*
X51835Y59777D01*
X52677Y59429D01*
X53519Y59777D01*
X53868Y60619D01*
X53519Y61461D01*
X52677Y61810D01*
D02*
G37*
G36*
Y58661D02*
X51835Y58313D01*
X51486Y57471D01*
X51835Y56629D01*
X52677Y56280D01*
X53519Y56629D01*
X53868Y57471D01*
X53519Y58313D01*
X52677Y58661D01*
D02*
G37*
G36*
X4254Y58428D02*
X3412Y58079D01*
X3064Y57237D01*
X3412Y56395D01*
X4254Y56047D01*
X5096Y56395D01*
X5445Y57237D01*
X5096Y58079D01*
X4254Y58428D01*
D02*
G37*
G36*
X62750Y21531D02*
X61908Y21182D01*
X61559Y20340D01*
X61908Y19498D01*
X62750Y19149D01*
X63592Y19498D01*
X63941Y20340D01*
X63592Y21182D01*
X62750Y21531D01*
D02*
G37*
G36*
X43222Y59351D02*
X42380Y59003D01*
X42031Y58161D01*
X42380Y57319D01*
X43222Y56970D01*
X44064Y57319D01*
X44413Y58161D01*
X44064Y59003D01*
X43222Y59351D01*
D02*
G37*
G36*
X251484Y139692D02*
X250413Y139248D01*
X249969Y138177D01*
X250413Y137105D01*
X251484Y136661D01*
X252556Y137105D01*
X252999Y138177D01*
X252556Y139248D01*
X251484Y139692D01*
D02*
G37*
G36*
X33222Y177664D02*
X32380Y177316D01*
X32032Y176474D01*
X32380Y175632D01*
X33222Y175283D01*
X34064Y175632D01*
X34413Y176474D01*
X34064Y177316D01*
X33222Y177664D01*
D02*
G37*
G36*
X29460Y177647D02*
X28618Y177299D01*
X28269Y176457D01*
X28618Y175615D01*
X29460Y175266D01*
X30302Y175615D01*
X30651Y176457D01*
X30302Y177299D01*
X29460Y177647D01*
D02*
G37*
G36*
X39467Y177664D02*
X38625Y177316D01*
X38276Y176474D01*
X38625Y175632D01*
X39467Y175283D01*
X40309Y175632D01*
X40657Y176474D01*
X40309Y177316D01*
X39467Y177664D01*
D02*
G37*
G36*
X36345D02*
X35503Y177316D01*
X35154Y176474D01*
X35503Y175632D01*
X36345Y175283D01*
X37186Y175632D01*
X37535Y176474D01*
X37186Y177316D01*
X36345Y177664D01*
D02*
G37*
G36*
X314466Y175576D02*
X313395Y175132D01*
X313216Y174701D01*
X312716D01*
X312538Y175132D01*
X311466Y175576D01*
X310395Y175132D01*
X310216Y174701D01*
X309716D01*
X309538Y175132D01*
X308466Y175576D01*
X307395Y175132D01*
X306951Y174061D01*
X307395Y172989D01*
X308466Y172545D01*
X309538Y172989D01*
X309716Y173420D01*
X310216D01*
X310395Y172989D01*
X311466Y172545D01*
X312538Y172989D01*
X312716Y173420D01*
X313216D01*
X313395Y172989D01*
X314466Y172545D01*
X315538Y172989D01*
X315982Y174061D01*
X315538Y175132D01*
X314466Y175576D01*
D02*
G37*
G36*
X216560Y175234D02*
X215718Y174886D01*
X215370Y174044D01*
X215718Y173202D01*
X216560Y172853D01*
X217402Y173202D01*
X217751Y174044D01*
X217402Y174886D01*
X216560Y175234D01*
D02*
G37*
G36*
X143300Y177972D02*
X141411Y177189D01*
X140628Y175300D01*
X141411Y173411D01*
X143300Y172628D01*
X145189Y173411D01*
X145341Y173777D01*
X145832Y173680D01*
Y172831D01*
X150768D01*
Y177769D01*
X145832D01*
Y176920D01*
X145341Y176823D01*
X145189Y177189D01*
X143300Y177972D01*
D02*
G37*
G36*
X58217Y176754D02*
X57375Y176405D01*
X57026Y175563D01*
X57375Y174721D01*
X58217Y174372D01*
X59058Y174721D01*
X59407Y175563D01*
X59058Y176405D01*
X58217Y176754D01*
D02*
G37*
G36*
X241560Y175234D02*
X240718Y174886D01*
X240370Y174044D01*
X240718Y173202D01*
X241560Y172853D01*
X242402Y173202D01*
X242751Y174044D01*
X242402Y174886D01*
X241560Y175234D01*
D02*
G37*
G36*
X42589Y177664D02*
X41747Y177316D01*
X41399Y176474D01*
X41747Y175632D01*
X42589Y175283D01*
X43431Y175632D01*
X43780Y176474D01*
X43431Y177316D01*
X42589Y177664D01*
D02*
G37*
G36*
X4254Y178428D02*
X3412Y178079D01*
X3064Y177237D01*
X3412Y176395D01*
X4254Y176047D01*
X5096Y176395D01*
X5445Y177237D01*
X5096Y178079D01*
X4254Y178428D01*
D02*
G37*
G36*
X17144Y178155D02*
X16302Y177806D01*
X15953Y176964D01*
X16302Y176122D01*
X17144Y175774D01*
X17986Y176122D01*
X18335Y176964D01*
X17986Y177806D01*
X17144Y178155D01*
D02*
G37*
G36*
X72756Y179695D02*
X71914Y179346D01*
X71565Y178504D01*
X71914Y177662D01*
X72756Y177313D01*
X73598Y177662D01*
X73946Y178504D01*
X73598Y179346D01*
X72756Y179695D01*
D02*
G37*
G36*
X65197Y179498D02*
X64355Y179149D01*
X64006Y178307D01*
X64355Y177465D01*
X65197Y177117D01*
X66039Y177465D01*
X66387Y178307D01*
X66039Y179149D01*
X65197Y179498D01*
D02*
G37*
G36*
X26059Y178102D02*
X25217Y177753D01*
X24868Y176911D01*
X25217Y176069D01*
X26059Y175721D01*
X26901Y176069D01*
X27250Y176911D01*
X26901Y177753D01*
X26059Y178102D01*
D02*
G37*
G36*
X48834Y177664D02*
X47992Y177316D01*
X47643Y176474D01*
X47992Y175632D01*
X48834Y175283D01*
X49676Y175632D01*
X50025Y176474D01*
X49676Y177316D01*
X48834Y177664D01*
D02*
G37*
G36*
X45712D02*
X44870Y177316D01*
X44521Y176474D01*
X44870Y175632D01*
X45712Y175283D01*
X46554Y175632D01*
X46902Y176474D01*
X46554Y177316D01*
X45712Y177664D01*
D02*
G37*
G36*
X55079D02*
X54237Y177316D01*
X53888Y176474D01*
X54237Y175632D01*
X55079Y175283D01*
X55921Y175632D01*
X56269Y176474D01*
X55921Y177316D01*
X55079Y177664D01*
D02*
G37*
G36*
X51956D02*
X51114Y177316D01*
X50766Y176474D01*
X51114Y175632D01*
X51956Y175283D01*
X52798Y175632D01*
X53147Y176474D01*
X52798Y177316D01*
X51956Y177664D01*
D02*
G37*
G36*
X68937Y174104D02*
X68095Y173755D01*
X67746Y172913D01*
X68095Y172072D01*
X68937Y171723D01*
X69779Y172072D01*
X70128Y172913D01*
X69779Y173755D01*
X68937Y174104D01*
D02*
G37*
G36*
X321522Y176867D02*
X319609Y176074D01*
X318816Y174161D01*
X319609Y172247D01*
X321522Y171455D01*
X323435Y172247D01*
X324228Y174161D01*
X323435Y176074D01*
X321522Y176867D01*
D02*
G37*
G36*
X60690Y174437D02*
X59849Y174088D01*
X59500Y173247D01*
X59849Y172405D01*
X60690Y172056D01*
X61532Y172405D01*
X61881Y173247D01*
X61532Y174088D01*
X60690Y174437D01*
D02*
G37*
G36*
X178667Y175070D02*
X177596Y174626D01*
X177152Y173555D01*
X177596Y172483D01*
X178667Y172039D01*
X179739Y172483D01*
X180182Y173555D01*
X179739Y174626D01*
X178667Y175070D01*
D02*
G37*
G36*
X15232Y173709D02*
X14390Y173360D01*
X14041Y172518D01*
X14390Y171676D01*
X15232Y171327D01*
X16073Y171676D01*
X16422Y172518D01*
X16073Y173360D01*
X15232Y173709D01*
D02*
G37*
G36*
X197222Y173351D02*
X196380Y173003D01*
X196031Y172161D01*
X196380Y171319D01*
X197222Y170970D01*
X198064Y171319D01*
X198413Y172161D01*
X198064Y173003D01*
X197222Y173351D01*
D02*
G37*
G36*
X125787Y183208D02*
X124716Y182764D01*
X124283Y181719D01*
X119501Y176937D01*
X118456Y176505D01*
X118012Y175433D01*
X118232Y174903D01*
X118041Y174441D01*
X117325Y174144D01*
X116976Y173302D01*
X117325Y172460D01*
X118167Y172112D01*
X119009Y172460D01*
X119358Y173302D01*
X119227Y173617D01*
X119528Y173918D01*
X119528Y173918D01*
X119528Y173918D01*
X120536Y174335D01*
X120890Y173982D01*
X120789Y173740D01*
X121138Y172898D01*
X121980Y172549D01*
X122484Y172758D01*
X122837Y172405D01*
X122461Y171496D01*
X122792Y170696D01*
X122515Y170280D01*
X62107Y170259D01*
X62017Y170394D01*
X62017Y170394D01*
X62017D01*
X61669Y171236D01*
X60827Y171584D01*
X59985Y171236D01*
X59636Y170394D01*
X59636Y170394D01*
X59636Y170394D01*
X59546Y170259D01*
X18670Y170245D01*
X18482Y170167D01*
X18288Y170086D01*
X18287Y170086D01*
X18287Y170086D01*
X18208Y169894D01*
X18129Y169704D01*
X18129Y169260D01*
X17713Y168982D01*
X17091Y169240D01*
X16249Y168891D01*
X15900Y168049D01*
X16249Y167208D01*
X17091Y166859D01*
X17712Y167116D01*
X18128Y166838D01*
X18121Y148310D01*
X17380Y148003D01*
X17031Y147161D01*
X17380Y146319D01*
X18120Y146012D01*
X18106Y105931D01*
X14719Y104528D01*
X12189Y98421D01*
X14719Y92313D01*
X18101Y90912D01*
X18095Y75590D01*
X18095Y75590D01*
X18095Y75590D01*
X18162Y75428D01*
X18253Y75207D01*
X18254Y75207D01*
X18254Y75207D01*
X18607Y74854D01*
X18607Y74854D01*
X18607Y74853D01*
X18777Y74783D01*
X18990Y74695D01*
X18990Y74695D01*
X18990Y74695D01*
X52098D01*
X52196Y74205D01*
X51835Y74055D01*
X51486Y73213D01*
X51835Y72372D01*
X52677Y72023D01*
X53519Y72372D01*
X53868Y73213D01*
X53519Y74055D01*
X53159Y74205D01*
X53256Y74695D01*
X59171D01*
X59361Y74411D01*
X59360Y74411D01*
X59361D01*
X59709Y73569D01*
X60551Y73221D01*
X61393Y73569D01*
X61742Y74411D01*
X61742Y74411D01*
X61742Y74411D01*
X61931Y74695D01*
X65325D01*
X65679Y74341D01*
X65678Y72132D01*
X65688Y72106D01*
X65680Y72079D01*
X65680Y72079D01*
X65680Y72079D01*
X65618Y71905D01*
X65201Y71732D01*
X64757Y70661D01*
X65201Y69589D01*
X65616Y69417D01*
X65679Y69241D01*
X65679Y69241D01*
X65679D01*
X65686Y69216D01*
X65676Y69188D01*
D01*
X65676Y69188D01*
X65676Y69188D01*
X65664Y47848D01*
X65249Y47571D01*
X64500Y47881D01*
X63658Y47532D01*
X63309Y46690D01*
X63658Y45848D01*
X64500Y45499D01*
X64500Y45499D01*
Y45499D01*
X64598Y45401D01*
X64457Y45061D01*
X64901Y43989D01*
X65662Y43674D01*
X65655Y31809D01*
X65240Y31532D01*
X64590Y31801D01*
X63748Y31452D01*
X63399Y30610D01*
X63748Y29768D01*
X64590Y29419D01*
X65238Y29688D01*
X65654Y29410D01*
X65640Y3700D01*
X65640Y3700D01*
X65640Y3700D01*
X65721Y3504D01*
X65798Y3318D01*
X65798Y3318D01*
X65798Y3317D01*
X66152Y2964D01*
X66152Y2964D01*
X66152Y2964D01*
X66338Y2887D01*
X66535Y2805D01*
X66535Y2805D01*
X66535Y2805D01*
X309213D01*
X309595Y2964D01*
X309754Y3347D01*
Y7169D01*
X309722Y7245D01*
X309731Y7326D01*
X309646Y7429D01*
X309595Y7552D01*
X309520Y7583D01*
X309468Y7647D01*
X309027Y7882D01*
X308945Y7890D01*
X308877Y7936D01*
X308747Y7910D01*
X308614Y7923D01*
X308551Y7871D01*
X308471Y7855D01*
X308440Y7834D01*
X308222Y7791D01*
X308004Y7834D01*
X307819Y7958D01*
X307696Y8143D01*
X307652Y8361D01*
X307696Y8579D01*
X307819Y8764D01*
X308004Y8887D01*
X308222Y8930D01*
X308440Y8887D01*
X308471Y8867D01*
X308551Y8850D01*
X308614Y8799D01*
X308747Y8812D01*
X308877Y8786D01*
X308945Y8831D01*
X309027Y8839D01*
X309468Y9075D01*
X309520Y9138D01*
X309595Y9170D01*
X309646Y9292D01*
X309731Y9395D01*
X309722Y9477D01*
X309754Y9552D01*
Y20555D01*
X309743Y20581D01*
X309751Y20608D01*
X309683Y20735D01*
X309852Y21205D01*
X310436Y21447D01*
X310572Y21777D01*
X311072D01*
X311209Y21447D01*
X313122Y20655D01*
X315036Y21447D01*
X315828Y23361D01*
X315036Y25274D01*
X314525Y25486D01*
Y25986D01*
X315036Y26197D01*
X315828Y28111D01*
X315036Y30024D01*
X314525Y30236D01*
Y30736D01*
X315036Y30947D01*
X315828Y32861D01*
X315036Y34774D01*
X314611Y34950D01*
Y35450D01*
X314927Y35581D01*
X315719Y37495D01*
X314927Y39408D01*
X313013Y40200D01*
X311100Y39408D01*
X310930Y38998D01*
X310430D01*
X310260Y39408D01*
X309835Y39584D01*
X309667Y40055D01*
X309751Y40212D01*
X309743Y40239D01*
X309754Y40265D01*
Y42283D01*
X309595Y42666D01*
X309213Y42825D01*
X274138D01*
X274064Y43003D01*
X273222Y43351D01*
X272380Y43003D01*
X272306Y42825D01*
X269138D01*
X269064Y43003D01*
X268222Y43351D01*
X267380Y43003D01*
X267306Y42825D01*
X259138D01*
X259064Y43003D01*
X258222Y43351D01*
X257380Y43003D01*
X257307Y42825D01*
X254041D01*
X253992Y42942D01*
X253150Y43291D01*
X252308Y42942D01*
X252259Y42825D01*
X249138D01*
X249064Y43003D01*
X248222Y43351D01*
X247380Y43003D01*
X247306Y42825D01*
X246644D01*
Y53652D01*
X246741Y53692D01*
X247185Y54764D01*
X246741Y55835D01*
X246644Y55876D01*
Y71816D01*
X247121Y71911D01*
Y71911D01*
X247134Y71913D01*
Y71913D01*
X247380Y71319D01*
X248222Y70970D01*
X249064Y71319D01*
X249413Y72161D01*
X249064Y73003D01*
X248222Y73351D01*
X247380Y73003D01*
X247134Y72408D01*
Y72408D01*
X247121Y72411D01*
Y72411D01*
X246644Y72506D01*
Y99370D01*
X250640D01*
X251864Y99878D01*
X252372Y101102D01*
X251864Y102327D01*
X250640Y102834D01*
X246644D01*
Y103543D01*
X246485Y103926D01*
X246102Y104085D01*
X236761D01*
X236408Y104438D01*
X236408Y104508D01*
X236397Y104534D01*
X236406Y104561D01*
X236320Y104722D01*
X236250Y104891D01*
X236224Y104901D01*
X236210Y104926D01*
X236066Y105045D01*
X236072Y105086D01*
X236072Y105086D01*
X236072Y105086D01*
X236515Y106157D01*
X236512Y106165D01*
X236703Y106627D01*
X237735Y107054D01*
X238178Y108126D01*
X237735Y109197D01*
X236699Y109626D01*
X236508Y110089D01*
X236510Y110094D01*
X236502Y110114D01*
X236693Y110575D01*
X237698Y110992D01*
X238141Y112063D01*
X237698Y113135D01*
X236662Y113564D01*
X236471Y114025D01*
X236473Y114032D01*
X236032Y115097D01*
X236033Y115098D01*
X236220Y115251D01*
X236223Y115256D01*
X236260Y115287D01*
X236260D01*
X236260Y115287D01*
X236330Y115456D01*
X236416Y115617D01*
X236408Y115644D01*
X236418Y115669D01*
X236419Y116641D01*
X236727Y116847D01*
X236727Y116847D01*
Y116847D01*
X237798Y117291D01*
X238242Y118362D01*
X237798Y119434D01*
X236727Y119878D01*
X236727Y119878D01*
X236727Y119878D01*
X236308Y120006D01*
X236264Y120114D01*
X235910Y120467D01*
X235910Y120467D01*
X235910Y120467D01*
X235719Y120547D01*
X235606Y120594D01*
Y122660D01*
X235466D01*
X235188Y123075D01*
X235426Y123651D01*
X235440Y123647D01*
X235938Y123696D01*
X236099Y123782D01*
X236267Y123851D01*
X236278Y123878D01*
X236303Y123891D01*
X236356Y124065D01*
X236426Y124234D01*
X236446Y146575D01*
X236446Y146575D01*
X236446Y146575D01*
X236367Y146766D01*
X236288Y146958D01*
X236288Y146958D01*
X236288Y146958D01*
X235934Y147311D01*
X235934Y147312D01*
X235934Y147312D01*
X235747Y147389D01*
X235552Y147470D01*
X235551Y147470D01*
X235551Y147470D01*
X219970Y147451D01*
X219691Y147867D01*
X219695Y147874D01*
X219346Y148716D01*
X218504Y149065D01*
X217662Y148716D01*
X217313Y147874D01*
X217318Y147863D01*
X217040Y147448D01*
X193083Y147419D01*
X192962Y147598D01*
X192962Y147599D01*
X192962D01*
X192614Y148440D01*
X191772Y148789D01*
X190930Y148440D01*
X190581Y147599D01*
X190581Y147598D01*
X190581Y147598D01*
X190459Y147415D01*
X184429Y147408D01*
X184183Y147776D01*
X184183Y147776D01*
X184183D01*
X183834Y148617D01*
X182992Y148966D01*
X182150Y148617D01*
X181801Y147776D01*
X181801Y147776D01*
X181801Y147776D01*
X181554Y147405D01*
X176490Y147399D01*
X176212Y147814D01*
X176269Y147953D01*
X175921Y148795D01*
X175079Y149143D01*
X174237Y148795D01*
X173888Y147953D01*
X173947Y147811D01*
X173669Y147395D01*
X172472Y147394D01*
X172194Y147809D01*
X172254Y147953D01*
X171905Y148795D01*
X171063Y149143D01*
X170221Y148795D01*
X169872Y147953D01*
X170221Y147111D01*
X170267Y147092D01*
X170247Y147041D01*
X170168Y146850D01*
Y136892D01*
X169677Y136794D01*
X169452Y137338D01*
X168610Y137687D01*
X167768Y137338D01*
X167419Y136496D01*
X167768Y135654D01*
X168610Y135305D01*
X169452Y135654D01*
X169677Y136198D01*
X170168Y136100D01*
Y90475D01*
X169677Y90377D01*
X169622Y90512D01*
X168997Y90770D01*
X168806Y91232D01*
X169143Y92047D01*
X168795Y92889D01*
X168167Y93149D01*
Y93649D01*
X168795Y93909D01*
X169143Y94751D01*
X168795Y95593D01*
X168167Y95852D01*
Y96352D01*
X168795Y96612D01*
X169143Y97454D01*
X168795Y98296D01*
X168167Y98556D01*
Y99056D01*
X168795Y99316D01*
X169143Y100157D01*
X168795Y100999D01*
X167953Y101348D01*
X167111Y100999D01*
X166762Y100157D01*
X167111Y99316D01*
X167738Y99056D01*
Y98556D01*
X167111Y98296D01*
X166762Y97454D01*
X167111Y96612D01*
X167738Y96352D01*
Y95852D01*
X167111Y95593D01*
X166762Y94751D01*
X167111Y93909D01*
X167738Y93649D01*
Y93149D01*
X167111Y92889D01*
X166762Y92047D01*
X167111Y91205D01*
X167529Y91032D01*
Y90532D01*
X167479Y90512D01*
X167035Y89440D01*
X167479Y88368D01*
X168550Y87925D01*
X169622Y88368D01*
X169681Y88512D01*
X170172Y88416D01*
X170175Y87913D01*
X170207Y87839D01*
X170199Y87758D01*
X170285Y87655D01*
X170337Y87532D01*
X170337Y87532D01*
X170337Y87532D01*
Y87532D01*
X170438Y87470D01*
X170463Y87439D01*
X170641Y87345D01*
D01*
X170641Y87345D01*
X170642Y87345D01*
X170253Y86407D01*
X170655Y85437D01*
X170581Y85298D01*
X170482Y85176D01*
X170487Y85120D01*
X170461Y85071D01*
X170414Y84574D01*
X170430Y84521D01*
X170414Y84468D01*
X170489Y84329D01*
X170489Y84329D01*
X170351Y84082D01*
X170351Y84082D01*
X170351Y84082D01*
X169907Y83011D01*
X170351Y81939D01*
X170351D01*
X170387Y81818D01*
X170380Y81698D01*
D01*
D01*
D01*
X170380D01*
X170312Y81530D01*
X170227Y81370D01*
X170236Y81342D01*
X170225Y81314D01*
X170239Y79321D01*
X169887Y78966D01*
X166124D01*
X165880Y79556D01*
X165038Y79905D01*
X164656Y79747D01*
X164260Y79911D01*
Y79911D01*
X164260Y79911D01*
X163911Y80753D01*
X163069Y81102D01*
X162227Y80753D01*
X161879Y79911D01*
X162098Y79382D01*
X161820Y78966D01*
X160581D01*
Y83075D01*
X160928Y83219D01*
X161276Y84061D01*
X160928Y84903D01*
X160581Y85046D01*
Y85814D01*
X160928Y85958D01*
X161276Y86800D01*
X160928Y87642D01*
X160581Y87785D01*
Y88553D01*
X160928Y88697D01*
X161276Y89539D01*
X160928Y90381D01*
X160581Y90525D01*
Y91292D01*
X160928Y91436D01*
X161276Y92278D01*
X160928Y93120D01*
X160581Y93264D01*
Y94031D01*
X160928Y94175D01*
X161276Y95017D01*
X160928Y95859D01*
X160581Y96003D01*
Y96770D01*
X160928Y96914D01*
X161276Y97756D01*
X160928Y98598D01*
X160581Y98742D01*
Y105182D01*
X160872Y105886D01*
X161372D01*
X161680Y105142D01*
X162522Y104794D01*
X163364Y105142D01*
X163713Y105984D01*
X163364Y106826D01*
X162522Y107175D01*
X161680Y106826D01*
X161372Y106082D01*
X160872D01*
X160581Y106786D01*
Y108386D01*
X160422Y108768D01*
X160039Y108927D01*
X154793D01*
X154475Y109313D01*
X154504Y109458D01*
X163999D01*
X164424Y109033D01*
X164400Y108976D01*
X164876Y107828D01*
X166024Y107353D01*
X167172Y107828D01*
X167647Y108976D01*
X167172Y110124D01*
X166024Y110600D01*
X165949Y110569D01*
X165213Y111305D01*
X164448Y111622D01*
X164448Y111622D01*
X161211D01*
X160933Y112038D01*
X161121Y112490D01*
X160772Y113332D01*
X159930Y113681D01*
X159088Y113332D01*
X158739Y112490D01*
X158926Y112038D01*
X158649Y111622D01*
X153767D01*
X153002Y111305D01*
X152959Y111202D01*
X151084Y109327D01*
X148285D01*
X147991Y110036D01*
X146920Y110479D01*
X145848Y110036D01*
X145404Y108964D01*
X145404Y108964D01*
X145404Y108964D01*
X145380Y108927D01*
X140994D01*
X140837Y109161D01*
X140838Y109161D01*
X140837D01*
X140394Y110232D01*
X139322Y110676D01*
X138251Y110232D01*
X137920Y109434D01*
X137420D01*
X137090Y110230D01*
X136019Y110674D01*
X134947Y110230D01*
X134503Y109158D01*
X134503Y109158D01*
X134503Y109158D01*
X134349Y108927D01*
X131721D01*
X131599Y108876D01*
X131466Y108863D01*
X131414Y108800D01*
X131339Y108768D01*
X131288Y108646D01*
X131203Y108543D01*
X131172Y108439D01*
X130672D01*
X130641Y108543D01*
X130556Y108646D01*
X130506Y108768D01*
X130430Y108800D01*
X130378Y108863D01*
X130246Y108876D01*
X130123Y108927D01*
X127549D01*
X127195Y109281D01*
X127196Y110089D01*
X127242Y110108D01*
X127591Y110950D01*
X127242Y111792D01*
X127197Y111811D01*
X127200Y119677D01*
X127850Y119946D01*
X128199Y120787D01*
X127850Y121629D01*
X127202Y121898D01*
X127202Y123408D01*
X127449Y123573D01*
X127449Y123573D01*
Y123573D01*
X128291Y123922D01*
X128640Y124764D01*
X128291Y125606D01*
X127449Y125954D01*
X127449Y125954D01*
X127449Y125954D01*
X127204Y126118D01*
X127205Y129203D01*
X128047Y129552D01*
X128395Y130394D01*
X128047Y131236D01*
X127207Y131583D01*
X127218Y154632D01*
X127402Y154754D01*
X127402Y154754D01*
Y154754D01*
X128244Y155103D01*
X128592Y155945D01*
X128244Y156787D01*
X127402Y157135D01*
X127402Y157135D01*
X127402Y157135D01*
X127220Y157257D01*
X127226Y169386D01*
X127226Y169386D01*
X127226Y169386D01*
X127146Y169579D01*
X127068Y169769D01*
X127068Y169769D01*
X127067Y169769D01*
X126714Y170123D01*
X126714Y170123D01*
X126714Y170123D01*
X126524Y170202D01*
X126331Y170281D01*
X126331Y170281D01*
X126331Y170281D01*
X125438Y170281D01*
X125161Y170697D01*
X125481Y171470D01*
X132940Y178929D01*
X133985Y179362D01*
X134429Y180433D01*
X133985Y181505D01*
X132913Y181948D01*
X131842Y181505D01*
X131409Y180459D01*
X123950Y173001D01*
X123243Y172708D01*
X122889Y173061D01*
X123171Y173740D01*
X122822Y174582D01*
X121980Y174931D01*
X121201Y174608D01*
X120848Y174962D01*
X121032Y175407D01*
X125814Y180188D01*
X126859Y180621D01*
X127303Y181693D01*
X126859Y182764D01*
X125787Y183208D01*
D02*
G37*
G36*
X314466Y172026D02*
X313395Y171582D01*
X313216Y171151D01*
X312716D01*
X312538Y171582D01*
X311466Y172026D01*
X310395Y171582D01*
X310216Y171151D01*
X309716D01*
X309538Y171582D01*
X308466Y172026D01*
X307395Y171582D01*
X306951Y170511D01*
X307395Y169439D01*
X308466Y168995D01*
X309538Y169439D01*
X309716Y169870D01*
X310216D01*
X310395Y169439D01*
X311466Y168995D01*
X312538Y169439D01*
X312716Y169870D01*
X313216D01*
X313395Y169439D01*
X314466Y168995D01*
X315538Y169439D01*
X315982Y170511D01*
X315538Y171582D01*
X314466Y172026D01*
D02*
G37*
G36*
X4254Y173428D02*
X3412Y173079D01*
X3064Y172237D01*
X3412Y171395D01*
X4254Y171047D01*
X5096Y171395D01*
X5445Y172237D01*
X5096Y173079D01*
X4254Y173428D01*
D02*
G37*
G36*
X74167Y174493D02*
X73325Y174144D01*
X72976Y173302D01*
X73325Y172460D01*
X74167Y172112D01*
X75009Y172460D01*
X75358Y173302D01*
X75009Y174144D01*
X74167Y174493D01*
D02*
G37*
G36*
X112167D02*
X111325Y174144D01*
X110976Y173302D01*
X111325Y172460D01*
X112167Y172112D01*
X113009Y172460D01*
X113358Y173302D01*
X113009Y174144D01*
X112167Y174493D01*
D02*
G37*
G36*
X104167D02*
X103325Y174144D01*
X102976Y173302D01*
X103325Y172460D01*
X104167Y172112D01*
X105009Y172460D01*
X105358Y173302D01*
X105009Y174144D01*
X104167Y174493D01*
D02*
G37*
G36*
X184610Y175570D02*
X183538Y175126D01*
X183094Y174055D01*
X183538Y172983D01*
X184610Y172539D01*
X185681Y172983D01*
X186125Y174055D01*
X185681Y175126D01*
X184610Y175570D01*
D02*
G37*
G36*
X133167Y174493D02*
X132325Y174144D01*
X131976Y173302D01*
X132325Y172460D01*
X133167Y172112D01*
X134009Y172460D01*
X134358Y173302D01*
X134009Y174144D01*
X133167Y174493D01*
D02*
G37*
G36*
X99167D02*
X98325Y174144D01*
X97976Y173302D01*
X98325Y172460D01*
X99167Y172112D01*
X100009Y172460D01*
X100358Y173302D01*
X100009Y174144D01*
X99167Y174493D01*
D02*
G37*
G36*
X84167D02*
X83325Y174144D01*
X82976Y173302D01*
X83325Y172460D01*
X84167Y172112D01*
X85009Y172460D01*
X85358Y173302D01*
X85009Y174144D01*
X84167Y174493D01*
D02*
G37*
G36*
X79167D02*
X78325Y174144D01*
X77976Y173302D01*
X78325Y172460D01*
X79167Y172112D01*
X80009Y172460D01*
X80358Y173302D01*
X80009Y174144D01*
X79167Y174493D01*
D02*
G37*
G36*
X94167D02*
X93325Y174144D01*
X92976Y173302D01*
X93325Y172460D01*
X94167Y172112D01*
X95009Y172460D01*
X95358Y173302D01*
X95009Y174144D01*
X94167Y174493D01*
D02*
G37*
G36*
X89167D02*
X88325Y174144D01*
X87976Y173302D01*
X88325Y172460D01*
X89167Y172112D01*
X90009Y172460D01*
X90358Y173302D01*
X90009Y174144D01*
X89167Y174493D01*
D02*
G37*
G36*
X338222Y188351D02*
X337380Y188003D01*
X337032Y187161D01*
X337380Y186319D01*
X338222Y185970D01*
X339064Y186319D01*
X339413Y187161D01*
X339064Y188003D01*
X338222Y188351D01*
D02*
G37*
G36*
X333222D02*
X332380Y188003D01*
X332031Y187161D01*
X332380Y186319D01*
X333222Y185970D01*
X334064Y186319D01*
X334413Y187161D01*
X334064Y188003D01*
X333222Y188351D01*
D02*
G37*
G36*
X358222D02*
X357380Y188003D01*
X357031Y187161D01*
X357380Y186319D01*
X358222Y185970D01*
X359064Y186319D01*
X359413Y187161D01*
X359064Y188003D01*
X358222Y188351D01*
D02*
G37*
G36*
X343222D02*
X342380Y188003D01*
X342032Y187161D01*
X342380Y186319D01*
X343222Y185970D01*
X344064Y186319D01*
X344413Y187161D01*
X344064Y188003D01*
X343222Y188351D01*
D02*
G37*
G36*
X323222D02*
X322380Y188003D01*
X322031Y187161D01*
X322380Y186319D01*
X323222Y185970D01*
X324064Y186319D01*
X324413Y187161D01*
X324064Y188003D01*
X323222Y188351D01*
D02*
G37*
G36*
X43222D02*
X42380Y188003D01*
X42031Y187161D01*
X42380Y186319D01*
X43222Y185970D01*
X44064Y186319D01*
X44413Y187161D01*
X44064Y188003D01*
X43222Y188351D01*
D02*
G37*
G36*
X38222D02*
X37380Y188003D01*
X37031Y187161D01*
X37380Y186319D01*
X38222Y185970D01*
X39064Y186319D01*
X39413Y187161D01*
X39064Y188003D01*
X38222Y188351D01*
D02*
G37*
G36*
X66022D02*
X65180Y188003D01*
X64832Y187161D01*
X65180Y186319D01*
X66022Y185970D01*
X66864Y186319D01*
X67213Y187161D01*
X66864Y188003D01*
X66022Y188351D01*
D02*
G37*
G36*
X48222D02*
X47380Y188003D01*
X47032Y187161D01*
X47380Y186319D01*
X48222Y185970D01*
X49064Y186319D01*
X49413Y187161D01*
X49064Y188003D01*
X48222Y188351D01*
D02*
G37*
G36*
X209860Y188534D02*
X209018Y188186D01*
X208669Y187344D01*
X209018Y186502D01*
X209860Y186153D01*
X210702Y186502D01*
X211051Y187344D01*
X210702Y188186D01*
X209860Y188534D01*
D02*
G37*
G36*
X191208Y189518D02*
X190366Y189170D01*
X190017Y188328D01*
X190366Y187486D01*
X191208Y187137D01*
X192050Y187486D01*
X192399Y188328D01*
X192050Y189170D01*
X191208Y189518D01*
D02*
G37*
G36*
X104022Y189451D02*
X103180Y189103D01*
X102831Y188261D01*
X103180Y187419D01*
X104022Y187070D01*
X104864Y187419D01*
X105213Y188261D01*
X104864Y189103D01*
X104022Y189451D01*
D02*
G37*
G36*
X134322Y189551D02*
X133480Y189203D01*
X133132Y188361D01*
X133480Y187519D01*
X134322Y187170D01*
X135164Y187519D01*
X135513Y188361D01*
X135164Y189203D01*
X134322Y189551D01*
D02*
G37*
G36*
X84222D02*
X83380Y189203D01*
X83031Y188361D01*
X83380Y187519D01*
X84222Y187170D01*
X85064Y187519D01*
X85413Y188361D01*
X85064Y189203D01*
X84222Y189551D01*
D02*
G37*
G36*
X171922Y189351D02*
X171080Y189003D01*
X170731Y188161D01*
X171080Y187319D01*
X171922Y186970D01*
X172764Y187319D01*
X173113Y188161D01*
X172764Y189003D01*
X171922Y189351D01*
D02*
G37*
G36*
X165017Y189060D02*
X164175Y188711D01*
X163827Y187869D01*
X164175Y187028D01*
X165017Y186679D01*
X165859Y187028D01*
X166208Y187869D01*
X165859Y188711D01*
X165017Y189060D01*
D02*
G37*
G36*
X155017D02*
X154175Y188711D01*
X153827Y187869D01*
X154175Y187028D01*
X155017Y186679D01*
X155859Y187028D01*
X156208Y187869D01*
X155859Y188711D01*
X155017Y189060D01*
D02*
G37*
G36*
X123722Y189351D02*
X122880Y189003D01*
X122531Y188161D01*
X122880Y187319D01*
X123722Y186970D01*
X124564Y187319D01*
X124913Y188161D01*
X124564Y189003D01*
X123722Y189351D01*
D02*
G37*
G36*
X144055Y189261D02*
X143213Y188913D01*
X142865Y188071D01*
X143213Y187229D01*
X144055Y186880D01*
X144897Y187229D01*
X145246Y188071D01*
X144897Y188913D01*
X144055Y189261D01*
D02*
G37*
G36*
X4254Y183428D02*
X3412Y183079D01*
X3064Y182237D01*
X3412Y181395D01*
X4254Y181047D01*
X5096Y181395D01*
X5445Y182237D01*
X5096Y183079D01*
X4254Y183428D01*
D02*
G37*
G36*
X379295Y193938D02*
X373187Y191408D01*
X370657Y185300D01*
X373187Y179192D01*
X379295Y176662D01*
X385403Y179192D01*
X386582Y182038D01*
X387082D01*
X387380Y181319D01*
X388222Y180970D01*
X389064Y181319D01*
X389413Y182161D01*
X389064Y183003D01*
X388222Y183351D01*
X387503Y183053D01*
X387149Y183407D01*
X387933Y185300D01*
X385403Y191408D01*
X379295Y193938D01*
D02*
G37*
G36*
X31204Y183751D02*
X30362Y183403D01*
X30013Y182561D01*
X30362Y181719D01*
X31204Y181370D01*
X32046Y181719D01*
X32395Y182561D01*
X32046Y183403D01*
X31204Y183751D01*
D02*
G37*
G36*
X307722Y190111D02*
X304929Y188954D01*
X303772Y186161D01*
X304481Y184450D01*
X301276Y181245D01*
X299182D01*
Y181245D01*
X299158D01*
X298804Y181598D01*
Y182511D01*
X301372D01*
Y189810D01*
X294073D01*
Y182511D01*
X296640D01*
Y176545D01*
X296282D01*
Y173576D01*
X296640D01*
Y160900D01*
X296640Y160900D01*
X296957Y160135D01*
X298140Y158952D01*
Y154935D01*
X297622D01*
Y152360D01*
X300822D01*
Y154935D01*
X300305D01*
Y159400D01*
X300305Y159400D01*
X299988Y160165D01*
X298804Y161348D01*
Y173576D01*
X299250Y173576D01*
Y173576D01*
X299286D01*
X299640Y173223D01*
Y162861D01*
X299640Y162861D01*
X299957Y162095D01*
X302840Y159212D01*
Y154935D01*
X302322D01*
Y152360D01*
X305522D01*
Y154935D01*
X305005D01*
Y159661D01*
X304688Y160426D01*
X304687Y160426D01*
X301804Y163309D01*
Y178276D01*
X302150D01*
Y179058D01*
X306011Y182919D01*
X307722Y182210D01*
X310515Y183367D01*
X311672Y186161D01*
X310515Y188954D01*
X307722Y190111D01*
D02*
G37*
G36*
X43222Y183351D02*
X42380Y183003D01*
X42031Y182161D01*
X42380Y181319D01*
X43222Y180970D01*
X44064Y181319D01*
X44413Y182161D01*
X44064Y183003D01*
X43222Y183351D01*
D02*
G37*
G36*
X264522Y181451D02*
X263680Y181103D01*
X263332Y180261D01*
X263680Y179419D01*
X264522Y179070D01*
X265364Y179419D01*
X265713Y180261D01*
X265364Y181103D01*
X264522Y181451D01*
D02*
G37*
G36*
X21573Y179975D02*
X20731Y179626D01*
X20382Y178784D01*
X20731Y177942D01*
X21573Y177594D01*
X22415Y177942D01*
X22764Y178784D01*
X22415Y179626D01*
X21573Y179975D01*
D02*
G37*
G36*
X11904Y182951D02*
X11062Y182603D01*
X10713Y181761D01*
X11062Y180919D01*
X11904Y180570D01*
X12746Y180919D01*
X13095Y181761D01*
X12746Y182603D01*
X11904Y182951D01*
D02*
G37*
G36*
X328884Y185574D02*
X326971Y184781D01*
X326178Y182868D01*
X326971Y180954D01*
X328884Y180162D01*
X330798Y180954D01*
X331590Y182868D01*
X330798Y184781D01*
X328884Y185574D01*
D02*
G37*
G36*
X280028Y189791D02*
X272728D01*
Y182492D01*
X280028D01*
Y189791D01*
D02*
G37*
G36*
X23222Y188351D02*
X22380Y188003D01*
X22031Y187161D01*
X22380Y186319D01*
X23222Y185970D01*
X24064Y186319D01*
X24413Y187161D01*
X24064Y188003D01*
X23222Y188351D01*
D02*
G37*
G36*
X18222D02*
X17380Y188003D01*
X17031Y187161D01*
X17380Y186319D01*
X18222Y185970D01*
X19064Y186319D01*
X19413Y187161D01*
X19064Y188003D01*
X18222Y188351D01*
D02*
G37*
G36*
X33222D02*
X32380Y188003D01*
X32032Y187161D01*
X32380Y186319D01*
X33222Y185970D01*
X34064Y186319D01*
X34413Y187161D01*
X34064Y188003D01*
X33222Y188351D01*
D02*
G37*
G36*
X28222D02*
X27380Y188003D01*
X27031Y187161D01*
X27380Y186319D01*
X28222Y185970D01*
X29064Y186319D01*
X29413Y187161D01*
X29064Y188003D01*
X28222Y188351D01*
D02*
G37*
G36*
X13222D02*
X12380Y188003D01*
X12032Y187161D01*
X12380Y186319D01*
X13222Y185970D01*
X14064Y186319D01*
X14413Y187161D01*
X14064Y188003D01*
X13222Y188351D01*
D02*
G37*
G36*
X258122Y186851D02*
X257280Y186503D01*
X256931Y185661D01*
X257280Y184819D01*
X258122Y184470D01*
X258964Y184819D01*
X259313Y185661D01*
X258964Y186503D01*
X258122Y186851D01*
D02*
G37*
G36*
X229767Y186756D02*
X228925Y186407D01*
X228577Y185565D01*
X228925Y184723D01*
X229767Y184374D01*
X230609Y184723D01*
X230958Y185565D01*
X230609Y186407D01*
X229767Y186756D01*
D02*
G37*
G36*
X8222Y188351D02*
X7380Y188003D01*
X7032Y187161D01*
X7380Y186319D01*
X8222Y185970D01*
X9064Y186319D01*
X9413Y187161D01*
X9064Y188003D01*
X8222Y188351D01*
D02*
G37*
G36*
X181496Y187214D02*
X180654Y186865D01*
X180305Y186024D01*
X180654Y185182D01*
X181496Y184833D01*
X182338Y185182D01*
X182687Y186024D01*
X182338Y186865D01*
X181496Y187214D01*
D02*
G37*
G36*
X191622Y174767D02*
X189709Y173974D01*
X188916Y172061D01*
X189709Y170147D01*
X191622Y169355D01*
X193535Y170147D01*
X194328Y172061D01*
X193535Y173974D01*
X191622Y174767D01*
D02*
G37*
G36*
X4254Y153428D02*
X3412Y153079D01*
X3064Y152237D01*
X3412Y151395D01*
X4254Y151047D01*
X5096Y151395D01*
X5445Y152237D01*
X5096Y153079D01*
X4254Y153428D01*
D02*
G37*
G36*
X319414Y157173D02*
X316840D01*
Y155829D01*
X316734Y155573D01*
Y153274D01*
X316438Y152560D01*
X316438Y152560D01*
X316438Y152560D01*
X316380Y152473D01*
X314440D01*
Y151129D01*
X314334Y150873D01*
Y148130D01*
X312578Y146374D01*
X312116Y146565D01*
Y149773D01*
X307316D01*
Y145573D01*
X308963D01*
Y142921D01*
X309073Y142656D01*
Y140846D01*
X311451D01*
Y140846D01*
X311451D01*
X311451Y140846D01*
X311632D01*
Y140846D01*
X314010D01*
Y140846D01*
X314010D01*
X314010Y140846D01*
X314191D01*
Y140846D01*
X316569D01*
Y140846D01*
X316569D01*
X316569Y140846D01*
X316750D01*
Y140846D01*
X319128D01*
Y142656D01*
X319238Y142921D01*
Y143852D01*
X321248Y145862D01*
X331930D01*
X332309Y144947D01*
X334222Y144155D01*
X336136Y144947D01*
X336928Y146861D01*
X336136Y148774D01*
X334222Y149567D01*
X332309Y148774D01*
X332178Y148460D01*
X320710D01*
X319791Y148079D01*
X319321Y147609D01*
X318964Y147461D01*
X318548Y147739D01*
Y149273D01*
X320590D01*
Y149791D01*
X321216D01*
X321216Y149791D01*
X321981Y150108D01*
X322393Y150519D01*
X330098D01*
Y150314D01*
X334641D01*
Y152889D01*
X330098D01*
Y152684D01*
X321944D01*
X321179Y152367D01*
X321179Y152367D01*
X321052Y152240D01*
X320590Y152432D01*
Y152473D01*
X319154D01*
X318898Y152856D01*
X318898Y152856D01*
X318898D01*
D01*
Y153973D01*
X319414D01*
Y157173D01*
D02*
G37*
G36*
X287836Y157462D02*
X286765Y157018D01*
X286321Y155947D01*
X286765Y154875D01*
X287810Y154442D01*
X288222Y154030D01*
Y152362D01*
X291422D01*
Y154937D01*
X290376D01*
X289341Y155973D01*
X288908Y157018D01*
X287836Y157462D01*
D02*
G37*
G36*
X291722Y160076D02*
X290651Y159632D01*
X290207Y158561D01*
X290651Y157489D01*
X291696Y157056D01*
X293355Y155397D01*
X293164Y154935D01*
X292922D01*
Y152360D01*
X296122D01*
Y154935D01*
X295604D01*
Y155761D01*
X295604Y155761D01*
X295380Y156302D01*
X295287Y156526D01*
X295287Y156526D01*
X293227Y158587D01*
X292794Y159632D01*
X291722Y160076D01*
D02*
G37*
G36*
X250478Y152380D02*
X249636Y152031D01*
X249287Y151189D01*
X249636Y150347D01*
X250478Y149999D01*
X251320Y150347D01*
X251669Y151189D01*
X251320Y152031D01*
X250478Y152380D01*
D02*
G37*
G36*
X167205Y149143D02*
X166363Y148795D01*
X166014Y147953D01*
X166363Y147111D01*
X167205Y146762D01*
X168047Y147111D01*
X168395Y147953D01*
X168047Y148795D01*
X167205Y149143D01*
D02*
G37*
G36*
X163622D02*
X162780Y148795D01*
X162431Y147953D01*
X162780Y147111D01*
X163622Y146762D01*
X164464Y147111D01*
X164813Y147953D01*
X164464Y148795D01*
X163622Y149143D01*
D02*
G37*
G36*
X182992Y152214D02*
X182150Y151865D01*
X181801Y151024D01*
X182150Y150182D01*
X182992Y149833D01*
X183834Y150182D01*
X184183Y151024D01*
X183834Y151865D01*
X182992Y152214D01*
D02*
G37*
G36*
X234488Y151939D02*
X233646Y151590D01*
X233298Y150748D01*
X233646Y149906D01*
X234488Y149557D01*
X235330Y149906D01*
X235679Y150748D01*
X235330Y151590D01*
X234488Y151939D01*
D02*
G37*
G36*
X322990Y157173D02*
X320415D01*
Y153973D01*
X322990D01*
Y154015D01*
X323452Y154206D01*
X323673Y153986D01*
X323673Y153986D01*
X324438Y153669D01*
X330098D01*
Y153464D01*
X334641D01*
Y156039D01*
X330098D01*
Y155833D01*
X324886D01*
X324381Y156339D01*
X323616Y156656D01*
X323616Y156656D01*
X322990D01*
Y157173D01*
D02*
G37*
G36*
X156496Y157135D02*
X155654Y156787D01*
X155305Y155945D01*
X155654Y155103D01*
X156496Y154754D01*
X157338Y155103D01*
X157687Y155945D01*
X157338Y156787D01*
X156496Y157135D01*
D02*
G37*
G36*
X153189D02*
X152347Y156787D01*
X151998Y155945D01*
X152347Y155103D01*
X153189Y154754D01*
X154031Y155103D01*
X154380Y155945D01*
X154031Y156787D01*
X153189Y157135D01*
D02*
G37*
G36*
X163661D02*
X162820Y156787D01*
X162471Y155945D01*
X162820Y155103D01*
X163661Y154754D01*
X164503Y155103D01*
X164852Y155945D01*
X164503Y156787D01*
X163661Y157135D01*
D02*
G37*
G36*
X159803D02*
X158961Y156787D01*
X158613Y155945D01*
X158961Y155103D01*
X159803Y154754D01*
X160645Y155103D01*
X160994Y155945D01*
X160645Y156787D01*
X159803Y157135D01*
D02*
G37*
G36*
X134006D02*
X133165Y156787D01*
X132816Y155945D01*
X133165Y155103D01*
X134006Y154754D01*
X134848Y155103D01*
X135197Y155945D01*
X134848Y156787D01*
X134006Y157135D01*
D02*
G37*
G36*
X8222Y8351D02*
X7380Y8003D01*
X7032Y7161D01*
X7380Y6319D01*
X8222Y5970D01*
X9064Y6319D01*
X9413Y7161D01*
X9064Y8003D01*
X8222Y8351D01*
D02*
G37*
G36*
X181320Y155861D02*
X180478Y155512D01*
X180129Y154670D01*
X180478Y153828D01*
X181320Y153479D01*
X182162Y153828D01*
X182511Y154670D01*
X182162Y155512D01*
X181320Y155861D01*
D02*
G37*
G36*
X130769Y157135D02*
X129927Y156787D01*
X129578Y155945D01*
X129927Y155103D01*
X130769Y154754D01*
X131611Y155103D01*
X131960Y155945D01*
X131611Y156787D01*
X130769Y157135D01*
D02*
G37*
G36*
X174010Y157141D02*
X173168Y156792D01*
X172819Y155950D01*
X173168Y155108D01*
X174010Y154759D01*
X174852Y155108D01*
X174958Y155363D01*
X175458D01*
X175588Y155048D01*
X176430Y154699D01*
X177272Y155048D01*
X177621Y155890D01*
X177272Y156732D01*
X176430Y157081D01*
X175588Y156732D01*
X175482Y156477D01*
X174982D01*
X174852Y156792D01*
X174010Y157141D01*
D02*
G37*
G36*
X250478Y147380D02*
X249636Y147031D01*
X249287Y146189D01*
X249636Y145347D01*
X250478Y144999D01*
X251320Y145347D01*
X251669Y146189D01*
X251320Y147031D01*
X250478Y147380D01*
D02*
G37*
G36*
X245478D02*
X244636Y147031D01*
X244287Y146189D01*
X244636Y145347D01*
X245478Y144999D01*
X246320Y145347D01*
X246669Y146189D01*
X246320Y147031D01*
X245478Y147380D01*
D02*
G37*
G36*
X137953Y148002D02*
X137111Y147653D01*
X136762Y146811D01*
X137111Y145969D01*
X137953Y145620D01*
X138795Y145969D01*
X139143Y146811D01*
X138795Y147653D01*
X137953Y148002D01*
D02*
G37*
G36*
X275933Y150059D02*
X270996D01*
Y145122D01*
X275933D01*
Y146091D01*
X277342D01*
Y145573D01*
X279916D01*
Y148773D01*
X277342D01*
Y148256D01*
X275933D01*
Y150059D01*
D02*
G37*
G36*
X291422Y151361D02*
X288222D01*
Y148786D01*
X288438D01*
X288740Y148485D01*
D01*
X288740D01*
Y148485D01*
D01*
X288740D01*
X289057Y147720D01*
X291481Y145295D01*
X292246Y144978D01*
X292246Y144978D01*
X293719D01*
Y144004D01*
X287716D01*
X283781Y147939D01*
X283492Y148058D01*
Y148773D01*
X280918D01*
Y145573D01*
X283085D01*
X286503Y142156D01*
X286503Y142156D01*
X287268Y141839D01*
X293719D01*
Y141157D01*
X289880D01*
Y141051D01*
X286269D01*
X284081Y143239D01*
X283492Y143482D01*
Y144073D01*
X280918D01*
Y140873D01*
X283385D01*
X285055Y139203D01*
X285055Y139203D01*
X285279Y139110D01*
X285589Y138982D01*
X285491Y138492D01*
X283492D01*
Y139373D01*
X280918D01*
Y136814D01*
X280502Y136536D01*
X279922Y136776D01*
X279922Y136776D01*
X279922Y136776D01*
X279916Y136780D01*
Y139373D01*
X277342D01*
Y138856D01*
X275986D01*
X275708Y139271D01*
X276255Y140591D01*
X276095Y140975D01*
X276373Y141391D01*
X277342D01*
Y140873D01*
X279916D01*
Y144073D01*
X277342D01*
Y143556D01*
X275416D01*
X275416Y143556D01*
X274875Y143331D01*
X274651Y143239D01*
X274651Y143239D01*
X274355Y142943D01*
X273583Y143262D01*
X271693Y142480D01*
X270911Y140591D01*
X271693Y138701D01*
X272564Y138341D01*
Y137841D01*
X271693Y137480D01*
X270911Y135591D01*
X271693Y133701D01*
X272564Y133341D01*
Y132841D01*
X271693Y132480D01*
X270911Y130591D01*
X271693Y128701D01*
X272564Y128341D01*
Y127841D01*
X271693Y127480D01*
X270911Y125591D01*
X271693Y123701D01*
X272060Y123549D01*
X271962Y123059D01*
X271114D01*
Y118122D01*
X274436D01*
X274450Y118108D01*
X274450Y118108D01*
X275216Y117791D01*
X277342D01*
Y117273D01*
X279916D01*
Y120473D01*
X277342D01*
Y119956D01*
X276051D01*
Y122491D01*
X277342D01*
Y121973D01*
X279916D01*
Y125173D01*
X277342D01*
Y124656D01*
X276317D01*
X276040Y125071D01*
X276255Y125591D01*
X275639Y127076D01*
X275993Y127430D01*
X276187Y127349D01*
X276569Y127191D01*
X276569Y127191D01*
X277342D01*
Y126673D01*
X279916D01*
Y129873D01*
X277342D01*
Y129685D01*
X276880Y129494D01*
X276116Y130257D01*
X276255Y130591D01*
X275472Y132480D01*
X274601Y132841D01*
Y133341D01*
X275472Y133701D01*
X276255Y135591D01*
X275971Y136275D01*
X276249Y136691D01*
X277342D01*
Y136173D01*
X278335D01*
X278612Y135758D01*
X278407Y135261D01*
X278519Y134989D01*
X278241Y134573D01*
X277340D01*
Y133229D01*
X277234Y132973D01*
X277340Y132717D01*
Y131373D01*
X279914D01*
Y133041D01*
X280454Y133580D01*
X280915Y133389D01*
Y131373D01*
X283134D01*
X283412Y130957D01*
X283123Y130261D01*
X283123Y130261D01*
X283123Y130261D01*
X282864Y129873D01*
X280918D01*
Y126673D01*
X282685D01*
X285510Y123849D01*
X285510Y123849D01*
X285892Y123690D01*
X286043Y123628D01*
X285945Y123137D01*
X284882D01*
X283681Y124339D01*
X283492Y124417D01*
Y125173D01*
X280918D01*
Y121973D01*
X282985D01*
X283669Y121290D01*
X283669Y121290D01*
X284051Y121131D01*
X284434Y120973D01*
X284434Y120973D01*
Y120973D01*
X284434Y120973D01*
Y120452D01*
X283973Y120261D01*
X283973Y120261D01*
D01*
D01*
D01*
D01*
X283973Y120261D01*
D01*
D01*
X283973Y120261D01*
X283908D01*
X283492Y120434D01*
Y120473D01*
X280918D01*
Y117273D01*
X283492D01*
Y117791D01*
X284116D01*
X284116Y117791D01*
X284881Y118108D01*
X285187Y118414D01*
X287169D01*
X287266Y117923D01*
X286957Y117795D01*
X286733Y117702D01*
X286733Y117702D01*
X284286Y115256D01*
X283490D01*
Y115773D01*
X280915D01*
Y112573D01*
X283490D01*
Y113091D01*
X284735D01*
X284735Y113091D01*
X285500Y113408D01*
X287947Y115855D01*
X289210D01*
X289307Y115364D01*
X289157Y115302D01*
X288774Y115143D01*
X288774Y115143D01*
X284186Y110556D01*
X283490D01*
Y111073D01*
X280915D01*
Y107873D01*
X283490D01*
Y108391D01*
X284635D01*
X284635Y108391D01*
X284965Y108528D01*
X285242Y108112D01*
X283571Y106440D01*
X283490Y106473D01*
Y106473D01*
X283490Y106473D01*
X280915D01*
Y103273D01*
X283490D01*
Y103702D01*
X283535Y103791D01*
X283535Y103791D01*
Y103791D01*
X284300Y104108D01*
X286761Y106569D01*
X287251Y106471D01*
X287669Y105464D01*
X288740Y105020D01*
X289635Y105391D01*
X292239D01*
Y104873D01*
X294814D01*
Y108073D01*
X292239D01*
Y107556D01*
X289833D01*
X289812Y107607D01*
X288804Y108024D01*
X288707Y108515D01*
X290535Y110343D01*
X293719D01*
Y109350D01*
X295924D01*
X295924Y109350D01*
Y109350D01*
X296096Y109350D01*
X296277D01*
Y109350D01*
X296384Y109350D01*
Y108073D01*
X295815D01*
Y104873D01*
X298390D01*
Y105910D01*
X298777Y106227D01*
X298943Y106194D01*
Y104231D01*
X292567Y97856D01*
X287045D01*
Y100050D01*
X277816D01*
X277538Y100466D01*
X277831Y101173D01*
X277387Y102245D01*
X277507Y102534D01*
X278247Y103273D01*
X279914D01*
Y106473D01*
X277340D01*
Y105428D01*
X275450Y103539D01*
X275133Y102773D01*
X275133Y102773D01*
Y101977D01*
X274801Y101173D01*
X275244Y100102D01*
X276316Y99658D01*
X276968Y99928D01*
X277384Y99650D01*
Y97730D01*
X277196Y97653D01*
X276972Y97560D01*
X276972Y97560D01*
X274361Y94950D01*
X273316D01*
Y92375D01*
X276516D01*
Y94042D01*
X276922Y94448D01*
X277384Y94257D01*
Y93539D01*
X287045D01*
Y95691D01*
X293016D01*
X293016Y95691D01*
X293781Y96008D01*
X300791Y103017D01*
X300791Y103017D01*
X300884Y103242D01*
X301012Y103551D01*
X301502Y103453D01*
Y102590D01*
X299851Y100939D01*
X299534Y100173D01*
X299534Y100173D01*
Y91673D01*
X299534Y91673D01*
X299851Y90908D01*
X302187Y88572D01*
Y83696D01*
X311848D01*
Y86016D01*
X312260Y86187D01*
X314870Y88797D01*
X315689D01*
Y83259D01*
X301074Y68643D01*
X275739D01*
X275405Y69450D01*
X273516Y70233D01*
X271627Y69450D01*
X270844Y67561D01*
X271627Y65671D01*
X272497Y65311D01*
Y64811D01*
X271627Y64450D01*
X270844Y62561D01*
X271627Y60671D01*
X272497Y60311D01*
Y59811D01*
X271627Y59450D01*
X270844Y57561D01*
X271627Y55671D01*
X272497Y55311D01*
Y54811D01*
X271627Y54450D01*
X270844Y52561D01*
X271627Y50671D01*
X271993Y50520D01*
X271896Y50029D01*
X271047D01*
Y45092D01*
X275984D01*
Y46478D01*
X307822D01*
X307822Y46478D01*
X308588Y46795D01*
X333187Y71395D01*
X333188Y71395D01*
X333505Y72161D01*
Y99686D01*
X334022D01*
Y102261D01*
X330822D01*
Y99686D01*
X331340D01*
Y72609D01*
X307374Y48643D01*
X275984D01*
Y50029D01*
X275136D01*
X275039Y50520D01*
X275405Y50671D01*
X275739Y51478D01*
X304822D01*
X304822Y51478D01*
X305588Y51795D01*
X329978Y76186D01*
X329978Y76186D01*
X330071Y76410D01*
X330295Y76951D01*
X330295Y76951D01*
Y99170D01*
X330295Y99170D01*
X330071Y99711D01*
X329978Y99936D01*
X329978Y99936D01*
X329322Y100591D01*
Y102261D01*
X326122D01*
Y99745D01*
Y99745D01*
X325660Y99553D01*
X324622Y100591D01*
Y102261D01*
X321422D01*
Y99686D01*
X322466D01*
X324902Y97250D01*
Y81871D01*
X301674Y58643D01*
X275739D01*
X275405Y59450D01*
X274534Y59811D01*
Y60311D01*
X275405Y60671D01*
X275739Y61478D01*
X301231D01*
X301231Y61478D01*
X301996Y61795D01*
X323995Y83795D01*
X323995Y83795D01*
X324088Y84019D01*
X324312Y84560D01*
X324312Y84560D01*
Y95274D01*
X324312Y95274D01*
X324088Y95815D01*
X323995Y96039D01*
X323995Y96039D01*
X319922Y100113D01*
Y102261D01*
X316722D01*
Y99686D01*
X317445D01*
X317557Y99417D01*
X320614Y96360D01*
X320516Y95869D01*
X320039Y95671D01*
X319595Y94600D01*
X320039Y93528D01*
X321110Y93085D01*
X321732Y93342D01*
X322148Y93064D01*
Y85008D01*
X300782Y63643D01*
X275739D01*
X275405Y64450D01*
X274534Y64811D01*
Y65311D01*
X275405Y65671D01*
X275739Y66478D01*
X301522D01*
X301522Y66478D01*
X302288Y66795D01*
X317537Y82045D01*
X317854Y82810D01*
X317854Y82810D01*
Y96411D01*
X317854Y96411D01*
X317630Y96952D01*
X317537Y97176D01*
X317537Y97176D01*
X315165Y99549D01*
X315222Y99686D01*
X315222D01*
X315222Y99686D01*
Y102261D01*
X312022D01*
Y99686D01*
X312288D01*
X312540Y99561D01*
X312540Y99561D01*
X312540D01*
X312857Y98795D01*
X315689Y95963D01*
Y91372D01*
X312716D01*
Y89704D01*
X312310Y89298D01*
X311848Y89490D01*
Y90208D01*
X305430D01*
X305332Y90698D01*
X305717Y90858D01*
X306161Y91929D01*
X305717Y93001D01*
X304646Y93445D01*
X303574Y93001D01*
X303130Y91929D01*
X303517Y90997D01*
X303101Y90719D01*
X301698Y92122D01*
Y99725D01*
X303350Y101376D01*
X303350Y101376D01*
X303508Y101759D01*
X303667Y102142D01*
X303667Y102142D01*
Y109350D01*
X303774D01*
Y113500D01*
X301568D01*
X301568Y113500D01*
Y113500D01*
X301396Y113500D01*
X301305D01*
X301215D01*
X301042Y113500D01*
X301042Y113500D01*
Y113500D01*
X299009D01*
X299009Y113500D01*
Y113500D01*
X298837Y113500D01*
X298746D01*
X298656D01*
X298483Y113500D01*
X298483Y113500D01*
Y113500D01*
X296450D01*
X296450Y113500D01*
Y113500D01*
X296277Y113500D01*
X296187D01*
X296096D01*
X295924Y113500D01*
X295924Y113500D01*
Y113500D01*
X294029D01*
Y115394D01*
X294029Y115394D01*
D01*
D01*
X294029Y115567D01*
Y115590D01*
Y115657D01*
X294029Y115748D01*
D01*
X294029Y115920D01*
X294029Y115920D01*
X294029D01*
Y117954D01*
X294029Y117954D01*
D01*
D01*
X294029Y118126D01*
Y118149D01*
Y118217D01*
X294029Y118307D01*
D01*
X294029Y118480D01*
X294029Y118480D01*
X294029D01*
Y120513D01*
X294029Y120513D01*
D01*
D01*
X294029Y120685D01*
Y120708D01*
Y120776D01*
X294029Y120866D01*
D01*
X294029Y121039D01*
X294029Y121039D01*
X294029D01*
Y123072D01*
X294029Y123072D01*
D01*
D01*
X294029Y123244D01*
Y123267D01*
Y123335D01*
X294029Y123425D01*
D01*
X294029Y123598D01*
X294029Y123598D01*
X294029D01*
Y125803D01*
X289880D01*
Y125697D01*
X286723D01*
X284007Y128413D01*
X284285Y128828D01*
X284747Y128637D01*
X285895Y129113D01*
X286370Y130261D01*
X286370Y130261D01*
X286370Y130261D01*
X286380Y130275D01*
X288384D01*
X289691Y128967D01*
X289691Y128967D01*
X289880Y128889D01*
Y128543D01*
X294029D01*
Y130921D01*
X290799D01*
X289081Y132639D01*
X288316Y132956D01*
X288316Y132956D01*
X286359D01*
X286359Y132956D01*
X286103Y132850D01*
X285216D01*
Y132261D01*
X284812Y131857D01*
X284747Y131884D01*
X283906Y131536D01*
X283490Y131814D01*
Y132712D01*
X283598Y132973D01*
Y133052D01*
X284314Y133768D01*
X289880D01*
Y133661D01*
X294029D01*
Y136039D01*
D01*
Y136039D01*
X294029Y136039D01*
Y136221D01*
X294029D01*
Y138426D01*
X294029Y138426D01*
D01*
D01*
X294029Y138598D01*
Y138622D01*
Y138689D01*
X294029Y138779D01*
D01*
X294029Y138952D01*
X294029Y138952D01*
X294029D01*
Y140846D01*
X296096D01*
Y140846D01*
X296096D01*
X296096Y140846D01*
X296277D01*
Y140846D01*
X298656D01*
Y140846D01*
X298655D01*
X298656Y140846D01*
X298837D01*
Y140846D01*
X301215D01*
Y140846D01*
X301215D01*
X301215Y140846D01*
X301396D01*
Y140846D01*
X303601D01*
X303601Y140846D01*
Y140846D01*
X303774Y140846D01*
X303864D01*
X303955D01*
X304127Y140846D01*
X304127Y140846D01*
Y140846D01*
X306333D01*
Y144996D01*
X306226D01*
Y145639D01*
X305909Y146405D01*
X305909Y146405D01*
X305005Y147309D01*
Y148784D01*
X305522D01*
Y151359D01*
X302322D01*
Y148784D01*
X302840D01*
Y146861D01*
X302840Y146861D01*
X302906Y146701D01*
X302490Y146424D01*
X300591Y148322D01*
X300782Y148784D01*
X300822D01*
Y151359D01*
X297622D01*
Y149145D01*
X297160Y148953D01*
X296122Y149991D01*
Y151359D01*
X292922D01*
Y148784D01*
X294268D01*
X295447Y147605D01*
X295256Y147143D01*
X292695D01*
X291314Y148524D01*
X291422Y148786D01*
X291422D01*
X291422Y148786D01*
Y151361D01*
D02*
G37*
G36*
X250478Y142380D02*
X249636Y142031D01*
X249287Y141189D01*
X249636Y140347D01*
X250478Y139999D01*
X251320Y140347D01*
X251669Y141189D01*
X251320Y142031D01*
X250478Y142380D01*
D02*
G37*
G36*
X245478D02*
X244636Y142031D01*
X244287Y141189D01*
X244636Y140347D01*
X245478Y139999D01*
X246320Y140347D01*
X246669Y141189D01*
X246320Y142031D01*
X245478Y142380D01*
D02*
G37*
G36*
X259600Y145341D02*
X258758Y144992D01*
X258409Y144150D01*
X258758Y143308D01*
X259600Y142959D01*
X260442Y143308D01*
X260791Y144150D01*
X260442Y144992D01*
X259600Y145341D01*
D02*
G37*
G36*
X4254Y143428D02*
X3412Y143079D01*
X3064Y142237D01*
X3412Y141395D01*
X4254Y141047D01*
X5096Y141395D01*
X5445Y142237D01*
X5096Y143079D01*
X4254Y143428D01*
D02*
G37*
G36*
X240905Y148277D02*
X240064Y147929D01*
X239715Y147087D01*
X240064Y146245D01*
X240905Y145896D01*
X241747Y146245D01*
X242096Y147087D01*
X241747Y147929D01*
X240905Y148277D01*
D02*
G37*
G36*
X153122Y149143D02*
X152280Y148795D01*
X151932Y147953D01*
X152280Y147111D01*
X153122Y146762D01*
X153964Y147111D01*
X154313Y147953D01*
X153964Y148795D01*
X153122Y149143D01*
D02*
G37*
G36*
X149222D02*
X148380Y148795D01*
X148031Y147953D01*
X148380Y147111D01*
X149222Y146762D01*
X150064Y147111D01*
X150413Y147953D01*
X150064Y148795D01*
X149222Y149143D01*
D02*
G37*
G36*
X159803D02*
X158961Y148795D01*
X158613Y147953D01*
X158961Y147111D01*
X159803Y146762D01*
X160645Y147111D01*
X160994Y147953D01*
X160645Y148795D01*
X159803Y149143D01*
D02*
G37*
G36*
X156722D02*
X155880Y148795D01*
X155532Y147953D01*
X155880Y147111D01*
X156722Y146762D01*
X157564Y147111D01*
X157913Y147953D01*
X157564Y148795D01*
X156722Y149143D01*
D02*
G37*
G36*
X140222Y154551D02*
X139380Y154203D01*
X139032Y153361D01*
X139380Y152519D01*
X139883Y152311D01*
Y151811D01*
X139380Y151603D01*
X139032Y150761D01*
X139380Y149919D01*
X139847Y149725D01*
Y149225D01*
X139473Y149070D01*
X139124Y148228D01*
X139473Y147386D01*
X140315Y147038D01*
X140573Y147144D01*
X141093Y146929D01*
Y146929D01*
X141093Y146929D01*
X141442Y146087D01*
X142283Y145738D01*
X143125Y146087D01*
X143474Y146929D01*
X143393Y147126D01*
X143618Y147670D01*
X143618D01*
X143618Y147670D01*
X144460Y148019D01*
X144476Y148058D01*
X144731Y147953D01*
X145080Y147111D01*
X145922Y146762D01*
X146764Y147111D01*
X147113Y147953D01*
X146764Y148795D01*
X145922Y149143D01*
X145080Y148795D01*
X145064Y148755D01*
X144809Y148861D01*
X144460Y149703D01*
X143618Y150051D01*
X142776Y149703D01*
X142428Y148861D01*
X142509Y148664D01*
X142343Y148264D01*
X141881Y148073D01*
X141506Y148228D01*
Y148228D01*
X141506Y148228D01*
X141157Y149070D01*
X140690Y149264D01*
Y149764D01*
X141064Y149919D01*
X141413Y150761D01*
X141064Y151603D01*
X140562Y151811D01*
Y152311D01*
X141064Y152519D01*
X141413Y153361D01*
X141064Y154203D01*
X140222Y154551D01*
D02*
G37*
G36*
X4254Y148428D02*
X3412Y148079D01*
X3064Y147237D01*
X3412Y146395D01*
X4254Y146047D01*
X5096Y146395D01*
X5445Y147237D01*
X5096Y148079D01*
X4254Y148428D01*
D02*
G37*
G36*
X259778Y151395D02*
X257864Y150603D01*
X257072Y148689D01*
X257864Y146776D01*
X259778Y145983D01*
X261691Y146776D01*
X262484Y148689D01*
X261691Y150603D01*
X259778Y151395D01*
D02*
G37*
G36*
X13222Y8351D02*
X12380Y8003D01*
X12032Y7161D01*
X12380Y6319D01*
X13222Y5970D01*
X14064Y6319D01*
X14413Y7161D01*
X14064Y8003D01*
X13222Y8351D01*
D02*
G37*
G36*
X268522Y148851D02*
X267680Y148503D01*
X267332Y147661D01*
X267680Y146819D01*
X268522Y146470D01*
X269364Y146819D01*
X269713Y147661D01*
X269364Y148503D01*
X268522Y148851D01*
D02*
G37*
G36*
X143222Y168351D02*
X142380Y168003D01*
X142032Y167161D01*
X142380Y166319D01*
X143222Y165970D01*
X144064Y166319D01*
X144413Y167161D01*
X144064Y168003D01*
X143222Y168351D01*
D02*
G37*
G36*
X246922Y167451D02*
X246080Y167103D01*
X245731Y166261D01*
X246080Y165419D01*
X246922Y165070D01*
X247764Y165419D01*
X248113Y166261D01*
X247764Y167103D01*
X246922Y167451D01*
D02*
G37*
G36*
X157222Y168351D02*
X156380Y168003D01*
X156032Y167161D01*
X156380Y166319D01*
X157222Y165970D01*
X158064Y166319D01*
X158413Y167161D01*
X158064Y168003D01*
X157222Y168351D01*
D02*
G37*
G36*
X182222D02*
X181380Y168003D01*
X181032Y167161D01*
X181380Y166319D01*
X182222Y165970D01*
X183064Y166319D01*
X183413Y167161D01*
X183064Y168003D01*
X182222Y168351D01*
D02*
G37*
G36*
X162222D02*
X161380Y168003D01*
X161031Y167161D01*
X161380Y166319D01*
X162222Y165970D01*
X163064Y166319D01*
X163413Y167161D01*
X163064Y168003D01*
X162222Y168351D01*
D02*
G37*
G36*
X172600Y169441D02*
X171758Y169092D01*
X171409Y168250D01*
X171758Y167408D01*
X172429Y167130D01*
D01*
Y166681D01*
X172429D01*
Y166630D01*
X171880Y166403D01*
X171531Y165561D01*
X171880Y164719D01*
X172722Y164370D01*
X173564Y164719D01*
X173913Y165561D01*
X173564Y166403D01*
X172893Y166681D01*
D01*
Y167130D01*
X172893D01*
Y167181D01*
X173442Y167408D01*
X173791Y168250D01*
X173442Y169092D01*
X172600Y169441D01*
D02*
G37*
G36*
X208780Y165561D02*
X207938Y165212D01*
X207589Y164370D01*
X207938Y163528D01*
X208780Y163179D01*
X209621Y163528D01*
X209970Y164370D01*
X209621Y165212D01*
X208780Y165561D01*
D02*
G37*
G36*
X152422Y166851D02*
X151580Y166503D01*
X151232Y165661D01*
X151580Y164819D01*
X152422Y164470D01*
X153264Y164819D01*
X153613Y165661D01*
X153264Y166503D01*
X152422Y166851D01*
D02*
G37*
G36*
X257822Y166951D02*
X256980Y166603D01*
X256631Y165761D01*
X256980Y164919D01*
X257822Y164570D01*
X258664Y164919D01*
X259013Y165761D01*
X258664Y166603D01*
X257822Y166951D01*
D02*
G37*
G36*
X216811Y166939D02*
X215969Y166590D01*
X215620Y165748D01*
X215969Y164906D01*
X216811Y164557D01*
X217653Y164906D01*
X218002Y165748D01*
X217653Y166590D01*
X216811Y166939D01*
D02*
G37*
G36*
X231060Y169234D02*
X230218Y168886D01*
X229870Y168044D01*
X230218Y167202D01*
X231060Y166853D01*
X231902Y167202D01*
X232251Y168044D01*
X231902Y168886D01*
X231060Y169234D01*
D02*
G37*
G36*
X278000Y168482D02*
X277235Y168165D01*
X276918Y167400D01*
X277235Y166635D01*
X278000Y166318D01*
X278765Y166635D01*
X279082Y167400D01*
X278765Y168165D01*
X278000Y168482D01*
D02*
G37*
G36*
X314466Y168476D02*
X313395Y168032D01*
X313216Y167601D01*
X312716D01*
X312538Y168032D01*
X311466Y168476D01*
X310395Y168032D01*
X310216Y167601D01*
X309716D01*
X309538Y168032D01*
X308466Y168476D01*
X307395Y168032D01*
X306951Y166961D01*
X307395Y165889D01*
X308466Y165445D01*
X309538Y165889D01*
X309716Y166320D01*
X310216D01*
X310395Y165889D01*
X311466Y165445D01*
X312538Y165889D01*
X312716Y166320D01*
X313216D01*
X313395Y165889D01*
X314466Y165445D01*
X315538Y165889D01*
X315982Y166961D01*
X315538Y168032D01*
X314466Y168476D01*
D02*
G37*
G36*
X233960Y170434D02*
X233118Y170086D01*
X232769Y169244D01*
X233118Y168402D01*
X233960Y168053D01*
X234802Y168402D01*
X235151Y169244D01*
X234802Y170086D01*
X233960Y170434D01*
D02*
G37*
G36*
X242060Y170234D02*
X241218Y169886D01*
X240869Y169044D01*
X241218Y168202D01*
X242060Y167853D01*
X242902Y168202D01*
X243251Y169044D01*
X242902Y169886D01*
X242060Y170234D01*
D02*
G37*
G36*
X192222Y168351D02*
X191380Y168003D01*
X191032Y167161D01*
X191380Y166319D01*
X192222Y165970D01*
X193064Y166319D01*
X193413Y167161D01*
X193064Y168003D01*
X192222Y168351D01*
D02*
G37*
G36*
X187222D02*
X186380Y168003D01*
X186031Y167161D01*
X186380Y166319D01*
X187222Y165970D01*
X188064Y166319D01*
X188413Y167161D01*
X188064Y168003D01*
X187222Y168351D01*
D02*
G37*
G36*
X197222D02*
X196380Y168003D01*
X196031Y167161D01*
X196380Y166319D01*
X197222Y165970D01*
X198064Y166319D01*
X198413Y167161D01*
X198064Y168003D01*
X197222Y168351D01*
D02*
G37*
G36*
X134843Y168474D02*
X134001Y168125D01*
X133652Y167283D01*
X134001Y166442D01*
X134843Y166093D01*
X135684Y166442D01*
X136033Y167283D01*
X135684Y168125D01*
X134843Y168474D01*
D02*
G37*
G36*
X4254Y168428D02*
X3412Y168079D01*
X3064Y167237D01*
X3412Y166395D01*
X4254Y166047D01*
X5096Y166395D01*
X5445Y167237D01*
X5096Y168079D01*
X4254Y168428D01*
D02*
G37*
G36*
X189921Y158907D02*
X189079Y158558D01*
X188731Y157717D01*
X189079Y156875D01*
X189921Y156526D01*
X190763Y156875D01*
X191112Y157717D01*
X190763Y158558D01*
X189921Y158907D01*
D02*
G37*
G36*
X138071Y158474D02*
X137229Y158125D01*
X136880Y157283D01*
X137020Y156946D01*
X136815Y156451D01*
X136815D01*
X136815Y156451D01*
X135973Y156103D01*
X135624Y155261D01*
X135973Y154419D01*
X136815Y154070D01*
X137657Y154419D01*
X138006Y155261D01*
X137866Y155598D01*
X138071Y156093D01*
X138071D01*
X138071Y156093D01*
X138754Y156376D01*
X139032Y156261D01*
Y156261D01*
X139032Y156261D01*
X139380Y155419D01*
X140222Y155070D01*
X141064Y155419D01*
X141413Y156261D01*
X141413Y156261D01*
X141413D01*
X141637Y156354D01*
X142362Y156053D01*
X142362Y156053D01*
Y156053D01*
X142559Y155578D01*
X142428Y155261D01*
X142776Y154419D01*
X143618Y154070D01*
X144460Y154419D01*
X144809Y155261D01*
X144460Y156103D01*
X143618Y156451D01*
X143618Y156451D01*
Y156451D01*
X143421Y156927D01*
X143553Y157244D01*
X143204Y158086D01*
X142362Y158435D01*
X141520Y158086D01*
X141172Y157244D01*
X141172Y157244D01*
X141172D01*
X140947Y157151D01*
X140222Y157451D01*
X139539Y157168D01*
X139261Y157283D01*
Y157283D01*
X139261Y157283D01*
X138913Y158125D01*
X138071Y158474D01*
D02*
G37*
G36*
X235591Y159104D02*
X234749Y158755D01*
X234400Y157913D01*
X234749Y157071D01*
X235591Y156723D01*
X236433Y157071D01*
X236781Y157913D01*
X236433Y158755D01*
X235591Y159104D01*
D02*
G37*
G36*
X220945Y158986D02*
X220103Y158637D01*
X219754Y157795D01*
X220103Y156953D01*
X220945Y156605D01*
X221787Y156953D01*
X222135Y157795D01*
X221787Y158637D01*
X220945Y158986D01*
D02*
G37*
G36*
X252953Y158513D02*
X252111Y158165D01*
X251762Y157323D01*
X252111Y156481D01*
X252953Y156132D01*
X253795Y156481D01*
X254143Y157323D01*
X253795Y158165D01*
X252953Y158513D01*
D02*
G37*
G36*
X170630Y157135D02*
X169788Y156787D01*
X169439Y155945D01*
X169788Y155103D01*
X170630Y154754D01*
X171472Y155103D01*
X171821Y155945D01*
X171472Y156787D01*
X170630Y157135D01*
D02*
G37*
G36*
X167480D02*
X166638Y156787D01*
X166290Y155945D01*
X166638Y155103D01*
X167480Y154754D01*
X168322Y155103D01*
X168671Y155945D01*
X168322Y156787D01*
X167480Y157135D01*
D02*
G37*
G36*
X4254Y158428D02*
X3412Y158079D01*
X3064Y157237D01*
X3412Y156395D01*
X4254Y156047D01*
X5096Y156395D01*
X5445Y157237D01*
X5096Y158079D01*
X4254Y158428D01*
D02*
G37*
G36*
X199646Y158395D02*
X198804Y158047D01*
X198455Y157205D01*
X198804Y156363D01*
X199646Y156014D01*
X200488Y156363D01*
X200836Y157205D01*
X200488Y158047D01*
X199646Y158395D01*
D02*
G37*
G36*
X210748Y159970D02*
X209906Y159621D01*
X209557Y158780D01*
X209906Y157938D01*
X210748Y157589D01*
X211590Y157938D01*
X211939Y158780D01*
X211590Y159621D01*
X210748Y159970D01*
D02*
G37*
G36*
X152422Y161054D02*
X151580Y160705D01*
X151232Y159863D01*
X151580Y159021D01*
X152422Y158672D01*
X153264Y159021D01*
X153613Y159863D01*
X153264Y160705D01*
X152422Y161054D01*
D02*
G37*
G36*
X168022Y160651D02*
X167180Y160303D01*
X166832Y159461D01*
X167180Y158619D01*
X168022Y158270D01*
X168864Y158619D01*
X169213Y159461D01*
X168864Y160303D01*
X168022Y160651D01*
D02*
G37*
G36*
X265922Y161351D02*
X265080Y161003D01*
X264732Y160161D01*
X265080Y159319D01*
X265922Y158970D01*
X266764Y159319D01*
X267113Y160161D01*
X266764Y161003D01*
X265922Y161351D01*
D02*
G37*
G36*
X38322Y8151D02*
X37480Y7803D01*
X37132Y6961D01*
X37480Y6119D01*
X38322Y5770D01*
X39164Y6119D01*
X39513Y6961D01*
X39164Y7803D01*
X38322Y8151D01*
D02*
G37*
G36*
X4254Y163428D02*
X3412Y163079D01*
X3064Y162237D01*
X3412Y161395D01*
X4254Y161047D01*
X5096Y161395D01*
X5445Y162237D01*
X5096Y163079D01*
X4254Y163428D01*
D02*
G37*
G36*
X185315Y160364D02*
X184473Y160015D01*
X184124Y159173D01*
X184473Y158331D01*
X185315Y157983D01*
X186157Y158331D01*
X186506Y159173D01*
X186157Y160015D01*
X185315Y160364D01*
D02*
G37*
G36*
X175236Y160403D02*
X174394Y160054D01*
X174045Y159212D01*
X174394Y158370D01*
X175236Y158022D01*
X176078Y158370D01*
X176426Y159212D01*
X176078Y160054D01*
X175236Y160403D01*
D02*
G37*
%LPD*%
G36*
X126685Y169387D02*
X126654Y108386D01*
X130123D01*
X130268Y107907D01*
X129913Y107670D01*
X129603Y107207D01*
X129495Y106661D01*
X129603Y106114D01*
X129913Y105651D01*
X130376Y105342D01*
X130922Y105233D01*
X131468Y105342D01*
X131931Y105651D01*
X132241Y106114D01*
X132350Y106661D01*
X132241Y107207D01*
X131931Y107670D01*
X131576Y107907D01*
X131721Y108386D01*
X134851D01*
X135009Y108149D01*
X135473Y107840D01*
X136019Y107731D01*
X136565Y107840D01*
X137028Y108149D01*
X137186Y108386D01*
X145622D01*
X145910Y107955D01*
X146373Y107645D01*
X146902Y107540D01*
X146918Y107524D01*
X147249Y107303D01*
X147639Y107225D01*
X151533D01*
X151923Y107303D01*
X152254Y107524D01*
X153115Y108386D01*
X160039D01*
Y78425D01*
X170787D01*
X170766Y81318D01*
X171151Y81637D01*
X171422Y81583D01*
X171968Y81692D01*
X172431Y82001D01*
X172741Y82464D01*
X172850Y83011D01*
X172741Y83557D01*
X172431Y84020D01*
X171968Y84329D01*
X171422Y84438D01*
X171128Y84380D01*
X170953Y84523D01*
X171000Y85020D01*
X171179Y85117D01*
X171222Y85088D01*
X171769Y84980D01*
X172315Y85088D01*
X172778Y85398D01*
X173087Y85861D01*
X173196Y86407D01*
X173087Y86953D01*
X172778Y87416D01*
X172315Y87726D01*
X171769Y87835D01*
X171222Y87726D01*
X171158Y87683D01*
X170717Y87917D01*
X170709Y88976D01*
Y146850D01*
X235552Y146929D01*
X235905Y146575D01*
X235885Y124234D01*
X235387Y124186D01*
X235335Y124450D01*
X235025Y124913D01*
X234562Y125223D01*
X234016Y125331D01*
X233470Y125223D01*
X233007Y124913D01*
X232697Y124450D01*
X232589Y123904D01*
X232697Y123358D01*
X232869Y123100D01*
X232633Y122660D01*
X232406D01*
Y120085D01*
X235527D01*
X235881Y119731D01*
X235718Y119371D01*
X235718D01*
X235408Y118908D01*
X235299Y118362D01*
X235408Y117816D01*
X235718Y117353D01*
X235879Y117245D01*
X235877Y115670D01*
X235490Y115353D01*
X234958Y115459D01*
X234411Y115350D01*
X233948Y115041D01*
X233639Y114578D01*
X233530Y114032D01*
X233639Y113485D01*
X233948Y113022D01*
X234411Y112713D01*
X234946Y112606D01*
X235224Y112191D01*
X235199Y112063D01*
X235226Y111928D01*
X234948Y111513D01*
X234448Y111413D01*
X233985Y111104D01*
X233676Y110641D01*
X233567Y110094D01*
X233676Y109548D01*
X233985Y109085D01*
X234448Y108776D01*
X234983Y108669D01*
X235261Y108254D01*
X235236Y108126D01*
X235261Y107997D01*
X234983Y107582D01*
X234454Y107476D01*
X233991Y107167D01*
X233681Y106704D01*
X233573Y106157D01*
X233681Y105611D01*
X233991Y105148D01*
X234454Y104839D01*
X235000Y104730D01*
X235481Y104826D01*
X235867Y104508D01*
X235866Y103543D01*
X246102D01*
Y102734D01*
X246063D01*
X245439Y102610D01*
X244910Y102256D01*
X244556Y101727D01*
X244432Y101102D01*
X244556Y100478D01*
X244910Y99949D01*
X245439Y99595D01*
X246063Y99471D01*
X246102D01*
Y42283D01*
X309213D01*
Y40265D01*
X308826Y39948D01*
X308347Y40044D01*
X307371Y39849D01*
X306544Y39297D01*
X305992Y38470D01*
X305798Y37495D01*
X305992Y36519D01*
X306544Y35692D01*
X307028Y35369D01*
Y34869D01*
X306720Y34663D01*
X306167Y33836D01*
X305973Y32861D01*
X306167Y31885D01*
X306720Y31058D01*
X307203Y30736D01*
Y30236D01*
X306720Y29913D01*
X306167Y29086D01*
X305973Y28111D01*
X306167Y27135D01*
X306720Y26308D01*
X307203Y25986D01*
Y25486D01*
X306720Y25163D01*
X306167Y24336D01*
X305973Y23361D01*
X306167Y22385D01*
X306720Y21558D01*
X307547Y21006D01*
X308522Y20812D01*
X308826Y20872D01*
X309213Y20555D01*
Y9552D01*
X308772Y9317D01*
X308651Y9397D01*
X308222Y9482D01*
X307793Y9397D01*
X307429Y9154D01*
X307186Y8790D01*
X307101Y8361D01*
X307186Y7931D01*
X307429Y7568D01*
X307793Y7324D01*
X308222Y7239D01*
X308651Y7324D01*
X308772Y7405D01*
X309213Y7169D01*
Y3347D01*
X66535D01*
X66181Y3700D01*
X66203Y43679D01*
X66518Y43742D01*
X66981Y44051D01*
X67291Y44514D01*
X67400Y45061D01*
X67291Y45607D01*
X66981Y46070D01*
X66518Y46380D01*
X66205Y46442D01*
X66217Y69188D01*
X66272Y69233D01*
X66818Y69342D01*
X67281Y69651D01*
X67591Y70114D01*
X67699Y70661D01*
X67591Y71207D01*
X67281Y71670D01*
X66818Y71979D01*
X66272Y72088D01*
X66219Y72132D01*
X66220Y75236D01*
X18990D01*
X18636Y75590D01*
X18670Y169703D01*
X126331Y169740D01*
X126685Y169387D01*
D02*
G37*
G36*
X328130Y98722D02*
Y77399D01*
X304374Y53643D01*
X275739D01*
X275405Y54450D01*
X274534Y54811D01*
Y55311D01*
X275405Y55671D01*
X275739Y56478D01*
X302122D01*
X302122Y56478D01*
X302888Y56795D01*
X326750Y80658D01*
X326750Y80658D01*
X326842Y80882D01*
X327067Y81423D01*
X327067Y81423D01*
Y97699D01*
X326750Y98464D01*
X326750Y98464D01*
X325989Y99224D01*
X326181Y99686D01*
X327166D01*
X328130Y98722D01*
D02*
G37*
%LPC*%
G36*
X240421Y24280D02*
X235484D01*
Y19342D01*
X240421D01*
Y24280D01*
D02*
G37*
G36*
X194569Y123869D02*
X189631D01*
Y118931D01*
X194569D01*
Y123869D01*
D02*
G37*
G36*
X201986Y118660D02*
X199412D01*
Y115460D01*
X201958D01*
X201958Y115460D01*
X201958D01*
X202000Y115408D01*
X202000D01*
X202200Y115164D01*
Y115164D01*
X202275Y115074D01*
X202188Y114640D01*
X202036Y114600D01*
D01*
X202036Y114600D01*
X202036D01*
X202036D01*
X202036Y114600D01*
X199462D01*
Y112776D01*
X199000Y112584D01*
X198458Y113126D01*
Y114600D01*
X198011D01*
Y115460D01*
X198408D01*
Y118660D01*
X195834D01*
Y118097D01*
X195807Y118079D01*
X195497Y117616D01*
X195388Y117070D01*
X195497Y116524D01*
X195807Y116061D01*
X195834Y116043D01*
Y115460D01*
X195869D01*
Y113130D01*
X195884Y113059D01*
Y111400D01*
X197156D01*
X198552Y110004D01*
Y109504D01*
X197352Y108303D01*
X195889D01*
Y106732D01*
X195877Y106713D01*
X195795Y106303D01*
Y104230D01*
Y96342D01*
X195611Y96066D01*
X195503Y95520D01*
X195611Y94974D01*
X195921Y94511D01*
X195944Y94495D01*
Y93990D01*
X198518D01*
Y97190D01*
X197936D01*
Y100203D01*
X198464D01*
Y103029D01*
X203578D01*
X203611Y102981D01*
X203696Y102924D01*
X203690Y102903D01*
X203690D01*
X203690Y102903D01*
Y101841D01*
X202846Y100997D01*
X202604Y100949D01*
X202141Y100639D01*
X201831Y100176D01*
X201723Y99630D01*
X201831Y99084D01*
X202141Y98621D01*
X202604Y98311D01*
X202904Y98252D01*
X203595Y97560D01*
Y96603D01*
X203677Y96193D01*
X203690Y96175D01*
Y95003D01*
X206264D01*
Y98203D01*
X205697D01*
X205655Y98413D01*
X205423Y98760D01*
X205423Y98760D01*
X204942Y99241D01*
X205133Y99703D01*
X206264D01*
Y102903D01*
X206108D01*
X205872Y103344D01*
X205939Y103444D01*
X206047Y103990D01*
X205939Y104536D01*
X205629Y104999D01*
X205166Y105309D01*
X204620Y105417D01*
X204074Y105309D01*
X203867Y105171D01*
X198464D01*
Y106388D01*
X200896Y108819D01*
X202160D01*
X202570Y108901D01*
X202917Y109133D01*
X204633Y110849D01*
X205046Y110931D01*
X205509Y111241D01*
X205819Y111704D01*
X205927Y112250D01*
X205819Y112796D01*
X205509Y113259D01*
X205046Y113569D01*
X204884Y113961D01*
X204919Y114014D01*
X205027Y114560D01*
X204919Y115106D01*
X204783Y115310D01*
X204896Y115691D01*
X204896D01*
X204896Y115691D01*
X204896D01*
X204896D01*
X205359Y116001D01*
X205669Y116464D01*
X205777Y117010D01*
X205669Y117556D01*
X205359Y118019D01*
X204896Y118329D01*
X204350Y118437D01*
X203804Y118329D01*
X203386Y118050D01*
X201986D01*
Y118660D01*
D02*
G37*
G36*
X215516Y125331D02*
X214970Y125223D01*
X214507Y124913D01*
X214197Y124450D01*
X214089Y123904D01*
X214186Y123412D01*
Y122660D01*
X213606D01*
Y120085D01*
X216806D01*
Y122660D01*
X216806D01*
X216806Y123315D01*
X216835Y123358D01*
X216943Y123904D01*
X216835Y124450D01*
X216525Y124913D01*
X216062Y125223D01*
X215516Y125331D01*
D02*
G37*
G36*
X201860Y125367D02*
X201314Y125259D01*
X200851Y124949D01*
X200541Y124486D01*
X200433Y123940D01*
X200541Y123394D01*
X200846Y122937D01*
Y121203D01*
X200889Y120986D01*
Y119603D01*
X203464D01*
Y122803D01*
X203314D01*
X203079Y123244D01*
X203179Y123394D01*
X203287Y123940D01*
X203179Y124486D01*
X202869Y124949D01*
X202406Y125259D01*
X201860Y125367D01*
D02*
G37*
G36*
X203545Y94430D02*
X202999Y94321D01*
X202536Y94012D01*
X202510Y93973D01*
X201992Y93973D01*
Y93973D01*
X199417D01*
Y90773D01*
X201992D01*
Y91354D01*
X202902D01*
X202942Y91223D01*
X203015Y90854D01*
X202978Y90829D01*
X202602Y90267D01*
X202470Y89603D01*
X202602Y88940D01*
X202978Y88378D01*
X204778Y86578D01*
X205036Y86405D01*
X205010Y86341D01*
X205010Y86341D01*
X204845Y85943D01*
X204200Y86071D01*
X203544Y85941D01*
X202988Y85569D01*
X202616Y85013D01*
X202486Y84357D01*
X202616Y83701D01*
X202988Y83145D01*
X203544Y82774D01*
X204200Y82643D01*
X204856Y82774D01*
X205412Y83145D01*
X205784Y83701D01*
X205914Y84357D01*
X205784Y85013D01*
X205412Y85569D01*
X205160Y85738D01*
X205186Y85802D01*
X205186D01*
X205351Y86200D01*
X206004Y86070D01*
X206285Y86126D01*
X206566Y86070D01*
X211166D01*
X211638Y86164D01*
X213127Y84674D01*
X213690Y84299D01*
X214353Y84167D01*
X214353Y84167D01*
X215188D01*
X215851Y84299D01*
X215853Y84300D01*
X217050D01*
Y87500D01*
X215853D01*
X215851Y87501D01*
X215188Y87633D01*
X215071D01*
X213726Y88978D01*
X213163Y89354D01*
X212500Y89486D01*
X212075Y89402D01*
X211834D01*
X211829Y89405D01*
X211166Y89536D01*
X206722D01*
X205429Y90829D01*
X204867Y91205D01*
X204358Y91306D01*
X204260Y91796D01*
X204554Y91993D01*
X204864Y92456D01*
X204973Y93002D01*
X204864Y93549D01*
X204554Y94012D01*
X204091Y94321D01*
X203545Y94430D01*
D02*
G37*
G36*
X238966Y87301D02*
X238420Y87192D01*
X237957Y86883D01*
X237647Y86419D01*
X237539Y85873D01*
X237647Y85327D01*
X237957Y84864D01*
X238420Y84554D01*
X238966Y84446D01*
X239512Y84554D01*
X239975Y84864D01*
X240285Y85327D01*
X240393Y85873D01*
X240285Y86419D01*
X239975Y86883D01*
X239512Y87192D01*
X238966Y87301D01*
D02*
G37*
G36*
X193272Y116312D02*
X192843Y116227D01*
X192479Y115984D01*
X192236Y115620D01*
X192150Y115191D01*
X192236Y114761D01*
X192479Y114398D01*
X192843Y114155D01*
X193272Y114069D01*
X193701Y114155D01*
X194065Y114398D01*
X194308Y114761D01*
X194394Y115191D01*
X194308Y115620D01*
X194065Y115984D01*
X193701Y116227D01*
X193272Y116312D01*
D02*
G37*
G36*
X235429Y101873D02*
X232854D01*
Y98673D01*
X235429D01*
Y98739D01*
X235870Y98975D01*
X235900Y98954D01*
X236447Y98846D01*
X236993Y98954D01*
X237405Y99230D01*
X237846Y98994D01*
Y98661D01*
X240421D01*
Y101861D01*
X237846D01*
Y101552D01*
X237405Y101317D01*
X236993Y101592D01*
X236447Y101701D01*
X235900Y101592D01*
X235870Y101571D01*
X235429Y101807D01*
Y101873D01*
D02*
G37*
G36*
X50522Y150145D02*
X49839Y150009D01*
X49260Y149622D01*
X48874Y149044D01*
X48738Y148361D01*
X48874Y147678D01*
X49260Y147099D01*
X49839Y146712D01*
X50522Y146576D01*
X51205Y146712D01*
X51784Y147099D01*
X52171Y147678D01*
X52306Y148361D01*
X52171Y149044D01*
X51784Y149622D01*
X51205Y150009D01*
X50522Y150145D01*
D02*
G37*
G36*
X38222Y130888D02*
X37676Y130780D01*
X37213Y130470D01*
X36903Y130007D01*
X36795Y129461D01*
X36903Y128914D01*
X37213Y128451D01*
X37676Y128142D01*
X38222Y128033D01*
X38768Y128142D01*
X39232Y128451D01*
X39541Y128914D01*
X39650Y129461D01*
X39541Y130007D01*
X39232Y130470D01*
X38768Y130780D01*
X38222Y130888D01*
D02*
G37*
G36*
X67114Y167980D02*
X62177D01*
Y163043D01*
X67114D01*
Y167980D01*
D02*
G37*
G36*
X52722Y159588D02*
X52176Y159479D01*
X51713Y159170D01*
X51403Y158707D01*
X51295Y158161D01*
X51403Y157615D01*
X51713Y157151D01*
X52176Y156842D01*
X52722Y156733D01*
X53261Y156840D01*
X53539Y156425D01*
X53494Y156359D01*
X53401Y155890D01*
X53494Y155422D01*
X53760Y155025D01*
X54157Y154760D01*
X54625Y154667D01*
X55093Y154760D01*
X55490Y155025D01*
X55755Y155422D01*
X55848Y155890D01*
X55755Y156359D01*
X55490Y156755D01*
X55093Y157021D01*
X54625Y157114D01*
X54206Y157031D01*
X53929Y157446D01*
X54041Y157615D01*
X54150Y158161D01*
X54041Y158707D01*
X53731Y159170D01*
X53268Y159479D01*
X52722Y159588D01*
D02*
G37*
G36*
X224610Y126147D02*
X224064Y126039D01*
X223601Y125729D01*
X223291Y125266D01*
X223183Y124720D01*
X223291Y124174D01*
X223586Y123732D01*
Y122660D01*
X223006D01*
Y120085D01*
X226206D01*
Y122660D01*
X225625D01*
Y123720D01*
X225929Y124174D01*
X226037Y124720D01*
X225929Y125266D01*
X225619Y125729D01*
X225156Y126039D01*
X224610Y126147D01*
D02*
G37*
G36*
X219916Y125331D02*
X219370Y125223D01*
X218907Y124913D01*
X218597Y124450D01*
X218489Y123904D01*
X218597Y123358D01*
X218769Y123100D01*
X218533Y122660D01*
X218306D01*
Y120085D01*
X221506D01*
Y122660D01*
X221299D01*
X221063Y123100D01*
X221235Y123358D01*
X221343Y123904D01*
X221235Y124450D01*
X220925Y124913D01*
X220462Y125223D01*
X219916Y125331D01*
D02*
G37*
G36*
X23022Y131245D02*
X22339Y131109D01*
X21760Y130722D01*
X21374Y130143D01*
X21238Y129461D01*
X21374Y128778D01*
X21760Y128199D01*
X22339Y127812D01*
X23022Y127676D01*
X23705Y127812D01*
X24284Y128199D01*
X24671Y128778D01*
X24806Y129461D01*
X24671Y130143D01*
X24284Y130722D01*
X23705Y131109D01*
X23022Y131245D01*
D02*
G37*
G36*
X229316Y126731D02*
X228770Y126623D01*
X228307Y126313D01*
X227997Y125850D01*
X227888Y125304D01*
X227997Y124758D01*
X228169Y124501D01*
X227933Y124060D01*
X227706D01*
Y121485D01*
X230906D01*
Y124060D01*
X230699D01*
X230463Y124501D01*
X230635Y124758D01*
X230743Y125304D01*
X230635Y125850D01*
X230325Y126313D01*
X229862Y126623D01*
X229316Y126731D01*
D02*
G37*
G36*
X69272Y43288D02*
X68726Y43180D01*
X68263Y42870D01*
X67953Y42407D01*
X67845Y41861D01*
X67953Y41314D01*
X68263Y40851D01*
X68726Y40542D01*
X69272Y40433D01*
X69818Y40542D01*
X70281Y40851D01*
X70591Y41314D01*
X70700Y41861D01*
X70591Y42407D01*
X70281Y42870D01*
X69818Y43180D01*
X69272Y43288D01*
D02*
G37*
G36*
X112022Y42678D02*
X111059Y42486D01*
X110242Y41940D01*
X109697Y41124D01*
X109505Y40161D01*
X109697Y39197D01*
X110242Y38381D01*
X111059Y37835D01*
X112022Y37644D01*
X112985Y37835D01*
X113802Y38381D01*
X114347Y39197D01*
X114539Y40161D01*
X114347Y41124D01*
X113802Y41940D01*
X112985Y42486D01*
X112022Y42678D01*
D02*
G37*
G36*
X70272Y65488D02*
X69726Y65380D01*
X69263Y65070D01*
X68953Y64607D01*
X68845Y64061D01*
X68953Y63514D01*
X69263Y63051D01*
X69726Y62742D01*
X70272Y62633D01*
X70818Y62742D01*
X71281Y63051D01*
X71591Y63514D01*
X71700Y64061D01*
X71591Y64607D01*
X71281Y65070D01*
X70818Y65380D01*
X70272Y65488D01*
D02*
G37*
G36*
X102422Y58410D02*
X101447Y58216D01*
X100620Y57663D01*
X100222Y57068D01*
X99722D01*
X99325Y57663D01*
X98498Y58216D01*
X97522Y58410D01*
X96547Y58216D01*
X95720Y57663D01*
X95167Y56836D01*
X94973Y55861D01*
X95167Y54885D01*
X95720Y54058D01*
X95866Y53961D01*
Y53461D01*
X95720Y53363D01*
X95167Y52536D01*
X94973Y51561D01*
X95167Y50585D01*
X95720Y49758D01*
X95866Y49661D01*
Y49161D01*
X95720Y49063D01*
X95167Y48236D01*
X94973Y47261D01*
X95167Y46285D01*
X95720Y45458D01*
X96547Y44906D01*
X97522Y44712D01*
X98498Y44906D01*
X99325Y45458D01*
X99722Y46053D01*
X100222D01*
X100620Y45458D01*
X101447Y44906D01*
X102422Y44712D01*
X103398Y44906D01*
X104225Y45458D01*
X104777Y46285D01*
X104971Y47261D01*
X104777Y48236D01*
X104225Y49063D01*
X104078Y49161D01*
Y49661D01*
X104225Y49758D01*
X104777Y50585D01*
X104971Y51561D01*
X104777Y52536D01*
X104225Y53363D01*
X104078Y53461D01*
Y53961D01*
X104225Y54058D01*
X104777Y54885D01*
X104971Y55861D01*
X104777Y56836D01*
X104225Y57663D01*
X103398Y58216D01*
X102422Y58410D01*
D02*
G37*
G36*
X80472Y35945D02*
X79789Y35809D01*
X79210Y35422D01*
X78824Y34844D01*
X78688Y34161D01*
X78824Y33478D01*
X79210Y32899D01*
X79789Y32512D01*
X80472Y32376D01*
X81155Y32512D01*
X81734Y32899D01*
X82121Y33478D01*
X82256Y34161D01*
X82121Y34844D01*
X81734Y35422D01*
X81155Y35809D01*
X80472Y35945D01*
D02*
G37*
G36*
X250222Y27360D02*
X249247Y27166D01*
X248420Y26613D01*
X248172Y26243D01*
X247672D01*
X247425Y26613D01*
X246598Y27166D01*
X245622Y27360D01*
X244647Y27166D01*
X243820Y26613D01*
X243267Y25786D01*
X243073Y24811D01*
X243267Y23835D01*
X243820Y23008D01*
X244153Y22786D01*
Y22286D01*
X243820Y22063D01*
X243267Y21236D01*
X243073Y20261D01*
X243267Y19285D01*
X243820Y18458D01*
X244153Y18236D01*
Y17736D01*
X243820Y17513D01*
X243267Y16686D01*
X243073Y15711D01*
X243267Y14735D01*
X243820Y13908D01*
X244647Y13356D01*
X245622Y13162D01*
X246598Y13356D01*
X247425Y13908D01*
X247672Y14279D01*
X248172D01*
X248420Y13908D01*
X249247Y13356D01*
X250222Y13162D01*
X251198Y13356D01*
X252025Y13908D01*
X252577Y14735D01*
X252771Y15711D01*
X252577Y16686D01*
X252025Y17513D01*
X251691Y17736D01*
Y18236D01*
X252025Y18458D01*
X252577Y19285D01*
X252771Y20261D01*
X252577Y21236D01*
X252025Y22063D01*
X251691Y22286D01*
Y22786D01*
X252025Y23008D01*
X252577Y23835D01*
X252771Y24811D01*
X252577Y25786D01*
X252025Y26613D01*
X251198Y27166D01*
X250222Y27360D01*
D02*
G37*
G36*
X70472Y39988D02*
X69926Y39880D01*
X69463Y39570D01*
X69153Y39107D01*
X69045Y38561D01*
X69153Y38014D01*
X69463Y37551D01*
X69926Y37242D01*
X70472Y37133D01*
X71018Y37242D01*
X71481Y37551D01*
X71791Y38014D01*
X71899Y38561D01*
X71791Y39107D01*
X71481Y39570D01*
X71018Y39880D01*
X70472Y39988D01*
D02*
G37*
G36*
X122222Y34610D02*
X121247Y34416D01*
X120420Y33863D01*
X120022Y33268D01*
X119522D01*
X119124Y33863D01*
X118298Y34416D01*
X117322Y34610D01*
X116347Y34416D01*
X115520Y33863D01*
X114967Y33036D01*
X114773Y32061D01*
X114967Y31085D01*
X115520Y30258D01*
Y29863D01*
X114967Y29036D01*
X114773Y28061D01*
X114967Y27085D01*
X115520Y26258D01*
X116347Y25706D01*
X117322Y25512D01*
X118298Y25706D01*
X119124Y26258D01*
X119522Y26853D01*
X120022D01*
X120420Y26258D01*
X121247Y25706D01*
X122222Y25512D01*
X123198Y25706D01*
X124024Y26258D01*
X124577Y27085D01*
X124771Y28061D01*
X124577Y29036D01*
X124024Y29863D01*
Y30258D01*
X124577Y31085D01*
X124771Y32061D01*
X124577Y33036D01*
X124024Y33863D01*
X123198Y34416D01*
X122222Y34610D01*
D02*
G37*
G36*
X180600Y81484D02*
X179917Y81349D01*
X179338Y80962D01*
X178952Y80383D01*
X178816Y79700D01*
X178952Y79017D01*
X179338Y78438D01*
X179917Y78052D01*
X180600Y77916D01*
X181283Y78052D01*
X181862Y78438D01*
X182248Y79017D01*
X182384Y79700D01*
X182248Y80383D01*
X181862Y80962D01*
X181283Y81349D01*
X180600Y81484D01*
D02*
G37*
G36*
X179279Y72154D02*
X174343D01*
Y67216D01*
X179279D01*
Y72154D01*
D02*
G37*
G36*
X220626Y87500D02*
X218052D01*
Y84300D01*
X220626D01*
Y84698D01*
X220875Y84864D01*
X221185Y85327D01*
X221293Y85873D01*
X221185Y86419D01*
X220875Y86883D01*
X220626Y87049D01*
Y87500D01*
D02*
G37*
G36*
X190868Y84888D02*
X185932D01*
Y79952D01*
X190868D01*
Y84888D01*
D02*
G37*
G36*
X196400Y68949D02*
X195424Y68755D01*
X194598Y68202D01*
X194045Y67375D01*
X193851Y66400D01*
X194045Y65425D01*
X194598Y64598D01*
X195424Y64045D01*
X196400Y63851D01*
X197376Y64045D01*
X198202Y64598D01*
X198755Y65425D01*
X198949Y66400D01*
X198755Y67375D01*
X198202Y68202D01*
X197376Y68755D01*
X196400Y68949D01*
D02*
G37*
G36*
X73550Y68888D02*
X73004Y68779D01*
X72541Y68470D01*
X72231Y68007D01*
X72123Y67461D01*
X72231Y66914D01*
X72541Y66451D01*
X73004Y66142D01*
X73550Y66033D01*
X74096Y66142D01*
X74240Y66238D01*
X74594Y65885D01*
X74459Y65683D01*
X74323Y65000D01*
X74459Y64317D01*
X74846Y63738D01*
X75425Y63352D01*
X76108Y63216D01*
X76790Y63352D01*
X77369Y63738D01*
X77756Y64317D01*
X77892Y65000D01*
X77756Y65683D01*
X77369Y66262D01*
X76790Y66649D01*
X76108Y66784D01*
X75425Y66649D01*
X75165Y66475D01*
X74811Y66828D01*
X74869Y66914D01*
X74977Y67461D01*
X74869Y68007D01*
X74559Y68470D01*
X74096Y68779D01*
X73550Y68888D01*
D02*
G37*
G36*
X185878Y71049D02*
X184902Y70855D01*
X184075Y70302D01*
X183523Y69476D01*
X183329Y68500D01*
X183523Y67524D01*
X184075Y66698D01*
X184902Y66145D01*
X185878Y65951D01*
X186853Y66145D01*
X187680Y66698D01*
X188233Y67524D01*
X188427Y68500D01*
X188233Y69476D01*
X187680Y70302D01*
X186853Y70855D01*
X185878Y71049D01*
D02*
G37*
G36*
X217850Y66222D02*
X217421Y66136D01*
X217057Y65893D01*
X216814Y65529D01*
X216728Y65100D01*
X216814Y64671D01*
X217057Y64307D01*
X217421Y64064D01*
X217850Y63978D01*
X218279Y64064D01*
X218643Y64307D01*
X218886Y64671D01*
X218971Y65100D01*
X218886Y65529D01*
X218643Y65893D01*
X218279Y66136D01*
X217850Y66222D01*
D02*
G37*
%LPD*%
D13*
X343816Y150873D02*
D03*
Y146673D02*
D03*
Y155473D02*
D03*
Y159673D02*
D03*
D23*
X335271Y173898D02*
D03*
X340871D02*
D03*
D26*
X349916Y144873D02*
D03*
Y150473D02*
D03*
Y161573D02*
D03*
Y155973D02*
D03*
X309716Y147673D02*
D03*
Y153273D02*
D03*
D33*
X378408Y62369D02*
D03*
Y36385D02*
D03*
D71*
X234006Y121372D02*
D03*
Y117794D02*
D03*
X229306Y122772D02*
D03*
Y119194D02*
D03*
X224606Y121372D02*
D03*
Y117794D02*
D03*
X219906Y121372D02*
D03*
Y117794D02*
D03*
X215206Y121372D02*
D03*
Y117794D02*
D03*
X211166Y88114D02*
D03*
Y91692D02*
D03*
X206566Y88114D02*
D03*
Y91692D02*
D03*
X356116Y154965D02*
D03*
Y151387D02*
D03*
X358116Y170652D02*
D03*
Y174230D02*
D03*
X353822Y170652D02*
D03*
Y174230D02*
D03*
X349528D02*
D03*
Y170652D02*
D03*
X338016Y126884D02*
D03*
Y130462D02*
D03*
X286816Y131562D02*
D03*
Y127984D02*
D03*
X314316Y93662D02*
D03*
Y90084D02*
D03*
X274916D02*
D03*
Y93662D02*
D03*
X332422Y100974D02*
D03*
Y104550D02*
D03*
X327722Y100974D02*
D03*
Y104550D02*
D03*
X323022Y100974D02*
D03*
Y104550D02*
D03*
X318322Y100974D02*
D03*
Y104550D02*
D03*
X313622Y100974D02*
D03*
Y104550D02*
D03*
X299222Y153648D02*
D03*
Y150072D02*
D03*
X303922Y153648D02*
D03*
Y150072D02*
D03*
X294522Y153648D02*
D03*
Y150072D02*
D03*
X289822Y150074D02*
D03*
Y153650D02*
D03*
D72*
X234141Y100273D02*
D03*
X230563D02*
D03*
X202177Y121203D02*
D03*
X205755D02*
D03*
X197177Y106703D02*
D03*
X200755D02*
D03*
X204977Y101303D02*
D03*
X208555D02*
D03*
X239133Y100261D02*
D03*
X242711D02*
D03*
X200705Y92373D02*
D03*
X197127D02*
D03*
X200699Y117060D02*
D03*
X197121D02*
D03*
X200749Y113000D02*
D03*
X197171D02*
D03*
X197231Y95590D02*
D03*
X200809D02*
D03*
X197177Y101803D02*
D03*
X200755D02*
D03*
X204977Y96603D02*
D03*
X208555D02*
D03*
X305527Y106473D02*
D03*
X309105D02*
D03*
X333111Y131361D02*
D03*
X329533D02*
D03*
X321703Y155573D02*
D03*
X318127D02*
D03*
X319303Y150873D02*
D03*
X315727D02*
D03*
X278629Y128273D02*
D03*
X282205D02*
D03*
X278629Y137773D02*
D03*
X282205D02*
D03*
X278629Y142473D02*
D03*
X282205D02*
D03*
X278629Y147173D02*
D03*
X282205D02*
D03*
X333103Y126573D02*
D03*
X329527D02*
D03*
X332429Y121873D02*
D03*
X336005D02*
D03*
X278629Y123573D02*
D03*
X282205D02*
D03*
X282203Y132973D02*
D03*
X278627D02*
D03*
X278629Y118873D02*
D03*
X282205D02*
D03*
X332429Y112473D02*
D03*
X336005D02*
D03*
X297103Y106473D02*
D03*
X293527D02*
D03*
X282203Y104873D02*
D03*
X278627D02*
D03*
X282203Y109473D02*
D03*
X278627D02*
D03*
X282203Y114173D02*
D03*
X278627D02*
D03*
X332429Y117173D02*
D03*
X336005D02*
D03*
X215763Y85900D02*
D03*
X219339D02*
D03*
D83*
X333132Y131361D02*
X333422D01*
X329198Y127426D02*
X333132Y131361D01*
X323451Y127426D02*
X329198D01*
X308622Y102661D02*
X309416Y103454D01*
Y106473D01*
X317939Y142921D02*
Y144390D01*
X307703Y108186D02*
Y111425D01*
Y108186D02*
X309416Y106473D01*
X310262Y142921D02*
Y146427D01*
X317939Y144390D02*
X320710Y147161D01*
X333922D02*
X334222Y146861D01*
X320710Y147161D02*
X333922D01*
X333422Y131361D02*
Y135061D01*
X333822Y135461D01*
D84*
X153767Y110479D02*
Y110540D01*
X151533Y108245D02*
X153767Y110479D01*
X147639Y108245D02*
X151533D01*
X146920Y108964D02*
X147639Y108245D01*
X334875Y114835D02*
X337947D01*
X334216Y115494D02*
X334875Y114835D01*
X323230Y84560D02*
Y95274D01*
X301231Y62561D02*
X323230Y84560D01*
X273516Y62561D02*
X301231D01*
X318322Y100182D02*
X323230Y95274D01*
X317816Y152856D02*
Y155573D01*
X317520Y152560D02*
X317816Y152856D01*
X315380Y145086D02*
X317500Y147206D01*
X153767Y110540D02*
X164448D01*
X273047Y147173D02*
X278316D01*
X272482Y146607D02*
X273047Y147173D01*
X283866Y134850D02*
X291955D01*
X282516Y133500D02*
X283866Y134850D01*
X282516Y132973D02*
Y133500D01*
X292246Y146061D02*
X295722D01*
X289822Y148485D02*
X292246Y146061D01*
X289822Y148485D02*
Y149761D01*
X328678Y121873D02*
X332116D01*
X325937Y124614D02*
X328678Y121873D01*
X323451Y124614D02*
X325937D01*
X341510Y117173D02*
X344252Y114431D01*
Y73531D02*
Y114431D01*
Y73531D02*
X355414Y62369D01*
X318322Y100182D02*
Y100661D01*
X325984Y81423D02*
Y97699D01*
X302122Y57561D02*
X325984Y81423D01*
X329213Y76951D02*
Y99170D01*
X332422Y72161D02*
Y100661D01*
X307822Y47561D02*
X332422Y72161D01*
X335822Y33460D02*
Y106061D01*
X329022Y26660D02*
X335822Y33460D01*
X333222Y108661D02*
X335822Y106061D01*
X341922Y32763D02*
Y110861D01*
X339022Y12861D02*
Y106361D01*
X316772Y82810D02*
Y96411D01*
X313622Y99561D02*
X316772Y96411D01*
X313622Y99561D02*
Y100661D01*
X288802Y106473D02*
X293216D01*
X323022Y100661D02*
X325984Y97699D01*
X327722Y100661D02*
X329213Y99170D01*
X304822Y52561D02*
X329213Y76951D01*
X301522Y67561D02*
X316772Y82810D01*
X300616Y91673D02*
X303537Y88752D01*
X300616Y91673D02*
Y100173D01*
X303537Y88752D02*
X307017D01*
X300616Y100173D02*
X302585Y102142D01*
X299222Y153961D02*
Y159400D01*
X297722Y160900D02*
X299222Y159400D01*
X297722Y160900D02*
Y186461D01*
X329022Y12861D02*
Y26660D01*
X354528Y20157D02*
X361725D01*
X341922Y32763D02*
X354528Y20157D01*
X361725D02*
X369022Y12861D01*
X202916Y92373D02*
X203545Y93002D01*
X204239Y117030D02*
X204266Y117003D01*
X201010Y117030D02*
X204239D01*
X201016Y92373D02*
X202916D01*
X215206Y123614D02*
X215506Y123914D01*
X234216Y100273D02*
X236447D01*
X234006Y121683D02*
Y123914D01*
X229306Y123083D02*
Y125314D01*
X224606Y121683D02*
Y124183D01*
X219906Y121683D02*
Y123914D01*
X215206Y121683D02*
Y123614D01*
X201866Y121203D02*
Y123934D01*
X236447Y100273D02*
X238810D01*
X337947Y114835D02*
X341922Y110861D01*
X355414Y62369D02*
X376408D01*
X287836Y155947D02*
X289822Y153961D01*
X338016Y130773D02*
Y131955D01*
X340622Y134561D01*
X284747Y130261D02*
X286359Y131873D01*
X288316D01*
X279922Y134579D02*
Y135261D01*
X278316Y132973D02*
X279922Y134579D01*
X315380Y142921D02*
Y145086D01*
X312821Y142921D02*
Y145086D01*
X315416Y147681D01*
Y150873D01*
X322016Y155573D02*
X323616D01*
X324438Y154751D01*
X332369D01*
X319616Y150873D02*
X321216D01*
X321944Y151602D01*
X332369D01*
X342091Y154076D02*
X354916D01*
X342091Y152276D02*
X354916D01*
X339062Y154751D02*
X341416D01*
X342091Y154076D01*
X339062Y151602D02*
X341416D01*
X342091Y152276D01*
X354916Y154076D02*
X356116Y155276D01*
X354916Y152276D02*
X356116Y151076D01*
Y155276D02*
X366457D01*
X366916Y155735D01*
X369974D01*
X356116Y151076D02*
X357716D01*
X359816Y153176D01*
X369974D01*
X288316Y131873D02*
X290457Y129732D01*
X291955D01*
X282516Y137409D02*
X291955D01*
X282516Y142473D02*
X283316D01*
X285821Y139969D01*
X291955D01*
X282516Y147173D02*
X283016D01*
X287268Y142921D01*
X294907D01*
X282916Y123573D02*
X284434Y122055D01*
X291955D01*
X284116Y118873D02*
X284739Y119496D01*
X291955D01*
X300026Y103783D02*
Y111425D01*
X284036Y96773D02*
X293016D01*
X300026Y103783D01*
X302585Y102142D02*
Y111425D01*
X273216Y109473D02*
Y109573D01*
X276216Y101273D02*
Y102773D01*
Y101273D02*
X276316Y101173D01*
X323451Y122055D02*
X325628D01*
X330510Y117173D01*
X332116D01*
X323451Y119496D02*
X325387D01*
X328222Y116661D01*
X323451Y116937D02*
X325146D01*
X326222Y115861D01*
X287498Y116937D02*
X291955D01*
X284735Y114173D02*
X287498Y116937D01*
X282516Y114173D02*
X284735D01*
X289539Y114378D02*
X291955D01*
X284635Y109473D02*
X289539Y114378D01*
X282516Y109473D02*
X284635D01*
X290087Y111425D02*
X294907D01*
X283535Y104873D02*
X290087Y111425D01*
X282516Y104873D02*
X283535D01*
X297466Y106524D02*
Y111425D01*
X328222Y114861D02*
Y116661D01*
Y114861D02*
X330610Y112473D01*
X332116D01*
X323451Y114378D02*
X329168Y108661D01*
X333222D01*
X326222Y114361D02*
Y115861D01*
Y114361D02*
X330422Y110161D01*
X273516Y120573D02*
X275216Y118873D01*
X278316D01*
X275516Y123573D02*
X278316D01*
X273516Y135573D02*
X275716Y137773D01*
X278316D01*
X273516Y140573D02*
X275416Y142473D01*
X278316D01*
X282616Y128273D02*
X286275Y124614D01*
X291955D01*
X282516Y118873D02*
X284116D01*
X276216Y102773D02*
X278316Y104873D01*
X273216Y109473D02*
X278316D01*
X271016Y114173D02*
X278316D01*
X297466Y142921D02*
Y144316D01*
X295722Y146061D02*
X297466Y144316D01*
X299222Y148161D02*
Y149761D01*
Y148161D02*
X302585Y144798D01*
Y142921D02*
Y144798D01*
X294922Y149661D02*
Y149761D01*
Y149661D02*
X300026Y144557D01*
Y142921D02*
Y144557D01*
X305144Y142921D02*
Y145639D01*
X303922Y146861D02*
X305144Y145639D01*
X303922Y146861D02*
Y149761D01*
X274916Y93973D02*
X277737Y96794D01*
X282214D01*
Y98594D02*
X284036Y96773D01*
X330422Y110161D02*
X335222D01*
X378408Y49675D02*
Y62369D01*
Y49675D02*
X378422Y49661D01*
X336316Y121873D02*
Y124873D01*
X338016Y126573D01*
X333416Y126573D02*
X334616D01*
X336316Y124873D01*
Y121686D02*
Y121873D01*
X334216Y119586D02*
X336316Y121686D01*
X335222Y110161D02*
X339022Y106361D01*
X320498Y111425D02*
X323858D01*
X328322Y106961D01*
X330322D01*
X332422Y104861D01*
X317939Y110244D02*
Y111425D01*
X323922Y108661D02*
X327722Y104861D01*
X317939Y110244D02*
X319522Y108661D01*
X323922D01*
X320791Y107091D02*
X323022Y104861D01*
X315380Y109903D02*
Y111425D01*
Y109903D02*
X318191Y107091D01*
X320791D01*
X310262Y109921D02*
Y111425D01*
Y109921D02*
X313622Y106561D01*
Y105761D02*
Y106561D01*
X312821Y109962D02*
Y111425D01*
Y109962D02*
X317422Y105361D01*
X317522D01*
X307017Y86952D02*
X311495D01*
X314316Y89773D01*
X273516Y67561D02*
X301522D01*
X273516Y57561D02*
X302122D01*
X273516Y52561D02*
X304822D01*
X273516Y47561D02*
X307822D01*
X300722Y179705D02*
X301266D01*
X307722Y186161D01*
X336316Y117173D02*
X341510D01*
X300722Y162861D02*
Y179705D01*
Y162861D02*
X303922Y159661D01*
Y153961D02*
Y159661D01*
X294522Y153961D02*
Y155761D01*
X291722Y158561D02*
X294522Y155761D01*
X123976Y171496D02*
X132913Y180433D01*
X119528Y175433D02*
X125787Y181693D01*
X273516Y130573D02*
X274269D01*
X276569Y128273D01*
X278316D01*
X274548Y124543D02*
X275516Y123573D01*
X164448Y110540D02*
X166024Y108964D01*
D86*
X206566Y87803D02*
X206566Y87803D01*
X211166D01*
X204204Y89603D02*
X206004Y87803D01*
X212500Y87753D02*
X214353Y85900D01*
X215188D01*
D87*
X341390Y159673D02*
X343816D01*
Y144603D02*
Y146673D01*
D88*
X200453Y109890D02*
X202160D01*
X204340Y112070D02*
X204690D01*
X202160Y109890D02*
X204340Y112070D01*
X203066Y99703D02*
X204666Y101303D01*
X203066Y99603D02*
Y99703D01*
Y99603D02*
X204666Y98003D01*
X196996Y104100D02*
X204710D01*
X196866Y106303D02*
X200453Y109890D01*
X196866Y95644D02*
Y104230D01*
Y95644D02*
X196920Y95590D01*
X196866Y104230D02*
Y106303D01*
Y104230D02*
X196996Y104100D01*
X201060Y113000D02*
X202063D01*
X203586Y114523D01*
X204666Y96603D02*
Y98003D01*
X196940Y113130D02*
X200316Y109754D01*
X196940Y113130D02*
Y116206D01*
X196866Y116280D02*
X196940Y116206D01*
D99*
X246063Y101102D02*
X250640D01*
D113*
X329022Y12861D02*
D03*
X339022D02*
D03*
X349022D02*
D03*
X359022D02*
D03*
X319022D02*
D03*
X307722Y186161D02*
D03*
X317722D02*
D03*
X286378Y186142D02*
D03*
D114*
X369022Y12861D02*
D03*
X297722Y186161D02*
D03*
X276378Y186142D02*
D03*
D115*
X192100Y121400D02*
D03*
X348722Y186461D02*
D03*
X250500Y87400D02*
D03*
Y96000D02*
D03*
X176811Y69685D02*
D03*
X148300Y175300D02*
D03*
X64646Y165512D02*
D03*
X89122Y20161D02*
D03*
D116*
X187100Y121400D02*
D03*
X353722Y186461D02*
D03*
X255500Y87400D02*
D03*
Y96000D02*
D03*
X171811Y69685D02*
D03*
X143300Y175300D02*
D03*
X237953Y26811D02*
D03*
X69646Y165512D02*
D03*
X188400Y87420D02*
D03*
X84122Y20161D02*
D03*
X273516Y67561D02*
D03*
Y62561D02*
D03*
Y57561D02*
D03*
Y52561D02*
D03*
X273583Y140591D02*
D03*
Y135591D02*
D03*
Y130591D02*
D03*
Y125591D02*
D03*
X273465Y167591D02*
D03*
Y162591D02*
D03*
Y157591D02*
D03*
Y152591D02*
D03*
X112022Y40161D02*
D03*
D117*
X237953Y21811D02*
D03*
X188400Y82420D02*
D03*
X273516Y47561D02*
D03*
X273583Y120591D02*
D03*
X273465Y147591D02*
D03*
D118*
X150829Y109945D02*
D03*
X135050Y113250D02*
D03*
X54625Y155890D02*
D03*
D119*
X153650Y108090D02*
D03*
X159722Y105984D02*
D03*
X162522D02*
D03*
X29812Y168543D02*
D03*
X32098Y29213D02*
D03*
X32450Y21299D02*
D03*
X322622Y81461D02*
D03*
X350512Y60000D02*
D03*
X325394Y60158D02*
D03*
X338222Y147161D02*
D03*
X61063Y13386D02*
D03*
X121575Y59961D02*
D03*
X4254Y182237D02*
D03*
X215945Y134134D02*
D03*
X132087Y72008D02*
D03*
X123300Y111350D02*
D03*
X175079Y119434D02*
D03*
Y115870D02*
D03*
Y112305D02*
D03*
Y108740D02*
D03*
X168610Y136496D02*
D03*
X161257Y128583D02*
D03*
X175080Y144060D02*
D03*
X188898Y112008D02*
D03*
X162131Y136496D02*
D03*
X151210Y128583D02*
D03*
X216560Y174044D02*
D03*
X113031Y78268D02*
D03*
X113230Y92000D02*
D03*
X91260Y55630D02*
D03*
X131142Y17284D02*
D03*
X132323Y18701D02*
D03*
X127441Y32480D02*
D03*
X148794Y22880D02*
D03*
X143543Y87244D02*
D03*
X70630Y89003D02*
D03*
X145376Y80804D02*
D03*
Y83823D02*
D03*
X150876Y70877D02*
D03*
Y63382D02*
D03*
X149261Y65880D02*
D03*
X150876Y60883D02*
D03*
Y58385D02*
D03*
X145440Y53460D02*
D03*
X136024Y89291D02*
D03*
X150876Y45892D02*
D03*
X137620Y52890D02*
D03*
X150876Y38397D02*
D03*
Y35898D02*
D03*
Y25904D02*
D03*
Y28402D02*
D03*
Y43394D02*
D03*
Y40895D02*
D03*
Y30901D02*
D03*
Y33400D02*
D03*
X175857Y24750D02*
D03*
X178857Y24800D02*
D03*
X181857D02*
D03*
X184857D02*
D03*
X176066Y16041D02*
D03*
X179066D02*
D03*
X182066D02*
D03*
X185066D02*
D03*
X224992Y40586D02*
D03*
Y37586D02*
D03*
Y34586D02*
D03*
X233874Y31708D02*
D03*
Y37708D02*
D03*
Y40708D02*
D03*
Y34708D02*
D03*
X77550Y24950D02*
D03*
X73772Y37861D02*
D03*
X153462Y12801D02*
D03*
X92122Y9561D02*
D03*
X93386Y5472D02*
D03*
X82700Y23350D02*
D03*
X68370Y14290D02*
D03*
X137000Y113250D02*
D03*
X138950D02*
D03*
X158090Y56830D02*
D03*
X213600Y51100D02*
D03*
X202716Y50591D02*
D03*
X37122Y132261D02*
D03*
X64200Y133000D02*
D03*
X174010Y155950D02*
D03*
X229920Y100200D02*
D03*
X123740Y155945D02*
D03*
X119488D02*
D03*
X133031Y147953D02*
D03*
X85354Y89291D02*
D03*
X137598Y77612D02*
D03*
X45712Y176474D02*
D03*
X49830Y168516D02*
D03*
X38758D02*
D03*
X33222D02*
D03*
X47062D02*
D03*
X44294D02*
D03*
X60827Y167961D02*
D03*
Y165028D02*
D03*
X182650Y85750D02*
D03*
X243050Y100200D02*
D03*
X191250Y88710D02*
D03*
X215222Y115361D02*
D03*
X193272Y115191D02*
D03*
X91772Y63504D02*
D03*
X87550Y45050D02*
D03*
X87122Y54361D02*
D03*
Y49361D02*
D03*
X194393Y12448D02*
D03*
X92323Y35472D02*
D03*
X83425Y42953D02*
D03*
X82122Y54461D02*
D03*
X91220Y41339D02*
D03*
X215800Y72000D02*
D03*
X202610Y16547D02*
D03*
X70630Y92375D02*
D03*
X60551Y111528D02*
D03*
Y108435D02*
D03*
X52677Y114144D02*
D03*
X154835Y24267D02*
D03*
X151678D02*
D03*
X224222Y133161D02*
D03*
X182992Y144508D02*
D03*
X117480Y72800D02*
D03*
X124134Y89646D02*
D03*
X126877D02*
D03*
X123846Y81203D02*
D03*
X126846D02*
D03*
X129846D02*
D03*
X132846D02*
D03*
X263400Y85300D02*
D03*
X262050Y91150D02*
D03*
X233960Y169244D02*
D03*
X238543Y51968D02*
D03*
X259222Y64161D02*
D03*
X254222D02*
D03*
X283222Y44161D02*
D03*
X268222Y42161D02*
D03*
X273222D02*
D03*
X333222Y22161D02*
D03*
X353110Y71024D02*
D03*
X388222Y22161D02*
D03*
X378222Y7161D02*
D03*
X363222D02*
D03*
X338222D02*
D03*
X278222D02*
D03*
X273222D02*
D03*
X268222D02*
D03*
X298222D02*
D03*
X293222D02*
D03*
X288222D02*
D03*
X283222D02*
D03*
X7907Y17161D02*
D03*
X16260Y77874D02*
D03*
X18222Y147161D02*
D03*
X16102Y126102D02*
D03*
X169213Y46496D02*
D03*
X108780Y138760D02*
D03*
X17244Y54921D02*
D03*
X8222Y62161D02*
D03*
X4254Y32237D02*
D03*
X156082Y52511D02*
D03*
X176725Y29021D02*
D03*
X183536Y32682D02*
D03*
X185422Y27791D02*
D03*
X158462Y12801D02*
D03*
X163462D02*
D03*
X168462D02*
D03*
X69095Y5748D02*
D03*
X83022Y9811D02*
D03*
X43222Y7161D02*
D03*
X48222D02*
D03*
X53222D02*
D03*
X58222D02*
D03*
X63222D02*
D03*
X13222D02*
D03*
X18222D02*
D03*
X23222D02*
D03*
X28222D02*
D03*
X33222D02*
D03*
X8222D02*
D03*
X4254Y27237D02*
D03*
Y22237D02*
D03*
Y17237D02*
D03*
Y12237D02*
D03*
Y57237D02*
D03*
Y52237D02*
D03*
Y47237D02*
D03*
Y42237D02*
D03*
Y37237D02*
D03*
Y82237D02*
D03*
Y77237D02*
D03*
Y72237D02*
D03*
Y67237D02*
D03*
Y62237D02*
D03*
Y107237D02*
D03*
Y102237D02*
D03*
Y97237D02*
D03*
Y92237D02*
D03*
Y87237D02*
D03*
Y132237D02*
D03*
Y127237D02*
D03*
Y122237D02*
D03*
Y117237D02*
D03*
Y112237D02*
D03*
Y157237D02*
D03*
Y152237D02*
D03*
Y147237D02*
D03*
Y142237D02*
D03*
Y137237D02*
D03*
Y162237D02*
D03*
Y167237D02*
D03*
Y172237D02*
D03*
Y177237D02*
D03*
X13222Y187161D02*
D03*
X8222D02*
D03*
X18222D02*
D03*
X23222D02*
D03*
X28222D02*
D03*
X33222D02*
D03*
X38222D02*
D03*
X43222D02*
D03*
X48222D02*
D03*
X23425Y43228D02*
D03*
X16339Y65709D02*
D03*
X388222Y182161D02*
D03*
X358222Y187161D02*
D03*
X323222D02*
D03*
X333222D02*
D03*
X338222D02*
D03*
X343222D02*
D03*
X303222Y167161D02*
D03*
X308222Y157161D02*
D03*
X175079Y122999D02*
D03*
X214488Y141890D02*
D03*
X233900Y132850D02*
D03*
X182992Y121791D02*
D03*
X181496Y186024D02*
D03*
X200512Y141299D02*
D03*
X189921Y157717D02*
D03*
X136024Y43622D02*
D03*
X204764Y142402D02*
D03*
X208780Y164370D02*
D03*
X268222Y132161D02*
D03*
X161378Y119843D02*
D03*
X115118Y59449D02*
D03*
X218110Y137008D02*
D03*
X114291Y20039D02*
D03*
X273222Y102161D02*
D03*
X273240Y112380D02*
D03*
X241560Y174044D02*
D03*
X114055Y23583D02*
D03*
X216811Y165748D02*
D03*
X199646Y157205D02*
D03*
X171270Y51950D02*
D03*
X103779Y16890D02*
D03*
X259600Y144150D02*
D03*
X182992Y115295D02*
D03*
X209646Y142598D02*
D03*
X220945Y157795D02*
D03*
X252953Y157323D02*
D03*
X235591Y157913D02*
D03*
X245478Y136189D02*
D03*
X250478Y146189D02*
D03*
X245346Y69796D02*
D03*
X241135Y74097D02*
D03*
X243222Y82161D02*
D03*
Y77161D02*
D03*
X250478Y151189D02*
D03*
X258222Y72161D02*
D03*
X253222D02*
D03*
X248222D02*
D03*
X243222D02*
D03*
X253150Y42100D02*
D03*
X263222Y47161D02*
D03*
X258222Y42161D02*
D03*
X156614Y26417D02*
D03*
X248222Y42161D02*
D03*
X243222D02*
D03*
X238222D02*
D03*
X160551Y26417D02*
D03*
X119180Y97756D02*
D03*
X122589D02*
D03*
X115157Y105984D02*
D03*
X121968D02*
D03*
X136468Y93890D02*
D03*
X146468D02*
D03*
X156790Y89160D02*
D03*
X156468Y93890D02*
D03*
X176963Y12480D02*
D03*
X181963D02*
D03*
X186963D02*
D03*
X153228Y29488D02*
D03*
X153071Y43268D02*
D03*
X153380Y46120D02*
D03*
X188654Y32839D02*
D03*
X178930Y33666D02*
D03*
X184978Y52139D02*
D03*
X179978D02*
D03*
X174978D02*
D03*
X214921Y42205D02*
D03*
X78504Y51142D02*
D03*
X127022Y57361D02*
D03*
X184622Y82161D02*
D03*
X276622Y55161D02*
D03*
Y60061D02*
D03*
X269822Y65061D02*
D03*
X265922Y160161D02*
D03*
X246922Y166261D02*
D03*
X134987Y53589D02*
D03*
X156496Y155945D02*
D03*
X153189D02*
D03*
X159803D02*
D03*
X170630D02*
D03*
X176430Y155890D02*
D03*
X159803Y147953D02*
D03*
X156722D02*
D03*
X153122D02*
D03*
X149222D02*
D03*
X145922D02*
D03*
X143618Y155261D02*
D03*
X119631Y147704D02*
D03*
X115431D02*
D03*
X100820Y143630D02*
D03*
X140709Y114842D02*
D03*
X167006Y79714D02*
D03*
X165038Y78714D02*
D03*
X163069Y79911D02*
D03*
X160086Y84061D02*
D03*
X162676Y83061D02*
D03*
X160086Y86800D02*
D03*
Y92278D02*
D03*
Y89539D02*
D03*
X167953Y100157D02*
D03*
X128622Y105984D02*
D03*
X126260D02*
D03*
X118425D02*
D03*
X153722D02*
D03*
X156722D02*
D03*
X166024Y104095D02*
D03*
X160086Y97756D02*
D03*
X149859Y97756D02*
D03*
X153398D02*
D03*
X156677D02*
D03*
X160086Y95017D02*
D03*
X132815Y97756D02*
D03*
X136224D02*
D03*
X139633D02*
D03*
X143042D02*
D03*
X146450D02*
D03*
X159930Y112490D02*
D03*
X129406Y97756D02*
D03*
X125997D02*
D03*
X115771D02*
D03*
X112750Y97600D02*
D03*
X108280Y93370D02*
D03*
X108830Y110930D02*
D03*
X102340Y93410D02*
D03*
X59560Y24700D02*
D03*
X48834Y176474D02*
D03*
X66230Y158830D02*
D03*
X70400Y160870D02*
D03*
X76600Y160760D02*
D03*
X68300Y143610D02*
D03*
X66414Y148175D02*
D03*
X64016Y105827D02*
D03*
X70320Y125150D02*
D03*
X66142Y92244D02*
D03*
X170000Y43976D02*
D03*
X78701Y92520D02*
D03*
X95551Y78031D02*
D03*
X89173Y90472D02*
D03*
X101980Y90840D02*
D03*
X110709Y90158D02*
D03*
X115787Y80394D02*
D03*
X110630Y80433D02*
D03*
X69840Y110690D02*
D03*
X110748Y88032D02*
D03*
X115775Y87761D02*
D03*
X114390Y85273D02*
D03*
X112022D02*
D03*
X115775Y82761D02*
D03*
X66140Y95410D02*
D03*
X120039Y89291D02*
D03*
X119409Y81417D02*
D03*
X135039Y39173D02*
D03*
X133228Y37362D02*
D03*
X133189Y35118D02*
D03*
X147953Y39173D02*
D03*
X146022Y16547D02*
D03*
X232872Y94342D02*
D03*
X243110Y88848D02*
D03*
X235593Y91222D02*
D03*
X235500Y82563D02*
D03*
X238558Y64744D02*
D03*
X235580Y79473D02*
D03*
X235700Y75889D02*
D03*
X238358Y73290D02*
D03*
X238447Y69617D02*
D03*
X220498Y69736D02*
D03*
X220408Y73051D02*
D03*
X241852Y69527D02*
D03*
X211746Y69238D02*
D03*
X212039Y27772D02*
D03*
X223186Y75829D02*
D03*
X204882Y28189D02*
D03*
X223275Y79114D02*
D03*
X223233Y82726D02*
D03*
X223209Y89267D02*
D03*
X205398Y24267D02*
D03*
X226604Y92345D02*
D03*
X243198Y85064D02*
D03*
X229476Y95462D02*
D03*
X233579Y64778D02*
D03*
X233460Y62837D02*
D03*
X233787Y58119D02*
D03*
X233149Y53150D02*
D03*
Y50733D02*
D03*
Y48116D02*
D03*
X233143Y44299D02*
D03*
X226023Y43644D02*
D03*
X233514Y28091D02*
D03*
X232304Y24729D02*
D03*
X214685Y29370D02*
D03*
X226023Y50246D02*
D03*
Y53098D02*
D03*
Y56489D02*
D03*
X225694Y64778D02*
D03*
X225574Y62597D02*
D03*
X145376Y77586D02*
D03*
Y72548D02*
D03*
Y68729D02*
D03*
Y65711D02*
D03*
Y62692D02*
D03*
Y59673D02*
D03*
Y56654D02*
D03*
Y44579D02*
D03*
Y41561D02*
D03*
X137598Y72900D02*
D03*
Y70195D02*
D03*
Y67389D02*
D03*
Y64583D02*
D03*
Y61778D02*
D03*
Y58972D02*
D03*
Y56166D02*
D03*
Y45000D02*
D03*
Y41378D02*
D03*
X60551Y145551D02*
D03*
Y142458D02*
D03*
Y139365D02*
D03*
Y136272D02*
D03*
Y133179D02*
D03*
Y130086D02*
D03*
Y126993D02*
D03*
Y123900D02*
D03*
Y120807D02*
D03*
Y117714D02*
D03*
Y114621D02*
D03*
X54409Y148307D02*
D03*
X52677Y145630D02*
D03*
Y142481D02*
D03*
Y139333D02*
D03*
Y136184D02*
D03*
Y133036D02*
D03*
Y129887D02*
D03*
Y126739D02*
D03*
Y123590D02*
D03*
Y120441D02*
D03*
Y117293D02*
D03*
Y110996D02*
D03*
Y107847D02*
D03*
Y104699D02*
D03*
Y101550D02*
D03*
Y98402D02*
D03*
Y95253D02*
D03*
Y92105D02*
D03*
Y88956D02*
D03*
Y85808D02*
D03*
Y82659D02*
D03*
Y79510D02*
D03*
Y76362D02*
D03*
Y73213D02*
D03*
Y70265D02*
D03*
X60551Y105342D02*
D03*
Y102249D02*
D03*
Y99155D02*
D03*
Y96062D02*
D03*
Y92970D02*
D03*
Y89876D02*
D03*
Y86783D02*
D03*
Y83690D02*
D03*
Y80597D02*
D03*
Y77504D02*
D03*
Y74411D02*
D03*
Y71318D02*
D03*
X52677Y66916D02*
D03*
Y63568D02*
D03*
Y60619D02*
D03*
Y57471D02*
D03*
Y53622D02*
D03*
Y48625D02*
D03*
Y44877D02*
D03*
Y41728D02*
D03*
Y37279D02*
D03*
X52800Y31970D02*
D03*
X52677Y29134D02*
D03*
X60551Y58910D02*
D03*
Y55659D02*
D03*
Y48856D02*
D03*
Y38161D02*
D03*
Y35161D02*
D03*
Y32161D02*
D03*
X62672Y70761D02*
D03*
X60827Y158228D02*
D03*
X52598Y160827D02*
D03*
X60551Y29200D02*
D03*
X49949Y29134D02*
D03*
X137598Y81417D02*
D03*
X140079Y89291D02*
D03*
X167480Y155945D02*
D03*
X171844Y136496D02*
D03*
X138071Y157283D02*
D03*
X130769Y155945D02*
D03*
X175079Y128583D02*
D03*
X163661Y155945D02*
D03*
X175079Y136496D02*
D03*
X171063Y147953D02*
D03*
X175079Y140823D02*
D03*
X165375Y136496D02*
D03*
X175079Y147953D02*
D03*
X163622Y147953D02*
D03*
X167205D02*
D03*
X133031Y145089D02*
D03*
X215828Y22970D02*
D03*
X219505Y21840D02*
D03*
X223293D02*
D03*
X227081D02*
D03*
X230334Y22779D02*
D03*
X218553Y29458D02*
D03*
X218189Y36024D02*
D03*
X188631Y24267D02*
D03*
X215336Y17937D02*
D03*
X212662Y16547D02*
D03*
X213268Y34291D02*
D03*
X209311Y16547D02*
D03*
X205961D02*
D03*
X199259D02*
D03*
X195909D02*
D03*
X189208D02*
D03*
X174022D02*
D03*
X170522D02*
D03*
X167022D02*
D03*
X163522D02*
D03*
X160022D02*
D03*
X156522D02*
D03*
X153022D02*
D03*
X149522D02*
D03*
X208000Y22956D02*
D03*
X208015Y25546D02*
D03*
X192306Y24267D02*
D03*
X174022D02*
D03*
X170533D02*
D03*
X167043D02*
D03*
X164009Y24565D02*
D03*
X161150Y24267D02*
D03*
X157993D02*
D03*
X115787Y90118D02*
D03*
X106471Y89291D02*
D03*
X110722Y82461D02*
D03*
X107572Y81417D02*
D03*
X102047Y79843D02*
D03*
X80354Y81417D02*
D03*
X70630Y85630D02*
D03*
X68622Y81063D02*
D03*
X78701Y89291D02*
D03*
X81614D02*
D03*
X89016Y79764D02*
D03*
X166131Y44774D02*
D03*
X84409Y81417D02*
D03*
X76339D02*
D03*
X175512Y39724D02*
D03*
X167087Y42323D02*
D03*
X172598Y45315D02*
D03*
X175472Y44252D02*
D03*
X68504Y75000D02*
D03*
X172008Y33543D02*
D03*
X169381Y40674D02*
D03*
X63305Y148175D02*
D03*
X52598Y163390D02*
D03*
X39467Y176474D02*
D03*
X36345D02*
D03*
X33222D02*
D03*
X58217Y175563D02*
D03*
X55079Y176474D02*
D03*
X51956D02*
D03*
X60827Y170394D02*
D03*
X10748Y41850D02*
D03*
X28504Y21220D02*
D03*
X36662D02*
D03*
X39505D02*
D03*
X48035D02*
D03*
X50879D02*
D03*
X28268Y29134D02*
D03*
X36310D02*
D03*
X41766D02*
D03*
X44494D02*
D03*
X53722Y21220D02*
D03*
X56850Y21811D02*
D03*
X47222Y29134D02*
D03*
X140222Y150761D02*
D03*
Y153361D02*
D03*
X136815Y155261D02*
D03*
X143618Y148861D02*
D03*
X133031Y136496D02*
D03*
X140222Y156261D02*
D03*
X104331Y160984D02*
D03*
X108898Y160906D02*
D03*
X113240Y158180D02*
D03*
X115650Y155945D02*
D03*
X127402D02*
D03*
X142362Y157244D02*
D03*
X137953Y146811D02*
D03*
X182992Y118543D02*
D03*
X174280Y101600D02*
D03*
X129619Y89646D02*
D03*
X142283Y146929D02*
D03*
X132362Y89646D02*
D03*
X174550Y96340D02*
D03*
X200709Y129724D02*
D03*
X167953Y94751D02*
D03*
Y97454D02*
D03*
X175669Y91850D02*
D03*
X184722Y87361D02*
D03*
X172222Y89461D02*
D03*
X182953Y97087D02*
D03*
X152756Y119134D02*
D03*
X126400Y110950D02*
D03*
X50122Y156961D02*
D03*
X44932Y160730D02*
D03*
X64500Y46690D02*
D03*
X37122Y126761D02*
D03*
X64590Y30610D02*
D03*
X68272Y56461D02*
D03*
X105984Y71969D02*
D03*
X150250Y84550D02*
D03*
X135122Y57361D02*
D03*
X131072D02*
D03*
X215813Y20414D02*
D03*
X148794Y24820D02*
D03*
Y26769D02*
D03*
Y28758D02*
D03*
Y30762D02*
D03*
Y32695D02*
D03*
X182178Y56897D02*
D03*
X181678Y62739D02*
D03*
X192558Y16547D02*
D03*
X156299Y83307D02*
D03*
X240905Y147087D02*
D03*
X242060Y169044D02*
D03*
X209860Y187344D02*
D03*
X158409Y54646D02*
D03*
X257822Y165761D02*
D03*
X172722Y165561D02*
D03*
X152422Y159863D02*
D03*
X152422Y165661D02*
D03*
X276822Y49961D02*
D03*
X276622Y65061D02*
D03*
X269998Y50361D02*
D03*
X323922Y15461D02*
D03*
X324022Y9761D02*
D03*
X333922Y9861D02*
D03*
X373780Y20630D02*
D03*
X363522Y9361D02*
D03*
X379122Y16161D02*
D03*
X346378Y38701D02*
D03*
X368189Y39882D02*
D03*
X372913Y53976D02*
D03*
X380922Y56761D02*
D03*
X300590Y86614D02*
D03*
X314316Y94073D02*
D03*
X274916Y89773D02*
D03*
X304022Y98261D02*
D03*
X280622Y85561D02*
D03*
X287922Y98561D02*
D03*
X280522Y107235D02*
D03*
X280322Y130761D02*
D03*
X276822Y135461D02*
D03*
X280522Y140261D02*
D03*
X297330Y152080D02*
D03*
X168022Y159461D02*
D03*
X134006Y155945D02*
D03*
X173858Y30354D02*
D03*
X139016Y90984D02*
D03*
X181535Y67126D02*
D03*
X33522Y47161D02*
D03*
X38322Y6961D02*
D03*
X34528Y62205D02*
D03*
X40422Y35461D02*
D03*
X81929Y5551D02*
D03*
X130922Y53711D02*
D03*
X192316Y30162D02*
D03*
X176063Y34331D02*
D03*
X258322Y9361D02*
D03*
X264822Y15661D02*
D03*
X287822Y10361D02*
D03*
X308222Y8361D02*
D03*
X324922Y41961D02*
D03*
X265422Y76661D02*
D03*
X323622Y67087D02*
D03*
X270122Y118261D02*
D03*
X270276Y142874D02*
D03*
X268522Y147661D02*
D03*
X103661Y21378D02*
D03*
X253450Y125750D02*
D03*
X339803Y123425D02*
D03*
X265522Y32061D02*
D03*
X265222Y54861D02*
D03*
X265422Y71361D02*
D03*
X264522Y180261D02*
D03*
X258122Y185661D02*
D03*
X199055Y137480D02*
D03*
X191208Y188328D02*
D03*
X171922Y188161D02*
D03*
X134322Y188361D02*
D03*
X123722Y188161D02*
D03*
X104022Y188261D02*
D03*
X84222Y188361D02*
D03*
X66022Y187161D02*
D03*
X65197Y178307D02*
D03*
X62953Y155669D02*
D03*
X119570Y130200D02*
D03*
X115905Y118189D02*
D03*
X110315Y144488D02*
D03*
X43222Y58161D02*
D03*
X42922Y34761D02*
D03*
X31804Y161861D02*
D03*
X11904Y181761D02*
D03*
X36422Y14261D02*
D03*
X15522Y14761D02*
D03*
X11307Y34661D02*
D03*
X35722Y35761D02*
D03*
X283522Y87261D02*
D03*
X123122Y57361D02*
D03*
X167292Y28495D02*
D03*
X92000Y69800D02*
D03*
X80872Y69761D02*
D03*
X89016Y36850D02*
D03*
X78661Y46024D02*
D03*
X42589Y176474D02*
D03*
X39038Y29134D02*
D03*
X42349Y21220D02*
D03*
X182992Y151024D02*
D03*
Y147776D02*
D03*
X181320Y154670D02*
D03*
X215216Y130273D02*
D03*
X219916D02*
D03*
X224616D02*
D03*
X229316Y131673D02*
D03*
X234016Y130273D02*
D03*
X220700Y92378D02*
D03*
X218732D02*
D03*
X212826D02*
D03*
X212795Y83976D02*
D03*
X215122Y81861D02*
D03*
X196816Y92373D02*
D03*
X181469Y104134D02*
D03*
X230550Y145810D02*
D03*
X205614Y148417D02*
D03*
X218504Y147874D02*
D03*
X182992Y125039D02*
D03*
Y128287D02*
D03*
X176147Y106105D02*
D03*
X184850Y94910D02*
D03*
X188650Y90280D02*
D03*
X191772Y147598D02*
D03*
X189173Y104252D02*
D03*
X186850Y104134D02*
D03*
X154346Y128583D02*
D03*
X157801D02*
D03*
X182992Y112047D02*
D03*
X184291Y104134D02*
D03*
X188222Y71161D02*
D03*
X193222Y91161D02*
D03*
X164812Y128583D02*
D03*
X155672Y136496D02*
D03*
X136266D02*
D03*
X140315Y148228D02*
D03*
X139500Y136496D02*
D03*
X142735D02*
D03*
X125118Y144527D02*
D03*
X133031Y142224D02*
D03*
Y139360D02*
D03*
X186850Y112047D02*
D03*
X190915Y133565D02*
D03*
X192687Y136275D02*
D03*
X185315Y159173D02*
D03*
X143879Y128583D02*
D03*
X127205Y130394D02*
D03*
X125118Y138465D02*
D03*
X158907Y136496D02*
D03*
X127449Y124764D02*
D03*
X168168Y128583D02*
D03*
X140524D02*
D03*
X125118Y147559D02*
D03*
X70550Y118380D02*
D03*
X70320Y128590D02*
D03*
Y135660D02*
D03*
X64173Y124252D02*
D03*
X108610Y125320D02*
D03*
X64016Y113937D02*
D03*
X62598Y35079D02*
D03*
X70490Y114700D02*
D03*
X62598Y60669D02*
D03*
X68299Y22712D02*
D03*
X66693Y85472D02*
D03*
X66390Y103110D02*
D03*
X66339Y99055D02*
D03*
X72320Y82390D02*
D03*
X169810Y35130D02*
D03*
X33622Y80061D02*
D03*
X155079Y44646D02*
D03*
X60551Y45906D02*
D03*
X169961Y30236D02*
D03*
X171142Y27795D02*
D03*
X153606Y56142D02*
D03*
X73622Y21693D02*
D03*
X62750Y20340D02*
D03*
X78222Y17161D02*
D03*
X45192Y21220D02*
D03*
X47756Y61890D02*
D03*
X108840Y135940D02*
D03*
X145969Y136496D02*
D03*
X96142Y182441D02*
D03*
X108950Y118200D02*
D03*
X125118Y135433D02*
D03*
X16417Y134488D02*
D03*
X128230Y172950D02*
D03*
X16042Y118150D02*
D03*
X16417Y88661D02*
D03*
X125118Y132402D02*
D03*
X121070Y122740D02*
D03*
X152438Y136496D02*
D03*
X72756Y178504D02*
D03*
X114690Y128540D02*
D03*
X13400Y170300D02*
D03*
X137068Y128583D02*
D03*
X125118Y141496D02*
D03*
X127008Y120787D02*
D03*
X121980Y173740D02*
D03*
X118167Y173302D02*
D03*
X109130Y114820D02*
D03*
X104167Y173302D02*
D03*
X99167D02*
D03*
X94167D02*
D03*
X89167D02*
D03*
X84167D02*
D03*
X79167D02*
D03*
X74167D02*
D03*
X68937Y172913D02*
D03*
X124055Y117598D02*
D03*
X21732Y49646D02*
D03*
X114290Y141340D02*
D03*
X111180Y109280D02*
D03*
X83167Y168302D02*
D03*
X88167D02*
D03*
X93167D02*
D03*
X98167D02*
D03*
X103167D02*
D03*
X113167D02*
D03*
X124567Y164291D02*
D03*
X134843Y167283D02*
D03*
X133167Y173302D02*
D03*
X108670Y128140D02*
D03*
X78167Y168302D02*
D03*
X60827Y161281D02*
D03*
X143222Y167161D02*
D03*
X16417Y111772D02*
D03*
X154724Y58307D02*
D03*
X133613Y128583D02*
D03*
X144055Y188071D02*
D03*
X119170Y138640D02*
D03*
X117300Y112400D02*
D03*
X155017Y187869D02*
D03*
X199646Y134252D02*
D03*
X165017Y187869D02*
D03*
X234488Y150748D02*
D03*
X210748Y158780D02*
D03*
X187222Y167161D02*
D03*
X182222D02*
D03*
X172600Y168250D02*
D03*
X162222Y167161D02*
D03*
X157222D02*
D03*
X172990Y125370D02*
D03*
X197222Y167161D02*
D03*
X173033Y12374D02*
D03*
X153228Y26811D02*
D03*
X164331Y27559D02*
D03*
X172244Y36693D02*
D03*
X165276Y47559D02*
D03*
X163883Y45665D02*
D03*
X157641Y45977D02*
D03*
X160675Y45731D02*
D03*
X173222Y47161D02*
D03*
X198100Y49100D02*
D03*
X176792Y62578D02*
D03*
X168622Y51890D02*
D03*
X163750Y68800D02*
D03*
X194207Y50246D02*
D03*
X220200Y51700D02*
D03*
X221400Y64900D02*
D03*
X217500Y70600D02*
D03*
X217850Y65100D02*
D03*
X213250Y65900D02*
D03*
X210861Y65078D02*
D03*
X92122Y49361D02*
D03*
X226023Y59161D02*
D03*
X167953Y92047D02*
D03*
X52913Y152087D02*
D03*
X15232Y172518D02*
D03*
X17091Y168049D02*
D03*
X26006Y167996D02*
D03*
X26059Y176911D02*
D03*
X17144Y176964D02*
D03*
X16986Y29563D02*
D03*
X15113Y25116D02*
D03*
X16933Y20648D02*
D03*
X21380Y18775D02*
D03*
X25848Y20595D02*
D03*
X25901Y29510D02*
D03*
X21455Y31383D02*
D03*
X21576Y166098D02*
D03*
X150180Y53622D02*
D03*
X129890Y59770D02*
D03*
X190968Y12370D02*
D03*
X197739Y12488D02*
D03*
X195982Y24267D02*
D03*
X202462Y24267D02*
D03*
X224722Y115361D02*
D03*
X219922D02*
D03*
X250478Y141189D02*
D03*
X245478D02*
D03*
Y146189D02*
D03*
X171623Y128583D02*
D03*
X134055Y45630D02*
D03*
X229767Y185565D02*
D03*
X182992Y134783D02*
D03*
X149204Y136496D02*
D03*
X182992Y131525D02*
D03*
X152890Y53160D02*
D03*
X114882Y17323D02*
D03*
X130079Y45630D02*
D03*
X156535Y122638D02*
D03*
X197222Y172161D02*
D03*
X181686Y30241D02*
D03*
X192222Y167161D02*
D03*
X175236Y159212D02*
D03*
X135591Y123268D02*
D03*
X123167Y168302D02*
D03*
X16475Y144882D02*
D03*
X118167Y168302D02*
D03*
X112167Y173302D02*
D03*
X43222Y182161D02*
D03*
X31204Y182561D02*
D03*
X29460Y176457D02*
D03*
X21573Y178784D02*
D03*
X69772Y44761D02*
D03*
X92122Y59361D02*
D03*
X60551Y62161D02*
D03*
X60276Y64055D02*
D03*
X80709Y61614D02*
D03*
X60690Y173247D02*
D03*
X41526Y168516D02*
D03*
X57722Y153261D02*
D03*
X55422D02*
D03*
Y150961D02*
D03*
X65905Y155787D02*
D03*
X58898Y148228D02*
D03*
X60394Y149961D02*
D03*
X57722Y150961D02*
D03*
X60394Y154331D02*
D03*
X58898Y155866D02*
D03*
X52598Y165953D02*
D03*
X44532Y163630D02*
D03*
X52598Y168516D02*
D03*
X35990Y168516D02*
D03*
X231060Y168044D02*
D03*
X224892Y31586D02*
D03*
X222824Y29458D02*
D03*
X148480Y128580D02*
D03*
X182992Y138031D02*
D03*
Y141279D02*
D03*
X133820Y59690D02*
D03*
X70260Y138930D02*
D03*
D120*
X168550Y89440D02*
D03*
X224610Y124720D02*
D03*
X147620Y114010D02*
D03*
X204500Y112250D02*
D03*
X204620Y103990D02*
D03*
X203150Y99630D02*
D03*
X64540Y58370D02*
D03*
X321110Y94600D02*
D03*
X298622Y38161D02*
D03*
X288740Y106535D02*
D03*
X343779Y144567D02*
D03*
X341390Y159673D02*
D03*
X304646Y91929D02*
D03*
X287836Y155947D02*
D03*
X245669Y54764D02*
D03*
X254095Y53976D02*
D03*
X191955Y57290D02*
D03*
X236626Y112063D02*
D03*
X236663Y108126D02*
D03*
X234995Y110094D02*
D03*
X87953Y64373D02*
D03*
X76072Y30961D02*
D03*
X71372D02*
D03*
X70472Y38561D02*
D03*
X69272Y41861D02*
D03*
X206816Y82273D02*
D03*
X196930Y95520D02*
D03*
X196816Y117070D02*
D03*
X203545Y93002D02*
D03*
X234016Y123904D02*
D03*
X229316Y125304D02*
D03*
X201860Y123940D02*
D03*
X203600Y114560D02*
D03*
X219816Y77861D02*
D03*
X171422Y83011D02*
D03*
X278191Y16851D02*
D03*
X271016Y114173D02*
D03*
X340622Y134561D02*
D03*
X66272Y70661D02*
D03*
X65972Y45061D02*
D03*
X171769Y86407D02*
D03*
X146920Y108964D02*
D03*
X130922Y106661D02*
D03*
X136019Y109158D02*
D03*
X279922Y135261D02*
D03*
X52722Y158161D02*
D03*
X336299Y112402D02*
D03*
X36496Y67381D02*
D03*
X38222Y129461D02*
D03*
X236447Y100273D02*
D03*
X204154Y89573D02*
D03*
X235000Y106157D02*
D03*
X234958Y114032D02*
D03*
X236727Y118362D02*
D03*
X273216Y109573D02*
D03*
X276316Y101173D02*
D03*
X378422Y49661D02*
D03*
X143622Y113861D02*
D03*
X238522Y124261D02*
D03*
X146922Y105614D02*
D03*
X139322Y109161D02*
D03*
X49322Y141261D02*
D03*
X125616Y23873D02*
D03*
X129400Y17350D02*
D03*
X191778Y51139D02*
D03*
X197897Y57804D02*
D03*
X191181Y66378D02*
D03*
X194716Y86873D02*
D03*
X251484Y138177D02*
D03*
X178667Y173555D02*
D03*
X184610Y174055D02*
D03*
X271822Y32861D02*
D03*
X278191Y32205D02*
D03*
Y14291D02*
D03*
X300041D02*
D03*
Y32205D02*
D03*
X285116Y23161D02*
D03*
Y20361D02*
D03*
Y17561D02*
D03*
Y25961D02*
D03*
Y28761D02*
D03*
X289116D02*
D03*
Y25961D02*
D03*
Y17561D02*
D03*
Y20361D02*
D03*
Y23161D02*
D03*
X293116Y28761D02*
D03*
Y25961D02*
D03*
Y17561D02*
D03*
Y20361D02*
D03*
Y23161D02*
D03*
X272516Y9748D02*
D03*
X308466Y170511D02*
D03*
Y166961D02*
D03*
Y174061D02*
D03*
X311466D02*
D03*
Y166961D02*
D03*
Y170511D02*
D03*
X314466Y174061D02*
D03*
Y166961D02*
D03*
Y170511D02*
D03*
X244522Y49961D02*
D03*
X257522Y50161D02*
D03*
X251322Y50061D02*
D03*
X349916Y144873D02*
D03*
X362888Y144515D02*
D03*
Y161838D02*
D03*
X349916Y161573D02*
D03*
X370222Y173561D02*
D03*
X386903Y173649D02*
D03*
X353416Y174673D02*
D03*
X358116Y174573D02*
D03*
X291722Y158561D02*
D03*
X219866Y85873D02*
D03*
X238966D02*
D03*
X238900Y77900D02*
D03*
X64600Y32790D02*
D03*
X215516Y123904D02*
D03*
X219916D02*
D03*
X204350Y117010D02*
D03*
X338016Y177273D02*
D03*
X341181Y168032D02*
D03*
X343425Y165866D02*
D03*
X339016Y170315D02*
D03*
X343465Y170276D02*
D03*
X338937Y165866D02*
D03*
X343500Y176990D02*
D03*
X349567Y174488D02*
D03*
X352205Y180118D02*
D03*
X130433Y112716D02*
D03*
X70272Y64061D02*
D03*
X73550Y67461D02*
D03*
X87953Y59803D02*
D03*
Y68942D02*
D03*
X84570Y64373D02*
D03*
Y68942D02*
D03*
Y59803D02*
D03*
X132913Y180433D02*
D03*
X123976Y171496D02*
D03*
X125787Y181693D02*
D03*
X119528Y175433D02*
D03*
X99997Y26929D02*
D03*
Y22359D02*
D03*
X96614Y26929D02*
D03*
Y22359D02*
D03*
Y17790D02*
D03*
X99997D02*
D03*
X123110Y46968D02*
D03*
D121*
X166024Y108976D02*
D03*
X121102Y68858D02*
D03*
X127008D02*
D03*
X118150D02*
D03*
X115197D02*
D03*
X124961Y45276D02*
D03*
X121102Y45354D02*
D03*
X117087Y41653D02*
D03*
X129803D02*
D03*
X133050Y16850D02*
D03*
X124055Y68858D02*
D03*
X134122Y19861D02*
D03*
X133022Y41661D02*
D03*
X126022D02*
D03*
X129822Y31461D02*
D03*
X130822Y29161D02*
D03*
X284747Y130261D02*
D03*
X119922Y41661D02*
D03*
X122972D02*
D03*
X124550Y53250D02*
D03*
X121950Y53180D02*
D03*
D122*
X334222Y136361D02*
D03*
Y146861D02*
D03*
X381102Y68879D02*
D03*
X374646Y68840D02*
D03*
X348819Y90827D02*
D03*
X353976Y86693D02*
D03*
X348701Y86575D02*
D03*
X348780Y95197D02*
D03*
X354016Y90984D02*
D03*
X313013Y37495D02*
D03*
X308347D02*
D03*
X261700Y95787D02*
D03*
X102422Y47261D02*
D03*
X97522D02*
D03*
X102422Y51561D02*
D03*
X97522D02*
D03*
Y55861D02*
D03*
X102422D02*
D03*
X196400Y66400D02*
D03*
X259778Y148689D02*
D03*
X308622Y102661D02*
D03*
X308522Y23361D02*
D03*
Y28111D02*
D03*
X313122Y23361D02*
D03*
Y28111D02*
D03*
X308522Y32861D02*
D03*
X313122D02*
D03*
X250222Y24811D02*
D03*
X321522Y174161D02*
D03*
X348583Y107583D02*
D03*
X353525Y103317D02*
D03*
X348583D02*
D03*
X353425Y111850D02*
D03*
X122222Y28061D02*
D03*
X117322D02*
D03*
X122222Y32061D02*
D03*
X117322D02*
D03*
X185878Y68500D02*
D03*
X328884Y182868D02*
D03*
X191622Y172061D02*
D03*
X353504Y107583D02*
D03*
X348583Y111850D02*
D03*
X354134Y95315D02*
D03*
X245622Y24811D02*
D03*
X250222Y20261D02*
D03*
X245622D02*
D03*
X250222Y15711D02*
D03*
X245622D02*
D03*
D123*
X95589Y80934D02*
D03*
Y89635D02*
D03*
X84023Y155924D02*
D03*
X95444Y151119D02*
D03*
X82323Y160728D02*
D03*
X84023Y151119D02*
D03*
X95444Y155924D02*
D03*
X97244Y160728D02*
D03*
X83823Y98269D02*
D03*
X95944Y103074D02*
D03*
Y98269D02*
D03*
X82323Y93465D02*
D03*
X83823Y103074D02*
D03*
X97244Y93465D02*
D03*
X89685Y162342D02*
D03*
Y158209D02*
D03*
Y154075D02*
D03*
Y149941D02*
D03*
Y145807D02*
D03*
Y141673D02*
D03*
Y133405D02*
D03*
Y125138D02*
D03*
Y121004D02*
D03*
Y112736D02*
D03*
Y108602D02*
D03*
Y104469D02*
D03*
Y100335D02*
D03*
Y96201D02*
D03*
X82323Y117487D02*
D03*
Y112683D02*
D03*
X83823Y107878D02*
D03*
X82323Y131901D02*
D03*
Y127096D02*
D03*
Y122292D02*
D03*
X84023Y146315D02*
D03*
X82323Y141510D02*
D03*
Y136706D02*
D03*
X95444Y146315D02*
D03*
X97244Y141510D02*
D03*
Y136706D02*
D03*
Y131901D02*
D03*
Y127096D02*
D03*
Y122292D02*
D03*
Y117487D02*
D03*
Y112683D02*
D03*
X95944Y107878D02*
D03*
X104606Y142775D02*
D03*
Y136378D02*
D03*
Y129980D02*
D03*
Y123583D02*
D03*
Y117185D02*
D03*
Y110787D02*
D03*
X89685Y137539D02*
D03*
Y129272D02*
D03*
Y116870D02*
D03*
X76181Y110787D02*
D03*
Y117185D02*
D03*
Y123583D02*
D03*
Y129980D02*
D03*
Y136378D02*
D03*
Y142775D02*
D03*
D124*
X212629Y112260D02*
D03*
X217354D02*
D03*
X212629Y107535D02*
D03*
X217354D02*
D03*
X222078D02*
D03*
X226802D02*
D03*
X212629Y102811D02*
D03*
X217354D02*
D03*
X222078D02*
D03*
X226802D02*
D03*
X212629Y98087D02*
D03*
X217354D02*
D03*
X222078D02*
D03*
X226802D02*
D03*
Y112260D02*
D03*
X222078D02*
D03*
D125*
X145516Y29773D02*
D03*
Y31773D02*
D03*
X143516Y23773D02*
D03*
Y27773D02*
D03*
X145516D02*
D03*
X141516Y25773D02*
D03*
Y23773D02*
D03*
X143516Y25773D02*
D03*
X141516Y27773D02*
D03*
X145516Y23773D02*
D03*
Y25773D02*
D03*
X137516Y31773D02*
D03*
X139516D02*
D03*
X141516D02*
D03*
X143516D02*
D03*
Y29773D02*
D03*
X141516D02*
D03*
X139516D02*
D03*
X137516D02*
D03*
X139516Y27773D02*
D03*
X137516D02*
D03*
X139516Y23773D02*
D03*
X137516D02*
D03*
X139516Y25773D02*
D03*
X137516D02*
D03*
D126*
X299252Y153937D02*
D03*
X278000Y167400D02*
D03*
D127*
X80472Y34161D02*
D03*
X180600Y79700D02*
D03*
X23022Y129461D02*
D03*
Y67381D02*
D03*
X50522Y148361D02*
D03*
X145922Y123361D02*
D03*
X76108Y65000D02*
D03*
D128*
X204200Y84357D02*
D03*
D129*
X20827Y98421D02*
D03*
X160744Y35787D02*
D03*
X379295Y185300D02*
D03*
X357422Y32650D02*
D03*
D133*
X251181Y101102D02*
D03*
X245522D02*
D03*
D134*
X386903Y132704D02*
D03*
X370565D02*
D03*
Y173649D02*
D03*
X386903D02*
D03*
D135*
X362888Y144515D02*
D03*
Y161838D02*
D03*
D136*
X369974Y148058D02*
D03*
D137*
Y150617D02*
D03*
Y153176D02*
D03*
Y155735D02*
D03*
Y158294D02*
D03*
D138*
X307017Y96794D02*
D03*
X282214Y86952D02*
D03*
X307017D02*
D03*
X282214Y96794D02*
D03*
D139*
X307703Y127173D02*
D03*
D140*
X294907Y142921D02*
D03*
X297466D02*
D03*
X300026D02*
D03*
X302585D02*
D03*
X305144D02*
D03*
X307703D02*
D03*
X310262D02*
D03*
X312821D02*
D03*
X315380D02*
D03*
X317939D02*
D03*
X320498D02*
D03*
Y111425D02*
D03*
X317939D02*
D03*
X315380D02*
D03*
X312821D02*
D03*
X310262D02*
D03*
X307703D02*
D03*
X305144D02*
D03*
X302585D02*
D03*
X300026D02*
D03*
X297466D02*
D03*
X294907D02*
D03*
D141*
X323451Y139969D02*
D03*
Y137409D02*
D03*
Y134850D02*
D03*
Y132291D02*
D03*
Y129732D02*
D03*
Y127426D02*
D03*
Y124614D02*
D03*
Y122055D02*
D03*
Y119496D02*
D03*
Y116937D02*
D03*
Y114378D02*
D03*
X291955D02*
D03*
Y116937D02*
D03*
Y119496D02*
D03*
Y122055D02*
D03*
Y124614D02*
D03*
Y127183D02*
D03*
Y129732D02*
D03*
Y132291D02*
D03*
Y134850D02*
D03*
Y137409D02*
D03*
Y139969D02*
D03*
D142*
X332369Y154751D02*
D03*
X339062Y154751D02*
D03*
X332369Y151602D02*
D03*
X339062D02*
D03*
D143*
X297766Y175061D02*
D03*
X303278D02*
D03*
X300666Y179761D02*
D03*
X306178D02*
D03*
D144*
X351929Y180157D02*
D03*
X341693D02*
D03*
D145*
X334216Y115494D02*
Y119586D01*
X317520Y147206D02*
Y152560D01*
D146*
X348110Y170373D02*
X358116D01*
X359816Y168673D02*
X367216D01*
X369974Y165915D01*
Y158761D02*
Y165915D01*
X358116Y170373D02*
X359816Y168673D01*
X340822Y173937D02*
Y178561D01*
X344586Y173898D02*
X348110Y170373D01*
X340871Y173898D02*
X344586D01*
X340822Y178561D02*
X348722Y186461D01*
D147*
X245177Y101243D02*
D03*
D148*
X249644Y101009D02*
D03*
D149*
X351349Y90925D02*
D03*
M02*
