%FSLAX25Y25*%
%MOIN*%
G70*
G01*
G75*
G04 Layer_Physical_Order=5*
G04 Layer_Color=6736896*
%ADD10C,0.01102*%
%ADD11R,0.01969X0.01969*%
%ADD12C,0.06811*%
%ADD13R,0.02200X0.02200*%
%ADD14R,0.24016X0.12047*%
%ADD15R,0.04331X0.02559*%
%ADD16R,0.04331X0.02200*%
%ADD17R,0.02362X0.04724*%
%ADD18R,0.01882X0.01024*%
%ADD19R,0.06890X0.05709*%
%ADD20R,0.05709X0.06890*%
%ADD21R,0.20866X0.07874*%
%ADD22R,0.08858X0.08465*%
%ADD23R,0.03200X0.03800*%
%ADD24R,0.06000X0.12000*%
%ADD25R,0.18000X0.10000*%
%ADD26R,0.03800X0.03200*%
%ADD27R,0.02874X0.01181*%
%ADD28R,0.01181X0.02874*%
%ADD29R,0.01181X0.03268*%
%ADD30R,0.03268X0.01181*%
%ADD31R,0.12047X0.24016*%
%ADD32R,0.09685X0.03110*%
%ADD33R,0.13000X0.07874*%
%ADD34R,0.04803X0.02441*%
%ADD35R,0.01870X0.00984*%
%ADD36R,0.00984X0.01870*%
%ADD37R,0.04331X0.04331*%
%ADD38R,0.02559X0.04331*%
%ADD39R,0.02047X0.04331*%
%ADD40R,0.03937X0.01378*%
%ADD41R,0.01378X0.03937*%
%ADD42R,0.02402X0.04902*%
%ADD43R,0.04095X0.07087*%
%ADD44R,0.04331X0.05512*%
%ADD45R,0.02165X0.01181*%
%ADD46R,0.02953X0.01181*%
%ADD47R,0.01181X0.02165*%
%ADD48R,0.01181X0.02953*%
%ADD49R,0.20630X0.20630*%
%ADD50R,0.02079X0.01024*%
%ADD51R,0.01024X0.02079*%
%ADD52R,0.10630X0.10630*%
%ADD53R,0.04134X0.01772*%
%ADD54R,0.11575X0.14094*%
%ADD55R,0.06890X0.06890*%
%ADD56O,0.02362X0.01181*%
%ADD57R,0.10000X0.14000*%
%ADD58R,0.02441X0.04803*%
%ADD59R,0.10236X0.03937*%
%ADD60R,0.03937X0.10236*%
%ADD61R,0.12992X0.12992*%
%ADD62R,0.07874X0.09843*%
%ADD63R,0.07874X0.07874*%
%ADD64R,0.02756X0.02165*%
%ADD65R,0.10433X0.03150*%
%ADD66R,0.02165X0.02165*%
%ADD67R,0.02165X0.02756*%
%ADD68R,0.03150X0.10433*%
%ADD69R,0.02165X0.02165*%
%ADD70R,0.02756X0.01181*%
%ADD71R,0.02200X0.01575*%
%ADD72R,0.01575X0.02200*%
G04:AMPARAMS|DCode=73|XSize=22mil|YSize=15.75mil|CornerRadius=0mil|HoleSize=0mil|Usage=FLASHONLY|Rotation=83.000|XOffset=0mil|YOffset=0mil|HoleType=Round|Shape=Rectangle|*
%AMROTATEDRECTD73*
4,1,4,0.00648,-0.01188,-0.00916,-0.00996,-0.00648,0.01188,0.00916,0.00996,0.00648,-0.01188,0.0*
%
%ADD73ROTATEDRECTD73*%

G04:AMPARAMS|DCode=74|XSize=22mil|YSize=15.75mil|CornerRadius=0mil|HoleSize=0mil|Usage=FLASHONLY|Rotation=97.000|XOffset=0mil|YOffset=0mil|HoleType=Round|Shape=Rectangle|*
%AMROTATEDRECTD74*
4,1,4,0.00916,-0.00996,-0.00648,-0.01188,-0.00916,0.00996,0.00648,0.01188,0.00916,-0.00996,0.0*
%
%ADD74ROTATEDRECTD74*%

%ADD75R,0.01969X0.03543*%
%ADD76R,0.03543X0.01969*%
%ADD77R,0.01969X0.03347*%
%ADD78R,0.03347X0.01969*%
%ADD79R,0.06496X0.06496*%
%ADD80R,0.05906X0.05906*%
%ADD81R,0.05906X0.05906*%
%ADD82R,0.07874X0.31496*%
%ADD83C,0.01400*%
%ADD84C,0.01000*%
%ADD85C,0.07000*%
%ADD86C,0.02400*%
%ADD87C,0.01575*%
%ADD88C,0.01100*%
%ADD89C,0.07874*%
%ADD90C,0.02362*%
%ADD91C,0.09000*%
%ADD92C,0.02000*%
%ADD93C,0.02047*%
%ADD94C,0.01600*%
%ADD95C,0.01969*%
%ADD96C,0.01200*%
%ADD97C,0.05000*%
%ADD98C,0.03500*%
%ADD99C,0.02200*%
%ADD100C,0.00984*%
%ADD101R,0.12835X0.09900*%
%ADD102R,0.11900X0.24400*%
%ADD103R,0.10700X0.08011*%
%ADD104R,0.10800X0.14300*%
%ADD105R,0.14525X0.03200*%
%ADD106R,0.18522X0.03500*%
%ADD107R,0.00433X0.01700*%
%ADD108R,0.10800X0.20947*%
%ADD109R,0.12402X0.23701*%
%ADD110R,0.09900X0.12520*%
%ADD111R,0.13976X0.55984*%
%ADD112R,0.35039X0.34961*%
%ADD113C,0.06299*%
%ADD114R,0.06299X0.06299*%
%ADD115R,0.03937X0.03937*%
%ADD116C,0.03937*%
%ADD117R,0.03937X0.03937*%
%ADD118C,0.01400*%
%ADD119C,0.01200*%
%ADD120C,0.01800*%
%ADD121C,0.02000*%
%ADD122C,0.04000*%
%ADD123C,0.01969*%
%ADD124C,0.02598*%
%ADD125C,0.00787*%
%ADD126C,0.01000*%
%ADD127C,0.02500*%
%ADD128C,0.02362*%
%ADD129C,0.14961*%
%ADD130C,0.03000*%
%ADD131R,0.11900X0.14889*%
%ADD132C,0.06000*%
G36*
X11415Y193060D02*
X374066D01*
X374163Y192570D01*
X372652Y191944D01*
X369900Y185300D01*
X372652Y178656D01*
X379295Y175905D01*
X385939Y178656D01*
X386688Y180465D01*
X387150Y180656D01*
X388222Y180212D01*
X389495Y180740D01*
X389911Y180462D01*
Y172486D01*
X375589D01*
Y172648D01*
X371403Y170914D01*
X370943Y169802D01*
X370941Y169802D01*
X369832Y167123D01*
Y167121D01*
X369670Y166729D01*
X369832D01*
Y140056D01*
X369832Y140056D01*
Y139662D01*
X369662D01*
X371427Y135401D01*
X375687Y133637D01*
Y133807D01*
X389911D01*
Y117210D01*
X359545D01*
X356867Y116101D01*
X356220Y114539D01*
X355758Y114348D01*
X353425Y115314D01*
X351004Y114311D01*
X348583Y115314D01*
X346133Y114300D01*
X345119Y111850D01*
X346003Y109717D01*
X345119Y107583D01*
X346003Y105450D01*
X345119Y103317D01*
X346133Y100867D01*
X348583Y99853D01*
X351032Y100867D01*
X351032Y100867D01*
X351076D01*
Y100867D01*
X353525Y99853D01*
X355710Y100758D01*
X356125Y100480D01*
Y98404D01*
X355710Y98126D01*
X354134Y98779D01*
X351685Y97764D01*
X351636Y97646D01*
X351229D01*
X351229Y97646D01*
Y97646D01*
X348780Y98660D01*
X346330Y97646D01*
X345316Y95197D01*
X346241Y92964D01*
X345355Y90827D01*
X346177Y88843D01*
X345237Y86575D01*
X346252Y84126D01*
X348701Y83111D01*
X351150Y84126D01*
X351199Y84244D01*
X351527D01*
X351527Y84244D01*
Y84244D01*
X353976Y83229D01*
X356426Y84244D01*
X356815Y85183D01*
X357277Y85375D01*
X359541Y84437D01*
X389911D01*
Y75478D01*
X388876D01*
Y75633D01*
X384615Y73868D01*
X382851Y69607D01*
X383021D01*
Y57679D01*
X382530Y57581D01*
X382300Y58138D01*
X380922Y58709D01*
X379544Y58138D01*
X378974Y56761D01*
X379544Y55383D01*
X380922Y54812D01*
X382300Y55383D01*
X382530Y55940D01*
X383021Y55842D01*
Y29072D01*
X382851D01*
X384615Y24811D01*
X388876Y23046D01*
Y23216D01*
X389902D01*
Y11416D01*
X389949Y11304D01*
X387734Y5959D01*
X382386Y3743D01*
X382282Y3787D01*
X95086D01*
X94808Y4202D01*
X95334Y5472D01*
X94763Y6850D01*
X93386Y7421D01*
X92008Y6850D01*
X91438Y5472D01*
X91964Y4202D01*
X91686Y3787D01*
X83596D01*
X83319Y4202D01*
X83877Y5551D01*
X83307Y6929D01*
X81929Y7500D01*
X80551Y6929D01*
X79981Y5551D01*
X80540Y4202D01*
X80262Y3787D01*
X70344D01*
X70246Y4277D01*
X70472Y4370D01*
X71043Y5748D01*
X70472Y7126D01*
X69095Y7696D01*
X67717Y7126D01*
X67146Y5748D01*
X67717Y4370D01*
X67942Y4277D01*
X67845Y3787D01*
X11415D01*
X11308Y3742D01*
X8594Y4866D01*
Y5367D01*
X9600Y5783D01*
X10170Y7161D01*
X9600Y8538D01*
X8222Y9109D01*
X6844Y8538D01*
X6274Y7161D01*
X6690Y6155D01*
X6433Y5898D01*
X5943Y5995D01*
X4190Y10225D01*
X4254Y10289D01*
X4254Y10289D01*
X4254Y10289D01*
X5632Y10859D01*
X6203Y12237D01*
X5632Y13615D01*
X4254Y14186D01*
X4202Y14164D01*
X3786Y14441D01*
Y15033D01*
X4202Y15311D01*
X4254Y15289D01*
X5632Y15859D01*
X5815Y16301D01*
X6315D01*
X6530Y15783D01*
X7907Y15212D01*
X9285Y15783D01*
X9855Y17161D01*
X9285Y18538D01*
X7907Y19109D01*
X6530Y18538D01*
X6347Y18097D01*
X5847D01*
X5632Y18615D01*
X4254Y19185D01*
X4202Y19164D01*
X3786Y19441D01*
Y20033D01*
X4202Y20311D01*
X4254Y20289D01*
X5632Y20859D01*
X6203Y22237D01*
X5632Y23615D01*
X4254Y24185D01*
X4202Y24164D01*
X3786Y24441D01*
Y25033D01*
X4202Y25311D01*
X4254Y25289D01*
X5632Y25859D01*
X6203Y27237D01*
X5632Y28615D01*
X4254Y29186D01*
X4202Y29164D01*
X3786Y29441D01*
Y30033D01*
X4202Y30311D01*
X4254Y30289D01*
X5632Y30860D01*
X6203Y32237D01*
X5632Y33615D01*
X4254Y34185D01*
X4202Y34164D01*
X3786Y34441D01*
Y35033D01*
X4202Y35311D01*
X4254Y35289D01*
X5632Y35860D01*
X6203Y37237D01*
X5632Y38615D01*
X4254Y39186D01*
X4202Y39164D01*
X3786Y39441D01*
Y40033D01*
X4202Y40311D01*
X4254Y40289D01*
X5632Y40859D01*
X6203Y42237D01*
X5632Y43615D01*
X4254Y44186D01*
X4202Y44164D01*
X3786Y44441D01*
Y45033D01*
X4202Y45311D01*
X4254Y45289D01*
X5632Y45860D01*
X6203Y47237D01*
X5632Y48615D01*
X4254Y49185D01*
X4202Y49164D01*
X3786Y49441D01*
Y50033D01*
X4202Y50311D01*
X4254Y50289D01*
X5632Y50859D01*
X6203Y52237D01*
X5632Y53615D01*
X4254Y54185D01*
X4202Y54164D01*
X3786Y54441D01*
Y55033D01*
X4202Y55311D01*
X4254Y55289D01*
X5632Y55860D01*
X6203Y57237D01*
X5632Y58615D01*
X4254Y59185D01*
X4202Y59164D01*
X3786Y59441D01*
Y60033D01*
X4202Y60311D01*
X4254Y60289D01*
X5632Y60860D01*
X5972Y61681D01*
X6472D01*
X6844Y60783D01*
X8222Y60212D01*
X9600Y60783D01*
X10170Y62161D01*
X9600Y63538D01*
X8222Y64109D01*
X6844Y63538D01*
X6504Y62717D01*
X6004D01*
X5632Y63615D01*
X4254Y64186D01*
X4202Y64164D01*
X3786Y64441D01*
Y65033D01*
X4202Y65311D01*
X4254Y65289D01*
X5632Y65860D01*
X6203Y67237D01*
X5632Y68615D01*
X4254Y69186D01*
X4202Y69164D01*
X3786Y69441D01*
Y70033D01*
X4202Y70311D01*
X4254Y70289D01*
X5632Y70859D01*
X6203Y72237D01*
X5632Y73615D01*
X4254Y74186D01*
X4202Y74164D01*
X3786Y74441D01*
Y75033D01*
X4202Y75311D01*
X4254Y75289D01*
X5632Y75859D01*
X6203Y77237D01*
X5632Y78615D01*
X4254Y79185D01*
X4202Y79164D01*
X3786Y79441D01*
Y80033D01*
X4202Y80311D01*
X4254Y80289D01*
X5632Y80860D01*
X6203Y82237D01*
X5632Y83615D01*
X4254Y84185D01*
X4202Y84164D01*
X3786Y84441D01*
Y85033D01*
X4202Y85311D01*
X4254Y85289D01*
X5632Y85860D01*
X6203Y87237D01*
X5632Y88615D01*
X4254Y89186D01*
X4202Y89164D01*
X3786Y89441D01*
Y90033D01*
X4202Y90311D01*
X4254Y90289D01*
X5632Y90860D01*
X6203Y92237D01*
X5632Y93615D01*
X4254Y94186D01*
X4202Y94164D01*
X3786Y94441D01*
Y95033D01*
X4202Y95311D01*
X4254Y95289D01*
X5632Y95859D01*
X6203Y97237D01*
X5632Y98615D01*
X4254Y99186D01*
X4202Y99164D01*
X3786Y99441D01*
Y100033D01*
X4202Y100311D01*
X4254Y100289D01*
X5632Y100859D01*
X6203Y102237D01*
X5632Y103615D01*
X4254Y104185D01*
X4202Y104164D01*
X3786Y104441D01*
Y105033D01*
X4202Y105311D01*
X4254Y105289D01*
X5632Y105859D01*
X6203Y107237D01*
X5632Y108615D01*
X4254Y109186D01*
X4202Y109164D01*
X3786Y109441D01*
Y110033D01*
X4202Y110311D01*
X4254Y110289D01*
X5632Y110860D01*
X6203Y112237D01*
X5632Y113615D01*
X4254Y114186D01*
X4202Y114164D01*
X3786Y114441D01*
Y115033D01*
X4202Y115311D01*
X4254Y115289D01*
X5632Y115859D01*
X6203Y117237D01*
X5632Y118615D01*
X4254Y119185D01*
X4202Y119164D01*
X3786Y119441D01*
Y120033D01*
X4202Y120311D01*
X4254Y120289D01*
X5632Y120860D01*
X6203Y122237D01*
X5632Y123615D01*
X4254Y124186D01*
X4202Y124164D01*
X3786Y124441D01*
Y125033D01*
X4202Y125311D01*
X4254Y125289D01*
X5632Y125859D01*
X6203Y127237D01*
X5632Y128615D01*
X4254Y129185D01*
X4202Y129164D01*
X3786Y129441D01*
Y130033D01*
X4202Y130311D01*
X4254Y130289D01*
X5632Y130859D01*
X6203Y132237D01*
X5632Y133615D01*
X4254Y134186D01*
X4202Y134164D01*
X3786Y134441D01*
Y135033D01*
X4202Y135311D01*
X4254Y135289D01*
X5632Y135860D01*
X6203Y137237D01*
X5632Y138615D01*
X4254Y139186D01*
X4202Y139164D01*
X3786Y139441D01*
Y140033D01*
X4202Y140311D01*
X4254Y140289D01*
X5632Y140859D01*
X6203Y142237D01*
X5632Y143615D01*
X4254Y144185D01*
X4202Y144164D01*
X3786Y144441D01*
Y145033D01*
X4202Y145311D01*
X4254Y145289D01*
X5632Y145860D01*
X6203Y147237D01*
X5632Y148615D01*
X4254Y149186D01*
X4202Y149164D01*
X3786Y149441D01*
Y150033D01*
X4202Y150311D01*
X4254Y150289D01*
X5632Y150859D01*
X6203Y152237D01*
X5632Y153615D01*
X4254Y154185D01*
X4202Y154164D01*
X3786Y154441D01*
Y155033D01*
X4202Y155311D01*
X4254Y155289D01*
X5632Y155859D01*
X6203Y157237D01*
X5632Y158615D01*
X4254Y159186D01*
X4202Y159164D01*
X3786Y159441D01*
Y160033D01*
X4202Y160311D01*
X4254Y160289D01*
X5632Y160860D01*
X6203Y162237D01*
X5632Y163615D01*
X4254Y164186D01*
X4202Y164164D01*
X3786Y164441D01*
Y165033D01*
X4202Y165311D01*
X4254Y165289D01*
X5632Y165859D01*
X6203Y167237D01*
X5632Y168615D01*
X4254Y169185D01*
X4202Y169164D01*
X3786Y169441D01*
Y170033D01*
X4202Y170311D01*
X4254Y170289D01*
X5632Y170860D01*
X6203Y172237D01*
X5632Y173615D01*
X4254Y174186D01*
X4202Y174164D01*
X3786Y174441D01*
Y175033D01*
X4202Y175311D01*
X4254Y175289D01*
X5632Y175859D01*
X6203Y177237D01*
X5632Y178615D01*
X4254Y179185D01*
X4202Y179164D01*
X3786Y179441D01*
Y180033D01*
X4202Y180311D01*
X4254Y180289D01*
X5632Y180859D01*
X6203Y182237D01*
X5632Y183615D01*
X4254Y184186D01*
X4202Y184164D01*
X3786Y184441D01*
Y185431D01*
X3786Y185431D01*
X3786D01*
X3742Y185538D01*
X5958Y190888D01*
X11308Y193104D01*
X11415Y193060D01*
D02*
G37*
%LPC*%
G36*
X212795Y85925D02*
X211418Y85354D01*
X210847Y83976D01*
X211418Y82599D01*
X212795Y82028D01*
D01*
X213174Y81861D01*
D01*
X213174Y81861D01*
X213744Y80483D01*
X215122Y79912D01*
X216500Y80483D01*
X217070Y81861D01*
X216500Y83238D01*
X215122Y83809D01*
X214973Y83747D01*
X214744Y83976D01*
X214744Y83976D01*
X214744Y83976D01*
X214173Y85354D01*
X212795Y85925D01*
D02*
G37*
G36*
X203545Y95275D02*
X201938Y94610D01*
X201272Y93002D01*
X201938Y91395D01*
X202533Y91148D01*
X201881Y89573D01*
X202546Y87966D01*
X204015Y87358D01*
Y86877D01*
X204015D01*
Y86858D01*
X202378Y86180D01*
X201623Y84357D01*
X202378Y82535D01*
X204200Y81780D01*
X204340Y81838D01*
X204802Y81647D01*
X205209Y80666D01*
X206816Y80000D01*
X208423Y80666D01*
X209089Y82273D01*
X208423Y83881D01*
X206816Y84546D01*
X206716Y84505D01*
X206022Y86180D01*
X204339Y86877D01*
Y87358D01*
X204339D01*
Y87377D01*
X205761Y87966D01*
X206427Y89573D01*
X205761Y91180D01*
X205166Y91427D01*
X205818Y93002D01*
X205152Y94610D01*
X203545Y95275D01*
D02*
G37*
G36*
X258222Y74109D02*
X256844Y73538D01*
X256274Y72161D01*
X256844Y70783D01*
X258222Y70212D01*
X259600Y70783D01*
X260170Y72161D01*
X259600Y73538D01*
X258222Y74109D01*
D02*
G37*
G36*
X265422Y73309D02*
X264044Y72738D01*
X263474Y71361D01*
X264044Y69983D01*
X265422Y69412D01*
X266800Y69983D01*
X267370Y71361D01*
X266800Y72738D01*
X265422Y73309D01*
D02*
G37*
G36*
X253222Y74109D02*
X251844Y73538D01*
X251274Y72161D01*
X251844Y70783D01*
X253222Y70212D01*
X254600Y70783D01*
X255170Y72161D01*
X254600Y73538D01*
X253222Y74109D01*
D02*
G37*
G36*
X263400Y87248D02*
X262022Y86678D01*
X261452Y85300D01*
X262022Y83922D01*
X263400Y83352D01*
X264778Y83922D01*
X265348Y85300D01*
X264778Y86678D01*
X263400Y87248D01*
D02*
G37*
G36*
X212826Y94326D02*
X211449Y93756D01*
X210878Y92378D01*
X211449Y91000D01*
X212826Y90430D01*
X214204Y91000D01*
X214774Y92378D01*
X214204Y93756D01*
X212826Y94326D01*
D02*
G37*
G36*
X182953Y99035D02*
X181575Y98464D01*
X181004Y97087D01*
X181575Y95709D01*
X182953Y95138D01*
X182953Y95138D01*
Y95138D01*
X182984Y95108D01*
X182902Y94910D01*
X183472Y93532D01*
X184850Y92962D01*
X186228Y93532D01*
X186798Y94910D01*
X186228Y96288D01*
X184850Y96858D01*
X184901Y97087D01*
Y97087D01*
X184330Y98464D01*
X182953Y99035D01*
D02*
G37*
G36*
X288740Y108808D02*
X287133Y108143D01*
X286467Y106535D01*
X287133Y104928D01*
X288740Y104262D01*
X290347Y104928D01*
X290565Y105453D01*
X292622D01*
X303563Y94512D01*
Y93754D01*
X303038Y93536D01*
X302373Y91929D01*
X303038Y90322D01*
X304646Y89656D01*
X306253Y90322D01*
X306919Y91929D01*
X306253Y93536D01*
X305728Y93754D01*
Y94961D01*
X305728Y94961D01*
X305504Y95502D01*
X305411Y95726D01*
X305411Y95726D01*
X293836Y107301D01*
X293071Y107618D01*
X293071Y107618D01*
X290565D01*
X290347Y108143D01*
X288740Y108808D01*
D02*
G37*
G36*
X243110Y90797D02*
X241732Y90226D01*
X241161Y88848D01*
X241732Y87471D01*
X242415Y87188D01*
Y86688D01*
X241821Y86442D01*
X241662Y86059D01*
X241162D01*
X240573Y87480D01*
X238966Y88146D01*
X237359Y87480D01*
X236693Y85873D01*
X237359Y84266D01*
X238966Y83600D01*
X240573Y84266D01*
X240827Y84879D01*
X241327D01*
X241821Y83686D01*
X241844Y83677D01*
Y83538D01*
X241844Y83538D01*
X241844D01*
X241274Y82161D01*
X241844Y80783D01*
X243222Y80212D01*
X244600Y80783D01*
X245170Y82161D01*
X244600Y83538D01*
X244576Y83548D01*
Y83686D01*
X244576Y83687D01*
X244576D01*
X245147Y85064D01*
X244576Y86442D01*
X243893Y86725D01*
Y87225D01*
X244487Y87471D01*
X245058Y88848D01*
X244487Y90226D01*
X243110Y90797D01*
D02*
G37*
G36*
X255500Y90072D02*
X253611Y89289D01*
X253250Y88419D01*
X252750D01*
X252389Y89289D01*
X250500Y90072D01*
X248611Y89289D01*
X247828Y87400D01*
X248611Y85511D01*
X250500Y84728D01*
X252389Y85511D01*
X252750Y86382D01*
X253250D01*
X253611Y85511D01*
X255500Y84728D01*
X257389Y85511D01*
X258172Y87400D01*
X257389Y89289D01*
X255500Y90072D01*
D02*
G37*
G36*
X10748Y43799D02*
X9370Y43228D01*
X8800Y41850D01*
X9370Y40473D01*
X10748Y39902D01*
X12126Y40473D01*
X12696Y41850D01*
X12126Y43228D01*
X10748Y43799D01*
D02*
G37*
G36*
X313013Y40958D02*
X310680Y39992D01*
X308347Y40958D01*
X305897Y39944D01*
X304883Y37495D01*
X305897Y35045D01*
X305954Y35022D01*
X305058Y32861D01*
X306042Y30486D01*
X305058Y28111D01*
X306042Y25736D01*
X305058Y23361D01*
X306073Y20911D01*
X308522Y19897D01*
X310822Y20850D01*
X313122Y19897D01*
X315571Y20911D01*
X316586Y23361D01*
X315602Y25736D01*
X316586Y28111D01*
X315602Y30486D01*
X316586Y32861D01*
X315572Y35309D01*
X316477Y37495D01*
X315462Y39944D01*
X313013Y40958D01*
D02*
G37*
G36*
X23425Y45177D02*
X22048Y44606D01*
X21477Y43228D01*
X22048Y41851D01*
X23425Y41280D01*
X24803Y41851D01*
X25374Y43228D01*
X24803Y44606D01*
X23425Y45177D01*
D02*
G37*
G36*
X35722Y37709D02*
X34344Y37138D01*
X33774Y35761D01*
X34344Y34383D01*
X35722Y33812D01*
X37100Y34383D01*
X37670Y35761D01*
X37100Y37138D01*
X35722Y37709D01*
D02*
G37*
G36*
X298622Y40434D02*
X297015Y39768D01*
X296349Y38161D01*
X297015Y36553D01*
X298622Y35888D01*
X300229Y36553D01*
X300895Y38161D01*
X300229Y39768D01*
X298622Y40434D01*
D02*
G37*
G36*
X368189Y41830D02*
X366811Y41260D01*
X366241Y39882D01*
X366811Y38504D01*
X368189Y37934D01*
X369567Y38504D01*
X370137Y39882D01*
X369567Y41260D01*
X368189Y41830D01*
D02*
G37*
G36*
X17244Y56870D02*
X15866Y56299D01*
X15296Y54921D01*
X15866Y53544D01*
X17244Y52973D01*
X18622Y53544D01*
X19192Y54921D01*
X18622Y56299D01*
X17244Y56870D01*
D02*
G37*
G36*
X34528Y64153D02*
X33150Y63582D01*
X32579Y62205D01*
X33150Y60827D01*
X34528Y60256D01*
X35905Y60827D01*
X36476Y62205D01*
X35905Y63582D01*
X34528Y64153D01*
D02*
G37*
G36*
X16339Y67657D02*
X14961Y67086D01*
X14390Y65709D01*
X14961Y64331D01*
X16339Y63760D01*
X17716Y64331D01*
X18287Y65709D01*
X17716Y67086D01*
X16339Y67657D01*
D02*
G37*
G36*
X33522Y49109D02*
X32144Y48538D01*
X31574Y47161D01*
X32144Y45783D01*
X33522Y45212D01*
X34900Y45783D01*
X35470Y47161D01*
X34900Y48538D01*
X33522Y49109D01*
D02*
G37*
G36*
X378422Y51934D02*
X376815Y51268D01*
X376149Y49661D01*
X376815Y48053D01*
X378422Y47388D01*
X380029Y48053D01*
X380695Y49661D01*
X380029Y51268D01*
X378422Y51934D01*
D02*
G37*
G36*
X372913Y55925D02*
X371536Y55354D01*
X370965Y53976D01*
X371536Y52599D01*
X372913Y52028D01*
X374291Y52599D01*
X374862Y53976D01*
X374291Y55354D01*
X372913Y55925D01*
D02*
G37*
G36*
X229316Y127577D02*
X227709Y126911D01*
X227092Y125423D01*
X226592D01*
X226217Y126327D01*
X224610Y126993D01*
X223003Y126327D01*
X222344Y124737D01*
X221844D01*
X221523Y125511D01*
X219916Y126177D01*
X218309Y125511D01*
X217966Y124684D01*
X217466D01*
X217123Y125511D01*
X215516Y126177D01*
X213909Y125511D01*
X213243Y123904D01*
X213909Y122297D01*
X215516Y121631D01*
X217123Y122297D01*
X217466Y123124D01*
X217966D01*
X218309Y122297D01*
X219916Y121631D01*
X221523Y122297D01*
X222182Y123887D01*
X222682D01*
X223003Y123113D01*
X224610Y122447D01*
X226217Y123113D01*
X226834Y124601D01*
X227334D01*
X227709Y123697D01*
X229316Y123031D01*
X230923Y123697D01*
X231589Y125304D01*
X230923Y126911D01*
X229316Y127577D01*
D02*
G37*
G36*
X200709Y131673D02*
X199331Y131102D01*
X198760Y129724D01*
X199331Y128347D01*
X200709Y127776D01*
X202086Y128347D01*
X202657Y129724D01*
X202086Y131102D01*
X200709Y131673D01*
D02*
G37*
G36*
X201860Y126213D02*
X200253Y125547D01*
X199587Y123940D01*
X200253Y122333D01*
X201860Y121667D01*
X203467Y122333D01*
X204133Y123940D01*
X203467Y125547D01*
X201860Y126213D01*
D02*
G37*
G36*
X224722Y117309D02*
X223344Y116738D01*
X222774Y115361D01*
X222866Y115139D01*
X222512Y114785D01*
X222078Y114965D01*
X222078Y114965D01*
Y114965D01*
X221815Y115228D01*
X221870Y115361D01*
X221300Y116738D01*
X219922Y117309D01*
X218544Y116738D01*
X217974Y115361D01*
X218050Y115176D01*
X217846Y114972D01*
X217346Y114972D01*
X217108Y115210D01*
X217170Y115361D01*
X216600Y116738D01*
X215222Y117309D01*
X213844Y116738D01*
X213274Y115361D01*
X213355Y115164D01*
X213002Y114811D01*
X212629Y114965D01*
X210717Y114173D01*
X209924Y112260D01*
X210717Y110347D01*
X211198Y110148D01*
Y109648D01*
X210717Y109448D01*
X209924Y107535D01*
X210717Y105623D01*
X211198Y105423D01*
Y104923D01*
X210717Y104724D01*
X209924Y102811D01*
X210717Y100898D01*
X211198Y100699D01*
Y100199D01*
X210717Y99999D01*
X209924Y98087D01*
X210717Y96174D01*
X212629Y95381D01*
X214542Y96174D01*
X214741Y96655D01*
X215242D01*
X215441Y96174D01*
X217354Y95381D01*
X219267Y96174D01*
X219466Y96655D01*
X219966D01*
X220165Y96174D01*
X222078Y95381D01*
X223991Y96174D01*
X224190Y96655D01*
X224690D01*
X224890Y96174D01*
X226802Y95381D01*
X226802D01*
X227528Y95462D01*
D01*
X227528Y95462D01*
X228053Y94194D01*
X227750Y93891D01*
X227750Y93891D01*
X227700Y93840D01*
X226604Y94294D01*
X225227Y93723D01*
X224656Y92345D01*
X225227Y90968D01*
X226604Y90397D01*
X227982Y90968D01*
X228553Y92345D01*
X228027Y93614D01*
X228330Y93917D01*
X228330Y93917D01*
X228381Y93967D01*
X229476Y93514D01*
X230854Y94084D01*
X230854D01*
D01*
X231031D01*
X231494Y92965D01*
X232872Y92394D01*
X233787Y92773D01*
X234140Y92419D01*
X233645Y91222D01*
X234215Y89844D01*
X235593Y89274D01*
X236970Y89844D01*
X237541Y91222D01*
X236970Y92600D01*
X235593Y93170D01*
X234678Y92792D01*
X234325Y93145D01*
X234821Y94342D01*
X234250Y95720D01*
X232872Y96290D01*
X231495Y95720D01*
X231494D01*
D01*
X231318D01*
X230854Y96840D01*
X229476Y97410D01*
X229476Y97410D01*
Y97410D01*
X229300Y97586D01*
X229508Y98087D01*
X229508Y98087D01*
D01*
X229920Y98252D01*
X229920Y98252D01*
Y98252D01*
X231298Y98822D01*
X231868Y100200D01*
X231298Y101578D01*
X229920Y102148D01*
X229695Y102055D01*
X229341Y102408D01*
X229508Y102811D01*
X228715Y104724D01*
X228234Y104923D01*
Y105423D01*
X228715Y105623D01*
X229508Y107535D01*
X228715Y109448D01*
X228234Y109648D01*
Y110148D01*
X228715Y110347D01*
X229508Y112260D01*
X228715Y114173D01*
X226802Y114965D01*
X226802Y114965D01*
Y114965D01*
X226670Y115361D01*
X226670Y115361D01*
X226670D01*
X226100Y116738D01*
X224722Y117309D01*
D02*
G37*
G36*
X196816Y119343D02*
X195209Y118677D01*
X194543Y117070D01*
X195209Y115463D01*
X196816Y114797D01*
X198423Y115463D01*
X199089Y117070D01*
X198423Y118677D01*
X196816Y119343D01*
D02*
G37*
G36*
X284747Y132642D02*
X283063Y131945D01*
X282365Y130261D01*
X283063Y128577D01*
X284747Y127879D01*
X286430Y128577D01*
X287128Y130261D01*
X286430Y131945D01*
X284747Y132642D01*
D02*
G37*
G36*
X276378Y189930D02*
X273699Y188821D01*
X272590Y186142D01*
X273699Y183463D01*
X276378Y182353D01*
X277863Y182968D01*
X321361Y139471D01*
X321361Y139471D01*
X322126Y139154D01*
X331465D01*
X331743Y138738D01*
X330758Y136361D01*
X331773Y133912D01*
X334222Y132897D01*
X336671Y133912D01*
X337686Y136361D01*
X336701Y138738D01*
X336892Y139023D01*
X337389Y139072D01*
X339540Y136922D01*
Y136385D01*
X339015Y136168D01*
X338349Y134561D01*
X339015Y132953D01*
X340622Y132288D01*
X342229Y132953D01*
X342895Y134561D01*
X342229Y136168D01*
X341705Y136385D01*
Y137370D01*
X341388Y138135D01*
X341387Y138135D01*
X338521Y141002D01*
X337756Y141319D01*
X337756Y141319D01*
X322574D01*
X279459Y184434D01*
X280166Y186142D01*
X279057Y188821D01*
X276378Y189930D01*
D02*
G37*
G36*
X279922Y137534D02*
X278315Y136868D01*
X277649Y135261D01*
X278315Y133653D01*
X279922Y132988D01*
X281529Y133653D01*
X282195Y135261D01*
X281529Y136868D01*
X279922Y137534D01*
D02*
G37*
G36*
X229316Y133622D02*
X227938Y133051D01*
X227368Y131673D01*
X227938Y130296D01*
X229316Y129725D01*
X230694Y130296D01*
X231264Y131673D01*
X230694Y133051D01*
X229316Y133622D01*
D02*
G37*
G36*
X219916Y132221D02*
X218538Y131651D01*
X217968Y130273D01*
X218538Y128895D01*
X219916Y128325D01*
X221294Y128895D01*
X221864Y130273D01*
X221294Y131651D01*
X219916Y132221D01*
D02*
G37*
G36*
X224222Y135109D02*
X222844Y134538D01*
X222274Y133161D01*
X222844Y131783D01*
X222901Y131760D01*
X223092Y131298D01*
X222668Y130273D01*
X223238Y128895D01*
X224616Y128325D01*
X225993Y128895D01*
X226564Y130273D01*
X225993Y131651D01*
X225611Y131809D01*
X226170Y133161D01*
X225600Y134538D01*
X224222Y135109D01*
D02*
G37*
G36*
X204350Y119283D02*
X202743Y118617D01*
X202077Y117010D01*
X202363Y116321D01*
X201993Y116167D01*
X201327Y114560D01*
X201993Y112953D01*
X202441Y112767D01*
X202227Y112250D01*
X202893Y110643D01*
X204500Y109977D01*
X206107Y110643D01*
X206773Y112250D01*
X206107Y113857D01*
X205659Y114043D01*
X205873Y114560D01*
X205587Y115250D01*
X205957Y115403D01*
X206623Y117010D01*
X205957Y118617D01*
X204350Y119283D01*
D02*
G37*
G36*
X261700Y99251D02*
X259251Y98237D01*
X258498Y96420D01*
X257998D01*
X257389Y97889D01*
X255500Y98672D01*
X253611Y97889D01*
X253250Y97018D01*
X252750D01*
X252389Y97889D01*
X250500Y98672D01*
X248611Y97889D01*
X247828Y96000D01*
X248611Y94111D01*
X250500Y93328D01*
X252389Y94111D01*
X252750Y94981D01*
X253250D01*
X253611Y94111D01*
X255500Y93328D01*
X257389Y94111D01*
X257910Y95368D01*
X258410D01*
X259251Y93338D01*
X260424Y92852D01*
X260615Y92390D01*
X260102Y91150D01*
X260672Y89772D01*
X262050Y89202D01*
X263428Y89772D01*
X263998Y91150D01*
X263428Y92528D01*
X263414Y92533D01*
X263414Y93033D01*
X264149Y93338D01*
X265164Y95787D01*
X264149Y98237D01*
X261700Y99251D01*
D02*
G37*
G36*
X204620Y106263D02*
X203013Y105597D01*
X202347Y103990D01*
X203013Y102383D01*
X203057Y102364D01*
Y101864D01*
X201543Y101237D01*
X200877Y99630D01*
X201543Y98023D01*
X203150Y97357D01*
X204757Y98023D01*
X205423Y99630D01*
X204757Y101237D01*
X204713Y101256D01*
Y101756D01*
X206227Y102383D01*
X206893Y103990D01*
X206227Y105597D01*
X204620Y106263D01*
D02*
G37*
G36*
X174550Y98288D02*
X173172Y97718D01*
X172602Y96340D01*
X173172Y94962D01*
X174550Y94392D01*
X175928Y94962D01*
X176498Y96340D01*
X175928Y97718D01*
X174550Y98288D01*
D02*
G37*
G36*
X299252Y155777D02*
X297951Y155238D01*
X297412Y153937D01*
X297951Y152636D01*
X299252Y152097D01*
X300553Y152636D01*
X300644Y152855D01*
X303370D01*
X317940Y138286D01*
Y16201D01*
X316343Y15540D01*
X315234Y12861D01*
X316343Y10182D01*
X319022Y9072D01*
X321701Y10182D01*
X322811Y12861D01*
X321701Y15540D01*
X320105Y16201D01*
Y92294D01*
X320520Y92571D01*
X321110Y92327D01*
X322717Y92993D01*
X322903Y93441D01*
X323384D01*
X323384Y93441D01*
X324150Y93757D01*
X337065Y106672D01*
X337065Y106672D01*
X337223Y107055D01*
X337382Y107438D01*
X337382Y107438D01*
Y110577D01*
X337907Y110794D01*
X338572Y112402D01*
X337907Y114009D01*
X336299Y114675D01*
X334692Y114009D01*
X334026Y112402D01*
X334692Y110794D01*
X335217Y110577D01*
Y107886D01*
X323276Y95945D01*
X322785Y96043D01*
X322717Y96207D01*
X321110Y96873D01*
X320520Y96629D01*
X320105Y96907D01*
Y138734D01*
X320105Y138734D01*
X319880Y139275D01*
X319788Y139499D01*
X319787Y139499D01*
X304584Y154702D01*
X303819Y155019D01*
X303819Y155019D01*
X300644D01*
X300553Y155238D01*
X299252Y155777D01*
D02*
G37*
G36*
X220700Y94326D02*
X219716Y93919D01*
X218732Y94326D01*
X217354Y93756D01*
X216783Y92378D01*
X217354Y91000D01*
X218732Y90430D01*
X219716Y90837D01*
X220700Y90430D01*
X221355Y90701D01*
X221709Y90347D01*
X221261Y89267D01*
X221832Y87889D01*
X223209Y87319D01*
X224587Y87889D01*
X225158Y89267D01*
X224587Y90645D01*
X223209Y91215D01*
X222554Y90944D01*
X222201Y91298D01*
X222649Y92378D01*
X222078Y93756D01*
X220700Y94326D01*
D02*
G37*
G36*
X236447Y102546D02*
X234839Y101881D01*
X234174Y100273D01*
X234839Y98666D01*
X236447Y98000D01*
X238054Y98666D01*
X238720Y100273D01*
X238054Y101881D01*
X236447Y102546D01*
D02*
G37*
G36*
X174280Y103548D02*
X172902Y102978D01*
X172332Y101600D01*
X172902Y100222D01*
X174280Y99652D01*
X175658Y100222D01*
X176228Y101600D01*
X175658Y102978D01*
X174280Y103548D01*
D02*
G37*
G36*
X189173Y106200D02*
X187869Y105660D01*
X186850Y106082D01*
X185571Y105552D01*
X184291Y106082D01*
X182914Y105511D01*
D01*
Y105511D01*
X182847D01*
Y105511D01*
X181469Y106082D01*
X180092Y105511D01*
X179521Y104134D01*
X180092Y102756D01*
X181469Y102186D01*
X182847Y102756D01*
X182847Y102756D01*
X182914D01*
Y102756D01*
X184291Y102186D01*
X185571Y102716D01*
X186850Y102186D01*
X188154Y102726D01*
X189173Y102304D01*
X190551Y102874D01*
X191121Y104252D01*
X190551Y105630D01*
X189173Y106200D01*
D02*
G37*
G36*
X308622Y106124D02*
X306173Y105110D01*
X305158Y102661D01*
X306173Y100212D01*
X308622Y99197D01*
X311071Y100212D01*
X312086Y102661D01*
X311071Y105110D01*
X308622Y106124D01*
D02*
G37*
G36*
X243050Y102148D02*
X241672Y101578D01*
X241102Y100200D01*
X241672Y98822D01*
X243050Y98252D01*
X244428Y98822D01*
X244998Y100200D01*
X244428Y101578D01*
X243050Y102148D01*
D02*
G37*
G36*
X276316Y103446D02*
X274709Y102780D01*
X274043Y101173D01*
X274709Y99566D01*
X276316Y98900D01*
X277923Y99566D01*
X278589Y101173D01*
X277923Y102780D01*
X276316Y103446D01*
D02*
G37*
G36*
X40422Y37409D02*
X39044Y36838D01*
X38474Y35461D01*
X39044Y34083D01*
X40422Y33512D01*
X41008Y33755D01*
X41470Y33564D01*
X41544Y33383D01*
X42922Y32812D01*
X44300Y33383D01*
X44870Y34761D01*
X44300Y36138D01*
X42922Y36709D01*
X42010Y36331D01*
X41800Y36838D01*
X40422Y37409D01*
D02*
G37*
G36*
X287822Y12309D02*
X286444Y11738D01*
X285874Y10361D01*
X286444Y8983D01*
X286616Y8912D01*
X286808Y8450D01*
X286274Y7161D01*
X286844Y5783D01*
X288222Y5212D01*
X289600Y5783D01*
X290170Y7161D01*
X289600Y8538D01*
X289428Y8610D01*
X289236Y9072D01*
X289770Y10361D01*
X289200Y11738D01*
X287822Y12309D01*
D02*
G37*
G36*
X293222Y9109D02*
X291844Y8538D01*
X291274Y7161D01*
X291844Y5783D01*
X293222Y5212D01*
X294600Y5783D01*
X295170Y7161D01*
X294600Y8538D01*
X293222Y9109D01*
D02*
G37*
G36*
X283222D02*
X281844Y8538D01*
X281274Y7161D01*
X281844Y5783D01*
X283222Y5212D01*
X284600Y5783D01*
X285170Y7161D01*
X284600Y8538D01*
X283222Y9109D01*
D02*
G37*
G36*
X272516Y12021D02*
X270909Y11355D01*
X270243Y9748D01*
X270909Y8141D01*
X271240Y8004D01*
X271432Y7542D01*
X271274Y7161D01*
X271844Y5783D01*
X273222Y5212D01*
X274600Y5783D01*
X275170Y7161D01*
X274600Y8538D01*
X274333Y8649D01*
X274789Y9748D01*
X274123Y11355D01*
X272516Y12021D01*
D02*
G37*
G36*
X278222Y9109D02*
X276844Y8538D01*
X276274Y7161D01*
X276844Y5783D01*
X278222Y5212D01*
X279600Y5783D01*
X280170Y7161D01*
X279600Y8538D01*
X278222Y9109D01*
D02*
G37*
G36*
X298222D02*
X296844Y8538D01*
X296274Y7161D01*
X296844Y5783D01*
X298222Y5212D01*
X299600Y5783D01*
X300170Y7161D01*
X299600Y8538D01*
X298222Y9109D01*
D02*
G37*
G36*
X339022Y16649D02*
X336343Y15540D01*
X335234Y12861D01*
X336343Y10182D01*
X339022Y9072D01*
X341701Y10182D01*
X342811Y12861D01*
X341701Y15540D01*
X339022Y16649D01*
D02*
G37*
G36*
X369022D02*
X366343Y15540D01*
X365234Y12861D01*
X366343Y10182D01*
X369022Y9072D01*
X371701Y10182D01*
X372811Y12861D01*
X371701Y15540D01*
X369022Y16649D01*
D02*
G37*
G36*
X329022D02*
X326343Y15540D01*
X325234Y12861D01*
X326343Y10182D01*
X329022Y9072D01*
X331450Y10078D01*
X331974Y9861D01*
Y9861D01*
X331974Y9861D01*
X332544Y8483D01*
X333922Y7912D01*
X335300Y8483D01*
X335870Y9861D01*
X335300Y11238D01*
X333922Y11809D01*
X332658Y11285D01*
X332304Y11639D01*
X332810Y12861D01*
X331701Y15540D01*
X329022Y16649D01*
D02*
G37*
G36*
X359022D02*
X356343Y15540D01*
X355234Y12861D01*
X356343Y10182D01*
X359022Y9072D01*
X361354Y10039D01*
X361708Y9685D01*
X361574Y9361D01*
X362144Y7983D01*
X363522Y7412D01*
X364900Y7983D01*
X365470Y9361D01*
X364900Y10738D01*
X363522Y11309D01*
X362491Y10882D01*
X362137Y11235D01*
X362810Y12861D01*
X361701Y15540D01*
X359022Y16649D01*
D02*
G37*
G36*
X324022Y11709D02*
X322644Y11138D01*
X322074Y9761D01*
X322644Y8383D01*
X324022Y7812D01*
X325400Y8383D01*
X325970Y9761D01*
X325400Y11138D01*
X324022Y11709D01*
D02*
G37*
G36*
X268222Y9109D02*
X266844Y8538D01*
X266274Y7161D01*
X266844Y5783D01*
X268222Y5212D01*
X269600Y5783D01*
X270170Y7161D01*
X269600Y8538D01*
X268222Y9109D01*
D02*
G37*
G36*
X23222D02*
X21844Y8538D01*
X21274Y7161D01*
X21844Y5783D01*
X23222Y5212D01*
X24600Y5783D01*
X25170Y7161D01*
X24600Y8538D01*
X23222Y9109D01*
D02*
G37*
G36*
X28222D02*
X26844Y8538D01*
X26274Y7161D01*
X26844Y5783D01*
X28222Y5212D01*
X29600Y5783D01*
X30170Y7161D01*
X29600Y8538D01*
X28222Y9109D01*
D02*
G37*
G36*
X18222D02*
X16844Y8538D01*
X16274Y7161D01*
X16844Y5783D01*
X18222Y5212D01*
X19600Y5783D01*
X20170Y7161D01*
X19600Y8538D01*
X18222Y9109D01*
D02*
G37*
G36*
X38322Y8909D02*
X36944Y8338D01*
X36374Y6961D01*
X36944Y5583D01*
X38322Y5012D01*
X39700Y5583D01*
X40270Y6961D01*
X39700Y8338D01*
X38322Y8909D01*
D02*
G37*
G36*
X13222Y9109D02*
X11844Y8538D01*
X11274Y7161D01*
X11844Y5783D01*
X13222Y5212D01*
X14600Y5783D01*
X15170Y7161D01*
X14600Y8538D01*
X13222Y9109D01*
D02*
G37*
G36*
X33222D02*
X31844Y8538D01*
X31274Y7161D01*
X31844Y5783D01*
X33222Y5212D01*
X34600Y5783D01*
X35170Y7161D01*
X34600Y8538D01*
X33222Y9109D01*
D02*
G37*
G36*
X58222D02*
X56844Y8538D01*
X56274Y7161D01*
X56844Y5783D01*
X58222Y5212D01*
X59600Y5783D01*
X60170Y7161D01*
X59600Y8538D01*
X58222Y9109D01*
D02*
G37*
G36*
X63222D02*
X61844Y8538D01*
X61274Y7161D01*
X61844Y5783D01*
X63222Y5212D01*
X64600Y5783D01*
X65170Y7161D01*
X64600Y8538D01*
X63222Y9109D01*
D02*
G37*
G36*
X53222D02*
X51844Y8538D01*
X51274Y7161D01*
X51844Y5783D01*
X53222Y5212D01*
X54600Y5783D01*
X55170Y7161D01*
X54600Y8538D01*
X53222Y9109D01*
D02*
G37*
G36*
X43222D02*
X41844Y8538D01*
X41274Y7161D01*
X41844Y5783D01*
X43222Y5212D01*
X44600Y5783D01*
X45170Y7161D01*
X44600Y8538D01*
X43222Y9109D01*
D02*
G37*
G36*
X48222D02*
X46844Y8538D01*
X46274Y7161D01*
X46844Y5783D01*
X48222Y5212D01*
X49600Y5783D01*
X50170Y7161D01*
X49600Y8538D01*
X48222Y9109D01*
D02*
G37*
G36*
X64590Y32558D02*
X63212Y31988D01*
X62642Y30610D01*
X63212Y29232D01*
X64590Y28662D01*
X65968Y29232D01*
X66538Y30610D01*
X65968Y31988D01*
X64590Y32558D01*
D02*
G37*
G36*
X21455Y33331D02*
X20077Y32760D01*
X19507Y31383D01*
X20077Y30005D01*
X21455Y29434D01*
X22833Y30005D01*
X23403Y31383D01*
X22833Y32760D01*
X21455Y33331D01*
D02*
G37*
G36*
X16986Y31511D02*
X15609Y30940D01*
X15038Y29563D01*
X15609Y28185D01*
X16986Y27615D01*
X18364Y28185D01*
X18935Y29563D01*
X18364Y30940D01*
X16986Y31511D01*
D02*
G37*
G36*
X15113Y27065D02*
X13736Y26494D01*
X13165Y25116D01*
X13736Y23739D01*
X15113Y23168D01*
X16491Y23739D01*
X17062Y25116D01*
X16491Y26494D01*
X15113Y27065D01*
D02*
G37*
G36*
X357422Y42045D02*
X350779Y39293D01*
X348027Y32650D01*
X350779Y26006D01*
X357422Y23254D01*
X364066Y26006D01*
X366818Y32650D01*
X364066Y39293D01*
X357422Y42045D01*
D02*
G37*
G36*
X278191Y34478D02*
X276583Y33812D01*
X275918Y32205D01*
X276583Y30598D01*
X278191Y29932D01*
X279798Y30598D01*
X280464Y32205D01*
X279798Y33812D01*
X278191Y34478D01*
D02*
G37*
G36*
X76072Y33234D02*
X74465Y32568D01*
X73972Y31378D01*
X73472D01*
X72979Y32568D01*
X71372Y33234D01*
X69765Y32568D01*
X69099Y30961D01*
X69765Y29353D01*
X71372Y28688D01*
X72979Y29353D01*
X73472Y30543D01*
X73972D01*
X74465Y29353D01*
X76072Y28688D01*
X77679Y29353D01*
X78345Y30961D01*
X77679Y32568D01*
X76072Y33234D01*
D02*
G37*
G36*
X11307Y36609D02*
X9929Y36038D01*
X9359Y34661D01*
X9929Y33283D01*
X11307Y32712D01*
X12685Y33283D01*
X13255Y34661D01*
X12685Y36038D01*
X11307Y36609D01*
D02*
G37*
G36*
X271822Y35134D02*
X270215Y34468D01*
X269549Y32861D01*
X270215Y31253D01*
X271822Y30588D01*
X273429Y31253D01*
X274095Y32861D01*
X273429Y34468D01*
X271822Y35134D01*
D02*
G37*
G36*
X300041Y34478D02*
X298434Y33812D01*
X297768Y32205D01*
X298434Y30598D01*
X300041Y29932D01*
X301648Y30598D01*
X302314Y32205D01*
X301648Y33812D01*
X300041Y34478D01*
D02*
G37*
G36*
X293116Y31034D02*
X291509Y30368D01*
X291366Y30023D01*
X290866D01*
X290723Y30368D01*
X289116Y31034D01*
X287509Y30368D01*
X287366Y30023D01*
X286866D01*
X286723Y30368D01*
X285116Y31034D01*
X283509Y30368D01*
X282843Y28761D01*
X283423Y27361D01*
X282843Y25961D01*
X283423Y24561D01*
X282843Y23161D01*
X283423Y21761D01*
X282843Y20361D01*
X283423Y18961D01*
X282843Y17561D01*
X283509Y15953D01*
X285116Y15288D01*
X286723Y15953D01*
X286866Y16298D01*
X287366D01*
X287509Y15953D01*
X289116Y15288D01*
X290723Y15953D01*
X290866Y16298D01*
X291366D01*
X291509Y15953D01*
X293116Y15288D01*
X294723Y15953D01*
X295389Y17561D01*
X294809Y18961D01*
X295389Y20361D01*
X294809Y21761D01*
X295389Y23161D01*
X294809Y24561D01*
X295389Y25961D01*
X294809Y27361D01*
X295389Y28761D01*
X294723Y30368D01*
X293116Y31034D01*
D02*
G37*
G36*
X77550Y26898D02*
X76172Y26328D01*
X75602Y24950D01*
X76172Y23572D01*
X77550Y23002D01*
X78928Y23572D01*
X79498Y24950D01*
X78928Y26328D01*
X77550Y26898D01*
D02*
G37*
G36*
X36422Y16209D02*
X35044Y15638D01*
X34474Y14261D01*
X35044Y12883D01*
X36422Y12312D01*
X37800Y12883D01*
X38370Y14261D01*
X37800Y15638D01*
X36422Y16209D01*
D02*
G37*
G36*
X15522Y16709D02*
X14144Y16138D01*
X13574Y14761D01*
X14144Y13383D01*
X15522Y12812D01*
X16900Y13383D01*
X17470Y14761D01*
X16900Y16138D01*
X15522Y16709D01*
D02*
G37*
G36*
X300041Y16565D02*
X298434Y15899D01*
X297768Y14291D01*
X298434Y12684D01*
X300041Y12019D01*
X301648Y12684D01*
X302314Y14291D01*
X301648Y15899D01*
X300041Y16565D01*
D02*
G37*
G36*
X61063Y15334D02*
X59685Y14763D01*
X59115Y13386D01*
X59685Y12008D01*
X61063Y11438D01*
X62441Y12008D01*
X63011Y13386D01*
X62441Y14763D01*
X61063Y15334D01*
D02*
G37*
G36*
X278191Y19124D02*
X276583Y18458D01*
X275918Y16851D01*
X276448Y15571D01*
X275918Y14291D01*
X276583Y12684D01*
X278191Y12019D01*
X279798Y12684D01*
X280464Y14291D01*
X279934Y15571D01*
X280464Y16851D01*
X279798Y18458D01*
X278191Y19124D01*
D02*
G37*
G36*
X379122Y18109D02*
X377744Y17538D01*
X377174Y16161D01*
X377744Y14783D01*
X379122Y14212D01*
X380500Y14783D01*
X381070Y16161D01*
X380500Y17538D01*
X379122Y18109D01*
D02*
G37*
G36*
X16933Y22596D02*
X15555Y22026D01*
X14985Y20648D01*
X15555Y19270D01*
X16933Y18699D01*
X18311Y19270D01*
X18881Y20648D01*
X18311Y22026D01*
X16933Y22596D01*
D02*
G37*
G36*
X73622Y23641D02*
X72244Y23071D01*
X71674Y21693D01*
X72244Y20315D01*
X73622Y19745D01*
X75000Y20315D01*
X75570Y21693D01*
X75000Y23071D01*
X73622Y23641D01*
D02*
G37*
G36*
X373780Y22578D02*
X372402Y22008D01*
X371831Y20630D01*
X372402Y19252D01*
X373780Y18682D01*
X375157Y19252D01*
X375728Y20630D01*
X375157Y22008D01*
X373780Y22578D01*
D02*
G37*
G36*
X78222Y19109D02*
X76844Y18538D01*
X76274Y17161D01*
X76844Y15783D01*
X78222Y15212D01*
X79600Y15783D01*
X80170Y17161D01*
X79600Y18538D01*
X78222Y19109D01*
D02*
G37*
G36*
X21380Y20723D02*
X20002Y20153D01*
X19431Y18775D01*
X20002Y17397D01*
X21380Y16827D01*
X22757Y17397D01*
X23328Y18775D01*
X22757Y20153D01*
X21380Y20723D01*
D02*
G37*
G36*
X197222Y169109D02*
X195844Y168538D01*
X195274Y167161D01*
X195844Y165783D01*
X197222Y165212D01*
X198600Y165783D01*
X199170Y167161D01*
X198600Y168538D01*
X197222Y169109D01*
D02*
G37*
G36*
X210748Y160728D02*
X209370Y160157D01*
X208800Y158780D01*
X209370Y157402D01*
X210748Y156831D01*
X212126Y157402D01*
X212696Y158780D01*
X212126Y160157D01*
X210748Y160728D01*
D02*
G37*
G36*
X191622Y175524D02*
X189173Y174510D01*
X188158Y172061D01*
X189173Y169612D01*
X190652Y168999D01*
X190844Y168537D01*
X190274Y167161D01*
X190844Y165783D01*
X192222Y165212D01*
X193600Y165783D01*
X194170Y167161D01*
X193600Y168538D01*
X193144Y168727D01*
Y169227D01*
X194071Y169612D01*
X194950Y171734D01*
X195450D01*
X195844Y170783D01*
X197222Y170212D01*
X198600Y170783D01*
X199170Y172161D01*
X198600Y173538D01*
X197222Y174109D01*
X195844Y173538D01*
X195409Y172487D01*
X194909D01*
X194071Y174510D01*
X191622Y175524D01*
D02*
G37*
G36*
X204764Y144350D02*
X203386Y143779D01*
X202816Y142402D01*
X203386Y141024D01*
X204764Y140453D01*
X206141Y141024D01*
X206712Y142402D01*
X206141Y143779D01*
X204764Y144350D01*
D02*
G37*
G36*
X182222Y169109D02*
X180844Y168538D01*
X180274Y167161D01*
X180844Y165783D01*
X182222Y165212D01*
X183600Y165783D01*
X184170Y167161D01*
X183600Y168538D01*
X182222Y169109D01*
D02*
G37*
G36*
X187222D02*
X185844Y168538D01*
X185274Y167161D01*
X185844Y165783D01*
X187222Y165212D01*
X188600Y165783D01*
X189170Y167161D01*
X188600Y168538D01*
X187222Y169109D01*
D02*
G37*
G36*
X321522Y177624D02*
X319073Y176610D01*
X318058Y174161D01*
X319073Y171712D01*
X321522Y170697D01*
X323971Y171712D01*
X324986Y174161D01*
X323971Y176610D01*
X321522Y177624D01*
D02*
G37*
G36*
X200512Y143247D02*
X199134Y142677D01*
X198564Y141299D01*
X199134Y139922D01*
X199241Y139877D01*
X199055Y139429D01*
X199055D01*
X199055Y139429D01*
X197678Y138858D01*
X197107Y137480D01*
X197678Y136103D01*
X198022Y135960D01*
X198214Y135498D01*
X197697Y134252D01*
X198268Y132874D01*
X199646Y132304D01*
X201023Y132874D01*
X201594Y134252D01*
X201023Y135630D01*
X200679Y135772D01*
X200487Y136234D01*
X201003Y137480D01*
X200433Y138858D01*
X200326Y138902D01*
X200512Y139351D01*
X201889Y139922D01*
X202460Y141299D01*
X201889Y142677D01*
X200512Y143247D01*
D02*
G37*
G36*
X235591Y159862D02*
X234213Y159291D01*
X233642Y157913D01*
X234213Y156536D01*
X235591Y155965D01*
X236968Y156536D01*
X237539Y157913D01*
X236968Y159291D01*
X235591Y159862D01*
D02*
G37*
G36*
X314466Y176334D02*
X312966Y175712D01*
X311466Y176334D01*
X309966Y175712D01*
X308466Y176334D01*
X306859Y175668D01*
X306193Y174061D01*
X306859Y172453D01*
D01*
Y172453D01*
Y172453D01*
D01*
X306859Y172118D01*
X306859D01*
X306193Y170511D01*
X306859Y168903D01*
D01*
Y168903D01*
Y168903D01*
D01*
X306859Y168568D01*
X306859D01*
X306193Y166961D01*
X306859Y165353D01*
X308466Y164688D01*
X309966Y165309D01*
X311466Y164688D01*
X312966Y165309D01*
X314466Y164688D01*
X316073Y165353D01*
X316739Y166961D01*
X316073Y168568D01*
D01*
X316073Y168568D01*
Y168903D01*
X316073D01*
X316739Y170511D01*
X316073Y172118D01*
D01*
X316073Y172118D01*
Y172453D01*
X316073D01*
X316739Y174061D01*
X316073Y175668D01*
X314466Y176334D01*
D02*
G37*
G36*
X178667Y175828D02*
X177060Y175162D01*
X176394Y173555D01*
X177060Y171947D01*
X178667Y171282D01*
X180274Y171947D01*
X180940Y173555D01*
X180274Y175162D01*
X178667Y175828D01*
D02*
G37*
G36*
X184610Y176328D02*
X183002Y175662D01*
X182337Y174055D01*
X183002Y172447D01*
X184610Y171782D01*
X186217Y172447D01*
X186883Y174055D01*
X186217Y175662D01*
X184610Y176328D01*
D02*
G37*
G36*
X214488Y143838D02*
X213110Y143267D01*
X212540Y141890D01*
X213110Y140512D01*
X214488Y139942D01*
X215866Y140512D01*
X216437Y141890D01*
X215866Y143267D01*
X214488Y143838D01*
D02*
G37*
G36*
X162222Y169109D02*
X160844Y168538D01*
X160274Y167161D01*
X160844Y165783D01*
X162222Y165212D01*
X163600Y165783D01*
X164170Y167161D01*
X163600Y168538D01*
X162222Y169109D01*
D02*
G37*
G36*
X208780Y166318D02*
X207402Y165748D01*
X206831Y164370D01*
X207402Y162992D01*
X208780Y162422D01*
X210157Y162992D01*
X210728Y164370D01*
X210157Y165748D01*
X208780Y166318D01*
D02*
G37*
G36*
X172600Y170198D02*
X171222Y169628D01*
X170652Y168250D01*
X171222Y166872D01*
X171303Y166839D01*
X170774Y165561D01*
X171344Y164183D01*
X172722Y163612D01*
X174100Y164183D01*
X174670Y165561D01*
X174100Y166938D01*
X174019Y166972D01*
X174548Y168250D01*
X173978Y169628D01*
X172600Y170198D01*
D02*
G37*
G36*
X152422Y167609D02*
X151044Y167038D01*
X150474Y165661D01*
X151044Y164283D01*
X152422Y163712D01*
X153800Y164283D01*
X154370Y165661D01*
X153800Y167038D01*
X152422Y167609D01*
D02*
G37*
G36*
X185315Y161121D02*
X183937Y160551D01*
X183367Y159173D01*
X183937Y157796D01*
X185315Y157225D01*
X186693Y157796D01*
X187263Y159173D01*
X186693Y160551D01*
X185315Y161121D01*
D02*
G37*
G36*
X265922Y162109D02*
X264544Y161538D01*
X263974Y160161D01*
X264544Y158783D01*
X265922Y158212D01*
X267300Y158783D01*
X267870Y160161D01*
X267300Y161538D01*
X265922Y162109D01*
D02*
G37*
G36*
X152422Y161811D02*
X151044Y161241D01*
X150474Y159863D01*
X151044Y158485D01*
X152228Y157995D01*
Y157495D01*
X151811Y157323D01*
X151241Y155945D01*
X151811Y154567D01*
X153189Y153997D01*
X154567Y154567D01*
X154593Y154630D01*
X155093D01*
X155118Y154567D01*
X156496Y153997D01*
X157874Y154567D01*
X157900Y154630D01*
X158400D01*
X158425Y154567D01*
X159803Y153997D01*
X161181Y154567D01*
X161482Y155295D01*
X161982D01*
X162284Y154567D01*
X163661Y153997D01*
X165039Y154567D01*
X165321Y155247D01*
X165821D01*
X166103Y154567D01*
X167480Y153997D01*
X168858Y154567D01*
X168858Y154567D01*
X169252D01*
Y154567D01*
X170630Y153997D01*
X172008Y154567D01*
X172071Y154720D01*
X172571D01*
X172632Y154572D01*
X174010Y154002D01*
X175148Y154473D01*
X176430Y153942D01*
X177808Y154512D01*
X178378Y155890D01*
X177808Y157268D01*
X176915Y157638D01*
X176723Y158099D01*
X177184Y159212D01*
X176613Y160590D01*
X175236Y161161D01*
X173858Y160590D01*
X173288Y159212D01*
X173858Y157835D01*
X172632Y157328D01*
X172569Y157175D01*
X172069D01*
X172008Y157323D01*
X170630Y157893D01*
X169252Y157323D01*
D01*
Y157323D01*
X168858D01*
Y157323D01*
X168814Y157341D01*
Y157841D01*
X169400Y158083D01*
X169970Y159461D01*
X169400Y160838D01*
X168022Y161409D01*
X166644Y160838D01*
X166074Y159461D01*
X166644Y158083D01*
X166688Y158065D01*
Y157565D01*
X166103Y157323D01*
X165821Y156642D01*
X165321D01*
X165039Y157323D01*
X163661Y157893D01*
X162284Y157323D01*
X161982Y156595D01*
X161482D01*
X161181Y157323D01*
X159803Y157893D01*
X158425Y157323D01*
X158400Y157260D01*
X157900D01*
X157874Y157323D01*
X156496Y157893D01*
X155118Y157323D01*
X155093Y157260D01*
X154593D01*
X154567Y157323D01*
X153383Y157813D01*
Y158313D01*
X153800Y158485D01*
X154370Y159863D01*
X153800Y161241D01*
X152422Y161811D01*
D02*
G37*
G36*
X216811Y167696D02*
X215433Y167126D01*
X214863Y165748D01*
X215433Y164370D01*
X216811Y163800D01*
X218189Y164370D01*
X218759Y165748D01*
X218189Y167126D01*
X216811Y167696D01*
D02*
G37*
G36*
X143222Y169109D02*
X141844Y168538D01*
X141274Y167161D01*
X141844Y165783D01*
X143222Y165212D01*
X144600Y165783D01*
X145170Y167161D01*
X144600Y168538D01*
X143222Y169109D01*
D02*
G37*
G36*
X157222D02*
X155844Y168538D01*
X155274Y167161D01*
X155844Y165783D01*
X157222Y165212D01*
X158600Y165783D01*
X159170Y167161D01*
X158600Y168538D01*
X157222Y169109D01*
D02*
G37*
G36*
X209646Y144547D02*
X208268Y143976D01*
X207697Y142598D01*
X208268Y141221D01*
X209646Y140650D01*
X211023Y141221D01*
X211594Y142598D01*
X211023Y143976D01*
X209646Y144547D01*
D02*
G37*
G36*
X257822Y167709D02*
X256444Y167138D01*
X255874Y165761D01*
X256444Y164383D01*
X257822Y163812D01*
X259200Y164383D01*
X259770Y165761D01*
X259200Y167138D01*
X257822Y167709D01*
D02*
G37*
G36*
X334222Y150324D02*
X331773Y149310D01*
X330758Y146861D01*
X331773Y144412D01*
X334222Y143397D01*
X336671Y144412D01*
X337686Y146861D01*
X336671Y149310D01*
X334222Y150324D01*
D02*
G37*
G36*
X246922Y168209D02*
X245544Y167638D01*
X244974Y166261D01*
X245544Y164883D01*
X246922Y164312D01*
X248300Y164883D01*
X248870Y166261D01*
X248300Y167638D01*
X246922Y168209D01*
D02*
G37*
G36*
X148300Y177972D02*
X146411Y177189D01*
X146050Y176319D01*
X145550D01*
X145189Y177189D01*
X143300Y177972D01*
X141411Y177189D01*
X140628Y175300D01*
X141411Y173411D01*
X143300Y172628D01*
X145189Y173411D01*
X145550Y174282D01*
X146050D01*
X146411Y173411D01*
X148300Y172628D01*
X150189Y173411D01*
X150972Y175300D01*
X150189Y177189D01*
X148300Y177972D01*
D02*
G37*
G36*
X165017Y189818D02*
X163640Y189247D01*
X163069Y187869D01*
X163640Y186492D01*
X165017Y185921D01*
X166395Y186492D01*
X166966Y187869D01*
X166395Y189247D01*
X165017Y189818D01*
D02*
G37*
G36*
X144055Y190019D02*
X142677Y189448D01*
X142107Y188071D01*
X142677Y186693D01*
X144055Y186123D01*
X145433Y186693D01*
X146003Y188071D01*
X145433Y189448D01*
X144055Y190019D01*
D02*
G37*
G36*
X123722Y190109D02*
X122344Y189538D01*
X121774Y188161D01*
X122344Y186783D01*
X123722Y186212D01*
X125100Y186783D01*
X125670Y188161D01*
X125100Y189538D01*
X123722Y190109D01*
D02*
G37*
G36*
X209860Y189292D02*
X208483Y188721D01*
X207912Y187344D01*
X208483Y185966D01*
X209860Y185395D01*
X211238Y185966D01*
X211808Y187344D01*
X211238Y188721D01*
X209860Y189292D01*
D02*
G37*
G36*
X66022Y189109D02*
X64644Y188538D01*
X64074Y187161D01*
X64560Y185986D01*
X64282Y185571D01*
X49962D01*
X49684Y185986D01*
X50170Y187161D01*
X49600Y188538D01*
X48222Y189109D01*
X46844Y188538D01*
X46274Y187161D01*
X46760Y185986D01*
X46483Y185571D01*
X44962D01*
X44684Y185986D01*
X45170Y187161D01*
X44600Y188538D01*
X43222Y189109D01*
X41844Y188538D01*
X41274Y187161D01*
X41760Y185986D01*
X41482Y185571D01*
X39962D01*
X39684Y185986D01*
X40170Y187161D01*
X39600Y188538D01*
X38222Y189109D01*
X36844Y188538D01*
X36274Y187161D01*
X36760Y185986D01*
X36483Y185571D01*
X34962D01*
X34684Y185986D01*
X35170Y187161D01*
X34600Y188538D01*
X33222Y189109D01*
X31844Y188538D01*
X31274Y187161D01*
X31760Y185986D01*
X31482Y185571D01*
X29962D01*
X29684Y185986D01*
X30170Y187161D01*
X29600Y188538D01*
X28222Y189109D01*
X26844Y188538D01*
X26274Y187161D01*
X26760Y185986D01*
X26482Y185571D01*
X24962D01*
X24684Y185986D01*
X25170Y187161D01*
X24600Y188538D01*
X23222Y189109D01*
X21844Y188538D01*
X21274Y187161D01*
X21760Y185986D01*
X21483Y185571D01*
X19962D01*
X19684Y185986D01*
X20170Y187161D01*
X19600Y188538D01*
X18222Y189109D01*
X16844Y188538D01*
X16274Y187161D01*
X16844Y185783D01*
X17373Y185564D01*
X16991Y185254D01*
X16991D01*
Y185254D01*
D01*
D01*
D01*
Y185254D01*
Y185254D01*
Y185254D01*
X14067Y182330D01*
X13576Y182427D01*
X13282Y183138D01*
X11904Y183709D01*
X10526Y183138D01*
X9956Y181761D01*
X10526Y180383D01*
X11237Y180088D01*
X11335Y179598D01*
X7896Y176159D01*
X7579Y175394D01*
X7579Y175394D01*
Y73307D01*
X7579Y73307D01*
X7896Y72542D01*
X11282Y69156D01*
X11282Y69156D01*
X12047Y68839D01*
X20524D01*
X20802Y68423D01*
X20370Y67381D01*
X21147Y65506D01*
X23022Y64729D01*
X24897Y65506D01*
X25674Y67381D01*
X25242Y68423D01*
X25520Y68839D01*
X34377D01*
X34655Y68423D01*
X34223Y67381D01*
X34889Y65774D01*
X36496Y65108D01*
X37888Y65685D01*
X40018Y63555D01*
Y46210D01*
X40018Y46210D01*
X40335Y45445D01*
X51818Y33961D01*
X51720Y33471D01*
X51422Y33348D01*
X50852Y31970D01*
X51232Y31051D01*
X50879Y30697D01*
X49949Y31082D01*
X48586Y30517D01*
X47222Y31082D01*
X45858Y30517D01*
X44494Y31082D01*
X43130Y30517D01*
X41766Y31082D01*
X40402Y30517D01*
X39038Y31082D01*
X37674Y30517D01*
X36310Y31082D01*
X34933Y30512D01*
X34470Y29395D01*
X34438D01*
Y29395D01*
X33970D01*
Y29395D01*
X33476Y30590D01*
X32098Y31161D01*
X30720Y30590D01*
X30417Y29857D01*
X29917D01*
X29645Y30512D01*
X28268Y31082D01*
X27538Y30780D01*
X27279Y30887D01*
X27279Y30887D01*
X27279Y30887D01*
X25901Y31458D01*
X24524Y30887D01*
X23953Y29510D01*
X24524Y28132D01*
X25901Y27561D01*
X26631Y27863D01*
X26890Y27756D01*
X26890Y27756D01*
X26890Y27756D01*
X28268Y27186D01*
X29645Y27756D01*
X29949Y28489D01*
X30449D01*
X30720Y27835D01*
X32098Y27264D01*
X33476Y27835D01*
X33938Y28951D01*
X33970D01*
Y28951D01*
X34438D01*
Y28951D01*
X34933Y27756D01*
X36310Y27186D01*
X37674Y27751D01*
X39038Y27186D01*
X40402Y27751D01*
X41766Y27186D01*
X43130Y27751D01*
X44494Y27186D01*
X45858Y27751D01*
X47222Y27186D01*
X48586Y27751D01*
X49949Y27186D01*
X51313Y27751D01*
X52677Y27186D01*
X54055Y27756D01*
X54625Y29134D01*
X54079Y30452D01*
X54148Y30580D01*
X54178Y30592D01*
X54258Y30786D01*
X54315Y30893D01*
X54791Y30988D01*
X58938Y26841D01*
X58841Y26350D01*
X58182Y26078D01*
X57612Y24700D01*
X57990Y23787D01*
X57636Y23434D01*
X56850Y23759D01*
X55473Y23189D01*
X55345Y22879D01*
X54883Y22688D01*
X53722Y23169D01*
X52344Y22598D01*
D01*
Y22598D01*
X52256D01*
Y22598D01*
X50879Y23169D01*
X49501Y22598D01*
D01*
Y22598D01*
X49413D01*
Y22598D01*
X48035Y23169D01*
X46658Y22598D01*
D01*
Y22598D01*
X46570D01*
Y22598D01*
X45192Y23169D01*
X43815Y22598D01*
D01*
Y22598D01*
X43727D01*
Y22598D01*
X42349Y23169D01*
X40971Y22598D01*
D01*
Y22598D01*
X40883D01*
Y22598D01*
X39505Y23169D01*
X38128Y22598D01*
D01*
Y22598D01*
X38040D01*
Y22598D01*
X36662Y23169D01*
X35285Y22598D01*
X34822Y21482D01*
X34790D01*
Y21482D01*
X34322D01*
Y21482D01*
X33827Y22677D01*
X32450Y23247D01*
X31072Y22677D01*
X30711Y21804D01*
X30211D01*
X29882Y22598D01*
X28504Y23169D01*
X27126Y22598D01*
X27055Y22426D01*
X26593Y22234D01*
X25848Y22543D01*
X24471Y21972D01*
X23900Y20595D01*
X24471Y19217D01*
X25848Y18646D01*
X27226Y19217D01*
X27433Y19716D01*
X28504Y19272D01*
X29882Y19843D01*
X30243Y20716D01*
X30743D01*
X31072Y19921D01*
X32450Y19351D01*
X33827Y19921D01*
X34290Y21038D01*
X34322D01*
Y21038D01*
X34790D01*
Y21038D01*
X35285Y19843D01*
X36662Y19272D01*
X38040Y19843D01*
X38040Y19843D01*
X38128D01*
Y19843D01*
X39505Y19272D01*
X40883Y19843D01*
X40883Y19843D01*
X40971D01*
Y19843D01*
X42349Y19272D01*
X43727Y19843D01*
X43727Y19843D01*
X43815D01*
Y19843D01*
X45192Y19272D01*
X46570Y19843D01*
X46570Y19843D01*
X46658D01*
Y19843D01*
X48035Y19272D01*
X49413Y19843D01*
X49413Y19843D01*
X49501D01*
Y19843D01*
X50879Y19272D01*
X52256Y19843D01*
X52256Y19843D01*
X52344D01*
Y19843D01*
X53722Y19272D01*
X55100Y19843D01*
X55228Y20152D01*
X55690Y20344D01*
X56850Y19863D01*
X58228Y20433D01*
X58799Y21811D01*
X58421Y22724D01*
X58774Y23077D01*
X59560Y22752D01*
X60938Y23322D01*
X61210Y23981D01*
X61701Y24078D01*
X63109Y22670D01*
X62831Y22255D01*
X62750Y22288D01*
X61372Y21718D01*
X60802Y20340D01*
X61372Y18962D01*
X62750Y18392D01*
X64128Y18962D01*
X64698Y20340D01*
X64665Y20421D01*
X65080Y20699D01*
X69463Y16316D01*
X69185Y15901D01*
X68370Y16238D01*
X66992Y15668D01*
X66422Y14290D01*
X66992Y12912D01*
X68370Y12342D01*
X69748Y12912D01*
X70318Y14290D01*
X69981Y15105D01*
X70396Y15383D01*
X74182Y11597D01*
X74182Y11597D01*
X74407Y11504D01*
X74948Y11280D01*
X74948Y11280D01*
X81232D01*
X81510Y10864D01*
X81074Y9811D01*
X81644Y8433D01*
X83022Y7862D01*
X84400Y8433D01*
X84970Y9811D01*
X84534Y10864D01*
X84812Y11280D01*
X90436D01*
X90714Y10864D01*
X90174Y9561D01*
X90744Y8183D01*
X92122Y7612D01*
X93500Y8183D01*
X94070Y9561D01*
X93798Y10217D01*
X94214Y10495D01*
X98015Y6695D01*
X98015Y6695D01*
X98239Y6602D01*
X98780Y6378D01*
X98780Y6378D01*
X252066D01*
X252066Y6378D01*
X252832Y6695D01*
X256087Y9950D01*
X256503Y9672D01*
X256374Y9361D01*
X256944Y7983D01*
X258322Y7412D01*
X259700Y7983D01*
X260270Y9361D01*
X259700Y10738D01*
X258322Y11309D01*
X258011Y11180D01*
X257733Y11596D01*
X262729Y16591D01*
X263144Y16314D01*
X262874Y15661D01*
X263444Y14283D01*
X264822Y13712D01*
X266200Y14283D01*
X266770Y15661D01*
X266200Y17038D01*
X264822Y17609D01*
X263866Y17213D01*
X263512Y17566D01*
X263694Y18005D01*
Y30593D01*
X264144Y30683D01*
X264144D01*
D01*
X265522Y30112D01*
X266900Y30683D01*
X267470Y32061D01*
X266900Y33438D01*
X265522Y34009D01*
X264144Y33438D01*
X264144D01*
X264144D01*
X263902Y33487D01*
X263757Y33965D01*
X268870Y39078D01*
X275822D01*
X275822Y39078D01*
X276588Y39395D01*
X281687Y44495D01*
X281687Y44495D01*
X281780Y44719D01*
X282004Y45261D01*
X282004Y45261D01*
Y72961D01*
X282004Y72961D01*
X281780Y73502D01*
X281687Y73726D01*
X281687Y73726D01*
X280160Y75254D01*
X279395Y75571D01*
X279395Y75571D01*
X272456D01*
X269005Y79022D01*
Y110631D01*
X270491Y112118D01*
X271016Y111900D01*
X271421Y112068D01*
X271699Y111398D01*
X271609Y111180D01*
X271609Y111180D01*
X271609Y111180D01*
X270943Y109573D01*
X271609Y107966D01*
X273216Y107300D01*
X274823Y107966D01*
X275489Y109573D01*
X274823Y111180D01*
X274823Y111180D01*
X274823D01*
X274757Y111339D01*
X275188Y112380D01*
X274618Y113758D01*
X273240Y114328D01*
X273240Y114328D01*
X273240Y114328D01*
X273221Y114336D01*
X272623Y115780D01*
X271016Y116446D01*
X269409Y115780D01*
X268743Y114173D01*
X268960Y113648D01*
X267157Y111845D01*
X266840Y111079D01*
X266840Y111079D01*
Y78574D01*
X266840Y78574D01*
X266866Y78511D01*
X266512Y78158D01*
X265422Y78609D01*
X264044Y78038D01*
X263474Y76661D01*
X264044Y75283D01*
X265422Y74712D01*
X266800Y75283D01*
X267370Y76661D01*
X267200Y77072D01*
X267616Y77349D01*
X271242Y73723D01*
X271242Y73723D01*
X271625Y73564D01*
X272008Y73406D01*
X272008Y73406D01*
X278946D01*
X279840Y72512D01*
Y45709D01*
X275572Y41442D01*
X275075Y41491D01*
X274962Y41659D01*
X275170Y42161D01*
X274600Y43538D01*
X273222Y44109D01*
X271844Y43538D01*
X271274Y42161D01*
X271482Y41659D01*
X271204Y41243D01*
X270240D01*
X269963Y41659D01*
X270170Y42161D01*
X269600Y43538D01*
X268222Y44109D01*
X266844Y43538D01*
X266274Y42161D01*
X266844Y40783D01*
X266902Y40759D01*
X267000Y40269D01*
X261846Y35115D01*
X261529Y34350D01*
X261529Y34350D01*
Y18453D01*
X251618Y8542D01*
X99228D01*
X94643Y13128D01*
X93878Y13445D01*
X93878Y13445D01*
X75396D01*
X68460Y20380D01*
X68558Y20871D01*
X69677Y21334D01*
X70248Y22712D01*
X69677Y24090D01*
X68299Y24660D01*
X66922Y24090D01*
X66458Y22971D01*
X65968Y22873D01*
X61603Y27237D01*
X61701Y27728D01*
X61929Y27822D01*
X62499Y29200D01*
X61929Y30578D01*
D01*
X61929Y30578D01*
Y30783D01*
X61929D01*
X62499Y32161D01*
X62244Y32777D01*
X62598Y33131D01*
X62598Y33130D01*
X63976Y33701D01*
X64547Y35079D01*
X63976Y36456D01*
X62598Y37027D01*
X62516Y36993D01*
X62162Y37346D01*
X62403Y37928D01*
X62894Y38026D01*
X63124Y37795D01*
X63124Y37795D01*
X63348Y37703D01*
X63889Y37478D01*
X63889Y37478D01*
X68647D01*
X68865Y36953D01*
X70472Y36288D01*
X72079Y36953D01*
X72079D01*
D01*
X72200D01*
X72394Y36483D01*
X73772Y35912D01*
X75150Y36483D01*
X75720Y37861D01*
X75150Y39238D01*
X73772Y39809D01*
X72781Y39398D01*
X72319Y39590D01*
X72079Y40168D01*
X71790Y40288D01*
X71887Y40778D01*
X75691D01*
X79577Y36892D01*
X79480Y36402D01*
X78597Y36036D01*
X77820Y34161D01*
X78597Y32286D01*
X80472Y31509D01*
X82347Y32286D01*
X82713Y33168D01*
X83203Y33266D01*
X91348Y25122D01*
Y22361D01*
X90932Y22083D01*
X89122Y22833D01*
X87233Y22050D01*
X86872Y21179D01*
X86372D01*
X86011Y22050D01*
X84715Y22587D01*
X84524Y23049D01*
X84648Y23350D01*
X84078Y24728D01*
X82700Y25298D01*
X81322Y24728D01*
X80752Y23350D01*
X81322Y21972D01*
X82072Y21662D01*
X81450Y20161D01*
X82233Y18271D01*
X84122Y17489D01*
X86011Y18271D01*
X86372Y19142D01*
X86872D01*
X87233Y18271D01*
X89122Y17489D01*
X90932Y18238D01*
X91348Y17961D01*
Y16500D01*
X91348Y16500D01*
X91665Y15735D01*
X92925Y14475D01*
X92925Y14475D01*
X93149Y14382D01*
X93690Y14158D01*
X93690Y14158D01*
X95412D01*
X99875Y9695D01*
X99875Y9695D01*
X100257Y9536D01*
X100640Y9378D01*
X100640Y9378D01*
X250610D01*
X250610Y9378D01*
X251375Y9695D01*
X258587Y16906D01*
X258904Y17671D01*
X258904Y17671D01*
Y37212D01*
X268170Y46478D01*
X271292D01*
X271627Y45671D01*
X273516Y44889D01*
X275405Y45671D01*
X276188Y47561D01*
X275405Y49450D01*
X274534Y49811D01*
Y50311D01*
X275405Y50671D01*
X276188Y52561D01*
X275405Y54450D01*
X274534Y54811D01*
Y55311D01*
X275405Y55671D01*
X276188Y57561D01*
X275405Y59450D01*
X274534Y59811D01*
Y60311D01*
X275405Y60671D01*
X276188Y62561D01*
X275405Y64450D01*
X274534Y64811D01*
Y65311D01*
X275405Y65671D01*
X276188Y67561D01*
X275405Y69450D01*
X273516Y70233D01*
X271627Y69450D01*
X271292Y68643D01*
X247267D01*
X246989Y69059D01*
X247295Y69796D01*
X247145Y70159D01*
X247498Y70512D01*
X248222Y70212D01*
X249600Y70783D01*
X250170Y72161D01*
X249600Y73538D01*
X248222Y74109D01*
X246844Y73538D01*
X246274Y72161D01*
X246424Y71798D01*
X246071Y71444D01*
X245346Y71744D01*
X245346Y71744D01*
Y71744D01*
X245100Y71991D01*
X245170Y72161D01*
X244600Y73538D01*
X243222Y74109D01*
X243222Y74109D01*
X243222Y74109D01*
X243084Y74097D01*
X243084Y74097D01*
X243084Y74097D01*
X242747Y74909D01*
X243101Y75263D01*
X243222Y75212D01*
X244600Y75783D01*
X245170Y77161D01*
X244600Y78538D01*
X243222Y79109D01*
X241844Y78538D01*
X241627Y78012D01*
X241126D01*
X240507Y79507D01*
X238900Y80173D01*
X237482Y79586D01*
X236958Y80850D01*
X236877Y80884D01*
Y81185D01*
X236877Y81185D01*
X236877D01*
X237448Y82563D01*
X236877Y83941D01*
X235500Y84511D01*
X234122Y83941D01*
X233551Y82563D01*
X234122Y81185D01*
X234203Y81152D01*
Y80850D01*
X234203Y80850D01*
X234203D01*
X233632Y79473D01*
X234203Y78095D01*
X234659Y77906D01*
Y77406D01*
X234322Y77266D01*
X233751Y75889D01*
X234322Y74511D01*
X235700Y73940D01*
X236278Y74180D01*
X236631Y73826D01*
X236409Y73290D01*
X236980Y71912D01*
X237530Y71685D01*
Y71185D01*
X237070Y70994D01*
X236499Y69617D01*
X236730Y69059D01*
X236452Y68643D01*
X222443D01*
X222165Y69059D01*
X222446Y69736D01*
X221875Y71114D01*
X221758Y71162D01*
Y71662D01*
X221786Y71674D01*
X222356Y73051D01*
X222020Y73864D01*
X222374Y74217D01*
X223186Y73881D01*
X224563Y74451D01*
X225134Y75829D01*
X224563Y77206D01*
Y77207D01*
D01*
Y77699D01*
X224653Y77736D01*
X225224Y79114D01*
X224653Y80492D01*
X224201Y80679D01*
Y81179D01*
X224610Y81348D01*
X225181Y82726D01*
X224610Y84104D01*
X223233Y84674D01*
X221917Y84129D01*
X221608Y84437D01*
X221608Y84437D01*
X221563Y84483D01*
X222139Y85873D01*
X221473Y87480D01*
X219866Y88146D01*
X218259Y87480D01*
X217593Y85873D01*
X218259Y84266D01*
X219866Y83600D01*
X221412Y84240D01*
X221720Y83932D01*
X221720Y83932D01*
X221765Y83887D01*
X221284Y82726D01*
X221855Y81348D01*
X222307Y81161D01*
Y80661D01*
X221898Y80492D01*
X221602Y79777D01*
X221140Y79585D01*
X219816Y80134D01*
X218209Y79468D01*
X217543Y77861D01*
X218209Y76253D01*
X219816Y75588D01*
X219816D01*
X221237Y75829D01*
D01*
X221237Y75829D01*
X221574Y75017D01*
X221220Y74663D01*
X220408Y74999D01*
X219030Y74429D01*
X218460Y73051D01*
X218660Y72568D01*
X218306Y72214D01*
X217526Y72538D01*
X217178Y73378D01*
X215800Y73948D01*
X214422Y73378D01*
X213852Y72000D01*
X214422Y70622D01*
X215774Y70062D01*
X216122Y69222D01*
X216337Y69134D01*
X216239Y68643D01*
X213898D01*
X213620Y69059D01*
X213694Y69238D01*
X213124Y70616D01*
X211746Y71186D01*
X210368Y70616D01*
X209798Y69238D01*
X209872Y69059D01*
X209594Y68643D01*
X207297D01*
X196671Y79269D01*
X195905Y79586D01*
X195905Y79586D01*
X189291D01*
X189193Y80077D01*
X190289Y80531D01*
X191072Y82420D01*
X190289Y84309D01*
X189418Y84670D01*
Y85170D01*
X190289Y85531D01*
X190730Y86594D01*
X191192Y86786D01*
X191250Y86762D01*
X191981Y87064D01*
X192443Y86873D01*
D01*
Y86873D01*
X192443Y86873D01*
X193109Y85266D01*
X194716Y84600D01*
X196323Y85266D01*
X196989Y86873D01*
X196323Y88481D01*
X194716Y89146D01*
X193593Y88681D01*
X193370Y88774D01*
Y89274D01*
X194600Y89783D01*
X195016Y90788D01*
X195478Y90979D01*
X196816Y90425D01*
X198194Y90996D01*
X198764Y92373D01*
X198322Y93441D01*
X198513Y93903D01*
X198537Y93913D01*
X199203Y95520D01*
X198537Y97127D01*
X196930Y97793D01*
X195323Y97127D01*
X194657Y95520D01*
X195323Y93913D01*
X195438Y93865D01*
Y93751D01*
X195438Y93751D01*
X195438D01*
X195022Y92746D01*
X194560Y92555D01*
X193222Y93109D01*
X191844Y92538D01*
X191274Y91161D01*
X191313Y91067D01*
X191121Y90605D01*
X190560Y90373D01*
X190028Y91658D01*
X188650Y92228D01*
X187272Y91658D01*
X186702Y90280D01*
X186882Y89846D01*
X186690Y89384D01*
X186511Y89309D01*
X186384Y89003D01*
X185922Y88812D01*
X184722Y89309D01*
X183344Y88738D01*
X182968Y87830D01*
X182650Y87698D01*
X182650Y87698D01*
Y87698D01*
X181272Y87128D01*
X180702Y85750D01*
X181004Y85020D01*
X180588Y84743D01*
X178158Y87173D01*
X177393Y87490D01*
X177393Y87489D01*
X173593D01*
X173384Y87994D01*
X173600Y88083D01*
X174170Y89461D01*
X173830Y90282D01*
X174292Y90473D01*
X175669Y89902D01*
X177047Y90473D01*
X177618Y91850D01*
X177047Y93228D01*
X175669Y93799D01*
X174292Y93228D01*
X173721Y91850D01*
X174061Y91029D01*
X173600Y90838D01*
X172222Y91409D01*
X171278Y91018D01*
X170862Y91296D01*
Y109110D01*
X170862Y109110D01*
X170862Y109110D01*
Y124521D01*
X171353Y124619D01*
X171612Y123992D01*
X172990Y123422D01*
Y123422D01*
D01*
X173130Y122999D01*
Y122999D01*
X173701Y121622D01*
X174075Y121467D01*
Y120967D01*
X173701Y120812D01*
X173130Y119434D01*
X173701Y118057D01*
X174075Y117902D01*
Y117402D01*
X173701Y117247D01*
X173130Y115870D01*
X173701Y114492D01*
X174075Y114337D01*
Y113837D01*
X173701Y113683D01*
X173130Y112305D01*
X173701Y110927D01*
X174075Y110773D01*
Y110273D01*
X173701Y110118D01*
X173130Y108740D01*
X173701Y107362D01*
X174244Y107138D01*
X174435Y106676D01*
X174199Y106105D01*
X174770Y104728D01*
X176147Y104157D01*
X177525Y104728D01*
X178096Y106105D01*
X177525Y107483D01*
X176655Y107843D01*
X177027Y108740D01*
X176456Y110118D01*
X176083Y110273D01*
Y110773D01*
X176456Y110927D01*
X177027Y112305D01*
X176456Y113683D01*
X176083Y113837D01*
Y114337D01*
X176456Y114492D01*
X177027Y115870D01*
X176456Y117247D01*
X176083Y117402D01*
Y117902D01*
X176456Y118057D01*
X177027Y119434D01*
X176456Y120812D01*
X176083Y120967D01*
Y121467D01*
X176456Y121622D01*
X177027Y122999D01*
X176456Y124377D01*
X175079Y124948D01*
Y124948D01*
D01*
X174938Y125370D01*
Y125370D01*
X174527Y126363D01*
X174881Y126716D01*
X175079Y126634D01*
X176456Y127205D01*
X177027Y128583D01*
X176456Y129960D01*
X175079Y130531D01*
X173701Y129960D01*
X173601Y129719D01*
X173101D01*
X173001Y129960D01*
X172194Y130295D01*
X172096Y130785D01*
X173358Y132048D01*
X180810D01*
X181088Y131632D01*
X181044Y131525D01*
X181614Y130148D01*
D01*
Y130148D01*
Y130148D01*
D01*
X181614Y129665D01*
X181614D01*
X181044Y128287D01*
X181614Y126910D01*
D01*
Y126910D01*
Y126910D01*
D01*
X181614Y126417D01*
X181614D01*
X181044Y125039D01*
X181614Y123662D01*
D01*
Y123662D01*
Y123662D01*
D01*
X181614Y123169D01*
X181614D01*
X181044Y121791D01*
X181614Y120414D01*
D01*
Y120414D01*
Y120414D01*
D01*
X181614Y119921D01*
X181614D01*
X181044Y118543D01*
X181614Y117166D01*
D01*
Y117166D01*
Y117166D01*
D01*
X181614Y116673D01*
X181614D01*
X181044Y115295D01*
X181614Y113918D01*
D01*
Y113918D01*
Y113918D01*
D01*
X181614Y113425D01*
X181614D01*
X181044Y112047D01*
X181614Y110670D01*
X182992Y110099D01*
X184370Y110670D01*
X184671Y111397D01*
X185171D01*
X185473Y110670D01*
X186850Y110099D01*
X187827Y110503D01*
X188898Y110060D01*
X190275Y110630D01*
X190846Y112008D01*
X190275Y113385D01*
X188898Y113956D01*
X187922Y113552D01*
X186850Y113996D01*
X185473Y113425D01*
X185171Y112697D01*
X184671D01*
X184370Y113425D01*
D01*
X184370Y113425D01*
Y113918D01*
X184370D01*
X184940Y115295D01*
X184370Y116673D01*
D01*
X184370Y116673D01*
Y117166D01*
X184370D01*
X184940Y118543D01*
X184370Y119921D01*
Y119921D01*
D01*
Y120060D01*
X184618Y120309D01*
X184860Y120357D01*
X185211Y119511D01*
X187100Y118728D01*
X188989Y119511D01*
X189350Y120381D01*
X189850D01*
X190211Y119511D01*
X192100Y118728D01*
X193989Y119511D01*
X194772Y121400D01*
X193989Y123289D01*
X192100Y124072D01*
X190211Y123289D01*
X189850Y122418D01*
X189350D01*
X188989Y123289D01*
X187100Y124072D01*
X185211Y123289D01*
X185015Y122818D01*
X184723Y122818D01*
X184370Y123171D01*
Y123662D01*
X184370D01*
X184940Y125039D01*
X184370Y126417D01*
D01*
X184370Y126417D01*
Y126910D01*
X184370D01*
X184940Y128287D01*
X184370Y129665D01*
D01*
X184370Y129665D01*
Y130148D01*
X184370D01*
X184940Y131525D01*
X184721Y132056D01*
X185465Y132365D01*
X190796Y137695D01*
X191151Y137457D01*
D01*
X191211Y137417D01*
X190738Y136275D01*
X190898Y135889D01*
X190707Y135427D01*
X189537Y134942D01*
X188966Y133565D01*
X189537Y132187D01*
X190915Y131616D01*
X192292Y132187D01*
X192863Y133565D01*
X192703Y133951D01*
X192894Y134413D01*
X194064Y134898D01*
X194635Y136275D01*
X194064Y137653D01*
X192687Y138224D01*
X191545Y137751D01*
X191505Y137811D01*
D01*
X191267Y138166D01*
X202845Y149744D01*
X217034D01*
X217132Y149254D01*
X217126Y149252D01*
X216556Y147874D01*
X217126Y146496D01*
X218504Y145926D01*
X219882Y146496D01*
X220452Y147874D01*
X219882Y149252D01*
X219876Y149254D01*
X219974Y149744D01*
X228371D01*
X230095Y148020D01*
X229997Y147529D01*
X229172Y147188D01*
X228602Y145810D01*
X229172Y144432D01*
X230550Y143862D01*
X231928Y144432D01*
X232270Y145257D01*
X232760Y145355D01*
X235453Y142662D01*
Y134605D01*
X235037Y134327D01*
X233900Y134798D01*
X232522Y134228D01*
X231952Y132850D01*
X232522Y131472D01*
X232558Y131457D01*
X232068Y130273D01*
X232638Y128895D01*
X234016Y128325D01*
X235037Y128748D01*
X235453Y128470D01*
Y126032D01*
X235037Y125754D01*
X234016Y126177D01*
X232409Y125511D01*
X231743Y123904D01*
X232409Y122297D01*
X234016Y121631D01*
X234817Y121963D01*
X235095Y121547D01*
X233132Y119584D01*
X232815Y118819D01*
X232815Y118819D01*
Y115092D01*
X232815Y115092D01*
X232969Y114719D01*
X232685Y114032D01*
X233350Y112424D01*
X233637Y112305D01*
Y111805D01*
X233387Y111702D01*
X232722Y110094D01*
X233387Y108487D01*
X233659Y108375D01*
Y107875D01*
X233393Y107765D01*
X232727Y106157D01*
X233393Y104550D01*
X235000Y103884D01*
X235525Y104102D01*
X236292Y103335D01*
X236292Y103335D01*
X237058Y103018D01*
X253200D01*
X253200Y103018D01*
X253965Y103335D01*
X270178Y119547D01*
X271343D01*
X271693Y118701D01*
X273583Y117919D01*
X275472Y118701D01*
X276255Y120591D01*
X275472Y122480D01*
X274601Y122841D01*
Y123341D01*
X275472Y123701D01*
X276255Y125591D01*
X275472Y127480D01*
X274601Y127841D01*
Y128341D01*
X275472Y128701D01*
X276255Y130591D01*
X275472Y132480D01*
X274601Y132841D01*
Y133341D01*
X275472Y133701D01*
X276255Y135591D01*
X275472Y137480D01*
X274601Y137841D01*
Y138341D01*
X275472Y138701D01*
X276255Y140591D01*
X275472Y142480D01*
X273583Y143262D01*
X271693Y142480D01*
X271352Y141656D01*
X265085D01*
X265085Y141656D01*
X264544Y141431D01*
X264320Y141339D01*
X264320Y141339D01*
X239563Y116582D01*
X238713D01*
X238435Y116998D01*
X239000Y118362D01*
X238783Y118887D01*
X264386Y144491D01*
X271447D01*
X271447Y144491D01*
X272213Y144808D01*
X272658Y145253D01*
X273465Y144919D01*
X275354Y145701D01*
X276136Y147591D01*
X275354Y149480D01*
X273465Y150262D01*
X271575Y149480D01*
X271575Y149480D01*
Y149480D01*
X271212Y149408D01*
X265794Y154826D01*
X265028Y155143D01*
X265028Y155143D01*
X253676D01*
X253578Y155633D01*
X254330Y155945D01*
X254901Y157323D01*
X254330Y158701D01*
X252953Y159271D01*
X251575Y158701D01*
X251004Y157323D01*
X251575Y155945D01*
X252328Y155633D01*
X252230Y155143D01*
X200654D01*
X200556Y155633D01*
X201023Y155827D01*
X201594Y157205D01*
X201023Y158582D01*
X199646Y159153D01*
X198268Y158582D01*
X197697Y157205D01*
X198268Y155827D01*
X198735Y155633D01*
X198638Y155143D01*
X194621D01*
X194621Y155143D01*
X194079Y154919D01*
X193855Y154826D01*
X193855Y154826D01*
X186232Y147202D01*
X185153D01*
X184875Y147618D01*
X184940Y147776D01*
X184370Y149153D01*
D01*
X184370Y149153D01*
Y149646D01*
X184370D01*
X184940Y151024D01*
X184370Y152401D01*
X182992Y152972D01*
X182854Y152915D01*
X182698Y153292D01*
X183268Y154670D01*
X182698Y156048D01*
X181320Y156618D01*
X179942Y156048D01*
X179372Y154670D01*
X179942Y153292D01*
X181320Y152722D01*
X181458Y152779D01*
X181614Y152401D01*
X181044Y151024D01*
X181614Y149646D01*
D01*
Y149646D01*
Y149646D01*
D01*
X181614Y149153D01*
X181614D01*
X181044Y147776D01*
X181109Y147618D01*
X180831Y147202D01*
X177166D01*
X176888Y147618D01*
X177027Y147953D01*
X176456Y149330D01*
X175079Y149901D01*
X173701Y149330D01*
X173321Y148413D01*
X172821D01*
X172441Y149330D01*
X171063Y149901D01*
X169685Y149330D01*
X169384Y148603D01*
X168884D01*
X168582Y149330D01*
X167205Y149901D01*
X165827Y149330D01*
X165663Y148935D01*
X165163D01*
X165000Y149330D01*
X163622Y149901D01*
X162244Y149330D01*
X161963Y148650D01*
X161463D01*
X161181Y149330D01*
X159803Y149901D01*
X158425Y149330D01*
D01*
Y149330D01*
X158100D01*
Y149330D01*
X156722Y149901D01*
X155344Y149330D01*
X155172Y148914D01*
X154672D01*
X154500Y149330D01*
X153122Y149901D01*
X151744Y149330D01*
X151422Y148552D01*
X150922D01*
X150600Y149330D01*
X149222Y149901D01*
X147844Y149330D01*
X147822Y149276D01*
X147322D01*
X147300Y149330D01*
X145922Y149901D01*
X145251Y149623D01*
X144996Y150238D01*
X143618Y150809D01*
X142498Y150345D01*
X142145Y150699D01*
X142170Y150761D01*
X141632Y152061D01*
X142170Y153361D01*
X142145Y153423D01*
X142498Y153776D01*
X143618Y153312D01*
X144996Y153883D01*
X145566Y155261D01*
X144996Y156638D01*
X144471Y156856D01*
X144310Y157244D01*
X144310Y157244D01*
X144310D01*
X143740Y158622D01*
X142362Y159192D01*
X140984Y158622D01*
X140727Y158000D01*
X140222Y158209D01*
X139722Y158002D01*
X139448Y158661D01*
X138071Y159232D01*
X136693Y158661D01*
X136123Y157283D01*
D01*
X135524Y157036D01*
X135498Y157046D01*
X135384Y157323D01*
X134006Y157893D01*
X133900Y157849D01*
X133484Y158127D01*
Y165448D01*
X133900Y165726D01*
X134843Y165335D01*
X136220Y165906D01*
X136791Y167283D01*
X136220Y168661D01*
X134843Y169232D01*
X133900Y168841D01*
X133484Y169119D01*
Y171063D01*
X133484Y171063D01*
X133470Y171097D01*
X133661Y171559D01*
X134545Y171925D01*
X135115Y173302D01*
X134545Y174680D01*
X133167Y175251D01*
X131789Y174680D01*
X131530Y174054D01*
X131039Y173956D01*
X125956Y179040D01*
X126053Y179530D01*
X127395Y180086D01*
X128060Y181693D01*
X127843Y182218D01*
X128322Y182697D01*
X131610D01*
X131708Y182207D01*
X131306Y182040D01*
X130640Y180433D01*
X131306Y178826D01*
X132913Y178160D01*
X134521Y178826D01*
X134738Y179351D01*
X196126D01*
X204668Y170809D01*
X204668Y170809D01*
X204892Y170717D01*
X205433Y170492D01*
X205433Y170492D01*
X232079D01*
X232357Y170077D01*
X232272Y169873D01*
X231810Y169681D01*
X231060Y169992D01*
X229682Y169421D01*
X229112Y168044D01*
X229682Y166666D01*
X231060Y166095D01*
X232438Y166666D01*
X232883Y167742D01*
X233960Y167295D01*
X235338Y167866D01*
X235909Y169244D01*
X235563Y170077D01*
X235841Y170492D01*
X240262D01*
X240540Y170077D01*
X240112Y169044D01*
X240683Y167666D01*
X242060Y167095D01*
X243438Y167666D01*
X244008Y169044D01*
X243581Y170077D01*
X243858Y170492D01*
X276777D01*
X277702Y169567D01*
X277605Y169076D01*
X276699Y168701D01*
X276160Y167400D01*
X276699Y166099D01*
X278000Y165560D01*
X279301Y166099D01*
X279676Y167005D01*
X280167Y167102D01*
X281792Y165478D01*
Y158071D01*
X281792Y158071D01*
X282109Y157306D01*
X286676Y152739D01*
X287441Y152421D01*
X287441Y152422D01*
X290315D01*
X290315Y152421D01*
X291080Y152739D01*
X292487Y154146D01*
X292488Y154146D01*
X292580Y154370D01*
X292805Y154911D01*
X292805Y154911D01*
Y156736D01*
X293329Y156953D01*
X293995Y158561D01*
X293329Y160168D01*
X291722Y160834D01*
X290115Y160168D01*
X289449Y158561D01*
X289704Y157946D01*
X289381Y157623D01*
X288919Y157814D01*
Y165431D01*
X288919Y165431D01*
X288695Y165973D01*
X288602Y166197D01*
X288602Y166197D01*
X277773Y177025D01*
X277008Y177342D01*
X277008Y177342D01*
X220527D01*
X213324Y184545D01*
X212559Y184862D01*
X212559Y184862D01*
X183413D01*
X183135Y185278D01*
X183444Y186024D01*
X182874Y187401D01*
X181496Y187972D01*
X180118Y187401D01*
X179548Y186024D01*
X179857Y185278D01*
X179579Y184862D01*
X127874D01*
X127874Y184862D01*
X127333Y184638D01*
X127109Y184545D01*
X127109Y184545D01*
X126312Y183748D01*
X125787Y183966D01*
X124180Y183300D01*
X123625Y181959D01*
X123134Y181861D01*
X119742Y185254D01*
X118976Y185571D01*
X118976Y185571D01*
X67762D01*
X67484Y185986D01*
X67970Y187161D01*
X67400Y188538D01*
X66022Y189109D01*
D02*
G37*
G36*
X155017Y189818D02*
X153640Y189247D01*
X153069Y187869D01*
X153640Y186492D01*
X155017Y185921D01*
X156395Y186492D01*
X156966Y187869D01*
X156395Y189247D01*
X155017Y189818D01*
D02*
G37*
G36*
X171922Y190109D02*
X170544Y189538D01*
X169974Y188161D01*
X170544Y186783D01*
X171922Y186212D01*
X173300Y186783D01*
X173870Y188161D01*
X173300Y189538D01*
X171922Y190109D01*
D02*
G37*
G36*
X84222Y190309D02*
X82844Y189738D01*
X82274Y188361D01*
X82844Y186983D01*
X84222Y186412D01*
X85600Y186983D01*
X86170Y188361D01*
X85600Y189738D01*
X84222Y190309D01*
D02*
G37*
G36*
X134322D02*
X132944Y189738D01*
X132374Y188361D01*
X132944Y186983D01*
X134322Y186412D01*
X135700Y186983D01*
X136270Y188361D01*
X135700Y189738D01*
X134322Y190309D01*
D02*
G37*
G36*
X353722Y189133D02*
X351833Y188350D01*
X351472Y187479D01*
X350972D01*
X350611Y188350D01*
X348722Y189133D01*
X346833Y188350D01*
X346050Y186461D01*
X346833Y184571D01*
X348722Y183789D01*
X350611Y184571D01*
X350972Y185442D01*
X351472D01*
X351833Y184571D01*
X353722Y183789D01*
X355611Y184571D01*
X356229Y186062D01*
X356729D01*
X356844Y185783D01*
X358222Y185212D01*
X359600Y185783D01*
X360170Y187161D01*
X359600Y188538D01*
X358222Y189109D01*
X356844Y188538D01*
X356439Y187559D01*
X355939D01*
X355611Y188350D01*
X353722Y189133D01*
D02*
G37*
G36*
X218110Y138956D02*
X216733Y138385D01*
X216162Y137008D01*
X216420Y136386D01*
X216066Y136032D01*
X215945Y136082D01*
X214567Y135512D01*
X213997Y134134D01*
X214567Y132756D01*
X214933Y132605D01*
Y132105D01*
X213838Y131651D01*
X213268Y130273D01*
X213838Y128895D01*
X215216Y128325D01*
X216594Y128895D01*
X217164Y130273D01*
X216594Y131651D01*
X216227Y131802D01*
Y132302D01*
X217322Y132756D01*
X217893Y134134D01*
X217635Y134756D01*
X217989Y135110D01*
X218110Y135060D01*
X219488Y135630D01*
X220059Y137008D01*
X219488Y138385D01*
X218110Y138956D01*
D02*
G37*
G36*
X104022Y190209D02*
X102644Y189638D01*
X102074Y188261D01*
X102644Y186883D01*
X104022Y186312D01*
X105400Y186883D01*
X105970Y188261D01*
X105400Y189638D01*
X104022Y190209D01*
D02*
G37*
G36*
X191208Y190276D02*
X189830Y189705D01*
X189260Y188328D01*
X189830Y186950D01*
X191208Y186379D01*
X192586Y186950D01*
X193156Y188328D01*
X192586Y189705D01*
X191208Y190276D01*
D02*
G37*
G36*
X343222Y189109D02*
X341844Y188538D01*
X341274Y187161D01*
X341844Y185783D01*
X343222Y185212D01*
X344600Y185783D01*
X345170Y187161D01*
X344600Y188538D01*
X343222Y189109D01*
D02*
G37*
G36*
X328884Y186331D02*
X326435Y185317D01*
X325421Y182868D01*
X326435Y180419D01*
X328884Y179404D01*
X331333Y180419D01*
X332348Y182868D01*
X331333Y185317D01*
X328884Y186331D01*
D02*
G37*
G36*
X297722Y189949D02*
X295043Y188839D01*
X293934Y186161D01*
X295043Y183482D01*
X297722Y182372D01*
X300401Y183482D01*
X301511Y186161D01*
X300401Y188839D01*
X297722Y189949D01*
D02*
G37*
G36*
X307722D02*
X305043Y188839D01*
X303934Y186161D01*
X305043Y183482D01*
X307722Y182372D01*
X310401Y183482D01*
X311510Y186161D01*
X310401Y188839D01*
X307722Y189949D01*
D02*
G37*
G36*
X220945Y159744D02*
X219567Y159173D01*
X218997Y157795D01*
X219567Y156418D01*
X220945Y155847D01*
X222323Y156418D01*
X222893Y157795D01*
X222323Y159173D01*
X220945Y159744D01*
D02*
G37*
G36*
X189921Y159665D02*
X188544Y159094D01*
X187973Y157717D01*
X188544Y156339D01*
X189921Y155768D01*
X191299Y156339D01*
X191870Y157717D01*
X191299Y159094D01*
X189921Y159665D01*
D02*
G37*
G36*
X264522Y182209D02*
X263144Y181638D01*
X262574Y180261D01*
X263144Y178883D01*
X264522Y178312D01*
X265900Y178883D01*
X266470Y180261D01*
X265900Y181638D01*
X264522Y182209D01*
D02*
G37*
G36*
X229767Y187513D02*
X228390Y186943D01*
X227819Y185565D01*
X228390Y184187D01*
X229767Y183617D01*
X231145Y184187D01*
X231716Y185565D01*
X231145Y186943D01*
X229767Y187513D01*
D02*
G37*
G36*
X323222Y189109D02*
X321844Y188538D01*
X321274Y187161D01*
X321844Y185783D01*
X323222Y185212D01*
X324600Y185783D01*
X325170Y187161D01*
X324600Y188538D01*
X323222Y189109D01*
D02*
G37*
G36*
X333222D02*
X331844Y188538D01*
X331274Y187161D01*
X331844Y185783D01*
X333222Y185212D01*
X334600Y185783D01*
X335170Y187161D01*
X334600Y188538D01*
X333222Y189109D01*
D02*
G37*
G36*
X338222D02*
X336844Y188538D01*
X336274Y187161D01*
X336844Y185783D01*
X338222Y185212D01*
X339600Y185783D01*
X340170Y187161D01*
X339600Y188538D01*
X338222Y189109D01*
D02*
G37*
G36*
X8222D02*
X6844Y188538D01*
X6274Y187161D01*
X6844Y185783D01*
X8222Y185212D01*
X9600Y185783D01*
X10170Y187161D01*
X9600Y188538D01*
X8222Y189109D01*
D02*
G37*
G36*
X258122Y187609D02*
X256744Y187038D01*
X256174Y185661D01*
X256744Y184283D01*
X258122Y183712D01*
X259500Y184283D01*
X260070Y185661D01*
X259500Y187038D01*
X258122Y187609D01*
D02*
G37*
G36*
X13222Y189109D02*
X11844Y188538D01*
X11274Y187161D01*
X11844Y185783D01*
X13222Y185212D01*
X14600Y185783D01*
X15170Y187161D01*
X14600Y188538D01*
X13222Y189109D01*
D02*
G37*
%LPD*%
G36*
X78578Y66222D02*
X78880Y66203D01*
X78880D01*
D01*
D01*
Y66203D01*
X79105Y66110D01*
X79646Y65886D01*
X79646Y65886D01*
X82474D01*
X82752Y65470D01*
X82297Y64373D01*
X82963Y62766D01*
X83995Y62338D01*
Y61838D01*
X82963Y61410D01*
X82963D01*
X82963D01*
X82696Y61521D01*
X82657Y61614D01*
Y61614D01*
X82086Y62992D01*
X80709Y63563D01*
X79331Y62992D01*
X78760Y61614D01*
X79331Y60237D01*
X80709Y59666D01*
X81954Y60182D01*
X82307Y59828D01*
X82297Y59803D01*
X82963Y58196D01*
X84570Y57530D01*
X86177Y58196D01*
X86177Y58196D01*
X86345D01*
Y58196D01*
X87953Y57530D01*
X89560Y58196D01*
X89858Y58916D01*
X90358D01*
X90744Y57983D01*
X90887Y57924D01*
Y57424D01*
X89882Y57008D01*
X89311Y55630D01*
X89882Y54252D01*
X91260Y53682D01*
X92637Y54252D01*
X93208Y55630D01*
X92637Y57008D01*
X92495Y57067D01*
Y57567D01*
X93500Y57983D01*
X94070Y59361D01*
X93500Y60738D01*
X92253Y61255D01*
Y61755D01*
X93149Y62126D01*
X93720Y63504D01*
X93149Y64882D01*
X91908Y65396D01*
X92006Y65886D01*
X98133D01*
X115255Y48765D01*
X115255Y48765D01*
X116020Y48448D01*
X121000D01*
X121176Y48184D01*
X121031Y47706D01*
X119419Y47038D01*
X118721Y45354D01*
X119226Y44136D01*
X119034Y43674D01*
X118496Y43451D01*
X117087Y44035D01*
X115403Y43337D01*
X115019Y42412D01*
X114519D01*
X114447Y42586D01*
X112022Y43590D01*
X109597Y42586D01*
X108592Y40161D01*
X109597Y37736D01*
X112022Y36731D01*
X114447Y37736D01*
X115373Y39970D01*
X115403D01*
X115403Y39970D01*
Y39970D01*
X117087Y39272D01*
X118513Y39863D01*
X119922Y39279D01*
X121447Y39911D01*
X122972Y39279D01*
X124497Y39911D01*
X126022Y39279D01*
X127706Y39977D01*
X127706D01*
D01*
X128116D01*
X128119Y39970D01*
X129803Y39272D01*
X131421Y39942D01*
X132484Y39502D01*
Y39002D01*
X131851Y38740D01*
X131280Y37362D01*
X131725Y36288D01*
X131241Y35118D01*
X131811Y33740D01*
X133189Y33170D01*
X134567Y33740D01*
X135137Y35118D01*
X134692Y36193D01*
X135136Y37265D01*
X136417Y37796D01*
X136988Y39173D01*
X136983Y39185D01*
X137337Y39538D01*
X137598Y39430D01*
X138976Y40000D01*
X139547Y41378D01*
X138976Y42756D01*
X138533Y42939D01*
Y43439D01*
X138976Y43622D01*
X139547Y45000D01*
X138976Y46378D01*
X137598Y46948D01*
X136221Y46378D01*
X136207Y46345D01*
X135707D01*
X135433Y47008D01*
X134055Y47578D01*
X132677Y47008D01*
X132317Y46137D01*
X131817D01*
X131456Y47008D01*
X130079Y47578D01*
X128701Y47008D01*
X128130Y45630D01*
X128701Y44252D01*
X128911Y44165D01*
Y43665D01*
X128119Y43337D01*
X128119D01*
D01*
X127709D01*
X127706Y43345D01*
X126713Y43756D01*
X127342Y45276D01*
X126644Y46959D01*
X125127Y47588D01*
X124943Y48032D01*
X125221Y48448D01*
X153014D01*
X153112Y47957D01*
X152002Y47498D01*
X152002Y47498D01*
Y47498D01*
X151853Y47436D01*
X150876Y47840D01*
X149498Y47270D01*
X148927Y45892D01*
X149445Y44643D01*
X148927Y43394D01*
X149445Y42144D01*
X148927Y40895D01*
X148927Y40895D01*
X148927D01*
X148802Y40770D01*
X147953Y41122D01*
X147578Y40966D01*
X147224Y41320D01*
X147324Y41561D01*
X146754Y42938D01*
D01*
X146754Y42938D01*
Y43202D01*
X146754D01*
X147324Y44579D01*
X146754Y45957D01*
X145376Y46528D01*
X143998Y45957D01*
X143428Y44579D01*
X143998Y43202D01*
D01*
Y43202D01*
Y43202D01*
D01*
X143998Y42938D01*
X143998D01*
X143428Y41561D01*
X143998Y40183D01*
X145376Y39612D01*
X145751Y39768D01*
X146104Y39414D01*
X146004Y39173D01*
X146575Y37796D01*
X147953Y37225D01*
X148872Y37606D01*
X149196Y37472D01*
X149388Y37010D01*
X148927Y35898D01*
X149333Y34920D01*
X148979Y34566D01*
X148794Y34643D01*
X147416Y34072D01*
X146969Y32993D01*
X146736Y32993D01*
X146736Y32993D01*
Y32993D01*
X145516Y33498D01*
X144516Y33084D01*
X143516Y33498D01*
X142516Y33084D01*
X141516Y33498D01*
X140516Y33084D01*
X139516Y33498D01*
X138516Y33084D01*
X137516Y33498D01*
X136296Y32993D01*
X135791Y31773D01*
X136205Y30773D01*
X135791Y29773D01*
X136205Y28773D01*
X135791Y27773D01*
X136205Y26773D01*
X135791Y25773D01*
X136205Y24773D01*
X135791Y23773D01*
X136296Y22553D01*
X137516Y22048D01*
X138516Y22462D01*
X139516Y22048D01*
X140516Y22462D01*
X141516Y22048D01*
X142516Y22462D01*
X143516Y22048D01*
X144516Y22462D01*
X145516Y22048D01*
X146736Y22553D01*
X146736D01*
D01*
X146981Y22553D01*
X147416Y21503D01*
X148794Y20932D01*
X150171Y21503D01*
X150545Y22405D01*
X151007Y22597D01*
X151678Y22319D01*
X153056Y22889D01*
X153056Y22889D01*
X153458D01*
Y22889D01*
X154835Y22319D01*
X156213Y22889D01*
X156213Y22889D01*
X156615D01*
Y22889D01*
X157993Y22319D01*
X159370Y22889D01*
X159370Y22889D01*
X159772D01*
Y22889D01*
X161150Y22319D01*
X162528Y22889D01*
X162528Y22889D01*
Y22889D01*
X162939Y23060D01*
X164009Y22617D01*
X165193Y23107D01*
X165655Y22916D01*
X165666Y22889D01*
X167043Y22319D01*
X168421Y22889D01*
X168538Y23172D01*
X169038D01*
X169155Y22889D01*
X170533Y22319D01*
X171910Y22889D01*
X172027Y23172D01*
X172527D01*
X172644Y22889D01*
X174022Y22319D01*
X175400Y22889D01*
X175400Y22889D01*
Y22889D01*
X175522Y22940D01*
X175857Y22801D01*
X177235Y23372D01*
X177256Y23422D01*
X177480D01*
X177480Y23422D01*
Y23422D01*
X178857Y22851D01*
X180235Y23422D01*
X180235Y23422D01*
X180480D01*
Y23422D01*
X181857Y22851D01*
X183235Y23422D01*
X183235Y23422D01*
X183480D01*
Y23422D01*
X184857Y22851D01*
X186235Y23422D01*
X186384Y23782D01*
X186884D01*
X187253Y22889D01*
X188631Y22319D01*
X190009Y22889D01*
X190219Y23396D01*
X190719D01*
X190929Y22889D01*
X192306Y22319D01*
X193684Y22889D01*
X193894Y23396D01*
X194394D01*
X194604Y22889D01*
X195982Y22319D01*
X197359Y22889D01*
X197930Y24267D01*
X197359Y25645D01*
X195982Y26215D01*
X194604Y25645D01*
X194394Y25138D01*
X193894D01*
X193684Y25645D01*
X192306Y26215D01*
X190929Y25645D01*
X190719Y25138D01*
X190219D01*
X190009Y25645D01*
X188631Y26215D01*
X187253Y25645D01*
X187104Y25285D01*
X186604D01*
X186370Y25852D01*
X186561Y26314D01*
X186800Y26413D01*
X187370Y27791D01*
X186800Y29168D01*
X185422Y29739D01*
X184044Y29168D01*
X183474Y27791D01*
X183910Y26738D01*
X183718Y26276D01*
X183480Y26177D01*
D01*
Y26177D01*
X183235D01*
Y26177D01*
X181857Y26748D01*
X180480Y26177D01*
D01*
Y26177D01*
X180235D01*
Y26177D01*
X178857Y26748D01*
X177480Y26177D01*
X177459Y26127D01*
X177235D01*
X177235Y26127D01*
Y26127D01*
X175857Y26698D01*
X174480Y26127D01*
X174444Y26041D01*
X174022Y26215D01*
X172644Y25645D01*
X172527Y25362D01*
X172027D01*
X171910Y25645D01*
X171887Y25655D01*
Y26155D01*
X172520Y26417D01*
X173091Y27795D01*
X172876Y28313D01*
X173229Y28667D01*
X173858Y28406D01*
X174860Y28821D01*
X175347Y27643D01*
X176725Y27072D01*
X178103Y27643D01*
X178674Y29021D01*
X178103Y30398D01*
X176725Y30969D01*
X175724Y30554D01*
X175236Y31732D01*
X173858Y32303D01*
X173858Y32303D01*
Y32303D01*
X173650Y32805D01*
X173949Y33525D01*
X174449D01*
X174685Y32953D01*
X176063Y32382D01*
X176974Y32760D01*
X177436Y32568D01*
X177552Y32289D01*
X178930Y31718D01*
X180308Y32289D01*
X180878Y33666D01*
X180308Y35044D01*
X178930Y35614D01*
X178019Y35237D01*
X177557Y35428D01*
X177441Y35708D01*
X176063Y36279D01*
X174685Y35708D01*
X174122Y34349D01*
X173622D01*
X173416Y34847D01*
X173607Y35309D01*
X173622Y35315D01*
X174192Y36693D01*
X173622Y38071D01*
X172244Y38641D01*
X170866Y38071D01*
X170496Y37177D01*
X170034Y36985D01*
X169810Y37078D01*
X169810Y37078D01*
X169810Y37078D01*
X169562Y37181D01*
X169057Y38401D01*
X169381Y38725D01*
X169381Y38725D01*
X169381Y38725D01*
X170758Y39296D01*
X171329Y40674D01*
X170791Y41973D01*
X170982Y42435D01*
X171378Y42599D01*
X171828Y43686D01*
X172598Y43367D01*
X173702Y43824D01*
X174095Y42874D01*
X175472Y42304D01*
X176850Y42874D01*
X177421Y44252D01*
X177073Y45091D01*
X177099Y45153D01*
X177416Y45470D01*
X177640Y45378D01*
X177640Y45378D01*
X224343D01*
X224621Y44962D01*
X224075Y43644D01*
X224466Y42699D01*
X224275Y42237D01*
X223615Y41963D01*
X223044Y40586D01*
X223615Y39208D01*
D01*
Y39208D01*
Y39208D01*
D01*
X223615Y38963D01*
X223615D01*
X223044Y37586D01*
X223615Y36208D01*
D01*
Y36208D01*
Y36208D01*
D01*
X223615Y35963D01*
X223615D01*
X223044Y34586D01*
X223615Y33208D01*
Y33208D01*
D01*
Y33005D01*
X223515Y32963D01*
X222944Y31586D01*
X222961Y31544D01*
X222824Y31407D01*
X222824Y31407D01*
X222824Y31407D01*
X221446Y30836D01*
X220938Y29610D01*
X220438D01*
X219931Y30836D01*
X218553Y31407D01*
X217175Y30836D01*
X216851Y30053D01*
X216351D01*
X216063Y30748D01*
X214685Y31318D01*
X213307Y30748D01*
X212758Y29423D01*
X212039Y29721D01*
X210661Y29150D01*
X210091Y27772D01*
X210661Y26395D01*
X212039Y25824D01*
X213417Y26395D01*
X213830Y27393D01*
X214292Y27584D01*
X214685Y27422D01*
X216063Y27992D01*
X216387Y28776D01*
X216887D01*
X217175Y28081D01*
X218553Y27510D01*
X219931Y28081D01*
X220438Y29307D01*
X220938D01*
X221446Y28081D01*
X222824Y27510D01*
X224202Y28081D01*
X224772Y29458D01*
X224755Y29500D01*
X224892Y29637D01*
X224892Y29637D01*
X224892Y29637D01*
X226270Y30208D01*
X226841Y31586D01*
X226270Y32963D01*
Y32963D01*
D01*
Y33167D01*
X226370Y33208D01*
X226941Y34586D01*
X226370Y35963D01*
D01*
X226370Y35963D01*
Y36208D01*
X226370D01*
X226941Y37586D01*
X226370Y38963D01*
D01*
X226370Y38963D01*
Y39208D01*
X226370D01*
X226941Y40586D01*
X226414Y41857D01*
X227401Y42266D01*
X227971Y43644D01*
X227425Y44962D01*
X227703Y45378D01*
X231191D01*
X231469Y44962D01*
X231195Y44299D01*
X231765Y42922D01*
X232536Y42602D01*
Y42102D01*
X232496Y42086D01*
X231925Y40708D01*
X232496Y39330D01*
D01*
Y39330D01*
Y39330D01*
D01*
X232496Y39086D01*
X232496D01*
X231925Y37708D01*
X232496Y36330D01*
D01*
Y36330D01*
Y36330D01*
D01*
X232496Y36086D01*
X232496D01*
X231925Y34708D01*
X232496Y33330D01*
D01*
Y33330D01*
Y33330D01*
D01*
X232496Y33086D01*
X232496D01*
X231925Y31708D01*
X232496Y30330D01*
X232752Y30224D01*
Y29724D01*
X232136Y29469D01*
X231565Y28091D01*
X232038Y26950D01*
X231847Y26488D01*
X230926Y26107D01*
X230356Y24729D01*
X230356D01*
X230334Y24727D01*
X230334D01*
X228956Y24157D01*
X228567Y23217D01*
X228459D01*
X228459Y23217D01*
Y23217D01*
X227081Y23788D01*
X225704Y23217D01*
X225437Y22574D01*
X224937D01*
X224671Y23217D01*
X223293Y23788D01*
X221916Y23217D01*
X221649Y22574D01*
X221149D01*
X220883Y23217D01*
X219505Y23788D01*
X218128Y23217D01*
X218128D01*
X218127D01*
X217579Y23444D01*
X217205Y24347D01*
X215828Y24918D01*
X214450Y24347D01*
X213879Y22970D01*
X214402Y21709D01*
X213865Y20414D01*
X214140Y19752D01*
X213958Y19314D01*
X213958Y19314D01*
X213958Y19314D01*
X213614Y18483D01*
X213152Y18292D01*
X212662Y18495D01*
X211284Y17924D01*
X211236Y17809D01*
X210736D01*
X210689Y17924D01*
X209311Y18495D01*
X207933Y17924D01*
X207886Y17809D01*
X207386D01*
X207338Y17924D01*
X205961Y18495D01*
X204583Y17924D01*
X204535Y17809D01*
X204035D01*
X203988Y17924D01*
X202610Y18495D01*
X201232Y17924D01*
X201185Y17809D01*
X200685D01*
X200637Y17924D01*
X199259Y18495D01*
X197882Y17924D01*
X197834Y17809D01*
X197334D01*
X197287Y17924D01*
X195909Y18495D01*
X194531Y17924D01*
X194484Y17809D01*
X193984D01*
X193936Y17924D01*
X192558Y18495D01*
X191181Y17924D01*
X191133Y17809D01*
X190633D01*
X190586Y17924D01*
X189208Y18495D01*
X187830Y17924D01*
X187282Y16602D01*
X186782D01*
X186444Y17418D01*
X185066Y17989D01*
X183689Y17418D01*
D01*
Y17418D01*
X183444D01*
Y17418D01*
X182066Y17989D01*
X180689Y17418D01*
D01*
Y17418D01*
X180444D01*
Y17418D01*
X179066Y17989D01*
X177689Y17418D01*
D01*
Y17418D01*
X177444D01*
Y17418D01*
X176066Y17989D01*
X175655Y17819D01*
X175400Y17924D01*
X175400Y17924D01*
X175400Y17924D01*
X174022Y18495D01*
X172644Y17924D01*
X172522Y17629D01*
X172022D01*
X171900Y17924D01*
X170522Y18495D01*
X169144Y17924D01*
X169022Y17629D01*
X168522D01*
X168400Y17924D01*
X167022Y18495D01*
X165644Y17924D01*
X165522Y17629D01*
X165022D01*
X164900Y17924D01*
X163522Y18495D01*
X162144Y17924D01*
X162022Y17629D01*
X161522D01*
X161400Y17924D01*
X160022Y18495D01*
X158644Y17924D01*
X158522Y17629D01*
X158022D01*
X157900Y17924D01*
X156522Y18495D01*
X155144Y17924D01*
X155022Y17629D01*
X154522D01*
X154400Y17924D01*
X153022Y18495D01*
X151644Y17924D01*
X151522Y17629D01*
X151022D01*
X150900Y17924D01*
X149522Y18495D01*
X148144Y17924D01*
X148022Y17629D01*
X147522D01*
X147400Y17924D01*
X146022Y18495D01*
X144644Y17924D01*
X144074Y16547D01*
X144644Y15169D01*
X146022Y14598D01*
X147400Y15169D01*
X147522Y15464D01*
X148022D01*
X148144Y15169D01*
X149522Y14598D01*
X150900Y15169D01*
X151022Y15464D01*
X151522D01*
X151644Y15169D01*
X152457Y14832D01*
Y14333D01*
X152084Y14178D01*
X151514Y12801D01*
X151863Y11958D01*
X151585Y11542D01*
X101088D01*
X97286Y15345D01*
X97383Y15835D01*
X98221Y16183D01*
X98221Y16183D01*
X98390D01*
Y16183D01*
X99997Y15517D01*
X101604Y16183D01*
X101614Y16207D01*
X102114D01*
X102402Y15512D01*
X103779Y14942D01*
X105157Y15512D01*
X105728Y16890D01*
X105157Y18267D01*
X103779Y18838D01*
X102447Y18286D01*
X101985Y18477D01*
X101604Y19397D01*
X100572Y19825D01*
Y20325D01*
X101604Y20752D01*
X101604D01*
D01*
X101972Y20752D01*
X102284Y20000D01*
X103661Y19430D01*
X105039Y20000D01*
X105610Y21378D01*
X105039Y22756D01*
X103661Y23326D01*
X102459Y22828D01*
X101997Y23019D01*
X101604Y23967D01*
X100572Y24394D01*
Y24894D01*
X101604Y25322D01*
X102270Y26929D01*
X101604Y28536D01*
X99997Y29202D01*
X98390Y28536D01*
D01*
Y28536D01*
X98221D01*
Y28536D01*
X96614Y29202D01*
X95007Y28536D01*
X94341Y26929D01*
X95007Y25322D01*
X96039Y24894D01*
Y24394D01*
X95007Y23967D01*
X94341Y22359D01*
X95007Y20752D01*
X96039Y20325D01*
Y19825D01*
X95007Y19397D01*
X94341Y17790D01*
X94777Y16738D01*
X94573Y16434D01*
X94076Y16385D01*
X93512Y16948D01*
Y25570D01*
X93512Y25570D01*
X93288Y26111D01*
X93195Y26335D01*
X93195Y26335D01*
X76905Y42626D01*
X76139Y42943D01*
X76139Y42943D01*
X71332D01*
X71150Y43383D01*
D01*
D01*
X71720Y44761D01*
X71150Y46138D01*
X69772Y46709D01*
X69772Y46709D01*
Y46709D01*
X69523Y47081D01*
X73915Y51473D01*
X73915Y51473D01*
X74232Y52239D01*
Y62675D01*
X74648Y62953D01*
X76108Y62348D01*
X77983Y63125D01*
X78759Y65000D01*
X78361Y65963D01*
X78536Y66225D01*
X78578Y66222D01*
D02*
G37*
G36*
X271627Y65671D02*
X272497Y65311D01*
Y64811D01*
X271627Y64450D01*
X271292Y63643D01*
X268269D01*
X267504Y63326D01*
X267504Y63326D01*
X266048Y61870D01*
X259677D01*
X259579Y62360D01*
X260600Y62783D01*
X261170Y64161D01*
X260600Y65538D01*
X259514Y65988D01*
X259612Y66478D01*
X271292D01*
X271627Y65671D01*
D02*
G37*
G36*
X43472Y64525D02*
X43472Y64525D01*
X43855Y64366D01*
X44238Y64208D01*
X44238Y64208D01*
X47367D01*
X47464Y63717D01*
X46378Y63267D01*
X45808Y61890D01*
X46378Y60512D01*
X47756Y59941D01*
X49134Y60512D01*
X49704Y61890D01*
X49134Y63267D01*
X48048Y63717D01*
X48145Y64208D01*
X50544D01*
X50822Y63792D01*
X50729Y63568D01*
X51300Y62190D01*
D01*
Y62190D01*
Y62190D01*
D01*
X51300Y61997D01*
X51300D01*
X50729Y60619D01*
X51300Y59242D01*
D01*
Y59242D01*
Y59242D01*
D01*
X51300Y58848D01*
X51300D01*
X50729Y57471D01*
X51300Y56093D01*
X52016Y55796D01*
Y55296D01*
X51300Y55000D01*
X50729Y53622D01*
X51300Y52245D01*
X52677Y51674D01*
X54055Y52245D01*
X54625Y53622D01*
X54055Y55000D01*
X53339Y55296D01*
Y55796D01*
X54055Y56093D01*
X54625Y57471D01*
X54055Y58848D01*
D01*
X54055Y58848D01*
Y59242D01*
X54055D01*
X54625Y60619D01*
X54055Y61997D01*
D01*
X54055Y61997D01*
Y62190D01*
X54055D01*
X54625Y63568D01*
X54533Y63792D01*
X54811Y64208D01*
X57534D01*
X57534Y64208D01*
X57747Y64296D01*
X58327Y64055D01*
Y64055D01*
X58327Y64055D01*
X58857Y62775D01*
X58603Y62161D01*
X59174Y60783D01*
D01*
Y60783D01*
Y60783D01*
D01*
X59174Y60287D01*
X59174D01*
X58603Y58910D01*
X59174Y57532D01*
D01*
Y57532D01*
Y57532D01*
D01*
X59174Y57036D01*
X59174D01*
X58603Y55659D01*
X59174Y54281D01*
X60551Y53710D01*
X61929Y54281D01*
X62499Y55659D01*
X61929Y57036D01*
D01*
X61929Y57036D01*
Y57532D01*
X61929D01*
X62447Y58784D01*
X62598Y58721D01*
X63976Y59292D01*
X64547Y60669D01*
X63976Y62047D01*
X62599Y62618D01*
X62598Y62618D01*
X62598Y62618D01*
X62251Y62762D01*
X61969Y63441D01*
X62224Y64055D01*
X62045Y64486D01*
X62323Y64902D01*
X64085D01*
X65374Y63612D01*
Y54655D01*
X61865Y51145D01*
X61552Y50390D01*
X60551Y50805D01*
X59174Y50234D01*
X58603Y48856D01*
X59174Y47479D01*
D01*
Y47479D01*
Y47479D01*
D01*
X59174Y47283D01*
X59174D01*
X58603Y45906D01*
X59174Y44528D01*
X60551Y43957D01*
X61132Y44198D01*
X61548Y43920D01*
Y40146D01*
X61132Y39869D01*
X60551Y40109D01*
X59174Y39538D01*
X58603Y38161D01*
X59174Y36783D01*
D01*
Y36783D01*
Y36783D01*
D01*
X59174Y36538D01*
X59174D01*
X58603Y35161D01*
X59174Y33783D01*
D01*
Y33783D01*
Y33783D01*
D01*
X59174Y33538D01*
X59174D01*
X58603Y32161D01*
X59174Y30783D01*
D01*
Y30783D01*
Y30783D01*
D01*
X59174Y30578D01*
X59174D01*
X59079Y30350D01*
X58589Y30252D01*
X53584Y35257D01*
X53681Y35747D01*
X54055Y35902D01*
X54625Y37279D01*
X54055Y38657D01*
X52677Y39228D01*
X51300Y38657D01*
X51145Y38284D01*
X50655Y38186D01*
X42182Y46658D01*
Y56193D01*
X42598Y56471D01*
X43222Y56212D01*
X44600Y56783D01*
X45170Y58161D01*
X44600Y59538D01*
X43222Y60109D01*
X42598Y59851D01*
X42182Y60128D01*
Y64003D01*
X42182Y64003D01*
X42024Y64386D01*
X41865Y64769D01*
X41865Y64769D01*
X38487Y68147D01*
D01*
X38337Y68423D01*
X38615Y68839D01*
X39158D01*
X43472Y64525D01*
D02*
G37*
G36*
X286754Y164983D02*
Y157771D01*
X286229Y157554D01*
X286018Y157045D01*
X285528Y156948D01*
X283956Y158519D01*
Y165926D01*
X283956Y165926D01*
X283732Y166467D01*
X283639Y166691D01*
X283639Y166691D01*
X277991Y172340D01*
X277225Y172657D01*
X277225Y172657D01*
X243384D01*
X243106Y173073D01*
X243509Y174044D01*
X243211Y174762D01*
X243489Y175177D01*
X276559D01*
X286754Y164983D01*
D02*
G37*
G36*
X29434Y182990D02*
X29256Y182561D01*
X29516Y181931D01*
X29239Y181516D01*
X17559D01*
X16794Y181198D01*
X16794Y181198D01*
X10835Y175239D01*
X10518Y174474D01*
X10518Y174474D01*
Y105781D01*
X10518Y105781D01*
X10640Y105486D01*
Y75128D01*
X10640Y75128D01*
X10957Y74363D01*
X13408Y71912D01*
X13408Y71912D01*
X13791Y71753D01*
X14173Y71595D01*
X14173Y71595D01*
X41166D01*
X44976Y67785D01*
X45741Y67468D01*
X45741Y67468D01*
X50507D01*
X50785Y67052D01*
X50729Y66916D01*
X50782Y66788D01*
X50504Y66372D01*
X44686D01*
X40372Y70687D01*
X39606Y71004D01*
X39606Y71004D01*
X12496D01*
X9744Y73755D01*
Y174945D01*
X18204Y183406D01*
X29156D01*
X29434Y182990D01*
D02*
G37*
G36*
X253930Y65988D02*
X252844Y65538D01*
X252274Y64161D01*
X252844Y62783D01*
X253865Y62360D01*
X253768Y61870D01*
X235457D01*
X235180Y62286D01*
X235408Y62837D01*
X235066Y63664D01*
X235527Y64778D01*
X234995Y66063D01*
X235273Y66478D01*
X236878D01*
X237156Y66063D01*
X236610Y64744D01*
X237180Y63366D01*
X238558Y62796D01*
X239936Y63366D01*
X240506Y64744D01*
X239960Y66063D01*
X240238Y66478D01*
X253832D01*
X253930Y65988D01*
D02*
G37*
G36*
X271627Y60671D02*
X272497Y60311D01*
Y59811D01*
X271627Y59450D01*
X271292Y58643D01*
X242246D01*
X242246Y58643D01*
X241705Y58419D01*
X241480Y58326D01*
X241480Y58326D01*
X239079Y55925D01*
X234475D01*
X234378Y56415D01*
X235165Y56741D01*
X235736Y58119D01*
X235251Y59289D01*
X235529Y59705D01*
X266496D01*
X266496Y59705D01*
X267261Y60022D01*
X268718Y61478D01*
X271292D01*
X271627Y60671D01*
D02*
G37*
G36*
X128051Y169276D02*
Y158074D01*
X127636Y157796D01*
X127402Y157893D01*
X126024Y157323D01*
X125821Y156832D01*
X125321D01*
X125118Y157323D01*
X123740Y157893D01*
X122362Y157323D01*
X121864Y156120D01*
X121364D01*
X120866Y157323D01*
X119488Y157893D01*
X118111Y157323D01*
X117819Y156619D01*
X117319D01*
X117027Y157323D01*
X115650Y157893D01*
X115526Y157842D01*
X115188Y158180D01*
X115188Y158180D01*
X115188Y158180D01*
X114618Y159558D01*
X113240Y160128D01*
X111862Y159558D01*
X111292Y158180D01*
X111862Y156802D01*
X113240Y156232D01*
X113363Y156283D01*
X113701Y155945D01*
X113701Y155945D01*
X113701Y155945D01*
X114272Y154567D01*
X115650Y153997D01*
X117027Y154567D01*
X117319Y155271D01*
X117819D01*
X118111Y154567D01*
X119488Y153997D01*
X120866Y154567D01*
X121364Y155770D01*
X121864D01*
X122362Y154567D01*
X123740Y153997D01*
X125118Y154567D01*
X125321Y155057D01*
X125821D01*
X126024Y154567D01*
X127402Y153997D01*
X127636Y154094D01*
X128051Y153816D01*
Y132441D01*
X127636Y132164D01*
X127205Y132342D01*
X127149Y132319D01*
X127066Y132402D01*
X127066Y132402D01*
X127066Y132402D01*
X126496Y133779D01*
D01*
X126496Y133779D01*
Y134055D01*
X126496D01*
X127066Y135433D01*
X126496Y136811D01*
D01*
X126496Y136811D01*
Y137087D01*
X126496D01*
X127066Y138465D01*
X126496Y139842D01*
D01*
X126496Y139842D01*
Y140118D01*
X126496D01*
X127066Y141496D01*
X126496Y142874D01*
D01*
X126496Y142874D01*
Y143150D01*
X126496D01*
X127066Y144527D01*
X126496Y145905D01*
D01*
X126496Y145905D01*
Y146181D01*
X126496D01*
X127066Y147559D01*
X126496Y148937D01*
X125118Y149507D01*
X123740Y148937D01*
X123170Y147559D01*
X123740Y146181D01*
D01*
Y146181D01*
Y146181D01*
D01*
X123740Y145905D01*
X123740D01*
X123170Y144527D01*
X123740Y143150D01*
D01*
Y143150D01*
Y143150D01*
D01*
X123740Y142874D01*
X123740D01*
X123170Y141496D01*
X123740Y140118D01*
D01*
Y140118D01*
Y140118D01*
D01*
X123740Y139842D01*
X123740D01*
X123170Y138465D01*
X123740Y137087D01*
D01*
Y137087D01*
Y137087D01*
D01*
X123740Y136811D01*
X123740D01*
X123170Y135433D01*
X123740Y134055D01*
D01*
Y134055D01*
Y134055D01*
D01*
X123740Y133779D01*
X123740D01*
X123170Y132402D01*
X123740Y131024D01*
X125118Y130453D01*
D01*
X125256Y130394D01*
D01*
X125256Y130394D01*
X125827Y129016D01*
X127205Y128445D01*
X127636Y128624D01*
X128051Y128346D01*
Y126913D01*
X127636Y126635D01*
X127449Y126712D01*
X126071Y126141D01*
X125501Y124764D01*
X126071Y123386D01*
X126721Y123117D01*
Y122617D01*
X125630Y122165D01*
X125060Y120787D01*
X125630Y119410D01*
X127008Y118839D01*
X127008Y118839D01*
Y118839D01*
X127302Y118545D01*
X127288Y118510D01*
X127288Y118510D01*
Y112981D01*
X126872Y112703D01*
X126400Y112898D01*
X125196Y112400D01*
X124734Y112591D01*
X124678Y112728D01*
X123300Y113298D01*
X121922Y112728D01*
X121352Y111350D01*
X121922Y109972D01*
X123300Y109402D01*
X124504Y109900D01*
X124966Y109709D01*
X125022Y109572D01*
X126400Y109002D01*
X127778Y109572D01*
X127863Y109778D01*
X128337Y110015D01*
D01*
D01*
X128561Y109922D01*
X129102Y109698D01*
X129102Y109698D01*
X133519D01*
X133797Y109282D01*
X133746Y109158D01*
X134411Y107551D01*
X136019Y106885D01*
X136544Y107103D01*
X137322Y106325D01*
X138087Y106008D01*
X138087Y106008D01*
X144386D01*
X144649Y105614D01*
X144649Y105614D01*
X144649D01*
X145315Y104007D01*
X146922Y103341D01*
X148529Y104007D01*
X148783Y104619D01*
X149273Y104716D01*
X150658Y103332D01*
Y99824D01*
X150242Y99546D01*
X149859Y99704D01*
X148482Y99134D01*
X148405Y98948D01*
X147905D01*
X147828Y99134D01*
X146450Y99704D01*
X145073Y99134D01*
X144996Y98948D01*
X144496D01*
X144419Y99134D01*
X143042Y99704D01*
X141664Y99134D01*
X141587Y98948D01*
X141087D01*
X141010Y99134D01*
X139633Y99704D01*
X138255Y99134D01*
X138178Y98948D01*
X137678D01*
X137602Y99134D01*
X136224Y99704D01*
X135546Y99423D01*
X135532Y99430D01*
X135532Y99430D01*
X135532D01*
X135308Y99971D01*
X135215Y100195D01*
X135215Y100195D01*
X132185Y103226D01*
Y104911D01*
X132529Y105053D01*
X133195Y106661D01*
X132529Y108268D01*
X130922Y108934D01*
X129315Y108268D01*
X129230Y108063D01*
X128768Y107872D01*
X128622Y107933D01*
X127441Y107443D01*
X126260Y107933D01*
X124882Y107362D01*
X124364Y106111D01*
X123864D01*
X123346Y107362D01*
X121968Y107933D01*
X120591Y107362D01*
X120447Y107014D01*
X119947D01*
X119803Y107362D01*
X118425Y107933D01*
X117048Y107362D01*
X117041Y107347D01*
X116541D01*
X116535Y107362D01*
X115157Y107933D01*
X113780Y107362D01*
X113209Y105984D01*
X113780Y104607D01*
X115157Y104036D01*
X116535Y104607D01*
X116541Y104622D01*
X117041D01*
X117048Y104607D01*
X118425Y104036D01*
X119803Y104607D01*
X119947Y104954D01*
X120447D01*
X120591Y104607D01*
X121968Y104036D01*
X123346Y104607D01*
X123864Y105857D01*
X124364D01*
X124882Y104607D01*
X126260Y104036D01*
X127441Y104525D01*
X128622Y104036D01*
X129604Y104443D01*
X130020Y104165D01*
Y102778D01*
X130020Y102778D01*
X130337Y102012D01*
X132377Y99973D01*
X132279Y99482D01*
X131438Y99134D01*
X131361Y98948D01*
X130861D01*
X130784Y99134D01*
X129406Y99704D01*
X128029Y99134D01*
X127952Y98948D01*
X127452D01*
X127375Y99134D01*
X125997Y99704D01*
X124620Y99134D01*
X124543Y98948D01*
X124043D01*
X123966Y99134D01*
X122589Y99704D01*
X121211Y99134D01*
X121134Y98948D01*
X120634D01*
X120557Y99134D01*
X119180Y99704D01*
X117802Y99134D01*
X117726Y98948D01*
X117225D01*
X117149Y99134D01*
X115771Y99704D01*
X114393Y99134D01*
X114329Y98978D01*
X114128D01*
X114128Y98978D01*
Y98978D01*
X112750Y99548D01*
X111372Y98978D01*
X110802Y97600D01*
X111372Y96222D01*
X112750Y95652D01*
X114128Y96222D01*
X114192Y96378D01*
X114393D01*
X114393Y96378D01*
Y96378D01*
X115771Y95808D01*
X117149Y96378D01*
X117225Y96564D01*
X117726D01*
X117802Y96378D01*
X119180Y95808D01*
X120557Y96378D01*
X120634Y96564D01*
X121134D01*
X121211Y96378D01*
X122589Y95808D01*
X123966Y96378D01*
X124043Y96564D01*
X124543D01*
X124620Y96378D01*
X125997Y95808D01*
X127375Y96378D01*
X127452Y96564D01*
X127952D01*
X128029Y96378D01*
X129406Y95808D01*
X130784Y96378D01*
X130861Y96564D01*
X131361D01*
X131438Y96378D01*
X132815Y95808D01*
X133666Y96160D01*
X133685Y96115D01*
X134595Y95205D01*
X134595Y95205D01*
X134669Y95174D01*
X134860Y94712D01*
X134520Y93890D01*
X135090Y92512D01*
X136468Y91941D01*
X137067Y92189D01*
X137420Y91836D01*
X137140Y91160D01*
X136678Y90969D01*
X136024Y91240D01*
X134646Y90669D01*
X134516Y90356D01*
X134016D01*
X133740Y91023D01*
X132362Y91594D01*
X130991Y91026D01*
X129619Y91594D01*
X128248Y91026D01*
X126877Y91594D01*
X125505Y91026D01*
X124134Y91594D01*
X122756Y91023D01*
X122263Y89833D01*
X121763D01*
X121417Y90669D01*
X120039Y91240D01*
X118662Y90669D01*
X118091Y89291D01*
X118662Y87914D01*
X120039Y87343D01*
X121417Y87914D01*
X121910Y89104D01*
X122410D01*
X122756Y88268D01*
X124134Y87697D01*
X125505Y88265D01*
X126877Y87697D01*
X128248Y88265D01*
X129619Y87697D01*
X130991Y88265D01*
X132362Y87697D01*
X133740Y88268D01*
X133870Y88581D01*
X134370D01*
X134646Y87914D01*
X136024Y87343D01*
X137401Y87914D01*
X137801Y88879D01*
X138301D01*
X138701Y87914D01*
X140079Y87343D01*
X141355Y87872D01*
X141709Y87518D01*
X141595Y87244D01*
X142166Y85866D01*
X143543Y85296D01*
X143543Y85296D01*
Y85296D01*
X143790Y84699D01*
X143428Y83823D01*
X143998Y82446D01*
D01*
Y82446D01*
Y82446D01*
D01*
X143998Y82182D01*
X143998D01*
X143428Y80804D01*
X143998Y79427D01*
D01*
Y79427D01*
Y79427D01*
D01*
X143998Y78963D01*
X143998D01*
X143428Y77586D01*
X143998Y76208D01*
X145376Y75637D01*
X146753Y76208D01*
X146753D01*
X146754D01*
X147238Y76112D01*
Y74022D01*
X146754Y73926D01*
X146753D01*
D01*
X145376Y74497D01*
X143998Y73926D01*
X143428Y72548D01*
X143998Y71171D01*
X144678Y70889D01*
Y70389D01*
X143998Y70107D01*
X143428Y68729D01*
X143998Y67352D01*
D01*
Y67352D01*
Y67352D01*
D01*
X143998Y67088D01*
X143998D01*
X143428Y65711D01*
X143998Y64333D01*
D01*
Y64333D01*
Y64333D01*
D01*
X143998Y64070D01*
X143998D01*
X143428Y62692D01*
X143998Y61314D01*
D01*
Y61314D01*
Y61314D01*
D01*
X143998Y61051D01*
X143998D01*
X143428Y59673D01*
X143998Y58296D01*
D01*
Y58296D01*
Y58296D01*
D01*
X143998Y58032D01*
X143998D01*
X143428Y56654D01*
X143998Y55277D01*
X144062Y55250D01*
Y54838D01*
X144062Y54838D01*
X144062D01*
X143492Y53460D01*
X144062Y52082D01*
X145440Y51512D01*
X146818Y52082D01*
X147388Y53460D01*
X146818Y54838D01*
X146754Y54864D01*
Y55277D01*
X146754Y55277D01*
X146754D01*
X147324Y56654D01*
X146754Y58032D01*
D01*
X146754Y58032D01*
Y58296D01*
X146754D01*
X147324Y59673D01*
X146754Y61051D01*
D01*
X146754Y61051D01*
Y61314D01*
X146754D01*
X147324Y62692D01*
X146754Y64070D01*
D01*
X146754Y64070D01*
Y64333D01*
X146754D01*
X147104Y65179D01*
X147604D01*
X147884Y64503D01*
X148844Y64105D01*
X149036Y63643D01*
X148927Y63382D01*
X149445Y62133D01*
X148927Y60883D01*
X149445Y59634D01*
X148927Y58385D01*
X149498Y57007D01*
X150876Y56437D01*
X151363Y56638D01*
X151716Y56285D01*
X151657Y56142D01*
X152068Y55151D01*
X151877Y54689D01*
X151558Y55000D01*
X151558Y55000D01*
X150180Y55571D01*
X148803Y55000D01*
X148232Y53622D01*
X148803Y52245D01*
X150180Y51674D01*
X151029Y52026D01*
X151491Y51834D01*
X151512Y51782D01*
X152890Y51212D01*
X154268Y51782D01*
X154268D01*
D01*
X154436D01*
X154704Y51133D01*
X154778Y51103D01*
X154680Y50612D01*
X138107D01*
X138009Y51103D01*
X138998Y51512D01*
X139568Y52890D01*
X138998Y54268D01*
X138962Y54283D01*
Y54783D01*
X138976Y54789D01*
X139547Y56166D01*
X138976Y57544D01*
D01*
X138976Y57544D01*
Y57594D01*
X138976D01*
X139547Y58972D01*
X138976Y60350D01*
D01*
X138976Y60350D01*
Y60400D01*
X138976D01*
X139547Y61778D01*
X138976Y63155D01*
D01*
X138976Y63155D01*
Y63206D01*
X138976D01*
X139547Y64583D01*
X138976Y65961D01*
D01*
X138976Y65961D01*
Y66011D01*
X138976D01*
X139547Y67389D01*
X138976Y68767D01*
D01*
X138976Y68767D01*
Y68817D01*
X138976D01*
X139547Y70195D01*
X138986Y71548D01*
X139547Y72900D01*
X138976Y74278D01*
X137598Y74849D01*
X136221Y74278D01*
X135650Y72900D01*
X136211Y71548D01*
X135650Y70195D01*
X136221Y68817D01*
D01*
Y68817D01*
Y68817D01*
D01*
X136221Y68767D01*
X136221D01*
X135650Y67389D01*
X136221Y66011D01*
D01*
Y66011D01*
Y66011D01*
D01*
X136221Y65961D01*
X136221D01*
X135650Y64583D01*
X136221Y63206D01*
D01*
Y63206D01*
Y63206D01*
D01*
X136221Y63155D01*
X136221D01*
X135650Y61778D01*
X136182Y60493D01*
X135905Y60077D01*
X135608D01*
X135198Y61068D01*
X133820Y61638D01*
X132442Y61068D01*
X132122Y60293D01*
X131622D01*
X131268Y61148D01*
X129890Y61718D01*
X128512Y61148D01*
X127942Y59770D01*
X128113Y59357D01*
X127759Y59004D01*
X127022Y59309D01*
X125644Y58738D01*
X125322Y57960D01*
X124822D01*
X124500Y58738D01*
X123234Y59263D01*
X123523Y59961D01*
X122952Y61338D01*
X121575Y61909D01*
X120197Y61338D01*
X119626Y59961D01*
X120197Y58583D01*
X121463Y58059D01*
X121174Y57361D01*
X121744Y55983D01*
X121753Y55980D01*
Y55480D01*
X120266Y54864D01*
X119569Y53180D01*
X120266Y51496D01*
X121216Y51103D01*
X121118Y50612D01*
X116468D01*
X99347Y67734D01*
X98581Y68051D01*
X98581Y68051D01*
X93674D01*
X93396Y68467D01*
X93948Y69800D01*
X93378Y71178D01*
X92000Y71748D01*
X90622Y71178D01*
X90211Y70185D01*
X89711D01*
X89560Y70550D01*
X87953Y71215D01*
X86345Y70550D01*
D01*
Y70550D01*
X86177D01*
Y70550D01*
X84570Y71215D01*
X82963Y70550D01*
X82963D01*
D01*
X82494Y70550D01*
X82250Y71138D01*
X80872Y71709D01*
X79494Y71138D01*
X78924Y69761D01*
X79256Y68959D01*
X78978Y68543D01*
X75375D01*
X75157Y69068D01*
X73550Y69734D01*
X71943Y69068D01*
X71652Y68366D01*
X71162Y68269D01*
X68386Y71045D01*
X67879Y72268D01*
X66272Y72934D01*
X64665Y72268D01*
X64580Y72064D01*
X64080D01*
X64050Y72138D01*
X62672Y72709D01*
X62345Y72573D01*
X61929Y72851D01*
Y73034D01*
X61929D01*
X62499Y74411D01*
X61929Y75789D01*
D01*
X61929Y75789D01*
Y76127D01*
X61929D01*
X62499Y77504D01*
X61929Y78882D01*
D01*
X61929Y78882D01*
Y79220D01*
X61929D01*
X62499Y80597D01*
X61929Y81975D01*
D01*
X61929Y81975D01*
Y82313D01*
X61929D01*
X62499Y83690D01*
X61929Y85068D01*
D01*
X61929Y85068D01*
Y85406D01*
X61929D01*
X62499Y86783D01*
X61929Y88161D01*
D01*
X61929Y88161D01*
Y88499D01*
X61929D01*
X62499Y89876D01*
X61929Y91254D01*
D01*
X61929Y91254D01*
Y91592D01*
X61929D01*
X62499Y92970D01*
X61929Y94347D01*
D01*
X61929Y94347D01*
Y94685D01*
X61929D01*
X62499Y96062D01*
X61929Y97440D01*
D01*
X61929Y97440D01*
Y97778D01*
X61929D01*
X62499Y99155D01*
X61929Y100533D01*
D01*
X61929Y100533D01*
Y100871D01*
X61929D01*
X62499Y102249D01*
X61929Y103626D01*
D01*
X61929Y103626D01*
Y103964D01*
X61929D01*
X62134Y104459D01*
X62634D01*
X62638Y104449D01*
X64016Y103878D01*
X64311Y104001D01*
X64664Y103647D01*
X64442Y103110D01*
X65012Y101732D01*
X65952Y101343D01*
Y100843D01*
X64961Y100433D01*
X64390Y99055D01*
X64961Y97677D01*
X65332Y97524D01*
Y97024D01*
X64762Y96788D01*
X64192Y95410D01*
X64762Y94032D01*
X64764Y94032D01*
Y93622D01*
X64764Y93622D01*
X64764D01*
X64193Y92244D01*
X64764Y90866D01*
X66142Y90296D01*
X67519Y90866D01*
X68090Y92244D01*
X67519Y93622D01*
X67518Y93622D01*
Y94032D01*
X67518Y94032D01*
X67518D01*
X68088Y95410D01*
X67518Y96788D01*
X67146Y96941D01*
Y97441D01*
X67716Y97677D01*
X68287Y99055D01*
X67716Y100433D01*
X66777Y100822D01*
Y101322D01*
X67768Y101732D01*
X68338Y103110D01*
X67768Y104488D01*
X66390Y105058D01*
X66095Y104936D01*
X65742Y105290D01*
X65964Y105827D01*
X65393Y107204D01*
X64016Y107775D01*
X62638Y107204D01*
X62433Y106709D01*
X62235D01*
X61957Y107125D01*
X62499Y108435D01*
X61929Y109812D01*
D01*
X61929Y109812D01*
Y110150D01*
X61929D01*
X62499Y111528D01*
X61961Y112827D01*
X62092Y113022D01*
X62419Y113088D01*
X62638Y112559D01*
X64016Y111989D01*
X65393Y112559D01*
X65964Y113937D01*
X65393Y115315D01*
X64016Y115885D01*
X62638Y115315D01*
X62638D01*
D01*
X62212D01*
X61929Y115998D01*
D01*
X61929Y115998D01*
Y116336D01*
X61929D01*
X62499Y117714D01*
X61929Y119091D01*
D01*
X61929Y119091D01*
Y119429D01*
X61929D01*
X62499Y120807D01*
X61929Y122185D01*
D01*
X61929Y122185D01*
Y122522D01*
X61929D01*
X62185Y123141D01*
X62685D01*
X62796Y122874D01*
X64173Y122304D01*
X65551Y122874D01*
X66122Y124252D01*
X65551Y125630D01*
X64173Y126200D01*
X62796Y125630D01*
X62539Y125011D01*
X62039D01*
X61929Y125277D01*
D01*
X61929Y125277D01*
Y125615D01*
X61929D01*
X62499Y126993D01*
X61929Y128370D01*
D01*
X61929Y128371D01*
Y128708D01*
X61929D01*
X62499Y130086D01*
X61929Y131464D01*
D01*
X61929Y131464D01*
Y131801D01*
X61929D01*
X62089Y132187D01*
X62589D01*
X62822Y131622D01*
X64200Y131052D01*
X65578Y131622D01*
X66148Y133000D01*
X65578Y134378D01*
X64200Y134948D01*
X62822Y134378D01*
X62663Y133992D01*
X62163D01*
X61929Y134557D01*
D01*
X61929Y134557D01*
Y134894D01*
X61929D01*
X62499Y136272D01*
X61929Y137650D01*
D01*
X61929Y137650D01*
Y137987D01*
X61929D01*
X62499Y139365D01*
X61929Y140743D01*
D01*
X61929Y140743D01*
Y141080D01*
X61929D01*
X62499Y142458D01*
X61929Y143836D01*
D01*
X61929Y143836D01*
Y144174D01*
X61929D01*
X62499Y145551D01*
X62245Y146166D01*
X62599Y146519D01*
X63305Y146227D01*
X64683Y146797D01*
X64683Y146797D01*
X65036D01*
Y146797D01*
X66414Y146227D01*
X67791Y146797D01*
X68362Y148175D01*
X67791Y149553D01*
X66414Y150123D01*
X65036Y149553D01*
D01*
Y149553D01*
X64683D01*
Y149553D01*
X63305Y150123D01*
X62752Y149894D01*
X62290Y150085D01*
X61771Y151338D01*
X60426Y151896D01*
Y152396D01*
X61771Y152953D01*
X62216Y154026D01*
X62953Y153721D01*
X64330Y154292D01*
X64379Y154410D01*
X64528D01*
X64528Y154410D01*
Y154410D01*
X65905Y153839D01*
X67283Y154410D01*
X67854Y155787D01*
X67364Y156969D01*
X67556Y157431D01*
X67608Y157452D01*
X68178Y158830D01*
X67608Y160208D01*
X66230Y160778D01*
X64852Y160208D01*
X64282Y158830D01*
X64771Y157649D01*
X64629Y157306D01*
X64167Y157115D01*
X62953Y157618D01*
X62953Y157618D01*
Y157618D01*
X62648Y157922D01*
X62775Y158228D01*
X62204Y159606D01*
D01*
X62204Y159606D01*
Y159904D01*
X62204D01*
X62775Y161281D01*
X62425Y162126D01*
X63049Y162384D01*
X63839Y163174D01*
X64646Y162840D01*
X66535Y163622D01*
X66896Y164493D01*
X67396D01*
X67756Y163622D01*
X69445Y162923D01*
Y162423D01*
X69022Y162248D01*
X68452Y160870D01*
X69022Y159492D01*
X70400Y158922D01*
X71778Y159492D01*
X72348Y160870D01*
X71778Y162248D01*
X70600Y162735D01*
Y163235D01*
X71535Y163622D01*
X72318Y165512D01*
X71535Y167401D01*
X69646Y168184D01*
X69468Y168110D01*
X69191Y168526D01*
X71078Y170414D01*
X77279D01*
X77376Y169923D01*
X76789Y169680D01*
X76219Y168302D01*
X76789Y166925D01*
X78167Y166354D01*
X79545Y166925D01*
X80115Y168302D01*
X79545Y169680D01*
X78958Y169923D01*
X79055Y170414D01*
X82279D01*
X82376Y169923D01*
X81789Y169680D01*
X81219Y168302D01*
X81789Y166925D01*
X83167Y166354D01*
X84545Y166925D01*
X85115Y168302D01*
X84545Y169680D01*
X83958Y169923D01*
X84055Y170414D01*
X87279D01*
X87376Y169923D01*
X86789Y169680D01*
X86219Y168302D01*
X86789Y166925D01*
X88167Y166354D01*
X89545Y166925D01*
X90115Y168302D01*
X89545Y169680D01*
X88958Y169923D01*
X89055Y170414D01*
X92279D01*
X92376Y169923D01*
X91789Y169680D01*
X91219Y168302D01*
X91789Y166925D01*
X93167Y166354D01*
X94545Y166925D01*
X95115Y168302D01*
X94545Y169680D01*
X93958Y169923D01*
X94055Y170414D01*
X97279D01*
X97376Y169923D01*
X96789Y169680D01*
X96219Y168302D01*
X96789Y166925D01*
X98167Y166354D01*
X99545Y166925D01*
X100115Y168302D01*
X99545Y169680D01*
X98958Y169923D01*
X99055Y170414D01*
X102279D01*
X102376Y169923D01*
X101789Y169680D01*
X101219Y168302D01*
X101789Y166925D01*
X103167Y166354D01*
X104545Y166925D01*
X105115Y168302D01*
X104545Y169680D01*
X103958Y169923D01*
X104055Y170414D01*
X112279D01*
X112376Y169923D01*
X111789Y169680D01*
X111219Y168302D01*
X111789Y166925D01*
X113167Y166354D01*
X114545Y166925D01*
X115115Y168302D01*
X114545Y169680D01*
X113958Y169923D01*
X114055Y170414D01*
X117279D01*
X117376Y169923D01*
X116789Y169680D01*
X116219Y168302D01*
X116789Y166925D01*
X118167Y166354D01*
X119545Y166925D01*
X120115Y168302D01*
X119545Y169680D01*
X118958Y169923D01*
X119055Y170414D01*
X122152D01*
X122358Y169916D01*
X121789Y169680D01*
X121219Y168302D01*
X121789Y166925D01*
X123167Y166354D01*
X124545Y166925D01*
X125115Y168302D01*
X124758Y169164D01*
X124950Y169626D01*
X125584Y169889D01*
X125955Y170785D01*
X126445Y170882D01*
X128051Y169276D01*
D02*
G37*
G36*
X261647Y48061D02*
X261274Y47161D01*
X261844Y45783D01*
X263222Y45212D01*
X263222Y45212D01*
Y45212D01*
X263471Y44840D01*
X260543Y41912D01*
X260170Y42161D01*
Y42161D01*
X260170Y42161D01*
X259600Y43538D01*
X258222Y44109D01*
X256844Y43538D01*
X256274Y42161D01*
X256844Y40783D01*
X258222Y40212D01*
X258222Y40212D01*
Y40212D01*
X258471Y39840D01*
X257056Y38425D01*
X256739Y37660D01*
X256739Y37660D01*
Y18120D01*
X254072Y15453D01*
X253686Y15711D01*
Y15711D01*
X253686Y15711D01*
X252743Y17986D01*
X253686Y20261D01*
X252743Y22536D01*
X253686Y24811D01*
X252671Y27260D01*
X250222Y28274D01*
X247922Y27322D01*
X245622Y28274D01*
X243173Y27260D01*
X242158Y24811D01*
X243101Y22536D01*
X242158Y20261D01*
X243101Y17986D01*
X242158Y15711D01*
X243173Y13262D01*
X245622Y12247D01*
X247922Y13200D01*
X250222Y12247D01*
X250222Y12247D01*
Y12247D01*
X250398Y11983D01*
X250162Y11542D01*
X199746D01*
X199468Y11958D01*
X199688Y12488D01*
X199117Y13865D01*
X197739Y14436D01*
X196362Y13865D01*
X196308Y13736D01*
X195808D01*
X195770Y13826D01*
X194393Y14397D01*
X193015Y13826D01*
X192914Y13582D01*
X192414D01*
X192345Y13747D01*
X190968Y14318D01*
X189590Y13747D01*
X189238Y12898D01*
X188738D01*
X188341Y13858D01*
X186963Y14428D01*
X186823Y14370D01*
X186469Y14724D01*
X186992Y15986D01*
X187492D01*
X187830Y15169D01*
X189208Y14598D01*
X190586Y15169D01*
X190633Y15284D01*
X191133D01*
X191181Y15169D01*
X192558Y14598D01*
X193936Y15169D01*
X193984Y15284D01*
X194484D01*
X194531Y15169D01*
X195909Y14598D01*
X197287Y15169D01*
X197334Y15284D01*
X197834D01*
X197882Y15169D01*
X199259Y14598D01*
X200637Y15169D01*
X200685Y15284D01*
X201185D01*
X201232Y15169D01*
X202610Y14598D01*
X203988Y15169D01*
X204035Y15284D01*
X204535D01*
X204583Y15169D01*
X205961Y14598D01*
X207338Y15169D01*
X207386Y15284D01*
X207886D01*
X207933Y15169D01*
X209311Y14598D01*
X210689Y15169D01*
X210736Y15284D01*
X211236D01*
X211284Y15169D01*
X212662Y14598D01*
X214039Y15169D01*
X214519Y16327D01*
X215336Y15988D01*
X216714Y16559D01*
X217284Y17937D01*
X217010Y18599D01*
X217191Y19037D01*
X217191Y19037D01*
X217191Y19037D01*
X217697Y20258D01*
X218159Y20449D01*
X219505Y19891D01*
X220883Y20462D01*
X221149Y21105D01*
X221649D01*
X221916Y20462D01*
X223293Y19891D01*
X224671Y20462D01*
X224937Y21105D01*
X225437D01*
X225704Y20462D01*
X227081Y19891D01*
X228459Y20462D01*
X228848Y21402D01*
X228956D01*
X228956Y21402D01*
Y21402D01*
X230334Y20831D01*
X231711Y21402D01*
X232282Y22779D01*
X232282D01*
D01*
X232304Y22781D01*
X232304D01*
X233682Y23351D01*
X234253Y24729D01*
X233780Y25871D01*
X233971Y26333D01*
X234891Y26714D01*
X234891D01*
X234892D01*
X235410Y26499D01*
X236064Y24922D01*
X236934Y24561D01*
Y24061D01*
X236064Y23700D01*
X235281Y21811D01*
X236064Y19922D01*
X237953Y19139D01*
X239842Y19922D01*
X240625Y21811D01*
X239842Y23700D01*
X238971Y24061D01*
Y24561D01*
X239842Y24922D01*
X240625Y26811D01*
X239842Y28700D01*
X237953Y29483D01*
X236064Y28700D01*
X235887Y28274D01*
X235387D01*
X234892Y29469D01*
X234635Y29575D01*
Y30075D01*
X235251Y30330D01*
X235822Y31708D01*
X235251Y33086D01*
D01*
X235251Y33086D01*
Y33330D01*
X235251D01*
X235822Y34708D01*
X235251Y36086D01*
D01*
X235251Y36086D01*
Y36330D01*
X235251D01*
X235822Y37708D01*
X235251Y39086D01*
D01*
X235251Y39086D01*
Y39330D01*
X235251D01*
X235822Y40708D01*
X235251Y42086D01*
X234480Y42405D01*
Y42905D01*
X234521Y42922D01*
X235091Y44299D01*
X234817Y44962D01*
X235095Y45378D01*
X257821D01*
X257821Y45378D01*
X258587Y45695D01*
X261231Y48339D01*
X261647Y48061D01*
D02*
G37*
G36*
X191434Y53270D02*
X190171Y52747D01*
X189505Y51139D01*
X190171Y49532D01*
X191778Y48866D01*
X192676Y49238D01*
X192829Y48868D01*
X194207Y48298D01*
X195584Y48868D01*
X195666Y49066D01*
X196166D01*
X196625Y47958D01*
X196347Y47542D01*
X178088D01*
X175623Y50008D01*
X175721Y50499D01*
X176356Y50762D01*
X176926Y52139D01*
X176427Y53344D01*
X176705Y53760D01*
X178251D01*
X178529Y53344D01*
X178030Y52139D01*
X178600Y50762D01*
X179978Y50191D01*
X181356Y50762D01*
X181926Y52139D01*
X181427Y53344D01*
X181705Y53760D01*
X183251D01*
X183529Y53344D01*
X183030Y52139D01*
X183600Y50762D01*
X184978Y50191D01*
X186356Y50762D01*
X186926Y52139D01*
X186427Y53344D01*
X186705Y53760D01*
X191336D01*
X191434Y53270D01*
D02*
G37*
G36*
X63509Y178935D02*
X63248Y178307D01*
X63819Y176931D01*
X63541Y176515D01*
X60472D01*
X59873Y176267D01*
X59594Y176941D01*
X58217Y177511D01*
X57161Y177074D01*
X56699Y177266D01*
X56456Y177851D01*
X55079Y178422D01*
X53701Y177851D01*
D01*
Y177851D01*
X53334D01*
Y177851D01*
X51956Y178422D01*
X50579Y177851D01*
D01*
Y177851D01*
X50212D01*
Y177851D01*
X48834Y178422D01*
X47456Y177851D01*
D01*
Y177851D01*
X47089D01*
Y177851D01*
X45712Y178422D01*
X44334Y177851D01*
D01*
Y177851D01*
X43967D01*
Y177851D01*
X42589Y178422D01*
X41212Y177851D01*
D01*
Y177851D01*
X40845D01*
Y177851D01*
X39467Y178422D01*
X38089Y177851D01*
D01*
Y177851D01*
X37722D01*
Y177851D01*
X36345Y178422D01*
X34967Y177851D01*
D01*
Y177851D01*
X34600D01*
Y177851D01*
X33222Y178422D01*
X31844Y177851D01*
X31588Y177231D01*
X31088D01*
X30838Y177834D01*
X29460Y178405D01*
X28082Y177834D01*
X28082D01*
D01*
X27625D01*
X27437Y178289D01*
X26059Y178859D01*
X24681Y178289D01*
X24111Y176911D01*
X24681Y175533D01*
X26059Y174963D01*
X27437Y175533D01*
X27437D01*
D01*
X27894D01*
X28082Y175079D01*
X29460Y174508D01*
X30838Y175079D01*
X31095Y175699D01*
X31595D01*
X31844Y175096D01*
X33222Y174525D01*
X34600Y175096D01*
X34600Y175096D01*
X34967D01*
Y175096D01*
X36345Y174525D01*
X37722Y175096D01*
X37722Y175096D01*
X38089D01*
Y175096D01*
X39467Y174525D01*
X40845Y175096D01*
X40845Y175096D01*
X41212D01*
Y175096D01*
X42589Y174525D01*
X43967Y175096D01*
X43967Y175096D01*
X44334D01*
Y175096D01*
X45712Y174525D01*
X47089Y175096D01*
X47089Y175096D01*
X47456D01*
Y175096D01*
X48834Y174525D01*
X50212Y175096D01*
X50212Y175096D01*
X50579D01*
Y175096D01*
X51956Y174525D01*
X53334Y175096D01*
X53334Y175096D01*
X53701D01*
Y175096D01*
X55079Y174525D01*
X56134Y174963D01*
X56596Y174771D01*
X56839Y174185D01*
X57028Y174107D01*
X57059Y173949D01*
X56742Y173563D01*
X25354D01*
X25354Y173563D01*
X24813Y173338D01*
X24589Y173246D01*
X24589Y173246D01*
X19461Y168117D01*
X18970Y168215D01*
X18468Y169427D01*
X17091Y169998D01*
X15713Y169427D01*
X15142Y168049D01*
X15713Y166672D01*
X16925Y166170D01*
X17023Y165679D01*
X15691Y164348D01*
X15374Y163583D01*
X15374Y163583D01*
Y154093D01*
X15374Y154093D01*
X15691Y153328D01*
X21638Y147382D01*
Y135469D01*
X21638Y135469D01*
X21955Y134704D01*
X24717Y131941D01*
X24439Y131526D01*
X23022Y132113D01*
X21147Y131336D01*
X20370Y129461D01*
X21147Y127585D01*
X23022Y126809D01*
X24897Y127585D01*
X25674Y129461D01*
X25087Y130878D01*
X25503Y131156D01*
X27963Y128695D01*
X27963Y128695D01*
X28346Y128537D01*
X28728Y128378D01*
X28728Y128378D01*
X35394D01*
X35672Y127963D01*
X35174Y126761D01*
X35744Y125383D01*
X37122Y124812D01*
X38500Y125383D01*
X39070Y126761D01*
X38930Y127098D01*
X39122Y127560D01*
X39829Y127853D01*
X40495Y129461D01*
X39829Y131068D01*
X39086Y131376D01*
X38895Y131838D01*
X39070Y132261D01*
X38500Y133638D01*
X37122Y134209D01*
X35744Y133638D01*
X35174Y132261D01*
X35713Y130959D01*
X35435Y130543D01*
X29177D01*
X23802Y135917D01*
Y147830D01*
X23802Y147830D01*
X23578Y148371D01*
X23485Y148595D01*
X23485Y148595D01*
X17539Y154542D01*
Y163134D01*
X19566Y165161D01*
X20056Y165064D01*
X20199Y164720D01*
X21576Y164149D01*
X22954Y164720D01*
X23525Y166098D01*
X22954Y167475D01*
X22611Y167618D01*
X22513Y168108D01*
X25803Y171398D01*
X57520D01*
X57520Y171398D01*
X58285Y171715D01*
X58739Y172169D01*
X59161Y172085D01*
X59396Y171644D01*
X58878Y170394D01*
X59382Y169177D01*
X58878Y167961D01*
X59449Y166583D01*
D01*
Y166583D01*
Y166583D01*
D01*
X59449Y166405D01*
X59449D01*
X58878Y165028D01*
X59036Y164648D01*
X58758Y164232D01*
X57711D01*
X56946Y163915D01*
X56946Y163915D01*
X54663Y161632D01*
X54269Y161711D01*
X54034Y162152D01*
X54547Y163390D01*
X54016Y164671D01*
X54547Y165953D01*
X54016Y167234D01*
X54547Y168516D01*
X53976Y169894D01*
X52598Y170464D01*
X51221Y169894D01*
X51221D01*
D01*
X51208D01*
X51208Y169894D01*
X49830Y170464D01*
X48453Y169894D01*
D01*
Y169894D01*
X48440D01*
Y169894D01*
X47062Y170464D01*
X45685Y169894D01*
D01*
Y169894D01*
X45672D01*
Y169894D01*
X44294Y170464D01*
X42917Y169894D01*
D01*
Y169894D01*
X42904D01*
Y169894D01*
X41526Y170464D01*
X40149Y169894D01*
D01*
Y169894D01*
X40136D01*
Y169894D01*
X38758Y170464D01*
X37380Y169894D01*
D01*
Y169894D01*
X37368D01*
Y169894D01*
X35990Y170464D01*
X34613Y169894D01*
D01*
Y169894D01*
X34600D01*
Y169894D01*
X33222Y170464D01*
X31844Y169894D01*
X31773Y169720D01*
X31273D01*
X31190Y169921D01*
X29812Y170492D01*
X28434Y169921D01*
X28045Y168983D01*
X27545D01*
X27383Y169374D01*
X26006Y169945D01*
X24628Y169374D01*
X24057Y167996D01*
X24628Y166619D01*
X26006Y166048D01*
X27383Y166619D01*
X27772Y167557D01*
X28272D01*
X28434Y167166D01*
X29812Y166595D01*
X31190Y167166D01*
X31261Y167339D01*
X31761D01*
X31844Y167138D01*
X33222Y166568D01*
X34600Y167138D01*
X34600Y167138D01*
X34613D01*
Y167138D01*
X35990Y166568D01*
X37368Y167138D01*
X37368Y167138D01*
X37380D01*
Y167138D01*
X38758Y166568D01*
X40136Y167138D01*
X40136Y167138D01*
X40149D01*
Y167138D01*
X41526Y166568D01*
X42904Y167138D01*
X42904Y167138D01*
X42917D01*
Y167138D01*
X44294Y166568D01*
X45672Y167138D01*
X45672Y167138D01*
X45685D01*
Y167138D01*
X47062Y166568D01*
X48440Y167138D01*
X48440Y167138D01*
X48453D01*
Y167138D01*
X49830Y166568D01*
X50524Y166855D01*
X50877Y166501D01*
X50650Y165953D01*
X51181Y164671D01*
X50650Y163390D01*
X51181Y162108D01*
X50650Y160827D01*
X51102Y159736D01*
X50801Y159011D01*
X50339Y158819D01*
X50122Y158909D01*
X48744Y158338D01*
X48174Y156961D01*
X48744Y155583D01*
X50122Y155012D01*
X51500Y155583D01*
X51787Y156275D01*
X52722Y155888D01*
X54329Y156553D01*
X54995Y158161D01*
X54778Y158686D01*
X58159Y162067D01*
X58754D01*
X59032Y161652D01*
X58878Y161281D01*
X59449Y159904D01*
D01*
Y159904D01*
Y159904D01*
D01*
X59449Y159606D01*
X59449D01*
X58878Y158228D01*
X58892Y158195D01*
X58701Y157733D01*
X57520Y157244D01*
X56949Y155866D01*
X57295Y155032D01*
X56572Y154733D01*
X55422Y155209D01*
X54044Y154638D01*
X53665Y153723D01*
X52913Y154035D01*
X51536Y153464D01*
X50965Y152087D01*
X51344Y151172D01*
X50990Y150819D01*
X50522Y151013D01*
X48647Y150236D01*
X47870Y148361D01*
X48647Y146485D01*
X50522Y145709D01*
X50522D01*
D01*
D01*
X50522Y145709D01*
X50729Y145630D01*
D01*
D01*
D01*
X50729Y145630D01*
X51300Y144252D01*
D01*
Y144252D01*
Y144252D01*
D01*
X51300Y143859D01*
X51300D01*
X50895Y142882D01*
X49322Y143534D01*
X47715Y142868D01*
X47049Y141261D01*
X47715Y139653D01*
X49322Y138988D01*
X49322D01*
X50729Y139333D01*
X50729D01*
Y139333D01*
X51300Y137955D01*
D01*
Y137955D01*
Y137955D01*
D01*
X51300Y137562D01*
X51300D01*
X50729Y136184D01*
X51300Y134807D01*
D01*
Y134807D01*
Y134807D01*
D01*
X51300Y134413D01*
X51300D01*
X50729Y133036D01*
X51300Y131658D01*
D01*
Y131658D01*
Y131658D01*
D01*
X51300Y131265D01*
X51300D01*
X50729Y129887D01*
X51300Y128509D01*
D01*
Y128509D01*
Y128509D01*
D01*
X51300Y128116D01*
X51300D01*
X50729Y126739D01*
X51300Y125361D01*
D01*
Y125361D01*
Y125361D01*
D01*
X51300Y124968D01*
X51300D01*
X50729Y123590D01*
X51300Y122212D01*
D01*
Y122212D01*
Y122212D01*
D01*
X51300Y121819D01*
X51300D01*
X50729Y120441D01*
X51300Y119064D01*
D01*
Y119064D01*
Y119064D01*
D01*
X51300Y118671D01*
X51300D01*
X50729Y117293D01*
X51300Y115915D01*
D01*
Y115915D01*
Y115915D01*
D01*
X51300Y115522D01*
X51300D01*
X50729Y114144D01*
X51300Y112767D01*
D01*
Y112767D01*
Y112767D01*
D01*
X51300Y112373D01*
X51300D01*
X50729Y110996D01*
X51300Y109618D01*
D01*
Y109618D01*
Y109618D01*
D01*
X51300Y109225D01*
X51300D01*
X50729Y107847D01*
X51300Y106470D01*
D01*
Y106470D01*
Y106470D01*
D01*
X51300Y106077D01*
X51300D01*
X50729Y104699D01*
X51300Y103321D01*
D01*
Y103321D01*
Y103321D01*
D01*
X51300Y102928D01*
X51300D01*
X50729Y101550D01*
X51300Y100173D01*
D01*
Y100173D01*
Y100173D01*
D01*
X51300Y99779D01*
X51300D01*
X50729Y98402D01*
X51300Y97024D01*
D01*
Y97024D01*
Y97024D01*
D01*
X51300Y96631D01*
X51300D01*
X50729Y95253D01*
X51300Y93876D01*
D01*
Y93875D01*
Y93875D01*
D01*
X51300Y93482D01*
X51300D01*
X50729Y92105D01*
X51300Y90727D01*
D01*
Y90727D01*
Y90727D01*
D01*
X51300Y90334D01*
X51300D01*
X50729Y88956D01*
X51300Y87578D01*
D01*
Y87578D01*
Y87578D01*
D01*
X51300Y87185D01*
X51300D01*
X50729Y85808D01*
X51300Y84430D01*
D01*
Y84430D01*
Y84430D01*
D01*
X51300Y84037D01*
X51300D01*
X50729Y82659D01*
X51300Y81281D01*
D01*
Y81281D01*
Y81281D01*
D01*
X51300Y80888D01*
X51300D01*
X50729Y79510D01*
X51300Y78133D01*
D01*
Y78133D01*
Y78133D01*
D01*
X51300Y77740D01*
X51300D01*
X50729Y76362D01*
X51300Y74984D01*
D01*
Y74984D01*
Y74984D01*
D01*
X51300Y74591D01*
X51300D01*
X50729Y73213D01*
X51300Y71836D01*
D01*
Y71836D01*
Y71836D01*
D01*
X51300Y71643D01*
X51300D01*
X50729Y70265D01*
X50819Y70048D01*
X50541Y69632D01*
X46190D01*
X42380Y73443D01*
X41614Y73760D01*
X41614Y73760D01*
X14622D01*
X12804Y75577D01*
Y93824D01*
X13295Y93921D01*
X14183Y91777D01*
X16106Y90981D01*
Y90481D01*
X15040Y90039D01*
X14469Y88661D01*
X15040Y87284D01*
X16417Y86713D01*
X17795Y87284D01*
X18366Y88661D01*
X17924Y89727D01*
X18278Y90081D01*
X20827Y89025D01*
X27470Y91777D01*
X30222Y98421D01*
X27470Y105064D01*
X20827Y107816D01*
X14183Y105064D01*
X13295Y102920D01*
X12804Y103017D01*
Y105659D01*
X12804Y105659D01*
X12682Y105954D01*
Y174026D01*
X15002Y176345D01*
X15493Y176248D01*
X15766Y175587D01*
X17144Y175016D01*
X18522Y175587D01*
X19092Y176964D01*
X18522Y178342D01*
X17861Y178616D01*
X17791Y178964D01*
X18109Y179351D01*
X19409D01*
X19687Y178935D01*
X19625Y178784D01*
X20195Y177407D01*
X21573Y176836D01*
X22951Y177407D01*
X23521Y178784D01*
X23459Y178935D01*
X23737Y179351D01*
X63231D01*
X63509Y178935D01*
D02*
G37*
G36*
X119276Y178052D02*
X119178Y177561D01*
X117920Y177040D01*
X117703Y176515D01*
X73940D01*
X73843Y177006D01*
X74134Y177126D01*
X74704Y178504D01*
X74526Y178935D01*
X74804Y179351D01*
X117977D01*
X119276Y178052D01*
D02*
G37*
G36*
X219313Y175495D02*
X219313Y175495D01*
X219538Y175402D01*
X220079Y175177D01*
X220079Y175177D01*
X239632D01*
X239909Y174762D01*
X239612Y174044D01*
X240014Y173073D01*
X239736Y172657D01*
X218384D01*
X218106Y173073D01*
X218509Y174044D01*
X217938Y175421D01*
X216560Y175992D01*
X215182Y175421D01*
X214612Y174044D01*
X215014Y173073D01*
X214736Y172657D01*
X205881D01*
X197340Y181198D01*
X196575Y181516D01*
X196575Y181516D01*
X134738D01*
X134521Y182040D01*
X134119Y182207D01*
X134216Y182697D01*
X212111D01*
X219313Y175495D01*
D02*
G37*
G36*
X131319Y170615D02*
Y158115D01*
X130903Y157837D01*
X130769Y157893D01*
X130632Y157836D01*
X130216Y158114D01*
Y169724D01*
X130216Y169724D01*
X130058Y170107D01*
X129899Y170490D01*
X129899Y170490D01*
X119191Y181198D01*
X118425Y181516D01*
X118425Y181516D01*
X45353D01*
X45075Y181931D01*
X45170Y182161D01*
X44827Y182990D01*
X45105Y183406D01*
X118528D01*
X131319Y170615D01*
D02*
G37*
G36*
X68665Y62453D02*
X70272Y61788D01*
X71652Y62359D01*
X72068Y62081D01*
Y52687D01*
X66656Y47275D01*
X66166Y47373D01*
X65878Y48068D01*
X64500Y48638D01*
X64128Y48484D01*
X63712Y48762D01*
Y49932D01*
X67222Y53441D01*
X67222Y53441D01*
X67315Y53666D01*
X67539Y54207D01*
X67539Y54207D01*
Y54366D01*
X67955Y54644D01*
X68272Y54512D01*
X69650Y55083D01*
X70220Y56461D01*
X69650Y57838D01*
X68272Y58409D01*
X67955Y58278D01*
X67539Y58555D01*
Y62978D01*
X68447D01*
X68665Y62453D01*
D02*
G37*
G36*
X224128Y59289D02*
X224075Y59161D01*
X224628Y57825D01*
X224075Y56489D01*
X224136Y56341D01*
X223859Y55925D01*
X199842D01*
X199564Y56341D01*
X200170Y57804D01*
X199555Y59289D01*
X199832Y59705D01*
X223850D01*
X224128Y59289D01*
D02*
G37*
G36*
X263772Y56063D02*
X263274Y54861D01*
X263664Y53919D01*
X263473Y53457D01*
X263157Y53326D01*
X263157Y53326D01*
X260171Y50340D01*
X259680Y50438D01*
X259129Y51768D01*
X257522Y52434D01*
X255915Y51768D01*
X255249Y50161D01*
X255915Y48553D01*
X256678Y48237D01*
X256911Y48004D01*
X256720Y47542D01*
X252011D01*
X251914Y48033D01*
X252929Y48453D01*
X253595Y50061D01*
X252929Y51668D01*
Y51668D01*
Y51668D01*
X252977Y51784D01*
X253439Y51975D01*
X254095Y51703D01*
X255702Y52369D01*
X256367Y53976D01*
X255702Y55584D01*
X254726Y55988D01*
X254823Y56478D01*
X263494D01*
X263772Y56063D01*
D02*
G37*
G36*
X231281Y53344D02*
X231201Y53150D01*
X231702Y51942D01*
X231201Y50733D01*
X231743Y49425D01*
X231201Y48116D01*
X231266Y47958D01*
X230989Y47542D01*
X199853D01*
X199575Y47958D01*
X200048Y49100D01*
X199478Y50478D01*
X198100Y51048D01*
X196722Y50478D01*
X196641Y50280D01*
X196141D01*
X195584Y51624D01*
X194207Y52194D01*
X194027Y52120D01*
X193565Y52311D01*
X193385Y52747D01*
X192122Y53270D01*
X192220Y53760D01*
X219188D01*
X219286Y53270D01*
X218822Y53078D01*
X218252Y51700D01*
X218822Y50322D01*
X220200Y49752D01*
X221578Y50322D01*
X222148Y51700D01*
X221578Y53078D01*
X221114Y53270D01*
X221212Y53760D01*
X223899D01*
X224177Y53344D01*
X224075Y53098D01*
X224645Y51720D01*
D01*
Y51720D01*
Y51720D01*
D01*
X224645Y51624D01*
X224645D01*
X224075Y50246D01*
X224645Y48869D01*
X226023Y48298D01*
X227401Y48869D01*
X227971Y50246D01*
X227401Y51624D01*
D01*
X227401Y51624D01*
Y51720D01*
X227401D01*
X227971Y53098D01*
X227869Y53344D01*
X228147Y53760D01*
X231004D01*
X231281Y53344D01*
D02*
G37*
G36*
X253463Y55988D02*
X252487Y55584D01*
X251821Y53976D01*
X252487Y52369D01*
Y52369D01*
Y52369D01*
X252439Y52254D01*
X251977Y52062D01*
X251322Y52334D01*
X249715Y51668D01*
X249049Y50061D01*
X249715Y48453D01*
X250730Y48033D01*
X250633Y47542D01*
X245453D01*
X245355Y48033D01*
X246129Y48353D01*
X246795Y49961D01*
X246129Y51568D01*
X244522Y52234D01*
X242915Y51568D01*
X242249Y49961D01*
X242915Y48353D01*
X243689Y48033D01*
X243591Y47542D01*
X235310D01*
X235032Y47958D01*
X235098Y48116D01*
X234556Y49425D01*
X235098Y50733D01*
X234597Y51942D01*
X235098Y53150D01*
X235017Y53344D01*
X235295Y53760D01*
X236887D01*
X237165Y53344D01*
X236595Y51968D01*
X237166Y50591D01*
X238543Y50020D01*
X239921Y50591D01*
X240492Y51968D01*
X239921Y53346D01*
X239828Y53385D01*
Y53885D01*
X240293Y54077D01*
X242694Y56478D01*
X243656D01*
X243934Y56063D01*
X243396Y54764D01*
X244062Y53157D01*
X245669Y52491D01*
X247277Y53157D01*
X247942Y54764D01*
X247404Y56063D01*
X247682Y56478D01*
X253366D01*
X253463Y55988D01*
D02*
G37*
G36*
X168698Y102247D02*
X168282Y101970D01*
X167953Y102106D01*
X166575Y101535D01*
X166004Y100157D01*
X166564Y98806D01*
X166004Y97454D01*
X166564Y96102D01*
X166004Y94751D01*
X166564Y93399D01*
X166004Y92047D01*
X166575Y90670D01*
X166755Y90595D01*
X166277Y89440D01*
X166943Y87833D01*
X168550Y87167D01*
X169468Y87547D01*
X169821Y87194D01*
X169495Y86407D01*
X170040Y85094D01*
X169848Y84632D01*
X169815Y84618D01*
X169597Y84093D01*
X167638D01*
X165306Y86425D01*
Y101993D01*
X165722Y102271D01*
X166024Y102146D01*
X167401Y102717D01*
X167972Y104095D01*
X167401Y105472D01*
X166024Y106043D01*
X165722Y105918D01*
X165496Y106069D01*
Y106569D01*
X165722Y106720D01*
X166024Y106595D01*
X167707Y107293D01*
X167956Y107894D01*
X168698D01*
Y102247D01*
D02*
G37*
G36*
X271693Y128701D02*
X272564Y128341D01*
Y127841D01*
X271693Y127480D01*
X271352Y126656D01*
X268526D01*
X268526Y126656D01*
X267761Y126339D01*
X249605Y108182D01*
X238995D01*
X238759Y108623D01*
X239019Y109012D01*
X246900D01*
X247665Y109329D01*
X247680Y109364D01*
X247715Y109379D01*
X267704Y129368D01*
X271417D01*
X271693Y128701D01*
D02*
G37*
G36*
X179799Y82470D02*
X179702Y81980D01*
X178725Y81575D01*
X177948Y79700D01*
X178725Y77825D01*
X180600Y77048D01*
X182475Y77825D01*
X182880Y78802D01*
X183370Y78899D01*
X184531Y77739D01*
X184531Y77739D01*
X184913Y77580D01*
X185296Y77421D01*
X185296Y77422D01*
X195457D01*
X206083Y66795D01*
X206083Y66795D01*
X206308Y66703D01*
X206849Y66478D01*
X206849Y66478D01*
X209043D01*
X209320Y66063D01*
X208912Y65078D01*
X209483Y63700D01*
X210861Y63130D01*
X212238Y63700D01*
X212340Y63946D01*
X212802Y64137D01*
X213250Y63952D01*
X214628Y64522D01*
X215198Y65900D01*
X215131Y66063D01*
X215409Y66478D01*
X219655D01*
X219933Y66063D01*
X219452Y64900D01*
X220022Y63522D01*
X221400Y62952D01*
X222778Y63522D01*
X223272Y64716D01*
X223772D01*
X224138Y63833D01*
X223626Y62597D01*
X223755Y62286D01*
X223477Y61870D01*
X183716D01*
X183438Y62286D01*
X183626Y62739D01*
X183056Y64117D01*
X181678Y64688D01*
X180300Y64117D01*
X179730Y62739D01*
X179918Y62286D01*
X179640Y61870D01*
X178896D01*
X178619Y62286D01*
X178740Y62578D01*
X178169Y63956D01*
X176792Y64527D01*
X175414Y63956D01*
X174843Y62578D01*
X174965Y62286D01*
X174687Y61870D01*
X166644D01*
X154652Y73861D01*
Y81591D01*
X155068Y81869D01*
X156299Y81359D01*
X157677Y81929D01*
X158099Y82948D01*
X158599D01*
X158708Y82683D01*
X160086Y82112D01*
X160969Y82478D01*
X161298Y81683D01*
X161447Y81621D01*
X161638Y81160D01*
X161121Y79911D01*
X161692Y78533D01*
X163069Y77963D01*
X163352Y78080D01*
X163660Y77337D01*
X165038Y76766D01*
X166416Y77337D01*
X166986Y78714D01*
X166416Y80092D01*
X165038Y80663D01*
X164755Y80545D01*
X164447Y81289D01*
X164298Y81350D01*
X164107Y81812D01*
X164624Y83061D01*
X164418Y83558D01*
X164834Y83835D01*
X166424Y82245D01*
X166424Y82245D01*
X167189Y81928D01*
X169597D01*
X169815Y81403D01*
X171422Y80738D01*
X173029Y81403D01*
X173695Y83011D01*
X173151Y84324D01*
X173342Y84786D01*
X173376Y84800D01*
X173593Y85325D01*
X176944D01*
X179799Y82470D01*
D02*
G37*
G36*
X173364Y144622D02*
X173132Y144060D01*
X173702Y142682D01*
Y142682D01*
D01*
Y142201D01*
X173701Y142201D01*
X173130Y140823D01*
X173701Y139445D01*
X174995Y138910D01*
Y138410D01*
X173701Y137874D01*
D01*
Y137874D01*
X173222D01*
Y137874D01*
X171844Y138444D01*
X170467Y137874D01*
D01*
Y137874D01*
X169987D01*
Y137874D01*
X168610Y138444D01*
X167232Y137874D01*
D01*
Y137874D01*
X166753D01*
Y137874D01*
X166038Y138170D01*
X165941Y138660D01*
X172318Y145038D01*
X173087D01*
X173364Y144622D01*
D02*
G37*
G36*
X152488Y83967D02*
Y73413D01*
X152488Y73413D01*
X152805Y72647D01*
X165430Y60022D01*
X165430Y60022D01*
X165813Y59864D01*
X166195Y59705D01*
X166195Y59705D01*
X191015D01*
X191112Y59215D01*
X190347Y58898D01*
X189681Y57290D01*
X190075Y56341D01*
X189797Y55925D01*
X184174D01*
X183896Y56341D01*
X184126Y56897D01*
X183556Y58274D01*
X182178Y58845D01*
X180800Y58274D01*
X180230Y56897D01*
X180460Y56341D01*
X180182Y55925D01*
X163089D01*
X150431Y68582D01*
X150709Y68998D01*
X150876Y68929D01*
X152253Y69500D01*
X152824Y70877D01*
X152253Y72255D01*
X150876Y72826D01*
X149818Y72388D01*
X149402Y72666D01*
Y82503D01*
X149818Y82781D01*
X150250Y82602D01*
X151628Y83172D01*
X151997Y84065D01*
X152488Y83967D01*
D02*
G37*
G36*
X267799Y149759D02*
X267701Y149269D01*
X267144Y149038D01*
X266574Y147661D01*
X266818Y147071D01*
X266540Y146656D01*
X263938D01*
X263173Y146339D01*
X263173Y146338D01*
X261701Y144867D01*
X261289Y144949D01*
X261053Y145390D01*
X261235Y145829D01*
X262227Y146240D01*
X263242Y148689D01*
X262227Y151138D01*
X259778Y152153D01*
X257329Y151138D01*
X256314Y148689D01*
X257329Y146240D01*
X258017Y145955D01*
X258208Y145493D01*
X257652Y144150D01*
X258222Y142772D01*
X258785Y142539D01*
X258883Y142049D01*
X253777Y136943D01*
X253361Y137221D01*
X253757Y138177D01*
X253091Y139784D01*
X252353Y140090D01*
X252162Y140552D01*
X252426Y141189D01*
X251856Y142567D01*
X250478Y143138D01*
X249100Y142567D01*
X248530Y141189D01*
X249100Y139812D01*
X249773Y139533D01*
X249211Y138177D01*
X249877Y136569D01*
X251484Y135904D01*
X252440Y136300D01*
X252718Y135884D01*
X241201Y124367D01*
X240711Y124465D01*
X240129Y125868D01*
X238522Y126534D01*
X238034Y126331D01*
X237618Y126609D01*
Y143110D01*
X237618Y143110D01*
X237459Y143493D01*
X237301Y143876D01*
X237301Y143876D01*
X229584Y151592D01*
X228819Y151909D01*
X228819Y151909D01*
X202397D01*
X202397Y151909D01*
X202014Y151751D01*
X201631Y151592D01*
X201631Y151592D01*
X185224Y135185D01*
X184734Y135282D01*
X184370Y136161D01*
D01*
X184370Y136161D01*
Y136654D01*
X184370D01*
X184940Y138031D01*
X184370Y139409D01*
D01*
X184370Y139409D01*
Y139902D01*
X184370D01*
X184940Y141279D01*
X184370Y142657D01*
D01*
X184370Y142657D01*
Y143130D01*
X184370D01*
X184940Y144508D01*
X184893Y144622D01*
X185171Y145038D01*
X186680D01*
X186680Y145038D01*
X187445Y145355D01*
X189466Y147375D01*
X189956Y147278D01*
X190394Y146221D01*
X191772Y145650D01*
X193149Y146221D01*
X193720Y147598D01*
X193149Y148976D01*
X192093Y149414D01*
X191995Y149904D01*
X195069Y152978D01*
X233888D01*
X233985Y152488D01*
X233110Y152126D01*
X232540Y150748D01*
X233110Y149370D01*
X234488Y148800D01*
X235866Y149370D01*
X236437Y150748D01*
X235866Y152126D01*
X234991Y152488D01*
X235089Y152978D01*
X248821D01*
X249098Y152563D01*
X248530Y151189D01*
X249100Y149812D01*
X250478Y149241D01*
X251856Y149812D01*
X252426Y151189D01*
X251857Y152563D01*
X252135Y152978D01*
X264580D01*
X267799Y149759D01*
D02*
G37*
G36*
X181091Y144622D02*
X181044Y144508D01*
X181614Y143130D01*
D01*
Y143130D01*
Y143130D01*
D01*
X181614Y142657D01*
X181614D01*
X181044Y141279D01*
X181614Y139902D01*
D01*
Y139902D01*
Y139902D01*
D01*
X181614Y139409D01*
X181614D01*
X181044Y138031D01*
X181614Y136654D01*
D01*
Y136654D01*
Y136654D01*
D01*
X181614Y136161D01*
X181614D01*
X181044Y134783D01*
X181108Y134628D01*
X180830Y134212D01*
X175550D01*
X175453Y134703D01*
X176456Y135118D01*
X177027Y136496D01*
X176456Y137874D01*
X175163Y138410D01*
Y138910D01*
X176456Y139445D01*
X177027Y140823D01*
X176456Y142201D01*
Y142201D01*
D01*
Y142682D01*
X176458Y142682D01*
X177028Y144060D01*
X176796Y144622D01*
X177073Y145038D01*
X180813D01*
X181091Y144622D01*
D02*
G37*
G36*
X166790Y127205D02*
X168168Y126634D01*
X168282Y126682D01*
X168698Y126404D01*
Y110059D01*
X167956D01*
X167707Y110660D01*
X166024Y111358D01*
X164340Y110660D01*
X164063Y109991D01*
X163572Y110089D01*
Y114082D01*
X163978Y114488D01*
X163978Y114488D01*
X164136Y114870D01*
X164295Y115253D01*
X164295Y115253D01*
Y126399D01*
X164710Y126677D01*
X164812Y126634D01*
X166190Y127205D01*
X166240Y127326D01*
X166740D01*
X166790Y127205D01*
D02*
G37*
G36*
X157991Y112512D02*
X157982Y112490D01*
X158552Y111112D01*
X159930Y110542D01*
X160992Y110982D01*
X161408Y110704D01*
Y108604D01*
X161408Y108604D01*
X161673Y107963D01*
X161512Y107574D01*
X161049Y107383D01*
X159722Y107933D01*
X158344Y107362D01*
D01*
Y107362D01*
X158100D01*
Y107362D01*
X156722Y107933D01*
X155890Y107588D01*
X155537Y107942D01*
X155598Y108090D01*
X155028Y109468D01*
X153650Y110038D01*
X152272Y109468D01*
X151702Y108090D01*
X152174Y106950D01*
X151774Y105984D01*
X151784Y105961D01*
X151368Y105683D01*
X150102Y106948D01*
Y110060D01*
X150102Y110060D01*
X149878Y110601D01*
X149785Y110825D01*
X149785Y110825D01*
X148825Y111786D01*
X148922Y112276D01*
X149227Y112403D01*
X149445Y112928D01*
X157713D01*
X157991Y112512D01*
D02*
G37*
G36*
X135437Y153883D02*
X136815Y153312D01*
X137948Y153782D01*
X138302Y153428D01*
X138274Y153361D01*
X138812Y152061D01*
X138274Y150761D01*
X138844Y149383D01*
Y149383D01*
X138844Y149383D01*
X138844Y149383D01*
X138844Y149383D01*
X138844D01*
X138845Y149382D01*
X138845D01*
X138494Y148535D01*
X137953Y148759D01*
X136575Y148189D01*
X136004Y146811D01*
X136575Y145433D01*
X137953Y144863D01*
X139330Y145433D01*
X139774Y146504D01*
X140315Y146280D01*
X140315Y146280D01*
X140315Y146280D01*
X140664Y146135D01*
X140906Y145552D01*
X142283Y144981D01*
X143661Y145552D01*
X143990Y146345D01*
X144544Y146575D01*
D01*
D01*
X145922Y146004D01*
X147300Y146575D01*
X147322Y146629D01*
X147822D01*
X147844Y146575D01*
X149222Y146004D01*
X150600Y146575D01*
X150922Y147353D01*
X151422D01*
X151744Y146575D01*
X153122Y146004D01*
X154500Y146575D01*
X154672Y146991D01*
X155172D01*
X155344Y146575D01*
X156722Y146004D01*
X158100Y146575D01*
X158100Y146575D01*
X158425D01*
Y146575D01*
X159803Y146004D01*
X161181Y146575D01*
X161463Y147255D01*
X161963D01*
X162244Y146575D01*
X163622Y146004D01*
X165000Y146575D01*
X165163Y146970D01*
X165663D01*
X165827Y146575D01*
X167205Y146004D01*
X168582Y146575D01*
X168884Y147303D01*
X169384D01*
X169685Y146575D01*
X170054Y146423D01*
X170151Y145932D01*
X162975Y138755D01*
X162741Y138192D01*
X162131Y138444D01*
X160754Y137874D01*
D01*
Y137874D01*
X160284D01*
Y137874D01*
X158907Y138444D01*
X157529Y137874D01*
D01*
Y137874D01*
X157050D01*
Y137874D01*
X155672Y138444D01*
X154295Y137874D01*
D01*
Y137874D01*
X153815D01*
Y137874D01*
X152438Y138444D01*
X151060Y137874D01*
D01*
Y137874D01*
X150581D01*
Y137874D01*
X149204Y138444D01*
X147826Y137874D01*
D01*
Y137874D01*
X147347D01*
Y137874D01*
X145969Y138444D01*
X144591Y137874D01*
D01*
Y137874D01*
X144112D01*
Y137874D01*
X142735Y138444D01*
X141357Y137874D01*
D01*
Y137874D01*
X140878D01*
Y137874D01*
X139500Y138444D01*
X138123Y137874D01*
D01*
Y137874D01*
X137644D01*
Y137874D01*
X136266Y138444D01*
X134888Y137874D01*
X134888D01*
Y137874D01*
Y137874D01*
D01*
X134888D01*
D01*
X134767Y137924D01*
X134576Y138386D01*
X134980Y139360D01*
X134409Y140738D01*
D01*
X134409Y140738D01*
Y140847D01*
X134409D01*
X134980Y142224D01*
X134409Y143602D01*
D01*
X134409Y143602D01*
Y143711D01*
X134409D01*
X134980Y145089D01*
X134409Y146466D01*
D01*
X134409Y146466D01*
Y146575D01*
X134409D01*
X134980Y147953D01*
X134409Y149330D01*
X133031Y149901D01*
X132797Y149804D01*
X132382Y150082D01*
Y151993D01*
X133167Y152778D01*
X133167Y152778D01*
X133484Y153543D01*
Y153763D01*
X133900Y154041D01*
X134006Y153997D01*
X135188Y154486D01*
X135437Y153883D01*
D02*
G37*
G36*
X162131Y134548D02*
X162242Y134594D01*
X162658Y134316D01*
Y131008D01*
X162447Y130798D01*
X162178Y130149D01*
X161257Y130531D01*
X159879Y129960D01*
X159779Y129719D01*
X159279D01*
X159179Y129960D01*
X157801Y130531D01*
X156424Y129960D01*
X156324Y129719D01*
X155824D01*
X155724Y129960D01*
X154346Y130531D01*
X152968Y129960D01*
D01*
Y129960D01*
X152588D01*
Y129960D01*
X151210Y130531D01*
X149842Y129964D01*
X148480Y130528D01*
X147102Y129958D01*
X146532Y128580D01*
X147102Y127202D01*
X148480Y126632D01*
X149848Y127199D01*
X151210Y126634D01*
X152588Y127205D01*
X152588Y127205D01*
X152968D01*
Y127205D01*
X154346Y126634D01*
X155724Y127205D01*
X155824Y127447D01*
X156324D01*
X156424Y127205D01*
X157801Y126634D01*
X159179Y127205D01*
X159279Y127447D01*
X159779D01*
X159879Y127205D01*
X161257Y126634D01*
X161714Y126824D01*
X162130Y126546D01*
Y121929D01*
X161714Y121652D01*
X161378Y121791D01*
X160000Y121220D01*
X159430Y119843D01*
X160000Y118465D01*
X161378Y117894D01*
X161714Y118034D01*
X162130Y117756D01*
Y115701D01*
X162072Y115643D01*
X158581D01*
X158581Y115643D01*
X158039Y115419D01*
X157815Y115326D01*
X157815Y115326D01*
X157582Y115092D01*
X149445D01*
X149227Y115617D01*
X147620Y116283D01*
X147081Y116060D01*
X145407Y117734D01*
X144641Y118051D01*
X144641Y118051D01*
X135830D01*
X135830Y118051D01*
X135289Y117827D01*
X135064Y117734D01*
X135064Y117734D01*
X131977Y114647D01*
X131516Y114838D01*
Y116796D01*
X133403Y118683D01*
X133403Y118684D01*
X133496Y118908D01*
X133720Y119449D01*
X133720Y119449D01*
Y121798D01*
X134211Y121896D01*
X134213Y121890D01*
X135591Y121319D01*
X136968Y121890D01*
X137539Y123268D01*
X136968Y124645D01*
X135591Y125216D01*
X134213Y124645D01*
X134211Y124640D01*
X133720Y124737D01*
Y125157D01*
X133720Y125157D01*
X133562Y125540D01*
X133403Y125923D01*
X133403Y125923D01*
X132946Y126380D01*
X133224Y126795D01*
X133613Y126634D01*
X134991Y127205D01*
X135091Y127447D01*
X135591D01*
X135691Y127205D01*
X137068Y126634D01*
X138446Y127205D01*
X138546Y127447D01*
X139046D01*
X139146Y127205D01*
X140524Y126634D01*
X141902Y127205D01*
X141952Y127326D01*
X142452D01*
X142502Y127205D01*
X143879Y126634D01*
X145257Y127205D01*
X145828Y128583D01*
X145257Y129960D01*
X143879Y130531D01*
X142502Y129960D01*
X142452Y129839D01*
X141952D01*
X141902Y129960D01*
X140524Y130531D01*
X139146Y129960D01*
X139046Y129719D01*
X138546D01*
X138446Y129960D01*
X137068Y130531D01*
X135691Y129960D01*
X135591Y129719D01*
X135091D01*
X134991Y129960D01*
X133613Y130531D01*
X132797Y130193D01*
X132382Y130471D01*
Y134367D01*
X132797Y134645D01*
X133031Y134548D01*
X134409Y135118D01*
X134409Y135118D01*
X134888D01*
Y135118D01*
X136266Y134548D01*
X137644Y135118D01*
X137644Y135118D01*
X138123D01*
Y135118D01*
X139500Y134548D01*
X140878Y135118D01*
X140878Y135118D01*
X141357D01*
Y135118D01*
X142735Y134548D01*
X144112Y135118D01*
X144112Y135118D01*
X144591D01*
Y135118D01*
X145969Y134548D01*
X147347Y135118D01*
X147347Y135118D01*
X147826D01*
Y135118D01*
X149204Y134548D01*
X150581Y135118D01*
X150581Y135118D01*
X151060D01*
Y135118D01*
X152438Y134548D01*
X153815Y135118D01*
X153816Y135118D01*
X154295D01*
Y135118D01*
X155672Y134548D01*
X157050Y135118D01*
X157050Y135118D01*
X157529D01*
Y135118D01*
X158907Y134548D01*
X160284Y135118D01*
Y135118D01*
X160753Y135118D01*
Y135118D01*
Y135118D01*
D01*
D01*
D01*
X162131Y134548D01*
D02*
G37*
G36*
X271693Y133701D02*
X272564Y133341D01*
Y132841D01*
X271693Y132480D01*
X271301Y131532D01*
X267256D01*
X267256Y131532D01*
X266873Y131374D01*
X266491Y131215D01*
X266491Y131215D01*
X246452Y111177D01*
X243506D01*
X243409Y111668D01*
X243409Y111668D01*
Y111668D01*
X244174Y111985D01*
X266680Y134491D01*
X271366D01*
X271693Y133701D01*
D02*
G37*
G36*
X57019Y149291D02*
X57204Y148844D01*
X56949Y148228D01*
X57520Y146851D01*
X58577Y146413D01*
X58768Y145951D01*
X58603Y145551D01*
X59174Y144174D01*
D01*
Y144174D01*
Y144174D01*
D01*
X59174Y143836D01*
X59174D01*
X58603Y142458D01*
X59174Y141080D01*
D01*
Y141080D01*
Y141080D01*
D01*
X59174Y140743D01*
X59174D01*
X58603Y139365D01*
X59174Y137987D01*
D01*
Y137987D01*
Y137987D01*
D01*
X59174Y137650D01*
X59174D01*
X58603Y136272D01*
X59174Y134894D01*
D01*
Y134894D01*
Y134894D01*
D01*
X59174Y134557D01*
X59174D01*
X58603Y133179D01*
X59174Y131801D01*
D01*
Y131801D01*
Y131801D01*
D01*
X59174Y131464D01*
X59174D01*
X58603Y130086D01*
X59174Y128708D01*
D01*
Y128708D01*
Y128708D01*
D01*
X59174Y128370D01*
X59174D01*
X58603Y126993D01*
X59174Y125615D01*
D01*
Y125615D01*
Y125615D01*
D01*
X59174Y125277D01*
X59174D01*
X58603Y123900D01*
X59174Y122522D01*
D01*
Y122522D01*
Y122522D01*
D01*
X59174Y122185D01*
X59174D01*
X58603Y120807D01*
X59174Y119429D01*
D01*
Y119429D01*
Y119429D01*
D01*
X59174Y119091D01*
X59174D01*
X58603Y117714D01*
X59174Y116336D01*
D01*
Y116336D01*
Y116336D01*
D01*
X59174Y115998D01*
X59174D01*
X58603Y114621D01*
X59174Y113243D01*
D01*
Y113243D01*
Y113243D01*
D01*
X59174Y112905D01*
X59174D01*
X58603Y111528D01*
X59174Y110150D01*
D01*
Y110150D01*
Y110150D01*
D01*
X59174Y109812D01*
X59174D01*
X58603Y108435D01*
X59174Y107057D01*
D01*
Y107057D01*
Y107057D01*
D01*
X59174Y106719D01*
X59174D01*
X58603Y105342D01*
X59174Y103964D01*
D01*
Y103964D01*
Y103964D01*
D01*
X59174Y103626D01*
X59174D01*
X58603Y102249D01*
X59174Y100871D01*
D01*
Y100871D01*
Y100871D01*
D01*
X59174Y100533D01*
X59174D01*
X58603Y99155D01*
X59174Y97778D01*
D01*
Y97778D01*
Y97778D01*
D01*
X59174Y97440D01*
X59174D01*
X58603Y96062D01*
X59174Y94685D01*
D01*
Y94685D01*
Y94685D01*
D01*
X59174Y94347D01*
X59174D01*
X58603Y92970D01*
X59174Y91592D01*
D01*
Y91592D01*
Y91592D01*
D01*
X59174Y91254D01*
X59174D01*
X58603Y89876D01*
X59174Y88499D01*
D01*
Y88499D01*
Y88499D01*
D01*
X59174Y88161D01*
X59174D01*
X58603Y86783D01*
X59174Y85406D01*
D01*
Y85406D01*
Y85406D01*
D01*
X59174Y85068D01*
X59174D01*
X58603Y83690D01*
X59174Y82313D01*
D01*
Y82313D01*
Y82313D01*
D01*
X59174Y81975D01*
X59174D01*
X58603Y80597D01*
X59174Y79220D01*
D01*
Y79220D01*
Y79220D01*
D01*
X59174Y78882D01*
X59174D01*
X58603Y77504D01*
X59174Y76127D01*
D01*
Y76127D01*
Y76127D01*
D01*
X59174Y75789D01*
X59174D01*
X58603Y74411D01*
X59174Y73034D01*
D01*
Y73034D01*
Y73034D01*
D01*
X59174Y72696D01*
X59174D01*
X58603Y71318D01*
X59129Y70048D01*
X58851Y69632D01*
X54813D01*
X54536Y70048D01*
X54625Y70265D01*
X54055Y71643D01*
D01*
X54055Y71643D01*
Y71836D01*
X54055D01*
X54625Y73213D01*
X54055Y74591D01*
D01*
X54055Y74591D01*
Y74984D01*
X54055D01*
X54625Y76362D01*
X54055Y77740D01*
D01*
X54055Y77740D01*
Y78133D01*
X54055D01*
X54625Y79510D01*
X54055Y80888D01*
D01*
X54055Y80888D01*
Y81281D01*
X54055D01*
X54625Y82659D01*
X54055Y84037D01*
D01*
X54055Y84037D01*
Y84430D01*
X54055D01*
X54625Y85808D01*
X54055Y87185D01*
D01*
X54055Y87185D01*
Y87578D01*
X54055D01*
X54625Y88956D01*
X54055Y90334D01*
D01*
X54055Y90334D01*
Y90727D01*
X54055D01*
X54625Y92105D01*
X54055Y93482D01*
D01*
X54055Y93482D01*
Y93876D01*
X54055D01*
X54625Y95253D01*
X54055Y96631D01*
D01*
X54055Y96631D01*
Y97024D01*
X54055D01*
X54625Y98402D01*
X54055Y99779D01*
D01*
X54055Y99779D01*
Y100173D01*
X54055D01*
X54625Y101550D01*
X54055Y102928D01*
D01*
X54055Y102928D01*
Y103321D01*
X54055D01*
X54625Y104699D01*
X54055Y106077D01*
D01*
X54055Y106077D01*
Y106470D01*
X54055D01*
X54625Y107847D01*
X54055Y109225D01*
D01*
X54055Y109225D01*
Y109618D01*
X54055D01*
X54625Y110996D01*
X54055Y112373D01*
D01*
X54055Y112374D01*
Y112767D01*
X54055D01*
X54625Y114144D01*
X54055Y115522D01*
D01*
X54055Y115522D01*
Y115915D01*
X54055D01*
X54625Y117293D01*
X54055Y118671D01*
D01*
X54055Y118671D01*
Y119064D01*
X54055D01*
X54625Y120441D01*
X54055Y121819D01*
D01*
X54055Y121819D01*
Y122212D01*
X54055D01*
X54625Y123590D01*
X54055Y124968D01*
D01*
X54055Y124968D01*
Y125361D01*
X54055D01*
X54625Y126739D01*
X54055Y128116D01*
D01*
X54055Y128116D01*
Y128509D01*
X54055D01*
X54625Y129887D01*
X54055Y131265D01*
D01*
X54055Y131265D01*
Y131658D01*
X54055D01*
X54625Y133036D01*
X54055Y134413D01*
D01*
X54055Y134413D01*
Y134807D01*
X54055D01*
X54625Y136184D01*
X54055Y137562D01*
D01*
X54055Y137562D01*
Y137955D01*
X54055D01*
X54625Y139333D01*
X54055Y140710D01*
D01*
X54055Y140710D01*
Y141104D01*
X54055D01*
X54625Y142481D01*
X54055Y143859D01*
D01*
X54055Y143859D01*
Y144252D01*
X54055D01*
X54625Y145630D01*
X54349Y146298D01*
X54409Y146359D01*
X54409Y146359D01*
X54409Y146359D01*
X55787Y146929D01*
X56358Y148307D01*
X55971Y149240D01*
X56557Y149483D01*
X57019Y149291D01*
D02*
G37*
G36*
X155299Y96378D02*
X155932Y96116D01*
Y95616D01*
X155090Y95267D01*
X154520Y93890D01*
X155090Y92512D01*
X156468Y91941D01*
X157685Y92446D01*
X158147Y92254D01*
X158686Y90953D01*
X158500Y90675D01*
X158168Y90538D01*
X158168Y90538D01*
Y90538D01*
X156790Y91108D01*
X155412Y90538D01*
X154842Y89160D01*
X155412Y87782D01*
X156790Y87212D01*
X158019Y87721D01*
X158373Y87367D01*
X158138Y86800D01*
X158705Y85430D01*
X158286Y84420D01*
X157786D01*
X157677Y84685D01*
X156299Y85255D01*
X155068Y84746D01*
X154652Y85023D01*
Y86790D01*
X154652Y86790D01*
X154494Y87173D01*
X154335Y87555D01*
X154335Y87555D01*
X152822Y89068D01*
Y95596D01*
X153238Y95874D01*
X153398Y95808D01*
X154776Y96378D01*
X154788Y96407D01*
X155288D01*
X155299Y96378D01*
D02*
G37*
G36*
X271693Y123701D02*
X272564Y123341D01*
Y122841D01*
X271693Y122480D01*
X271375Y121712D01*
X269730D01*
X269730Y121712D01*
X269189Y121488D01*
X268965Y121395D01*
X268965Y121395D01*
X252752Y105182D01*
X237506D01*
X237056Y105633D01*
X237247Y106095D01*
X237375Y106148D01*
X237689Y106018D01*
X250053D01*
X250053Y106018D01*
X250818Y106335D01*
X268974Y124491D01*
X271366D01*
X271693Y123701D01*
D02*
G37*
G36*
X148482Y96378D02*
X149859Y95808D01*
X150242Y95966D01*
X150658Y95688D01*
Y88620D01*
X150658Y88620D01*
X150975Y87855D01*
X152488Y86342D01*
Y85133D01*
X151997Y85036D01*
X151628Y85928D01*
X150250Y86498D01*
X149459Y86171D01*
X149085Y86325D01*
X149085Y86325D01*
X149085Y86325D01*
D01*
X139930Y95481D01*
X140028Y95971D01*
X141010Y96378D01*
X141087Y96564D01*
X141587D01*
X141664Y96378D01*
X143042Y95808D01*
X144419Y96378D01*
X144496Y96564D01*
X144996D01*
X145073Y96378D01*
X145819Y96069D01*
Y95569D01*
X145090Y95267D01*
X144520Y93890D01*
X145090Y92512D01*
X146468Y91941D01*
X147846Y92512D01*
X148416Y93890D01*
X147846Y95267D01*
X147100Y95577D01*
Y96077D01*
X147828Y96378D01*
X147905Y96564D01*
X148405D01*
X148482Y96378D01*
D02*
G37*
G36*
X271693Y138701D02*
X272564Y138341D01*
Y137841D01*
X271693Y137480D01*
X271352Y136656D01*
X266232D01*
X266232Y136656D01*
X265691Y136431D01*
X265467Y136339D01*
X265467Y136339D01*
X242961Y113832D01*
X237988D01*
X237671Y114219D01*
X237710Y114418D01*
X240012D01*
X240012Y114418D01*
X240777Y114735D01*
X265533Y139491D01*
X271366D01*
X271693Y138701D01*
D02*
G37*
G36*
X162522Y104036D02*
X162725Y104120D01*
X163141Y103842D01*
Y85976D01*
X163141Y85976D01*
X163458Y85211D01*
X163086Y84839D01*
X162676Y85009D01*
X162119Y84779D01*
X161658Y84970D01*
X161467Y85430D01*
X162034Y86800D01*
X161467Y88169D01*
X162034Y89539D01*
X161467Y90908D01*
X162034Y92278D01*
X161467Y93647D01*
X162034Y95017D01*
X161467Y96386D01*
X162034Y97756D01*
X161463Y99134D01*
X160086Y99704D01*
X158708Y99134D01*
X158631Y98948D01*
X158131D01*
X158055Y99134D01*
X156677Y99704D01*
X155299Y99134D01*
X155288Y99105D01*
X154788D01*
X154776Y99134D01*
X153398Y99704D01*
X153238Y99638D01*
X152822Y99916D01*
Y103780D01*
X152822Y103780D01*
X152758Y103935D01*
X153112Y104289D01*
X153722Y104036D01*
X155100Y104607D01*
X155100Y104607D01*
X155344D01*
Y104607D01*
X156722Y104036D01*
X158100Y104607D01*
X158100Y104607D01*
X158344D01*
Y104607D01*
X159722Y104036D01*
X161100Y104607D01*
Y104607D01*
X161144Y104607D01*
Y104607D01*
Y104607D01*
D01*
D01*
D01*
X162522Y104036D01*
D02*
G37*
%LPC*%
G36*
X192316Y32111D02*
X190938Y31540D01*
X190367Y30162D01*
X190938Y28785D01*
X192316Y28214D01*
X193693Y28785D01*
X194264Y30162D01*
X193693Y31540D01*
X192316Y32111D01*
D02*
G37*
G36*
X134122Y22242D02*
X132438Y21544D01*
X132015Y20521D01*
X130945Y20078D01*
X130558Y19143D01*
X129400Y19623D01*
X127793Y18957D01*
X127127Y17350D01*
X127793Y15743D01*
X129400Y15077D01*
X130582Y15567D01*
X131142Y15335D01*
X131142Y15335D01*
X131142Y15335D01*
X131328Y15258D01*
X131366Y15166D01*
X133050Y14469D01*
X134734Y15166D01*
X135431Y16850D01*
X135152Y17524D01*
X135344Y17985D01*
X135806Y18177D01*
X136503Y19861D01*
X135806Y21544D01*
X134122Y22242D01*
D02*
G37*
G36*
X15232Y174466D02*
X13854Y173896D01*
X13283Y172518D01*
X13854Y171140D01*
X15232Y170570D01*
X16609Y171140D01*
X17180Y172518D01*
X16609Y173896D01*
X15232Y174466D01*
D02*
G37*
G36*
X76181Y145140D02*
X74509Y144447D01*
X73817Y142775D01*
X74509Y141104D01*
X76181Y140411D01*
X77853Y141104D01*
X78545Y142775D01*
X77853Y144447D01*
X76181Y145140D01*
D02*
G37*
G36*
X16417Y113720D02*
X15040Y113149D01*
X14469Y111772D01*
X15040Y110394D01*
X16417Y109823D01*
X17795Y110394D01*
X18366Y111772D01*
X17795Y113149D01*
X16417Y113720D01*
D02*
G37*
G36*
X204882Y30137D02*
X203504Y29567D01*
X202934Y28189D01*
X203504Y26811D01*
X204567Y26371D01*
Y25871D01*
X204021Y25645D01*
D01*
Y25645D01*
X203839D01*
Y25645D01*
X202462Y26215D01*
X201084Y25645D01*
X200514Y24267D01*
X201084Y22889D01*
X202462Y22319D01*
X203839Y22889D01*
X203839Y22889D01*
X204021D01*
Y22889D01*
X205398Y22319D01*
X205854Y22508D01*
X206316Y22316D01*
X206622Y21578D01*
X208000Y21007D01*
X209378Y21578D01*
X209948Y22956D01*
X209419Y24232D01*
X209963Y25546D01*
X209393Y26923D01*
X208015Y27494D01*
X206841Y27008D01*
X206487Y27361D01*
X206830Y28189D01*
X206259Y29567D01*
X204882Y30137D01*
D02*
G37*
G36*
X76181Y113152D02*
X74509Y112459D01*
X73817Y110787D01*
X74509Y109116D01*
X76181Y108423D01*
X77853Y109116D01*
X78545Y110787D01*
X77853Y112459D01*
X76181Y113152D01*
D02*
G37*
G36*
X70550Y120328D02*
X69172Y119758D01*
X68602Y118380D01*
X69172Y117002D01*
X69655Y116802D01*
Y116302D01*
X69112Y116078D01*
X68542Y114700D01*
X69112Y113322D01*
X69698Y113080D01*
Y112580D01*
X68462Y112068D01*
X67892Y110690D01*
X68462Y109312D01*
X69840Y108742D01*
X71218Y109312D01*
X71788Y110690D01*
X71218Y112068D01*
X70632Y112310D01*
Y112810D01*
X71868Y113322D01*
X72438Y114700D01*
X71868Y116078D01*
X71385Y116278D01*
Y116778D01*
X71928Y117002D01*
X72498Y118380D01*
X71928Y119758D01*
X70550Y120328D01*
D02*
G37*
G36*
X213268Y36240D02*
X211890Y35669D01*
X211319Y34291D01*
X211890Y32914D01*
X213268Y32343D01*
X214645Y32914D01*
X215216Y34291D01*
X214645Y35669D01*
X213268Y36240D01*
D02*
G37*
G36*
X95944Y110242D02*
X94272Y109550D01*
X93580Y107878D01*
X94272Y106207D01*
X95432Y105726D01*
Y105226D01*
X94272Y104745D01*
X93580Y103074D01*
X94272Y101402D01*
X95432Y100921D01*
Y100421D01*
X94272Y99941D01*
X93580Y98269D01*
X94272Y96597D01*
X95944Y95905D01*
X97616Y96597D01*
X98308Y98269D01*
X97616Y99941D01*
X96456Y100421D01*
Y100921D01*
X97616Y101402D01*
X98308Y103074D01*
X97616Y104745D01*
X96456Y105226D01*
Y105726D01*
X97616Y106207D01*
X98308Y107878D01*
X97616Y109550D01*
X95944Y110242D01*
D02*
G37*
G36*
X83823D02*
X82151Y109550D01*
X81459Y107878D01*
X82151Y106207D01*
X83311Y105726D01*
Y105226D01*
X82151Y104745D01*
X81459Y103074D01*
X82151Y101402D01*
X83311Y100921D01*
Y100421D01*
X82151Y99941D01*
X81459Y98269D01*
X82151Y96597D01*
X83823Y95905D01*
X85495Y96597D01*
X86187Y98269D01*
X85495Y99941D01*
X84334Y100421D01*
Y100921D01*
X85495Y101402D01*
X86187Y103074D01*
X85495Y104745D01*
X84334Y105226D01*
Y105726D01*
X85495Y106207D01*
X86187Y107878D01*
X85495Y109550D01*
X83823Y110242D01*
D02*
G37*
G36*
X124567Y166240D02*
X123189Y165669D01*
X122619Y164291D01*
X123189Y162914D01*
X124567Y162343D01*
X125945Y162914D01*
X126515Y164291D01*
X125945Y165669D01*
X124567Y166240D01*
D02*
G37*
G36*
X89016Y38799D02*
X87638Y38228D01*
X87067Y36850D01*
X87638Y35473D01*
X89016Y34902D01*
X90377Y35466D01*
X90945Y34095D01*
X92323Y33524D01*
X93700Y34095D01*
X94271Y35472D01*
X93700Y36850D01*
X92323Y37421D01*
X90961Y36857D01*
X90393Y38228D01*
X89016Y38799D01*
D02*
G37*
G36*
X188654Y34788D02*
X187277Y34217D01*
X186706Y32839D01*
X187277Y31462D01*
X188654Y30891D01*
X190032Y31462D01*
X190603Y32839D01*
X190032Y34217D01*
X188654Y34788D01*
D02*
G37*
G36*
X68300Y145558D02*
X66922Y144988D01*
X66352Y143610D01*
X66922Y142232D01*
X68300Y141662D01*
X69678Y142232D01*
X70248Y143610D01*
X69678Y144988D01*
X68300Y145558D01*
D02*
G37*
G36*
X183536Y34630D02*
X182159Y34060D01*
X181588Y32682D01*
X181641Y32553D01*
X181450Y32092D01*
X180308Y31619D01*
X179737Y30241D01*
X180308Y28863D01*
X181686Y28293D01*
X183063Y28863D01*
X183634Y30241D01*
X183581Y30369D01*
X183772Y30831D01*
X184914Y31304D01*
X185485Y32682D01*
X184914Y34060D01*
X183536Y34630D01*
D02*
G37*
G36*
X110315Y146437D02*
X108937Y145866D01*
X108367Y144488D01*
X108937Y143111D01*
X110315Y142540D01*
X111693Y143111D01*
X112263Y144488D01*
X111693Y145866D01*
X110315Y146437D01*
D02*
G37*
G36*
X84023Y158288D02*
X82351Y157596D01*
X81659Y155924D01*
X82351Y154252D01*
X83511Y153771D01*
Y153271D01*
X82351Y152791D01*
X81659Y151119D01*
X82351Y149447D01*
X83511Y148967D01*
Y148467D01*
X82351Y147986D01*
X81659Y146315D01*
X82351Y144643D01*
X84023Y143950D01*
X85695Y144643D01*
X86387Y146315D01*
X85695Y147986D01*
X84535Y148467D01*
Y148967D01*
X85695Y149447D01*
X86387Y151119D01*
X85695Y152791D01*
X84535Y153271D01*
Y153771D01*
X85695Y154252D01*
X86387Y155924D01*
X85695Y157596D01*
X84023Y158288D01*
D02*
G37*
G36*
X100820Y145578D02*
X99442Y145008D01*
X98872Y143630D01*
X98872Y143630D01*
X98872D01*
X98353Y143415D01*
X97244Y143874D01*
X95572Y143182D01*
X94880Y141510D01*
X95572Y139838D01*
X96732Y139358D01*
Y138858D01*
X95572Y138377D01*
X94880Y136706D01*
X95572Y135034D01*
X96732Y134553D01*
Y134053D01*
X95572Y133573D01*
X94880Y131901D01*
X95572Y130229D01*
X96732Y129749D01*
Y129249D01*
X95572Y128768D01*
X94880Y127096D01*
X95572Y125425D01*
X96732Y124944D01*
Y124444D01*
X95572Y123964D01*
X94880Y122292D01*
X95572Y120620D01*
X96732Y120140D01*
Y119640D01*
X95572Y119159D01*
X94880Y117487D01*
X95572Y115816D01*
X96732Y115335D01*
Y114835D01*
X95572Y114355D01*
X94880Y112683D01*
X95572Y111011D01*
X97244Y110319D01*
X98916Y111011D01*
X99608Y112683D01*
X98916Y114355D01*
X97756Y114835D01*
Y115335D01*
X98916Y115816D01*
X99608Y117487D01*
X98916Y119159D01*
X97756Y119640D01*
Y120140D01*
X98916Y120620D01*
X99608Y122292D01*
X98916Y123964D01*
X97756Y124444D01*
Y124944D01*
X98916Y125425D01*
X99608Y127096D01*
X98916Y128768D01*
X97756Y129249D01*
Y129749D01*
X98916Y130229D01*
X99608Y131901D01*
X98916Y133573D01*
X97756Y134053D01*
Y134553D01*
X98916Y135034D01*
X99608Y136706D01*
X98916Y138377D01*
X97756Y138858D01*
Y139358D01*
X98916Y139838D01*
X99608Y141510D01*
X99522Y141719D01*
X99875Y142073D01*
X100820Y141682D01*
X102094Y142209D01*
X102556Y142018D01*
X102935Y141104D01*
X104606Y140411D01*
X106278Y141104D01*
X106971Y142775D01*
X106278Y144447D01*
X104606Y145140D01*
X102935Y144447D01*
X102932Y144442D01*
X102432D01*
X102198Y145008D01*
X100820Y145578D01*
D02*
G37*
G36*
X245478Y143138D02*
X244100Y142567D01*
X243530Y141189D01*
X244100Y139812D01*
X245478Y139241D01*
X246856Y139812D01*
X247426Y141189D01*
X246856Y142567D01*
X245478Y143138D01*
D02*
G37*
G36*
X114690Y130488D02*
X113312Y129918D01*
X112742Y128540D01*
X113312Y127162D01*
X114690Y126592D01*
X116068Y127162D01*
X116638Y128540D01*
X116068Y129918D01*
X114690Y130488D01*
D02*
G37*
G36*
X76181Y132344D02*
X74509Y131652D01*
X73817Y129980D01*
X74509Y128308D01*
X76181Y127616D01*
X77853Y128308D01*
X78545Y129980D01*
X77853Y131652D01*
X76181Y132344D01*
D02*
G37*
G36*
X70320Y130538D02*
X68942Y129968D01*
X68372Y128590D01*
X68942Y127212D01*
X69165Y127120D01*
Y126620D01*
X68942Y126528D01*
X68372Y125150D01*
X68942Y123772D01*
X70320Y123202D01*
X71698Y123772D01*
X72268Y125150D01*
X71698Y126528D01*
X71475Y126620D01*
Y127120D01*
X71698Y127212D01*
X72268Y128590D01*
X71698Y129968D01*
X70320Y130538D01*
D02*
G37*
G36*
X16102Y128051D02*
X14725Y127480D01*
X14154Y126102D01*
X14725Y124725D01*
X16102Y124154D01*
X17480Y124725D01*
X18051Y126102D01*
X17480Y127480D01*
X16102Y128051D01*
D02*
G37*
G36*
X104606Y132344D02*
X102935Y131652D01*
X102242Y129980D01*
X102935Y128308D01*
X104606Y127616D01*
X106278Y128308D01*
X106283Y128322D01*
X106722Y128140D01*
X107292Y126762D01*
Y126762D01*
D01*
Y126723D01*
X107232Y126698D01*
X106662Y125320D01*
X106662Y125320D01*
X106662D01*
X106391Y125208D01*
X106278Y125254D01*
X106278Y125254D01*
X104606Y125947D01*
X102935Y125254D01*
X102242Y123583D01*
X102935Y121911D01*
X104606Y121218D01*
X106278Y121911D01*
X106971Y123583D01*
X107536Y123817D01*
X108610Y123372D01*
X109988Y123942D01*
X110558Y125320D01*
X109988Y126698D01*
Y126698D01*
D01*
Y126737D01*
X110048Y126762D01*
X110618Y128140D01*
X110048Y129518D01*
X108670Y130088D01*
X107292Y129518D01*
X106854Y129699D01*
X106971Y129980D01*
X106278Y131652D01*
X104606Y132344D01*
D02*
G37*
G36*
X16417Y136436D02*
X15040Y135866D01*
X14469Y134488D01*
X15040Y133110D01*
X16417Y132540D01*
X17795Y133110D01*
X18366Y134488D01*
X17795Y135866D01*
X16417Y136436D01*
D02*
G37*
G36*
X76181Y138742D02*
X74509Y138050D01*
X73817Y136378D01*
X74509Y134706D01*
X76181Y134014D01*
X77853Y134706D01*
X78545Y136378D01*
X77853Y138050D01*
X76181Y138742D01*
D02*
G37*
G36*
X70260Y140878D02*
X68882Y140308D01*
X68312Y138930D01*
X68882Y137552D01*
X68942Y137528D01*
Y137038D01*
X68942Y137038D01*
X68942D01*
X68372Y135660D01*
X68942Y134282D01*
X70320Y133712D01*
X71698Y134282D01*
X72268Y135660D01*
X71698Y137038D01*
X71638Y137063D01*
Y137552D01*
X71638Y137552D01*
X71638D01*
X72208Y138930D01*
X71638Y140308D01*
X70260Y140878D01*
D02*
G37*
G36*
X108780Y140708D02*
X107402Y140138D01*
X106832Y138760D01*
X107402Y137382D01*
X107462Y137357D01*
Y137318D01*
X107462Y137318D01*
X107462D01*
X107272Y136858D01*
X106772D01*
X106278Y138050D01*
X104606Y138742D01*
X102935Y138050D01*
X102242Y136378D01*
X102935Y134706D01*
X104606Y134014D01*
X106278Y134706D01*
X106590Y135460D01*
X107090D01*
X107462Y134562D01*
X108840Y133992D01*
X110218Y134562D01*
X110788Y135940D01*
X110218Y137318D01*
X110158Y137343D01*
Y137382D01*
X110158Y137382D01*
X110158D01*
X110728Y138760D01*
X110158Y140138D01*
X108780Y140708D01*
D02*
G37*
G36*
X119570Y132148D02*
X118192Y131578D01*
X117622Y130200D01*
X118192Y128822D01*
X119570Y128252D01*
X120948Y128822D01*
X121518Y130200D01*
X120948Y131578D01*
X119570Y132148D01*
D02*
G37*
G36*
X119170Y140588D02*
X117792Y140018D01*
X117222Y138640D01*
X117792Y137262D01*
X119170Y136692D01*
X120548Y137262D01*
X121118Y138640D01*
X120548Y140018D01*
X119170Y140588D01*
D02*
G37*
G36*
X124055Y119547D02*
X122678Y118976D01*
X122107Y117598D01*
X122678Y116221D01*
X124055Y115650D01*
X125433Y116221D01*
X126003Y117598D01*
X125433Y118976D01*
X124055Y119547D01*
D02*
G37*
G36*
X115905Y120137D02*
X114528Y119567D01*
X113957Y118189D01*
X114528Y116811D01*
X115905Y116241D01*
X117283Y116811D01*
X117854Y118189D01*
X117283Y119567D01*
X115905Y120137D01*
D02*
G37*
G36*
X152756Y121082D02*
X151378Y120511D01*
X150808Y119134D01*
X151378Y117756D01*
X152756Y117185D01*
X154134Y117756D01*
X154704Y119134D01*
X154134Y120511D01*
X152756Y121082D01*
D02*
G37*
G36*
X82323Y143874D02*
X80651Y143182D01*
X79959Y141510D01*
X80651Y139838D01*
X81811Y139358D01*
Y138858D01*
X80651Y138377D01*
X79959Y136706D01*
X80651Y135034D01*
X81811Y134553D01*
Y134053D01*
X80651Y133573D01*
X79959Y131901D01*
X80651Y130229D01*
X81811Y129749D01*
Y129249D01*
X80651Y128768D01*
X79959Y127096D01*
X80651Y125425D01*
X81811Y124944D01*
Y124444D01*
X80651Y123964D01*
X79959Y122292D01*
X80651Y120620D01*
X81811Y120140D01*
Y119640D01*
X80651Y119159D01*
X79959Y117487D01*
X80651Y115816D01*
X81811Y115335D01*
Y114835D01*
X80651Y114355D01*
X79959Y112683D01*
X80651Y111011D01*
X82323Y110319D01*
X83995Y111011D01*
X84687Y112683D01*
X83995Y114355D01*
X82835Y114835D01*
Y115335D01*
X83995Y115816D01*
X84687Y117487D01*
X83995Y119159D01*
X82835Y119640D01*
Y120140D01*
X83995Y120620D01*
X84687Y122292D01*
X83995Y123964D01*
X82835Y124444D01*
Y124944D01*
X83995Y125425D01*
X84687Y127096D01*
X83995Y128768D01*
X82835Y129249D01*
Y129749D01*
X83995Y130229D01*
X84687Y131901D01*
X83995Y133573D01*
X82835Y134053D01*
Y134553D01*
X83995Y135034D01*
X84687Y136706D01*
X83995Y138377D01*
X82835Y138858D01*
Y139358D01*
X83995Y139838D01*
X84687Y141510D01*
X83995Y143182D01*
X82323Y143874D01*
D02*
G37*
G36*
X117300Y114348D02*
X115922Y113778D01*
X115352Y112400D01*
X115922Y111022D01*
X117300Y110452D01*
X118678Y111022D01*
X119248Y112400D01*
X118678Y113778D01*
X117300Y114348D01*
D02*
G37*
G36*
X76181Y119549D02*
X74509Y118857D01*
X73817Y117185D01*
X74509Y115513D01*
X76181Y114821D01*
X77853Y115513D01*
X78545Y117185D01*
X77853Y118857D01*
X76181Y119549D01*
D02*
G37*
G36*
X121070Y124688D02*
X119692Y124118D01*
X119122Y122740D01*
X119692Y121362D01*
X121070Y120792D01*
X122448Y121362D01*
X123018Y122740D01*
X122448Y124118D01*
X121070Y124688D01*
D02*
G37*
G36*
X76181Y125947D02*
X74509Y125254D01*
X73817Y123583D01*
X74509Y121911D01*
X76181Y121218D01*
X77853Y121911D01*
X78545Y123583D01*
X77853Y125254D01*
X76181Y125947D01*
D02*
G37*
G36*
X114290Y143288D02*
X112912Y142718D01*
X112342Y141340D01*
X112912Y139962D01*
X114290Y139392D01*
X115668Y139962D01*
X116238Y141340D01*
X115668Y142718D01*
X114290Y143288D01*
D02*
G37*
G36*
X108950Y120148D02*
X107572Y119578D01*
X107026Y118258D01*
X106526D01*
X106278Y118857D01*
X104606Y119549D01*
X102935Y118857D01*
X102242Y117185D01*
X102935Y115513D01*
X104606Y114821D01*
X106278Y115513D01*
X106946Y117127D01*
X107446Y117127D01*
X107572Y116822D01*
X107813Y116723D01*
Y116223D01*
X107752Y116198D01*
X107182Y114820D01*
X107752Y113442D01*
X108369Y113187D01*
Y112687D01*
X107452Y112308D01*
X107147Y111569D01*
X106647D01*
X106278Y112459D01*
X104606Y113152D01*
X102935Y112459D01*
X102242Y110787D01*
X102935Y109116D01*
X104606Y108423D01*
X106278Y109116D01*
X106706Y110148D01*
X107206D01*
X107452Y109552D01*
X108830Y108982D01*
X108952Y109032D01*
X109414Y108841D01*
X109802Y107902D01*
X111180Y107332D01*
X112558Y107902D01*
X113128Y109280D01*
X112558Y110658D01*
X111180Y111228D01*
X110732Y111043D01*
X110208Y112308D01*
X109592Y112563D01*
Y113063D01*
X110508Y113442D01*
X111078Y114820D01*
X110508Y116198D01*
X110267Y116297D01*
Y116797D01*
X110328Y116822D01*
X110898Y118200D01*
X110328Y119578D01*
X108950Y120148D01*
D02*
G37*
G36*
X156535Y124586D02*
X155158Y124015D01*
X154587Y122638D01*
X155158Y121260D01*
X156535Y120689D01*
X157913Y121260D01*
X158484Y122638D01*
X157913Y124015D01*
X156535Y124586D01*
D02*
G37*
G36*
X145922Y126013D02*
X144047Y125236D01*
X143270Y123361D01*
X144047Y121485D01*
X145922Y120709D01*
X147797Y121485D01*
X148574Y123361D01*
X147797Y125236D01*
X145922Y126013D01*
D02*
G37*
G36*
X119631Y149652D02*
X118253Y149082D01*
X117781Y147941D01*
D01*
X117281D01*
D01*
X116808Y149082D01*
X115431Y149652D01*
X114053Y149082D01*
X113482Y147704D01*
X114053Y146326D01*
X115431Y145756D01*
X116808Y146326D01*
X117281Y147467D01*
D01*
X117781D01*
D01*
X118253Y146326D01*
X119631Y145756D01*
X121008Y146326D01*
X121579Y147704D01*
X121008Y149082D01*
X119631Y149652D01*
D02*
G37*
G36*
X102340Y95358D02*
X100962Y94788D01*
X100392Y93410D01*
X100744Y92560D01*
X100602Y92218D01*
X100602Y92218D01*
X100602Y92218D01*
X100032Y90840D01*
X100602Y89462D01*
X101980Y88892D01*
X103358Y89462D01*
X103928Y90840D01*
X103576Y91690D01*
X103718Y92032D01*
X103718Y92032D01*
X103718Y92032D01*
X104288Y93410D01*
X103718Y94788D01*
X102340Y95358D01*
D02*
G37*
G36*
X102422Y59324D02*
X102422Y59324D01*
D01*
X99972Y58310D01*
X97522Y59324D01*
D01*
X97522Y59324D01*
X97522Y59324D01*
X95073Y58310D01*
X94058Y55861D01*
X94949Y53711D01*
X94058Y51561D01*
X94949Y49411D01*
X94058Y47261D01*
X95073Y44811D01*
X97522Y43797D01*
X97522Y43797D01*
X97522Y43797D01*
D01*
X99972Y44811D01*
X102422Y43797D01*
D01*
X102422Y43797D01*
X102422Y43797D01*
X104871Y44811D01*
X105886Y47261D01*
X104995Y49411D01*
X105886Y51561D01*
X104995Y53711D01*
X105886Y55861D01*
X104871Y58310D01*
X102422Y59324D01*
X102422Y59324D01*
D02*
G37*
G36*
X70630Y94324D02*
X69252Y93753D01*
X68682Y92375D01*
X69252Y90998D01*
X69394Y90939D01*
Y90439D01*
X69252Y90380D01*
X68682Y89003D01*
X69252Y87625D01*
X69394Y87566D01*
Y87066D01*
X69252Y87008D01*
X68879Y86106D01*
X68379D01*
X68071Y86850D01*
X66693Y87421D01*
X65315Y86850D01*
X64745Y85472D01*
X65315Y84095D01*
X66693Y83524D01*
X68071Y84095D01*
X68444Y84996D01*
X68944D01*
X69252Y84252D01*
X70539Y83719D01*
X70731Y83257D01*
X70474Y82637D01*
X70000Y82441D01*
D01*
D01*
X68622Y83011D01*
X67244Y82441D01*
X66674Y81063D01*
X67244Y79685D01*
X68622Y79115D01*
X70000Y79685D01*
X70468Y80816D01*
X70942Y81012D01*
X72320Y80442D01*
X73698Y81012D01*
X73905Y81514D01*
X74390Y81417D01*
X74390Y81417D01*
Y81417D01*
X74390Y81417D01*
X74961Y80040D01*
X76339Y79469D01*
X77716Y80040D01*
X78096Y80958D01*
X78597D01*
X78977Y80040D01*
X80354Y79469D01*
X81732Y80040D01*
X82132Y81005D01*
X82632D01*
X83032Y80040D01*
X84409Y79469D01*
X85787Y80040D01*
X86358Y81417D01*
X85787Y82795D01*
X84409Y83366D01*
X83032Y82795D01*
X82632Y81830D01*
X82132D01*
X81732Y82795D01*
X80354Y83366D01*
X78977Y82795D01*
X78597Y81877D01*
X78096D01*
X77716Y82795D01*
X76339Y83366D01*
X74961Y82795D01*
X74716Y82204D01*
X74268Y82390D01*
X73698Y83768D01*
X72410Y84301D01*
X72219Y84763D01*
X72578Y85630D01*
X72008Y87008D01*
X71866Y87066D01*
Y87566D01*
X72008Y87625D01*
X72578Y89003D01*
X72008Y90380D01*
X71866Y90439D01*
Y90939D01*
X72008Y90998D01*
X72578Y92375D01*
X72008Y93753D01*
X70630Y94324D01*
D02*
G37*
G36*
X97244Y95829D02*
X95572Y95136D01*
X94880Y93465D01*
X95367Y92289D01*
X95175Y91827D01*
X93918Y91306D01*
X93225Y89635D01*
X93918Y87963D01*
X95589Y87270D01*
X97261Y87963D01*
X97954Y89635D01*
X97467Y90810D01*
X97658Y91272D01*
X98916Y91793D01*
X99608Y93465D01*
X98916Y95136D01*
X97244Y95829D01*
D02*
G37*
G36*
X106471Y91240D02*
X105094Y90669D01*
X104523Y89291D01*
X105094Y87914D01*
X106471Y87343D01*
X107849Y87914D01*
X108420Y89291D01*
X107849Y90669D01*
X106471Y91240D01*
D02*
G37*
G36*
X115118Y61397D02*
X113741Y60826D01*
X113170Y59449D01*
X113741Y58071D01*
X115118Y57500D01*
X116496Y58071D01*
X117066Y59449D01*
X116496Y60826D01*
X115118Y61397D01*
D02*
G37*
G36*
X87122Y56309D02*
X85744Y55738D01*
X85174Y54361D01*
X85744Y52983D01*
X87122Y52412D01*
X88500Y52983D01*
X89070Y54361D01*
X88500Y55738D01*
X87122Y56309D01*
D02*
G37*
G36*
X250478Y148138D02*
X249100Y147567D01*
X248530Y146189D01*
X249100Y144812D01*
X250478Y144241D01*
X251856Y144812D01*
X252426Y146189D01*
X251856Y147567D01*
X250478Y148138D01*
D02*
G37*
G36*
X89685Y164707D02*
X88013Y164014D01*
X87321Y162342D01*
X88013Y160671D01*
X88364Y160526D01*
Y160026D01*
X88013Y159880D01*
X87321Y158209D01*
X88013Y156537D01*
X88364Y156392D01*
Y155892D01*
X88013Y155746D01*
X87321Y154075D01*
X88013Y152403D01*
X88364Y152258D01*
Y151758D01*
X88013Y151613D01*
X87321Y149941D01*
X88013Y148269D01*
X88364Y148124D01*
Y147624D01*
X88013Y147479D01*
X87321Y145807D01*
X88013Y144135D01*
X88364Y143990D01*
Y143490D01*
X88013Y143345D01*
X87321Y141673D01*
X88013Y140001D01*
X88364Y139856D01*
Y139356D01*
X88013Y139211D01*
X87321Y137539D01*
X88013Y135868D01*
X88364Y135722D01*
Y135222D01*
X88013Y135077D01*
X87321Y133405D01*
X88013Y131734D01*
X88364Y131588D01*
Y131088D01*
X88013Y130943D01*
X87321Y129272D01*
X88013Y127600D01*
X88364Y127455D01*
Y126955D01*
X88013Y126810D01*
X87321Y125138D01*
X88013Y123466D01*
X88364Y123321D01*
Y122821D01*
X88013Y122676D01*
X87321Y121004D01*
X88013Y119332D01*
X88364Y119187D01*
Y118687D01*
X88013Y118542D01*
X87321Y116870D01*
X88013Y115198D01*
X88364Y115053D01*
Y114553D01*
X88013Y114408D01*
X87321Y112736D01*
X88013Y111064D01*
X88364Y110919D01*
Y110419D01*
X88013Y110274D01*
X87321Y108602D01*
X88013Y106931D01*
X88364Y106785D01*
Y106285D01*
X88013Y106140D01*
X87321Y104469D01*
X88013Y102797D01*
X88364Y102652D01*
Y102152D01*
X88013Y102006D01*
X87321Y100335D01*
X88013Y98663D01*
X88364Y98518D01*
Y98018D01*
X88013Y97873D01*
X87321Y96201D01*
X88013Y94529D01*
X89685Y93837D01*
X91357Y94529D01*
X92049Y96201D01*
X91357Y97873D01*
X91006Y98018D01*
Y98518D01*
X91357Y98663D01*
X92049Y100335D01*
X91357Y102006D01*
X91006Y102152D01*
Y102652D01*
X91357Y102797D01*
X92049Y104469D01*
X91357Y106140D01*
X91006Y106285D01*
Y106785D01*
X91357Y106931D01*
X92049Y108602D01*
X91357Y110274D01*
X91006Y110419D01*
Y110919D01*
X91357Y111064D01*
X92049Y112736D01*
X91357Y114408D01*
X91006Y114553D01*
Y115053D01*
X91357Y115198D01*
X92049Y116870D01*
X91357Y118542D01*
X91006Y118687D01*
Y119187D01*
X91357Y119332D01*
X92049Y121004D01*
X91357Y122676D01*
X91006Y122821D01*
Y123321D01*
X91357Y123466D01*
X92049Y125138D01*
X91357Y126810D01*
X91006Y126955D01*
Y127455D01*
X91357Y127600D01*
X92049Y129272D01*
X91357Y130943D01*
X91006Y131088D01*
Y131588D01*
X91357Y131734D01*
X92049Y133405D01*
X91357Y135077D01*
X91006Y135222D01*
Y135722D01*
X91357Y135868D01*
X92049Y137539D01*
X91357Y139211D01*
X91006Y139356D01*
Y139856D01*
X91357Y140001D01*
X92049Y141673D01*
X91357Y143345D01*
X91006Y143490D01*
Y143990D01*
X91357Y144135D01*
X92049Y145807D01*
X91357Y147479D01*
X91006Y147624D01*
Y148124D01*
X91357Y148269D01*
X92049Y149941D01*
X91357Y151613D01*
X91006Y151758D01*
Y152258D01*
X91357Y152403D01*
X92049Y154075D01*
X91357Y155746D01*
X91006Y155892D01*
Y156392D01*
X91357Y156537D01*
X92049Y158209D01*
X91357Y159880D01*
X91006Y160026D01*
Y160526D01*
X91357Y160671D01*
X92049Y162342D01*
X91357Y164014D01*
X89685Y164707D01*
D02*
G37*
G36*
X18222Y149109D02*
X16844Y148538D01*
X16274Y147161D01*
X16844Y145783D01*
X18222Y145212D01*
X19600Y145783D01*
X20170Y147161D01*
X19600Y148538D01*
X18222Y149109D01*
D02*
G37*
G36*
X82122Y56409D02*
X80744Y55838D01*
X80174Y54461D01*
X80744Y53083D01*
X82122Y52512D01*
X83500Y53083D01*
X84070Y54461D01*
X83500Y55838D01*
X82122Y56409D01*
D02*
G37*
G36*
X240905Y149035D02*
X239528Y148464D01*
X238957Y147087D01*
X239528Y145709D01*
X240905Y145138D01*
X242283Y145709D01*
X242854Y147087D01*
X242283Y148464D01*
X240905Y149035D01*
D02*
G37*
G36*
X108280Y95318D02*
X106902Y94748D01*
X106332Y93370D01*
X106902Y91992D01*
X108280Y91422D01*
X108888Y91674D01*
X109242Y91320D01*
X108760Y90158D01*
X109220Y89047D01*
X108800Y88032D01*
X109370Y86654D01*
X110132Y86338D01*
X110324Y85876D01*
X110074Y85273D01*
X110474Y84306D01*
X109344Y83838D01*
X109053Y83135D01*
X108591Y82943D01*
X107572Y83366D01*
X106194Y82795D01*
X105624Y81417D01*
X106194Y80040D01*
X107572Y79469D01*
X108860Y80002D01*
X109252Y79055D01*
X110630Y78485D01*
D01*
X111083Y78268D01*
D01*
X111083Y78268D01*
X111654Y76890D01*
X113031Y76319D01*
X114409Y76890D01*
X114980Y78268D01*
X114974Y78282D01*
X115327Y78636D01*
X115787Y78445D01*
X117165Y79016D01*
X117497Y79818D01*
X118032Y80040D01*
X119409Y79469D01*
X120787Y80040D01*
X121358Y81417D01*
X120787Y82795D01*
X119409Y83366D01*
X118083Y82816D01*
X117621Y83008D01*
X117153Y84138D01*
X116056Y84592D01*
X116338Y85273D01*
X116200Y85606D01*
X116392Y86068D01*
X117153Y86383D01*
X117723Y87761D01*
X117241Y88924D01*
X117736Y90118D01*
X117165Y91496D01*
X115787Y92066D01*
X115310Y91869D01*
X115178Y92000D01*
X115178Y92000D01*
X115178Y92000D01*
X114608Y93378D01*
X113230Y93948D01*
X111852Y93378D01*
X111282Y92000D01*
X111282Y92000D01*
X111282D01*
X111189Y91907D01*
X110709Y92106D01*
X110100Y91854D01*
X109747Y92207D01*
X110228Y93370D01*
X109658Y94748D01*
X108280Y95318D01*
D02*
G37*
G36*
X95589Y83298D02*
X93918Y82606D01*
X93225Y80934D01*
X93918Y79262D01*
X93918Y79262D01*
X93918D01*
X94015Y79027D01*
X93603Y78031D01*
X94174Y76654D01*
X95551Y76083D01*
X96929Y76654D01*
X97500Y78031D01*
X97126Y78935D01*
X97261Y79262D01*
X97261Y79262D01*
X97261Y79262D01*
X97954Y80934D01*
X97261Y82606D01*
X95589Y83298D01*
D02*
G37*
G36*
X137598Y83366D02*
X136221Y82795D01*
X135650Y81417D01*
X136221Y80040D01*
X136885Y79764D01*
Y79264D01*
X136221Y78989D01*
X135650Y77612D01*
X136221Y76234D01*
X137598Y75663D01*
X138976Y76234D01*
X139547Y77612D01*
X138976Y78989D01*
X138312Y79264D01*
Y79764D01*
X138976Y80040D01*
X139547Y81417D01*
X138976Y82795D01*
X137598Y83366D01*
D02*
G37*
G36*
X68504Y76948D02*
X67126Y76378D01*
X66556Y75000D01*
X67126Y73622D01*
X68504Y73052D01*
X69882Y73622D01*
X70452Y75000D01*
X69882Y76378D01*
X68504Y76948D01*
D02*
G37*
G36*
X33622Y82009D02*
X32244Y81438D01*
X31674Y80061D01*
X32244Y78683D01*
X33622Y78112D01*
X35000Y78683D01*
X35570Y80061D01*
X35000Y81438D01*
X33622Y82009D01*
D02*
G37*
G36*
X102047Y81791D02*
X100670Y81220D01*
X100099Y79843D01*
X100670Y78465D01*
X102047Y77894D01*
X103425Y78465D01*
X103996Y79843D01*
X103425Y81220D01*
X102047Y81791D01*
D02*
G37*
G36*
X89016Y81712D02*
X87638Y81141D01*
X87067Y79764D01*
X87638Y78386D01*
X89016Y77816D01*
X90393Y78386D01*
X90964Y79764D01*
X90393Y81141D01*
X89016Y81712D01*
D02*
G37*
G36*
X188222Y73109D02*
X186844Y72538D01*
X186500Y71706D01*
X185878Y71964D01*
X183429Y70949D01*
X182624Y69006D01*
X182162Y68815D01*
X181535Y69074D01*
X180158Y68504D01*
X179587Y67126D01*
X180158Y65748D01*
X181535Y65178D01*
X182913Y65748D01*
X183038Y66051D01*
X183429Y66051D01*
X183429Y66051D01*
Y66051D01*
X185878Y65036D01*
X188327Y66051D01*
X188435Y66312D01*
X188935D01*
X189574Y64771D01*
X191181Y64105D01*
X192788Y64771D01*
X192950Y65160D01*
X193450D01*
X193951Y63951D01*
X196400Y62936D01*
X198849Y63951D01*
X199864Y66400D01*
X198849Y68849D01*
X196400Y69864D01*
X193951Y68849D01*
X193441Y67618D01*
X192941D01*
X192788Y67985D01*
X191181Y68651D01*
X189640Y68012D01*
X189286Y68366D01*
X189342Y68500D01*
X188926Y69504D01*
X189600Y69783D01*
X190170Y71161D01*
X189600Y72538D01*
X188222Y73109D01*
D02*
G37*
G36*
X105984Y73917D02*
X104607Y73346D01*
X104036Y71969D01*
X104607Y70591D01*
X105984Y70020D01*
X107362Y70591D01*
X107933Y71969D01*
X107362Y73346D01*
X105984Y73917D01*
D02*
G37*
G36*
X132846Y83152D02*
X131468Y82581D01*
D01*
Y82581D01*
X131224D01*
Y82581D01*
X129846Y83152D01*
X128469Y82581D01*
D01*
Y82581D01*
X128224D01*
Y82581D01*
X126846Y83152D01*
X125469Y82581D01*
D01*
Y82581D01*
X125224D01*
Y82581D01*
X123846Y83152D01*
X122468Y82581D01*
X121898Y81203D01*
X122468Y79826D01*
X123846Y79255D01*
X125224Y79826D01*
X125224Y79826D01*
X125469D01*
Y79826D01*
X126846Y79255D01*
X128224Y79826D01*
X128224Y79826D01*
X128469D01*
Y79826D01*
X129846Y79255D01*
X131224Y79826D01*
X131224Y79826D01*
X131468D01*
Y79826D01*
X132846Y79255D01*
X134224Y79826D01*
X134794Y81203D01*
X134224Y82581D01*
X132846Y83152D01*
D02*
G37*
G36*
X163750Y70748D02*
X162372Y70178D01*
X161802Y68800D01*
X162372Y67422D01*
X163750Y66852D01*
X165128Y67422D01*
X165698Y68800D01*
X165128Y70178D01*
X163750Y70748D01*
D02*
G37*
G36*
X117480Y74748D02*
X116102Y74178D01*
X115532Y72800D01*
X116102Y71422D01*
X116743Y71157D01*
Y71049D01*
X116327Y70771D01*
X115197Y71240D01*
X113513Y70542D01*
X112816Y68858D01*
X113513Y67175D01*
X115197Y66477D01*
X116673Y67089D01*
X118150Y66477D01*
X119626Y67089D01*
X121102Y66477D01*
X122579Y67089D01*
X124055Y66477D01*
X125531Y67089D01*
X127008Y66477D01*
X128692Y67175D01*
X129389Y68858D01*
X128692Y70542D01*
X127008Y71240D01*
X125531Y70628D01*
X124055Y71240D01*
X122579Y70628D01*
X121102Y71240D01*
X119626Y70628D01*
X118858Y70946D01*
Y71422D01*
X118858Y71422D01*
X118858D01*
X119428Y72800D01*
X118858Y74178D01*
X117480Y74748D01*
D02*
G37*
G36*
X176811Y72357D02*
X174922Y71574D01*
X174561Y70704D01*
X174061D01*
X173700Y71574D01*
X171811Y72357D01*
X169922Y71574D01*
X169139Y69685D01*
X169922Y67796D01*
X171811Y67013D01*
X173700Y67796D01*
X174061Y68666D01*
X174561D01*
X174922Y67796D01*
X176811Y67013D01*
X178700Y67796D01*
X179483Y69685D01*
X178700Y71574D01*
X176811Y72357D01*
D02*
G37*
G36*
X132087Y73956D02*
X130709Y73386D01*
X130138Y72008D01*
X130709Y70630D01*
X132087Y70060D01*
X133464Y70630D01*
X134035Y72008D01*
X133464Y73386D01*
X132087Y73956D01*
D02*
G37*
G36*
X245478Y148138D02*
X244100Y147567D01*
X243530Y146189D01*
X244100Y144812D01*
X245478Y144241D01*
X246856Y144812D01*
X247426Y146189D01*
X246856Y147567D01*
X245478Y148138D01*
D02*
G37*
G36*
X238222Y44109D02*
X236844Y43538D01*
X236274Y42161D01*
X236844Y40783D01*
X238222Y40212D01*
X239600Y40783D01*
X240170Y42161D01*
X239600Y43538D01*
X238222Y44109D01*
D02*
G37*
G36*
X253150Y44048D02*
X251772Y43478D01*
X251202Y42100D01*
X251772Y40722D01*
X253150Y40152D01*
X254528Y40722D01*
X255098Y42100D01*
X254528Y43478D01*
X253150Y44048D01*
D02*
G37*
G36*
X76600Y162708D02*
X75222Y162138D01*
X74652Y160760D01*
X75222Y159382D01*
X76600Y158812D01*
X77978Y159382D01*
X78548Y160760D01*
X77978Y162138D01*
X76600Y162708D01*
D02*
G37*
G36*
X214921Y44153D02*
X213544Y43582D01*
X212973Y42205D01*
X213544Y40827D01*
X214921Y40256D01*
X216299Y40827D01*
X216870Y42205D01*
X216299Y43582D01*
X214921Y44153D01*
D02*
G37*
G36*
X248222Y44109D02*
X246844Y43538D01*
X246274Y42161D01*
X246844Y40783D01*
X248222Y40212D01*
X249600Y40783D01*
X250170Y42161D01*
X249600Y43538D01*
X248222Y44109D01*
D02*
G37*
G36*
X243222D02*
X241844Y43538D01*
X241274Y42161D01*
X241844Y40783D01*
X243222Y40212D01*
X244600Y40783D01*
X245170Y42161D01*
X244600Y43538D01*
X243222Y44109D01*
D02*
G37*
G36*
X108898Y162854D02*
X107520Y162283D01*
X106949Y160906D01*
X107520Y159528D01*
X108898Y158957D01*
X110275Y159528D01*
X110846Y160906D01*
X110275Y162283D01*
X108898Y162854D01*
D02*
G37*
G36*
X31804Y163809D02*
X30426Y163238D01*
X29856Y161861D01*
X30426Y160483D01*
X31804Y159912D01*
X33182Y160483D01*
X33752Y161861D01*
X33182Y163238D01*
X31804Y163809D01*
D02*
G37*
G36*
X122222Y35524D02*
X122222Y35524D01*
D01*
X119772Y34510D01*
X117322Y35524D01*
D01*
X117322Y35524D01*
X117322Y35524D01*
X114873Y34510D01*
X113858Y32061D01*
X114687Y30061D01*
X113858Y28061D01*
X114833Y25709D01*
X114479Y25355D01*
X114055Y25531D01*
X112678Y24960D01*
X112107Y23583D01*
X112678Y22205D01*
X113143Y22012D01*
Y21512D01*
X112914Y21417D01*
X112343Y20039D01*
X112914Y18662D01*
X113404Y18459D01*
X112934Y17323D01*
X113504Y15945D01*
X114882Y15374D01*
X116260Y15945D01*
X116830Y17323D01*
X116260Y18700D01*
X116096Y18768D01*
X115904Y19230D01*
X116240Y20039D01*
X115669Y21417D01*
X115203Y21610D01*
Y22110D01*
X115433Y22205D01*
X116003Y23583D01*
X115473Y24863D01*
X115827Y25216D01*
X117322Y24597D01*
X117322Y24597D01*
X117322Y24597D01*
D01*
X119772Y25611D01*
X122222Y24597D01*
D01*
X122222Y24597D01*
X122222Y24597D01*
X123333Y25057D01*
X123687Y24704D01*
X123343Y23873D01*
X124009Y22266D01*
X125616Y21600D01*
X127223Y22266D01*
X127889Y23873D01*
X127223Y25480D01*
X125616Y26146D01*
X125347Y26035D01*
X124993Y26388D01*
X125686Y28061D01*
X124857Y30061D01*
X125426Y31434D01*
X125926D01*
X126063Y31103D01*
X127441Y30532D01*
X127443Y30533D01*
X127904Y30341D01*
X128138Y29777D01*
X128288Y29715D01*
X128479Y29253D01*
X128441Y29161D01*
X129138Y27477D01*
X130822Y26779D01*
X132506Y27477D01*
X133203Y29161D01*
X132506Y30845D01*
X132357Y30906D01*
X132165Y31368D01*
X132203Y31461D01*
X131506Y33145D01*
X129822Y33842D01*
X128971Y33490D01*
X128819Y33858D01*
X127441Y34429D01*
X126063Y33858D01*
X125752Y33107D01*
X125252Y33107D01*
X124671Y34510D01*
X122222Y35524D01*
X122222Y35524D01*
D02*
G37*
G36*
X218189Y37972D02*
X216811Y37401D01*
X216241Y36024D01*
X216811Y34646D01*
X218189Y34075D01*
X219567Y34646D01*
X220137Y36024D01*
X219567Y37401D01*
X218189Y37972D01*
D02*
G37*
G36*
X91220Y43287D02*
X89843Y42716D01*
X89272Y41339D01*
X89843Y39961D01*
X91220Y39390D01*
X92598Y39961D01*
X93169Y41339D01*
X92598Y42716D01*
X91220Y43287D01*
D02*
G37*
G36*
X104331Y162933D02*
X102953Y162362D01*
X102382Y160984D01*
X102953Y159607D01*
X104331Y159036D01*
X105708Y159607D01*
X106279Y160984D01*
X105708Y162362D01*
X104331Y162933D01*
D02*
G37*
G36*
X175512Y41673D02*
X174134Y41102D01*
X173564Y39724D01*
X174134Y38347D01*
X175512Y37776D01*
X176890Y38347D01*
X177460Y39724D01*
X176890Y41102D01*
X175512Y41673D01*
D02*
G37*
G36*
X83425Y44901D02*
X82047Y44330D01*
X81477Y42953D01*
X82047Y41575D01*
X83425Y41004D01*
X84803Y41575D01*
X85374Y42953D01*
X84803Y44330D01*
X83425Y44901D01*
D02*
G37*
G36*
X202716Y52539D02*
X201339Y51968D01*
X200768Y50591D01*
X201339Y49213D01*
X202716Y48642D01*
X204094Y49213D01*
X204665Y50591D01*
X204094Y51968D01*
X202716Y52539D01*
D02*
G37*
G36*
X92122Y51309D02*
X90744Y50738D01*
X90174Y49361D01*
X90744Y47983D01*
X92122Y47412D01*
X93500Y47983D01*
X94070Y49361D01*
X93500Y50738D01*
X92122Y51309D01*
D02*
G37*
G36*
X87122D02*
X85744Y50738D01*
X85174Y49361D01*
X85744Y47983D01*
X87122Y47412D01*
X88500Y47983D01*
X89070Y49361D01*
X88500Y50738D01*
X87122Y51309D01*
D02*
G37*
G36*
X82323Y95829D02*
X80651Y95136D01*
X80265Y94203D01*
X79803Y94012D01*
X78701Y94468D01*
X77323Y93897D01*
X76753Y92520D01*
X77323Y91142D01*
D01*
Y91142D01*
Y91142D01*
D01*
X77323Y90669D01*
X77323D01*
X76753Y89291D01*
X77323Y87914D01*
X78701Y87343D01*
X80078Y87914D01*
X80078Y87914D01*
X80237D01*
Y87914D01*
X81614Y87343D01*
X82992Y87914D01*
X83234Y88499D01*
X83734D01*
X83977Y87914D01*
X85354Y87343D01*
X86732Y87914D01*
X87258Y89184D01*
X87758D01*
X87796Y89095D01*
X89173Y88524D01*
X90551Y89095D01*
X91122Y90472D01*
X90551Y91850D01*
X89173Y92421D01*
X87796Y91850D01*
X87269Y90579D01*
X86769D01*
X86732Y90669D01*
X85354Y91240D01*
X83977Y90669D01*
X83734Y90084D01*
X83234D01*
X82992Y90669D01*
X82740Y90773D01*
Y91273D01*
X83995Y91793D01*
X84687Y93465D01*
X83995Y95136D01*
X82323Y95829D01*
D02*
G37*
G36*
X78504Y53090D02*
X77126Y52519D01*
X76556Y51142D01*
X77126Y49764D01*
X78504Y49193D01*
X79882Y49764D01*
X80452Y51142D01*
X79882Y52519D01*
X78504Y53090D01*
D02*
G37*
G36*
X213600Y53048D02*
X212222Y52478D01*
X211652Y51100D01*
X212222Y49722D01*
X213600Y49152D01*
X214978Y49722D01*
X215548Y51100D01*
X214978Y52478D01*
X213600Y53048D01*
D02*
G37*
G36*
X82323Y163093D02*
X80651Y162400D01*
X79959Y160728D01*
X80651Y159056D01*
X82323Y158364D01*
X83995Y159056D01*
X84687Y160728D01*
X83995Y162400D01*
X82323Y163093D01*
D02*
G37*
G36*
X52677Y50573D02*
X51300Y50003D01*
X50729Y48625D01*
X51300Y47247D01*
X51895Y47001D01*
Y46501D01*
X51300Y46254D01*
X50729Y44877D01*
X51300Y43499D01*
D01*
Y43499D01*
Y43499D01*
D01*
X51300Y43106D01*
X51300D01*
X50729Y41728D01*
X51300Y40350D01*
X52677Y39780D01*
X54055Y40350D01*
X54625Y41728D01*
X54055Y43106D01*
D01*
X54055Y43106D01*
Y43499D01*
X54055D01*
X54625Y44877D01*
X54055Y46254D01*
X53460Y46501D01*
Y47001D01*
X54055Y47247D01*
X54625Y48625D01*
X54055Y50003D01*
X52677Y50573D01*
D02*
G37*
G36*
X87550Y46998D02*
X86172Y46428D01*
X85602Y45050D01*
X86172Y43672D01*
X87550Y43102D01*
X88928Y43672D01*
X89498Y45050D01*
X88928Y46428D01*
X87550Y46998D01*
D02*
G37*
G36*
X44532Y165578D02*
X43154Y165008D01*
X42583Y163630D01*
X43154Y162252D01*
X43547Y162090D01*
X42983Y160730D01*
X43554Y159352D01*
X44932Y158782D01*
X46309Y159352D01*
X46880Y160730D01*
X46309Y162108D01*
X45917Y162270D01*
X46480Y163630D01*
X45909Y165008D01*
X44532Y165578D01*
D02*
G37*
G36*
X95444Y158288D02*
X93772Y157596D01*
X93080Y155924D01*
X93772Y154252D01*
X94932Y153771D01*
Y153271D01*
X93772Y152791D01*
X93080Y151119D01*
X93772Y149447D01*
X94932Y148967D01*
Y148467D01*
X93772Y147986D01*
X93080Y146315D01*
X93772Y144643D01*
X95444Y143950D01*
X97116Y144643D01*
X97808Y146315D01*
X97116Y147986D01*
X95956Y148467D01*
Y148967D01*
X97116Y149447D01*
X97808Y151119D01*
X97116Y152791D01*
X95956Y153271D01*
Y153771D01*
X97116Y154252D01*
X97808Y155924D01*
X97116Y157596D01*
X95444Y158288D01*
D02*
G37*
G36*
X97244Y163093D02*
X95572Y162400D01*
X94880Y160728D01*
X95572Y159056D01*
X97244Y158364D01*
X98916Y159056D01*
X99608Y160728D01*
X98916Y162400D01*
X97244Y163093D01*
D02*
G37*
G36*
X78661Y47972D02*
X77284Y47401D01*
X76713Y46024D01*
X77284Y44646D01*
X78661Y44075D01*
X80039Y44646D01*
X80610Y46024D01*
X80039Y47401D01*
X78661Y47972D01*
D02*
G37*
%LPD*%
D84*
X147760Y111320D02*
X149020Y110060D01*
Y106500D02*
Y110060D01*
X168550Y89389D02*
X169780Y90619D01*
X168550Y89389D02*
Y89440D01*
X92430Y16500D02*
X93690Y15240D01*
X76139Y41861D02*
X92430Y25570D01*
Y16500D02*
Y25570D01*
X62630Y50380D02*
X66457Y54207D01*
X62630Y39820D02*
Y50380D01*
Y39820D02*
X63889Y38561D01*
X135360Y95970D02*
X137910D01*
X134450Y96880D02*
X135360Y95970D01*
X134450Y96880D02*
Y99430D01*
X131102Y102778D02*
X134450Y99430D01*
X137910Y95970D02*
X148320Y85560D01*
X128370Y118510D02*
X129134Y119274D01*
X128370Y111512D02*
Y118510D01*
Y111512D02*
X129102Y110780D01*
X129134Y119274D02*
Y169724D01*
X273341Y130450D02*
X273465Y130573D01*
X267256Y130450D02*
X273341D01*
X246950Y110144D02*
X267256Y130450D01*
X184700Y133130D02*
X202397Y150827D01*
X172910Y133130D02*
X184700D01*
X169780Y130000D02*
X172910Y133130D01*
X186680Y146120D02*
X194621Y154061D01*
X171870Y146120D02*
X186680D01*
X163740Y137990D02*
X171870Y146120D01*
X163740Y130560D02*
Y137990D01*
X163212Y130032D02*
X163740Y130560D01*
X163212Y115253D02*
Y130032D01*
X158581Y114561D02*
X162520D01*
X158030Y114010D02*
X158581Y114561D01*
X147620Y114010D02*
X158030D01*
X147600D02*
X147620D01*
X144641Y116969D02*
X147600Y114010D01*
X135830Y116969D02*
X144641D01*
X143622Y113068D02*
Y113861D01*
Y113068D02*
X145370Y111320D01*
X147760D01*
X145046Y107090D02*
X146920Y108964D01*
X138087Y107090D02*
X145046D01*
X136019Y109158D02*
X138087Y107090D01*
X149020Y106500D02*
X151740Y103780D01*
X64161Y68550D02*
X66272Y70661D01*
X45741Y68550D02*
X64161D01*
X41614Y72677D02*
X45741Y68550D01*
X57534Y65290D02*
X58228Y65984D01*
X44238Y65290D02*
X57534D01*
X39606Y69921D02*
X44238Y65290D01*
X16457Y154093D02*
Y163583D01*
Y154093D02*
X22720Y147830D01*
Y135469D02*
Y147830D01*
Y135469D02*
X28728Y129461D01*
X11600Y174474D02*
X17559Y180433D01*
X11600Y105781D02*
Y174474D01*
Y105781D02*
X11722Y105659D01*
X162520Y114561D02*
X163212Y115253D01*
X162490Y108604D02*
Y114531D01*
Y108604D02*
X164224Y106870D01*
Y85976D02*
Y106870D01*
X271447Y145573D02*
X272482Y146607D01*
X263938Y145573D02*
X271447D01*
X282874Y158071D02*
Y165926D01*
X277225Y171575D02*
X282874Y165926D01*
X205433Y171575D02*
X277225D01*
X131539Y112677D02*
X135830Y116969D01*
X319022Y12861D02*
Y138734D01*
X303819Y153937D02*
X319022Y138734D01*
X299252Y153937D02*
X303819D01*
X276378Y185984D02*
X322126Y140236D01*
X337756D01*
X340622Y137370D01*
Y134561D02*
Y137370D01*
X268269Y62561D02*
X273516D01*
X266496Y60787D02*
X268269Y62561D01*
X166195Y60787D02*
X266496D01*
X239528Y54843D02*
X242246Y57561D01*
X130850Y106661D02*
X131102Y106408D01*
X66457Y64061D02*
X70272D01*
X66457Y54207D02*
Y64061D01*
X36496Y67381D02*
X37722D01*
X336299Y107438D02*
Y112402D01*
X323384Y94523D02*
X336299Y107438D01*
X321260Y94523D02*
X323384D01*
X293071Y106535D02*
X304646Y94961D01*
X288740Y106535D02*
X293071D01*
X304646Y91929D02*
Y94961D01*
X195905Y78504D02*
X206849Y67561D01*
X185296Y78504D02*
X195905D01*
X177393Y86407D02*
X185296Y78504D01*
X206849Y67561D02*
X273516D01*
X242246Y57561D02*
X273516D01*
X236535Y121457D02*
Y143110D01*
X236727Y118362D02*
X263938Y145573D01*
X243409Y112750D02*
X266232Y135573D01*
X233898Y118819D02*
X236535Y121457D01*
X233898Y115092D02*
Y118819D01*
Y115092D02*
X234958Y114032D01*
X236663Y108126D02*
X237689Y107100D01*
X269730Y120630D02*
X273583D01*
X253200Y104100D02*
X269730Y120630D01*
X265085Y140573D02*
X273307D01*
X234995Y110094D02*
X246900D01*
X266232Y135573D02*
X273622D01*
X237689Y107100D02*
X250053D01*
X268526Y125573D01*
X235000Y106157D02*
X237058Y104100D01*
X253200D01*
X234958Y114032D02*
X236426Y115500D01*
X240012D01*
X265085Y140573D01*
X63889Y38561D02*
X70472D01*
X69272Y41861D02*
X76139D01*
X37722Y67381D02*
X41100Y64003D01*
X171769Y86407D02*
X177393D01*
X167189Y83011D02*
X171422D01*
X262611Y34350D02*
X268422Y40161D01*
X267922Y111079D02*
X271016Y114173D01*
X268422Y40161D02*
X275822D01*
X280922Y45261D01*
Y72961D01*
X263922Y52561D02*
X273516D01*
X267722Y47561D02*
X273516D01*
X262611Y18005D02*
Y34350D01*
X130472Y112677D02*
X131539D01*
X130433Y112716D02*
X130472Y112677D01*
X73550Y67461D02*
X79154D01*
X79646Y66969D01*
X130433Y112716D02*
Y117244D01*
X132638Y119449D01*
Y125157D01*
X131299Y126496D02*
X132638Y125157D01*
X131299Y126496D02*
Y152441D01*
X132402Y153543D01*
X11722Y75128D02*
Y105659D01*
Y75128D02*
X14173Y72677D01*
X12047Y69921D02*
X39606D01*
X79646Y66969D02*
X98581D01*
X65972Y45061D02*
X73150Y52239D01*
X66272Y70661D02*
X67239D01*
X73150Y64750D01*
Y52239D02*
Y64750D01*
X58228Y65984D02*
X64533D01*
X66457Y64061D01*
X14173Y72677D02*
X41614D01*
X8661Y73307D02*
X12047Y69921D01*
X17756Y184488D02*
X118976D01*
X8661Y175394D02*
X17756Y184488D01*
X8661Y73307D02*
Y175394D01*
X132402Y153543D02*
Y171063D01*
X291722Y154911D02*
Y158561D01*
X290315Y153504D02*
X291722Y154911D01*
X127874Y183780D02*
X212559D01*
X220079Y176260D01*
X17559Y180433D02*
X118425D01*
X129134Y169724D01*
X118976Y184488D02*
X132402Y171063D01*
X132913Y180433D02*
X196575D01*
X125787Y181693D02*
X127874Y183780D01*
X64646Y165512D02*
X70630Y171496D01*
X123976D01*
X60472Y175433D02*
X119528D01*
X52722Y158161D02*
X57711Y163150D01*
X62283D02*
X64646Y165512D01*
X57711Y163150D02*
X62283D01*
X57520Y172480D02*
X60472Y175433D01*
X25354Y172480D02*
X57520D01*
X16457Y163583D02*
X25354Y172480D01*
X28728Y129461D02*
X38222D01*
X220079Y176260D02*
X277008D01*
X287836Y165431D01*
Y155947D02*
Y165431D01*
X287441Y153504D02*
X290315D01*
X196575Y180433D02*
X205433Y171575D01*
X282874Y158071D02*
X287441Y153504D01*
X237313Y112750D02*
X243409D01*
X236626Y112063D02*
X237313Y112750D01*
X268526Y125573D02*
X273516D01*
X279395Y74488D02*
X280922Y72961D01*
X267922Y78574D02*
Y111079D01*
Y78574D02*
X272008Y74488D01*
X279395D01*
X41100Y46210D02*
Y64003D01*
Y46210D02*
X74948Y12362D01*
X257821Y37660D02*
X267722Y47561D01*
X257821Y17671D02*
Y37660D01*
X252066Y7460D02*
X262611Y18005D01*
X250610Y10460D02*
X257821Y17671D01*
X98780Y7460D02*
X252066D01*
X74948Y12362D02*
X93878D01*
X98780Y7460D01*
X100640Y10460D02*
X250610D01*
X93690Y15240D02*
X95860D01*
X100640Y10460D01*
X162640Y54843D02*
X239528D01*
X162679Y49561D02*
X174539D01*
X98581Y66969D02*
X116020Y49530D01*
X162649D01*
X162679Y49561D01*
X148320Y69163D02*
X162640Y54843D01*
X148320Y69163D02*
Y85560D01*
X131102Y102778D02*
Y106408D01*
X174539Y49561D02*
X177640Y46460D01*
X257821D01*
X263922Y52561D01*
X166024Y108976D02*
X169646D01*
X169780Y109110D01*
Y90619D02*
Y109110D01*
X164224Y85976D02*
X167189Y83011D01*
X202397Y150827D02*
X228819D01*
X236535Y143110D01*
X265028Y154061D02*
X272482Y146607D01*
X194621Y154061D02*
X265028D01*
X169780Y109110D02*
Y130000D01*
X151740Y88620D02*
Y103780D01*
Y88620D02*
X153570Y86790D01*
Y73413D02*
Y86790D01*
Y73413D02*
X166195Y60787D01*
X129102Y110780D02*
X134397D01*
X136019Y109158D01*
D116*
X64646Y165512D02*
D03*
X273516Y67561D02*
D03*
Y62561D02*
D03*
Y57561D02*
D03*
Y47561D02*
D03*
Y52561D02*
D03*
X273583Y140591D02*
D03*
Y135591D02*
D03*
Y130591D02*
D03*
Y120591D02*
D03*
Y125591D02*
D03*
X273465Y167591D02*
D03*
Y162591D02*
D03*
Y157591D02*
D03*
Y147591D02*
D03*
Y152591D02*
D03*
D118*
X150829Y109945D02*
D03*
X54625Y155890D02*
D03*
D119*
X322622Y81461D02*
D03*
X350512Y60000D02*
D03*
X325394Y60158D02*
D03*
X338222Y147161D02*
D03*
X193272Y115191D02*
D03*
X283222Y44161D02*
D03*
X333222Y22161D02*
D03*
X353110Y71024D02*
D03*
X388222Y22161D02*
D03*
X378222Y7161D02*
D03*
X363222D02*
D03*
X338222D02*
D03*
X16260Y77874D02*
D03*
X303222Y167161D02*
D03*
X308222Y157161D02*
D03*
X268222Y132161D02*
D03*
X273222Y102161D02*
D03*
X245478Y136189D02*
D03*
X276622Y55161D02*
D03*
Y60061D02*
D03*
X269822Y65061D02*
D03*
X167006Y79714D02*
D03*
X276822Y49961D02*
D03*
X276622Y65061D02*
D03*
X323922Y15461D02*
D03*
X346378Y38701D02*
D03*
X300590Y86614D02*
D03*
X314316Y94073D02*
D03*
X274916Y89773D02*
D03*
X304022Y98261D02*
D03*
X280622Y85561D02*
D03*
X287922Y98561D02*
D03*
X280522Y107235D02*
D03*
X280322Y130761D02*
D03*
X276822Y135461D02*
D03*
X280522Y140261D02*
D03*
X297330Y152080D02*
D03*
X308222Y8361D02*
D03*
X324922Y41961D02*
D03*
X323622Y67087D02*
D03*
X270122Y118261D02*
D03*
X270276Y142874D02*
D03*
X253450Y125750D02*
D03*
X339803Y123425D02*
D03*
X283522Y87261D02*
D03*
X205614Y148417D02*
D03*
X96142Y182441D02*
D03*
X128230Y172950D02*
D03*
X16042Y118150D02*
D03*
X13400Y170300D02*
D03*
X21732Y49646D02*
D03*
X217850Y65100D02*
D03*
X16475Y144882D02*
D03*
D120*
X168550Y89440D02*
D03*
X147620Y114010D02*
D03*
X64540Y58370D02*
D03*
X321110Y94600D02*
D03*
X288740Y106535D02*
D03*
X343779Y144567D02*
D03*
X341390Y159673D02*
D03*
X304646Y91929D02*
D03*
X287836Y155947D02*
D03*
X236626Y112063D02*
D03*
X236663Y108126D02*
D03*
X234995Y110094D02*
D03*
X70472Y38561D02*
D03*
X69272Y41861D02*
D03*
X171422Y83011D02*
D03*
X271016Y114173D02*
D03*
X340622Y134561D02*
D03*
X66272Y70661D02*
D03*
X65972Y45061D02*
D03*
X171769Y86407D02*
D03*
X146920Y108964D02*
D03*
X130922Y106661D02*
D03*
X136019Y109158D02*
D03*
X52722Y158161D02*
D03*
X336299Y112402D02*
D03*
X36496Y67381D02*
D03*
X38222Y129461D02*
D03*
X235000Y106157D02*
D03*
X234958Y114032D02*
D03*
X236727Y118362D02*
D03*
X143622Y113861D02*
D03*
X349916Y144873D02*
D03*
X362888Y144515D02*
D03*
Y161838D02*
D03*
X349916Y161573D02*
D03*
X370222Y173561D02*
D03*
X386903Y173649D02*
D03*
X353416Y174673D02*
D03*
X358116Y174573D02*
D03*
X291722Y158561D02*
D03*
X64600Y32790D02*
D03*
X338016Y177273D02*
D03*
X341181Y168032D02*
D03*
X343425Y165866D02*
D03*
X339016Y170315D02*
D03*
X343465Y170276D02*
D03*
X338937Y165866D02*
D03*
X343500Y176990D02*
D03*
X349567Y174488D02*
D03*
X352205Y180118D02*
D03*
X130433Y112716D02*
D03*
X70272Y64061D02*
D03*
X73550Y67461D02*
D03*
X132913Y180433D02*
D03*
X123976Y171496D02*
D03*
X125787Y181693D02*
D03*
X119528Y175433D02*
D03*
D121*
X166024Y108976D02*
D03*
D122*
X381102Y68879D02*
D03*
X374646Y68840D02*
D03*
X122222Y28061D02*
D03*
X117322D02*
D03*
X122222Y32061D02*
D03*
X117322D02*
D03*
D126*
X299252Y153937D02*
D03*
D132*
X349022Y12861D02*
D03*
X319022D02*
D03*
X317722Y186161D02*
D03*
X286378Y186142D02*
D03*
X276378D02*
D03*
M02*
