%FSLAX25Y25*%
%MOIN*%
G70*
G01*
G75*
G04 Layer_Color=32896*
%ADD10C,0.01102*%
%ADD11R,0.01969X0.01969*%
%ADD12C,0.06811*%
%ADD13R,0.02200X0.02200*%
%ADD14R,0.24016X0.12047*%
%ADD15R,0.04331X0.02559*%
%ADD16R,0.04331X0.02200*%
%ADD17R,0.02362X0.04724*%
%ADD18R,0.01882X0.01024*%
%ADD19R,0.06890X0.05709*%
%ADD20R,0.05709X0.06890*%
%ADD21R,0.20866X0.07874*%
%ADD22R,0.08858X0.08465*%
%ADD23R,0.03200X0.03800*%
%ADD24R,0.06000X0.12000*%
%ADD25R,0.18000X0.10000*%
%ADD26R,0.03800X0.03200*%
%ADD27R,0.02874X0.01181*%
%ADD28R,0.01181X0.02874*%
%ADD29R,0.01181X0.03268*%
%ADD30R,0.03268X0.01181*%
%ADD31R,0.12047X0.24016*%
%ADD32R,0.09685X0.03110*%
%ADD33R,0.13000X0.07874*%
%ADD34R,0.04803X0.02441*%
%ADD35R,0.01870X0.00984*%
%ADD36R,0.00984X0.01870*%
%ADD37R,0.04331X0.04331*%
%ADD38R,0.02559X0.04331*%
%ADD39R,0.02047X0.04331*%
%ADD40R,0.03937X0.01378*%
%ADD41R,0.01378X0.03937*%
%ADD42R,0.02402X0.04902*%
%ADD43R,0.04095X0.07087*%
%ADD44R,0.04331X0.05512*%
%ADD45R,0.02165X0.01181*%
%ADD46R,0.02953X0.01181*%
%ADD47R,0.01181X0.02165*%
%ADD48R,0.01181X0.02953*%
%ADD49R,0.20630X0.20630*%
%ADD50R,0.02079X0.01024*%
%ADD51R,0.01024X0.02079*%
%ADD52R,0.10630X0.10630*%
%ADD53R,0.04134X0.01772*%
%ADD54R,0.11575X0.14094*%
%ADD55R,0.06890X0.06890*%
%ADD56O,0.02362X0.01181*%
%ADD57R,0.10000X0.14000*%
%ADD58R,0.02441X0.04803*%
%ADD59R,0.10236X0.03937*%
%ADD60R,0.03937X0.10236*%
%ADD61R,0.12992X0.12992*%
%ADD62R,0.07874X0.09843*%
%ADD63R,0.07874X0.07874*%
%ADD64R,0.02756X0.02165*%
%ADD65R,0.10433X0.03150*%
%ADD66R,0.02165X0.02165*%
%ADD67R,0.02165X0.02756*%
%ADD68R,0.03150X0.10433*%
%ADD69R,0.02165X0.02165*%
%ADD70R,0.02756X0.01181*%
%ADD71R,0.02200X0.01575*%
%ADD72R,0.01575X0.02200*%
G04:AMPARAMS|DCode=73|XSize=22mil|YSize=15.75mil|CornerRadius=0mil|HoleSize=0mil|Usage=FLASHONLY|Rotation=83.000|XOffset=0mil|YOffset=0mil|HoleType=Round|Shape=Rectangle|*
%AMROTATEDRECTD73*
4,1,4,0.00648,-0.01188,-0.00916,-0.00996,-0.00648,0.01188,0.00916,0.00996,0.00648,-0.01188,0.0*
%
%ADD73ROTATEDRECTD73*%

G04:AMPARAMS|DCode=74|XSize=22mil|YSize=15.75mil|CornerRadius=0mil|HoleSize=0mil|Usage=FLASHONLY|Rotation=97.000|XOffset=0mil|YOffset=0mil|HoleType=Round|Shape=Rectangle|*
%AMROTATEDRECTD74*
4,1,4,0.00916,-0.00996,-0.00648,-0.01188,-0.00916,0.00996,0.00648,0.01188,0.00916,-0.00996,0.0*
%
%ADD74ROTATEDRECTD74*%

%ADD75R,0.01969X0.03543*%
%ADD76R,0.03543X0.01969*%
%ADD77R,0.01969X0.03347*%
%ADD78R,0.03347X0.01969*%
%ADD79R,0.06496X0.06496*%
%ADD80R,0.05906X0.05906*%
%ADD81R,0.05906X0.05906*%
%ADD82R,0.07874X0.31496*%
%ADD83C,0.01400*%
%ADD84C,0.01000*%
%ADD85C,0.07000*%
%ADD86C,0.02400*%
%ADD87C,0.01575*%
%ADD88C,0.01100*%
%ADD89C,0.07874*%
%ADD90C,0.02362*%
%ADD91C,0.09000*%
%ADD92C,0.02000*%
%ADD93C,0.02047*%
%ADD94C,0.01600*%
%ADD95C,0.01969*%
%ADD96C,0.01200*%
%ADD97C,0.05000*%
%ADD98C,0.03500*%
%ADD99C,0.02200*%
%ADD100C,0.00984*%
%ADD101R,0.12835X0.09900*%
%ADD102R,0.11900X0.24400*%
%ADD103R,0.10700X0.08011*%
%ADD104R,0.10800X0.14300*%
%ADD105R,0.14525X0.03200*%
%ADD106R,0.18522X0.03500*%
%ADD107R,0.00433X0.01700*%
%ADD108R,0.10800X0.20947*%
%ADD109R,0.12402X0.23701*%
%ADD110R,0.09900X0.12520*%
%ADD111R,0.13976X0.55984*%
%ADD112R,0.35039X0.34961*%
%ADD113C,0.06299*%
%ADD114R,0.06299X0.06299*%
%ADD115R,0.03937X0.03937*%
%ADD116C,0.03937*%
%ADD117R,0.03937X0.03937*%
%ADD118C,0.01400*%
%ADD119C,0.01200*%
%ADD120C,0.01800*%
%ADD121C,0.02000*%
%ADD122C,0.04000*%
%ADD123C,0.01969*%
%ADD124C,0.02598*%
%ADD125C,0.00787*%
%ADD126C,0.01000*%
%ADD127C,0.02500*%
%ADD128C,0.02362*%
%ADD129C,0.14961*%
%ADD130C,0.03000*%
%ADD131R,0.11900X0.14889*%
%ADD132C,0.06000*%
%ADD133R,0.01200X0.02200*%
%ADD134R,0.09843X0.05906*%
%ADD135R,0.05906X0.09843*%
%ADD136R,0.04921X0.01575*%
%ADD137R,0.04921X0.01575*%
%ADD138R,0.08661X0.05512*%
%ADD139R,0.26772X0.26772*%
%ADD140R,0.01378X0.03150*%
%ADD141R,0.03150X0.01378*%
%ADD142R,0.03543X0.01575*%
%ADD143R,0.01969X0.01969*%
%ADD144R,0.05118X0.03347*%
%ADD145C,0.00900*%
%ADD146C,0.02500*%
%ADD147R,0.01850X0.03340*%
%ADD148R,0.05908X0.03435*%
%ADD149R,0.09900X0.13110*%
%ADD150C,0.00394*%
%ADD151C,0.00827*%
%ADD152C,0.00800*%
%ADD153C,0.00787*%
%ADD154C,0.00315*%
%ADD155C,0.00591*%
%ADD156C,0.00787*%
%ADD157C,0.00394*%
%ADD158C,0.00400*%
%ADD159C,0.01378*%
%ADD160C,0.00600*%
%ADD161R,0.01181X0.02165*%
%ADD162R,0.01771X0.02165*%
%ADD163R,0.02165X0.01181*%
%ADD164R,0.02165X0.01771*%
%ADD165R,0.11221X0.13307*%
%ADD166R,0.11102X0.13661*%
%ADD167R,0.10827X0.12214*%
%ADD168R,0.12214X0.10827*%
%ADD169R,0.14902X0.56988*%
%ADD170R,0.35945X0.35886*%
%ADD171R,0.02769X0.02769*%
%ADD172C,0.07611*%
%ADD173R,0.04882X0.03110*%
%ADD174R,0.04882X0.02751*%
%ADD175R,0.02913X0.05276*%
%ADD176R,0.02433X0.01575*%
%ADD177R,0.07690X0.06509*%
%ADD178R,0.06509X0.07690*%
%ADD179R,0.21666X0.08674*%
%ADD180R,0.09658X0.09265*%
%ADD181R,0.03279X0.03879*%
%ADD182R,0.03268X0.01575*%
%ADD183R,0.01575X0.03268*%
%ADD184R,0.01575X0.03661*%
%ADD185R,0.03661X0.01575*%
%ADD186R,0.09764X0.03189*%
%ADD187R,0.05354X0.02992*%
%ADD188R,0.02185X0.01299*%
%ADD189R,0.01299X0.02185*%
%ADD190R,0.04646X0.04646*%
%ADD191R,0.03110X0.04882*%
%ADD192R,0.02598X0.04882*%
%ADD193R,0.04331X0.01772*%
%ADD194R,0.01772X0.04331*%
%ADD195R,0.03202X0.05702*%
%ADD196R,0.04895X0.07887*%
%ADD197R,0.05131X0.06312*%
%ADD198R,0.02559X0.01575*%
%ADD199R,0.03347X0.01575*%
%ADD200R,0.01575X0.02559*%
%ADD201R,0.01575X0.03347*%
%ADD202R,0.21181X0.21181*%
%ADD203R,0.02630X0.01575*%
%ADD204R,0.01575X0.02630*%
%ADD205R,0.11181X0.11181*%
%ADD206R,0.04685X0.02323*%
%ADD207R,0.11811X0.14331*%
%ADD208R,0.07284X0.07284*%
%ADD209O,0.02756X0.01575*%
%ADD210R,0.11430X0.11430*%
%ADD211R,0.02992X0.05354*%
%ADD212R,0.11036X0.04737*%
%ADD213R,0.04737X0.11036*%
%ADD214R,0.13792X0.13792*%
%ADD215R,0.08674X0.10642*%
%ADD216R,0.08674X0.08674*%
%ADD217R,0.03156X0.02565*%
%ADD218R,0.10835X0.03551*%
%ADD219R,0.02565X0.02565*%
%ADD220R,0.02565X0.03156*%
%ADD221R,0.03551X0.10835*%
%ADD222R,0.02565X0.02565*%
%ADD223R,0.03556X0.01981*%
%ADD224R,0.07296X0.07296*%
%ADD225R,0.06706X0.06706*%
%ADD226R,0.06706X0.06706*%
%ADD227R,0.08674X0.32296*%
%ADD228C,0.04737*%
%ADD229R,0.04737X0.04737*%
%ADD230R,0.04737X0.04737*%
%ADD231C,0.03398*%
%ADD232C,0.04800*%
%ADD233C,0.15761*%
%ADD234R,0.17600X0.17600*%
%ADD235R,0.10642X0.06706*%
%ADD236R,0.06706X0.10642*%
%ADD237R,0.05721X0.02375*%
%ADD238R,0.05721X0.02375*%
%ADD239R,0.27165X0.27165*%
%ADD240R,0.01772X0.03543*%
%ADD241R,0.03543X0.01772*%
%ADD242R,0.05918X0.04147*%
%ADD243R,0.03879X0.03279*%
G36*
X202842Y170397D02*
X203910Y170254D01*
X204837Y170112D01*
X205691Y169898D01*
X206404Y169613D01*
X206974Y169470D01*
X207259Y169328D01*
X207401Y169257D01*
X208327Y168758D01*
X209182Y168259D01*
X209966Y167618D01*
X210678Y167120D01*
X211248Y166550D01*
X211676Y166122D01*
X211961Y165837D01*
X212032Y165766D01*
Y169613D01*
X220224D01*
Y136843D01*
X212032D01*
Y151375D01*
X211961Y153014D01*
X211889Y154439D01*
X211747Y155579D01*
X211604Y156576D01*
X211462Y157288D01*
X211391Y157787D01*
X211248Y158143D01*
Y158214D01*
X210892Y158998D01*
X210465Y159711D01*
X210108Y160281D01*
X209681Y160779D01*
X209325Y161135D01*
X209040Y161420D01*
X208826Y161563D01*
X208755Y161634D01*
X208114Y162062D01*
X207472Y162346D01*
X206831Y162631D01*
X206190Y162774D01*
X205691Y162845D01*
X205335Y162916D01*
X204979D01*
X204338Y162845D01*
X203697Y162774D01*
X203198Y162631D01*
X202699Y162418D01*
X202343Y162204D01*
X202058Y162062D01*
X201916Y161990D01*
X201845Y161919D01*
X201346Y161563D01*
X200990Y161064D01*
X200348Y160138D01*
X200135Y159711D01*
X199992Y159354D01*
X199850Y159069D01*
Y158998D01*
X199636Y158143D01*
X199422Y157146D01*
X199280Y156149D01*
X199209Y155080D01*
X199137Y154154D01*
Y153370D01*
Y153085D01*
Y152872D01*
Y152729D01*
Y152658D01*
Y136843D01*
X190945D01*
Y151589D01*
X190874Y153228D01*
X190802Y154581D01*
X190660Y155792D01*
X190517Y156719D01*
X190375Y157431D01*
X190304Y157930D01*
X190161Y158286D01*
Y158357D01*
X189805Y159141D01*
X189377Y159782D01*
X189021Y160352D01*
X188594Y160850D01*
X188238Y161207D01*
X187953Y161492D01*
X187739Y161634D01*
X187668Y161705D01*
X187027Y162133D01*
X186314Y162418D01*
X185673Y162631D01*
X185103Y162774D01*
X184604Y162845D01*
X184177Y162916D01*
X183821D01*
X182823Y162845D01*
X181968Y162631D01*
X181185Y162275D01*
X180615Y161919D01*
X180116Y161563D01*
X179831Y161207D01*
X179618Y160993D01*
X179546Y160922D01*
X179261Y160494D01*
X179048Y159995D01*
X178691Y158927D01*
X178478Y157645D01*
X178264Y156433D01*
X178193Y155222D01*
Y154724D01*
X178122Y154296D01*
Y153869D01*
Y153584D01*
Y153441D01*
Y153370D01*
Y136843D01*
X169929D01*
Y156006D01*
Y157075D01*
X170000Y158072D01*
X170071Y158998D01*
X170143Y159853D01*
X170214Y160637D01*
X170285Y161278D01*
X170499Y162489D01*
X170784Y163415D01*
X170926Y164056D01*
X171069Y164412D01*
X171140Y164555D01*
X171639Y165481D01*
X172209Y166336D01*
X172850Y167048D01*
X173491Y167689D01*
X174061Y168188D01*
X174560Y168544D01*
X174845Y168758D01*
X174987Y168829D01*
X175984Y169399D01*
X177053Y169755D01*
X178050Y170040D01*
X179048Y170254D01*
X179903Y170397D01*
X180544Y170468D01*
X181114D01*
X182396Y170397D01*
X183536Y170254D01*
X184604Y169969D01*
X185530Y169684D01*
X186314Y169399D01*
X186884Y169114D01*
X187240Y168972D01*
X187383Y168901D01*
X188380Y168259D01*
X189306Y167547D01*
X190161Y166834D01*
X190802Y166122D01*
X191372Y165481D01*
X191800Y164982D01*
X192085Y164626D01*
X192156Y164484D01*
X192797Y165481D01*
X193438Y166407D01*
X194151Y167191D01*
X194792Y167761D01*
X195362Y168259D01*
X195789Y168616D01*
X196074Y168829D01*
X196216Y168901D01*
X197143Y169399D01*
X198069Y169827D01*
X198995Y170112D01*
X199850Y170254D01*
X200633Y170397D01*
X201203Y170468D01*
X201702D01*
X202842Y170397D01*
D02*
G37*
G36*
X243772D02*
X244912Y170254D01*
X245980Y170040D01*
X246977Y169684D01*
X248901Y168901D01*
X249685Y168473D01*
X250468Y168046D01*
X251181Y167547D01*
X251751Y167120D01*
X252321Y166692D01*
X252748Y166336D01*
X253104Y165980D01*
X253318Y165766D01*
X253460Y165623D01*
X253532Y165552D01*
X254315Y164626D01*
X255028Y163629D01*
X255597Y162631D01*
X256096Y161563D01*
X256524Y160565D01*
X256951Y159497D01*
X257450Y157573D01*
X257663Y156647D01*
X257806Y155792D01*
X257877Y155080D01*
X257948Y154439D01*
X258020Y153869D01*
Y153513D01*
Y153228D01*
Y153156D01*
X257948Y151803D01*
X257806Y150521D01*
X257592Y149310D01*
X257307Y148170D01*
X256951Y147030D01*
X256524Y146033D01*
X256167Y145106D01*
X255669Y144252D01*
X255241Y143539D01*
X254885Y142827D01*
X254458Y142257D01*
X254101Y141758D01*
X253817Y141402D01*
X253603Y141117D01*
X253460Y140974D01*
X253389Y140903D01*
X252534Y140048D01*
X251608Y139265D01*
X250682Y138623D01*
X249685Y138054D01*
X248759Y137555D01*
X247832Y137199D01*
X246977Y136843D01*
X246123Y136629D01*
X245339Y136415D01*
X244627Y136273D01*
X243985Y136130D01*
X243415Y136059D01*
X242988Y135988D01*
X242347D01*
X241278Y136059D01*
X240352Y136130D01*
X239426Y136273D01*
X238642Y136486D01*
X238001Y136700D01*
X237503Y136843D01*
X237218Y136914D01*
X237075Y136985D01*
X236149Y137412D01*
X235223Y137911D01*
X234439Y138481D01*
X233656Y138980D01*
X233086Y139478D01*
X232587Y139906D01*
X232231Y140191D01*
X232160Y140262D01*
Y136843D01*
X223967D01*
Y169613D01*
X232160D01*
Y165980D01*
X233014Y166763D01*
X233869Y167404D01*
X234724Y168046D01*
X235437Y168473D01*
X236149Y168829D01*
X236648Y169114D01*
X236933Y169257D01*
X237075Y169328D01*
X238072Y169684D01*
X238999Y169969D01*
X239925Y170183D01*
X240780Y170325D01*
X241492Y170397D01*
X242062Y170468D01*
X242561D01*
X243772Y170397D01*
D02*
G37*
%LPC*%
G36*
X241278Y162916D02*
X240922D01*
X239497Y162774D01*
X238286Y162489D01*
X237146Y162062D01*
X236220Y161563D01*
X235437Y161064D01*
X234867Y160637D01*
X234582Y160352D01*
X234439Y160209D01*
X233584Y159141D01*
X232943Y158001D01*
X232445Y156861D01*
X232160Y155792D01*
X231946Y154795D01*
X231875Y154011D01*
X231803Y153726D01*
Y153513D01*
Y153370D01*
Y153299D01*
X231946Y151732D01*
X232231Y150307D01*
X232658Y149096D01*
X233086Y148098D01*
X233584Y147244D01*
X234012Y146674D01*
X234297Y146317D01*
X234439Y146175D01*
X235437Y145320D01*
X236505Y144679D01*
X237645Y144180D01*
X238642Y143895D01*
X239568Y143682D01*
X240281Y143610D01*
X240566Y143539D01*
X240922D01*
X242276Y143682D01*
X243487Y143966D01*
X244555Y144394D01*
X245481Y144893D01*
X246265Y145391D01*
X246835Y145819D01*
X247120Y146104D01*
X247262Y146246D01*
X248117Y147315D01*
X248759Y148526D01*
X249186Y149666D01*
X249471Y150805D01*
X249685Y151732D01*
X249756Y152515D01*
X249827Y152800D01*
Y153014D01*
Y153156D01*
Y153228D01*
X249685Y154724D01*
X249400Y156149D01*
X249043Y157288D01*
X248545Y158357D01*
X248117Y159141D01*
X247690Y159711D01*
X247405Y160067D01*
X247334Y160209D01*
X246336Y161135D01*
X245268Y161776D01*
X244199Y162275D01*
X243130Y162560D01*
X242276Y162774D01*
X241563Y162845D01*
X241278Y162916D01*
D02*
G37*
%LPD*%
D100*
X368399Y160854D02*
G03*
X368399Y160854I-492J0D01*
G01*
X292595Y145165D02*
G03*
X292595Y145165I-492J0D01*
G01*
D121*
X165894Y140779D02*
D03*
Y143535D02*
D03*
Y146291D02*
D03*
Y149047D02*
D03*
Y151803D02*
D03*
Y154559D02*
D03*
Y157315D02*
D03*
Y160071D02*
D03*
Y162827D02*
D03*
Y165583D02*
D03*
Y168339D02*
D03*
X163138D02*
D03*
Y165583D02*
D03*
Y162827D02*
D03*
Y160071D02*
D03*
Y157315D02*
D03*
Y154559D02*
D03*
Y151803D02*
D03*
Y149047D02*
D03*
Y146291D02*
D03*
Y143535D02*
D03*
Y140779D02*
D03*
Y138024D02*
D03*
X160382Y168339D02*
D03*
Y165583D02*
D03*
Y162827D02*
D03*
Y160071D02*
D03*
Y157315D02*
D03*
Y154559D02*
D03*
Y151803D02*
D03*
Y149047D02*
D03*
Y146291D02*
D03*
Y143535D02*
D03*
Y140779D02*
D03*
Y138024D02*
D03*
X157626Y143535D02*
D03*
Y140779D02*
D03*
Y138024D02*
D03*
X154870Y143535D02*
D03*
Y140779D02*
D03*
Y138024D02*
D03*
X152114Y168339D02*
D03*
Y165583D02*
D03*
Y162827D02*
D03*
Y160071D02*
D03*
Y157315D02*
D03*
Y154559D02*
D03*
Y151803D02*
D03*
Y149047D02*
D03*
Y146291D02*
D03*
Y143535D02*
D03*
Y140779D02*
D03*
Y138024D02*
D03*
X149358Y168339D02*
D03*
Y165583D02*
D03*
Y162827D02*
D03*
Y160071D02*
D03*
Y157315D02*
D03*
Y154559D02*
D03*
Y151803D02*
D03*
Y149047D02*
D03*
Y146291D02*
D03*
Y143535D02*
D03*
Y140779D02*
D03*
Y138024D02*
D03*
X146602Y168339D02*
D03*
Y165583D02*
D03*
Y162827D02*
D03*
Y160071D02*
D03*
Y157315D02*
D03*
Y154559D02*
D03*
Y151803D02*
D03*
Y149047D02*
D03*
Y146291D02*
D03*
Y143535D02*
D03*
Y140779D02*
D03*
X143846Y168339D02*
D03*
Y165583D02*
D03*
Y162827D02*
D03*
X141091Y168339D02*
D03*
Y165583D02*
D03*
Y162827D02*
D03*
X138335Y168339D02*
D03*
Y165583D02*
D03*
Y162827D02*
D03*
Y160071D02*
D03*
Y157315D02*
D03*
Y154559D02*
D03*
Y151803D02*
D03*
Y149047D02*
D03*
Y146291D02*
D03*
Y143535D02*
D03*
Y140779D02*
D03*
Y138024D02*
D03*
X135579Y168339D02*
D03*
Y165583D02*
D03*
Y162827D02*
D03*
Y160071D02*
D03*
Y157315D02*
D03*
Y154559D02*
D03*
Y151803D02*
D03*
Y149047D02*
D03*
Y146291D02*
D03*
Y143535D02*
D03*
Y140779D02*
D03*
Y138024D02*
D03*
X132823Y168339D02*
D03*
Y165583D02*
D03*
Y162827D02*
D03*
Y160071D02*
D03*
Y157315D02*
D03*
Y154559D02*
D03*
Y151803D02*
D03*
Y149047D02*
D03*
Y146291D02*
D03*
Y143535D02*
D03*
Y140779D02*
D03*
Y138024D02*
D03*
D150*
X339921Y177402D02*
G03*
X339921Y177402I-197J0D01*
G01*
D152*
X341454Y153104D02*
X346178D01*
X341454Y144442D02*
Y153104D01*
Y144442D02*
X346178D01*
Y153104D01*
X341454Y153243D02*
X346178D01*
Y161904D01*
X341454D02*
X346178D01*
X341454Y153243D02*
Y161904D01*
X297963Y176734D02*
X303081D01*
Y173388D02*
Y176734D01*
X297963Y174175D02*
Y176734D01*
Y174175D02*
X298750Y173388D01*
X303081D01*
X300863Y181434D02*
X305981D01*
Y178087D02*
Y181434D01*
X300863Y178875D02*
Y181434D01*
Y178875D02*
X301651Y178087D01*
X305981D01*
X347160Y152791D02*
X352672D01*
X347160Y142555D02*
X352672D01*
Y152791D01*
X347160Y142555D02*
Y152791D01*
Y153655D02*
X352672D01*
X347160Y163891D02*
X352672D01*
X347160Y153655D02*
Y163891D01*
X352672Y153655D02*
Y163891D01*
X229183Y101966D02*
X235521D01*
Y98580D02*
Y101966D01*
X229183Y98580D02*
X235521D01*
X229183D02*
Y101966D01*
X232313Y116414D02*
Y122752D01*
X235699D01*
Y116414D02*
Y122752D01*
X232313Y116414D02*
X235699D01*
X227613Y117814D02*
Y124153D01*
X230999D01*
Y117814D02*
Y124153D01*
X227613Y117814D02*
X230999D01*
X222913Y116414D02*
Y122752D01*
X226299D01*
Y116414D02*
Y122752D01*
X222913Y116414D02*
X226299D01*
X218213D02*
Y122752D01*
X221599D01*
Y116414D02*
Y122752D01*
X218213Y116414D02*
X221599D01*
X213513D02*
Y122752D01*
X216899D01*
Y116414D02*
Y122752D01*
X213513Y116414D02*
X216899D01*
X200797Y119510D02*
X207135D01*
X200797D02*
Y122896D01*
X207135D01*
Y119510D02*
Y122896D01*
X212859Y86734D02*
Y93072D01*
X209473Y86734D02*
X212859D01*
X209473D02*
Y93072D01*
X212859D01*
X195797Y105010D02*
X202135D01*
X195797D02*
Y108396D01*
X202135D01*
Y105010D02*
Y108396D01*
X203597Y99610D02*
X209935D01*
X203597D02*
Y102996D01*
X209935D01*
Y99610D02*
Y102996D01*
X237753Y98568D02*
X244091D01*
X237753D02*
Y101954D01*
X244091D01*
Y98568D02*
Y101954D01*
X208259Y86734D02*
Y93072D01*
X204873Y86734D02*
X208259D01*
X204873D02*
Y93072D01*
X208259D01*
X195747Y94066D02*
X202085D01*
Y90680D02*
Y94066D01*
X195747Y90680D02*
X202085D01*
X195747D02*
Y94066D01*
X195741Y118753D02*
X202079D01*
Y115367D02*
Y118753D01*
X195741Y115367D02*
X202079D01*
X195741D02*
Y118753D01*
X195791Y114693D02*
X202129D01*
Y111307D02*
Y114693D01*
X195791Y111307D02*
X202129D01*
X195791D02*
Y114693D01*
X195851Y93897D02*
X202189D01*
X195851D02*
Y97283D01*
X202189D01*
Y93897D02*
Y97283D01*
X195797Y100110D02*
X202135D01*
X195797D02*
Y103496D01*
X202135D01*
Y100110D02*
Y103496D01*
X203597Y94910D02*
X209935D01*
X203597D02*
Y98296D01*
X209935D01*
Y94910D02*
Y98296D01*
X354423Y150007D02*
Y156346D01*
X357809D01*
Y150007D02*
Y156346D01*
X354423Y150007D02*
X357809D01*
X359809Y169272D02*
Y175610D01*
X356423Y169272D02*
X359809D01*
X356423D02*
Y175610D01*
X359809D01*
X355515Y169272D02*
Y175610D01*
X352129Y169272D02*
X355515D01*
X352129D02*
Y175610D01*
X355515D01*
X347835Y169272D02*
Y175610D01*
X351220D01*
Y169272D02*
Y175610D01*
X347835Y169272D02*
X351220D01*
X304147Y104780D02*
X310485D01*
X304147D02*
Y108166D01*
X310485D01*
Y104780D02*
Y108166D01*
X339709Y125504D02*
Y131843D01*
X336323Y125504D02*
X339709D01*
X336323D02*
Y131843D01*
X339709D01*
X328153Y133054D02*
X334491D01*
Y129668D02*
Y133054D01*
X328153Y129668D02*
X334491D01*
X328153D02*
Y133054D01*
X285123Y126604D02*
Y132942D01*
X288509D01*
Y126604D02*
Y132942D01*
X285123Y126604D02*
X288509D01*
X312623Y88704D02*
Y95043D01*
X316009D01*
Y88704D02*
Y95043D01*
X312623Y88704D02*
X316009D01*
X276609D02*
Y95043D01*
X273223Y88704D02*
X276609D01*
X273223D02*
Y95043D01*
X276609D01*
X316727Y157266D02*
X323085D01*
Y153880D02*
Y157266D01*
X316727Y153880D02*
X323085D01*
X316727D02*
Y157266D01*
X314327Y152566D02*
X320685D01*
Y149180D02*
Y152566D01*
X314327Y149180D02*
X320685D01*
X314327D02*
Y152566D01*
X277247Y126580D02*
X283605D01*
X277247D02*
Y129966D01*
X283605D01*
Y126580D02*
Y129966D01*
X277247Y136080D02*
X283605D01*
X277247D02*
Y139466D01*
X283605D01*
Y136080D02*
Y139466D01*
X277247Y140780D02*
X283605D01*
X277247D02*
Y144166D01*
X283605D01*
Y140780D02*
Y144166D01*
X277247Y145480D02*
X283605D01*
X277247D02*
Y148866D01*
X283605D01*
Y145480D02*
Y148866D01*
X334115Y99591D02*
Y105950D01*
X330729Y99591D02*
X334115D01*
X330729D02*
Y105950D01*
X334115D01*
X329415Y99591D02*
Y105950D01*
X326029Y99591D02*
X329415D01*
X326029D02*
Y105950D01*
X329415D01*
X324715Y99591D02*
Y105950D01*
X321329Y99591D02*
X324715D01*
X321329D02*
Y105950D01*
X324715D01*
X320015Y99591D02*
Y105950D01*
X316629Y99591D02*
X320015D01*
X316629D02*
Y105950D01*
X320015D01*
X315315Y99591D02*
Y105950D01*
X311929Y99591D02*
X315315D01*
X311929D02*
Y105950D01*
X315315D01*
X328127Y128266D02*
X334485D01*
Y124880D02*
Y128266D01*
X328127Y124880D02*
X334485D01*
X328127D02*
Y128266D01*
X331047Y120180D02*
X337405D01*
X331047D02*
Y123566D01*
X337405D01*
Y120180D02*
Y123566D01*
X277247Y121880D02*
X283605D01*
X277247D02*
Y125266D01*
X283605D01*
Y121880D02*
Y125266D01*
X277227Y134666D02*
X283585D01*
Y131280D02*
Y134666D01*
X277227Y131280D02*
X283585D01*
X277227D02*
Y134666D01*
X277247Y117180D02*
X283605D01*
X277247D02*
Y120566D01*
X283605D01*
Y117180D02*
Y120566D01*
X297529Y148672D02*
Y155030D01*
X300915D01*
Y148672D02*
Y155030D01*
X297529Y148672D02*
X300915D01*
X302229D02*
Y155030D01*
X305615D01*
Y148672D02*
Y155030D01*
X302229Y148672D02*
X305615D01*
X331047Y110780D02*
X337405D01*
X331047D02*
Y114166D01*
X337405D01*
Y110780D02*
Y114166D01*
X292127Y108166D02*
X298485D01*
Y104780D02*
Y108166D01*
X292127Y104780D02*
X298485D01*
X292127D02*
Y108166D01*
X277227Y106566D02*
X283585D01*
Y103180D02*
Y106566D01*
X277227Y103180D02*
X283585D01*
X277227D02*
Y106566D01*
Y111166D02*
X283585D01*
Y107780D02*
Y111166D01*
X277227Y107780D02*
X283585D01*
X277227D02*
Y111166D01*
Y115866D02*
X283585D01*
Y112480D02*
Y115866D01*
X277227Y112480D02*
X283585D01*
X277227D02*
Y115866D01*
X331047Y115480D02*
X337405D01*
X331047D02*
Y118866D01*
X337405D01*
Y115480D02*
Y118866D01*
X292829Y148672D02*
Y155030D01*
X296215D01*
Y148672D02*
Y155030D01*
X292829Y148672D02*
X296215D01*
X291515Y148691D02*
Y155050D01*
X288129Y148691D02*
X291515D01*
X288129D02*
Y155050D01*
X291515D01*
X214381Y84207D02*
X220739D01*
X214381D02*
Y87593D01*
X220739D01*
Y84207D02*
Y87593D01*
D153*
X373802Y139702D02*
G03*
X375683Y137822I1880J0D01*
G01*
Y168531D02*
G03*
X373802Y166650I0J-1880D01*
G01*
X375683Y137822D02*
X393498D01*
Y129062D02*
Y137822D01*
Y168531D02*
Y177290D01*
X375683Y168531D02*
X393498D01*
X373802Y139889D02*
X373802Y166650D01*
X291303Y143573D02*
X292982D01*
X291303Y141894D02*
Y143573D01*
Y110773D02*
Y112453D01*
Y110773D02*
X292982D01*
X322523D02*
X324203D01*
Y112453D01*
Y141894D02*
Y143573D01*
X322523D02*
X324203D01*
X332271Y150401D02*
X339161D01*
X332271Y155952D02*
X339161D01*
X340066Y152881D02*
X340066Y153511D01*
X331385Y152861D02*
X331385Y153491D01*
X250236Y103189D02*
Y106338D01*
X248137Y103189D01*
Y106338D01*
X247088Y103189D02*
X246038D01*
X246563D01*
Y106338D01*
X247088Y105813D01*
D156*
X387658Y45238D02*
Y53900D01*
X385689Y49569D02*
X387658D01*
X371516Y60199D02*
X385295D01*
Y38545D02*
Y60199D01*
X371516Y38545D02*
Y60199D01*
Y38545D02*
X385295D01*
D160*
X191956Y92943D02*
X192373Y93360D01*
X193206D01*
X193622Y92943D01*
Y91277D01*
X193206Y90861D01*
X192373D01*
X191956Y91277D01*
X189457Y90861D02*
X191123D01*
X189457Y92527D01*
Y92943D01*
X189873Y93360D01*
X190706D01*
X191123Y92943D01*
X188624D02*
X188207Y93360D01*
X187374D01*
X186958Y92943D01*
Y92527D01*
X187374Y92110D01*
X186958Y91694D01*
Y91277D01*
X187374Y90861D01*
X188207D01*
X188624Y91277D01*
Y91694D01*
X188207Y92110D01*
X188624Y92527D01*
Y92943D01*
X188207Y92110D02*
X187374D01*
X241664Y105313D02*
X242080Y105729D01*
X242914D01*
X243330Y105313D01*
Y103647D01*
X242914Y103230D01*
X242080D01*
X241664Y103647D01*
X239581Y103230D02*
Y105729D01*
X240831Y104480D01*
X239165D01*
X232854Y105523D02*
X233270Y105939D01*
X234103D01*
X234520Y105523D01*
Y103857D01*
X234103Y103440D01*
X233270D01*
X232854Y103857D01*
X230355Y105939D02*
X232021D01*
Y104690D01*
X231188Y105106D01*
X230771D01*
X230355Y104690D01*
Y103857D01*
X230771Y103440D01*
X231604D01*
X232021Y103857D01*
X235595Y127737D02*
X236011Y127320D01*
Y126487D01*
X235595Y126071D01*
X233929D01*
X233512Y126487D01*
Y127320D01*
X233929Y127737D01*
X233512Y128570D02*
Y129403D01*
Y128986D01*
X236011D01*
X235595Y128570D01*
X233512Y130652D02*
Y131486D01*
Y131069D01*
X236011D01*
X235595Y130652D01*
X230195Y128737D02*
X230611Y128320D01*
Y127487D01*
X230195Y127071D01*
X228529D01*
X228112Y127487D01*
Y128320D01*
X228529Y128737D01*
X228112Y129570D02*
Y130403D01*
Y129986D01*
X230611D01*
X230195Y129570D01*
Y131652D02*
X230611Y132069D01*
Y132902D01*
X230195Y133319D01*
X229778D01*
X229362Y132902D01*
Y132486D01*
Y132902D01*
X228945Y133319D01*
X228529D01*
X228112Y132902D01*
Y132069D01*
X228529Y131652D01*
X225695Y127437D02*
X226111Y127020D01*
Y126187D01*
X225695Y125771D01*
X224029D01*
X223612Y126187D01*
Y127020D01*
X224029Y127437D01*
X223612Y128270D02*
Y129103D01*
Y128686D01*
X226111D01*
X225695Y128270D01*
X226111Y132019D02*
Y130352D01*
X224862D01*
X225278Y131186D01*
Y131602D01*
X224862Y132019D01*
X224029D01*
X223612Y131602D01*
Y130769D01*
X224029Y130352D01*
X221095Y127137D02*
X221511Y126720D01*
Y125887D01*
X221095Y125471D01*
X219429D01*
X219012Y125887D01*
Y126720D01*
X219429Y127137D01*
X219012Y129636D02*
Y127970D01*
X220678Y129636D01*
X221095D01*
X221511Y129219D01*
Y128386D01*
X221095Y127970D01*
Y130469D02*
X221511Y130886D01*
Y131719D01*
X221095Y132135D01*
X219429D01*
X219012Y131719D01*
Y130886D01*
X219429Y130469D01*
X221095D01*
X215895Y127237D02*
X216311Y126820D01*
Y125987D01*
X215895Y125571D01*
X214229D01*
X213812Y125987D01*
Y126820D01*
X214229Y127237D01*
X213812Y129736D02*
Y128070D01*
X215478Y129736D01*
X215895D01*
X216311Y129320D01*
Y128486D01*
X215895Y128070D01*
X213812Y132235D02*
Y130569D01*
X215478Y132235D01*
X215895D01*
X216311Y131819D01*
Y130986D01*
X215895Y130569D01*
X205506Y127173D02*
X205923Y127590D01*
X206756D01*
X207172Y127173D01*
Y125507D01*
X206756Y125091D01*
X205923D01*
X205506Y125507D01*
X203007Y125091D02*
X204673D01*
X203007Y126757D01*
Y127173D01*
X203423Y127590D01*
X204256D01*
X204673Y127173D01*
X200924Y125091D02*
Y127590D01*
X202174Y126340D01*
X200508D01*
X207193Y80356D02*
X207609Y79940D01*
Y79106D01*
X207193Y78690D01*
X205526D01*
X205110Y79106D01*
Y79940D01*
X205526Y80356D01*
X205110Y82855D02*
Y81189D01*
X206776Y82855D01*
X207193D01*
X207609Y82439D01*
Y81606D01*
X207193Y81189D01*
X207609Y85355D02*
Y83688D01*
X206360D01*
X206776Y84521D01*
Y84938D01*
X206360Y85355D01*
X205526D01*
X205110Y84938D01*
Y84105D01*
X205526Y83688D01*
X212043Y80206D02*
X212459Y79790D01*
Y78957D01*
X212043Y78540D01*
X210377D01*
X209960Y78957D01*
Y79790D01*
X210377Y80206D01*
X209960Y82705D02*
Y81039D01*
X211626Y82705D01*
X212043D01*
X212459Y82289D01*
Y81456D01*
X212043Y81039D01*
X212459Y85204D02*
X212043Y84371D01*
X211210Y83538D01*
X210377D01*
X209960Y83955D01*
Y84788D01*
X210377Y85204D01*
X210793D01*
X211210Y84788D01*
Y83538D01*
X190950Y118030D02*
X191367Y118447D01*
X192200D01*
X192616Y118030D01*
Y116364D01*
X192200Y115947D01*
X191367D01*
X190950Y116364D01*
X190117Y118030D02*
X189700Y118447D01*
X188867D01*
X188451Y118030D01*
Y117614D01*
X188867Y117197D01*
X189284D01*
X188867D01*
X188451Y116781D01*
Y116364D01*
X188867Y115947D01*
X189700D01*
X190117Y116364D01*
X186368Y115947D02*
Y118447D01*
X187618Y117197D01*
X185952D01*
X191100Y113870D02*
X191517Y114287D01*
X192350D01*
X192766Y113870D01*
Y112204D01*
X192350Y111787D01*
X191517D01*
X191100Y112204D01*
X190267Y113870D02*
X189850Y114287D01*
X189017D01*
X188601Y113870D01*
Y113454D01*
X189017Y113037D01*
X189434D01*
X189017D01*
X188601Y112621D01*
Y112204D01*
X189017Y111787D01*
X189850D01*
X190267Y112204D01*
X186102Y114287D02*
X187768D01*
Y113037D01*
X186935Y113454D01*
X186518D01*
X186102Y113037D01*
Y112204D01*
X186518Y111787D01*
X187351D01*
X187768Y112204D01*
X191406Y107473D02*
X191823Y107890D01*
X192656D01*
X193072Y107473D01*
Y105807D01*
X192656Y105391D01*
X191823D01*
X191406Y105807D01*
X190573Y107473D02*
X190156Y107890D01*
X189323D01*
X188907Y107473D01*
Y107057D01*
X189323Y106640D01*
X189740D01*
X189323D01*
X188907Y106224D01*
Y105807D01*
X189323Y105391D01*
X190156D01*
X190573Y105807D01*
X188074Y107473D02*
X187657Y107890D01*
X186824D01*
X186408Y107473D01*
Y107057D01*
X186824Y106640D01*
X186408Y106224D01*
Y105807D01*
X186824Y105391D01*
X187657D01*
X188074Y105807D01*
Y106224D01*
X187657Y106640D01*
X188074Y107057D01*
Y107473D01*
X187657Y106640D02*
X186824D01*
X191956Y96531D02*
X192373Y96948D01*
X193205D01*
X193622Y96531D01*
Y94865D01*
X193205Y94449D01*
X192373D01*
X191956Y94865D01*
X191123Y96531D02*
X190706Y96948D01*
X189873D01*
X189457Y96531D01*
Y96115D01*
X189873Y95698D01*
X190290D01*
X189873D01*
X189457Y95282D01*
Y94865D01*
X189873Y94449D01*
X190706D01*
X191123Y94865D01*
X188624D02*
X188207Y94449D01*
X187374D01*
X186958Y94865D01*
Y96531D01*
X187374Y96948D01*
X188207D01*
X188624Y96531D01*
Y96115D01*
X188207Y95698D01*
X186958D01*
X191406Y102673D02*
X191823Y103090D01*
X192656D01*
X193072Y102673D01*
Y101007D01*
X192656Y100591D01*
X191823D01*
X191406Y101007D01*
X189323Y100591D02*
Y103090D01*
X190573Y101840D01*
X188907D01*
X188074Y102673D02*
X187657Y103090D01*
X186824D01*
X186408Y102673D01*
Y101007D01*
X186824Y100591D01*
X187657D01*
X188074Y101007D01*
Y102673D01*
X218344Y95433D02*
X218760Y95849D01*
X219594D01*
X220010Y95433D01*
Y93766D01*
X219594Y93350D01*
X218760D01*
X218344Y93766D01*
X216261Y93350D02*
Y95849D01*
X217511Y94600D01*
X215845D01*
X215012Y93350D02*
X214179D01*
X214595D01*
Y95849D01*
X215012Y95433D01*
X207673Y105836D02*
X208089Y105420D01*
Y104587D01*
X207673Y104170D01*
X206007D01*
X205590Y104587D01*
Y105420D01*
X206007Y105836D01*
X205590Y107919D02*
X208089D01*
X206840Y106669D01*
Y108335D01*
X205590Y110835D02*
Y109168D01*
X207256Y110835D01*
X207673D01*
X208089Y110418D01*
Y109585D01*
X207673Y109168D01*
X219630Y91419D02*
Y88920D01*
X217964D01*
X217131Y91003D02*
X216714Y91419D01*
X215881D01*
X215465Y91003D01*
Y90586D01*
X215881Y90170D01*
X216298D01*
X215881D01*
X215465Y89753D01*
Y89337D01*
X215881Y88920D01*
X216714D01*
X217131Y89337D01*
X356905Y143227D02*
X357321Y142810D01*
Y141977D01*
X356905Y141561D01*
X355239D01*
X354822Y141977D01*
Y142810D01*
X355239Y143227D01*
X354822Y145309D02*
X357321D01*
X356072Y144060D01*
Y145726D01*
X356905Y146559D02*
X357321Y146976D01*
Y147809D01*
X356905Y148225D01*
X356488D01*
X356072Y147809D01*
Y147392D01*
Y147809D01*
X355655Y148225D01*
X355239D01*
X354822Y147809D01*
Y146976D01*
X355239Y146559D01*
X355224Y167634D02*
X355640Y168050D01*
X356473D01*
X356890Y167634D01*
Y165968D01*
X356473Y165551D01*
X355640D01*
X355224Y165968D01*
X353141Y165551D02*
Y168050D01*
X354391Y166801D01*
X352724D01*
X351891Y167634D02*
X351475Y168050D01*
X350642D01*
X350225Y167634D01*
Y167217D01*
X350642Y166801D01*
X350225Y166384D01*
Y165968D01*
X350642Y165551D01*
X351475D01*
X351891Y165968D01*
Y166384D01*
X351475Y166801D01*
X351891Y167217D01*
Y167634D01*
X351475Y166801D02*
X350642D01*
X346123Y170636D02*
X346539Y170220D01*
Y169386D01*
X346123Y168970D01*
X344457D01*
X344040Y169386D01*
Y170220D01*
X344457Y170636D01*
X344040Y172719D02*
X346539D01*
X345290Y171469D01*
Y173135D01*
X344457Y173968D02*
X344040Y174385D01*
Y175218D01*
X344457Y175635D01*
X346123D01*
X346539Y175218D01*
Y174385D01*
X346123Y173968D01*
X345706D01*
X345290Y174385D01*
Y175635D01*
X302303Y104036D02*
X302719Y103620D01*
Y102787D01*
X302303Y102370D01*
X300637D01*
X300220Y102787D01*
Y103620D01*
X300637Y104036D01*
X302719Y106535D02*
Y104869D01*
X301470D01*
X301886Y105702D01*
Y106119D01*
X301470Y106535D01*
X300637D01*
X300220Y106119D01*
Y105286D01*
X300637Y104869D01*
X302303Y107368D02*
X302719Y107785D01*
Y108618D01*
X302303Y109035D01*
X300637D01*
X300220Y108618D01*
Y107785D01*
X300637Y107368D01*
X302303D01*
X338823Y134806D02*
X339239Y134390D01*
Y133556D01*
X338823Y133140D01*
X337157D01*
X336740Y133556D01*
Y134390D01*
X337157Y134806D01*
X339239Y137305D02*
Y135639D01*
X337990D01*
X338406Y136472D01*
Y136889D01*
X337990Y137305D01*
X337157D01*
X336740Y136889D01*
Y136056D01*
X337157Y135639D01*
X336740Y138138D02*
Y138971D01*
Y138555D01*
X339239D01*
X338823Y138138D01*
X333124Y136433D02*
X333540Y136849D01*
X334373D01*
X334790Y136433D01*
Y134766D01*
X334373Y134350D01*
X333540D01*
X333124Y134766D01*
X330625Y136849D02*
X332291D01*
Y135600D01*
X331458Y136016D01*
X331041D01*
X330625Y135600D01*
Y134766D01*
X331041Y134350D01*
X331874D01*
X332291Y134766D01*
X328126Y134350D02*
X329792D01*
X328126Y136016D01*
Y136433D01*
X328542Y136849D01*
X329375D01*
X329792Y136433D01*
X287553Y120476D02*
X287969Y120060D01*
Y119227D01*
X287553Y118810D01*
X285887D01*
X285470Y119227D01*
Y120060D01*
X285887Y120476D01*
X287969Y122975D02*
Y121309D01*
X286720D01*
X287136Y122142D01*
Y122559D01*
X286720Y122975D01*
X285887D01*
X285470Y122559D01*
Y121726D01*
X285887Y121309D01*
X287553Y123808D02*
X287969Y124225D01*
Y125058D01*
X287553Y125475D01*
X287136D01*
X286720Y125058D01*
Y124641D01*
Y125058D01*
X286303Y125475D01*
X285887D01*
X285470Y125058D01*
Y124225D01*
X285887Y123808D01*
X310805Y158027D02*
X311221Y157610D01*
Y156777D01*
X310805Y156361D01*
X309139D01*
X308722Y156777D01*
Y157610D01*
X309139Y158027D01*
X311221Y160526D02*
Y158860D01*
X309972D01*
X310388Y159693D01*
Y160109D01*
X309972Y160526D01*
X309139D01*
X308722Y160109D01*
Y159276D01*
X309139Y158860D01*
X308722Y162609D02*
X311221D01*
X309972Y161359D01*
Y163025D01*
X319256Y86843D02*
X319672Y87260D01*
X320506D01*
X320922Y86843D01*
Y85177D01*
X320506Y84761D01*
X319672D01*
X319256Y85177D01*
X316757Y87260D02*
X318423D01*
Y86010D01*
X317590Y86427D01*
X317173D01*
X316757Y86010D01*
Y85177D01*
X317173Y84761D01*
X318006D01*
X318423Y85177D01*
X314258Y87260D02*
X315924D01*
Y86010D01*
X315091Y86427D01*
X314674D01*
X314258Y86010D01*
Y85177D01*
X314674Y84761D01*
X315507D01*
X315924Y85177D01*
X271563Y90066D02*
X271979Y89650D01*
Y88816D01*
X271563Y88400D01*
X269897D01*
X269480Y88816D01*
Y89650D01*
X269897Y90066D01*
X271979Y92565D02*
Y90899D01*
X270730D01*
X271146Y91732D01*
Y92149D01*
X270730Y92565D01*
X269897D01*
X269480Y92149D01*
Y91316D01*
X269897Y90899D01*
X271979Y95065D02*
X271563Y94231D01*
X270730Y93398D01*
X269897D01*
X269480Y93815D01*
Y94648D01*
X269897Y95065D01*
X270313D01*
X270730Y94648D01*
Y93398D01*
X331299Y175058D02*
Y172559D01*
X330050D01*
X329633Y172976D01*
Y174642D01*
X330050Y175058D01*
X331299D01*
X328800Y172559D02*
X327967D01*
X328383D01*
Y175058D01*
X328800Y174642D01*
X356621Y159561D02*
X354122D01*
Y160810D01*
X354539Y161227D01*
X356205D01*
X356621Y160810D01*
Y159561D01*
X354122Y163726D02*
Y162060D01*
X355788Y163726D01*
X356205D01*
X356621Y163310D01*
Y162476D01*
X356205Y162060D01*
X352722Y140860D02*
Y138361D01*
X351472D01*
X351056Y138777D01*
Y140443D01*
X351472Y140860D01*
X352722D01*
X350223Y140443D02*
X349806Y140860D01*
X348973D01*
X348557Y140443D01*
Y140027D01*
X348973Y139610D01*
X349390D01*
X348973D01*
X348557Y139194D01*
Y138777D01*
X348973Y138361D01*
X349806D01*
X350223Y138777D01*
X335315Y181751D02*
Y179252D01*
X334065D01*
X333649Y179668D01*
Y181335D01*
X334065Y181751D01*
X335315D01*
X331566Y179252D02*
Y181751D01*
X332816Y180502D01*
X331150D01*
X312722Y180960D02*
Y178461D01*
X311473D01*
X311056Y178877D01*
Y180543D01*
X311473Y180960D01*
X312722D01*
X308557D02*
X310223D01*
Y179710D01*
X309390Y180127D01*
X308973D01*
X308557Y179710D01*
Y178877D01*
X308973Y178461D01*
X309806D01*
X310223Y178877D01*
X301922Y172160D02*
Y169661D01*
X300673D01*
X300256Y170077D01*
Y171743D01*
X300673Y172160D01*
X301922D01*
X297757D02*
X298590Y171743D01*
X299423Y170910D01*
Y170077D01*
X299006Y169661D01*
X298173D01*
X297757Y170077D01*
Y170494D01*
X298173Y170910D01*
X299423D01*
X321950Y158500D02*
Y160999D01*
X320700D01*
X320284Y160583D01*
Y159750D01*
X320700Y159333D01*
X321950D01*
X321117D02*
X320284Y158500D01*
X319451Y160583D02*
X319034Y160999D01*
X318201D01*
X317785Y160583D01*
Y160166D01*
X318201Y159750D01*
X317785Y159333D01*
Y158916D01*
X318201Y158500D01*
X319034D01*
X319451Y158916D01*
Y159333D01*
X319034Y159750D01*
X319451Y160166D01*
Y160583D01*
X319034Y159750D02*
X318201D01*
X319610Y145440D02*
Y147939D01*
X318360D01*
X317944Y147523D01*
Y146690D01*
X318360Y146273D01*
X319610D01*
X318777D02*
X317944Y145440D01*
X317111Y145856D02*
X316694Y145440D01*
X315861D01*
X315445Y145856D01*
Y147523D01*
X315861Y147939D01*
X316694D01*
X317111Y147523D01*
Y147106D01*
X316694Y146690D01*
X315445D01*
X269922Y126961D02*
Y129460D01*
X268672D01*
X268256Y129043D01*
Y128210D01*
X268672Y127794D01*
X269922D01*
X269089D02*
X268256Y126961D01*
X267423D02*
X266590D01*
X267006D01*
Y129460D01*
X267423Y129043D01*
X265340D02*
X264924Y129460D01*
X264091D01*
X263674Y129043D01*
Y127377D01*
X264091Y126961D01*
X264924D01*
X265340Y127377D01*
Y129043D01*
X270322Y136461D02*
Y138960D01*
X269073D01*
X268656Y138543D01*
Y137710D01*
X269073Y137294D01*
X270322D01*
X269489D02*
X268656Y136461D01*
X267823D02*
X266990D01*
X267406D01*
Y138960D01*
X267823Y138543D01*
X265740Y136461D02*
X264907D01*
X265324D01*
Y138960D01*
X265740Y138543D01*
X270222Y141261D02*
Y143760D01*
X268972D01*
X268556Y143343D01*
Y142510D01*
X268972Y142094D01*
X270222D01*
X269389D02*
X268556Y141261D01*
X267723D02*
X266890D01*
X267306D01*
Y143760D01*
X267723Y143343D01*
X263974Y141261D02*
X265640D01*
X263974Y142927D01*
Y143343D01*
X264391Y143760D01*
X265224D01*
X265640Y143343D01*
X270222Y145961D02*
Y148460D01*
X268972D01*
X268556Y148043D01*
Y147210D01*
X268972Y146794D01*
X270222D01*
X269389D02*
X268556Y145961D01*
X267723D02*
X266890D01*
X267306D01*
Y148460D01*
X267723Y148043D01*
X265640D02*
X265224Y148460D01*
X264391D01*
X263974Y148043D01*
Y147627D01*
X264391Y147210D01*
X264807D01*
X264391D01*
X263974Y146794D01*
Y146377D01*
X264391Y145961D01*
X265224D01*
X265640Y146377D01*
X331222Y91761D02*
X333721D01*
Y93010D01*
X333305Y93427D01*
X332472D01*
X332055Y93010D01*
Y91761D01*
Y92594D02*
X331222Y93427D01*
Y94260D02*
Y95093D01*
Y94676D01*
X333721D01*
X333305Y94260D01*
X331222Y97592D02*
X333721D01*
X332472Y96343D01*
Y98009D01*
X326322Y91761D02*
X328821D01*
Y93010D01*
X328405Y93427D01*
X327572D01*
X327155Y93010D01*
Y91761D01*
Y92594D02*
X326322Y93427D01*
Y94260D02*
Y95093D01*
Y94676D01*
X328821D01*
X328405Y94260D01*
X328821Y98009D02*
Y96343D01*
X327572D01*
X327988Y97176D01*
Y97592D01*
X327572Y98009D01*
X326739D01*
X326322Y97592D01*
Y96759D01*
X326739Y96343D01*
X321322Y91761D02*
X323821D01*
Y93010D01*
X323405Y93427D01*
X322572D01*
X322155Y93010D01*
Y91761D01*
Y92594D02*
X321322Y93427D01*
Y94260D02*
Y95093D01*
Y94676D01*
X323821D01*
X323405Y94260D01*
X323821Y98009D02*
X323405Y97176D01*
X322572Y96343D01*
X321739D01*
X321322Y96759D01*
Y97592D01*
X321739Y98009D01*
X322155D01*
X322572Y97592D01*
Y96343D01*
X310220Y100930D02*
Y103429D01*
X308970D01*
X308554Y103013D01*
Y102180D01*
X308970Y101763D01*
X310220D01*
X309387D02*
X308554Y100930D01*
X307721D02*
X306888D01*
X307304D01*
Y103429D01*
X307721Y103013D01*
X305638D02*
X305222Y103429D01*
X304388D01*
X303972Y103013D01*
Y102596D01*
X304388Y102180D01*
X303972Y101763D01*
Y101347D01*
X304388Y100930D01*
X305222D01*
X305638Y101347D01*
Y101763D01*
X305222Y102180D01*
X305638Y102596D01*
Y103013D01*
X305222Y102180D02*
X304388D01*
X326910Y117340D02*
X329409D01*
Y118590D01*
X328993Y119006D01*
X328160D01*
X327743Y118590D01*
Y117340D01*
Y118173D02*
X326910Y119006D01*
Y119839D02*
Y120672D01*
Y120256D01*
X329409D01*
X328993Y119839D01*
X327326Y121922D02*
X326910Y122338D01*
Y123171D01*
X327326Y123588D01*
X328993D01*
X329409Y123171D01*
Y122338D01*
X328993Y121922D01*
X328576D01*
X328160Y122338D01*
Y123588D01*
X345270Y120500D02*
Y122999D01*
X344020D01*
X343604Y122583D01*
Y121750D01*
X344020Y121333D01*
X345270D01*
X344437D02*
X343604Y120500D01*
X341105D02*
X342771D01*
X341105Y122166D01*
Y122583D01*
X341521Y122999D01*
X342354D01*
X342771Y122583D01*
X340272D02*
X339855Y122999D01*
X339022D01*
X338605Y122583D01*
Y120916D01*
X339022Y120500D01*
X339855D01*
X340272Y120916D01*
Y122583D01*
X269922Y121961D02*
Y124460D01*
X268672D01*
X268256Y124043D01*
Y123210D01*
X268672Y122794D01*
X269922D01*
X269089D02*
X268256Y121961D01*
X265757D02*
X267423D01*
X265757Y123627D01*
Y124043D01*
X266173Y124460D01*
X267006D01*
X267423Y124043D01*
X264924Y121961D02*
X264091D01*
X264507D01*
Y124460D01*
X264924Y124043D01*
X270022Y131561D02*
Y134060D01*
X268773D01*
X268356Y133643D01*
Y132810D01*
X268773Y132394D01*
X270022D01*
X269189D02*
X268356Y131561D01*
X265857D02*
X267523D01*
X265857Y133227D01*
Y133643D01*
X266273Y134060D01*
X267106D01*
X267523Y133643D01*
X263358Y131561D02*
X265024D01*
X263358Y133227D01*
Y133643D01*
X263774Y134060D01*
X264607D01*
X265024Y133643D01*
X269622Y117461D02*
Y119960D01*
X268373D01*
X267956Y119543D01*
Y118710D01*
X268373Y118294D01*
X269622D01*
X268789D02*
X267956Y117461D01*
X265457D02*
X267123D01*
X265457Y119127D01*
Y119543D01*
X265873Y119960D01*
X266706D01*
X267123Y119543D01*
X264624D02*
X264207Y119960D01*
X263374D01*
X262958Y119543D01*
Y119127D01*
X263374Y118710D01*
X263791D01*
X263374D01*
X262958Y118294D01*
Y117877D01*
X263374Y117461D01*
X264207D01*
X264624Y117877D01*
X298022Y156761D02*
X300521D01*
Y158010D01*
X300105Y158427D01*
X299272D01*
X298855Y158010D01*
Y156761D01*
Y157594D02*
X298022Y158427D01*
Y160926D02*
Y159260D01*
X299688Y160926D01*
X300105D01*
X300521Y160510D01*
Y159676D01*
X300105Y159260D01*
X298022Y163009D02*
X300521D01*
X299272Y161759D01*
Y163425D01*
X302922Y156761D02*
X305421D01*
Y158010D01*
X305005Y158427D01*
X304172D01*
X303755Y158010D01*
Y156761D01*
Y157594D02*
X302922Y158427D01*
Y160926D02*
Y159260D01*
X304588Y160926D01*
X305005D01*
X305421Y160510D01*
Y159676D01*
X305005Y159260D01*
X305421Y163425D02*
Y161759D01*
X304172D01*
X304588Y162592D01*
Y163009D01*
X304172Y163425D01*
X303339D01*
X302922Y163009D01*
Y162176D01*
X303339Y161759D01*
X345270Y110990D02*
Y113489D01*
X344020D01*
X343604Y113073D01*
Y112240D01*
X344020Y111823D01*
X345270D01*
X344437D02*
X343604Y110990D01*
X341105D02*
X342771D01*
X341105Y112656D01*
Y113073D01*
X341521Y113489D01*
X342354D01*
X342771Y113073D01*
X338605Y113489D02*
X339439Y113073D01*
X340272Y112240D01*
Y111407D01*
X339855Y110990D01*
X339022D01*
X338605Y111407D01*
Y111823D01*
X339022Y112240D01*
X340272D01*
X298760Y100810D02*
Y103309D01*
X297510D01*
X297094Y102893D01*
Y102060D01*
X297510Y101643D01*
X298760D01*
X297927D02*
X297094Y100810D01*
X294595D02*
X296261D01*
X294595Y102476D01*
Y102893D01*
X295011Y103309D01*
X295844D01*
X296261Y102893D01*
X293762Y103309D02*
X292095D01*
Y102893D01*
X293762Y101226D01*
Y100810D01*
X275522Y103961D02*
Y106460D01*
X274272D01*
X273856Y106043D01*
Y105210D01*
X274272Y104794D01*
X275522D01*
X274689D02*
X273856Y103961D01*
X271357D02*
X273023D01*
X271357Y105627D01*
Y106043D01*
X271773Y106460D01*
X272606D01*
X273023Y106043D01*
X270524D02*
X270107Y106460D01*
X269274D01*
X268858Y106043D01*
Y105627D01*
X269274Y105210D01*
X268858Y104794D01*
Y104377D01*
X269274Y103961D01*
X270107D01*
X270524Y104377D01*
Y104794D01*
X270107Y105210D01*
X270524Y105627D01*
Y106043D01*
X270107Y105210D02*
X269274D01*
X275622Y108461D02*
Y110960D01*
X274373D01*
X273956Y110543D01*
Y109710D01*
X274373Y109294D01*
X275622D01*
X274789D02*
X273956Y108461D01*
X271457D02*
X273123D01*
X271457Y110127D01*
Y110543D01*
X271873Y110960D01*
X272706D01*
X273123Y110543D01*
X270624Y108877D02*
X270207Y108461D01*
X269374D01*
X268958Y108877D01*
Y110543D01*
X269374Y110960D01*
X270207D01*
X270624Y110543D01*
Y110127D01*
X270207Y109710D01*
X268958D01*
X275522Y113061D02*
Y115560D01*
X274272D01*
X273856Y115143D01*
Y114310D01*
X274272Y113894D01*
X275522D01*
X274689D02*
X273856Y113061D01*
X273023Y115143D02*
X272606Y115560D01*
X271773D01*
X271357Y115143D01*
Y114727D01*
X271773Y114310D01*
X272190D01*
X271773D01*
X271357Y113894D01*
Y113477D01*
X271773Y113061D01*
X272606D01*
X273023Y113477D01*
X270524Y115143D02*
X270107Y115560D01*
X269274D01*
X268858Y115143D01*
Y113477D01*
X269274Y113061D01*
X270107D01*
X270524Y113477D01*
Y115143D01*
X344922Y115861D02*
Y118360D01*
X343672D01*
X343256Y117943D01*
Y117110D01*
X343672Y116694D01*
X344922D01*
X344089D02*
X343256Y115861D01*
X342423Y117943D02*
X342006Y118360D01*
X341173D01*
X340757Y117943D01*
Y117527D01*
X341173Y117110D01*
X341590D01*
X341173D01*
X340757Y116694D01*
Y116277D01*
X341173Y115861D01*
X342006D01*
X342423Y116277D01*
X339924Y115861D02*
X339091D01*
X339507D01*
Y118360D01*
X339924Y117943D01*
X366356Y52143D02*
X366773Y52560D01*
X367606D01*
X368022Y52143D01*
Y51727D01*
X367606Y51310D01*
X366773D01*
X366356Y50894D01*
Y50477D01*
X366773Y50061D01*
X367606D01*
X368022Y50477D01*
X365523Y50061D02*
X364690D01*
X365106D01*
Y52560D01*
X365523Y52143D01*
X331322Y149160D02*
X329656D01*
X330489D01*
Y146661D01*
X328823D02*
X327990D01*
X328406D01*
Y149160D01*
X328823Y148743D01*
X289622Y144360D02*
Y142277D01*
X289206Y141861D01*
X288372D01*
X287956Y142277D01*
Y144360D01*
X287123Y143943D02*
X286706Y144360D01*
X285873D01*
X285457Y143943D01*
Y143527D01*
X285873Y143110D01*
X286290D01*
X285873D01*
X285457Y142694D01*
Y142277D01*
X285873Y141861D01*
X286706D01*
X287123Y142277D01*
X306222Y80460D02*
Y80043D01*
X305389Y79210D01*
X304556Y80043D01*
Y80460D01*
X305389Y79210D02*
Y77961D01*
X303723D02*
X302890D01*
X303306D01*
Y80460D01*
X303723Y80043D01*
X339122Y157461D02*
Y159960D01*
X337873D01*
X337456Y159543D01*
Y158710D01*
X337873Y158294D01*
X339122D01*
X338289D02*
X337456Y157461D01*
X334957Y159960D02*
X335790Y159543D01*
X336623Y158710D01*
Y157877D01*
X336206Y157461D01*
X335373D01*
X334957Y157877D01*
Y158294D01*
X335373Y158710D01*
X336623D01*
X336522Y144061D02*
X339021D01*
Y145310D01*
X338605Y145727D01*
X337772D01*
X337355Y145310D01*
Y144061D01*
Y144894D02*
X336522Y145727D01*
X339021Y146560D02*
Y148226D01*
X338605D01*
X336939Y146560D01*
X336522D01*
X293222Y156961D02*
X295721D01*
Y158210D01*
X295305Y158627D01*
X294472D01*
X294055Y158210D01*
Y156961D01*
Y157794D02*
X293222Y158627D01*
Y160710D02*
X295721D01*
X294472Y159460D01*
Y161126D01*
X293639Y161959D02*
X293222Y162376D01*
Y163209D01*
X293639Y163625D01*
X295305D01*
X295721Y163209D01*
Y162376D01*
X295305Y161959D01*
X294888D01*
X294472Y162376D01*
Y163625D01*
X317170Y91660D02*
X319669D01*
Y92910D01*
X319253Y93326D01*
X318420D01*
X318003Y92910D01*
Y91660D01*
Y92493D02*
X317170Y93326D01*
Y94159D02*
Y94992D01*
Y94576D01*
X319669D01*
X319253Y94159D01*
X319669Y96242D02*
Y97908D01*
X319253D01*
X317586Y96242D01*
X317170D01*
X288522Y157161D02*
X291021D01*
Y158410D01*
X290605Y158827D01*
X289772D01*
X289355Y158410D01*
Y157161D01*
Y157994D02*
X288522Y158827D01*
X291021Y161326D02*
Y159660D01*
X289772D01*
X290188Y160493D01*
Y160909D01*
X289772Y161326D01*
X288939D01*
X288522Y160909D01*
Y160076D01*
X288939Y159660D01*
X288522Y163825D02*
Y162159D01*
X290188Y163825D01*
X290605D01*
X291021Y163409D01*
Y162576D01*
X290605Y162159D01*
X363193Y170946D02*
X363609Y170530D01*
Y169696D01*
X363193Y169280D01*
X361526D01*
X361110Y169696D01*
Y170530D01*
X361526Y170946D01*
X361110Y173029D02*
X363609D01*
X362360Y171779D01*
Y173445D01*
X363609Y174278D02*
Y175944D01*
X363193D01*
X361526Y174278D01*
X361110D01*
M02*
