G75*
%MOIN*%
%OFA0B0*%
%FSLAX25Y25*%
%IPPOS*%
%LPD*%
%AMOC8*
5,1,8,0,0,1.08239X$1,22.5*
%
%ADD10C,0.00000*%
%ADD11C,0.00600*%
%ADD12C,0.00400*%
%ADD13C,0.00500*%
%ADD14R,0.03000X0.01800*%
%ADD15C,0.00300*%
%ADD16C,0.02200*%
%ADD17R,0.01800X0.03000*%
D10*
X0001000Y0001000D02*
X1101000Y0001000D01*
X1101000Y0801000D01*
X0001000Y0801000D01*
X0001000Y0001000D01*
X0904250Y0410500D02*
X0904252Y0410658D01*
X0904258Y0410815D01*
X0904268Y0410973D01*
X0904282Y0411130D01*
X0904300Y0411286D01*
X0904321Y0411443D01*
X0904347Y0411598D01*
X0904377Y0411753D01*
X0904410Y0411907D01*
X0904448Y0412060D01*
X0904489Y0412213D01*
X0904534Y0412364D01*
X0904583Y0412514D01*
X0904636Y0412662D01*
X0904692Y0412810D01*
X0904753Y0412955D01*
X0904816Y0413100D01*
X0904884Y0413242D01*
X0904955Y0413383D01*
X0905029Y0413522D01*
X0905107Y0413659D01*
X0905189Y0413794D01*
X0905273Y0413927D01*
X0905362Y0414058D01*
X0905453Y0414186D01*
X0905548Y0414313D01*
X0905645Y0414436D01*
X0905746Y0414558D01*
X0905850Y0414676D01*
X0905957Y0414792D01*
X0906067Y0414905D01*
X0906179Y0415016D01*
X0906295Y0415123D01*
X0906413Y0415228D01*
X0906533Y0415330D01*
X0906656Y0415428D01*
X0906782Y0415524D01*
X0906910Y0415616D01*
X0907040Y0415705D01*
X0907172Y0415791D01*
X0907307Y0415873D01*
X0907444Y0415952D01*
X0907582Y0416027D01*
X0907722Y0416099D01*
X0907865Y0416167D01*
X0908008Y0416232D01*
X0908154Y0416293D01*
X0908301Y0416350D01*
X0908449Y0416404D01*
X0908599Y0416454D01*
X0908749Y0416500D01*
X0908901Y0416542D01*
X0909054Y0416581D01*
X0909208Y0416615D01*
X0909363Y0416646D01*
X0909518Y0416672D01*
X0909674Y0416695D01*
X0909831Y0416714D01*
X0909988Y0416729D01*
X0910145Y0416740D01*
X0910303Y0416747D01*
X0910461Y0416750D01*
X0910618Y0416749D01*
X0910776Y0416744D01*
X0910933Y0416735D01*
X0911091Y0416722D01*
X0911247Y0416705D01*
X0911404Y0416684D01*
X0911559Y0416660D01*
X0911714Y0416631D01*
X0911869Y0416598D01*
X0912022Y0416562D01*
X0912175Y0416521D01*
X0912326Y0416477D01*
X0912476Y0416429D01*
X0912625Y0416378D01*
X0912773Y0416322D01*
X0912919Y0416263D01*
X0913064Y0416200D01*
X0913207Y0416133D01*
X0913348Y0416063D01*
X0913487Y0415990D01*
X0913625Y0415913D01*
X0913761Y0415832D01*
X0913894Y0415748D01*
X0914025Y0415661D01*
X0914154Y0415570D01*
X0914281Y0415476D01*
X0914406Y0415379D01*
X0914527Y0415279D01*
X0914647Y0415176D01*
X0914763Y0415070D01*
X0914877Y0414961D01*
X0914989Y0414849D01*
X0915097Y0414735D01*
X0915202Y0414617D01*
X0915305Y0414497D01*
X0915404Y0414375D01*
X0915500Y0414250D01*
X0915593Y0414122D01*
X0915683Y0413993D01*
X0915769Y0413861D01*
X0915853Y0413727D01*
X0915932Y0413591D01*
X0916009Y0413453D01*
X0916081Y0413313D01*
X0916150Y0413171D01*
X0916216Y0413028D01*
X0916278Y0412883D01*
X0916336Y0412736D01*
X0916391Y0412588D01*
X0916442Y0412439D01*
X0916489Y0412288D01*
X0916532Y0412137D01*
X0916571Y0411984D01*
X0916607Y0411830D01*
X0916638Y0411676D01*
X0916666Y0411521D01*
X0916690Y0411365D01*
X0916710Y0411208D01*
X0916726Y0411051D01*
X0916738Y0410894D01*
X0916746Y0410737D01*
X0916750Y0410579D01*
X0916750Y0410421D01*
X0916746Y0410263D01*
X0916738Y0410106D01*
X0916726Y0409949D01*
X0916710Y0409792D01*
X0916690Y0409635D01*
X0916666Y0409479D01*
X0916638Y0409324D01*
X0916607Y0409170D01*
X0916571Y0409016D01*
X0916532Y0408863D01*
X0916489Y0408712D01*
X0916442Y0408561D01*
X0916391Y0408412D01*
X0916336Y0408264D01*
X0916278Y0408117D01*
X0916216Y0407972D01*
X0916150Y0407829D01*
X0916081Y0407687D01*
X0916009Y0407547D01*
X0915932Y0407409D01*
X0915853Y0407273D01*
X0915769Y0407139D01*
X0915683Y0407007D01*
X0915593Y0406878D01*
X0915500Y0406750D01*
X0915404Y0406625D01*
X0915305Y0406503D01*
X0915202Y0406383D01*
X0915097Y0406265D01*
X0914989Y0406151D01*
X0914877Y0406039D01*
X0914763Y0405930D01*
X0914647Y0405824D01*
X0914527Y0405721D01*
X0914406Y0405621D01*
X0914281Y0405524D01*
X0914154Y0405430D01*
X0914025Y0405339D01*
X0913894Y0405252D01*
X0913761Y0405168D01*
X0913625Y0405087D01*
X0913487Y0405010D01*
X0913348Y0404937D01*
X0913207Y0404867D01*
X0913064Y0404800D01*
X0912919Y0404737D01*
X0912773Y0404678D01*
X0912625Y0404622D01*
X0912476Y0404571D01*
X0912326Y0404523D01*
X0912175Y0404479D01*
X0912022Y0404438D01*
X0911869Y0404402D01*
X0911714Y0404369D01*
X0911559Y0404340D01*
X0911404Y0404316D01*
X0911247Y0404295D01*
X0911091Y0404278D01*
X0910933Y0404265D01*
X0910776Y0404256D01*
X0910618Y0404251D01*
X0910461Y0404250D01*
X0910303Y0404253D01*
X0910145Y0404260D01*
X0909988Y0404271D01*
X0909831Y0404286D01*
X0909674Y0404305D01*
X0909518Y0404328D01*
X0909363Y0404354D01*
X0909208Y0404385D01*
X0909054Y0404419D01*
X0908901Y0404458D01*
X0908749Y0404500D01*
X0908599Y0404546D01*
X0908449Y0404596D01*
X0908301Y0404650D01*
X0908154Y0404707D01*
X0908008Y0404768D01*
X0907865Y0404833D01*
X0907722Y0404901D01*
X0907582Y0404973D01*
X0907444Y0405048D01*
X0907307Y0405127D01*
X0907172Y0405209D01*
X0907040Y0405295D01*
X0906910Y0405384D01*
X0906782Y0405476D01*
X0906656Y0405572D01*
X0906533Y0405670D01*
X0906413Y0405772D01*
X0906295Y0405877D01*
X0906179Y0405984D01*
X0906067Y0406095D01*
X0905957Y0406208D01*
X0905850Y0406324D01*
X0905746Y0406442D01*
X0905645Y0406564D01*
X0905548Y0406687D01*
X0905453Y0406814D01*
X0905362Y0406942D01*
X0905273Y0407073D01*
X0905189Y0407206D01*
X0905107Y0407341D01*
X0905029Y0407478D01*
X0904955Y0407617D01*
X0904884Y0407758D01*
X0904816Y0407900D01*
X0904753Y0408045D01*
X0904692Y0408190D01*
X0904636Y0408338D01*
X0904583Y0408486D01*
X0904534Y0408636D01*
X0904489Y0408787D01*
X0904448Y0408940D01*
X0904410Y0409093D01*
X0904377Y0409247D01*
X0904347Y0409402D01*
X0904321Y0409557D01*
X0904300Y0409714D01*
X0904282Y0409870D01*
X0904268Y0410027D01*
X0904258Y0410185D01*
X0904252Y0410342D01*
X0904250Y0410500D01*
X0699335Y0793000D02*
X0699337Y0793093D01*
X0699343Y0793185D01*
X0699353Y0793277D01*
X0699367Y0793368D01*
X0699384Y0793459D01*
X0699406Y0793549D01*
X0699431Y0793638D01*
X0699460Y0793726D01*
X0699493Y0793812D01*
X0699530Y0793897D01*
X0699570Y0793981D01*
X0699614Y0794062D01*
X0699661Y0794142D01*
X0699711Y0794220D01*
X0699765Y0794295D01*
X0699822Y0794368D01*
X0699882Y0794438D01*
X0699945Y0794506D01*
X0700011Y0794571D01*
X0700079Y0794633D01*
X0700150Y0794693D01*
X0700224Y0794749D01*
X0700300Y0794802D01*
X0700378Y0794851D01*
X0700458Y0794898D01*
X0700540Y0794940D01*
X0700624Y0794980D01*
X0700709Y0795015D01*
X0700796Y0795047D01*
X0700884Y0795076D01*
X0700973Y0795100D01*
X0701063Y0795121D01*
X0701154Y0795137D01*
X0701246Y0795150D01*
X0701338Y0795159D01*
X0701431Y0795164D01*
X0701523Y0795165D01*
X0701616Y0795162D01*
X0701708Y0795155D01*
X0701800Y0795144D01*
X0701891Y0795129D01*
X0701982Y0795111D01*
X0702072Y0795088D01*
X0702160Y0795062D01*
X0702248Y0795032D01*
X0702334Y0794998D01*
X0702418Y0794961D01*
X0702501Y0794919D01*
X0702582Y0794875D01*
X0702662Y0794827D01*
X0702739Y0794776D01*
X0702813Y0794721D01*
X0702886Y0794663D01*
X0702956Y0794603D01*
X0703023Y0794539D01*
X0703087Y0794473D01*
X0703149Y0794403D01*
X0703207Y0794332D01*
X0703262Y0794258D01*
X0703314Y0794181D01*
X0703363Y0794102D01*
X0703409Y0794022D01*
X0703451Y0793939D01*
X0703489Y0793855D01*
X0703524Y0793769D01*
X0703555Y0793682D01*
X0703582Y0793594D01*
X0703605Y0793504D01*
X0703625Y0793414D01*
X0703641Y0793323D01*
X0703653Y0793231D01*
X0703661Y0793139D01*
X0703665Y0793046D01*
X0703665Y0792954D01*
X0703661Y0792861D01*
X0703653Y0792769D01*
X0703641Y0792677D01*
X0703625Y0792586D01*
X0703605Y0792496D01*
X0703582Y0792406D01*
X0703555Y0792318D01*
X0703524Y0792231D01*
X0703489Y0792145D01*
X0703451Y0792061D01*
X0703409Y0791978D01*
X0703363Y0791898D01*
X0703314Y0791819D01*
X0703262Y0791742D01*
X0703207Y0791668D01*
X0703149Y0791597D01*
X0703087Y0791527D01*
X0703023Y0791461D01*
X0702956Y0791397D01*
X0702886Y0791337D01*
X0702813Y0791279D01*
X0702739Y0791224D01*
X0702662Y0791173D01*
X0702583Y0791125D01*
X0702501Y0791081D01*
X0702418Y0791039D01*
X0702334Y0791002D01*
X0702248Y0790968D01*
X0702160Y0790938D01*
X0702072Y0790912D01*
X0701982Y0790889D01*
X0701891Y0790871D01*
X0701800Y0790856D01*
X0701708Y0790845D01*
X0701616Y0790838D01*
X0701523Y0790835D01*
X0701431Y0790836D01*
X0701338Y0790841D01*
X0701246Y0790850D01*
X0701154Y0790863D01*
X0701063Y0790879D01*
X0700973Y0790900D01*
X0700884Y0790924D01*
X0700796Y0790953D01*
X0700709Y0790985D01*
X0700624Y0791020D01*
X0700540Y0791060D01*
X0700458Y0791102D01*
X0700378Y0791149D01*
X0700300Y0791198D01*
X0700224Y0791251D01*
X0700150Y0791307D01*
X0700079Y0791367D01*
X0700011Y0791429D01*
X0699945Y0791494D01*
X0699882Y0791562D01*
X0699822Y0791632D01*
X0699765Y0791705D01*
X0699711Y0791780D01*
X0699661Y0791858D01*
X0699614Y0791938D01*
X0699570Y0792019D01*
X0699530Y0792103D01*
X0699493Y0792188D01*
X0699460Y0792274D01*
X0699431Y0792362D01*
X0699406Y0792451D01*
X0699384Y0792541D01*
X0699367Y0792632D01*
X0699353Y0792723D01*
X0699343Y0792815D01*
X0699337Y0792907D01*
X0699335Y0793000D01*
X0689335Y0793000D02*
X0689337Y0793093D01*
X0689343Y0793185D01*
X0689353Y0793277D01*
X0689367Y0793368D01*
X0689384Y0793459D01*
X0689406Y0793549D01*
X0689431Y0793638D01*
X0689460Y0793726D01*
X0689493Y0793812D01*
X0689530Y0793897D01*
X0689570Y0793981D01*
X0689614Y0794062D01*
X0689661Y0794142D01*
X0689711Y0794220D01*
X0689765Y0794295D01*
X0689822Y0794368D01*
X0689882Y0794438D01*
X0689945Y0794506D01*
X0690011Y0794571D01*
X0690079Y0794633D01*
X0690150Y0794693D01*
X0690224Y0794749D01*
X0690300Y0794802D01*
X0690378Y0794851D01*
X0690458Y0794898D01*
X0690540Y0794940D01*
X0690624Y0794980D01*
X0690709Y0795015D01*
X0690796Y0795047D01*
X0690884Y0795076D01*
X0690973Y0795100D01*
X0691063Y0795121D01*
X0691154Y0795137D01*
X0691246Y0795150D01*
X0691338Y0795159D01*
X0691431Y0795164D01*
X0691523Y0795165D01*
X0691616Y0795162D01*
X0691708Y0795155D01*
X0691800Y0795144D01*
X0691891Y0795129D01*
X0691982Y0795111D01*
X0692072Y0795088D01*
X0692160Y0795062D01*
X0692248Y0795032D01*
X0692334Y0794998D01*
X0692418Y0794961D01*
X0692501Y0794919D01*
X0692582Y0794875D01*
X0692662Y0794827D01*
X0692739Y0794776D01*
X0692813Y0794721D01*
X0692886Y0794663D01*
X0692956Y0794603D01*
X0693023Y0794539D01*
X0693087Y0794473D01*
X0693149Y0794403D01*
X0693207Y0794332D01*
X0693262Y0794258D01*
X0693314Y0794181D01*
X0693363Y0794102D01*
X0693409Y0794022D01*
X0693451Y0793939D01*
X0693489Y0793855D01*
X0693524Y0793769D01*
X0693555Y0793682D01*
X0693582Y0793594D01*
X0693605Y0793504D01*
X0693625Y0793414D01*
X0693641Y0793323D01*
X0693653Y0793231D01*
X0693661Y0793139D01*
X0693665Y0793046D01*
X0693665Y0792954D01*
X0693661Y0792861D01*
X0693653Y0792769D01*
X0693641Y0792677D01*
X0693625Y0792586D01*
X0693605Y0792496D01*
X0693582Y0792406D01*
X0693555Y0792318D01*
X0693524Y0792231D01*
X0693489Y0792145D01*
X0693451Y0792061D01*
X0693409Y0791978D01*
X0693363Y0791898D01*
X0693314Y0791819D01*
X0693262Y0791742D01*
X0693207Y0791668D01*
X0693149Y0791597D01*
X0693087Y0791527D01*
X0693023Y0791461D01*
X0692956Y0791397D01*
X0692886Y0791337D01*
X0692813Y0791279D01*
X0692739Y0791224D01*
X0692662Y0791173D01*
X0692583Y0791125D01*
X0692501Y0791081D01*
X0692418Y0791039D01*
X0692334Y0791002D01*
X0692248Y0790968D01*
X0692160Y0790938D01*
X0692072Y0790912D01*
X0691982Y0790889D01*
X0691891Y0790871D01*
X0691800Y0790856D01*
X0691708Y0790845D01*
X0691616Y0790838D01*
X0691523Y0790835D01*
X0691431Y0790836D01*
X0691338Y0790841D01*
X0691246Y0790850D01*
X0691154Y0790863D01*
X0691063Y0790879D01*
X0690973Y0790900D01*
X0690884Y0790924D01*
X0690796Y0790953D01*
X0690709Y0790985D01*
X0690624Y0791020D01*
X0690540Y0791060D01*
X0690458Y0791102D01*
X0690378Y0791149D01*
X0690300Y0791198D01*
X0690224Y0791251D01*
X0690150Y0791307D01*
X0690079Y0791367D01*
X0690011Y0791429D01*
X0689945Y0791494D01*
X0689882Y0791562D01*
X0689822Y0791632D01*
X0689765Y0791705D01*
X0689711Y0791780D01*
X0689661Y0791858D01*
X0689614Y0791938D01*
X0689570Y0792019D01*
X0689530Y0792103D01*
X0689493Y0792188D01*
X0689460Y0792274D01*
X0689431Y0792362D01*
X0689406Y0792451D01*
X0689384Y0792541D01*
X0689367Y0792632D01*
X0689353Y0792723D01*
X0689343Y0792815D01*
X0689337Y0792907D01*
X0689335Y0793000D01*
X0679335Y0793000D02*
X0679337Y0793093D01*
X0679343Y0793185D01*
X0679353Y0793277D01*
X0679367Y0793368D01*
X0679384Y0793459D01*
X0679406Y0793549D01*
X0679431Y0793638D01*
X0679460Y0793726D01*
X0679493Y0793812D01*
X0679530Y0793897D01*
X0679570Y0793981D01*
X0679614Y0794062D01*
X0679661Y0794142D01*
X0679711Y0794220D01*
X0679765Y0794295D01*
X0679822Y0794368D01*
X0679882Y0794438D01*
X0679945Y0794506D01*
X0680011Y0794571D01*
X0680079Y0794633D01*
X0680150Y0794693D01*
X0680224Y0794749D01*
X0680300Y0794802D01*
X0680378Y0794851D01*
X0680458Y0794898D01*
X0680540Y0794940D01*
X0680624Y0794980D01*
X0680709Y0795015D01*
X0680796Y0795047D01*
X0680884Y0795076D01*
X0680973Y0795100D01*
X0681063Y0795121D01*
X0681154Y0795137D01*
X0681246Y0795150D01*
X0681338Y0795159D01*
X0681431Y0795164D01*
X0681523Y0795165D01*
X0681616Y0795162D01*
X0681708Y0795155D01*
X0681800Y0795144D01*
X0681891Y0795129D01*
X0681982Y0795111D01*
X0682072Y0795088D01*
X0682160Y0795062D01*
X0682248Y0795032D01*
X0682334Y0794998D01*
X0682418Y0794961D01*
X0682501Y0794919D01*
X0682582Y0794875D01*
X0682662Y0794827D01*
X0682739Y0794776D01*
X0682813Y0794721D01*
X0682886Y0794663D01*
X0682956Y0794603D01*
X0683023Y0794539D01*
X0683087Y0794473D01*
X0683149Y0794403D01*
X0683207Y0794332D01*
X0683262Y0794258D01*
X0683314Y0794181D01*
X0683363Y0794102D01*
X0683409Y0794022D01*
X0683451Y0793939D01*
X0683489Y0793855D01*
X0683524Y0793769D01*
X0683555Y0793682D01*
X0683582Y0793594D01*
X0683605Y0793504D01*
X0683625Y0793414D01*
X0683641Y0793323D01*
X0683653Y0793231D01*
X0683661Y0793139D01*
X0683665Y0793046D01*
X0683665Y0792954D01*
X0683661Y0792861D01*
X0683653Y0792769D01*
X0683641Y0792677D01*
X0683625Y0792586D01*
X0683605Y0792496D01*
X0683582Y0792406D01*
X0683555Y0792318D01*
X0683524Y0792231D01*
X0683489Y0792145D01*
X0683451Y0792061D01*
X0683409Y0791978D01*
X0683363Y0791898D01*
X0683314Y0791819D01*
X0683262Y0791742D01*
X0683207Y0791668D01*
X0683149Y0791597D01*
X0683087Y0791527D01*
X0683023Y0791461D01*
X0682956Y0791397D01*
X0682886Y0791337D01*
X0682813Y0791279D01*
X0682739Y0791224D01*
X0682662Y0791173D01*
X0682583Y0791125D01*
X0682501Y0791081D01*
X0682418Y0791039D01*
X0682334Y0791002D01*
X0682248Y0790968D01*
X0682160Y0790938D01*
X0682072Y0790912D01*
X0681982Y0790889D01*
X0681891Y0790871D01*
X0681800Y0790856D01*
X0681708Y0790845D01*
X0681616Y0790838D01*
X0681523Y0790835D01*
X0681431Y0790836D01*
X0681338Y0790841D01*
X0681246Y0790850D01*
X0681154Y0790863D01*
X0681063Y0790879D01*
X0680973Y0790900D01*
X0680884Y0790924D01*
X0680796Y0790953D01*
X0680709Y0790985D01*
X0680624Y0791020D01*
X0680540Y0791060D01*
X0680458Y0791102D01*
X0680378Y0791149D01*
X0680300Y0791198D01*
X0680224Y0791251D01*
X0680150Y0791307D01*
X0680079Y0791367D01*
X0680011Y0791429D01*
X0679945Y0791494D01*
X0679882Y0791562D01*
X0679822Y0791632D01*
X0679765Y0791705D01*
X0679711Y0791780D01*
X0679661Y0791858D01*
X0679614Y0791938D01*
X0679570Y0792019D01*
X0679530Y0792103D01*
X0679493Y0792188D01*
X0679460Y0792274D01*
X0679431Y0792362D01*
X0679406Y0792451D01*
X0679384Y0792541D01*
X0679367Y0792632D01*
X0679353Y0792723D01*
X0679343Y0792815D01*
X0679337Y0792907D01*
X0679335Y0793000D01*
D11*
X0832500Y0700500D02*
X0832500Y0683000D01*
X0835000Y0680500D01*
X0840000Y0680500D01*
X0842500Y0683000D01*
X0845000Y0680500D01*
X0850000Y0680500D01*
X0852500Y0683000D01*
X0855000Y0680500D01*
X0860000Y0680500D01*
X0862500Y0683000D01*
X0865000Y0680500D01*
X0870000Y0680500D01*
X0872500Y0683000D01*
X0875000Y0680500D01*
X0877500Y0680500D01*
X0877500Y0677000D01*
X0877500Y0680500D02*
X0880000Y0680500D01*
X0882500Y0683000D01*
X0885000Y0680500D01*
X0890000Y0680500D01*
X0892500Y0683000D01*
X0895000Y0680500D01*
X0900000Y0680500D01*
X0902500Y0683000D01*
X0905000Y0680500D01*
X0910000Y0680500D01*
X0912500Y0683000D01*
X0915000Y0680500D01*
X0920000Y0680500D01*
X0922500Y0683000D01*
X0925000Y0680500D01*
X0927500Y0680500D01*
X0927500Y0679500D01*
X0927500Y0680500D02*
X0930000Y0680500D01*
X0932500Y0683000D01*
X0935000Y0680500D01*
X0940000Y0680500D01*
X0942500Y0683000D01*
X0945000Y0680500D01*
X0950000Y0680500D01*
X0952500Y0683000D01*
X0955000Y0680500D01*
X0960000Y0680500D01*
X0962500Y0683000D01*
X0965000Y0680500D01*
X0970000Y0680500D01*
X0972500Y0683000D01*
X0975000Y0680500D01*
X0977500Y0680500D01*
X0977500Y0679500D01*
X0977500Y0680500D02*
X0980000Y0680500D01*
X0982500Y0683000D01*
X0985000Y0680500D01*
X0990000Y0680500D01*
X0992500Y0683000D01*
X0995000Y0680500D01*
X1000000Y0680500D01*
X1002500Y0683000D01*
X1005000Y0680500D01*
X1010000Y0680500D01*
X1012500Y0683000D01*
X1015000Y0680500D01*
X1020000Y0680500D01*
X1022500Y0683000D01*
X1025000Y0680500D01*
X1027500Y0680500D01*
X1027500Y0677000D01*
X1027500Y0680500D02*
X1030000Y0680500D01*
X1032500Y0683000D01*
X1035000Y0680500D01*
X1040000Y0680500D01*
X1042500Y0683000D01*
X1045000Y0680500D01*
X1050000Y0680500D01*
X1052500Y0683000D01*
X1055000Y0680500D01*
X1060000Y0680500D01*
X1062500Y0683000D01*
X1062500Y0698000D01*
X1060000Y0700500D01*
X1055000Y0700500D01*
X1052500Y0698000D01*
X1050000Y0700500D01*
X1045000Y0700500D01*
X1042500Y0698000D01*
X1040000Y0700500D01*
X1035000Y0700500D01*
X1032500Y0698000D01*
X1030000Y0700500D01*
X1025000Y0700500D01*
X1022500Y0698000D01*
X1020000Y0700500D01*
X1015000Y0700500D01*
X1012500Y0698000D01*
X1010000Y0700500D01*
X1005000Y0700500D01*
X1002500Y0698000D01*
X1000000Y0700500D01*
X0995000Y0700500D01*
X0992500Y0698000D01*
X0990000Y0700500D01*
X0985000Y0700500D01*
X0982500Y0698000D01*
X0980000Y0700500D01*
X0975000Y0700500D01*
X0972500Y0698000D01*
X0970000Y0700500D01*
X0965000Y0700500D01*
X0962500Y0698000D01*
X0960000Y0700500D01*
X0955000Y0700500D01*
X0952500Y0698000D01*
X0950000Y0700500D01*
X0945000Y0700500D01*
X0942500Y0698000D01*
X0940000Y0700500D01*
X0935000Y0700500D01*
X0932500Y0698000D01*
X0930000Y0700500D01*
X0925000Y0700500D01*
X0922500Y0698000D01*
X0920000Y0700500D01*
X0915000Y0700500D01*
X0912500Y0698000D01*
X0910000Y0700500D01*
X0905000Y0700500D01*
X0902500Y0698000D01*
X0900000Y0700500D01*
X0895000Y0700500D01*
X0892500Y0698000D01*
X0890000Y0700500D01*
X0885000Y0700500D01*
X0882500Y0698000D01*
X0880000Y0700500D01*
X0875000Y0700500D01*
X0872500Y0698000D01*
X0870000Y0700500D01*
X0865000Y0700500D01*
X0862500Y0698000D01*
X0860000Y0700500D01*
X0855000Y0700500D01*
X0852500Y0698000D01*
X0850000Y0700500D01*
X0845000Y0700500D01*
X0842500Y0698000D01*
X0842500Y0700500D01*
X0832500Y0700500D01*
X0877500Y0701000D02*
X0877500Y0704500D01*
X0927500Y0704500D02*
X0927500Y0701000D01*
X0977500Y0701000D02*
X0977500Y0704500D01*
X1027500Y0704500D02*
X1027500Y0701000D01*
X1027500Y0512500D02*
X1027500Y0511000D01*
X1025000Y0510500D02*
X1030000Y0510500D01*
X1032500Y0508000D01*
X1035000Y0510500D01*
X1040000Y0510500D01*
X1042500Y0508000D01*
X1045000Y0510500D01*
X1050000Y0510500D01*
X1052500Y0508000D01*
X1055000Y0510500D01*
X1060000Y0510500D01*
X1062500Y0508000D01*
X1062500Y0493000D01*
X1060000Y0490500D01*
X1055000Y0490500D01*
X1052500Y0493000D01*
X1050000Y0490500D01*
X1045000Y0490500D01*
X1042500Y0493000D01*
X1040000Y0490500D01*
X1035000Y0490500D01*
X1032500Y0493000D01*
X1030000Y0490500D01*
X1027500Y0490500D01*
X1027500Y0488000D01*
X1027500Y0490500D02*
X1025000Y0490500D01*
X1022500Y0493000D01*
X1020000Y0490500D01*
X1015000Y0490500D01*
X1012500Y0493000D01*
X1010000Y0490500D01*
X1005000Y0490500D01*
X1002500Y0493000D01*
X1000000Y0490500D01*
X0995000Y0490500D01*
X0992500Y0493000D01*
X0990000Y0490500D01*
X0985000Y0490500D01*
X0982500Y0493000D01*
X0980000Y0490500D01*
X0977500Y0490500D01*
X0977500Y0489000D01*
X0977500Y0490500D02*
X0975000Y0490500D01*
X0972500Y0493000D01*
X0970000Y0490500D01*
X0965000Y0490500D01*
X0962500Y0493000D01*
X0960000Y0490500D01*
X0955000Y0490500D01*
X0952500Y0493000D01*
X0950000Y0490500D01*
X0945000Y0490500D01*
X0942500Y0493000D01*
X0940000Y0490500D01*
X0935000Y0490500D01*
X0932500Y0493000D01*
X0930000Y0490500D01*
X0927500Y0490500D01*
X0927500Y0487000D01*
X0927500Y0490500D02*
X0925000Y0490500D01*
X0922500Y0493000D01*
X0920000Y0490500D01*
X0915000Y0490500D01*
X0912500Y0493000D01*
X0910000Y0490500D01*
X0905000Y0490500D01*
X0902500Y0493000D01*
X0900000Y0490500D01*
X0895000Y0490500D01*
X0892500Y0493000D01*
X0890000Y0490500D01*
X0885000Y0490500D01*
X0882500Y0493000D01*
X0880000Y0490500D01*
X0877500Y0490500D01*
X0877500Y0487000D01*
X0877500Y0490500D02*
X0875000Y0490500D01*
X0872500Y0493000D01*
X0870000Y0490500D01*
X0865000Y0490500D01*
X0862500Y0493000D01*
X0860000Y0490500D01*
X0855000Y0490500D01*
X0852500Y0493000D01*
X0850000Y0490500D01*
X0845000Y0490500D01*
X0842500Y0493000D01*
X0840000Y0490500D01*
X0835000Y0490500D01*
X0832500Y0493000D01*
X0832500Y0510500D01*
X0842500Y0510500D01*
X0842500Y0508000D01*
X0845000Y0510500D01*
X0850000Y0510500D01*
X0852500Y0508000D01*
X0855000Y0510500D01*
X0860000Y0510500D01*
X0862500Y0508000D01*
X0865000Y0510500D01*
X0870000Y0510500D01*
X0872500Y0508000D01*
X0875000Y0510500D01*
X0880000Y0510500D01*
X0882500Y0508000D01*
X0885000Y0510500D01*
X0890000Y0510500D01*
X0892500Y0508000D01*
X0895000Y0510500D01*
X0900000Y0510500D01*
X0902500Y0508000D01*
X0905000Y0510500D01*
X0910000Y0510500D01*
X0912500Y0508000D01*
X0915000Y0510500D01*
X0920000Y0510500D01*
X0922500Y0508000D01*
X0925000Y0510500D01*
X0930000Y0510500D01*
X0932500Y0508000D01*
X0935000Y0510500D01*
X0940000Y0510500D01*
X0942500Y0508000D01*
X0945000Y0510500D01*
X0950000Y0510500D01*
X0952500Y0508000D01*
X0955000Y0510500D01*
X0960000Y0510500D01*
X0962500Y0508000D01*
X0965000Y0510500D01*
X0970000Y0510500D01*
X0972500Y0508000D01*
X0975000Y0510500D01*
X0980000Y0510500D01*
X0982500Y0508000D01*
X0985000Y0510500D01*
X0990000Y0510500D01*
X0992500Y0508000D01*
X0995000Y0510500D01*
X1000000Y0510500D01*
X1002500Y0508000D01*
X1005000Y0510500D01*
X1010000Y0510500D01*
X1012500Y0508000D01*
X1015000Y0510500D01*
X1020000Y0510500D01*
X1022500Y0508000D01*
X1025000Y0510500D01*
X0977500Y0511000D02*
X0977500Y0511500D01*
X0927500Y0511000D02*
X0927500Y0514500D01*
X0877500Y0514500D02*
X0877500Y0511000D01*
X0800420Y0379485D02*
X0798618Y0377683D01*
X0796817Y0379485D01*
X0796817Y0374080D01*
X0794895Y0374080D02*
X0792193Y0374080D01*
X0791292Y0374981D01*
X0791292Y0378584D01*
X0792193Y0379485D01*
X0794895Y0379485D01*
X0794895Y0374080D01*
X0800420Y0374080D02*
X0800420Y0379485D01*
X0789370Y0378584D02*
X0788469Y0379485D01*
X0786668Y0379485D01*
X0785767Y0378584D01*
X0785767Y0377683D01*
X0789370Y0374080D01*
X0785767Y0374080D01*
X0594565Y0289205D02*
X0592430Y0289205D01*
X0593497Y0289205D02*
X0593497Y0283868D01*
X0594565Y0282800D01*
X0595632Y0282800D01*
X0596700Y0283868D01*
X0590255Y0286003D02*
X0585984Y0286003D01*
X0587052Y0289205D02*
X0590255Y0286003D01*
X0587052Y0282800D02*
X0587052Y0289205D01*
X0575669Y0279089D02*
X0575669Y0270240D01*
X0532362Y0270240D01*
X0532362Y0279089D01*
X0412700Y0315868D02*
X0411632Y0314800D01*
X0410565Y0314800D01*
X0409497Y0315868D01*
X0409497Y0321205D01*
X0408430Y0321205D02*
X0410565Y0321205D01*
X0406255Y0320138D02*
X0405187Y0321205D01*
X0403052Y0321205D01*
X0401984Y0320138D01*
X0401984Y0319070D01*
X0403052Y0318003D01*
X0401984Y0316935D01*
X0401984Y0315868D01*
X0403052Y0314800D01*
X0405187Y0314800D01*
X0406255Y0315868D01*
X0404119Y0318003D02*
X0403052Y0318003D01*
X0395411Y0312422D02*
X0395411Y0306622D01*
X0298526Y0306622D01*
X0298526Y0312422D01*
X0298526Y0323722D02*
X0298526Y0325922D01*
X0387211Y0325922D02*
X0395411Y0325922D01*
X0395411Y0323722D01*
X0925500Y0182000D02*
X0925500Y0167000D01*
X0928000Y0164500D01*
X0933000Y0164500D01*
X0935500Y0167000D01*
X0938000Y0164500D01*
X0943000Y0164500D01*
X0945500Y0167000D01*
X0948000Y0164500D01*
X0953000Y0164500D01*
X0955500Y0167000D01*
X0958000Y0164500D01*
X0963000Y0164500D01*
X0965500Y0167000D01*
X0968000Y0164500D01*
X0973000Y0164500D01*
X0975500Y0167000D01*
X0978000Y0164500D01*
X0983000Y0164500D01*
X0985500Y0167000D01*
X0988000Y0164500D01*
X0993000Y0164500D01*
X0995500Y0167000D01*
X0998000Y0164500D01*
X1003000Y0164500D01*
X1005500Y0167000D01*
X1008000Y0164500D01*
X1013000Y0164500D01*
X1015500Y0167000D01*
X1018000Y0164500D01*
X1023000Y0164500D01*
X1025500Y0167000D01*
X1028000Y0164500D01*
X1033000Y0164500D01*
X1035500Y0167000D01*
X1035500Y0164500D01*
X1045500Y0164500D01*
X1045500Y0182000D01*
X1043000Y0184500D01*
X1038000Y0184500D01*
X1035500Y0182000D01*
X1033000Y0184500D01*
X1028000Y0184500D01*
X1025500Y0182000D01*
X1023000Y0184500D01*
X1018000Y0184500D01*
X1015500Y0182000D01*
X1013000Y0184500D01*
X1008000Y0184500D01*
X1005500Y0182000D01*
X1003000Y0184500D01*
X0998000Y0184500D01*
X0995500Y0182000D01*
X0993000Y0184500D01*
X0988000Y0184500D01*
X0985500Y0182000D01*
X0983000Y0184500D01*
X0978000Y0184500D01*
X0975500Y0182000D01*
X0973000Y0184500D01*
X0968000Y0184500D01*
X0965500Y0182000D01*
X0963000Y0184500D01*
X0958000Y0184500D01*
X0955500Y0182000D01*
X0953000Y0184500D01*
X0948000Y0184500D01*
X0945500Y0182000D01*
X0943000Y0184500D01*
X0938000Y0184500D01*
X0935500Y0182000D01*
X0933000Y0184500D01*
X0928000Y0184500D01*
X0925500Y0182000D01*
D12*
X0538269Y0296700D02*
X0535200Y0296700D01*
X0536735Y0296700D02*
X0536735Y0301304D01*
X0535200Y0299769D01*
X0303269Y0330700D02*
X0300200Y0330700D01*
X0301735Y0330700D02*
X0301735Y0335304D01*
X0300200Y0333769D01*
D13*
X0316500Y0333500D02*
X0316500Y0335000D01*
X0326500Y0333500D02*
X0326500Y0336500D01*
X0336000Y0335000D02*
X0336000Y0333500D01*
X0346000Y0333500D02*
X0346000Y0336500D01*
X0356000Y0335000D02*
X0356000Y0333500D01*
X0366000Y0333500D02*
X0366000Y0336500D01*
X0375500Y0335000D02*
X0375500Y0333500D01*
X0385000Y0333500D02*
X0385000Y0336500D01*
D14*
X0560500Y0312000D03*
X0957500Y0481000D03*
X0967500Y0481000D03*
X0977500Y0481000D03*
X0987500Y0481000D03*
X0997500Y0481000D03*
X1007500Y0481000D03*
X1017500Y0481000D03*
X1027500Y0481000D03*
X1037500Y0481000D03*
X1047500Y0481000D03*
X1057500Y0481000D03*
X1057500Y0520500D03*
X1047500Y0520500D03*
X1037500Y0520500D03*
X1027500Y0520500D03*
X1017500Y0520500D03*
X1007500Y0520500D03*
X0997500Y0520500D03*
X0987500Y0520500D03*
X0977500Y0520500D03*
X0967500Y0520500D03*
D15*
X0970575Y0522310D02*
X0973478Y0522310D01*
X0973478Y0523762D01*
X0972994Y0524245D01*
X0972026Y0524245D01*
X0971543Y0523762D01*
X0971543Y0522310D01*
X0971543Y0523278D02*
X0970575Y0524245D01*
X0970575Y0525257D02*
X0970575Y0527192D01*
X0970575Y0526224D02*
X0973478Y0526224D01*
X0972510Y0525257D01*
X0972510Y0528203D02*
X0972026Y0528687D01*
X0972026Y0530138D01*
X0971059Y0530138D02*
X0972994Y0530138D01*
X0973478Y0529655D01*
X0973478Y0528687D01*
X0972994Y0528203D01*
X0972510Y0528203D01*
X0971059Y0528203D02*
X0970575Y0528687D01*
X0970575Y0529655D01*
X0971059Y0530138D01*
X0980575Y0527203D02*
X0981059Y0527203D01*
X0982994Y0529138D01*
X0983478Y0529138D01*
X0983478Y0527203D01*
X0983478Y0525224D02*
X0980575Y0525224D01*
X0980575Y0524257D02*
X0980575Y0526192D01*
X0982510Y0524257D02*
X0983478Y0525224D01*
X0982994Y0523245D02*
X0982026Y0523245D01*
X0981543Y0522762D01*
X0981543Y0521310D01*
X0980575Y0521310D02*
X0983478Y0521310D01*
X0983478Y0522762D01*
X0982994Y0523245D01*
X0981543Y0522278D02*
X0980575Y0523245D01*
X0990575Y0523245D02*
X0991543Y0522278D01*
X0991543Y0522762D02*
X0991543Y0521310D01*
X0990575Y0521310D02*
X0993478Y0521310D01*
X0993478Y0522762D01*
X0992994Y0523245D01*
X0992026Y0523245D01*
X0991543Y0522762D01*
X0992510Y0524257D02*
X0993478Y0525224D01*
X0990575Y0525224D01*
X0990575Y0524257D02*
X0990575Y0526192D01*
X0991059Y0527203D02*
X0990575Y0527687D01*
X0990575Y0528655D01*
X0991059Y0529138D01*
X0992026Y0529138D01*
X0992510Y0528655D01*
X0992510Y0528171D01*
X0992026Y0527203D01*
X0993478Y0527203D01*
X0993478Y0529138D01*
X1000575Y0528655D02*
X1000575Y0527687D01*
X1001059Y0527203D01*
X1000575Y0526192D02*
X1000575Y0524257D01*
X1000575Y0525224D02*
X1003478Y0525224D01*
X1002510Y0524257D01*
X1002026Y0523245D02*
X1001543Y0522762D01*
X1001543Y0521310D01*
X1000575Y0521310D02*
X1003478Y0521310D01*
X1003478Y0522762D01*
X1002994Y0523245D01*
X1002026Y0523245D01*
X1001543Y0522278D02*
X1000575Y0523245D01*
X1002994Y0527203D02*
X1003478Y0527687D01*
X1003478Y0528655D01*
X1002994Y0529138D01*
X1002510Y0529138D01*
X1002026Y0528655D01*
X1001543Y0529138D01*
X1001059Y0529138D01*
X1000575Y0528655D01*
X1002026Y0528655D02*
X1002026Y0528171D01*
X1010575Y0528171D02*
X1013478Y0528171D01*
X1012510Y0527203D01*
X1010575Y0527203D02*
X1010575Y0529138D01*
X1010575Y0526192D02*
X1010575Y0524257D01*
X1010575Y0525224D02*
X1013478Y0525224D01*
X1012510Y0524257D01*
X1012026Y0523245D02*
X1011543Y0522762D01*
X1011543Y0521310D01*
X1010575Y0521310D02*
X1013478Y0521310D01*
X1013478Y0522762D01*
X1012994Y0523245D01*
X1012026Y0523245D01*
X1011543Y0522278D02*
X1010575Y0523245D01*
X1020575Y0524192D02*
X1021543Y0523224D01*
X1021543Y0523708D02*
X1021543Y0522257D01*
X1020575Y0522257D02*
X1023478Y0522257D01*
X1023478Y0523708D01*
X1022994Y0524192D01*
X1022026Y0524192D01*
X1021543Y0523708D01*
X1021059Y0525203D02*
X1020575Y0525687D01*
X1020575Y0526655D01*
X1021059Y0527138D01*
X1022994Y0527138D01*
X1023478Y0526655D01*
X1023478Y0525687D01*
X1022994Y0525203D01*
X1022510Y0525203D01*
X1022026Y0525687D01*
X1022026Y0527138D01*
X1030575Y0524703D02*
X1031059Y0524703D01*
X1032994Y0526638D01*
X1033478Y0526638D01*
X1033478Y0524703D01*
X1032994Y0523692D02*
X1032026Y0523692D01*
X1031543Y0523208D01*
X1031543Y0521757D01*
X1031543Y0522724D02*
X1030575Y0523692D01*
X1030575Y0521757D02*
X1033478Y0521757D01*
X1033478Y0523208D01*
X1032994Y0523692D01*
X1040575Y0523192D02*
X1041543Y0522224D01*
X1041543Y0522708D02*
X1041543Y0521257D01*
X1040575Y0521257D02*
X1043478Y0521257D01*
X1043478Y0522708D01*
X1042994Y0523192D01*
X1042026Y0523192D01*
X1041543Y0522708D01*
X1042026Y0524203D02*
X1042510Y0525171D01*
X1042510Y0525655D01*
X1042026Y0526138D01*
X1041059Y0526138D01*
X1040575Y0525655D01*
X1040575Y0524687D01*
X1041059Y0524203D01*
X1042026Y0524203D02*
X1043478Y0524203D01*
X1043478Y0526138D01*
X1050575Y0525655D02*
X1050575Y0524687D01*
X1051059Y0524203D01*
X1050575Y0523192D02*
X1051543Y0522224D01*
X1051543Y0522708D02*
X1051543Y0521257D01*
X1050575Y0521257D02*
X1053478Y0521257D01*
X1053478Y0522708D01*
X1052994Y0523192D01*
X1052026Y0523192D01*
X1051543Y0522708D01*
X1052994Y0524203D02*
X1053478Y0524687D01*
X1053478Y0525655D01*
X1052994Y0526138D01*
X1052510Y0526138D01*
X1052026Y0525655D01*
X1051543Y0526138D01*
X1051059Y0526138D01*
X1050575Y0525655D01*
X1052026Y0525655D02*
X1052026Y0525171D01*
X1060575Y0525171D02*
X1063478Y0525171D01*
X1062510Y0524203D01*
X1062026Y0523192D02*
X1061543Y0522708D01*
X1061543Y0521257D01*
X1061543Y0522224D02*
X1060575Y0523192D01*
X1060575Y0524203D02*
X1060575Y0526138D01*
X1062026Y0523192D02*
X1062994Y0523192D01*
X1063478Y0522708D01*
X1063478Y0521257D01*
X1060575Y0521257D01*
X1053494Y0474638D02*
X1053978Y0474155D01*
X1053978Y0473187D01*
X1053494Y0472703D01*
X1053494Y0471692D02*
X1052526Y0471692D01*
X1052043Y0471208D01*
X1052043Y0469757D01*
X1052043Y0470724D02*
X1051075Y0471692D01*
X1051075Y0472703D02*
X1053010Y0474638D01*
X1053494Y0474638D01*
X1051075Y0474638D02*
X1051075Y0472703D01*
X1053494Y0471692D02*
X1053978Y0471208D01*
X1053978Y0469757D01*
X1051075Y0469757D01*
X1043978Y0469757D02*
X1043978Y0471208D01*
X1043494Y0471692D01*
X1042526Y0471692D01*
X1042043Y0471208D01*
X1042043Y0469757D01*
X1042043Y0470724D02*
X1041075Y0471692D01*
X1042526Y0472703D02*
X1042526Y0474638D01*
X1041075Y0474155D02*
X1043978Y0474155D01*
X1042526Y0472703D01*
X1041075Y0469757D02*
X1043978Y0469757D01*
X1034478Y0469757D02*
X1034478Y0471208D01*
X1033994Y0471692D01*
X1033026Y0471692D01*
X1032543Y0471208D01*
X1032543Y0469757D01*
X1032543Y0470724D02*
X1031575Y0471692D01*
X1032059Y0472703D02*
X1031575Y0473187D01*
X1031575Y0474155D01*
X1032059Y0474638D01*
X1032543Y0474638D01*
X1033026Y0474155D01*
X1033026Y0472703D01*
X1032059Y0472703D01*
X1033026Y0472703D02*
X1033994Y0473671D01*
X1034478Y0474638D01*
X1034478Y0469757D02*
X1031575Y0469757D01*
X1023978Y0469257D02*
X1023978Y0470708D01*
X1023494Y0471192D01*
X1022526Y0471192D01*
X1022043Y0470708D01*
X1022043Y0469257D01*
X1022043Y0470224D02*
X1021075Y0471192D01*
X1021559Y0472203D02*
X1022043Y0472203D01*
X1022526Y0472687D01*
X1022526Y0473655D01*
X1022043Y0474138D01*
X1021559Y0474138D01*
X1021075Y0473655D01*
X1021075Y0472687D01*
X1021559Y0472203D01*
X1022526Y0472687D02*
X1023010Y0472203D01*
X1023494Y0472203D01*
X1023978Y0472687D01*
X1023978Y0473655D01*
X1023494Y0474138D01*
X1023010Y0474138D01*
X1022526Y0473655D01*
X1021075Y0469257D02*
X1023978Y0469257D01*
X1014478Y0470224D02*
X1011575Y0470224D01*
X1011575Y0469257D02*
X1011575Y0471192D01*
X1012059Y0472203D02*
X1013994Y0474138D01*
X1012059Y0474138D01*
X1011575Y0473655D01*
X1011575Y0472687D01*
X1012059Y0472203D01*
X1013994Y0472203D01*
X1014478Y0472687D01*
X1014478Y0473655D01*
X1013994Y0474138D01*
X1014478Y0470224D02*
X1013510Y0469257D01*
X1013026Y0468245D02*
X1012543Y0467762D01*
X1012543Y0466310D01*
X1011575Y0466310D02*
X1014478Y0466310D01*
X1014478Y0467762D01*
X1013994Y0468245D01*
X1013026Y0468245D01*
X1012543Y0467278D02*
X1011575Y0468245D01*
X1003978Y0468262D02*
X1003978Y0466810D01*
X1001075Y0466810D01*
X1002043Y0466810D02*
X1002043Y0468262D01*
X1002526Y0468745D01*
X1003494Y0468745D01*
X1003978Y0468262D01*
X1003010Y0469757D02*
X1003978Y0470724D01*
X1001075Y0470724D01*
X1001075Y0469757D02*
X1001075Y0471692D01*
X1001075Y0472703D02*
X1003010Y0474638D01*
X1003494Y0474638D01*
X1003978Y0474155D01*
X1003978Y0473187D01*
X1003494Y0472703D01*
X1001075Y0472703D02*
X1001075Y0474638D01*
X1001075Y0468745D02*
X1002043Y0467778D01*
X0994478Y0468262D02*
X0994478Y0466810D01*
X0991575Y0466810D01*
X0992543Y0466810D02*
X0992543Y0468262D01*
X0993026Y0468745D01*
X0993994Y0468745D01*
X0994478Y0468262D01*
X0993510Y0469757D02*
X0994478Y0470724D01*
X0991575Y0470724D01*
X0991575Y0469757D02*
X0991575Y0471692D01*
X0993026Y0472703D02*
X0993026Y0474638D01*
X0991575Y0474155D02*
X0994478Y0474155D01*
X0993026Y0472703D01*
X0991575Y0468745D02*
X0992543Y0467778D01*
X0984478Y0467762D02*
X0984478Y0466310D01*
X0981575Y0466310D01*
X0982543Y0466310D02*
X0982543Y0467762D01*
X0983026Y0468245D01*
X0983994Y0468245D01*
X0984478Y0467762D01*
X0983510Y0469257D02*
X0984478Y0470224D01*
X0981575Y0470224D01*
X0981575Y0469257D02*
X0981575Y0471192D01*
X0982059Y0472203D02*
X0981575Y0472687D01*
X0981575Y0473655D01*
X0982059Y0474138D01*
X0982543Y0474138D01*
X0983026Y0473655D01*
X0983026Y0472203D01*
X0982059Y0472203D01*
X0983026Y0472203D02*
X0983994Y0473171D01*
X0984478Y0474138D01*
X0981575Y0468245D02*
X0982543Y0467278D01*
X0974478Y0467762D02*
X0973994Y0468245D01*
X0973026Y0468245D01*
X0972543Y0467762D01*
X0972543Y0466310D01*
X0971575Y0466310D02*
X0974478Y0466310D01*
X0974478Y0467762D01*
X0973510Y0469257D02*
X0974478Y0470224D01*
X0971575Y0470224D01*
X0971575Y0469257D02*
X0971575Y0471192D01*
X0972059Y0472203D02*
X0972543Y0472203D01*
X0973026Y0472687D01*
X0973026Y0473655D01*
X0972543Y0474138D01*
X0972059Y0474138D01*
X0971575Y0473655D01*
X0971575Y0472687D01*
X0972059Y0472203D01*
X0973026Y0472687D02*
X0973510Y0472203D01*
X0973994Y0472203D01*
X0974478Y0472687D01*
X0974478Y0473655D01*
X0973994Y0474138D01*
X0973510Y0474138D01*
X0973026Y0473655D01*
X0971575Y0468245D02*
X0972543Y0467278D01*
X0964478Y0467762D02*
X0963994Y0468245D01*
X0963026Y0468245D01*
X0962543Y0467762D01*
X0962543Y0466310D01*
X0961575Y0466310D02*
X0964478Y0466310D01*
X0964478Y0467762D01*
X0963994Y0469257D02*
X0964478Y0469741D01*
X0964478Y0470708D01*
X0963994Y0471192D01*
X0963510Y0471192D01*
X0961575Y0469257D01*
X0961575Y0471192D01*
X0962059Y0472203D02*
X0963994Y0474138D01*
X0962059Y0474138D01*
X0961575Y0473655D01*
X0961575Y0472687D01*
X0962059Y0472203D01*
X0963994Y0472203D01*
X0964478Y0472687D01*
X0964478Y0473655D01*
X0963994Y0474138D01*
X0961575Y0468245D02*
X0962543Y0467278D01*
X0953978Y0467810D02*
X0953978Y0469262D01*
X0953494Y0469745D01*
X0952526Y0469745D01*
X0952043Y0469262D01*
X0952043Y0467810D01*
X0951075Y0467810D02*
X0953978Y0467810D01*
X0952043Y0468778D02*
X0951075Y0469745D01*
X0951559Y0470757D02*
X0951075Y0471241D01*
X0951075Y0472208D01*
X0951559Y0472692D01*
X0952043Y0472692D01*
X0952526Y0472208D01*
X0952526Y0470757D01*
X0951559Y0470757D01*
X0952526Y0470757D02*
X0953494Y0471724D01*
X0953978Y0472692D01*
X0952526Y0473703D02*
X0952526Y0475155D01*
X0952043Y0475638D01*
X0951559Y0475638D01*
X0951075Y0475155D01*
X0951075Y0474187D01*
X0951559Y0473703D01*
X0952526Y0473703D01*
X0953494Y0474671D01*
X0953978Y0475638D01*
X0586190Y0311478D02*
X0584738Y0311478D01*
X0584255Y0310994D01*
X0584255Y0310026D01*
X0584738Y0309543D01*
X0586190Y0309543D01*
X0586190Y0308575D02*
X0586190Y0311478D01*
X0585222Y0309543D02*
X0584255Y0308575D01*
X0583243Y0309059D02*
X0582759Y0308575D01*
X0581792Y0308575D01*
X0581308Y0309059D01*
X0581308Y0309543D01*
X0581792Y0310026D01*
X0583243Y0310026D01*
X0583243Y0309059D01*
X0583243Y0310026D02*
X0582276Y0310994D01*
X0581308Y0311478D01*
X0580297Y0310994D02*
X0580297Y0310510D01*
X0579813Y0310026D01*
X0578362Y0310026D01*
X0578362Y0309059D02*
X0578362Y0310994D01*
X0578845Y0311478D01*
X0579813Y0311478D01*
X0580297Y0310994D01*
X0580297Y0309059D02*
X0579813Y0308575D01*
X0578845Y0308575D01*
X0578362Y0309059D01*
X0577973Y0302927D02*
X0577006Y0302927D01*
X0576522Y0302444D01*
X0576522Y0301960D01*
X0577006Y0301476D01*
X0577973Y0301476D01*
X0578457Y0301960D01*
X0578457Y0302444D01*
X0577973Y0302927D01*
X0577973Y0301476D02*
X0578457Y0300992D01*
X0578457Y0300509D01*
X0577973Y0300025D01*
X0577006Y0300025D01*
X0576522Y0300509D01*
X0576522Y0300992D01*
X0577006Y0301476D01*
X0579469Y0300992D02*
X0579952Y0301476D01*
X0581403Y0301476D01*
X0581403Y0300509D01*
X0580920Y0300025D01*
X0579952Y0300025D01*
X0579469Y0300509D01*
X0579469Y0300992D01*
X0580436Y0302444D02*
X0581403Y0301476D01*
X0582415Y0301476D02*
X0582899Y0300992D01*
X0584350Y0300992D01*
X0584350Y0300025D02*
X0584350Y0302927D01*
X0582899Y0302927D01*
X0582415Y0302444D01*
X0582415Y0301476D01*
X0583383Y0300992D02*
X0582415Y0300025D01*
X0580436Y0302444D02*
X0579469Y0302927D01*
X0565927Y0308650D02*
X0565927Y0310101D01*
X0565444Y0310585D01*
X0564476Y0310585D01*
X0563992Y0310101D01*
X0563992Y0308650D01*
X0563025Y0308650D02*
X0565927Y0308650D01*
X0563992Y0309617D02*
X0563025Y0310585D01*
X0563509Y0311597D02*
X0563025Y0312080D01*
X0563025Y0313048D01*
X0563509Y0313531D01*
X0563992Y0313531D01*
X0564476Y0313048D01*
X0564476Y0311597D01*
X0563509Y0311597D01*
X0564476Y0311597D02*
X0565444Y0312564D01*
X0565927Y0313531D01*
X0565927Y0314543D02*
X0565927Y0316478D01*
X0565444Y0316478D01*
X0563509Y0314543D01*
X0563025Y0314543D01*
X0289190Y0337950D02*
X0289190Y0340852D01*
X0287255Y0340852D01*
X0286243Y0340852D02*
X0284792Y0340852D01*
X0284308Y0340369D01*
X0284308Y0339885D01*
X0284792Y0339401D01*
X0286243Y0339401D01*
X0286243Y0337950D02*
X0286243Y0340852D01*
X0284792Y0339401D02*
X0284308Y0338917D01*
X0284308Y0338434D01*
X0284792Y0337950D01*
X0286243Y0337950D01*
X0288222Y0339401D02*
X0289190Y0339401D01*
X0283297Y0340369D02*
X0282813Y0340852D01*
X0281845Y0340852D01*
X0281362Y0340369D01*
X0281362Y0339885D01*
X0283297Y0337950D01*
X0281362Y0337950D01*
X0284559Y0324638D02*
X0284075Y0324155D01*
X0284075Y0323187D01*
X0284559Y0322703D01*
X0286494Y0324638D01*
X0284559Y0324638D01*
X0284559Y0322703D02*
X0286494Y0322703D01*
X0286978Y0323187D01*
X0286978Y0324155D01*
X0286494Y0324638D01*
X0286494Y0321692D02*
X0286978Y0321208D01*
X0286978Y0320241D01*
X0286494Y0319757D01*
X0286494Y0318745D02*
X0286978Y0318262D01*
X0286978Y0317294D01*
X0286494Y0316810D01*
X0284559Y0316810D01*
X0284075Y0317294D01*
X0284075Y0318262D01*
X0284559Y0318745D01*
X0284075Y0319757D02*
X0286010Y0321692D01*
X0286494Y0321692D01*
X0284075Y0321692D02*
X0284075Y0319757D01*
D16*
X0289380Y0322000D02*
X0289620Y0322000D01*
D17*
X0581000Y0314000D03*
X0581000Y0297500D03*
M02*
