%
M48
M72
T01C0.01969
T02C0.02362
T03C0.02756
T04C0.03150
T05C0.03600
T06C0.03937
T07C0.04000
T08C0.04200
T09C0.04331
T10C0.07480
T11C0.09000
T12C0.11800
T13C0.12000
T14C0.12500
%
T01
X36000Y172000
X50500Y172000
X321500Y340000
X334500Y342500
X341000Y355500
X337000Y364000
X339000Y369500
X338000Y375000
X337000Y380500
X351000Y384500
X356500Y384500
X372000Y376500
X377000Y380000
X381500Y384500
X390500Y387000
X392500Y377000
X367500Y395500
X361500Y395000
X355500Y394500
X356500Y367000
X352500Y363500
X365000Y356000
X357000Y353000
X608500Y492000
X619000Y492000
X613000Y480500
X627000Y480000
X551500Y569500
X524000Y569000
X494000Y569000
X465000Y569000
X433500Y568500
X404500Y568500
X491500Y693500
X631500Y633000
X674500Y650000
X695000Y682500
X593500Y585000
T02
X578000Y585500
X577500Y576000
X578000Y566000
X560500Y557500
X547500Y566000
X547500Y576000
X553000Y586000
X553500Y593500
X556500Y599000
X536000Y592500
X531220Y595500
X523500Y586000
X519000Y572500
X519000Y566000
X531000Y557500
X502000Y557500
X487500Y566000
X487500Y572500
X494500Y586000
X498000Y591500
X508500Y591500
X483500Y589500
X480000Y607000
X485500Y614000
X475000Y620000
X474500Y629500
X480000Y639000
X490500Y634000
X514500Y644000
X511500Y652000
X525000Y648500
X535500Y647500
X544500Y660000
X556500Y660000
X568500Y661000
X584000Y678000
X584000Y687000
X591500Y696000
X600500Y689000
X594000Y679000
X613000Y685000
X614000Y679000
X621500Y678500
X628000Y678500
X630000Y686500
X613000Y699500
X618500Y701500
X623000Y705000
X628500Y709000
X632000Y713500
X631000Y721000
X629500Y728500
X641500Y733500
X636500Y756000
X656500Y767000
X661500Y762500
X661500Y772000
X650500Y777500
X674500Y781500
X663000Y746000
X666500Y734500
X665000Y711000
X685500Y686500
X699000Y682500
X717000Y683500
X728500Y665000
X721500Y661500
X740000Y670000
X713000Y647000
X719000Y642500
X703000Y655500
X687500Y643500
X671500Y638500
X670000Y630500
X671000Y621000
X649000Y628500
X631000Y622500
X629500Y613500
X631000Y639000
X637500Y648500
X632000Y652000
X632500Y662500
X621500Y662000
X593500Y659500
X556000Y693000
X542500Y679500
X519500Y672500
X515500Y665000
X480000Y678500
X470000Y682500
X462500Y672000
X453000Y666000
X465500Y648500
X443500Y629500
X452500Y620000
X426500Y612500
X416000Y620000
X408000Y629500
X393500Y640500
X393500Y659000
X394000Y669500
X375500Y665500
X388000Y689000
X425000Y708000
X451500Y721500
X461000Y719000
X464500Y715500
X474465Y713500
X462500Y700000
X484000Y693000
X497000Y705000
X498500Y697000
X518500Y719000
X509500Y729000
X469500Y733500
X478000Y759500
X433500Y759000
X371000Y759500
X277500Y699996
X286000Y666500
X304500Y661000
X304500Y641000
X321000Y625500
X331500Y633500
X339000Y624000
X339000Y617000
X316000Y612000
X348000Y588000
X403500Y586000
X426500Y576000
X426500Y566000
X441000Y557500
X456500Y566000
X456500Y574000
X464500Y586000
X465000Y602500
X433500Y586000
X410500Y557500
X468500Y541500
X472000Y557500
X493000Y525500
X467000Y523000
X589500Y602500
X529500Y631000
X605000Y713500
X610000Y721000
X602500Y745000
X609500Y751500
X584000Y724500
X584000Y718500
X542500Y764000
X664500Y661500
X702500Y707500
X713043Y706000
X702500Y725500
X744500Y764500
X740000Y768500
X734500Y772000
X730000Y776500
X725500Y780500
X749500Y760500
X754500Y756500
X759500Y752500
X779500Y738000
X797500Y732500
X808500Y732500
X819000Y732500
X834000Y751500
X833500Y769500
X852000Y770500
X817500Y767500
X808500Y771500
X897000Y758000
X902000Y727500
X917500Y730000
X917500Y720000
X930000Y729300
X936500Y718500
X941500Y733500
X957500Y733500
X967000Y739500
X971000Y725500
X991000Y726000
X994500Y740500
X1006000Y726000
X1002000Y713500
X992500Y713500
X992500Y706000
X977000Y707500
X996000Y673000
X1004500Y659500
X1014000Y657000
X1014000Y663000
X1030500Y666000
X1039000Y664000
X1044000Y673000
X1061000Y663500
X1061500Y657500
X1052500Y659500
X1052000Y654000
X1030500Y649000
X1064500Y630000
X1078000Y649000
X1078000Y666000
X1066500Y681500
X1071500Y696000
X1066500Y707500
X1051000Y726000
X1036000Y726000
X1021000Y726000
X945500Y758500
X853500Y672500
X872500Y664000
X882500Y664000
X892500Y659500
X879000Y643500
X863000Y655500
X849000Y643000
X840500Y636500
X832500Y641500
X849500Y612000
X863500Y609000
X863000Y599000
X858000Y595500
X845500Y598500
X879000Y613000
X883500Y609000
X883000Y603000
X892500Y595000
X883000Y589500
X888500Y613500
X891000Y565500
X886000Y558500
X881000Y561500
X901500Y556500
X922000Y556500
X905000Y525000
X848500Y561500
X769500Y544500
X745000Y541000
X746000Y526500
X754000Y521000
X715000Y494500
X696500Y490500
X690000Y490500
X617000Y535000
X694500Y586500
X702000Y601700
X740500Y577500
X746500Y576000
X743500Y570000
X751000Y582000
X757000Y582000
X787500Y641000
X787500Y649000
X776500Y685000
X934500Y664500
X952500Y662500
X978000Y659500
X958000Y619000
X967500Y530000
X978000Y530000
X987500Y530000
X997500Y530000
X1007500Y530000
X1017500Y530000
X1027500Y530000
X1037500Y530000
X1047500Y530000
X1057500Y530000
X1076500Y561500
X1057500Y472500
X1047500Y472500
X1037500Y472500
X1027500Y472500
X1017500Y472500
X1007000Y472500
X997500Y472500
X987500Y472500
X977500Y472500
X967500Y472500
X957500Y472500
X940000Y477500
X883000Y440000
X810000Y483000
X814500Y491000
X779000Y482000
X884000Y360500
X955500Y431000
X1054500Y459000
X1076500Y466500
X1087000Y425000
X1076500Y371500
X1076500Y246500
X1043000Y147000
X1036000Y131500
X1022500Y132500
X1007000Y132500
X999500Y133500
X1003000Y143000
X985500Y151000
X967500Y137500
X943000Y151000
X930500Y135000
X914500Y148000
X982000Y114000
X999500Y114500
X1013000Y101500
X1033500Y101000
X1051500Y94000
X1051500Y76000
X1032500Y79000
X985000Y95500
X991500Y21500
X588500Y287000
X592500Y297500
X547500Y282500
X534500Y306500
X520000Y286000
X377500Y318000
X364000Y318000
X352000Y318000
X334000Y318000
X312500Y318000
X314500Y337500
X277000Y333500
X171500Y210000
X156500Y196500
X188000Y170500
X202000Y170500
X209500Y158500
X198000Y152500
X198000Y138500
X174000Y125000
X186000Y119500
X155500Y135000
X160500Y144500
X169500Y157500
X132000Y117000
X85500Y117000
X84500Y141500
X51000Y162500
X50500Y181000
X35000Y185622
X30500Y176000
X30500Y170000
X31000Y154000
X70000Y198000
X78000Y216500
X66000Y231000
X211000Y93500
X237500Y39500
X264500Y38000
X303500Y39500
X372000Y39500
X442500Y39500
X515000Y39500
X146500Y21500
X71500Y21500
X21500Y76500
X278000Y503500
X297500Y511000
X323500Y515000
X336500Y531500
X289000Y587000
X243000Y592500
X276000Y648500
X214000Y686500
X185000Y646500
X161500Y686500
X90500Y698000
X16500Y691500
X16500Y676500
X16500Y631500
X202500Y750500
X373000Y638500
X417500Y644000
T03
X588201Y760957
X591350Y765681
X594500Y760957
X597650Y765681
X600799Y760957
T04
X304307Y761866
X304307Y753992
X304307Y746118
X304307Y738244
X304307Y730370
X304307Y722496
X304307Y714622
X304307Y706748
X304307Y698874
X217693Y698874
X217693Y706748
X217693Y714622
X217693Y722496
X217693Y730370
X217693Y738244
X217693Y746118
X217693Y753992
X217693Y761866
X217693Y769740
X304307Y769740
T05
X483500Y665000
X483500Y655000
X493500Y655000
X493500Y665000
X503500Y665000
X503500Y655000
X538000Y532500
X548000Y532500
X548000Y522500
X538000Y522500
X573000Y522500
X583000Y522500
X593000Y522500
X593000Y532500
X583000Y532500
X573000Y532500
X644000Y516000
X654000Y516000
X664000Y516000
X674000Y516000
X684000Y516000
X694000Y516000
X704000Y516000
X714000Y516000
X724000Y516000
X734000Y516000
X734000Y506000
X724000Y506000
X714000Y506000
X704000Y506000
X694000Y506000
X684000Y506000
X674000Y506000
X664000Y506000
X654000Y506000
X644000Y506000
X702000Y632000
X712000Y632000
X742500Y702000
X752500Y702000
X752500Y712000
X742500Y712000
X837500Y695500
X837500Y685500
X847500Y685500
X847500Y695500
X857500Y695500
X857500Y685500
X867500Y685500
X867500Y695500
X877500Y695500
X877500Y685500
X887500Y685500
X887500Y695500
X897500Y695500
X907500Y695500
X907500Y685500
X897500Y685500
X917500Y685500
X917500Y695500
X927500Y695500
X927500Y685500
X937500Y685500
X937500Y695500
X947500Y695500
X947500Y685500
X957500Y685500
X957500Y695500
X967500Y695500
X967500Y685500
X977500Y685500
X977500Y695500
X987500Y695500
X987500Y685500
X997500Y685500
X1007500Y685500
X1007500Y695500
X997500Y695500
X1017500Y695500
X1017500Y685500
X1027500Y685500
X1027500Y695500
X1037500Y695500
X1037500Y685500
X1047500Y685500
X1047500Y695500
X1057500Y695500
X1057500Y685500
X977500Y675500
X967500Y675500
X957500Y675500
X947500Y675500
X937500Y675500
X927500Y675500
X922500Y779500
X912500Y779500
X902500Y779500
X892500Y779500
X882500Y779500
X882500Y789500
X892500Y789500
X902500Y789500
X912500Y789500
X922500Y789500
X932500Y789500
X942500Y789500
X952500Y789500
X962500Y789500
X972500Y789500
X982500Y789500
X992500Y789500
X1002500Y789500
X1002500Y779500
X992500Y779500
X982500Y779500
X972500Y779500
X962500Y779500
X952500Y779500
X942500Y779500
X932500Y779500
X927500Y505500
X927500Y495500
X917500Y495500
X917500Y505500
X907500Y505500
X897500Y505500
X897500Y495500
X907500Y495500
X887500Y495500
X887500Y505500
X877500Y505500
X877500Y495500
X867500Y495500
X867500Y505500
X857500Y505500
X857500Y495500
X847500Y495500
X847500Y505500
X837500Y505500
X837500Y495500
X937500Y495500
X937500Y505500
X947500Y505500
X947500Y495500
X957500Y495500
X957500Y505500
X967500Y505500
X967500Y495500
X977500Y495500
X977500Y505500
X987500Y505500
X987500Y495500
X997500Y495500
X1007500Y495500
X1007500Y505500
X997500Y505500
X1017500Y505500
X1017500Y495500
X1027500Y495500
X1027500Y505500
X1037500Y505500
X1037500Y495500
X1047500Y495500
X1047500Y505500
X1057500Y505500
X1057500Y495500
X1040500Y179500
X1030500Y179500
X1030500Y169500
X1040500Y169500
X1020500Y169500
X1020500Y179500
X1010500Y179500
X1010500Y169500
X1000500Y169500
X1000500Y179500
X990500Y179500
X990500Y169500
X980500Y169500
X980500Y179500
X970500Y179500
X970500Y169500
X960500Y169500
X960500Y179500
X950500Y179500
X950500Y169500
X940500Y169500
X930500Y169500
X930500Y179500
X940500Y179500
X194800Y276800
X194800Y286800
X194800Y296800
X21400Y276800
X21400Y266800
X21400Y256800
X21400Y246800
X21400Y236800
X21400Y226800
T06
X266500Y488500
X276500Y488500
X286500Y488500
X287500Y678500
X277500Y678500
X267500Y678500
X257500Y678500
X247500Y678500
X237500Y678500
X227500Y678500
X435000Y691500
X445000Y691500
X455000Y691500
X453500Y751000
X443500Y751000
X463500Y751000
X473500Y751000
X483500Y751000
X493500Y751000
X503500Y751000
X681500Y756500
X691500Y756500
X701500Y756500
X768500Y783500
X778500Y783500
X788500Y783500
X798500Y783500
X808500Y783500
X818500Y783500
X828500Y783500
X838500Y783500
X848500Y783500
X716000Y541000
X706000Y541000
X696000Y541000
X686000Y541000
X676000Y541000
X666000Y541000
X656000Y541000
X1061000Y166000
X1061000Y156000
X1061000Y146000
X1061000Y136000
X1061000Y126000
X1061000Y116000
X1061000Y106000
X1061000Y96000
X1061000Y86000
X952500Y82000
X952500Y92000
X942500Y92000
X942500Y82000
X932500Y82000
X932500Y92000
X932500Y72000
X942500Y72000
X952500Y72000
T07
X618500Y641000
X618500Y651000
X608500Y651000
X598500Y651000
X598500Y641000
X608500Y641000
X588500Y641000
X588500Y651000
X578500Y651000
X578500Y641000
X568500Y641000
X568500Y651000
X558500Y651000
X558500Y641000
X444500Y650000
X434500Y650000
X435000Y672000
X445000Y672000
X365500Y698000
X365500Y708000
X355500Y708000
X355500Y698000
X355500Y718000
X365500Y718000
X368500Y751000
X358500Y751000
X348500Y751000
X378500Y751000
X388500Y751000
X112500Y243500
X102500Y243500
X102500Y232700
X112500Y232700
X72500Y133500
X62500Y133500
X52500Y133500
X42500Y133500
X32500Y133500
X22500Y133500
T08
X221000Y29900
X221000Y12100
X251000Y12100
X251000Y29900
X286000Y29900
X286000Y12100
X316000Y12100
X316000Y29900
X356000Y29900
X356000Y12100
X386000Y12100
X386000Y29900
X426000Y29900
X426000Y12100
X456000Y12100
X456000Y29900
X498500Y29900
X498500Y12100
X528500Y12100
X528500Y29900
X806500Y29900
X806500Y12100
X836500Y12100
X836500Y29900
X1043500Y432100
X1043500Y449900
X1073500Y449900
X1073500Y432100
T09
X701500Y783000
X701500Y793000
X691500Y793000
X691500Y783000
X681500Y783000
X681500Y793000
X503500Y783500
X493500Y783500
X483500Y783500
X473500Y783500
X463500Y783500
X453500Y783500
X443500Y783500
X389000Y785500
X379000Y785500
X369000Y785500
X359000Y785500
X349000Y785500
X136500Y566500
X136500Y556500
X126500Y556500
X126500Y566500
X116500Y556500
X106500Y556500
X96500Y556500
X86500Y556500
X86500Y566500
X71500Y566500
X71500Y556500
X61500Y556500
X61500Y566500
X51500Y566500
X51500Y556500
X41500Y556500
X41500Y566500
X31500Y566500
X31500Y556500
X31500Y546500
X31500Y536500
X31500Y526500
X31500Y516500
X41500Y516500
X41500Y526500
X41500Y536500
X41500Y546500
X51500Y546500
X51500Y536500
X51500Y526500
X51500Y516500
X61500Y516500
X61500Y526500
X61500Y536500
X61500Y546500
X71500Y546500
X71500Y536500
X71500Y526500
X71500Y516500
X86500Y516500
X86500Y526500
X86500Y536500
X86500Y546500
X96500Y546500
X96500Y536500
X96500Y526500
X96500Y516500
X106500Y516500
X106500Y526500
X106500Y536500
X106500Y546500
X116500Y546500
X116500Y536500
X116500Y526500
X116500Y516500
X126500Y516500
X126500Y526500
X126500Y536500
X126500Y546500
X136500Y546500
X136500Y536500
X136500Y526500
X136500Y516500
X136500Y506500
X136500Y496500
X136500Y486500
X136500Y476500
X126500Y476500
X126500Y486500
X126500Y496500
X126500Y506500
X116500Y506500
X116500Y496500
X116500Y486500
X116500Y476500
X106500Y476500
X106500Y486500
X106500Y496500
X106500Y506500
X96500Y506500
X96500Y496500
X96500Y486500
X96500Y476500
X86500Y476500
X86500Y486500
X86500Y496500
X86500Y506500
X71500Y506500
X71500Y496500
X71500Y486500
X71500Y476500
X61500Y476500
X61500Y486500
X61500Y496500
X61500Y506500
X51500Y506500
X51500Y496500
X51500Y486500
X51500Y476500
X41500Y476500
X41500Y486500
X41500Y496500
X41500Y506500
X31500Y506500
X31500Y496500
X31500Y486500
X31500Y476500
X31500Y466500
X31500Y456500
X41500Y456500
X41500Y466500
X51500Y466500
X51500Y456500
X61500Y456500
X61500Y446500
X61500Y436500
X71500Y436500
X71500Y446500
X71500Y456500
X71500Y466500
X61500Y466500
X86500Y466500
X86500Y456500
X86500Y446500
X86500Y436500
X96500Y436500
X96500Y446500
X96500Y456500
X96500Y466500
X106500Y466500
X106500Y456500
X106500Y446500
X106500Y436500
X116500Y436500
X116500Y446500
X116500Y456500
X116500Y466500
X126500Y466500
X126500Y456500
X126500Y446500
X126500Y436500
X136500Y436500
X136500Y446500
X136500Y456500
X136500Y466500
X136500Y426500
X136500Y416500
X136500Y406500
X136500Y396500
X136500Y386500
X126500Y386500
X126500Y396500
X126500Y406500
X126500Y416500
X126500Y426500
X116500Y426500
X116500Y416500
X116500Y406500
X116500Y396500
X116500Y386500
X106500Y386500
X106500Y396500
X106500Y406500
X106500Y416500
X106500Y426500
X96500Y426500
X96500Y416500
X96500Y406500
X96500Y396500
X96500Y386500
X86500Y386500
X86500Y396500
X86500Y406500
X86500Y416500
X86500Y426500
X71500Y426500
X71500Y416500
X71500Y406500
X71500Y396500
X71500Y386500
X61500Y386500
X61500Y396500
X61500Y406500
X61500Y416500
X61500Y426500
X51500Y416500
X51500Y406500
X51500Y396500
X51500Y386500
X41500Y386500
X41500Y396500
X41500Y406500
X41500Y416500
X31500Y416500
X31500Y406500
X31500Y396500
X31500Y386500
X31500Y376500
X31500Y366500
X31500Y356500
X31500Y346500
X41500Y346500
X41500Y356500
X41500Y366500
X41500Y376500
X51500Y376500
X51500Y366500
X51500Y356500
X51500Y346500
X61500Y346500
X61500Y356500
X61500Y366500
X61500Y376500
X71500Y376500
X71500Y366500
X71500Y356500
X71500Y346500
X86500Y346500
X86500Y356500
X86500Y366500
X86500Y376500
X96500Y376500
X96500Y366500
X96500Y356500
X96500Y346500
X106500Y346500
X106500Y356500
X106500Y366500
X106500Y376500
X116500Y376500
X116500Y366500
X116500Y356500
X116500Y346500
X126500Y346500
X126500Y356500
X126500Y366500
X126500Y376500
X136500Y376500
X136500Y366500
X136500Y356500
X136500Y346500
X136500Y336500
X136500Y326500
X136500Y316500
X136500Y306500
X126500Y306500
X126500Y316500
X126500Y326500
X126500Y336500
X116500Y336500
X116500Y326500
X116500Y316500
X116500Y306500
X106500Y306500
X106500Y316500
X106500Y326500
X106500Y336500
X96500Y336500
X96500Y326500
X96500Y316500
X96500Y306500
X86500Y306500
X86500Y316500
X86500Y326500
X86500Y336500
X71500Y336500
X71500Y326500
X71500Y316500
X71500Y306500
X61500Y306500
X61500Y316500
X61500Y326500
X61500Y336500
X51500Y336500
X51500Y326500
X51500Y316500
X51500Y306500
X41500Y306500
X41500Y316500
X41500Y326500
X41500Y336500
X31500Y336500
X31500Y326500
X31500Y316500
X31500Y306500
T10
X579933Y764500
X579933Y783201
X609067Y783201
X609461Y764500
T11
X106900Y573600
X44300Y433800
T12
X1015496Y757874
X1034000Y746063
X1034000Y769685
T13
X21000Y21000
X571000Y21000
X1081000Y21000
X510500Y493000
X91000Y781000
X1081000Y781000
T14
X910500Y410500
M30
