G75*
%MOIN*%
%OFA0B0*%
%FSLAX25Y25*%
%IPPOS*%
%LPD*%
%AMOC8*
5,1,8,0,0,1.08239X$1,22.5*
%
%ADD10C,0.00000*%
D10*
X0295000Y0065562D02*
X0295000Y0236015D01*
X0295002Y0236220D01*
X0295010Y0236425D01*
X0295022Y0236630D01*
X0295040Y0236834D01*
X0295062Y0237038D01*
X0295089Y0237241D01*
X0295121Y0237444D01*
X0295158Y0237645D01*
X0295200Y0237846D01*
X0295247Y0238046D01*
X0295298Y0238244D01*
X0295354Y0238441D01*
X0295415Y0238637D01*
X0295481Y0238831D01*
X0295551Y0239024D01*
X0295626Y0239215D01*
X0295706Y0239404D01*
X0295790Y0239591D01*
X0295879Y0239775D01*
X0295972Y0239958D01*
X0296069Y0240139D01*
X0296171Y0240317D01*
X0296277Y0240492D01*
X0296388Y0240665D01*
X0296502Y0240835D01*
X0296620Y0241002D01*
X0296743Y0241167D01*
X0296869Y0241328D01*
X0297000Y0241486D01*
X0297134Y0241642D01*
X0297272Y0241793D01*
X0297413Y0241942D01*
X0297558Y0242087D01*
X0297707Y0242228D01*
X0297858Y0242366D01*
X0298014Y0242500D01*
X0298172Y0242631D01*
X0298333Y0242757D01*
X0298498Y0242880D01*
X0298665Y0242998D01*
X0298835Y0243112D01*
X0299008Y0243223D01*
X0299183Y0243329D01*
X0299361Y0243431D01*
X0299542Y0243528D01*
X0299725Y0243621D01*
X0299909Y0243710D01*
X0300096Y0243794D01*
X0300285Y0243874D01*
X0300476Y0243949D01*
X0300669Y0244019D01*
X0300863Y0244085D01*
X0301059Y0244146D01*
X0301256Y0244202D01*
X0301454Y0244253D01*
X0301654Y0244300D01*
X0301855Y0244342D01*
X0302056Y0244379D01*
X0302259Y0244411D01*
X0302462Y0244438D01*
X0302666Y0244460D01*
X0302870Y0244478D01*
X0303075Y0244490D01*
X0303280Y0244498D01*
X0303485Y0244500D01*
X0385000Y0244500D01*
X0385242Y0244497D01*
X0385483Y0244488D01*
X0385724Y0244474D01*
X0385965Y0244453D01*
X0386205Y0244427D01*
X0386445Y0244395D01*
X0386684Y0244357D01*
X0386921Y0244314D01*
X0387158Y0244264D01*
X0387393Y0244209D01*
X0387627Y0244149D01*
X0387859Y0244082D01*
X0388090Y0244011D01*
X0388319Y0243933D01*
X0388546Y0243850D01*
X0388771Y0243762D01*
X0388994Y0243668D01*
X0389214Y0243569D01*
X0389432Y0243464D01*
X0389647Y0243355D01*
X0389860Y0243240D01*
X0390070Y0243120D01*
X0390276Y0242995D01*
X0390480Y0242865D01*
X0390681Y0242730D01*
X0390878Y0242590D01*
X0391072Y0242446D01*
X0391262Y0242297D01*
X0391448Y0242143D01*
X0391631Y0241985D01*
X0391810Y0241823D01*
X0391985Y0241656D01*
X0392156Y0241485D01*
X0392323Y0241310D01*
X0392485Y0241131D01*
X0392643Y0240948D01*
X0392797Y0240762D01*
X0392946Y0240572D01*
X0393090Y0240378D01*
X0393230Y0240181D01*
X0393365Y0239980D01*
X0393495Y0239776D01*
X0393620Y0239570D01*
X0393740Y0239360D01*
X0393855Y0239147D01*
X0393964Y0238932D01*
X0394069Y0238714D01*
X0394168Y0238494D01*
X0394262Y0238271D01*
X0394350Y0238046D01*
X0394433Y0237819D01*
X0394511Y0237590D01*
X0394582Y0237359D01*
X0394649Y0237127D01*
X0394709Y0236893D01*
X0394764Y0236658D01*
X0394814Y0236421D01*
X0394857Y0236184D01*
X0394895Y0235945D01*
X0394927Y0235705D01*
X0394953Y0235465D01*
X0394974Y0235224D01*
X0394988Y0234983D01*
X0394997Y0234742D01*
X0395000Y0234500D01*
X0395000Y0173444D01*
X0395003Y0173228D01*
X0395010Y0173012D01*
X0395023Y0172796D01*
X0395042Y0172581D01*
X0395065Y0172366D01*
X0395094Y0172152D01*
X0395128Y0171938D01*
X0395167Y0171726D01*
X0395211Y0171514D01*
X0395260Y0171304D01*
X0395314Y0171094D01*
X0395373Y0170887D01*
X0395438Y0170680D01*
X0395507Y0170475D01*
X0395581Y0170272D01*
X0395660Y0170071D01*
X0395744Y0169872D01*
X0395833Y0169675D01*
X0395926Y0169480D01*
X0396024Y0169288D01*
X0396127Y0169097D01*
X0396235Y0168910D01*
X0396346Y0168725D01*
X0396463Y0168543D01*
X0396583Y0168363D01*
X0396708Y0168187D01*
X0396837Y0168014D01*
X0396971Y0167843D01*
X0397108Y0167677D01*
X0397249Y0167513D01*
X0397395Y0167353D01*
X0397544Y0167197D01*
X0397697Y0167044D01*
X0397853Y0166895D01*
X0398013Y0166749D01*
X0398177Y0166608D01*
X0398343Y0166471D01*
X0398514Y0166337D01*
X0398687Y0166208D01*
X0398863Y0166083D01*
X0399043Y0165963D01*
X0399225Y0165846D01*
X0399410Y0165735D01*
X0399597Y0165627D01*
X0399788Y0165524D01*
X0399980Y0165426D01*
X0400175Y0165333D01*
X0400372Y0165244D01*
X0400571Y0165160D01*
X0400772Y0165081D01*
X0400975Y0165007D01*
X0401180Y0164938D01*
X0401387Y0164873D01*
X0401594Y0164814D01*
X0401804Y0164760D01*
X0402014Y0164711D01*
X0402226Y0164667D01*
X0402438Y0164628D01*
X0402652Y0164594D01*
X0402866Y0164565D01*
X0403081Y0164542D01*
X0403296Y0164523D01*
X0403512Y0164510D01*
X0403728Y0164503D01*
X0403944Y0164500D01*
X0680566Y0164500D01*
X0680794Y0164497D01*
X0681022Y0164489D01*
X0681249Y0164475D01*
X0681477Y0164456D01*
X0681703Y0164431D01*
X0681929Y0164401D01*
X0682154Y0164365D01*
X0682379Y0164324D01*
X0682602Y0164278D01*
X0682824Y0164226D01*
X0683044Y0164169D01*
X0683264Y0164106D01*
X0683481Y0164038D01*
X0683697Y0163965D01*
X0683911Y0163887D01*
X0684124Y0163804D01*
X0684334Y0163715D01*
X0684541Y0163621D01*
X0684747Y0163523D01*
X0684950Y0163419D01*
X0685151Y0163311D01*
X0685349Y0163198D01*
X0685544Y0163080D01*
X0685736Y0162957D01*
X0685925Y0162830D01*
X0686111Y0162698D01*
X0686294Y0162562D01*
X0686473Y0162421D01*
X0686649Y0162277D01*
X0686822Y0162127D01*
X0686991Y0161974D01*
X0687156Y0161817D01*
X0687317Y0161656D01*
X0687474Y0161491D01*
X0687627Y0161322D01*
X0687777Y0161149D01*
X0687921Y0160973D01*
X0688062Y0160794D01*
X0688198Y0160611D01*
X0688330Y0160425D01*
X0688457Y0160236D01*
X0688580Y0160044D01*
X0688698Y0159849D01*
X0688811Y0159651D01*
X0688919Y0159450D01*
X0689023Y0159247D01*
X0689121Y0159041D01*
X0689215Y0158834D01*
X0689304Y0158624D01*
X0689387Y0158411D01*
X0689465Y0158197D01*
X0689538Y0157981D01*
X0689606Y0157764D01*
X0689669Y0157544D01*
X0689726Y0157324D01*
X0689778Y0157102D01*
X0689824Y0156879D01*
X0689865Y0156654D01*
X0689901Y0156429D01*
X0689931Y0156203D01*
X0689956Y0155977D01*
X0689975Y0155749D01*
X0689989Y0155522D01*
X0689997Y0155294D01*
X0690000Y0155066D01*
X0690000Y0064500D01*
X0690000Y0066571D02*
X0690022Y0066376D01*
X0690039Y0066180D01*
X0690052Y0065984D01*
X0690059Y0065787D01*
X0690062Y0065591D01*
X0690060Y0065394D01*
X0690053Y0065198D01*
X0690042Y0065002D01*
X0690026Y0064806D01*
X0690005Y0064610D01*
X0689979Y0064416D01*
X0689949Y0064221D01*
X0689914Y0064028D01*
X0689875Y0063835D01*
X0689830Y0063644D01*
X0689782Y0063454D01*
X0689728Y0063264D01*
X0689670Y0063077D01*
X0689608Y0062890D01*
X0689541Y0062706D01*
X0689469Y0062522D01*
X0689393Y0062341D01*
X0689313Y0062162D01*
X0689228Y0061984D01*
X0689140Y0061809D01*
X0689047Y0061636D01*
X0688949Y0061465D01*
X0688848Y0061297D01*
X0688743Y0061131D01*
X0688634Y0060967D01*
X0688520Y0060807D01*
X0688403Y0060649D01*
X0688283Y0060494D01*
X0688158Y0060342D01*
X0688030Y0060193D01*
X0687898Y0060047D01*
X0687763Y0059904D01*
X0687624Y0059765D01*
X0687482Y0059629D01*
X0687337Y0059497D01*
X0687189Y0059368D01*
X0687037Y0059242D01*
X0686883Y0059121D01*
X0686726Y0059003D01*
X0686565Y0058889D01*
X0686403Y0058779D01*
X0686237Y0058673D01*
X0686069Y0058571D01*
X0685899Y0058473D01*
X0685726Y0058379D01*
X0685551Y0058289D01*
X0685374Y0058204D01*
X0685195Y0058123D01*
X0685014Y0058046D01*
X0684832Y0057974D01*
X0684647Y0057906D01*
X0684461Y0057842D01*
X0684274Y0057783D01*
X0684085Y0057729D01*
X0683895Y0057679D01*
X0683703Y0057634D01*
X0683511Y0057593D01*
X0683318Y0057557D01*
X0683124Y0057526D01*
X0682929Y0057500D01*
X0303062Y0057500D01*
X0302867Y0057502D01*
X0302672Y0057509D01*
X0302478Y0057521D01*
X0302284Y0057538D01*
X0302090Y0057559D01*
X0301897Y0057585D01*
X0301705Y0057615D01*
X0301513Y0057650D01*
X0301322Y0057690D01*
X0301133Y0057734D01*
X0300944Y0057783D01*
X0300757Y0057837D01*
X0300571Y0057895D01*
X0300386Y0057957D01*
X0300203Y0058024D01*
X0300022Y0058095D01*
X0299842Y0058171D01*
X0299665Y0058251D01*
X0299489Y0058335D01*
X0299315Y0058423D01*
X0299144Y0058516D01*
X0298975Y0058613D01*
X0298808Y0058714D01*
X0298644Y0058818D01*
X0298482Y0058927D01*
X0298323Y0059040D01*
X0298167Y0059156D01*
X0298014Y0059276D01*
X0297863Y0059400D01*
X0297716Y0059528D01*
X0297572Y0059658D01*
X0297431Y0059793D01*
X0297293Y0059931D01*
X0297158Y0060072D01*
X0297028Y0060216D01*
X0296900Y0060363D01*
X0296776Y0060514D01*
X0296656Y0060667D01*
X0296540Y0060823D01*
X0296427Y0060982D01*
X0296318Y0061144D01*
X0296214Y0061308D01*
X0296113Y0061475D01*
X0296016Y0061644D01*
X0295923Y0061815D01*
X0295835Y0061989D01*
X0295751Y0062165D01*
X0295671Y0062342D01*
X0295595Y0062522D01*
X0295524Y0062703D01*
X0295457Y0062886D01*
X0295395Y0063071D01*
X0295337Y0063257D01*
X0295283Y0063444D01*
X0295234Y0063633D01*
X0295190Y0063822D01*
X0295150Y0064013D01*
X0295115Y0064205D01*
X0295085Y0064397D01*
X0295059Y0064590D01*
X0295038Y0064784D01*
X0295021Y0064978D01*
X0295009Y0065172D01*
X0295002Y0065367D01*
X0295000Y0065562D01*
M02*
