M48
;Layer_Color=9474304
;FILE_FORMAT=2:5
INCH,LZ
;TYPE=PLATED
T1F00S00C0.00600
T2F00S00C0.00787
T3F00S00C0.01000
T4F00S00C0.01181
T5F00S00C0.01200
T6F00S00C0.01299
T7F00S00C0.01378
T8F00S00C0.01400
T9F00S00C0.01968
T10F00S00C0.02000
T11F00S00C0.02559
T12F00S00C0.03937
T13F00S00C0.08268
%
T01
X0008222Y0007161
X0013222
X0018222
X0023222
X0028222
X0033222
X003245Y0021299
X0028504Y002122
X0025848Y0020595
X002138Y0018775
X0016933Y0020648
X0015113Y0025116
X0016986Y0029563
X0021455Y0031383
X0025901Y002951
X0028268Y0029134
X0032098Y0029213
X0033522Y0047161
X0023425Y0043228
X0021732Y0049646
X0017244Y0054921
X0004254Y0057237
Y0052237
Y0047237
Y0042237
Y0037237
Y0032237
Y0027237
Y0022237
Y0017237
X0007907Y0017161
X0004254Y0012237
X0015522Y0014761
X0011307Y0034661
X0010748Y004185
X0035722Y0035761
X0040422Y0035461
X0042922Y0034761
X0041766Y0029134
X0044494
X0047222
X0049949
X0052677
X00528Y003197
X0052677Y0037279
Y0041728
Y0044877
Y0048625
Y0053622
Y0057471
X0060551Y0055659
Y0048856
Y0045906
X00645Y004669
X0069772Y0044761
X0078661Y0046024
X0078504Y0051142
X0082122Y0054461
X0087122Y0054361
Y0049361
X008755Y004505
X0083425Y0042953
X009122Y0041339
X0089016Y003685
X0092323Y0035472
X0092122Y0049361
X009126Y005563
X0068272Y0056461
X0073772Y0037861
X0060551Y0038161
Y0035161
X0062598Y0035079
X0060551Y0032161
Y00292
X006459Y003061
X005956Y00247
X005685Y0021811
X0053722Y002122
X0050879
X0048035
X0045192
X0042349
X0039505
X0036662
X0036422Y0014261
X0038322Y0006961
X0043222Y0007161
X0048222
X0053222
X0058222
X0063222
X0069095Y0005748
X006837Y001429
X0061063Y0013386
X006275Y002034
X0068299Y0022712
X0073622Y0021693
X007755Y002495
X00827Y002335
X0078222Y0017161
X0083022Y0009811
X0081929Y0005551
X0093386Y0005472
X0092122Y0009561
X0103779Y001689
X0103661Y0021378
X0114291Y0020039
X0114882Y0017323
X0114055Y0023583
X0127441Y003248
X0133189Y0035118
X0133228Y0037362
X0135039Y0039173
X0137598Y0041378
Y0045
X0136024Y0043622
X0134055Y004563
X0130079
X0130922Y0053711
X0131072Y0057361
X0127022
X0123122
X0135122
X0137598Y0056166
X013762Y005289
X0134987Y0053589
X014544Y005346
X0145376Y0056654
X0150876Y0058385
X0154724Y0058307
X0153606Y0056142
X015289Y005316
X015018Y0053622
X0156082Y0052511
X0158409Y0054646
X015809Y005683
X0157641Y0045977
X0160675Y0045731
X0163883Y0045665
X0166131Y0044774
X0167087Y0042323
X0169381Y0040674
X017Y0043976
X0169213Y0046496
X0172598Y0045315
X0173222Y0047161
X0175472Y0044252
X0175512Y0039724
X0176063Y0034331
X017893Y0033666
X0183536Y0032682
X0181686Y0030241
X0181857Y00248
X0178857
X0175857Y002475
X0174022Y0024267
X0170533
X0167043
X0164009Y0024565
X016115Y0024267
X0160551Y0026417
X0156614
X0157993Y0024267
X0154835
X0151678
X0150876Y0025904
Y0028402
X0148794Y0028758
Y0026769
Y002482
Y002288
X0149522Y0016547
X0146022
X0153022
X0156522
X0160022
X0163522
X0167022
X0170522
X0174022
X0176066Y0016041
X0179066
X0182066
X0185066
X0189208Y0016547
X0190968Y001237
X0186963Y001248
X0181963
X0176963
X0173033Y0012374
X0168462Y0012801
X0163462
X0158462
X0153462
X0153228Y0026811
Y0029488
X0150876Y0030901
X0148794Y0030762
Y0032695
X0150876Y00334
Y0035898
Y0038397
Y0040895
Y0043394
X0153071Y0043268
X015338Y004612
X0150876Y0045892
X0155079Y0044646
X0145376Y0044579
Y0041561
X0147953Y0039173
X0165276Y0047559
X0168622Y005189
X017127Y005195
X0174978Y0052139
X0179978
X0184978
X0182178Y0056897
X0172244Y0036693
X0172008Y0033543
X016981Y003513
X0169961Y0030236
X0171142Y0027795
X0167292Y0028495
X0164331Y0027559
X0173858Y0030354
X0176725Y0029021
X0185422Y0027791
X0184857Y00248
X0188631Y0024267
X0188654Y0032839
X0132323Y0018701
X0131142Y0017284
X0039038Y0029134
X003631
X0043222Y0058161
X0194207Y0050246
X01981Y00491
X0202716Y0050591
X02136Y00511
X02202Y00517
X0226023Y0053098
Y0050246
Y0056489
X0233787Y0058119
X0233149Y005315
Y0050733
Y0048116
X0233143Y0044299
X0233874Y0040708
Y0037708
Y0034708
Y0031708
X0233514Y0028091
X0232304Y0024729
X0230334Y0022779
X0227081Y002184
X0223293
X0219505
X0215828Y002297
X0215813Y0020414
X0215336Y0017937
X0212662Y0016547
X0209311
X0205961
X020261
X0199259
X0195909
X0192558
X0194393Y0012448
X0197739Y0012488
X0195982Y0024267
X0192306Y0024267
X0192316Y0030162
X0204882Y0028189
X0205398Y0024267
X0202462
X0208015Y0025546
X0208Y0022956
X0212039Y0027772
X0214685Y002937
X0218553Y0029458
X0222824
X0224892Y0031586
X0224992Y0034586
Y0037586
Y0040586
X0226023Y0043644
X0214921Y0042205
X0218189Y0036024
X0213268Y0034291
X0238222Y0042161
X0243222
X0248222
X025315Y00421
X0258222Y0042161
X0268222
X0273222
X0276822Y0049961
X0276622Y0055161
X0269998Y0050361
X0265222Y0054861
X0263222Y0047161
X0265522Y0032061
X0264822Y0015661
X0268222Y0007161
X0273222
X0278222
X0283222
X0288222
X0287822Y0010361
X0293222Y0007161
X0298222
X0308222Y0008361
X0324022Y0009761
X0323922Y0015461
X0333922Y0009861
X0338222Y0007161
X0333222Y0022161
X0324922Y0041961
X0346378Y0038701
X0283222Y0044161
X0238543Y0051968
X0258322Y0009361
X0363522
X0363222Y0007161
X0378222
X0379122Y0016161
X037378Y002063
X0388222Y0022161
X0368189Y0039882
X0372913Y0053976
X0380922Y0056761
X0350512Y006
X035311Y0071024
X0358222Y0187161
X0388222Y0182161
X0343222Y0187161
X0338222
X0333222
X0323222
X0303222Y0167161
X0308222Y0157161
X029733Y015208
X0280522Y0140261
X0276822Y0135461
X0280322Y0130761
X0268222Y0132161
X0270276Y0142874
X0268522Y0147661
X02596Y014415
X0250478Y0146189
Y0151189
X0252953Y0157323
X0257822Y0165761
X0246922Y0166261
X024206Y0169044
X024156Y0174044
X023396Y0169244
X023106Y0168044
X0235591Y0157913
X0234488Y0150748
X023055Y014581
X0240905Y0147087
X0245478Y0146189
Y0141189
Y0136189
X0250478Y0141189
X025345Y012575
X0234016Y0130273
X02339Y013285
X0229316Y0131673
X0224616Y0130273
X0224222Y0133161
X0219916Y0130273
X0215216
X0215945Y0134134
X021811Y0137008
X0214488Y014189
X0209646Y0142598
X0204764Y0142402
X0200512Y0141299
X0199055Y013748
X0199646Y0134252
X0200709Y0129724
X0192687Y0136275
X0191772Y0147598
X0205614Y0148417
X0218504Y0147874
X0220945Y0157795
X0210748Y015878
X020878Y016437
X0216811Y0165748
X021656Y0174044
X020986Y0187344
X0229767Y0185565
X0258122Y0185661
X0264522Y0180261
X0265922Y0160161
X0270122Y0118261
X027324Y011238
X0273222Y0102161
X0280522Y0107235
X0287922Y0098561
X0283522Y0087261
X0280622Y0085561
X0274916Y0089773
X026205Y009115
X02634Y00853
X0265422Y0076661
Y0071361
X0258222Y0072161
X0253222
X0248222
X0243222
X0241852Y0069527
X0238447Y0069617
X0238358Y007329
X0241135Y0074097
X0243222Y0077161
Y0082161
X0243198Y0085064
X024311Y0088848
X0235593Y0091222
X0232872Y0094342
X0229476Y0095462
X022992Y01002
X0226604Y0092345
X02207Y0092378
X0218732
X0212826
X0212795Y0083976
X0215122Y0081861
X0223233Y0082726
X0223275Y0079114
X0223186Y0075829
X0220408Y0073051
X0220498Y0069736
X02175Y00706
X02158Y0072
X0211746Y0069238
X021325Y00659
X0210861Y0065078
X021785Y00651
X02214Y00649
X0225694Y0064778
X0225574Y0062597
X0226023Y0059161
X023346Y0062837
X0233579Y0064778
X0238558Y0064744
X0245346Y0069796
X0254222Y0064161
X0259222
X0269822Y0065061
X0276622
Y0060061
X0325394Y0060158
X0323622Y0067087
X0322622Y0081461
X0314316Y0094073
X0304022Y0098261
X030059Y0086614
X02355Y0082563
X023558Y0079473
X02357Y0075889
X0223209Y0089267
X0224722Y0115361
X0219922
X0215222
X0193272Y0115191
X0193222Y0091161
X0196816Y0092373
X024305Y01002
X0199646Y0157205
X0197222Y0167161
Y0172161
X0192222Y0167161
X0338222Y0147161
X0339803Y0123425
X0182992Y0125039
Y0121791
Y0118543
Y0115295
Y0112047
X018685
X0188898Y0112008
X0189173Y0104252
X018685Y0104134
X0184291
X0181469
X0176147Y0106105
X0175079Y010874
Y0112305
Y011587
Y0119434
Y0122999
X017299Y012537
X0171623Y0128583
X0175079
X0168168
X0164812
X0161257
X0157801
X0154346
X015121
X014848Y012858
X0143879Y0128583
X0140524
X0137068
X0133613
X0135591Y0123268
X0127449Y0124764
X0127008Y0120787
X0124055Y0117598
X01233Y011135
X01264Y011095
X012626Y0105984
X0128622
X0121968
X0118425
X0115157
X011118Y010928
X010883Y011093
X010913Y011482
X010895Y01182
X0115905Y0118189
X01173Y01124
X012107Y012274
X011957Y01302
X011469Y012854
X010867Y012814
X010861Y012532
X010884Y013594
X010878Y013876
X0110315Y0144488
X011429Y014134
X0115431Y0147704
X0119631
X0125118Y0147559
Y0144527
Y0141496
Y0138465
Y0135433
Y0132402
X0127205Y0130394
X0133031Y0136496
Y013936
Y0142224
Y0145089
Y0147953
X0137953Y0146811
X0140315Y0148228
X0140222Y0150761
Y0153361
Y0156261
X0142362Y0157244
X0143618Y0155261
Y0148861
X0145922Y0147953
X0149222
X0153122
X0156722
X0159803
X0163622
X0167205
X0171063
X0175079Y0147953
X017508Y014406
X0175079Y0140823
X0175079Y0136496
X0171844
X016861
X0165375
X0162131
X0158907
X0155672
X0152438
X0149204
X0145969
X0142735
X01395
X0136266
X0142283Y0146929
X0136815Y0155261
X0138071Y0157283
X0134006Y0155945
X0130769
X0127402
X012374
X0119488
X011565
X011324Y015818
X0108898Y0160906
X0104331Y0160984
X0103167Y0168302
X0098167
X0093167
X0088167
X0083167
X0078167
X0079167Y0173302
X0084167
X0089167
X0094167
X0099167
X0104167
X0112167
X0118167
X012198Y017374
X0123167Y0168302
X0118167
X0113167
X0124567Y0164291
X012823Y017295
X0133167Y0173302
X0134843Y0167283
X0143222Y0167161
X0152422Y0165661
X0152422Y0159863
X0153189Y0155945
X0156496
X0159803
X0163661
X016748
X017063
X017401Y015595
X017643Y015589
X0175236Y0159212
X0168022Y0159461
X0172722Y0165561
X01726Y016825
X0182222Y0167161
X0187222
X0185315Y0159173
X0189921Y0157717
X018132Y015467
X0182992Y0151024
Y0147776
Y0144508
Y0141279
Y0138031
Y0134783
Y0131525
Y0128287
X0190915Y0133565
X0161378Y0119843
X0156535Y0122638
X0152756Y0119134
X0150829Y0109945
X015365Y010809
X0153722Y0105984
X0156722
X0159722
X0162522
X0166024Y0104095
X0167953Y0100157
Y0097454
Y0094751
Y0092047
X0172222Y0089461
X0175669Y009185
X017455Y009634
X017428Y01016
X0182953Y0097087
X018485Y009491
X0184722Y0087361
X018265Y008575
X0184622Y0082161
X018865Y009028
X019125Y008871
X0188222Y0071161
X0181535Y0067126
X0181678Y0062739
X0176792Y0062578
X016375Y00688
X0165038Y0078714
X0167006Y0079714
X0163069Y0079911
X0162676Y0083061
X0160086Y0084061
Y00868
Y0089539
Y0092278
Y0095017
Y0097756
X0156677Y0097756
X0153398
X0149859
X014645
X0143042
X0139633
X0136224
X0132815
X0129406
X0125997
X0122589
X011918
X0115771
X011275Y00976
X011323Y0092
X0110709Y0090158
X0110748Y0088032
X0112022Y0085273
X011439
X0115775Y0087761
X0115787Y0090118
X0120039Y0089291
X0124134Y0089646
X0126877
X0129619
X0132362
X0136024Y0089291
X0140079
X0139016Y0090984
X0136468Y009389
X0146468
X0143543Y0087244
X0145376Y0083823
Y0080804
Y0077586
Y0072548
Y0068729
Y0065711
Y0062692
Y0059673
X0150876Y0060883
Y0063382
X0149261Y006588
X0150876Y0070877
X0137598Y0070195
Y00729
Y0077612
Y0081417
X0132846Y0081203
X0129846
X0126846
X0123846
X0119409Y0081417
X0115787Y0080394
X0115775Y0082761
X0110722Y0082461
X011063Y0080433
X0107572Y0081417
X0102047Y0079843
X0095551Y0078031
X0089016Y0079764
X0084409Y0081417
X0080354
X0076339
X007232Y008239
X007063Y008563
Y0089003
Y0092375
X0066142Y0092244
X006614Y009541
X0066339Y0099055
X006639Y010311
X0064016Y0105827
X0060551Y0105342
Y0108435
Y0111528
Y0114621
Y0117714
Y0120807
Y01239
Y0126993
Y0130086
Y0133179
Y0136272
Y0139365
Y0142458
Y0145551
X0058898Y0148228
X0060394Y0149961
X0057722Y0150961
Y0153261
X0055422
Y0150961
X0052913Y0152087
X0054409Y0148307
X0052677Y014563
Y0142481
Y0139333
Y0136184
Y0133036
Y0129887
Y0126739
Y012359
Y0120441
Y0117293
Y0114144
Y0110996
Y0107847
Y0104699
Y010155
Y0098402
Y0095253
Y0092105
Y0088956
Y0085808
Y0082659
Y007951
Y0076362
Y0073213
Y0070265
Y0066916
Y0063568
Y0060619
X0047756Y006189
X0060551Y0062161
X0060276Y0064055
X0060551Y005891
X0062598Y0060669
X0062672Y0070761
X0060551Y0071318
Y0074411
Y0077504
Y0080597
Y008369
Y0086783
Y0089876
Y009297
Y0096062
Y0099155
Y0102249
X0064016Y0113937
X007049Y01147
X007055Y011838
X007032Y012515
Y012859
Y013566
X007026Y013893
X00683Y014361
X0066414Y0148175
X0063305
X0062953Y0155669
X0065905Y0155787
X006623Y015883
X0060827Y0158228
Y0161281
Y0165028
Y0167961
Y0170394
X006069Y0173247
X0058217Y0175563
X0055079Y0176474
X0051956
X0048834
X0045712
X0042589
X0039467
X0036345
X003599Y0168516
X0038758
X0041526
X0044294
X0047062
X004983
X0052598Y0168516
Y0165953
Y016339
Y0160827
X0050122Y0156961
X0054625Y015589
X0058898Y0155866
X0060394Y0154331
X00704Y016087
X00766Y016076
X0074167Y0173302
X0068937Y0172913
X0065197Y0178307
X0072756Y0178504
X0066022Y0187161
X0048222
X0043222
X0038222
X0043222Y0182161
X0044532Y016363
X0044932Y016073
X0037122Y0132261
Y0126761
X0064173Y0124252
X00642Y0133
X006984Y011069
X0078701Y009252
Y0089291
X0081614
X0085354
X0089173Y0090472
X010198Y009084
X010234Y009341
X010828Y009337
X0106471Y0089291
X0113031Y0078268
X011748Y00728
X0105984Y0071969
X0092Y00698
X0091772Y0063504
X0092122Y0059361
X0080709Y0061614
X0080872Y0069761
X0068504Y0075
X0068622Y0081063
X0066693Y0085472
X0115118Y0059449
X0121575Y0059961
X012989Y005977
X013382Y005969
X0137598Y0058972
Y0061778
Y0064583
Y0067389
X0132087Y0072008
X015025Y008455
X0156299Y0083307
X015679Y008916
X0156468Y009389
X015993Y011249
X0140709Y0114842
X013895Y011325
X0137
X013505
X011917Y013864
X010082Y014363
X0096142Y0182441
X0104022Y0188261
X0123722Y0188161
X0134322Y0188361
X0144055Y0188071
X0155017Y0187869
X0165017
X0171922Y0188161
X0181496Y0186024
X0191208Y0188328
X0162222Y0167161
X0157222
X0084222Y0188361
X0033222Y0187161
X0028222
X0023222
X0018222
X0013222
X0008222
X0004254Y0182237
Y0177237
Y0172237
Y0167237
Y0162237
Y0157237
Y0152237
Y0147237
Y0142237
Y0137237
Y0132237
Y0127237
Y0122237
Y0117237
Y0112237
Y0107237
Y0102237
Y0097237
Y0092237
Y0087237
Y0082237
Y0077237
Y0072237
Y0067237
Y0062237
X0008222Y0062161
X0016339Y0065709
X001626Y0077874
X0016417Y0088661
Y0111772
X0016042Y011815
X0016102Y0126102
X0016417Y0134488
X0016475Y0144882
X0018222Y0147161
X0017091Y0168049
X00134Y01703
X0015232Y0172518
X0017144Y0176964
X0021573Y0178784
X0026059Y0176911
X002946Y0176457
X0033222Y0176474
Y0168516
X0029812Y0168543
X0026006Y0167996
X0021576Y0166098
X0031804Y0161861
X0031204Y0182561
X0011904Y0181761
X0033622Y0080061
X0034528Y0062205
T02
X0137516Y0023773
X0139516
X0141516
X0143516
Y0025773
Y0027773
X0145516
Y0029773
Y0031773
X0143516
X0141516
X0139516
X0137516
Y0029773
X0139516
X0141516
Y0027773
Y0025773
X0139516
Y0027773
X0137516
Y0025773
X0145516
Y0023773
X0143516Y0029773
T03
X00646Y003279
X0071372Y0030961
X0076072
X0070472Y0038561
X0069272Y0041861
X0065972Y0045061
X006454Y005837
X0096614Y0026929
X0099997
Y0022359
X0096614
Y001779
X0099997
X01294Y001735
X0125616Y0023873
X012311Y0046968
X0191778Y0051139
X0191955Y005729
X0197897Y0057804
X0245669Y0054764
X0244522Y0049961
X0251322Y0050061
X0257522Y0050161
X0254095Y0053976
X0271822Y0032861
X0278191Y0032205
X0285116Y0028761
Y0025961
Y0023161
Y0020361
Y0017561
X0289116
Y0020361
Y0023161
Y0025961
Y0028761
X0293116
Y0025961
Y0023161
Y0020361
Y0017561
X0300041Y0014291
Y0032205
X0298622Y0038161
X0278191Y0016851
Y0014291
X0272516Y0009748
X0378422Y0049661
X0362888Y0144515
X0349916Y0144873
Y0161573
X0362888Y0161838
X0358116Y0174573
X0353416Y0174673
X0349567Y0174488
X0352205Y0180118
X0370222Y0173561
X0386903Y0173649
X03435Y017699
X0338016Y0177273
X0339016Y0170315
X0341181Y0168032
X0338937Y0165866
X0343425
X0343465Y0170276
X034139Y0159673
X0343779Y0144567
X0340622Y0134561
X0336299Y0112402
X032111Y00946
X0304646Y0091929
X028874Y0106535
X0276316Y0101173
X0273216Y0109573
X0271016Y0114173
X0279922Y0135261
X0287836Y0155947
X0291722Y0158561
X0299252Y0153937
X0308466Y0166961
X0311466
X0314466
Y0170511
X0311466
X0308466
Y0174061
X0311466
X0314466
X0278Y01674
X0251484Y0138177
X0238522Y0124261
X0234016Y0123904
X0229316Y0125304
X022461Y012472
X0219916Y0123904
X0215516
X020186Y012394
X020435Y011701
X02036Y011456
X02045Y011225
X020462Y010399
X020315Y009963
X0203545Y0093002
X0204154Y0089573
X0206816Y0082273
X0219866Y0085873
X0219816Y0077861
X02389Y00779
X0238966Y0085873
X0236447Y0100273
X0235Y0106157
X0236663Y0108126
X0234995Y0110094
X0236626Y0112063
X0234958Y0114032
X0236727Y0118362
X0196816Y011707
X019693Y009552
X0194716Y0086873
X0171769Y0086407
X0171422Y0083011
X016855Y008944
X0166024Y0108976
X014692Y0108964
X0146922Y0105614
X014762Y011401
X0143622Y0113861
X0139322Y0109161
X0136019Y0109158
X0130922Y0106661
X0130433Y0112716
X0123976Y0171496
X0119528Y0175433
X0125787Y0181693
X0132913Y0180433
X0178667Y0173555
X018461Y0174055
X0191181Y0066378
X0087953Y0064373
X008457
Y0068942
X0087953
Y0059803
X008457
X0070272Y0064061
X007355Y0067461
X0066272Y0070661
X0036496Y0067381
X0038222Y0129461
X0049322Y0141261
X0052722Y0158161
T04
X0095589Y0080934
Y0089635
T05
X013305Y001685
X0134122Y0019861
X0130822Y0029161
X0129822Y0031461
X0129803Y0041653
X0133022Y0041661
X0126022
X0122972
X0119922
X0117087Y0041653
X0121102Y0045354
X0124961Y0045276
X012455Y005325
X012195Y005318
X0284747Y0130261
X0127008Y0068858
X0124055
X0121102
X011815
X0115197
T06
X0212629Y0098087
Y0102811
Y0107535
Y011226
X0217354
Y0107535
X0222078
X0226802
Y0102811
X0222078
X0217354
Y0098087
X0222078
X0226802
Y011226
X0222078
T07
X02042Y0084357
T08
X0080472Y0034161
X0076108Y0065
X0050522Y0148361
X0145922Y0123361
X01806Y00797
X0023022Y0067381
Y0129461
T09
X0112022Y0040161
X0097244Y0093465
X0095944Y0098269
Y0103074
Y0107878
X0097244Y0112683
Y0117487
Y0122292
Y0127096
Y0131901
Y0136706
Y014151
X0095444Y0146315
Y0151119
Y0155924
X0097244Y0160728
X0089685Y0162342
Y0158209
Y0154075
Y0149941
Y0145807
Y0141673
Y0137539
Y0133405
Y0129272
Y0125138
Y0121004
Y011687
Y0112736
Y0108602
Y0104469
Y0100335
Y0096201
X0083823Y0098269
Y0103074
Y0107878
X0082323Y0112683
Y0117487
Y0122292
Y0127096
Y0131901
Y0136706
Y014151
X0084023Y0146315
Y0151119
Y0155924
X0082323Y0160728
X0076181Y0142775
Y0136378
Y012998
Y0123583
Y0117185
Y0110787
X0082323Y0093465
X0104606Y0110787
Y0117185
Y0123583
Y012998
Y0136378
Y0142775
T10
X0097522Y0047261
Y0051561
Y0055861
X0102422
Y0051561
Y0047261
X0117322Y0032061
Y0028061
X0122222
Y0032061
X0245622Y0024811
Y0020261
Y0015711
X0250222
Y0020261
Y0024811
X0308522Y0023361
X0313122
Y0028111
X0308522
Y0032861
X0313122
X0313013Y0037495
X0308347
X0348701Y0086575
X0348819Y0090827
X034878Y0095197
X0354134Y0095315
X0354016Y0090984
X0353976Y0086693
X0353525Y0103317
X0353504Y0107583
X0353425Y011185
X0348583
Y0107583
Y0103317
X0374646Y006884
X0381102Y0068879
X0308622Y0102661
X02617Y0095787
X0259778Y0148689
X0334222Y0146861
Y0136361
X0321522Y0174161
X0328884Y0182868
X01964Y00664
X0185878Y00685
X0191622Y0172061
T11
X0084122Y0020161
X0089122
X0237953Y0021811
Y0026811
X0273516Y0047561
Y0052561
Y0057561
X0348722Y0186461
X0353722
X0273465Y0167591
Y0162591
Y0157591
Y0152591
Y0147591
X0273583Y0140591
Y0135591
Y0130591
Y0125591
Y0120591
X02555Y0096
X02505
Y00874
X02555
X0273516Y0067561
Y0062561
X01921Y01214
X01871
X01884Y008742
Y008242
X0176811Y0069685
X0171811
X01483Y01753
X01433
X0069646Y0165512
X0064646
T12
X0319022Y0012861
X0329022
X0339022
X0349022
X0359022
X0369022
X0317722Y0186161
X0307722
X0297722
X0286378Y0186142
X0276378
T13
X0160744Y0035787
X0357422Y003265
X0379295Y01853
X0020827Y0098421
M30
